<svg id="Layer_1" data-name="Layer 1" xmlns="http://www.w3.org/2000/svg" viewBox="0 0 262 173"><defs><style>.cls-1{fill:#1d1d1b;}.cls-2,.cls-3,.cls-4{fill:none;stroke-miterlimit:10;}.cls-2,.cls-3{stroke:#c40d3c;}.cls-3{stroke-dasharray:2.3202 2.3202 2.3202 2.3202;}.cls-4{stroke:#d7d7d7;stroke-width:0.5px;}.cls-5{fill:#19233e;}</style></defs><path class="cls-1" d="M23.7041,3.74512v.769H21.5293v5.68652h-.88379V4.51416H18.4707v-.769Z"/><path class="cls-1" d="M24.40234,3.72314h.791V6.13135a2.284,2.284,0,0,1,.50586-.501,1.70322,1.70322,0,0,1,.95312-.25049,1.40852,1.40852,0,0,1,1.38868.71631,2.42841,2.42841,0,0,1,.19824,1.08545v3.019h-.81348V7.23438a1.66112,1.66112,0,0,0-.13086-.76026.84432.84432,0,0,0-.80859-.38672,1.34828,1.34828,0,0,0-.89258.33838,1.627,1.627,0,0,0-.40039,1.27881v2.49609h-.791Z"/><path class="cls-1" d="M32.31543,5.62354a1.78764,1.78764,0,0,1,.71191.60888,2.11268,2.11268,0,0,1,.31446.83057,5.43461,5.43461,0,0,1,.07031,1.03711H29.98828a2.036,2.036,0,0,0,.33594,1.15234,1.11857,1.11857,0,0,0,.97266.43408,1.24854,1.24854,0,0,0,.98046-.41064,1.40571,1.40571,0,0,0,.291-.55176h.77734a1.64785,1.64785,0,0,1-.2041.57813,2.08627,2.08627,0,0,1-.38769.5205,1.82376,1.82376,0,0,1-.88477.47461,2.67752,2.67752,0,0,1-.6416.07032A1.96371,1.96371,0,0,1,29.74707,9.728a2.49323,2.49323,0,0,1-.60645-1.79053A2.71283,2.71283,0,0,1,29.752,6.09619a2.00918,2.00918,0,0,1,1.59766-.70752A2.131,2.131,0,0,1,32.31543,5.62354Zm.2832,1.84814A2.08366,2.08366,0,0,0,32.377,6.6499a1.13853,1.13853,0,0,0-1.07715-.57129,1.18835,1.18835,0,0,0-.90625.39356,1.492,1.492,0,0,0-.38769.99951Z"/><path class="cls-1" d="M39.43652,7.35254a.42756.42756,0,0,0,.36426-.22852.69856.69856,0,0,0,.05274-.3042.64619.64619,0,0,0-.28711-.58886,1.5316,1.5316,0,0,0-.82227-.18311,1.04052,1.04052,0,0,0-.877.33545,1.1205,1.1205,0,0,0-.18848.55225h-.73828a1.36558,1.36558,0,0,1,.56348-1.21436,2.3117,2.3117,0,0,1,1.25781-.34131,2.5586,2.5586,0,0,1,1.34766.31641,1.075,1.075,0,0,1,.51367.98437V9.39209a.34335.34335,0,0,0,.05078.19775.2426.2426,0,0,0,.21289.07471,1.09466,1.09466,0,0,0,.11914-.00684c.043-.0039.08984-.01074.14062-.01953v.58448a2.20171,2.20171,0,0,1-.28125.06591,2.05486,2.05486,0,0,1-.26367.01319.65036.65036,0,0,1-.59375-.29,1.13563,1.13563,0,0,1-.13672-.43506,2.00821,2.00821,0,0,1-.69336.54932,2.15261,2.15261,0,0,1-.998.23291,1.48464,1.48464,0,0,1-1.07031-.39746,1.31887,1.31887,0,0,1-.415-.99366,1.27775,1.27775,0,0,1,.40918-1.01416,1.94161,1.94161,0,0,1,1.07226-.44336Zm-1.665,2.13672a.92787.92787,0,0,0,.59278.19726,1.80961,1.80961,0,0,0,.80859-.19287A1.08669,1.08669,0,0,0,39.832,8.44482V7.80859a1.33405,1.33405,0,0,1-.37305.1543,3.038,3.038,0,0,1-.44726.08789l-.47852.06152a1.84174,1.84174,0,0,0-.6455.18018.69816.69816,0,0,0-.36719.65772A.647.647,0,0,0,37.77148,9.48926Z"/><path class="cls-1" d="M41.94141,5.49414h.752v.813a1.78468,1.78468,0,0,1,.45215-.57813,1.17489,1.17489,0,0,1,.831-.34033c.01367,0,.03906.00147.07422.0044s.0957.00879.17969.01757v.835a1.186,1.186,0,0,0-.12891-.01758c-.03906-.00293-.083-.0044-.12988-.0044a1.13246,1.13246,0,0,0-.919.38428,1.3484,1.3484,0,0,0-.32031.88574v2.707h-.791Z"/><path class="cls-1" d="M48.02539,5.74463A1.85066,1.85066,0,0,1,48.625,7.07617h-.76855a1.41492,1.41492,0,0,0-.32129-.72314,1.01243,1.01243,0,0,0-.80371-.2876,1.111,1.111,0,0,0-1.08106.7373,2.92541,2.92541,0,0,0-.21094,1.18067,2.2192,2.2192,0,0,0,.29883,1.18945A1.16064,1.16064,0,0,0,47.459,9.356a1.65,1.65,0,0,0,.39747-.8208H48.625a2.06191,2.06191,0,0,1-.6582,1.36865,2.05552,2.05552,0,0,1-1.34961.4331,1.803,1.803,0,0,1-1.47266-.67431,2.58769,2.58769,0,0,1-.54883-1.68555,2.8441,2.8441,0,0,1,.60157-1.9292,1.94778,1.94778,0,0,1,1.53418-.68994A2.05036,2.05036,0,0,1,48.02539,5.74463Z"/><path class="cls-1" d="M49.416,3.72314h.791V6.13135a2.28423,2.28423,0,0,1,.50586-.501,1.70325,1.70325,0,0,1,.95313-.25049,1.40852,1.40852,0,0,1,1.38867.71631,2.42841,2.42841,0,0,1,.19824,1.08545v3.019h-.81348V7.23438a1.66112,1.66112,0,0,0-.13086-.76026A.84432.84432,0,0,0,51.5,6.0874a1.3483,1.3483,0,0,0-.89258.33838A1.627,1.627,0,0,0,50.207,7.70459v2.49609h-.791Z"/><path class="cls-1" d="M57.3291,5.62354a1.78774,1.78774,0,0,1,.71192.60888,2.11282,2.11282,0,0,1,.31445.83057,5.43461,5.43461,0,0,1,.07031,1.03711H55.002a2.036,2.036,0,0,0,.33594,1.15234,1.11858,1.11858,0,0,0,.97266.43408,1.24855,1.24855,0,0,0,.98047-.41064,1.40582,1.40582,0,0,0,.291-.55176h.77735a1.64809,1.64809,0,0,1-.20411.57813,2.086,2.086,0,0,1-.38769.5205,1.82367,1.82367,0,0,1-.88477.47461,2.67752,2.67752,0,0,1-.6416.07032A1.96373,1.96373,0,0,1,54.76074,9.728,2.49323,2.49323,0,0,1,54.1543,7.9375a2.71282,2.71282,0,0,1,.61132-1.84131,2.00918,2.00918,0,0,1,1.59766-.70752A2.131,2.131,0,0,1,57.3291,5.62354Zm.2832,1.84814a2.08366,2.08366,0,0,0-.22168-.82178,1.13852,1.13852,0,0,0-1.07714-.57129,1.18832,1.18832,0,0,0-.90625.39356,1.492,1.492,0,0,0-.3877.99951Z"/><path class="cls-1" d="M59.58594,4.18018h.79883v1.314h.75195v.646h-.75195V9.21191a.333.333,0,0,0,.168.32959.70475.70475,0,0,0,.30665.04834q.05859,0,.123-.00293c.04492-.00195.0957-.00683.1543-.01464v.62841a1.7736,1.7736,0,0,1-.2832.05713,2.70838,2.70838,0,0,1-.31836.01758.8585.8585,0,0,1-.752-.28369,1.25775,1.25775,0,0,1-.19726-.73584V6.14014h-.6377v-.646h.6377Z"/><path class="cls-1" d="M64.87012,5.49414h.874q-.167.45264-.74219,2.06641-.43067,1.21362-.7207,1.97851a13.3709,13.3709,0,0,1-.9668,2.1958,1.1022,1.1022,0,0,1-.96484.395,1.91393,1.91393,0,0,1-.25781-.01318,2.0422,2.0422,0,0,1-.22071-.04834v-.7207a2.6752,2.6752,0,0,0,.29786.07031,1.17122,1.17122,0,0,0,.1621.01318.57567.57567,0,0,0,.32325-.07226.67282.67282,0,0,0,.17285-.17774c.01465-.02344.06738-.14355.15723-.35937.09179-.2168.15722-.37744.19824-.48242L61.44238,5.49414h.89649l1.26074,3.834Z"/><path class="cls-1" d="M66.36133,5.51611h.77344v.624a1.92581,1.92581,0,0,1,.5205-.49659,1.67339,1.67339,0,0,1,.94239-.26367,1.77525,1.77525,0,0,1,1.36132.6128,2.50914,2.50914,0,0,1,.56055,1.75146,2.684,2.684,0,0,1-.80762,2.19727,1.82809,1.82809,0,0,1-1.1914.41748A1.62027,1.62027,0,0,1,67.625,10.126a2.078,2.078,0,0,1-.47266-.45264v2.40381h-.791Zm2.97656,3.68946a2.19762,2.19762,0,0,0,.36816-1.38672,2.5682,2.5682,0,0,0-.16308-.9668,1.19694,1.19694,0,0,0-2.25781.04395,3.23209,3.23209,0,0,0-.16309,1.11621,2.34807,2.34807,0,0,0,.16309.92724,1.20106,1.20106,0,0,0,2.05273.26612Z"/><path class="cls-1" d="M74.33984,5.62354a1.7908,1.7908,0,0,1,.71289.60888,2.12781,2.12781,0,0,1,.31446.83057,5.53732,5.53732,0,0,1,.06933,1.03711H72.01367a2.021,2.021,0,0,0,.33594,1.15234,1.11788,1.11788,0,0,0,.97168.43408,1.25061,1.25061,0,0,0,.98144-.41064,1.4037,1.4037,0,0,0,.29-.55176h.77832a1.672,1.672,0,0,1-.20507.57813,2.06067,2.06067,0,0,1-.38672.5205,1.82255,1.82255,0,0,1-.88575.47461,2.67176,2.67176,0,0,1-.6416.07032A1.96373,1.96373,0,0,1,71.77148,9.728,2.49753,2.49753,0,0,1,71.165,7.9375a2.71769,2.71769,0,0,1,.61133-1.84131A2.01113,2.01113,0,0,1,73.375,5.38867,2.124,2.124,0,0,1,74.33984,5.62354Zm.28321,1.84814a2.05144,2.05144,0,0,0-.22168-.82178,1.13756,1.13756,0,0,0-1.07715-.57129,1.1898,1.1898,0,0,0-.90625.39356,1.48647,1.48647,0,0,0-.38672.99951Z"/><path class="cls-1" d="M76.9082,8.72412a1.14167,1.14167,0,0,0,.20215.60645,1.28275,1.28275,0,0,0,1.0586.38232,1.598,1.598,0,0,0,.79-.19092.63365.63365,0,0,0,.33985-.59131.50322.50322,0,0,0-.27149-.46142,3.3008,3.3008,0,0,0-.68847-.22412l-.6377-.15821a3.14227,3.14227,0,0,1-.90234-.334.99509.99509,0,0,1-.51856-.8877,1.351,1.351,0,0,1,.48731-1.08105,1.96441,1.96441,0,0,1,1.3125-.41309,1.83154,1.83154,0,0,1,1.55371.624,1.34753,1.34753,0,0,1,.29.85254h-.748a.892.892,0,0,0-.19336-.48536,1.25506,1.25506,0,0,0-.9668-.31005,1.18393,1.18393,0,0,0-.69531.17089.53128.53128,0,0,0-.23633.45069.55354.55354,0,0,0,.31055.49072,1.893,1.893,0,0,0,.5293.19287l.53222.12744a4.17218,4.17218,0,0,1,1.16407.39991,1.05921,1.05921,0,0,1,.46191.95361,1.44767,1.44767,0,0,1-.4834,1.08545,2.06911,2.06911,0,0,1-1.46972.457,1.99128,1.99128,0,0,1-1.50684-.47705,1.78926,1.78926,0,0,1-.47363-1.17969Z"/><path class="cls-1" d="M86.84961,5.96387a2.374,2.374,0,0,1,.62305,1.78271,3.07326,3.07326,0,0,1-.54883,1.87891,1.98567,1.98567,0,0,1-1.707.74219,1.92023,1.92023,0,0,1-1.53125-.65625,2.6,2.6,0,0,1-.56739-1.76319,2.81647,2.81647,0,0,1,.59766-1.88769,2.00247,2.00247,0,0,1,1.60645-.70264A2.111,2.111,0,0,1,86.84961,5.96387ZM86.35742,9.0918a2.97748,2.97748,0,0,0,.28906-1.32325,2.37139,2.37139,0,0,0-.208-1.07128,1.17158,1.17158,0,0,0-1.13868-.64942,1.12121,1.12121,0,0,0-1.043.55322,2.5783,2.5783,0,0,0-.3252,1.334,2.24233,2.24233,0,0,0,.3252,1.251,1.14431,1.14431,0,0,0,1.03418.50048A1.07508,1.07508,0,0,0,86.35742,9.0918Z"/><path class="cls-1" d="M88.81348,4.05713a1.21029,1.21029,0,0,1,1.06738-.4043c.05078,0,.10156.00147.1543.0044s.11328.00732.17968.01318v.7207c-.082-.00586-.14257-.00927-.17968-.01074s-.07227-.00244-.10352-.00244c-.24414,0-.38867.0625-.43555.187a3.60868,3.60868,0,0,0-.07226.95117h.791v.624h-.791v4.06054h-.78125V6.14014H87.9873v-.624h.65528V4.77783A1.411,1.411,0,0,1,88.81348,4.05713Z"/><path class="cls-1" d="M93.4668,5.49414h.75195v.813a1.80472,1.80472,0,0,1,.45313-.57813,1.17431,1.17431,0,0,1,.83007-.34033c.01465,0,.03907.00147.07422.0044s.09571.00879.18067.01757v.835a1.16994,1.16994,0,0,0-.12989-.01758q-.05859-.0044-.1289-.0044a1.13114,1.13114,0,0,0-.919.38428,1.3442,1.3442,0,0,0-.32129.88574v2.707h-.791Z"/><path class="cls-1" d="M97.2334,5.49414V8.61865a1.34725,1.34725,0,0,0,.11133.58887.77186.77186,0,0,0,.7666.42187,1.085,1.085,0,0,0,1.0957-.73828,3.00329,3.00329,0,0,0,.1582-1.08545V5.49414h.791v4.70654H99.4082l.00977-.69433a1.60756,1.60756,0,0,1-.376.45263,1.6296,1.6296,0,0,1-1.07715.36914,1.38263,1.38263,0,0,1-1.3457-.67236,2.02817,2.02817,0,0,1-.19434-.9624V5.49414Z"/><path class="cls-1" d="M101.46973,5.49414h.751v.813a1.81912,1.81912,0,0,1,.45313-.57813,1.176,1.176,0,0,1,.83008-.34033c.01562,0,.04.00147.07519.0044s.09473.00879.18067.01757v.835a1.15548,1.15548,0,0,0-.13086-.01758q-.05861-.0044-.12891-.0044a1.12779,1.12779,0,0,0-.918.38428,1.33917,1.33917,0,0,0-.32129.88574v2.707h-.791Z"/><path class="cls-1" d="M106.9668,7.35254A.43054.43054,0,0,0,107.332,7.124a.69856.69856,0,0,0,.05274-.3042.64619.64619,0,0,0-.28711-.58886,1.53389,1.53389,0,0,0-.82227-.18311,1.04052,1.04052,0,0,0-.877.33545,1.11066,1.11066,0,0,0-.18946.55225h-.73828a1.36835,1.36835,0,0,1,.56446-1.21436,2.3117,2.3117,0,0,1,1.25781-.34131,2.55854,2.55854,0,0,1,1.34765.31641,1.075,1.075,0,0,1,.51368.98437V9.39209a.336.336,0,0,0,.05078.19775c.0332.04981.10351.07471.21289.07471a1.06491,1.06491,0,0,0,.11816-.00684c.04395-.0039.09082-.01074.14063-.01953v.58448a2.20249,2.20249,0,0,1-.28125.06591,2.05507,2.05507,0,0,1-.26367.01319.64976.64976,0,0,1-.59278-.29,1.11892,1.11892,0,0,1-.13672-.43506,2.01249,2.01249,0,0,1-.69433.54932,2.1458,2.1458,0,0,1-.99707.23291,1.4831,1.4831,0,0,1-1.07032-.39746,1.3162,1.3162,0,0,1-.416-.99366,1.28094,1.28094,0,0,1,.40918-1.01416,1.94776,1.94776,0,0,1,1.07226-.44336Zm-1.665,2.13672a.92976.92976,0,0,0,.59277.19726,1.80348,1.80348,0,0,0,.80859-.19287,1.08751,1.08751,0,0,0,.66016-1.04883V7.80859a1.34666,1.34666,0,0,1-.37305.1543,3.038,3.038,0,0,1-.44726.08789l-.47852.06152a1.84808,1.84808,0,0,0-.64648.18018.69987.69987,0,0,0-.36719.65772A.64966.64966,0,0,0,105.30176,9.48926Z"/><path class="cls-1" d="M109.47266,3.74512h.791v6.45556h-.791Z"/><path class="cls-1" d="M113.88477,5.51611h.77343v.624a1.923,1.923,0,0,1,.51953-.49659,1.67886,1.67886,0,0,1,.94336-.26367,1.77672,1.77672,0,0,1,1.36133.6128,2.50861,2.50861,0,0,1,.5586,1.75146,2.68371,2.68371,0,0,1-.80664,2.19727,1.83,1.83,0,0,1-1.19141.41748,1.62254,1.62254,0,0,1-.89551-.23291,2.0376,2.0376,0,0,1-.47168-.45264v2.40381h-.791Zm2.97558,3.68946a2.20372,2.20372,0,0,0,.36817-1.38672,2.58753,2.58753,0,0,0-.16309-.9668,1.19694,1.19694,0,0,0-2.25781.04395,3.25574,3.25574,0,0,0-.16309,1.11621,2.36572,2.36572,0,0,0,.16309.92724,1.20106,1.20106,0,0,0,2.05273.26612Z"/><path class="cls-1" d="M118.97754,5.49414h.75195v.813a1.76313,1.76313,0,0,1,.45313-.57813,1.16932,1.16932,0,0,1,.83008-.34033c.01367,0,.03906.00147.07421.0044s.09571.00879.17969.01757v.835a1.18548,1.18548,0,0,0-.1289-.01758c-.03907-.00293-.084-.0044-.12891-.0044a1.13183,1.13183,0,0,0-.91992.38428,1.34841,1.34841,0,0,0-.32032.88574v2.707h-.791Z"/><path class="cls-1" d="M125.3623,5.96387a2.37435,2.37435,0,0,1,.624,1.78271,3.07363,3.07363,0,0,1-.54981,1.87891,1.98376,1.98376,0,0,1-1.70605.74219,1.92226,1.92226,0,0,1-1.53223-.65625,2.60454,2.60454,0,0,1-.5664-1.76319,2.81647,2.81647,0,0,1,.59765-1.88769,2.0005,2.0005,0,0,1,1.60547-.70264A2.10941,2.10941,0,0,1,125.3623,5.96387Zm-.49121,3.12793a2.99074,2.99074,0,0,0,.28907-1.32325,2.37048,2.37048,0,0,0-.209-1.07128,1.17105,1.17105,0,0,0-1.13769-.64942,1.1192,1.1192,0,0,0-1.043.55322,2.57851,2.57851,0,0,0-.32617,1.334,2.24253,2.24253,0,0,0,.32617,1.251,1.14322,1.14322,0,0,0,1.03418.50048A1.076,1.076,0,0,0,124.87109,9.0918Z"/><path class="cls-1" d="M127.42871,8.72412a1.1334,1.1334,0,0,0,.20117.60645,1.28275,1.28275,0,0,0,1.0586.38232,1.589,1.589,0,0,0,.78906-.19092.63361.63361,0,0,0,.3418-.59131.505.505,0,0,0-.27344-.46142,3.24459,3.24459,0,0,0-.6875-.22412l-.63867-.15821a3.1456,3.1456,0,0,1-.90137-.334.99511.99511,0,0,1-.51856-.8877,1.34806,1.34806,0,0,1,.48731-1.08105,1.96343,1.96343,0,0,1,1.31152-.41309,1.83233,1.83233,0,0,1,1.55469.624,1.34076,1.34076,0,0,1,.28906.85254h-.74609a.9008.9008,0,0,0-.19434-.48536,1.255,1.255,0,0,0-.96679-.31005,1.18394,1.18394,0,0,0-.69532.17089.53035.53035,0,0,0-.23535.45069.55251.55251,0,0,0,.30957.49072,1.90889,1.90889,0,0,0,.52832.19287l.53321.12744a4.17221,4.17221,0,0,1,1.16406.39991,1.05852,1.05852,0,0,1,.46094.95361,1.44321,1.44321,0,0,1-.48243,1.08545,2.07013,2.07013,0,0,1-1.4707.457,1.98729,1.98729,0,0,1-1.50586-.47705,1.78926,1.78926,0,0,1-.47363-1.17969Z"/><path class="cls-1" d="M131.3916,5.51611h.77344v.624a1.9257,1.9257,0,0,1,.52051-.49659,1.67556,1.67556,0,0,1,.94238-.26367,1.77724,1.77724,0,0,1,1.3623.6128,2.51355,2.51355,0,0,1,.55957,1.75146,2.684,2.684,0,0,1-.80761,2.19727,1.83,1.83,0,0,1-1.19141.41748,1.62254,1.62254,0,0,1-.89551-.23291,2.05821,2.05821,0,0,1-.47265-.45264v2.40381h-.791Zm2.97656,3.68946a2.20372,2.20372,0,0,0,.36817-1.38672,2.58753,2.58753,0,0,0-.16309-.9668,1.19694,1.19694,0,0,0-2.25781.04395,3.25574,3.25574,0,0,0-.16309,1.11621,2.36572,2.36572,0,0,0,.16309.92724,1.20106,1.20106,0,0,0,2.05273.26612Z"/><path class="cls-1" d="M139.37109,5.62354a1.78767,1.78767,0,0,1,.71192.60888,2.11267,2.11267,0,0,1,.31445.83057,5.43377,5.43377,0,0,1,.07031,1.03711H137.044a2.036,2.036,0,0,0,.33593,1.15234,1.11791,1.11791,0,0,0,.97168.43408,1.24923,1.24923,0,0,0,.98145-.41064,1.40556,1.40556,0,0,0,.291-.55176h.77735a1.64825,1.64825,0,0,1-.2041.57813,2.08629,2.08629,0,0,1-.3877.5205,1.82367,1.82367,0,0,1-.88477.47461,2.67752,2.67752,0,0,1-.6416.07032,1.96223,1.96223,0,0,1-1.48047-.63965,2.49753,2.49753,0,0,1-.60644-1.79053,2.71278,2.71278,0,0,1,.61133-1.84131,2.01113,2.01113,0,0,1,1.59863-.70752A2.13009,2.13009,0,0,1,139.37109,5.62354Zm.28321,1.84814a2.06674,2.06674,0,0,0-.22266-.82178,1.136,1.136,0,0,0-1.07617-.57129,1.18834,1.18834,0,0,0-.90625.39356,1.492,1.492,0,0,0-.3877.99951Z"/><path class="cls-1" d="M141.49023,5.49414h.752v.813a1.79063,1.79063,0,0,1,.45312-.57813,1.17266,1.17266,0,0,1,.83008-.34033c.01465,0,.03906.00147.07422.0044s.0957.00879.18066.01757v.835a1.16946,1.16946,0,0,0-.12988-.01758c-.03906-.00293-.083-.0044-.12891-.0044a1.12981,1.12981,0,0,0-.91894.38428,1.3442,1.3442,0,0,0-.32129.88574v2.707h-.791Z"/><path class="cls-1" d="M144.46582,3.74512h.80469V4.6416h-.80469Zm0,1.771h.80469v4.68457h-.80469Z"/><path class="cls-1" d="M146.624,4.18018h.79981v1.314h.751v.646h-.751V9.21191a.33237.33237,0,0,0,.167.32959.70973.70973,0,0,0,.30762.04834q.05712,0,.123-.00293c.04395-.00195.09473-.00683.15332-.01464v.62841a1.752,1.752,0,0,1-.2832.05713,2.68424,2.68424,0,0,1-.31836.01758.85965.85965,0,0,1-.75195-.28369,1.26492,1.26492,0,0,1-.19727-.73584V6.14014h-.63672v-.646h.63672Z"/><path class="cls-1" d="M151.9082,5.49414h.874q-.167.45264-.74219,2.06641-.43067,1.21362-.7207,1.97851a13.49511,13.49511,0,0,1-.96582,2.1958,1.10532,1.10532,0,0,1-.96582.395,1.88785,1.88785,0,0,1-.25684-.01318,1.95662,1.95662,0,0,1-.22168-.04834v-.7207a2.67569,2.67569,0,0,0,.29785.07031,1.15986,1.15986,0,0,0,.16211.01318.56984.56984,0,0,0,.32227-.07226.6616.6616,0,0,0,.17382-.17774c.01465-.02344.06739-.14355.15821-.35937.08984-.2168.15625-.37744.19726-.48242l-1.74023-4.84522h.89648l1.26075,3.834Z"/><line class="cls-2" x1="34.89307" y1="156.90617" x2="33.39307" y2="156.90617"/><line class="cls-3" x1="31.07275" y1="156.90617" x2="22.95215" y2="156.90617"/><line class="cls-2" x1="21.79199" y1="156.90617" x2="20.29199" y2="156.90617"/><line class="cls-4" x1="20.41293" y1="133.95637" x2="210.2259" y2="133.95637"/><path class="cls-1" d="M12.169,136.334H9.915v-.38476l2.2959-3.2832h.40625v3.29h.68554v.37793h-.68554v1.21778H12.169Zm-1.81348-.37793H12.169v-2.61816Z"/><path class="cls-1" d="M16.61426,133.82812a1.15254,1.15254,0,0,0-.30762-.60546.85764.85764,0,0,0-.63086-.22754,1.09227,1.09227,0,0,0-.7168.21679,1.39559,1.39559,0,0,0-.40234.54981,2.7355,2.7355,0,0,0-.18945.72363q-.04982.39258-.07715.74219c.07031-.09277.14355-.18652.2207-.2793a1.47576,1.47576,0,0,1,.2627-.249,1.23034,1.23034,0,0,1,.34277-.17481,1.44659,1.44659,0,0,1,.46875-.0664,1.53954,1.53954,0,0,1,1.15918.42285,1.87292,1.87292,0,0,1-.00391,2.3418,1.549,1.549,0,0,1-1.16894.42675,1.89676,1.89676,0,0,1-.68652-.12207,1.32728,1.32728,0,0,1-.54493-.40234,2.06081,2.06081,0,0,1-.36523-.73145,3.98314,3.98314,0,0,1-.13281-1.10253,5.6426,5.6426,0,0,1,.07715-.91407,2.95849,2.95849,0,0,1,.27636-.86425,1.77518,1.77518,0,0,1,.54688-.64356,1.477,1.477,0,0,1,.89258-.25195,1.53889,1.53889,0,0,1,.97949.30761,1.28492,1.28492,0,0,1,.46191.90332Zm-1.043,1.00782a1.072,1.072,0,0,0-.46582.09765,1.03863,1.03863,0,0,0-.34961.26661,1.18588,1.18588,0,0,0-.2207.38769,1.44066,1.44066,0,0,0-.07715.47266,1.59676,1.59676,0,0,0,.05957.42383,1.10717,1.10717,0,0,0,.19629.38867,1.07749,1.07749,0,0,0,.34668.28711,1.09359,1.09359,0,0,0,.51757.11132,1.157,1.157,0,0,0,.52833-.10839.97279.97279,0,0,0,.34667-.28711,1.17864,1.17864,0,0,0,.19239-.39844,1.68461,1.68461,0,0,0,.05957-.44434,1.28872,1.28872,0,0,0-.27637-.88574A1.08775,1.08775,0,0,0,15.57129,134.83594Z"/><path class="cls-1" d="M12.169,119.29H9.915v-.38477l2.2959-3.2832h.40625v3.29h.68554V119.29h-.68554v1.21777H12.169Zm-1.81348-.37793H12.169V116.294Z"/><path class="cls-1" d="M14.72461,117.85449a3.35821,3.35821,0,0,1-.3125-.21289,1.10238,1.10238,0,0,1-.21289-.2207.7903.7903,0,0,1-.12305-.26953,1.56117,1.56117,0,0,1-.03808-.375,1.0549,1.0549,0,0,1,.1123-.47559,1.254,1.254,0,0,1,.30078-.38867,1.36308,1.36308,0,0,1,.44434-.25488,1.5172,1.5172,0,0,1,.5498-.084,2.20735,2.20735,0,0,1,.54883.06934,1.49626,1.49626,0,0,1,.48047.2168,1.11672,1.11672,0,0,1,.33594.375,1.10055,1.10055,0,0,1,.125.542,1.30023,1.30023,0,0,1-.15625.6582,1.15521,1.15521,0,0,1-.51563.44824,1.32764,1.32764,0,0,1,.64063.46875,1.25068,1.25068,0,0,1,.23437.75586,1.60405,1.60405,0,0,1-.12207.64453,1.24077,1.24077,0,0,1-.35058.46875,1.54492,1.54492,0,0,1-.54883.28711,2.44555,2.44555,0,0,1-.71387.09766,1.72374,1.72374,0,0,1-.542-.09082,1.5181,1.5181,0,0,1-.49805-.27246,1.4319,1.4319,0,0,1-.35937-.45508,1.376,1.376,0,0,1-.14063-.6377,1.43154,1.43154,0,0,1,.2207-.78711A1.26859,1.26859,0,0,1,14.72461,117.85449Zm.7832.23828a1.70283,1.70283,0,0,0-.47558.06348,1.06431,1.06431,0,0,0-.37793.19238.87592.87592,0,0,0-.252.3291,1.12891,1.12891,0,0,0-.09179.47168,1.01681,1.01681,0,0,0,.333.76661,1.14674,1.14674,0,0,0,.38575.22753,1.43321,1.43321,0,0,0,.50683.084,1.25955,1.25955,0,0,0,.45508-.08008,1.13826,1.13826,0,0,0,.36817-.22754,1.03481,1.03481,0,0,0,.24414-.35058,1.1112,1.1112,0,0,0,.08789-.44727,1.05239,1.05239,0,0,0-.0918-.45215.89667.89667,0,0,0-.25195-.32129,1.05987,1.05987,0,0,0-.377-.19238A1.65173,1.65173,0,0,0,15.50781,118.09277Zm-.02051-2.1416a1.33185,1.33185,0,0,0-.3916.05567.9111.9111,0,0,0-.31836.168.775.775,0,0,0-.21484.28028.92035.92035,0,0,0-.07617.38476.8272.8272,0,0,0,.08789.39551.76214.76214,0,0,0,.23437.26953,1.04385,1.04385,0,0,0,.33594.15723,1.44117,1.44117,0,0,0,.3916.05273,1.30428,1.30428,0,0,0,.37793-.05273.74055.74055,0,0,0,.30078-.1709.83949.83949,0,0,0,.19922-.30176,1.18024,1.18024,0,0,0,.07422-.44726.724.724,0,0,0-.24512-.585A1.15486,1.15486,0,0,0,15.4873,115.95117Z"/><path class="cls-1" d="M10.35547,102.18262a1.07845,1.07845,0,0,0,.40332.75293,1.32663,1.32663,0,0,0,.81543.248,1.20171,1.20171,0,0,0,.49316-.09765,1.07866,1.07866,0,0,0,.374-.26953,1.16252,1.16252,0,0,0,.23535-.39942,1.46347,1.46347,0,0,0,.081-.49316,1.408,1.408,0,0,0-.08789-.50391,1.20919,1.20919,0,0,0-.24512-.39941,1.05744,1.05744,0,0,0-.38574-.25879,1.35377,1.35377,0,0,0-.50683-.09082,1.43745,1.43745,0,0,0-.60254.12207,1.249,1.249,0,0,0-.46875.38867l-.3711-.04883.39942-2.55469h2.45019v.37793H10.86719l-.3086,1.65918c.09864-.06054.18848-.1123.26953-.15429a1.49964,1.49964,0,0,1,.249-.10156,1.42209,1.42209,0,0,1,.26269-.05274c.09082-.00879.19239-.01367.30469-.01367a1.69019,1.69019,0,0,1,.62305.1123,1.41754,1.41754,0,0,1,.49609.32129,1.43672,1.43672,0,0,1,.32617.51465,1.93188,1.93188,0,0,1,.11524.68262,1.77073,1.77073,0,0,1-.12891.69629,1.55868,1.55868,0,0,1-.34765.51465,1.46181,1.46181,0,0,1-.5.31835,1.62425,1.62425,0,0,1-.584.1084,2.949,2.949,0,0,1-.6543-.06933,1.49146,1.49146,0,0,1-.53613-.23438,1.27009,1.27009,0,0,1-.374-.42773,1.57578,1.57578,0,0,1-.17188-.64746Z"/><path class="cls-1" d="M15.501,98.5293a1.66348,1.66348,0,0,1,.62988.1084,1.311,1.311,0,0,1,.45117.29687,1.539,1.539,0,0,1,.30176.44141,2.7337,2.7337,0,0,1,.17871.53515,4.056,4.056,0,0,1,.084.585q.02052.3003.02051.58789a6.16213,6.16213,0,0,1-.06933.9375,2.46226,2.46226,0,0,1-.25586.791,1.43884,1.43884,0,0,1-.50782.5459,1.53651,1.53651,0,0,1-.833.20312,1.55785,1.55785,0,0,1-.83692-.20312,1.42262,1.42262,0,0,1-.50976-.54883,2.46371,2.46371,0,0,1-.25586-.80566,6.37461,6.37461,0,0,1-.07032-.96875,6.73694,6.73694,0,0,1,.0625-.917,2.57593,2.57593,0,0,1,.24219-.80175,1.45973,1.45973,0,0,1,.50781-.57032A1.53692,1.53692,0,0,1,15.501,98.5293Zm1.21777,2.50586a6.61252,6.61252,0,0,0-.04492-.78125,2.396,2.396,0,0,0-.17871-.68164,1.20061,1.20061,0,0,0-.374-.4834,1.03134,1.03134,0,0,0-.63379-.18164.94479.94479,0,0,0-.60546.18554,1.23413,1.23413,0,0,0-.36817.49317,2.67849,2.67849,0,0,0-.18555.70019,5.97382,5.97382,0,0,0-.05175.79785,5.68388,5.68388,0,0,0,.05957.86426,2.1501,2.1501,0,0,0,.19922.66211,1.00033,1.00033,0,0,0,.96582.57324.98919.98919,0,0,0,.64062-.19531,1.24018,1.24018,0,0,0,.36817-.50488,2.56094,2.56094,0,0,0,.168-.69238A7.13631,7.13631,0,0,0,16.71875,101.03516Z"/><path class="cls-1" d="M10.35547,85.13867a1.07841,1.07841,0,0,0,.40332.75293,1.32664,1.32664,0,0,0,.81543.24805,1.20171,1.20171,0,0,0,.49316-.09766,1.07853,1.07853,0,0,0,.374-.26953,1.16257,1.16257,0,0,0,.23535-.39941,1.46348,1.46348,0,0,0,.081-.49317,1.40789,1.40789,0,0,0-.08789-.5039,1.20934,1.20934,0,0,0-.24512-.39942,1.05744,1.05744,0,0,0-.38574-.25879,1.354,1.354,0,0,0-.50683-.09082,1.4376,1.4376,0,0,0-.60254.12207,1.24907,1.24907,0,0,0-.46875.38868l-.3711-.04883.39942-2.55469h2.45019v.37793H10.86719l-.3086,1.65918c.09864-.06055.18848-.11231.26953-.1543a1.49964,1.49964,0,0,1,.249-.10156,1.42208,1.42208,0,0,1,.26269-.05273c.09082-.00879.19239-.01368.30469-.01368a1.69,1.69,0,0,1,.62305.11231,1.41754,1.41754,0,0,1,.49609.32129,1.43654,1.43654,0,0,1,.32617.51465,1.93179,1.93179,0,0,1,.11524.68261,1.7707,1.7707,0,0,1-.12891.69629,1.55858,1.55858,0,0,1-.34765.51465,1.46183,1.46183,0,0,1-.5.31836,1.62425,1.62425,0,0,1-.584.1084,2.949,2.949,0,0,1-.6543-.06934,1.49145,1.49145,0,0,1-.53613-.23437,1.27,1.27,0,0,1-.374-.42774,1.57569,1.57569,0,0,1-.17188-.64746Z"/><path class="cls-1" d="M14.03809,83.10156a1.87434,1.87434,0,0,1,.1123-.66113,1.40934,1.40934,0,0,1,.8291-.83984,1.81051,1.81051,0,0,1,.66113-.11524,1.82877,1.82877,0,0,1,.65528.1084,1.43469,1.43469,0,0,1,.47558.29,1.18333,1.18333,0,0,1,.291.43457,1.5531,1.5531,0,0,1-.01074,1.1123,1.59893,1.59893,0,0,1-.28711.44825,2.28913,2.28913,0,0,1-.40527.34961q-.22853.15526-.4668.291-.2373.13623-.46875.2627a3.158,3.158,0,0,0-.41211.26562c-.08008.06055-.15625.125-.23145.19238a1.66528,1.66528,0,0,0-.20312.22071,1.06427,1.06427,0,0,0-.14746.26269.9662.9662,0,0,0-.0625.31836h2.751v.37793H13.89062a3.02339,3.02339,0,0,1,.07813-.64355,1.3261,1.3261,0,0,1,.30762-.56055,3.66116,3.66116,0,0,1,.53515-.50391q.27686-.20946.542-.374.2666-.16552.50488-.30176a2.56607,2.56607,0,0,0,.41992-.29687,1.2395,1.2395,0,0,0,.28613-.36426,1.0687,1.0687,0,0,0,.10547-.49707,1.03077,1.03077,0,0,0-.084-.42676.94121.94121,0,0,0-.57422-.52148,1.30363,1.30363,0,0,0-.42676-.06641.95693.95693,0,0,0-.44434.10156,1.088,1.088,0,0,0-.34277.26954,1.19218,1.19218,0,0,0-.2207.3916,1.23969,1.23969,0,0,0-.06348.47558Z"/><path class="cls-1" d="M10.35547,68.09473a1.07845,1.07845,0,0,0,.40332.75293,1.32663,1.32663,0,0,0,.81543.248,1.20171,1.20171,0,0,0,.49316-.09765,1.07866,1.07866,0,0,0,.374-.26953,1.16252,1.16252,0,0,0,.23535-.39942,1.46347,1.46347,0,0,0,.081-.49316,1.408,1.408,0,0,0-.08789-.50391,1.20919,1.20919,0,0,0-.24512-.39941,1.05744,1.05744,0,0,0-.38574-.25879,1.35377,1.35377,0,0,0-.50683-.09082,1.43745,1.43745,0,0,0-.60254.12207,1.249,1.249,0,0,0-.46875.38867l-.3711-.04883.39942-2.55469h2.45019v.37793H10.86719l-.3086,1.65918c.09864-.06054.18848-.1123.26953-.15429a1.49969,1.49969,0,0,1,.249-.10157,1.4229,1.4229,0,0,1,.26269-.05273c.09082-.00879.19239-.01367.30469-.01367a1.69019,1.69019,0,0,1,.62305.1123,1.41754,1.41754,0,0,1,.49609.32129,1.43672,1.43672,0,0,1,.32617.51465,1.93184,1.93184,0,0,1,.11524.68262,1.77073,1.77073,0,0,1-.12891.69629,1.55868,1.55868,0,0,1-.34765.51465,1.46181,1.46181,0,0,1-.5.31835,1.62425,1.62425,0,0,1-.584.1084,2.949,2.949,0,0,1-.6543-.06933,1.49146,1.49146,0,0,1-.53613-.23438,1.27009,1.27009,0,0,1-.374-.42773,1.57578,1.57578,0,0,1-.17188-.64746Z"/><path class="cls-1" d="M16.06055,68.1582H13.80664v-.38476l2.29688-3.28321h.40625v3.29h.68554v.37793h-.68554V69.376h-.44922Zm-1.8125-.37793h1.8125V65.16211Z"/><path class="cls-1" d="M10.35547,51.05078a1.07841,1.07841,0,0,0,.40332.75293,1.32664,1.32664,0,0,0,.81543.248,1.20171,1.20171,0,0,0,.49316-.09766,1.07853,1.07853,0,0,0,.374-.26953,1.16257,1.16257,0,0,0,.23535-.39941,1.46348,1.46348,0,0,0,.081-.49317,1.40789,1.40789,0,0,0-.08789-.5039,1.20934,1.20934,0,0,0-.24512-.39942,1.05744,1.05744,0,0,0-.38574-.25879,1.354,1.354,0,0,0-.50683-.09082,1.4376,1.4376,0,0,0-.60254.12207,1.24913,1.24913,0,0,0-.46875.38867l-.3711-.04882.39942-2.55469h2.45019v.37793H10.86719l-.3086,1.65918c.09864-.06055.18848-.11231.26953-.1543a1.49964,1.49964,0,0,1,.249-.10156,1.42291,1.42291,0,0,1,.26269-.05274c.09082-.00878.19239-.01367.30469-.01367a1.69,1.69,0,0,1,.62305.11231,1.41754,1.41754,0,0,1,.49609.32129,1.43654,1.43654,0,0,1,.32617.51465,1.93179,1.93179,0,0,1,.11524.68261,1.7707,1.7707,0,0,1-.12891.69629,1.55858,1.55858,0,0,1-.34765.51465,1.46183,1.46183,0,0,1-.5.31836,1.62446,1.62446,0,0,1-.584.1084,2.949,2.949,0,0,1-.6543-.06934,1.49145,1.49145,0,0,1-.53613-.23437,1.27012,1.27012,0,0,1-.374-.42774,1.57569,1.57569,0,0,1-.17188-.64746Z"/><path class="cls-1" d="M16.61426,48.6084a1.15261,1.15261,0,0,0-.30762-.60547.85768.85768,0,0,0-.63086-.22754,1.09228,1.09228,0,0,0-.7168.2168,1.39549,1.39549,0,0,0-.40234.5498,2.7355,2.7355,0,0,0-.18945.72363q-.04982.39258-.07715.74219c.07031-.09277.14355-.18652.2207-.27929a1.47617,1.47617,0,0,1,.2627-.249,1.23032,1.23032,0,0,1,.34277-.1748,1.44657,1.44657,0,0,1,.46875-.06641,1.53958,1.53958,0,0,1,1.15918.42285,1.87292,1.87292,0,0,1-.00391,2.3418,1.549,1.549,0,0,1-1.16894.42676,1.897,1.897,0,0,1-.68652-.12207,1.32722,1.32722,0,0,1-.54493-.40235,2.06084,2.06084,0,0,1-.36523-.73144,3.98327,3.98327,0,0,1-.13281-1.10254,5.64248,5.64248,0,0,1,.07715-.91406,2.95856,2.95856,0,0,1,.27636-.86426,1.77518,1.77518,0,0,1,.54688-.64356,1.47707,1.47707,0,0,1,.89258-.252,1.53884,1.53884,0,0,1,.97949.30762,1.2849,1.2849,0,0,1,.46191.90332Zm-1.043,1.00781a1.072,1.072,0,0,0-.46582.09766,1.0386,1.0386,0,0,0-.34961.2666,1.186,1.186,0,0,0-.2207.38769,1.44066,1.44066,0,0,0-.07715.47266,1.5967,1.5967,0,0,0,.05957.42383,1.10708,1.10708,0,0,0,.19629.38867,1.07749,1.07749,0,0,0,.34668.28711,1.09359,1.09359,0,0,0,.51757.11133,1.157,1.157,0,0,0,.52833-.1084.97279.97279,0,0,0,.34667-.28711,1.17855,1.17855,0,0,0,.19239-.39844,1.6846,1.6846,0,0,0,.05957-.44433,1.28875,1.28875,0,0,0-.27637-.88575A1.08778,1.08778,0,0,0,15.57129,49.61621Z"/><path class="cls-1" d="M10.35547,34.00684a1.07845,1.07845,0,0,0,.40332.75293,1.3267,1.3267,0,0,0,.81543.248,1.20171,1.20171,0,0,0,.49316-.09765,1.07855,1.07855,0,0,0,.374-.26954,1.16248,1.16248,0,0,0,.23535-.39941,1.46347,1.46347,0,0,0,.081-.49316,1.408,1.408,0,0,0-.08789-.50391,1.20919,1.20919,0,0,0-.24512-.39941,1.05732,1.05732,0,0,0-.38574-.25879,1.35377,1.35377,0,0,0-.50683-.09082,1.43745,1.43745,0,0,0-.60254.12207,1.249,1.249,0,0,0-.46875.38867l-.3711-.04883.39942-2.55469h2.45019v.37793H10.86719l-.3086,1.65918c.09864-.06054.18848-.1123.26953-.15429a1.49883,1.49883,0,0,1,.249-.10157,1.42208,1.42208,0,0,1,.26269-.05273c.09082-.00879.19239-.01367.30469-.01367a1.69019,1.69019,0,0,1,.62305.1123,1.41754,1.41754,0,0,1,.49609.32129,1.43663,1.43663,0,0,1,.32617.51465,1.9318,1.9318,0,0,1,.11524.68262,1.77073,1.77073,0,0,1-.12891.69629,1.55853,1.55853,0,0,1-.34765.51464,1.46168,1.46168,0,0,1-.5.31836,1.62425,1.62425,0,0,1-.584.1084,2.9496,2.9496,0,0,1-.6543-.06933,1.49146,1.49146,0,0,1-.53613-.23438,1.27009,1.27009,0,0,1-.374-.42773,1.57578,1.57578,0,0,1-.17188-.64746Z"/><path class="cls-1" d="M14.72461,32.63477a3.35821,3.35821,0,0,1-.3125-.21289,1.10242,1.10242,0,0,1-.21289-.22071.79021.79021,0,0,1-.12305-.26953,1.56117,1.56117,0,0,1-.03808-.375,1.0549,1.0549,0,0,1,.1123-.47559,1.254,1.254,0,0,1,.30078-.38867,1.36344,1.36344,0,0,1,.44434-.25488,1.517,1.517,0,0,1,.5498-.084,2.20734,2.20734,0,0,1,.54883.06933,1.49647,1.49647,0,0,1,.48047.2168,1.11672,1.11672,0,0,1,.33594.375,1.10057,1.10057,0,0,1,.125.542,1.30021,1.30021,0,0,1-.15625.6582,1.15523,1.15523,0,0,1-.51563.44825,1.32751,1.32751,0,0,1,.64063.46875,1.25064,1.25064,0,0,1,.23437.75586,1.60412,1.60412,0,0,1-.12207.64453,1.24093,1.24093,0,0,1-.35058.46875,1.54508,1.54508,0,0,1-.54883.28711,2.44556,2.44556,0,0,1-.71387.09765,1.72374,1.72374,0,0,1-.542-.09082,1.51792,1.51792,0,0,1-.49805-.27246,1.4319,1.4319,0,0,1-.35937-.45508,1.376,1.376,0,0,1-.14063-.63769,1.43149,1.43149,0,0,1,.2207-.78711A1.26854,1.26854,0,0,1,14.72461,32.63477Zm.7832.23828a1.70284,1.70284,0,0,0-.47558.06347,1.06433,1.06433,0,0,0-.37793.19239.87576.87576,0,0,0-.252.3291,1.12887,1.12887,0,0,0-.09179.47168,1.01681,1.01681,0,0,0,.333.7666,1.14693,1.14693,0,0,0,.38575.22754,1.43344,1.43344,0,0,0,.50683.084,1.25934,1.25934,0,0,0,.45508-.08008,1.13841,1.13841,0,0,0,.36817-.22753,1.035,1.035,0,0,0,.24414-.35059,1.1112,1.1112,0,0,0,.08789-.44727,1.05231,1.05231,0,0,0-.0918-.45214.89659.89659,0,0,0-.25195-.32129,1.05988,1.05988,0,0,0-.377-.19239A1.65173,1.65173,0,0,0,15.50781,32.87305Zm-.02051-2.1416a1.33185,1.33185,0,0,0-.3916.05566.911.911,0,0,0-.31836.168.775.775,0,0,0-.21484.28027.9204.9204,0,0,0-.07617.38477.82718.82718,0,0,0,.08789.3955.76226.76226,0,0,0,.23437.26954,1.04383,1.04383,0,0,0,.33594.15722,1.44117,1.44117,0,0,0,.3916.05274,1.30427,1.30427,0,0,0,.37793-.05274.74032.74032,0,0,0,.30078-.1709.83936.83936,0,0,0,.19922-.30175,1.18033,1.18033,0,0,0,.07422-.44727.72407.72407,0,0,0-.24512-.585A1.15486,1.15486,0,0,0,15.4873,30.73145Z"/><line class="cls-4" x1="20.41293" y1="133.95637" x2="210.2259" y2="133.95637"/><line class="cls-4" x1="20.41293" y1="116.91239" x2="210.2259" y2="116.91239"/><line class="cls-4" x1="20.41293" y1="99.8684" x2="210.2259" y2="99.8684"/><line class="cls-4" x1="20.41293" y1="82.82442" x2="210.2259" y2="82.82442"/><line class="cls-4" x1="20.41293" y1="65.78044" x2="210.2259" y2="65.78044"/><line class="cls-4" x1="20.41293" y1="48.73646" x2="210.2259" y2="48.73646"/><line class="cls-4" x1="20.41293" y1="31.69248" x2="210.2259" y2="31.69248"/><rect class="cls-5" x="29.27087" y="57.12365" width="45.55511" height="76.83272"/><rect class="cls-5" x="92.06107" y="110.26609" width="45.55511" height="23.69028"/><rect class="cls-5" x="157.14301" y="128.84317" width="45.55511" height="5.11319"/><path class="cls-1" d="M157.56641,141.24023a1.50264,1.50264,0,0,0,.15039.57032,1.13563,1.13563,0,0,0,.31543.38183,1.24259,1.24259,0,0,0,.44433.21289,2.07966,2.07966,0,0,0,.53906.06641,1.77975,1.77975,0,0,0,.58106-.084,1.105,1.105,0,0,0,.39941-.22754.89434.89434,0,0,0,.22754-.332,1.09407,1.09407,0,0,0,.07325-.39941.79264.79264,0,0,0-.13282-.47559,1.03141,1.03141,0,0,0-.34668-.29785,2.17107,2.17107,0,0,0-.49023-.18554c-.18457-.0459-.373-.0918-.56738-.13575-.19336-.04492-.38184-.09668-.56641-.1582a1.76,1.76,0,0,1-.49024-.24512,1.18158,1.18158,0,0,1-.34667-.3955,1.25258,1.25258,0,0,1-.13282-.61231,1.23847,1.23847,0,0,1,.1084-.5039,1.25267,1.25267,0,0,1,.32227-.4336,1.572,1.572,0,0,1,.53515-.30078,2.242,2.242,0,0,1,.74219-.1123,2.12967,2.12967,0,0,1,.74512.11914,1.4803,1.4803,0,0,1,.52929.32519,1.33774,1.33774,0,0,1,.31446.47949,1.598,1.598,0,0,1,.10547.58106h-.45508a1.13434,1.13434,0,0,0-.10156-.49707.93773.93773,0,0,0-.27637-.34278,1.18341,1.18341,0,0,0-.39942-.19628,1.70012,1.70012,0,0,0-.46191-.0625,1.60917,1.60917,0,0,0-.6123.10156,1.06439,1.06439,0,0,0-.39551.26172.889.889,0,0,0-.20313.35742.85968.85968,0,0,0-.0205.3916.68125.68125,0,0,0,.19531.39258,1.24886,1.24886,0,0,0,.37793.24121,2.84786,2.84786,0,0,0,.49414.1543q.26953.05859.54883.126a5.55011,5.55011,0,0,1,.543.15723,1.67841,1.67841,0,0,1,.46582.24512,1.13552,1.13552,0,0,1,.32519.3955,1.33922,1.33922,0,0,1,.12207.60547,1.30975,1.30975,0,0,1-.48242,1.085,2.12971,2.12971,0,0,1-1.3584.38477,2.50974,2.50974,0,0,1-.72754-.10156,1.60069,1.60069,0,0,1-.58105-.30762,1.41186,1.41186,0,0,1-.38184-.51074,1.74632,1.74632,0,0,1-.13672-.71778Z"/><path class="cls-1" d="M163.02734,142.84277a1.85771,1.85771,0,0,1-.65527-.126,1.46932,1.46932,0,0,1-.53125-.35645,1.69727,1.69727,0,0,1-.36035-.5957,2.36946,2.36946,0,0,1-.13379-.833,2.54966,2.54966,0,0,1,.10547-.74512,1.77714,1.77714,0,0,1,.31445-.60547,1.50234,1.50234,0,0,1,.52539-.40917,1.68443,1.68443,0,0,1,.73535-.1504,1.70654,1.70654,0,0,1,.74219.1504,1.51425,1.51425,0,0,1,.52442.40527,1.68547,1.68547,0,0,1,.31152.60644,2.68368,2.68368,0,0,1,.10156.748,2.43063,2.43063,0,0,1-.11914.78418,1.77,1.77,0,0,1-.33887.60254,1.5161,1.5161,0,0,1-.53222.38867A1.70349,1.70349,0,0,1,163.02734,142.84277Zm1.23145-1.91113a2.51557,2.51557,0,0,0-.06934-.60156,1.41962,1.41962,0,0,0-.21777-.48633,1.03373,1.03373,0,0,0-.37793-.3252,1.215,1.215,0,0,0-.56641-.11914,1.15224,1.15224,0,0,0-.56347.12891,1.107,1.107,0,0,0-.38184.34375,1.51587,1.51587,0,0,0-.2168.48926,2.31,2.31,0,0,0-.07031.57031,2.26343,2.26343,0,0,0,.08106.62012,1.44463,1.44463,0,0,0,.23437.48633,1.05111,1.05111,0,0,0,.38477.31543,1.21171,1.21171,0,0,0,.53222.11132,1.1549,1.1549,0,0,0,.56348-.1289,1.093,1.093,0,0,0,.38086-.34668,1.54916,1.54916,0,0,0,.21777-.49024A2.30923,2.30923,0,0,0,164.25879,140.93164Z"/><path class="cls-1" d="M167.93359,139.11914h.41993v3.626h-.41993v-.50391c-.05566.06543-.11914.13281-.18847.20313a1.51074,1.51074,0,0,1-.24219.19238,1.33887,1.33887,0,0,1-.73828.20605,1.58655,1.58655,0,0,1-.60938-.10156.99938.99938,0,0,1-.3955-.2832,1.14112,1.14112,0,0,1-.2168-.42383,1.99588,1.99588,0,0,1-.06641-.52832v-2.38672h.41992V141.499a1.06151,1.06151,0,0,0,.2168.71778.90677.90677,0,0,0,.71484.248,1.03174,1.03174,0,0,0,.46485-.10156.97558.97558,0,0,0,.34668-.2832,1.32866,1.32866,0,0,0,.2168-.4336,1.874,1.874,0,0,0,.07714-.55371Z"/><path class="cls-1" d="M170.64258,142.75879c-.05176.00976-.11914.02637-.20313.0498a1.08551,1.08551,0,0,1-.28027.03418.66463.66463,0,0,1-.47949-.15722.76754.76754,0,0,1-.16407-.56348v-2.65332h-.51171v-.34961h.51171v-1.00781h.41993v1.00781h.67871v.34961h-.67871v2.48535c0,.08887.00195.166.00683.23145a.38449.38449,0,0,0,.042.16015.20239.20239,0,0,0,.10839.0918.60627.60627,0,0,0,.20606.02734,1.03547,1.03547,0,0,0,.17187-.01367c.0586-.00976.11524-.02148.17188-.03515Z"/><path class="cls-1" d="M171.31445,142.74512v-5.04h.41993v1.918a2.65945,2.65945,0,0,1,.52148-.4336,1.19705,1.19705,0,0,1,.64746-.168,1.64854,1.64854,0,0,1,.623.11524,1.06468,1.06468,0,0,1,.4834.40234.91481.91481,0,0,1,.15722.40235,3.60016,3.60016,0,0,1,.02442.43066v2.373h-.41993v-2.36621a1.0796,1.0796,0,0,0-.21679-.73438.91806.91806,0,0,0-.72071-.24512,1.01681,1.01681,0,0,0-.35742.05957,1.092,1.092,0,0,0-.29.15723,1.04085,1.04085,0,0,0-.2207.22363,1.05887,1.05887,0,0,0-.14062.26661,1.30331,1.30331,0,0,0-.07618.33593c-.00976.10742-.01464.22364-.01464.34961v1.95313Z"/><path class="cls-1" d="M176.75391,140.708v.43457H174.9834V140.708Z"/><path class="cls-1" d="M177.7959,141.03027a1.9912,1.9912,0,0,0,.07715.55664,1.35475,1.35475,0,0,0,.22754.45508,1.10763,1.10763,0,0,0,.38183.30762,1.27186,1.27186,0,0,0,1.23926-.10156,1.04655,1.04655,0,0,0,.3916-.61621h.46875a2.21967,2.21967,0,0,1-.20312.47949,1.48493,1.48493,0,0,1-.31446.38574,1.362,1.362,0,0,1-.44824.25488,1.81657,1.81657,0,0,1-.60156.09082,1.76088,1.76088,0,0,1-.749-.14648,1.4289,1.4289,0,0,1-.51855-.40234,1.69652,1.69652,0,0,1-.30078-.60254,2.722,2.722,0,0,1-.09766-.74512,2.36885,2.36885,0,0,1,.11524-.749,1.90187,1.90187,0,0,1,.3291-.61231,1.5092,1.5092,0,0,1,.52148-.41308,1.56956,1.56956,0,0,1,.7002-.1504,1.44637,1.44637,0,0,1,1.17578.51368,2.265,2.265,0,0,1,.41992,1.49511Zm2.36621-.35058a1.66869,1.66869,0,0,0-.07324-.5,1.16721,1.16721,0,0,0-.2168-.40625,1.02481,1.02481,0,0,0-.36133-.27246,1.146,1.146,0,0,0-.49609-.10157,1.11478,1.11478,0,0,0-.49414.1045,1.14752,1.14752,0,0,0-.36426.28027,1.41242,1.41242,0,0,0-.24121.40625,1.87824,1.87824,0,0,0-.11914.48926Z"/><path class="cls-1" d="M183.0957,140.63086c.0791-.00879.17383-.02344.28321-.042a1.02867,1.02867,0,0,0,.26953-.07715.22165.22165,0,0,0,.12988-.16406,1.01916,1.01916,0,0,0,.02441-.21387.71989.71989,0,0,0-.20605-.52832.96446.96446,0,0,0-.69727-.20606,1.94359,1.94359,0,0,0-.39843.03809.86486.86486,0,0,0-.31836.13281.73865.73865,0,0,0-.22461.252,1.068,1.068,0,0,0-.11524.3955H181.416a1.29152,1.29152,0,0,1,.14648-.54882,1.10143,1.10143,0,0,1,.32617-.3711,1.33365,1.33365,0,0,1,.46192-.21,2.22954,2.22954,0,0,1,.55664-.06641,2.117,2.117,0,0,1,.51367.05957,1.18014,1.18014,0,0,1,.41992.18848.88028.88028,0,0,1,.28027.34668,1.25576,1.25576,0,0,1,.10157.53223v1.97363c0,.16309.02929.26758.08789.31152.05761.04395.17578.03418.35351-.03125v.32911c-.0332.00878-.08105.02343-.14355.042a.65718.65718,0,0,1-.18555.02734.8593.8593,0,0,1-.18945-.02051.32792.32792,0,0,1-.168-.0664.42458.42458,0,0,1-.10156-.126.51147.51147,0,0,1-.05176-.16113,1.12489,1.12489,0,0,1-.01465-.18555,1.76849,1.76849,0,0,1-1.35059.60156,1.66368,1.66368,0,0,1-.459-.0625,1.11426,1.11426,0,0,1-.38867-.19629.98649.98649,0,0,1-.26563-.32519,1.00084,1.00084,0,0,1-.09765-.459q0-.92284,1.2666-1.09179Zm.707.21a2.05228,2.05228,0,0,1-.53906.14746c-.18164.02344-.36426.042-.5459.05567a1.54373,1.54373,0,0,0-.75293.21679.62311.62311,0,0,0-.26953.55371.592.592,0,0,0,.06739.29.60673.60673,0,0,0,.1748.20313.73316.73316,0,0,0,.25195.11914,1.12659,1.12659,0,0,0,.29.03808,1.90585,1.90585,0,0,0,.49024-.0625,1.34318,1.34318,0,0,0,.42382-.19238.98986.98986,0,0,0,.29688-.3291.94558.94558,0,0,0,.1123-.47266Z"/><path class="cls-1" d="M185.56641,141.61133a1.06193,1.06193,0,0,0,.35351.66113,1.19288,1.19288,0,0,0,.73145.19238,1.27618,1.27618,0,0,0,.39941-.05566.81089.81089,0,0,0,.27637-.15039.64425.64425,0,0,0,.16406-.21387.58683.58683,0,0,0,.05664-.25195.46568.46568,0,0,0-.17187-.39551,1.29711,1.29711,0,0,0-.43067-.20312,5.6675,5.6675,0,0,0-.55957-.126,2.72854,2.72854,0,0,1-.56054-.15723,1.12082,1.12082,0,0,1-.43067-.30078.81515.81515,0,0,1-.1709-.55371.94428.94428,0,0,1,.332-.74512,1.38874,1.38874,0,0,1,.94141-.29,1.60907,1.60907,0,0,1,.95605.26172,1.20472,1.20472,0,0,1,.44434.87891h-.42676a.78786.78786,0,0,0-.31836-.5918,1.18923,1.18923,0,0,0-.66211-.1709.94094.94094,0,0,0-.60839.1709.55479.55479,0,0,0-.21094.45215.44007.44007,0,0,0,.17187.374,1.38389,1.38389,0,0,0,.43067.21q.25928.08056.55957.14355a2.74729,2.74729,0,0,1,.56054.17871,1.2236,1.2236,0,0,1,.43067.31152.802.802,0,0,1,.1709.5459.92208.92208,0,0,1-.11133.458.97627.97627,0,0,1-.30859.333,1.42689,1.42689,0,0,1-.46485.19922,2.44,2.44,0,0,1-.5918.0664,1.60543,1.60543,0,0,1-.57031-.09375,1.25031,1.25031,0,0,1-.42383-.26269,1.21024,1.21024,0,0,1-.27343-.39258,1.36245,1.36245,0,0,1-.11133-.48242Z"/><path class="cls-1" d="M190.0957,142.75879c-.05175.00976-.11914.02637-.20312.0498a1.08565,1.08565,0,0,1-.28028.03418.66464.66464,0,0,1-.47949-.15722.76759.76759,0,0,1-.16406-.56348v-2.65332H188.457v-.34961h.51172v-1.00781h.41992v1.00781h.67871v.34961h-.67871v2.48535c0,.08887.002.166.00684.23145a.38434.38434,0,0,0,.042.16015.20241.20241,0,0,0,.1084.0918.60621.60621,0,0,0,.20605.02734,1.03567,1.03567,0,0,0,.17188-.01367c.05859-.00976.11523-.02148.17187-.03515Z"/><path class="cls-1" d="M191.02637,141.03027a1.99084,1.99084,0,0,0,.07715.55664,1.35492,1.35492,0,0,0,.22753.45508,1.10776,1.10776,0,0,0,.38184.30762,1.27186,1.27186,0,0,0,1.23926-.10156,1.04655,1.04655,0,0,0,.3916-.61621h.46875a2.21967,2.21967,0,0,1-.20312.47949,1.48493,1.48493,0,0,1-.31446.38574,1.362,1.362,0,0,1-.44824.25488,1.81657,1.81657,0,0,1-.60156.09082,1.76085,1.76085,0,0,1-.749-.14648,1.4289,1.4289,0,0,1-.51855-.40234,1.69652,1.69652,0,0,1-.30078-.60254,2.722,2.722,0,0,1-.09766-.74512,2.36885,2.36885,0,0,1,.11524-.749,1.90168,1.90168,0,0,1,.3291-.61231,1.5092,1.5092,0,0,1,.52148-.41308,1.56956,1.56956,0,0,1,.7002-.1504,1.44637,1.44637,0,0,1,1.17578.51368,2.265,2.265,0,0,1,.41992,1.49511Zm2.36621-.35058a1.669,1.669,0,0,0-.07324-.5,1.16721,1.16721,0,0,0-.2168-.40625,1.02481,1.02481,0,0,0-.36133-.27246,1.146,1.146,0,0,0-.49609-.10157,1.11475,1.11475,0,0,0-.49414.1045,1.14741,1.14741,0,0,0-.36426.28027,1.4122,1.4122,0,0,0-.24121.40625,1.87824,1.87824,0,0,0-.11914.48926Z"/><path class="cls-1" d="M195.10059,142.74512h-.41993v-3.626h.41993v.67871h.01367a1.21773,1.21773,0,0,1,.45117-.60547,1.37693,1.37693,0,0,1,.73145-.1709v.45508a1.22857,1.22857,0,0,0-.5879.11133.97311.97311,0,0,0-.36718.32227,1.28244,1.28244,0,0,0-.18946.47949,3.16409,3.16409,0,0,0-.05175.57715Z"/><path class="cls-1" d="M197.41016,142.74512h-.41993v-3.626h.41993v.50391a2.65945,2.65945,0,0,1,.52148-.4336,1.19705,1.19705,0,0,1,.64746-.168,1.64854,1.64854,0,0,1,.623.11524,1.06468,1.06468,0,0,1,.4834.40234.91481.91481,0,0,1,.15722.40235,3.59808,3.59808,0,0,1,.02442.43066v2.373h-.41992v-2.36621a1.0796,1.0796,0,0,0-.2168-.73438.918.918,0,0,0-.7207-.24512,1.01691,1.01691,0,0,0-.35743.05957,1.092,1.092,0,0,0-.29.15723,1.04085,1.04085,0,0,0-.2207.22363,1.05887,1.05887,0,0,0-.14062.26661,1.30331,1.30331,0,0,0-.07618.33593c-.00976.10742-.01464.22364-.01464.34961Z"/><path class="cls-1" d="M160.07227,148.66016a1.22235,1.22235,0,0,0-.38477-.63282,1.044,1.044,0,0,0-.69336-.22754,1.085,1.085,0,0,0-.55273.13282,1.11065,1.11065,0,0,0-.37793.35351,1.57709,1.57709,0,0,0-.21778.49707,2.32867,2.32867,0,0,0-.00293,1.11621,1.49847,1.49847,0,0,0,.21289.49024,1.11885,1.11885,0,0,0,.37793.34668,1.13531,1.13531,0,0,0,.56055.1289,1.06936,1.06936,0,0,0,.752-.25878,1.204,1.204,0,0,0,.36133-.71387h.44727a2.13511,2.13511,0,0,1-.17774.5498,1.4741,1.4741,0,0,1-.31543.42676,1.34731,1.34731,0,0,1-.459.27637,1.96838,1.96838,0,0,1-1.35742-.04883,1.42894,1.42894,0,0,1-.51856-.40234,1.71033,1.71033,0,0,1-.30078-.60547,2.766,2.766,0,0,1-.09766-.749,2.411,2.411,0,0,1,.1084-.72461,1.88284,1.88284,0,0,1,.31836-.6123,1.534,1.534,0,0,1,.52149-.42383,1.56564,1.56564,0,0,1,.71777-.15722,1.61359,1.61359,0,0,1,1.01856.30078,1.39784,1.39784,0,0,1,.48632.9375Z"/><path class="cls-1" d="M162.83691,151.24316a1.85771,1.85771,0,0,1-.65527-.126,1.46919,1.46919,0,0,1-.53125-.35645,1.69727,1.69727,0,0,1-.36035-.5957,2.36946,2.36946,0,0,1-.13379-.833,2.54966,2.54966,0,0,1,.10547-.74512,1.77709,1.77709,0,0,1,.31445-.60546,1.50225,1.50225,0,0,1,.52539-.40918,1.68443,1.68443,0,0,1,.73535-.15039,1.70654,1.70654,0,0,1,.74219.15039,1.51425,1.51425,0,0,1,.52442.40527,1.68547,1.68547,0,0,1,.31152.60644,2.68368,2.68368,0,0,1,.10156.74805,2.43063,2.43063,0,0,1-.11914.78418,1.77,1.77,0,0,1-.33887.60254,1.5161,1.5161,0,0,1-.53222.38867A1.70349,1.70349,0,0,1,162.83691,151.24316Zm1.23145-1.91113a2.51557,2.51557,0,0,0-.06934-.60156,1.4197,1.4197,0,0,0-.21777-.48633,1.0337,1.0337,0,0,0-.37793-.32519,1.21488,1.21488,0,0,0-.56641-.11915,1.15224,1.15224,0,0,0-.56347.12891,1.107,1.107,0,0,0-.38184.34375,1.51587,1.51587,0,0,0-.2168.48926,2.31,2.31,0,0,0-.07031.57031,2.26338,2.26338,0,0,0,.08106.62012,1.44463,1.44463,0,0,0,.23437.48633,1.05111,1.05111,0,0,0,.38477.31543,1.21171,1.21171,0,0,0,.53222.11132,1.1549,1.1549,0,0,0,.56348-.1289,1.093,1.093,0,0,0,.38086-.34668,1.54916,1.54916,0,0,0,.21777-.49024A2.30923,2.30923,0,0,0,164.06836,149.332Z"/><path class="cls-1" d="M166.95312,149.03125c.07911-.00879.17383-.02344.28321-.042a1.02867,1.02867,0,0,0,.26953-.07715.22163.22163,0,0,0,.12988-.16406,1.01921,1.01921,0,0,0,.02442-.21387.7199.7199,0,0,0-.20606-.52832.96443.96443,0,0,0-.69726-.20606,1.94362,1.94362,0,0,0-.39844.03809.86486.86486,0,0,0-.31836.13281.73865.73865,0,0,0-.22461.252,1.068,1.068,0,0,0-.11523.3955h-.42676a1.29152,1.29152,0,0,1,.14648-.54882,1.10163,1.10163,0,0,1,.32617-.3711,1.33382,1.33382,0,0,1,.46192-.21,2.22955,2.22955,0,0,1,.55664-.0664,2.1165,2.1165,0,0,1,.51367.05957,1.18,1.18,0,0,1,.41992.18847.88039.88039,0,0,1,.28028.34668,1.25592,1.25592,0,0,1,.10156.53223v1.97363c0,.16309.0293.26758.08789.31152.05762.04395.17578.03418.35351-.03125v.32911c-.0332.00878-.08105.02343-.14355.042a.65718.65718,0,0,1-.18555.02734.85937.85937,0,0,1-.18945-.02051.32792.32792,0,0,1-.168-.0664.42473.42473,0,0,1-.10156-.126.51147.51147,0,0,1-.05176-.16113,1.126,1.126,0,0,1-.01465-.18555,1.76849,1.76849,0,0,1-1.35058.60156,1.66375,1.66375,0,0,1-.459-.0625,1.11441,1.11441,0,0,1-.38867-.19628.98663.98663,0,0,1-.26563-.3252,1.001,1.001,0,0,1-.09765-.459q0-.92286,1.2666-1.0918Zm.707.21a2.05245,2.05245,0,0,1-.53907.14746c-.18164.02344-.36425.042-.54589.05567a1.54366,1.54366,0,0,0-.75293.21679.6231.6231,0,0,0-.26954.55371.59215.59215,0,0,0,.06739.29.60684.60684,0,0,0,.1748.20313.73313.73313,0,0,0,.252.11914,1.12646,1.12646,0,0,0,.29.03808,1.90579,1.90579,0,0,0,.49024-.0625,1.34333,1.34333,0,0,0,.42383-.19238.98994.98994,0,0,0,.29687-.3291.94547.94547,0,0,0,.11231-.47266Z"/><path class="cls-1" d="M169.42383,150.01172a1.062,1.062,0,0,0,.35351.66113,1.19292,1.19292,0,0,0,.73145.19238,1.27614,1.27614,0,0,0,.39941-.05566.81089.81089,0,0,0,.27637-.15039.64412.64412,0,0,0,.16406-.21387.58683.58683,0,0,0,.05664-.25195.46565.46565,0,0,0-.17187-.39551,1.297,1.297,0,0,0-.43067-.20312,5.6675,5.6675,0,0,0-.55957-.126,2.72854,2.72854,0,0,1-.56054-.15723,1.1209,1.1209,0,0,1-.43067-.30078.8152.8152,0,0,1-.1709-.55371.94429.94429,0,0,1,.332-.74512,1.38871,1.38871,0,0,1,.9414-.29,1.60913,1.60913,0,0,1,.95606.26171,1.20477,1.20477,0,0,1,.44433.87891h-.42676a.78788.78788,0,0,0-.31835-.5918,1.18936,1.18936,0,0,0-.66211-.1709.941.941,0,0,0-.6084.1709.55479.55479,0,0,0-.21094.45215.44008.44008,0,0,0,.17188.374,1.38393,1.38393,0,0,0,.43066.21q.25927.08056.55957.14355a2.74758,2.74758,0,0,1,.56055.17871,1.22365,1.22365,0,0,1,.43066.31152.802.802,0,0,1,.1709.5459.92205.92205,0,0,1-.11133.458.97608.97608,0,0,1-.30859.333,1.42689,1.42689,0,0,1-.46485.19922,2.43993,2.43993,0,0,1-.59179.0664,1.60545,1.60545,0,0,1-.57032-.09375,1.25026,1.25026,0,0,1-.42382-.26269,1.21011,1.21011,0,0,1-.27344-.39258,1.36245,1.36245,0,0,1-.11133-.48242Z"/><path class="cls-1" d="M173.95312,151.15918c-.05175.00977-.11914.02637-.20312.0498a1.08508,1.08508,0,0,1-.28027.03418.66467.66467,0,0,1-.4795-.15722.76757.76757,0,0,1-.16406-.56348v-2.65332h-.51172v-.34961h.51172v-1.00781h.41992v1.00781h.67871v.34961h-.67871v2.48535c0,.08887.002.166.00684.23145a.38434.38434,0,0,0,.042.16015.20241.20241,0,0,0,.1084.0918.606.606,0,0,0,.20606.02734,1.03547,1.03547,0,0,0,.17187-.01367c.05859-.00976.11523-.02148.17187-.03515Z"/><path class="cls-1" d="M176.291,149.03125c.0791-.00879.17382-.02344.2832-.042a1.02867,1.02867,0,0,0,.26953-.07715.22163.22163,0,0,0,.12988-.16406,1.01921,1.01921,0,0,0,.02442-.21387.7199.7199,0,0,0-.20606-.52832.96442.96442,0,0,0-.69726-.20606,1.94369,1.94369,0,0,0-.39844.03809.86486.86486,0,0,0-.31836.13281.73865.73865,0,0,0-.22461.252,1.068,1.068,0,0,0-.11523.3955h-.42676a1.29152,1.29152,0,0,1,.14648-.54882,1.10174,1.10174,0,0,1,.32617-.3711,1.33382,1.33382,0,0,1,.46192-.21,2.22955,2.22955,0,0,1,.55664-.0664,2.1165,2.1165,0,0,1,.51367.05957,1.18,1.18,0,0,1,.41992.18847.88039.88039,0,0,1,.28028.34668,1.25592,1.25592,0,0,1,.10156.53223v1.97363c0,.16309.0293.26758.08789.31152.05762.04395.17578.03418.35352-.03125v.32911c-.03321.00878-.08106.02343-.14356.042a.65718.65718,0,0,1-.18555.02734.85937.85937,0,0,1-.18945-.02051.32792.32792,0,0,1-.168-.0664.42473.42473,0,0,1-.10156-.126.51147.51147,0,0,1-.05176-.16113,1.126,1.126,0,0,1-.01465-.18555,1.76849,1.76849,0,0,1-1.35058.60156,1.66375,1.66375,0,0,1-.459-.0625,1.1145,1.1145,0,0,1-.38867-.19628.9866.9866,0,0,1-.26562-.3252,1.00082,1.00082,0,0,1-.09766-.459q0-.92286,1.2666-1.0918Zm.707.21a2.05245,2.05245,0,0,1-.53907.14746c-.18164.02344-.36425.042-.54589.05567a1.54366,1.54366,0,0,0-.75293.21679.6231.6231,0,0,0-.26954.55371.59215.59215,0,0,0,.06739.29.60684.60684,0,0,0,.1748.20313.73313.73313,0,0,0,.252.11914,1.12646,1.12646,0,0,0,.29.03808,1.90579,1.90579,0,0,0,.49024-.0625,1.34333,1.34333,0,0,0,.42383-.19238.98994.98994,0,0,0,.29687-.3291.94547.94547,0,0,0,.11231-.47266Z"/><path class="cls-1" d="M178.58008,151.14551v-5.04H179v5.04Z"/><path class="cls-1" d="M182.48535,152.57324h-.41992v-5.05371h.41992v.63672H182.5a1.22288,1.22288,0,0,1,.23438-.31445,1.35344,1.35344,0,0,1,.31445-.23145,1.6746,1.6746,0,0,1,.35351-.13965,1.35131,1.35131,0,0,1,.35743-.04882,1.73336,1.73336,0,0,1,.749.14648,1.41561,1.41561,0,0,1,.50781.40234,1.646,1.646,0,0,1,.29.60547,2.9758,2.9758,0,0,1,.09082.749,2.68768,2.68768,0,0,1-.09766.72851,1.80709,1.80709,0,0,1-.29785.61231,1.4667,1.4667,0,0,1-.5039.41992,1.5376,1.5376,0,0,1-.71778.15722,1.67282,1.67282,0,0,1-.73828-.17089,1.30693,1.30693,0,0,1-.55664-.50782Zm0-3.22656a2.00526,2.00526,0,0,0,.084.584,1.51806,1.51806,0,0,0,.24218.4834,1.1879,1.1879,0,0,0,.38477.3291,1.06292,1.06292,0,0,0,.51465.12207,1.1817,1.1817,0,0,0,.56347-.1289,1.11121,1.11121,0,0,0,.39551-.35352,1.536,1.536,0,0,0,.22363-.52148,2.34333,2.34333,0,0,0,.05567-.64063,1.79615,1.79615,0,0,0-.09375-.60547,1.29212,1.29212,0,0,0-.2627-.44433,1.13011,1.13011,0,0,0-.3916-.27735,1.26007,1.26007,0,0,0-.49023-.09375,1.12235,1.12235,0,0,0-.52539.11915,1.097,1.097,0,0,0-.38477.32519,1.49333,1.49333,0,0,0-.23437.49024A2.22625,2.22625,0,0,0,182.48535,149.34668Z"/><path class="cls-1" d="M186.35742,151.14551v-5.04h.41992v5.04Z"/><path class="cls-1" d="M189.51367,149.03125c.0791-.00879.17383-.02344.28321-.042a1.02867,1.02867,0,0,0,.26953-.07715.22163.22163,0,0,0,.12988-.16406,1.01916,1.01916,0,0,0,.02441-.21387.71989.71989,0,0,0-.20605-.52832.96446.96446,0,0,0-.69727-.20606,1.94359,1.94359,0,0,0-.39843.03809.86486.86486,0,0,0-.31836.13281.73865.73865,0,0,0-.22461.252,1.068,1.068,0,0,0-.11524.3955H187.834a1.29152,1.29152,0,0,1,.14649-.54882,1.10152,1.10152,0,0,1,.32617-.3711,1.33369,1.33369,0,0,1,.46191-.21,2.22969,2.22969,0,0,1,.55665-.0664,2.1165,2.1165,0,0,1,.51367.05957,1.18,1.18,0,0,1,.41992.18847.88028.88028,0,0,1,.28027.34668,1.25577,1.25577,0,0,1,.10156.53223v1.97363c0,.16309.0293.26758.0879.31152.05761.04395.17578.03418.35351-.03125v.32911c-.0332.00878-.08105.02343-.14355.042a.65718.65718,0,0,1-.18555.02734.8593.8593,0,0,1-.18945-.02051.32792.32792,0,0,1-.168-.0664.42458.42458,0,0,1-.10156-.126.51121.51121,0,0,1-.05176-.16113,1.12489,1.12489,0,0,1-.01465-.18555,1.76849,1.76849,0,0,1-1.35059.60156,1.66368,1.66368,0,0,1-.459-.0625,1.11432,1.11432,0,0,1-.38867-.19628.98663.98663,0,0,1-.26563-.3252,1.00082,1.00082,0,0,1-.09765-.459q0-.92286,1.2666-1.0918Zm.707.21a2.05228,2.05228,0,0,1-.53906.14746c-.18164.02344-.36426.042-.5459.05567a1.54373,1.54373,0,0,0-.75293.21679.62309.62309,0,0,0-.26953.55371.59215.59215,0,0,0,.06738.29.60687.60687,0,0,0,.17481.20313.73308.73308,0,0,0,.25195.11914,1.12648,1.12648,0,0,0,.29.03808,1.90585,1.90585,0,0,0,.49024-.0625,1.34318,1.34318,0,0,0,.42382-.19238.98986.98986,0,0,0,.29688-.3291.94558.94558,0,0,0,.1123-.47266Z"/><path class="cls-1" d="M191.78125,146.72852v-.62305h.46191v.62305Zm.02148,4.417v-3.626h.41993v3.626Z"/><path class="cls-1" d="M193.71387,151.14551H193.294v-3.626h.41992v.50391a2.65974,2.65974,0,0,1,.52148-.4336,1.197,1.197,0,0,1,.64746-.168,1.64853,1.64853,0,0,1,.62305.11523,1.06463,1.06463,0,0,1,.4834.40234.91481.91481,0,0,1,.15722.40235,3.59808,3.59808,0,0,1,.02442.43066v2.37305H195.751V148.7793a1.0796,1.0796,0,0,0-.2168-.73438.918.918,0,0,0-.7207-.24512,1.01668,1.01668,0,0,0-.35743.05958,1.09144,1.09144,0,0,0-.29.15722,1.04067,1.04067,0,0,0-.22071.22363,1.05919,1.05919,0,0,0-.14062.26661,1.30327,1.30327,0,0,0-.07617.33593c-.00977.10743-.01465.22364-.01465.34961Z"/><path class="cls-1" d="M197.43066,150.01172a1.06193,1.06193,0,0,0,.35352.66113,1.19287,1.19287,0,0,0,.73144.19238,1.27625,1.27625,0,0,0,.39942-.05566.81089.81089,0,0,0,.27637-.15039.64425.64425,0,0,0,.16406-.21387.58683.58683,0,0,0,.05664-.25195.46566.46566,0,0,0-.17188-.39551,1.297,1.297,0,0,0-.43066-.20312,5.6675,5.6675,0,0,0-.55957-.126,2.72863,2.72863,0,0,1-.56055-.15723,1.12086,1.12086,0,0,1-.43066-.30078.81515.81515,0,0,1-.1709-.55371.94428.94428,0,0,1,.332-.74512,1.38872,1.38872,0,0,1,.94141-.29,1.60907,1.60907,0,0,1,.95605.26171,1.20474,1.20474,0,0,1,.44434.87891H199.335a.78786.78786,0,0,0-.31836-.5918,1.18933,1.18933,0,0,0-.66211-.1709.941.941,0,0,0-.6084.1709.55481.55481,0,0,0-.21093.45215.44007.44007,0,0,0,.17187.374,1.384,1.384,0,0,0,.43067.21q.25928.08056.55957.14355a2.74729,2.74729,0,0,1,.56054.17871,1.22369,1.22369,0,0,1,.43067.31152.802.802,0,0,1,.1709.5459.92205.92205,0,0,1-.11133.458.97621.97621,0,0,1-.3086.333,1.42683,1.42683,0,0,1-.46484.19922,2.44,2.44,0,0,1-.5918.0664,1.60543,1.60543,0,0,1-.57031-.09375,1.25021,1.25021,0,0,1-.42383-.26269,1.21011,1.21011,0,0,1-.27344-.39258,1.36245,1.36245,0,0,1-.11132-.48242Z"/><path class="cls-1" d="M91.76758,141.24023a1.52079,1.52079,0,0,0,.15039.57032,1.1472,1.1472,0,0,0,.31543.38183,1.24267,1.24267,0,0,0,.44433.21289,2.07968,2.07968,0,0,0,.53907.06641,1.7756,1.7756,0,0,0,.581-.084,1.10512,1.10512,0,0,0,.39942-.22754.89192.89192,0,0,0,.22656-.332,1.09474,1.09474,0,0,0,.07422-.39941.79264.79264,0,0,0-.13282-.47559,1.04085,1.04085,0,0,0-.34668-.29785,2.17089,2.17089,0,0,0-.49023-.18554c-.18457-.0459-.374-.0918-.56738-.13575-.19336-.04492-.38282-.09668-.56641-.1582a1.7599,1.7599,0,0,1-.49023-.24512,1.16834,1.16834,0,0,1-.34571-.3955,1.28371,1.28371,0,0,1,.29688-1.54981,1.572,1.572,0,0,1,.53515-.30078,2.246,2.246,0,0,1,.74219-.1123,2.13535,2.13535,0,0,1,.7461.11914,1.46326,1.46326,0,0,1,.52734.32519,1.32742,1.32742,0,0,1,.31543.47949,1.59745,1.59745,0,0,1,.10449.58106h-.4541a1.13434,1.13434,0,0,0-.10156-.49707.93773.93773,0,0,0-.27637-.34278,1.18345,1.18345,0,0,0-.39941-.19628,1.70019,1.70019,0,0,0-.46192-.0625,1.60917,1.60917,0,0,0-.6123.10156,1.06448,1.06448,0,0,0-.39551.26172.88884.88884,0,0,0-.20312.35742.86.86,0,0,0-.02149.3916.68814.68814,0,0,0,.19629.39258,1.26108,1.26108,0,0,0,.37793.24121,2.84786,2.84786,0,0,0,.49414.1543q.26953.05859.54883.126a5.54931,5.54931,0,0,1,.543.15723,1.65892,1.65892,0,0,1,.46484.24512,1.12739,1.12739,0,0,1,.32617.3955,1.326,1.326,0,0,1,.123.60547,1.30843,1.30843,0,0,1-.48438,1.085,2.123,2.123,0,0,1-1.35742.38477,2.52128,2.52128,0,0,1-.72851-.10156,1.60424,1.60424,0,0,1-.58008-.30762,1.412,1.412,0,0,1-.38184-.51074,1.74632,1.74632,0,0,1-.13672-.71778Z"/><path class="cls-1" d="M97.22754,142.84277a1.85232,1.85232,0,0,1-.6543-.126,1.473,1.473,0,0,1-.53222-.35645,1.72651,1.72651,0,0,1-.36036-.5957,2.37055,2.37055,0,0,1-.13281-.833,2.54977,2.54977,0,0,1,.10449-.74512,1.77917,1.77917,0,0,1,.31543-.60547,1.49871,1.49871,0,0,1,.52442-.40917,1.8896,1.8896,0,0,1,1.47754,0,1.50518,1.50518,0,0,1,.52441.40527,1.687,1.687,0,0,1,.3125.60644,2.68368,2.68368,0,0,1,.10156.748,2.43063,2.43063,0,0,1-.11914.78418,1.78847,1.78847,0,0,1-.33984.60254,1.50379,1.50379,0,0,1-.53125.38867A1.70821,1.70821,0,0,1,97.22754,142.84277ZM98.46,140.93164a2.46638,2.46638,0,0,0-.07031-.60156,1.41832,1.41832,0,0,0-.2168-.48633,1.04161,1.04161,0,0,0-.37793-.3252,1.222,1.222,0,0,0-.56738-.11914,1.15225,1.15225,0,0,0-.56348.12891,1.10384,1.10384,0,0,0-.38086.34375,1.47474,1.47474,0,0,0-.21679.48926,2.3095,2.3095,0,0,0-.07032.57031,2.26419,2.26419,0,0,0,.08008.62012,1.46332,1.46332,0,0,0,.23438.48633,1.05911,1.05911,0,0,0,.38476.31543,1.21477,1.21477,0,0,0,.53223.11132,1.15225,1.15225,0,0,0,.56348-.1289,1.10462,1.10462,0,0,0,.38183-.34668,1.54742,1.54742,0,0,0,.2168-.49024A2.26381,2.26381,0,0,0,98.46,140.93164Z"/><path class="cls-1" d="M102.13477,139.11914h.41992v3.626h-.41992v-.50391c-.05665.06543-.11915.13281-.18946.20313a1.45953,1.45953,0,0,1-.24121.19238,1.33887,1.33887,0,0,1-.73828.20605,1.57452,1.57452,0,0,1-.6084-.10156.99594.99594,0,0,1-.39648-.2832,1.14112,1.14112,0,0,1-.2168-.42383,1.95663,1.95663,0,0,1-.06641-.52832v-2.38672h.41993V141.499a1.06151,1.06151,0,0,0,.21679.71778.90679.90679,0,0,0,.71485.248,1.03169,1.03169,0,0,0,.46484-.10156.96709.96709,0,0,0,.34668-.2832,1.36807,1.36807,0,0,0,.2168-.4336,1.87369,1.87369,0,0,0,.07715-.55371Z"/><path class="cls-1" d="M104.84375,142.75879c-.05078.00976-.11914.02637-.20313.0498a1.08321,1.08321,0,0,1-.27929.03418.66717.66717,0,0,1-.48047-.15722.76755.76755,0,0,1-.16406-.56348v-2.65332h-.51075v-.34961h.51075v-1.00781h.41992v1.00781h.67969v.34961h-.67969v2.48535c0,.08887.002.166.00781.23145a.37059.37059,0,0,0,.041.16015.20453.20453,0,0,0,.10937.0918.60246.60246,0,0,0,.20606.02734,1.03238,1.03238,0,0,0,.1709-.01367c.05859-.00976.11621-.02148.17187-.03515Z"/><path class="cls-1" d="M105.51562,142.74512v-5.04h.41993v1.918a2.65974,2.65974,0,0,1,.52148-.4336,1.19705,1.19705,0,0,1,.64746-.168,1.65215,1.65215,0,0,1,.62305.11524,1.06463,1.06463,0,0,1,.4834.40234.91481.91481,0,0,1,.15722.40235,3.59808,3.59808,0,0,1,.02442.43066v2.373h-.41992v-2.36621a1.0796,1.0796,0,0,0-.2168-.73438.918.918,0,0,0-.7207-.24512,1.01691,1.01691,0,0,0-.35743.05957,1.11312,1.11312,0,0,0-.291.15723,1.08766,1.08766,0,0,0-.2207.22363.99268.99268,0,0,0-.13868.26661,1.31071,1.31071,0,0,0-.07812.33593c-.00879.10742-.01367.22364-.01367.34961v1.95313Z"/><path class="cls-1" d="M109.667,141.03027a1.95584,1.95584,0,0,0,.07715.55664,1.3533,1.3533,0,0,0,.22656.45508,1.10776,1.10776,0,0,0,.38184.30762,1.27372,1.27372,0,0,0,1.24023-.10156,1.04068,1.04068,0,0,0,.39063-.61621h.46875a2.2192,2.2192,0,0,1-.20313.47949,1.46531,1.46531,0,0,1-.31445.38574,1.35725,1.35725,0,0,1-.44727.25488,1.82252,1.82252,0,0,1-.60253.09082,1.76085,1.76085,0,0,1-.749-.14648,1.4289,1.4289,0,0,1-.51855-.40234,1.72916,1.72916,0,0,1-.30078-.60254,2.75982,2.75982,0,0,1-.09766-.74512,2.397,2.397,0,0,1,.11523-.749,1.92076,1.92076,0,0,1,.32911-.61231,1.52736,1.52736,0,0,1,.52148-.41308,1.5725,1.5725,0,0,1,.7002-.1504,1.44831,1.44831,0,0,1,1.17675.51368,2.276,2.276,0,0,1,.41993,1.49511Zm2.36524-.35058a1.66858,1.66858,0,0,0-.07227-.5,1.167,1.167,0,0,0-.2168-.40625,1.03364,1.03364,0,0,0-.36132-.27246,1.15051,1.15051,0,0,0-.49707-.10157,1.11344,1.11344,0,0,0-.49317.1045,1.14752,1.14752,0,0,0-.36426.28027,1.393,1.393,0,0,0-.24218.40625,1.87756,1.87756,0,0,0-.11817.48926Z"/><path class="cls-1" d="M113.74121,142.74512h-.41992v-3.626h.41992v.67871h.01367a1.21773,1.21773,0,0,1,.45117-.60547,1.377,1.377,0,0,1,.73145-.1709v.45508a1.22855,1.22855,0,0,0-.58789.11133.97314.97314,0,0,0-.36719.32227,1.28227,1.28227,0,0,0-.18945.47949,3.16408,3.16408,0,0,0-.05176.57715Z"/><path class="cls-1" d="M116.05078,142.74512h-.41992v-3.626h.41992v.50391a2.65979,2.65979,0,0,1,.52149-.4336,1.197,1.197,0,0,1,.64746-.168,1.64845,1.64845,0,0,1,.623.11524,1.06463,1.06463,0,0,1,.4834.40234.91483.91483,0,0,1,.15723.40235,3.6002,3.6002,0,0,1,.02441.43066v2.373h-.41992v-2.36621a1.0796,1.0796,0,0,0-.2168-.73438.918.918,0,0,0-.7207-.24512,1.01681,1.01681,0,0,0-.35742.05957,1.092,1.092,0,0,0-.29.15723,1.04062,1.04062,0,0,0-.2207.22363,1.0589,1.0589,0,0,0-.14063.26661,1.30369,1.30369,0,0,0-.07617.33593c-.00977.10742-.01465.22364-.01465.34961Z"/><path class="cls-1" d="M121.9375,144.17285h-.41992v-5.05371h.41992v.63672h.01465a1.22307,1.22307,0,0,1,.23437-.31445,1.3537,1.3537,0,0,1,.31446-.23145,1.67439,1.67439,0,0,1,.35351-.13965,1.35132,1.35132,0,0,1,.35742-.04883,1.73337,1.73337,0,0,1,.749.14649,1.41561,1.41561,0,0,1,.50781.40234,1.646,1.646,0,0,1,.29.60547,2.97577,2.97577,0,0,1,.09082.749,2.6877,2.6877,0,0,1-.09766.72852,1.80732,1.80732,0,0,1-.29785.6123,1.46672,1.46672,0,0,1-.5039.41993,1.5376,1.5376,0,0,1-.71778.15722,1.67282,1.67282,0,0,1-.73828-.17089,1.30693,1.30693,0,0,1-.55664-.50782Zm0-3.22656a2.00559,2.00559,0,0,0,.084.584,1.51808,1.51808,0,0,0,.24219.4834,1.18779,1.18779,0,0,0,.38477.3291,1.063,1.063,0,0,0,.51465.12207,1.1817,1.1817,0,0,0,.56347-.1289,1.11121,1.11121,0,0,0,.39551-.35352,1.536,1.536,0,0,0,.22363-.52148,2.34333,2.34333,0,0,0,.05567-.64063,1.79615,1.79615,0,0,0-.09375-.60547,1.29212,1.29212,0,0,0-.2627-.44433,1.13011,1.13011,0,0,0-.3916-.27735,1.26011,1.26011,0,0,0-.49023-.09375,1.12246,1.12246,0,0,0-.52539.11914,1.09706,1.09706,0,0,0-.38477.3252,1.49359,1.49359,0,0,0-.23438.49023A2.22638,2.22638,0,0,0,121.9375,140.94629Z"/><path class="cls-1" d="M125.80957,142.74512v-5.04h.41992v5.04Z"/><path class="cls-1" d="M128.96582,140.63086c.0791-.00879.17383-.02344.2832-.042a1.02844,1.02844,0,0,0,.26953-.07715.22164.22164,0,0,0,.12989-.16406,1.01916,1.01916,0,0,0,.02441-.21387.71989.71989,0,0,0-.20605-.52832.96446.96446,0,0,0-.69727-.20606,1.94376,1.94376,0,0,0-.39844.03809.86486.86486,0,0,0-.31836.13281.73886.73886,0,0,0-.22461.252,1.06817,1.06817,0,0,0-.11523.3955h-.42676a1.29138,1.29138,0,0,1,.14649-.54882,1.10143,1.10143,0,0,1,.32617-.3711,1.33369,1.33369,0,0,1,.46191-.21,2.2296,2.2296,0,0,1,.55664-.06641,2.11708,2.11708,0,0,1,.51368.05957,1.18022,1.18022,0,0,1,.41992.18848.88028.88028,0,0,1,.28027.34668,1.25592,1.25592,0,0,1,.10156.53223v1.97363c0,.16309.0293.26758.08789.31152.05762.04395.17579.03418.35352-.03125v.32911c-.0332.00878-.08106.02343-.14356.042a.65712.65712,0,0,1-.18554.02734.85946.85946,0,0,1-.18946-.02051.32792.32792,0,0,1-.168-.0664.42461.42461,0,0,1-.10157-.126.5112.5112,0,0,1-.05175-.16113,1.12489,1.12489,0,0,1-.01465-.18555,1.76849,1.76849,0,0,1-1.35059.60156,1.66368,1.66368,0,0,1-.459-.0625,1.11417,1.11417,0,0,1-.38867-.19629.98649.98649,0,0,1-.26563-.32519,1.00084,1.00084,0,0,1-.09766-.459q0-.92284,1.26661-1.09179Zm.707.21a2.05228,2.05228,0,0,1-.53906.14746c-.18164.02344-.36426.042-.5459.05567a1.54369,1.54369,0,0,0-.75293.21679.62309.62309,0,0,0-.26953.55371.59215.59215,0,0,0,.06738.29.60687.60687,0,0,0,.17481.20313.73308.73308,0,0,0,.252.11914,1.12648,1.12648,0,0,0,.29.03808,1.90572,1.90572,0,0,0,.49023-.0625,1.34313,1.34313,0,0,0,.42383-.19238.98986.98986,0,0,0,.29688-.3291.94558.94558,0,0,0,.1123-.47266Z"/><path class="cls-1" d="M131.2334,138.32812v-.623h.46191v.623Zm.02148,4.417v-3.626h.41992v3.626Z"/><path class="cls-1" d="M133.165,142.74512h-.41992v-3.626h.41992v.50391a2.66,2.66,0,0,1,.52148-.4336,1.19705,1.19705,0,0,1,.64746-.168,1.64854,1.64854,0,0,1,.62305.11524,1.06463,1.06463,0,0,1,.4834.40234.915.915,0,0,1,.15723.40235,3.6002,3.6002,0,0,1,.02441.43066v2.373h-.41992v-2.36621a1.0796,1.0796,0,0,0-.2168-.73438.918.918,0,0,0-.7207-.24512,1.01681,1.01681,0,0,0-.35742.05957,1.09165,1.09165,0,0,0-.29.15723,1.04067,1.04067,0,0,0-.22071.22363,1.05919,1.05919,0,0,0-.14062.26661,1.30369,1.30369,0,0,0-.07617.33593c-.00977.10742-.01465.22364-.01465.34961Z"/><path class="cls-1" d="M136.88281,141.61133a1.06193,1.06193,0,0,0,.35352.66113,1.19287,1.19287,0,0,0,.73144.19238,1.27625,1.27625,0,0,0,.39942-.05566.81074.81074,0,0,0,.27636-.15039.64415.64415,0,0,0,.16407-.21387.58683.58683,0,0,0,.05664-.25195.46566.46566,0,0,0-.17188-.39551,1.29705,1.29705,0,0,0-.43066-.20312,5.66815,5.66815,0,0,0-.55957-.126,2.72863,2.72863,0,0,1-.56055-.15723,1.12086,1.12086,0,0,1-.43066-.30078.81515.81515,0,0,1-.1709-.55371.94428.94428,0,0,1,.332-.74512,1.38872,1.38872,0,0,1,.94141-.29,1.60912,1.60912,0,0,1,.95605.26172,1.20472,1.20472,0,0,1,.44434.87891h-.42676a.78792.78792,0,0,0-.31836-.5918,1.18925,1.18925,0,0,0-.66211-.1709.941.941,0,0,0-.6084.1709.55482.55482,0,0,0-.21094.45215.44.44,0,0,0,.17188.374,1.38383,1.38383,0,0,0,.43066.21q.25929.08056.55957.14355a2.74718,2.74718,0,0,1,.56055.17871,1.22356,1.22356,0,0,1,.43066.31152.802.802,0,0,1,.1709.5459.92218.92218,0,0,1-.11132.458.97621.97621,0,0,1-.3086.333,1.42683,1.42683,0,0,1-.46484.19922,2.44007,2.44007,0,0,1-.5918.0664,1.60543,1.60543,0,0,1-.57031-.09375,1.25021,1.25021,0,0,1-.42383-.26269,1.21011,1.21011,0,0,1-.27344-.39258,1.36245,1.36245,0,0,1-.11133-.48242Z"/><path class="cls-1" d="M28.58789,138.34863h-.01367v4.39649h-.47656v-5.04h.53906l2.91211,4.40332h.01367v-4.40332h.47656v5.04h-.55273Z"/><path class="cls-1" d="M34.54492,142.84277a1.84811,1.84811,0,0,1-.6543-.126,1.47672,1.47672,0,0,1-.5332-.35645,1.72475,1.72475,0,0,1-.35937-.5957,2.34812,2.34812,0,0,1-.13282-.833,2.54944,2.54944,0,0,1,.1045-.74512,1.7453,1.7453,0,0,1,.31543-.60547,1.48986,1.48986,0,0,1,.52441-.40917,1.68443,1.68443,0,0,1,.73535-.1504,1.70654,1.70654,0,0,1,.74219.1504,1.52326,1.52326,0,0,1,.52441.40527,1.68549,1.68549,0,0,1,.31153.60644,2.6479,2.6479,0,0,1,.10156.748,2.40416,2.40416,0,0,1-.11914.78418,1.75575,1.75575,0,0,1-.33985.60254,1.50367,1.50367,0,0,1-.53124.38867A1.70349,1.70349,0,0,1,34.54492,142.84277Zm1.23242-1.91113a2.46589,2.46589,0,0,0-.07031-.60156,1.43689,1.43689,0,0,0-.2168-.48633,1.04478,1.04478,0,0,0-.3789-.3252,1.2178,1.2178,0,0,0-.56641-.11914,1.15618,1.15618,0,0,0-.56445.12891,1.10384,1.10384,0,0,0-.38086.34375,1.51565,1.51565,0,0,0-.2168.48926,2.39569,2.39569,0,0,0,.00977,1.19043,1.50219,1.50219,0,0,0,.23437.48633,1.06234,1.06234,0,0,0,.38575.31543,1.20873,1.20873,0,0,0,.53222.11132,1.151,1.151,0,0,0,.5625-.1289,1.0991,1.0991,0,0,0,.38281-.34668,1.56939,1.56939,0,0,0,.2168-.49024A2.26335,2.26335,0,0,0,35.77734,140.93164Z"/><path class="cls-1" d="M37.43555,142.74512h-.41993v-3.626h.41993v.67871h.01367a1.21886,1.21886,0,0,1,.45215-.60547,1.37456,1.37456,0,0,1,.73144-.1709v.45508a1.2261,1.2261,0,0,0-.58789.11133.95871.95871,0,0,0-.36719.32227,1.26643,1.26643,0,0,0-.18945.47949,3.07884,3.07884,0,0,0-.05273.57715Z"/><path class="cls-1" d="M40.59961,142.75879c-.05078.00976-.11914.02637-.20313.0498a1.08321,1.08321,0,0,1-.27929.03418.66717.66717,0,0,1-.48047-.15722.76755.76755,0,0,1-.16406-.56348v-2.65332h-.51075v-.34961h.51075v-1.00781h.41992v1.00781h.67969v.34961h-.67969v2.48535c0,.08887.002.166.00781.23145a.37059.37059,0,0,0,.041.16015.20453.20453,0,0,0,.10937.0918.60246.60246,0,0,0,.20606.02734,1.03218,1.03218,0,0,0,.17089-.01367c.0586-.00976.11622-.02148.17188-.03515Z"/><path class="cls-1" d="M41.27148,142.74512v-5.04h.41993v1.918a2.65974,2.65974,0,0,1,.52148-.4336,1.19705,1.19705,0,0,1,.64746-.168,1.65215,1.65215,0,0,1,.62305.11524,1.06468,1.06468,0,0,1,.4834.40234.91481.91481,0,0,1,.15722.40235,3.60016,3.60016,0,0,1,.02442.43066v2.373h-.41992v-2.36621a1.0796,1.0796,0,0,0-.2168-.73438.918.918,0,0,0-.7207-.24512,1.01691,1.01691,0,0,0-.35743.05957,1.11312,1.11312,0,0,0-.291.15723,1.08766,1.08766,0,0,0-.2207.22363.99268.99268,0,0,0-.13868.26661,1.3103,1.3103,0,0,0-.07812.33593c-.00879.10742-.01367.22364-.01367.34961v1.95313Z"/><path class="cls-1" d="M45.42285,141.03027a1.95584,1.95584,0,0,0,.07715.55664,1.3533,1.3533,0,0,0,.22656.45508,1.12046,1.12046,0,0,0,.38282.30762,1.27,1.27,0,0,0,1.23828-.10156,1.05238,1.05238,0,0,0,.39257-.61621H48.209a2.26891,2.26891,0,0,1-.20312.47949,1.48828,1.48828,0,0,1-.31543.38574,1.36207,1.36207,0,0,1-.44824.25488,1.81255,1.81255,0,0,1-.60157.09082,1.7639,1.7639,0,0,1-.749-.14648,1.4289,1.4289,0,0,1-.51855-.40234,1.72916,1.72916,0,0,1-.30078-.60254,2.75982,2.75982,0,0,1-.09766-.74512,2.397,2.397,0,0,1,.11523-.749,1.92076,1.92076,0,0,1,.32911-.61231,1.52736,1.52736,0,0,1,.52148-.41308,1.57249,1.57249,0,0,1,.70019-.1504,1.44507,1.44507,0,0,1,1.17579.51368,2.25963,2.25963,0,0,1,.41992,1.49511Zm2.36621-.35058a1.66883,1.66883,0,0,0-.07422-.5,1.167,1.167,0,0,0-.21679-.40625,1.03,1.03,0,0,0-.36035-.27246,1.15052,1.15052,0,0,0-.49708-.10157,1.11777,1.11777,0,0,0-.49414.1045,1.14356,1.14356,0,0,0-.36328.28027,1.393,1.393,0,0,0-.24218.40625,1.87756,1.87756,0,0,0-.11817.48926Z"/><path class="cls-1" d="M49.49609,142.74512h-.41992v-3.626h.41992v.67871h.01465a1.20777,1.20777,0,0,1,.45215-.60547,1.37088,1.37088,0,0,1,.73047-.1709v.45508a1.2261,1.2261,0,0,0-.58789.11133.96583.96583,0,0,0-.36719.32227,1.28227,1.28227,0,0,0-.18945.47949,3.07883,3.07883,0,0,0-.05274.57715Z"/><path class="cls-1" d="M51.80664,142.74512h-.41992v-3.626h.41992v.50391a2.66,2.66,0,0,1,.52148-.4336,1.19706,1.19706,0,0,1,.64747-.168,1.65206,1.65206,0,0,1,.623.11524,1.06463,1.06463,0,0,1,.4834.40234.91483.91483,0,0,1,.15723.40235,3.6002,3.6002,0,0,1,.02441.43066v2.373h-.41992v-2.36621a1.0796,1.0796,0,0,0-.2168-.73438.918.918,0,0,0-.7207-.24512,1.01681,1.01681,0,0,0-.35742.05957,1.11334,1.11334,0,0,0-.291.15723,1.08791,1.08791,0,0,0-.2207.22363.99264.99264,0,0,0-.13867.26661,1.31075,1.31075,0,0,0-.07813.33593c-.00879.10742-.01367.22364-.01367.34961Z"/><path class="cls-1" d="M57.69336,144.17285h-.41992v-5.05371h.41992v.63672H57.707a1.22683,1.22683,0,0,1,.23535-.31445,1.319,1.319,0,0,1,.31543-.23145,1.63424,1.63424,0,0,1,.35352-.13965,1.34417,1.34417,0,0,1,.35644-.04883,1.73337,1.73337,0,0,1,.749.14649,1.40725,1.40725,0,0,1,.50781.40234,1.646,1.646,0,0,1,.29.60547,2.97577,2.97577,0,0,1,.09082.749,2.6877,2.6877,0,0,1-.09766.72852,1.78941,1.78941,0,0,1-.29785.6123,1.46667,1.46667,0,0,1-.50391.41993,1.53475,1.53475,0,0,1-.71777.15722,1.67592,1.67592,0,0,1-.73828-.17089,1.30693,1.30693,0,0,1-.55664-.50782Zm0-3.22656a2.00559,2.00559,0,0,0,.084.584,1.51808,1.51808,0,0,0,.24219.4834,1.17773,1.17773,0,0,0,.38477.3291,1.063,1.063,0,0,0,.51465.12207,1.1817,1.1817,0,0,0,.56347-.1289,1.11951,1.11951,0,0,0,.39551-.35352,1.536,1.536,0,0,0,.22363-.52148,2.381,2.381,0,0,0,.05664-.64063,1.77047,1.77047,0,0,0-.0957-.60547,1.29028,1.29028,0,0,0-.26172-.44433,1.11594,1.11594,0,0,0-.39258-.27735,1.25171,1.25171,0,0,0-.48925-.09375,1.12253,1.12253,0,0,0-.5254.11914,1.10574,1.10574,0,0,0-.38476.3252,1.49339,1.49339,0,0,0-.23438.49023A2.22638,2.22638,0,0,0,57.69336,140.94629Z"/><path class="cls-1" d="M61.94238,142.74512h-.41992v-3.626h.41992v.67871H61.957a1.21215,1.21215,0,0,1,.45117-.60547,1.37227,1.37227,0,0,1,.73145-.1709v.45508a1.22366,1.22366,0,0,0-.58789.11133.97618.97618,0,0,0-.36817.32227,1.29788,1.29788,0,0,0-.18847.47949,3.07883,3.07883,0,0,0-.05274.57715Z"/><path class="cls-1" d="M65.49805,140.63086c.08007-.00879.17383-.02344.28418-.042a1.05167,1.05167,0,0,0,.26953-.07715.226.226,0,0,0,.12988-.16406,1.08238,1.08238,0,0,0,.02344-.21387.716.716,0,0,0-.20606-.52832.96332.96332,0,0,0-.69629-.20606,1.94359,1.94359,0,0,0-.39843.03809.86965.86965,0,0,0-.31934.13281.74628.74628,0,0,0-.22363.252,1.04984,1.04984,0,0,0-.11524.3955h-.42773a1.29164,1.29164,0,0,1,.14746-.54882,1.10933,1.10933,0,0,1,.3252-.3711,1.34193,1.34193,0,0,1,.46191-.21,2.22954,2.22954,0,0,1,.55664-.06641,2.12507,2.12507,0,0,1,.51465.05957,1.188,1.188,0,0,1,.41992.18848.86986.86986,0,0,1,.2793.34668,1.2411,1.2411,0,0,1,.10156.53223v1.97363c0,.16309.0293.26758.08789.31152s.17578.03418.35352-.03125v.32911c-.03321.00878-.08008.02343-.14258.042a.65718.65718,0,0,1-.18555.02734.853.853,0,0,1-.18945-.02051.32446.32446,0,0,1-.168-.0664.39618.39618,0,0,1-.10156-.126.539.539,0,0,1-.05274-.16113,1.12855,1.12855,0,0,1-.01367-.18555,1.82563,1.82563,0,0,1-.60937.44824,1.79375,1.79375,0,0,1-.74219.15332,1.66179,1.66179,0,0,1-.458-.0625,1.10584,1.10584,0,0,1-.38867-.19629.98919.98919,0,0,1-.2666-.32519,1.01341,1.01341,0,0,1-.09766-.459q0-.92284,1.26758-1.09179Zm.707.21a2.03218,2.03218,0,0,1-.53906.14746q-.27246.03516-.54493.05567a1.54373,1.54373,0,0,0-.75293.21679.62311.62311,0,0,0-.26953.55371.58825.58825,0,0,0,.24121.49317.73313.73313,0,0,0,.252.11914,1.1339,1.1339,0,0,0,.291.03808,1.9113,1.9113,0,0,0,.49024-.0625,1.33785,1.33785,0,0,0,.42285-.19238.98243.98243,0,0,0,.29785-.3291.95564.95564,0,0,0,.11133-.47266Z"/><path class="cls-1" d="M67.7666,138.32812v-.623h.46192v.623Zm.02051,4.417v-3.626H68.207v3.626Z"/><path class="cls-1" d="M69.71875,142.74512h-.41992v-3.626h.41992v.67871h.01465a1.20777,1.20777,0,0,1,.45215-.60547,1.37088,1.37088,0,0,1,.73047-.1709v.45508a1.22612,1.22612,0,0,0-.5879.11133.96588.96588,0,0,0-.36718.32227,1.28244,1.28244,0,0,0-.18946.47949,3.07967,3.07967,0,0,0-.05273.57715Z"/><path class="cls-1" d="M71.65137,138.32812v-.623h.46191v.623Zm.02051,4.417v-3.626h.41992v3.626Z"/><path class="cls-1" d="M73.42188,141.03027a1.95619,1.95619,0,0,0,.07714.55664,1.37331,1.37331,0,0,0,.22754.45508,1.10776,1.10776,0,0,0,.38184.30762,1.27186,1.27186,0,0,0,1.23926-.10156,1.04655,1.04655,0,0,0,.3916-.61621H76.208a2.26727,2.26727,0,0,1-.20215.47949,1.47226,1.47226,0,0,1-.31641.38574,1.3573,1.3573,0,0,1-.44726.25488,1.81659,1.81659,0,0,1-.60157.09082,1.76857,1.76857,0,0,1-.75-.14648,1.4254,1.4254,0,0,1-.51757-.40234,1.71268,1.71268,0,0,1-.30078-.60254,2.722,2.722,0,0,1-.09766-.74512,2.36913,2.36913,0,0,1,.11523-.749,1.90013,1.90013,0,0,1,.32813-.61231,1.52755,1.52755,0,0,1,.52148-.41308,1.57681,1.57681,0,0,1,.70117-.1504,1.44637,1.44637,0,0,1,1.17579.51368,2.27054,2.27054,0,0,1,.41992,1.49511Zm2.36621-.35058a1.66869,1.66869,0,0,0-.07325-.5,1.167,1.167,0,0,0-.21679-.40625,1.03377,1.03377,0,0,0-.36133-.27246,1.14908,1.14908,0,0,0-.4961-.10157,1.11478,1.11478,0,0,0-.49414.1045,1.13293,1.13293,0,0,0-.36328.28027,1.372,1.372,0,0,0-.24218.40625,1.91828,1.91828,0,0,0-.11914.48926Z"/><path class="cls-1" d="M40.02148,156.56836a3.30828,3.30828,0,0,1-.31054-.21289,1.05653,1.05653,0,0,1-.21387-.2207.80756.80756,0,0,1-.12207-.26954,1.50781,1.50781,0,0,1-.03906-.375,1.04235,1.04235,0,0,1,.1123-.47558,1.25389,1.25389,0,0,1,.30078-.38867,1.37352,1.37352,0,0,1,.44434-.25489,1.51415,1.51415,0,0,1,.5498-.084,2.2151,2.2151,0,0,1,.54981.06934,1.47629,1.47629,0,0,1,.47851.21679,1.07048,1.07048,0,0,1,.4629.917,1.29064,1.29064,0,0,1-.15821.65821,1.14955,1.14955,0,0,1-.51367.44824,1.34137,1.34137,0,0,1,.64062.46875,1.2506,1.2506,0,0,1,.23438.75586,1.58759,1.58759,0,0,1-.123.64453,1.25908,1.25908,0,0,1-.34961.46875,1.57477,1.57477,0,0,1-.5498.28711,2.44081,2.44081,0,0,1-.71387.09766,1.73454,1.73454,0,0,1-.543-.09082,1.51858,1.51858,0,0,1-.49609-.27247,1.4372,1.4372,0,0,1-.36133-.45507,1.37588,1.37588,0,0,1-.13965-.6377,1.439,1.439,0,0,1,.21973-.78711A1.27677,1.27677,0,0,1,40.02148,156.56836Zm.78516.23828a1.69957,1.69957,0,0,0-.47656.06348,1.05615,1.05615,0,0,0-.37793.19238.87572.87572,0,0,0-.252.3291,1.11379,1.11379,0,0,0-.09082.47168,1.04986,1.04986,0,0,0,.08691.42774,1.01581,1.01581,0,0,0,.24512.33886,1.16127,1.16127,0,0,0,.38476.22754,1.44665,1.44665,0,0,0,.50781.084,1.25951,1.25951,0,0,0,.45508-.08008,1.11334,1.11334,0,0,0,.36719-.22754,1.01071,1.01071,0,0,0,.24512-.35059,1.11116,1.11116,0,0,0,.08789-.44726,1.05261,1.05261,0,0,0-.09082-.45215.89659.89659,0,0,0-.252-.32129,1.06885,1.06885,0,0,0-.3789-.19238A1.64758,1.64758,0,0,0,40.80664,156.80664Zm-.02148-2.1416a1.33368,1.33368,0,0,0-.39258.05566.93733.93733,0,0,0-.31836.168.77011.77011,0,0,0-.21289.28028.90529.90529,0,0,0-.07715.38476.82734.82734,0,0,0,.08691.39551.782.782,0,0,0,.23438.26953,1.07386,1.07386,0,0,0,.33594.15723,1.46437,1.46437,0,0,0,.39257.05273,1.30467,1.30467,0,0,0,.37793-.05273.75079.75079,0,0,0,.30176-.1709.83949.83949,0,0,0,.19922-.30176,1.201,1.201,0,0,0,.07324-.44727.72409.72409,0,0,0-.24511-.585A1.15856,1.15856,0,0,0,40.78516,154.665Z"/><path class="cls-1" d="M44.7959,157.18457v.43457H43.02539v-.43457Z"/><path class="cls-1" d="M45.8252,158.08789a1.06188,1.06188,0,0,0,.35351.66113,1.19484,1.19484,0,0,0,.73145.19239,1.26539,1.26539,0,0,0,.39843-.05567.79773.79773,0,0,0,.27735-.15039.64415.64415,0,0,0,.16406-.21387.58683.58683,0,0,0,.05664-.25195.46568.46568,0,0,0-.17187-.39551,1.2975,1.2975,0,0,0-.43067-.20312,5.6675,5.6675,0,0,0-.55957-.126,2.7288,2.7288,0,0,1-.56055-.15722,1.11743,1.11743,0,0,1-.42968-.30079.81041.81041,0,0,1-.17188-.55371.94426.94426,0,0,1,.332-.74511,1.387,1.387,0,0,1,.94141-.29,1.609,1.609,0,0,1,.95605.26172,1.20134,1.20134,0,0,1,.44434.8789h-.42773a.78189.78189,0,0,0-.31836-.59179,1.18143,1.18143,0,0,0-.66114-.1709.941.941,0,0,0-.6084.1709.55477.55477,0,0,0-.21093.45214.44007.44007,0,0,0,.17187.374,1.38388,1.38388,0,0,0,.43067.21q.25928.08056.55957.14355a2.74729,2.74729,0,0,1,.56054.17871,1.21963,1.21963,0,0,1,.42969.31153.79733.79733,0,0,1,.17188.5459.922.922,0,0,1-.11133.458.97621.97621,0,0,1-.3086.333,1.41773,1.41773,0,0,1-.46484.19922,2.44,2.44,0,0,1-.5918.06641,1.60543,1.60543,0,0,1-.57031-.09375,1.26009,1.26009,0,0,1-.42383-.2627,1.225,1.225,0,0,1-.27343-.39258,1.38372,1.38372,0,0,1-.11133-.48242Z"/><path class="cls-1" d="M50.35352,159.23535q-.07619.01465-.20215.04981a1.08565,1.08565,0,0,1-.28028.03418.66621.66621,0,0,1-.47949-.15723.76311.76311,0,0,1-.165-.56348v-2.65332H48.7168v-.34961h.50976v-1.00781h.41992v1.00781h.67969v.34961h-.67969v2.48535c0,.08887.00293.166.00782.23145a.37018.37018,0,0,0,.042.16016.199.199,0,0,0,.1084.09179.60462.60462,0,0,0,.207.02735,1.03242,1.03242,0,0,0,.1709-.01368c.05859-.00976.11621-.02148.1709-.03515Z"/><path class="cls-1" d="M52.69141,157.10742c.08007-.00879.17382-.02344.28418-.042a1.05139,1.05139,0,0,0,.26953-.07715.226.226,0,0,0,.12988-.16406,1.08313,1.08313,0,0,0,.02344-.21387.71606.71606,0,0,0-.20606-.52832.96337.96337,0,0,0-.69629-.20605,1.94362,1.94362,0,0,0-.39843.03808.86966.86966,0,0,0-.31934.13282.74624.74624,0,0,0-.22363.252,1.0499,1.0499,0,0,0-.11524.39551h-.42773a1.29168,1.29168,0,0,1,.14746-.54883,1.10942,1.10942,0,0,1,.3252-.3711,1.34193,1.34193,0,0,1,.46191-.21,2.22955,2.22955,0,0,1,.55664-.0664,2.12458,2.12458,0,0,1,.51465.05957,1.188,1.188,0,0,1,.41992.18847.86986.86986,0,0,1,.2793.34668,1.2411,1.2411,0,0,1,.10156.53223v1.97363c0,.16309.0293.26758.08789.31153s.17578.03418.35352-.03125v.3291c-.03321.00879-.08008.02344-.14258.042a.65718.65718,0,0,1-.18555.02734.85347.85347,0,0,1-.18945-.0205.32447.32447,0,0,1-.168-.06641.39618.39618,0,0,1-.10156-.126.539.539,0,0,1-.05274-.16113,1.12847,1.12847,0,0,1-.01367-.18555,1.82566,1.82566,0,0,1-.60937.44825,1.7939,1.7939,0,0,1-.74219.15332,1.66217,1.66217,0,0,1-.458-.0625,1.10617,1.10617,0,0,1-.38867-.19629.98932.98932,0,0,1-.2666-.3252,1.01337,1.01337,0,0,1-.09766-.459q0-.92286,1.26758-1.0918Zm.707.21a2.0318,2.0318,0,0,1-.53906.14746q-.27248.03516-.54493.05567a1.54383,1.54383,0,0,0-.75293.21679.62313.62313,0,0,0-.26953.55372.58824.58824,0,0,0,.24121.49316.73313.73313,0,0,0,.252.11914,1.13391,1.13391,0,0,0,.291.03809,1.91174,1.91174,0,0,0,.49024-.0625,1.33819,1.33819,0,0,0,.42285-.19239.98243.98243,0,0,0,.29785-.3291.9556.9556,0,0,0,.11133-.47265Z"/><path class="cls-1" d="M56.19141,159.23535q-.07619.01465-.20215.04981a1.08565,1.08565,0,0,1-.28028.03418.66621.66621,0,0,1-.47949-.15723.76311.76311,0,0,1-.165-.56348v-2.65332h-.50976v-.34961h.50976v-1.00781h.41993v1.00781h.67968v.34961h-.67968v2.48535c0,.08887.00292.166.00781.23145a.37018.37018,0,0,0,.042.16016.199.199,0,0,0,.1084.09179.60462.60462,0,0,0,.207.02735,1.03242,1.03242,0,0,0,.1709-.01368c.05859-.00976.11621-.02148.1709-.03515Z"/><path class="cls-1" d="M57.12305,157.50684a1.99116,1.99116,0,0,0,.07617.55664,1.3568,1.3568,0,0,0,.22851.45507,1.09526,1.09526,0,0,0,.38086.30762,1.17557,1.17557,0,0,0,.53223.11524,1.15874,1.15874,0,0,0,.707-.2168,1.03744,1.03744,0,0,0,.3916-.61621h.46875a2.2168,2.2168,0,0,1-.20215.47949,1.46868,1.46868,0,0,1-.31543.38574,1.3674,1.3674,0,0,1-.44726.25489,1.82694,1.82694,0,0,1-.60254.09082,1.7608,1.7608,0,0,1-.749-.14649,1.41725,1.41725,0,0,1-.51758-.40234,1.68051,1.68051,0,0,1-.30078-.60254,2.68439,2.68439,0,0,1-.09864-.74512,2.34156,2.34156,0,0,1,.11622-.749,1.88124,1.88124,0,0,1,.32812-.61231,1.52755,1.52755,0,0,1,.52148-.41308,1.57253,1.57253,0,0,1,.7002-.15039,1.44836,1.44836,0,0,1,1.17676.51367,2.276,2.276,0,0,1,.41992,1.49512Zm2.36523-.35059a1.66889,1.66889,0,0,0-.07226-.5,1.18523,1.18523,0,0,0-.21778-.40625,1.03,1.03,0,0,0-.36035-.27246,1.15048,1.15048,0,0,0-.49707-.10156,1.11339,1.11339,0,0,0-.49316.10449,1.14741,1.14741,0,0,0-.36426.28027,1.3906,1.3906,0,0,0-.24121.40625,1.87834,1.87834,0,0,0-.11914.48926Z"/><path class="cls-1" d="M64.36719,157.10742c.08008-.00879.17383-.02344.28418-.042a1.05127,1.05127,0,0,0,.26953-.07715.226.226,0,0,0,.12988-.16406,1.08238,1.08238,0,0,0,.02344-.21387.71606.71606,0,0,0-.20606-.52832.96336.96336,0,0,0-.69628-.20605,1.94365,1.94365,0,0,0-.39844.03808.86966.86966,0,0,0-.31934.13282.74624.74624,0,0,0-.22363.252,1.05008,1.05008,0,0,0-.11524.39551H62.6875a1.29168,1.29168,0,0,1,.14746-.54883,1.10953,1.10953,0,0,1,.3252-.3711,1.342,1.342,0,0,1,.46191-.21,2.22961,2.22961,0,0,1,.55664-.0664,2.12458,2.12458,0,0,1,.51465.05957,1.188,1.188,0,0,1,.41992.18847.86986.86986,0,0,1,.2793.34668,1.2411,1.2411,0,0,1,.10156.53223v1.97363c0,.16309.0293.26758.08789.31153s.17578.03418.35352-.03125v.3291c-.03321.00879-.08008.02344-.14258.042a.65718.65718,0,0,1-.18555.02734.8536.8536,0,0,1-.18945-.0205.32447.32447,0,0,1-.168-.06641.39618.39618,0,0,1-.10156-.126.539.539,0,0,1-.05274-.16113,1.12847,1.12847,0,0,1-.01367-.18555,1.82566,1.82566,0,0,1-.60937.44825,1.7939,1.7939,0,0,1-.74219.15332,1.66222,1.66222,0,0,1-.458-.0625,1.10617,1.10617,0,0,1-.38867-.19629.98932.98932,0,0,1-.2666-.3252,1.01337,1.01337,0,0,1-.09766-.459q0-.92286,1.26758-1.0918Zm.707.21a2.0318,2.0318,0,0,1-.53906.14746q-.27246.03516-.54493.05567a1.54383,1.54383,0,0,0-.75293.21679.62313.62313,0,0,0-.26953.55372.58824.58824,0,0,0,.24121.49316.73313.73313,0,0,0,.252.11914,1.13391,1.13391,0,0,0,.291.03809,1.91174,1.91174,0,0,0,.49024-.0625,1.33809,1.33809,0,0,0,.42285-.19239.98243.98243,0,0,0,.29785-.3291.9556.9556,0,0,0,.11133-.47265Z"/><path class="cls-1" d="M66.209,155.5957h.45508l1.17578,3.1084,1.17578-3.1084h.45508l-1.40625,3.626h-.46972Z"/><path class="cls-1" d="M70.35352,157.50684a1.99116,1.99116,0,0,0,.07617.55664,1.3371,1.3371,0,0,0,.22754.45507,1.10772,1.10772,0,0,0,.38183.30762,1.17137,1.17137,0,0,0,.53125.11524,1.15671,1.15671,0,0,0,.707-.2168,1.04324,1.04324,0,0,0,.39258-.61621h.46875a2.21946,2.21946,0,0,1-.20312.47949,1.48493,1.48493,0,0,1-.31446.38574,1.37219,1.37219,0,0,1-.44824.25489,1.82284,1.82284,0,0,1-.60254.09082,1.75618,1.75618,0,0,1-.748-.14649,1.42074,1.42074,0,0,1-.51856-.40234,1.69652,1.69652,0,0,1-.30078-.60254,2.72154,2.72154,0,0,1-.09863-.74512,2.36906,2.36906,0,0,1,.11621-.749,1.90187,1.90187,0,0,1,.3291-.61231,1.52755,1.52755,0,0,1,.52148-.41308,1.56824,1.56824,0,0,1,.69922-.15039,1.447,1.447,0,0,1,1.17676.51367,2.265,2.265,0,0,1,.41992,1.49512Zm2.36523-.35059a1.66869,1.66869,0,0,0-.07324-.5,1.18523,1.18523,0,0,0-.21778-.40625,1.02623,1.02623,0,0,0-.35937-.27246,1.1519,1.1519,0,0,0-.498-.10156,1.11642,1.11642,0,0,0-.49316.10449,1.15848,1.15848,0,0,0-.36426.28027,1.41256,1.41256,0,0,0-.24121.40625,1.83885,1.83885,0,0,0-.11816.48926Z"/><path class="cls-1" d="M74.42676,159.22168h-.41992v-3.626h.41992v.67871h.01465a1.21207,1.21207,0,0,1,.45117-.60546,1.37221,1.37221,0,0,1,.73144-.1709v.45507a1.22366,1.22366,0,0,0-.58789.11133.97631.97631,0,0,0-.36816.32227,1.29789,1.29789,0,0,0-.18848.47949,3.07967,3.07967,0,0,0-.05273.57715Z"/><path class="cls-1" d="M77.98242,157.10742c.08008-.00879.17383-.02344.28418-.042a1.05115,1.05115,0,0,0,.26953-.07715.226.226,0,0,0,.12989-.16406,1.08307,1.08307,0,0,0,.02343-.21387.71609.71609,0,0,0-.206-.52832.9634.9634,0,0,0-.69629-.20605,1.94379,1.94379,0,0,0-.39844.03808.86961.86961,0,0,0-.31933.13282.74638.74638,0,0,0-.22364.252,1.05008,1.05008,0,0,0-.11523.39551h-.42774a1.29168,1.29168,0,0,1,.14747-.54883,1.10951,1.10951,0,0,1,.32519-.3711,1.342,1.342,0,0,1,.46191-.21,2.22969,2.22969,0,0,1,.55665-.0664,2.12455,2.12455,0,0,1,.51464.05957,1.188,1.188,0,0,1,.41993.18847.86976.86976,0,0,1,.27929.34668,1.2411,1.2411,0,0,1,.10157.53223v1.97363c0,.16309.02929.26758.08789.31153s.17578.03418.35351-.03125v.3291c-.0332.00879-.08008.02344-.14258.042a.65712.65712,0,0,1-.18554.02734.85363.85363,0,0,1-.18946-.0205.3245.3245,0,0,1-.168-.06641.39632.39632,0,0,1-.10156-.126.5387.5387,0,0,1-.05273-.16113,1.12738,1.12738,0,0,1-.01367-.18555,1.8257,1.8257,0,0,1-.60938.44825,1.79384,1.79384,0,0,1-.74219.15332,1.66215,1.66215,0,0,1-.458-.0625,1.10622,1.10622,0,0,1-.38868-.19629.98957.98957,0,0,1-.2666-.3252,1.0135,1.0135,0,0,1-.09765-.459q0-.92286,1.26757-1.0918Zm.707.21a2.0316,2.0316,0,0,1-.53906.14746q-.27246.03516-.54492.05567a1.5438,1.5438,0,0,0-.75293.21679.62311.62311,0,0,0-.26953.55372.58818.58818,0,0,0,.24121.49316.73308.73308,0,0,0,.252.11914,1.134,1.134,0,0,0,.291.03809,1.91166,1.91166,0,0,0,.49023-.0625,1.33809,1.33809,0,0,0,.42285-.19239.98222.98222,0,0,0,.29785-.3291.9556.9556,0,0,0,.11133-.47265Z"/><path class="cls-1" d="M83.00977,155.5957h.41992v3.27637a3.23055,3.23055,0,0,1-.07422.69629,1.50877,1.50877,0,0,1-.26172.584,1.325,1.325,0,0,1-.51855.40332,2.41887,2.41887,0,0,1-1.53321.04883,1.49875,1.49875,0,0,1-.46875-.25586,1.0799,1.0799,0,0,1-.27636-.33984.83083.83083,0,0,1-.10157-.3457h.44727a.83127.83127,0,0,0,.1543.332.77325.77325,0,0,0,.248.20312,1.07327,1.07327,0,0,0,.31934.10156,2.30381,2.30381,0,0,0,.36426.02832,1.389,1.389,0,0,0,.68554-.14746,1.0123,1.0123,0,0,0,.39258-.38476,1.51282,1.51282,0,0,0,.1709-.53906,4.27739,4.27739,0,0,0,.03223-.61622,1.31817,1.31817,0,0,1-.55665.50782,1.6768,1.6768,0,0,1-.73925.1709,1.5376,1.5376,0,0,1-.71778-.15723,1.4667,1.4667,0,0,1-.5039-.41992,1.7881,1.7881,0,0,1-.29688-.61231,2.68768,2.68768,0,0,1-.09765-.72851,2.97633,2.97633,0,0,1,.08984-.749,1.64733,1.64733,0,0,1,.291-.60546,1.40717,1.40717,0,0,1,.50781-.40235,1.732,1.732,0,0,1,.74805-.14648,1.34557,1.34557,0,0,1,.35742.04883,1.67457,1.67457,0,0,1,.35351.13964,1.33834,1.33834,0,0,1,.31543.23145,1.24579,1.24579,0,0,1,.23438.31445h.01465Zm0,1.82715a2.22625,2.22625,0,0,0-.08106-.6123,1.47551,1.47551,0,0,0-.23535-.49024,1.08845,1.08845,0,0,0-.38477-.32519,1.11555,1.11555,0,0,0-.52441-.11914,1.25662,1.25662,0,0,0-.49023.09375,1.1122,1.1122,0,0,0-.39161.27734,1.29205,1.29205,0,0,0-.26269.44434,1.77116,1.77116,0,0,0-.09473.60547,2.34282,2.34282,0,0,0,.05664.64062,1.51721,1.51721,0,0,0,.22364.52148,1.124,1.124,0,0,0,.3916.35352,1.17329,1.17329,0,0,0,.56738.12891,1.06573,1.06573,0,0,0,.51465-.12207,1.19816,1.19816,0,0,0,.38476-.32911,1.518,1.518,0,0,0,.24219-.48339A2.039,2.039,0,0,0,83.00977,157.42285Z"/><path class="cls-1" d="M84.74512,157.50684a1.95589,1.95589,0,0,0,.07715.55664,1.35334,1.35334,0,0,0,.22656.45507,1.12042,1.12042,0,0,0,.38281.30762,1.26993,1.26993,0,0,0,1.23828-.10156,1.05244,1.05244,0,0,0,.39258-.61621h.46875a2.26871,2.26871,0,0,1-.20313.47949,1.48844,1.48844,0,0,1-.31542.38574,1.36231,1.36231,0,0,1-.44825.25489,1.81271,1.81271,0,0,1-.60156.09082,1.7639,1.7639,0,0,1-.749-.14649,1.42894,1.42894,0,0,1-.51856-.40234,1.7295,1.7295,0,0,1-.30078-.60254,2.76017,2.76017,0,0,1-.09765-.74512,2.39707,2.39707,0,0,1,.11523-.749,1.92093,1.92093,0,0,1,.3291-.61231,1.52749,1.52749,0,0,1,.52149-.41308,1.57245,1.57245,0,0,1,.70019-.15039,1.44506,1.44506,0,0,1,1.17578.51367,2.25955,2.25955,0,0,1,.41992,1.49512Zm2.36621-.35059a1.66883,1.66883,0,0,0-.07422-.5,1.167,1.167,0,0,0-.2168-.40625,1.03,1.03,0,0,0-.36035-.27246,1.15048,1.15048,0,0,0-.49707-.10156,1.11777,1.11777,0,0,0-.49414.10449,1.14356,1.14356,0,0,0-.36328.28027,1.3932,1.3932,0,0,0-.24219.40625,1.87725,1.87725,0,0,0-.11816.48926Z"/><line class="cls-2" x1="35.01363" y1="55.55189" x2="33.51363" y2="55.55189"/><line class="cls-3" x1="31.19343" y1="55.55189" x2="23.07273" y2="55.55189"/><line class="cls-2" x1="21.91263" y1="55.55189" x2="20.41263" y2="55.55189"/><line class="cls-2" x1="49.61463" y1="55.55189" x2="48.11463" y2="55.55189"/><line class="cls-3" x1="45.79443" y1="55.55189" x2="37.67373" y2="55.55189"/><line class="cls-2" x1="36.51363" y1="55.55189" x2="35.01363" y2="55.55189"/><line class="cls-2" x1="64.21563" y1="55.55189" x2="62.71563" y2="55.55189"/><line class="cls-3" x1="60.39543" y1="55.55189" x2="52.27473" y2="55.55189"/><line class="cls-2" x1="51.11463" y1="55.55189" x2="49.61463" y2="55.55189"/><line class="cls-2" x1="78.81662" y1="55.55189" x2="77.31662" y2="55.55189"/><line class="cls-3" x1="74.99643" y1="55.55189" x2="66.87573" y2="55.55189"/><line class="cls-2" x1="65.71563" y1="55.55189" x2="64.21563" y2="55.55189"/><line class="cls-2" x1="93.41762" y1="55.55189" x2="91.91762" y2="55.55189"/><line class="cls-3" x1="89.59742" y1="55.55189" x2="81.47673" y2="55.55189"/><line class="cls-2" x1="80.31662" y1="55.55189" x2="78.81662" y2="55.55189"/><line class="cls-2" x1="108.01862" y1="55.55189" x2="106.51862" y2="55.55189"/><line class="cls-3" x1="104.19842" y1="55.55189" x2="96.07772" y2="55.55189"/><line class="cls-2" x1="94.91762" y1="55.55189" x2="93.41762" y2="55.55189"/><line class="cls-2" x1="122.61962" y1="55.55189" x2="121.11962" y2="55.55189"/><line class="cls-3" x1="118.79941" y1="55.55189" x2="110.67872" y2="55.55189"/><line class="cls-2" x1="109.51862" y1="55.55189" x2="108.01862" y2="55.55189"/><line class="cls-2" x1="137.22062" y1="55.55189" x2="135.72062" y2="55.55189"/><line class="cls-3" x1="133.40041" y1="55.55189" x2="125.27971" y2="55.55189"/><line class="cls-2" x1="124.11962" y1="55.55189" x2="122.61962" y2="55.55189"/><line class="cls-2" x1="151.82161" y1="55.55189" x2="150.32161" y2="55.55189"/><line class="cls-3" x1="148.00141" y1="55.55189" x2="139.88071" y2="55.55189"/><line class="cls-2" x1="138.72062" y1="55.55189" x2="137.22062" y2="55.55189"/><line class="cls-2" x1="166.42261" y1="55.55189" x2="164.92261" y2="55.55189"/><line class="cls-3" x1="162.60241" y1="55.55189" x2="154.48171" y2="55.55189"/><line class="cls-2" x1="153.32161" y1="55.55189" x2="151.82161" y2="55.55189"/><line class="cls-2" x1="181.02361" y1="55.55189" x2="179.52361" y2="55.55189"/><line class="cls-3" x1="177.2034" y1="55.55189" x2="169.08271" y2="55.55189"/><line class="cls-2" x1="167.92261" y1="55.55189" x2="166.42261" y2="55.55189"/><line class="cls-2" x1="195.62461" y1="55.55189" x2="194.12461" y2="55.55189"/><line class="cls-3" x1="191.8044" y1="55.55189" x2="183.68371" y2="55.55189"/><line class="cls-2" x1="182.52361" y1="55.55189" x2="181.02361" y2="55.55189"/><line class="cls-2" x1="210.22561" y1="55.55189" x2="208.72561" y2="55.55189"/><line class="cls-3" x1="206.4054" y1="55.55189" x2="198.2847" y2="55.55189"/><line class="cls-2" x1="197.12461" y1="55.55189" x2="195.62461" y2="55.55189"/></svg>