<svg viewBox="0 0 262 173" xmlns="http://www.w3.org/2000/svg"><path d="m8 15.08911h120v27.56436h-120z" fill="#011e41" stroke="#fff" stroke-miterlimit="10"/><path d="m128 15.08911h120v27.56436h-120z" fill="#011e41" stroke="#fff" stroke-miterlimit="10"/><path d="m8 42.65347h120v29.58663h-120z" fill="#c0c7d0" stroke="#fff" stroke-miterlimit="10"/><path d="m128 42.65347h120v29.58663h-120z" fill="#c0c7d0" stroke="#fff" stroke-miterlimit="10"/><path d="m8 72.2401h120v29.58663h-120z" fill="#e6e8ec" stroke="#fff" stroke-miterlimit="10"/><path d="m128 72.2401h120v29.58663h-120z" fill="#e6e8ec" stroke="#fff" stroke-miterlimit="10"/><path d="m8 101.82673h120v29.58663h-120z" fill="#c0c7d0" stroke="#fff" stroke-miterlimit="10"/><path d="m128 101.82673h120v29.58663h-120z" fill="#c0c7d0" stroke="#fff" stroke-miterlimit="10"/><path d="m8 131.41337h120v29.58663h-120z" fill="#e6e8ec" stroke="#fff" stroke-miterlimit="10"/><path d="m128 131.41337h120v29.58663h-120z" fill="#e6e8ec" stroke="#fff" stroke-miterlimit="10"/><path d="m138.4834 25.06836h.98828l2.3418 6.45557h-.957l-.65528-1.9336h-2.55371l-.69824 1.9336h-.89649zm1.43652 3.81006-.97949-2.852-1.042 2.852z" fill="#fff"/><path d="m142.52539 26.81738h.752v.813a1.79082 1.79082 0 0 1 .45313-.57812 1.17263 1.17263 0 0 1 .83008-.34034c.01465 0 .03906.00147.07422.0044s.0957.00879.18066.01758v.835a1.16978 1.16978 0 0 0 -.12988-.01758c-.03907-.00293-.083-.00439-.12891-.00439a1.12979 1.12979 0 0 0 -.91894.38427 1.3442 1.3442 0 0 0 -.32129.88574v2.707h-.791z" fill="#fff"/><path d="m148.4082 26.94678a1.78767 1.78767 0 0 1 .71192.60888 2.11267 2.11267 0 0 1 .31445.83057 5.43377 5.43377 0 0 1 .07031 1.03711h-3.42383a2.036 2.036 0 0 0 .33594 1.15234 1.11791 1.11791 0 0 0 .97168.43409 1.2492 1.2492 0 0 0 .98145-.41065 1.40556 1.40556 0 0 0 .291-.55176h.77735a1.64819 1.64819 0 0 1 -.2041.57813 2.08654 2.08654 0 0 1 -.3877.52051 1.82384 1.82384 0 0 1 -.88477.47461 2.67806 2.67806 0 0 1 -.6416.07031 1.96223 1.96223 0 0 1 -1.48047-.63965 2.49753 2.49753 0 0 1 -.60644-1.79053 2.71278 2.71278 0 0 1 .61133-1.84131 2.01113 2.01113 0 0 1 1.59863-.70752 2.13009 2.13009 0 0 1 .96485.23487zm.28321 1.84814a2.06674 2.06674 0 0 0 -.22266-.82178 1.136 1.136 0 0 0 -1.07617-.57128 1.18833 1.18833 0 0 0 -.90625.39355 1.492 1.492 0 0 0 -.3877.99951z" fill="#fff"/><path d="m153.0293 28.67578a.43055.43055 0 0 0 .36523-.22851.7153.7153 0 0 0 .05176-.3042.64618.64618 0 0 0 -.28711-.58887 1.53157 1.53157 0 0 0 -.82227-.18311 1.04177 1.04177 0 0 0 -.87695.33545 1.111 1.111 0 0 0 -.18848.55225h-.73828a1.3639 1.3639 0 0 1 .56446-1.21436 2.30832 2.30832 0 0 1 1.25683-.34131 2.55383 2.55383 0 0 1 1.34766.31641 1.07307 1.07307 0 0 1 .51367.98438v2.71142a.3434.3434 0 0 0 .05078.19776.24262.24262 0 0 0 .21289.0747 1.097 1.097 0 0 0 .11914-.00683c.043-.00391.08985-.01075.14063-.01953v.58447a2.24353 2.24353 0 0 1 -.28125.06592 2.0764 2.0764 0 0 1 -.26367.01318.65035.65035 0 0 1 -.59375-.29 1.13528 1.13528 0 0 1 -.13672-.43506 2.01759 2.01759 0 0 1 -.69336.54932 2.15268 2.15268 0 0 1 -.99805.23291 1.48465 1.48465 0 0 1 -1.07031-.39746 1.31887 1.31887 0 0 1 -.415-.99365 1.27772 1.27772 0 0 1 .40918-1.01416 1.9415 1.9415 0 0 1 1.07226-.44336zm-1.665 2.13672a.92785.92785 0 0 0 .59277.19727 1.80962 1.80962 0 0 0 .80859-.19288 1.08666 1.08666 0 0 0 .65918-1.04882v-.63623a1.33441 1.33441 0 0 1 -.373.15429 3.01209 3.01209 0 0 1 -.44727.08789l-.47754.06153a1.84142 1.84142 0 0 0 -.64648.18017.69816.69816 0 0 0 -.36719.65772.647.647 0 0 0 .2509.53906z" fill="#fff"/><path d="m155.98242 30.04736a1.13337 1.13337 0 0 0 .20117.60645 1.28275 1.28275 0 0 0 1.0586.38232 1.589 1.589 0 0 0 .78906-.19092.63359.63359 0 0 0 .3418-.5913.505.505 0 0 0 -.27344-.46143 3.24438 3.24438 0 0 0 -.6875-.22412l-.63867-.1582a3.14556 3.14556 0 0 1 -.90137-.334.99508.99508 0 0 1 -.51855-.88769 1.34806 1.34806 0 0 1 .4873-1.08106 1.96347 1.96347 0 0 1 1.31152-.41308 1.83233 1.83233 0 0 1 1.55469.624 1.34076 1.34076 0 0 1 .28906.85254h-.74609a.90066.90066 0 0 0 -.19434-.48535 1.255 1.255 0 0 0 -.96679-.31006 1.18387 1.18387 0 0 0 -.69532.1709.53035.53035 0 0 0 -.23535.45068.55251.55251 0 0 0 .30957.49072 1.90857 1.90857 0 0 0 .52832.19287l.53321.12745a4.172 4.172 0 0 1 1.16406.3999 1.05854 1.05854 0 0 1 .46094.95361 1.44322 1.44322 0 0 1 -.48242 1.08545 2.07017 2.07017 0 0 1 -1.47071.457 1.98729 1.98729 0 0 1 -1.50586-.47705 1.78926 1.78926 0 0 1 -.47363-1.17969z" fill="#fff"/><path d="m162.88184 25.38037a1.21232 1.21232 0 0 1 1.06836-.4043c.04882 0 .10058.00147.15332.0044s.1123.00732.18066.01318v.72071c-.083-.00586-.14356-.00928-.18066-.01075s-.07129-.00244-.1045-.00244q-.36327 0-.43554.187a3.68985 3.68985 0 0 0 -.07032.95118h.791v.624h-.791v4.06055h-.78316v-4.06052h-.6543v-.624h.6543v-.73829a1.40985 1.40985 0 0 1 .17184-.72072z" fill="#fff"/><path d="m168.42285 27.28711a2.37436 2.37436 0 0 1 .624 1.78271 3.07361 3.07361 0 0 1 -.54981 1.87891 1.98377 1.98377 0 0 1 -1.70605.74219 1.92226 1.92226 0 0 1 -1.53223-.65625 2.60455 2.60455 0 0 1 -.56641-1.76319 2.81649 2.81649 0 0 1 .59766-1.88769 2.00048 2.00048 0 0 1 1.60547-.70264 2.10941 2.10941 0 0 1 1.52737.60596zm-.49121 3.12793a2.99083 2.99083 0 0 0 .28906-1.32324 2.3705 2.3705 0 0 0 -.209-1.07129 1.17107 1.17107 0 0 0 -1.1377-.64942 1.11921 1.11921 0 0 0 -1.043.55323 2.57855 2.57855 0 0 0 -.32617 1.334 2.24261 2.24261 0 0 0 .32617 1.251 1.14325 1.14325 0 0 0 1.03418.50049 1.076 1.076 0 0 0 1.06646-.59481z" fill="#fff"/><path d="m170.04 26.81738h.75195v.813a1.79082 1.79082 0 0 1 .45313-.57812 1.17263 1.17263 0 0 1 .83008-.34034c.01464 0 .03906.00147.07421.0044s.09571.00879.18067.01758v.835a1.17009 1.17009 0 0 0 -.12988-.01758c-.03907-.00293-.083-.00439-.12891-.00439a1.12983 1.12983 0 0 0 -.91895.38427 1.34426 1.34426 0 0 0 -.32129.88574v2.707h-.791z" fill="#fff"/><path d="m175.81836 25.06836h.88379v6.45557h-.88379z" fill="#fff"/><path d="m178.0166 26.81738h.78223v.668a2.62944 2.62944 0 0 1 .50976-.50537 1.53313 1.53313 0 0 1 .8877-.26807 1.39706 1.39706 0 0 1 .90527.27686 1.4469 1.4469 0 0 1 .35156.46582 1.70847 1.70847 0 0 1 .62012-.56055 1.72748 1.72748 0 0 1 .79883-.18213 1.30941 1.30941 0 0 1 1.293.68555 2.24194 2.24194 0 0 1 .18359.99316v3.13331h-.82129v-3.26957a.76012.76012 0 0 0 -.23535-.646.92876.92876 0 0 0 -.57324-.17578 1.137 1.137 0 0 0 -.80176.312 1.3682 1.3682 0 0 0 -.33594 1.0415v2.7378h-.80468v-3.07176a1.596 1.596 0 0 0 -.11426-.69873.69756.69756 0 0 0 -.67285-.32959 1.15767 1.15767 0 0 0 -.81446.34717 1.69931 1.69931 0 0 0 -.36718 1.25683v2.4961h-.791z" fill="#fff"/><path d="m185.44629 26.83936h.77344v.624a1.92561 1.92561 0 0 1 .5205-.49658 1.67562 1.67562 0 0 1 .94239-.26368 1.77726 1.77726 0 0 1 1.3623.6128 2.51355 2.51355 0 0 1 .55957 1.75146 2.684 2.684 0 0 1 -.80761 2.19727 1.83 1.83 0 0 1 -1.19141.41748 1.62254 1.62254 0 0 1 -.89551-.23291 2.05823 2.05823 0 0 1 -.47266-.45264v2.40381h-.791zm2.97656 3.68945a2.20371 2.20371 0 0 0 .36817-1.38672 2.58753 2.58753 0 0 0 -.16309-.9668 1.19694 1.19694 0 0 0 -2.25781.04395 3.25578 3.25578 0 0 0 -.16309 1.11621 2.3658 2.3658 0 0 0 .16309.92725 1.20106 1.20106 0 0 0 2.05273.26611z" fill="#fff"/><path d="m190.54 26.81738h.75195v.813a1.79082 1.79082 0 0 1 .45313-.57812 1.17263 1.17263 0 0 1 .83008-.34034c.01464 0 .03906.00147.07421.0044s.09571.00879.18067.01758v.835a1.17009 1.17009 0 0 0 -.12988-.01758c-.03907-.00293-.083-.00439-.12891-.00439a1.12983 1.12983 0 0 0 -.91895.38427 1.34426 1.34426 0 0 0 -.32129.88574v2.707h-.791z" fill="#fff"/><path d="m196.92578 27.28711a2.37436 2.37436 0 0 1 .624 1.78271 3.07361 3.07361 0 0 1 -.54978 1.87891 1.98377 1.98377 0 0 1 -1.70605.74219 1.92224 1.92224 0 0 1 -1.53223-.65625 2.60455 2.60455 0 0 1 -.56641-1.76319 2.81649 2.81649 0 0 1 .59766-1.88769 2.00048 2.00048 0 0 1 1.60547-.70264 2.10941 2.10941 0 0 1 1.52734.60596zm-.49121 3.12793a2.99083 2.99083 0 0 0 .28906-1.32324 2.3705 2.3705 0 0 0 -.209-1.07129 1.17107 1.17107 0 0 0 -1.1377-.64942 1.11921 1.11921 0 0 0 -1.043.55323 2.57855 2.57855 0 0 0 -.32617 1.334 2.24261 2.24261 0 0 0 .32617 1.251 1.14325 1.14325 0 0 0 1.03418.50049 1.076 1.076 0 0 0 1.06646-.59481z" fill="#fff"/><path d="m198.90918 26.81738 1.25684 3.832 1.30957-3.832h.86621l-1.77246 4.70655h-.84278l-1.73535-4.70655z" fill="#fff"/><path d="m205.92773 26.94678a1.78767 1.78767 0 0 1 .71192.60888 2.11252 2.11252 0 0 1 .31445.83057 5.43377 5.43377 0 0 1 .07031 1.03711h-3.42382a2.036 2.036 0 0 0 .33593 1.15234 1.11791 1.11791 0 0 0 .97168.43409 1.2492 1.2492 0 0 0 .98145-.41065 1.40556 1.40556 0 0 0 .291-.55176h.77735a1.64819 1.64819 0 0 1 -.2041.57813 2.0863 2.0863 0 0 1 -.3877.52051 1.82385 1.82385 0 0 1 -.88476.47461 2.6782 2.6782 0 0 1 -.64161.07031 1.96219 1.96219 0 0 1 -1.48046-.63965 2.49749 2.49749 0 0 1 -.60645-1.79053 2.71278 2.71278 0 0 1 .61133-1.84131 2.01113 2.01113 0 0 1 1.59863-.70752 2.13006 2.13006 0 0 1 .96485.23487zm.28321 1.84814a2.06674 2.06674 0 0 0 -.22266-.82178 1.136 1.136 0 0 0 -1.07617-.57128 1.18833 1.18833 0 0 0 -.90625.39355 1.492 1.492 0 0 0 -.3877.99951z" fill="#fff"/><path d="m208.02637 26.81738h.78222v.668a2.62945 2.62945 0 0 1 .50977-.50537 1.5331 1.5331 0 0 1 .88769-.26807 1.39711 1.39711 0 0 1 .90528.27686 1.44718 1.44718 0 0 1 .35156.46582 1.70839 1.70839 0 0 1 .62012-.56055 1.72748 1.72748 0 0 1 .79883-.18213 1.30938 1.30938 0 0 1 1.293.68555 2.24193 2.24193 0 0 1 .1836.99316v3.13331h-.82129v-3.26957a.76015.76015 0 0 0 -.23535-.646.92878.92878 0 0 0 -.57324-.17578 1.137 1.137 0 0 0 -.80176.312 1.3682 1.3682 0 0 0 -.33594 1.0415v2.7378h-.80469v-3.07176a1.59606 1.59606 0 0 0 -.11425-.69873.69756.69756 0 0 0 -.67286-.32959 1.15764 1.15764 0 0 0 -.81445.34717 1.69927 1.69927 0 0 0 -.36719 1.25683v2.4961h-.791z" fill="#fff"/><path d="m218.43066 26.94678a1.78767 1.78767 0 0 1 .71192.60888 2.11267 2.11267 0 0 1 .31445.83057 5.43377 5.43377 0 0 1 .07031 1.03711h-3.42382a2.036 2.036 0 0 0 .33593 1.15234 1.11791 1.11791 0 0 0 .97168.43409 1.2492 1.2492 0 0 0 .98145-.41065 1.40556 1.40556 0 0 0 .291-.55176h.77735a1.64819 1.64819 0 0 1 -.2041.57813 2.08654 2.08654 0 0 1 -.3877.52051 1.82385 1.82385 0 0 1 -.88476.47461 2.6782 2.6782 0 0 1 -.64161.07031 1.96223 1.96223 0 0 1 -1.48047-.63965 2.49753 2.49753 0 0 1 -.60644-1.79053 2.71278 2.71278 0 0 1 .61133-1.84131 2.01113 2.01113 0 0 1 1.59863-.70752 2.13006 2.13006 0 0 1 .96485.23487zm.28321 1.84814a2.06674 2.06674 0 0 0 -.22266-.82178 1.136 1.136 0 0 0 -1.07617-.57128 1.18833 1.18833 0 0 0 -.90625.39355 1.492 1.492 0 0 0 -.3877.99951z" fill="#fff"/><path d="m220.52832 26.81738h.75195v.668a2.09721 2.09721 0 0 1 .707-.59326 1.88462 1.88462 0 0 1 .83008-.18018 1.36947 1.36947 0 0 1 1.35352.69873 2.48126 2.48126 0 0 1 .19336 1.09424v3.01905h-.80371v-2.96634a1.60572 1.60572 0 0 0 -.12793-.69434.77122.77122 0 0 0 -.76367-.43945 1.55591 1.55591 0 0 0 -.46192.05713 1.18826 1.18826 0 0 0 -.57129.38672 1.15873 1.15873 0 0 0 -.25683.48144 3.20362 3.20362 0 0 0 -.05957.70947v2.46534h-.791z" fill="#fff"/><path d="m225.69238 25.50342h.79981v1.314h.751v.646h-.751v3.07178a.33239.33239 0 0 0 .167.32959.70988.70988 0 0 0 .30762.04834q.05712 0 .123-.00293c.04395-.002.09473-.00684.15332-.01465v.62842a1.752 1.752 0 0 1 -.2832.05712 2.68436 2.68436 0 0 1 -.31836.01758.85965.85965 0 0 1 -.752-.28369 1.26492 1.26492 0 0 1 -.19727-.73584v-3.11576h-.63672v-.646h.63672z" fill="#fff"/><path d="m29.29688 25.06836h.98828l2.34184 6.45557h-.957l-.65527-1.9336h-2.55379l-.69824 1.9336h-.89649zm1.43652 3.81006-.97949-2.852-1.042 2.852z" fill="#fff"/><path d="m33.33887 26.81738h.752v.813a1.79053 1.79053 0 0 1 .45313-.57812 1.1726 1.1726 0 0 1 .83007-.34034c.01465 0 .03907.00147.07422.0044s.09571.00879.18067.01758v.835a1.16994 1.16994 0 0 0 -.12989-.01758c-.03906-.00293-.083-.00439-.1289-.00439a1.12981 1.12981 0 0 0 -.919.38427 1.3442 1.3442 0 0 0 -.32129.88574v2.707h-.791z" fill="#fff"/><path d="m39.22168 26.94678a1.78764 1.78764 0 0 1 .71191.60888 2.11268 2.11268 0 0 1 .31446.83057 5.43461 5.43461 0 0 1 .07031 1.03711h-3.42383a2.036 2.036 0 0 0 .33594 1.15234 1.11789 1.11789 0 0 0 .97168.43409 1.2492 1.2492 0 0 0 .98144-.41065 1.40571 1.40571 0 0 0 .291-.55176h.77741a1.64778 1.64778 0 0 1 -.2041.57813 2.08652 2.08652 0 0 1 -.38769.52051 1.82388 1.82388 0 0 1 -.88477.47461 2.67806 2.67806 0 0 1 -.6416.07031 1.96223 1.96223 0 0 1 -1.48047-.63965 2.49749 2.49749 0 0 1 -.60644-1.79053 2.71282 2.71282 0 0 1 .61132-1.84131 2.01115 2.01115 0 0 1 1.59864-.70752 2.13009 2.13009 0 0 1 .96479.23487zm.2832 1.84814a2.06658 2.06658 0 0 0 -.22265-.82178 1.136 1.136 0 0 0 -1.07618-.57128 1.18834 1.18834 0 0 0 -.90625.39355 1.492 1.492 0 0 0 -.38769.99951z" fill="#fff"/><path d="m43.84277 28.67578a.43058.43058 0 0 0 .36524-.22851.7153.7153 0 0 0 .05176-.3042.6462.6462 0 0 0 -.28711-.58887 1.5316 1.5316 0 0 0 -.82227-.18311 1.04177 1.04177 0 0 0 -.877.33545 1.111 1.111 0 0 0 -.18848.55225h-.73828a1.36392 1.36392 0 0 1 .56445-1.21436 2.30838 2.30838 0 0 1 1.25684-.34131 2.55376 2.55376 0 0 1 1.34765.31641 1.07305 1.07305 0 0 1 .51368.98438v2.71142a.3434.3434 0 0 0 .05078.19776.24262.24262 0 0 0 .21289.0747 1.09711 1.09711 0 0 0 .11914-.00683c.043-.00391.08984-.01075.14062-.01953v.58447a2.24273 2.24273 0 0 1 -.28125.06592 2.0764 2.0764 0 0 1 -.26367.01318.65037.65037 0 0 1 -.59375-.29 1.13563 1.13563 0 0 1 -.13672-.43506 2.0174 2.0174 0 0 1 -.69336.54932 2.15261 2.15261 0 0 1 -.998.23291 1.48468 1.48468 0 0 1 -1.07032-.39746 1.31889 1.31889 0 0 1 -.415-.99365 1.27772 1.27772 0 0 1 .40918-1.01416 1.94147 1.94147 0 0 1 1.07221-.4434zm-1.665 2.13672a.92788.92788 0 0 0 .59278.19727 1.80962 1.80962 0 0 0 .80859-.19288 1.08668 1.08668 0 0 0 .65918-1.04882v-.63623a1.33436 1.33436 0 0 1 -.37305.15429 3.012 3.012 0 0 1 -.44726.08789l-.47754.06153a1.84142 1.84142 0 0 0 -.64648.18017.69816.69816 0 0 0 -.36719.65772.647.647 0 0 0 .25093.53906z" fill="#fff"/><path d="m46.7959 30.04736a1.13337 1.13337 0 0 0 .20117.60645 1.28274 1.28274 0 0 0 1.05859.38232 1.58907 1.58907 0 0 0 .78907-.19092.63358.63358 0 0 0 .34179-.5913.505.505 0 0 0 -.27343-.46143 3.24459 3.24459 0 0 0 -.6875-.22412l-.63868-.1582a3.1456 3.1456 0 0 1 -.90136-.334.99507.99507 0 0 1 -.51856-.88769 1.34807 1.34807 0 0 1 .48731-1.08106 1.96343 1.96343 0 0 1 1.31152-.41308 1.83234 1.83234 0 0 1 1.55469.624 1.34076 1.34076 0 0 1 .28906.85254h-.74609a.90074.90074 0 0 0 -.19434-.48535 1.255 1.255 0 0 0 -.9668-.31006 1.18383 1.18383 0 0 0 -.69531.1709.53032.53032 0 0 0 -.23535.45068.55251.55251 0 0 0 .30957.49072 1.90857 1.90857 0 0 0 .52832.19287l.5332.12745a4.17192 4.17192 0 0 1 1.16407.3999 1.05855 1.05855 0 0 1 .46093.95361 1.44318 1.44318 0 0 1 -.48242 1.08545 2.07014 2.07014 0 0 1 -1.4707.457 1.98728 1.98728 0 0 1 -1.50586-.47705 1.78921 1.78921 0 0 1 -.47363-1.17969z" fill="#fff"/><path d="m56.73633 27.28711a2.3744 2.3744 0 0 1 .624 1.78271 3.07361 3.07361 0 0 1 -.5498 1.87891 1.98378 1.98378 0 0 1 -1.70606.74219 1.92223 1.92223 0 0 1 -1.53222-.65625 2.60455 2.60455 0 0 1 -.56641-1.76319 2.81649 2.81649 0 0 1 .59766-1.88769 2.00046 2.00046 0 0 1 1.60546-.70264 2.10945 2.10945 0 0 1 1.52737.60596zm-.49121 3.12789a2.99083 2.99083 0 0 0 .28906-1.32324 2.37064 2.37064 0 0 0 -.209-1.07129 1.17107 1.17107 0 0 0 -1.1377-.64942 1.1192 1.1192 0 0 0 -1.043.55323 2.57855 2.57855 0 0 0 -.32617 1.334 2.24261 2.24261 0 0 0 .32617 1.251 1.14324 1.14324 0 0 0 1.03418.50049 1.076 1.076 0 0 0 1.06646-.59477z" fill="#fff"/><path d="m58.7002 25.38037a1.21231 1.21231 0 0 1 1.06835-.4043c.04883 0 .10059.00147.15333.0044s.1123.00732.18066.01318v.72071c-.083-.00586-.14356-.00928-.18066-.01075s-.07129-.00244-.1045-.00244q-.36327 0-.43554.187a3.68985 3.68985 0 0 0 -.07032.95118h.791v.624h-.791v4.06055h-.7832v-4.06052h-.65432v-.624h.6543v-.73829a1.40985 1.40985 0 0 1 .1719-.72072z" fill="#fff"/><path d="m63.80273 30.04736a1.13328 1.13328 0 0 0 .20118.60645 1.28273 1.28273 0 0 0 1.05859.38232 1.589 1.589 0 0 0 .78906-.19092.63359.63359 0 0 0 .3418-.5913.505.505 0 0 0 -.27344-.46143 3.24416 3.24416 0 0 0 -.6875-.22412l-.63867-.1582a3.14556 3.14556 0 0 1 -.90137-.334.99508.99508 0 0 1 -.51855-.88769 1.34809 1.34809 0 0 1 .4873-1.08106 1.96348 1.96348 0 0 1 1.31153-.41308 1.83231 1.83231 0 0 1 1.55468.624 1.34077 1.34077 0 0 1 .28907.85254h-.7461a.90073.90073 0 0 0 -.19433-.48535 1.25505 1.25505 0 0 0 -.9668-.31006 1.18383 1.18383 0 0 0 -.69531.1709.53032.53032 0 0 0 -.23535.45068.55249.55249 0 0 0 .30957.49072 1.90832 1.90832 0 0 0 .52832.19287l.5332.12745a4.17182 4.17182 0 0 1 1.16406.3999 1.05854 1.05854 0 0 1 .46094.95361 1.44322 1.44322 0 0 1 -.48242 1.08545 2.07017 2.07017 0 0 1 -1.47071.457 1.98731 1.98731 0 0 1 -1.50586-.47705 1.78926 1.78926 0 0 1 -.47363-1.17969z" fill="#fff"/><path d="m67.99023 25.50342h.79977v1.314h.751v.646h-.751v3.07178a.33239.33239 0 0 0 .167.32959.70988.70988 0 0 0 .30762.04834q.05712 0 .123-.00293c.04394-.002.09472-.00684.15332-.01465v.62842a1.75186 1.75186 0 0 1 -.28321.05712 2.68424 2.68424 0 0 1 -.31836.01758.85965.85965 0 0 1 -.75195-.28369 1.26492 1.26492 0 0 1 -.19727-.73584v-3.11576h-.63671v-.646h.63671z" fill="#fff"/><path d="m70.35352 26.81738h.75195v.813a1.79061 1.79061 0 0 1 .45312-.57812 1.17264 1.17264 0 0 1 .83008-.34034c.01465 0 .03906.00147.07422.0044s.0957.00879.18066.01758v.835a1.16946 1.16946 0 0 0 -.12988-.01758c-.03906-.00293-.083-.00439-.1289-.00439a1.12981 1.12981 0 0 0 -.919.38427 1.3442 1.3442 0 0 0 -.32129.88574v2.707h-.791z" fill="#fff"/><path d="m76.2373 26.94678a1.78767 1.78767 0 0 1 .71192.60888 2.11252 2.11252 0 0 1 .31445.83057 5.43377 5.43377 0 0 1 .07031 1.03711h-3.42382a2.036 2.036 0 0 0 .33593 1.15234 1.11791 1.11791 0 0 0 .97168.43409 1.2492 1.2492 0 0 0 .98145-.41065 1.40556 1.40556 0 0 0 .291-.55176h.77735a1.64819 1.64819 0 0 1 -.2041.57813 2.0863 2.0863 0 0 1 -.3877.52051 1.82385 1.82385 0 0 1 -.88476.47461 2.67814 2.67814 0 0 1 -.64161.07031 1.96219 1.96219 0 0 1 -1.48046-.63965 2.49749 2.49749 0 0 1 -.60645-1.79053 2.71278 2.71278 0 0 1 .61133-1.84131 2.01113 2.01113 0 0 1 1.59863-.70752 2.13006 2.13006 0 0 1 .96485.23487zm.28321 1.84814a2.06674 2.06674 0 0 0 -.22266-.82178 1.136 1.136 0 0 0 -1.07617-.57128 1.18833 1.18833 0 0 0 -.90625.39355 1.492 1.492 0 0 0 -.3877.99951z" fill="#fff"/><path d="m78.335 26.81738h.752v.668a2.09714 2.09714 0 0 1 .707-.59326 1.88454 1.88454 0 0 1 .83007-.18018 1.36947 1.36947 0 0 1 1.35352.69873 2.48111 2.48111 0 0 1 .19336 1.09424v3.01905h-.80371v-2.96634a1.60572 1.60572 0 0 0 -.12793-.69434.77122.77122 0 0 0 -.76367-.43945 1.55591 1.55591 0 0 0 -.46192.05713 1.18835 1.18835 0 0 0 -.57129.38672 1.15873 1.15873 0 0 0 -.25683.48144 3.20362 3.20362 0 0 0 -.05957.70947v2.46534h-.791z" fill="#fff"/><path d="m85.95605 27.00635a2.1691 2.1691 0 0 1 .45606.44824v-.59326h.72851v4.28027a3.1576 3.1576 0 0 1 -.26269 1.415 1.88425 1.88425 0 0 1 -1.85254.958 2.27128 2.27128 0 0 1 -1.27441-.34033 1.33032 1.33032 0 0 1 -.57813-1.06592h.80371a.9012.9012 0 0 0 .22754.48779 1.43342 1.43342 0 0 0 2.02344-.37793 3.61593 3.61593 0 0 0 .15332-1.34912 1.5471 1.5471 0 0 1 -.56934.53613 2.03511 2.03511 0 0 1 -2.21289-.3667 2.39329 2.39329 0 0 1 -.57129-1.79541 2.72568 2.72568 0 0 1 .57618-1.8457 1.77671 1.77671 0 0 1 1.38964-.66357 1.70251 1.70251 0 0 1 .96289.27251zm.09668.84814a1.14393 1.14393 0 0 0 -.91308-.42187 1.12866 1.12866 0 0 0 -1.13672.78222 3.06831 3.06831 0 0 0 -.16211 1.09424 1.95387 1.95387 0 0 0 .32129 1.21092 1.03579 1.03579 0 0 0 .86328.415 1.211 1.211 0 0 0 1.19336-.769 2.4804 2.4804 0 0 0 .19336-1.01514 1.96781 1.96781 0 0 0 -.35938-1.29637z" fill="#fff"/><path d="m88.50391 25.50342h.7998v1.314h.751v.646h-.751v3.07178a.33241.33241 0 0 0 .167.32959.70994.70994 0 0 0 .30762.04834q.05714 0 .12305-.00293c.04394-.002.09472-.00684.15332-.01465v.62842a1.75186 1.75186 0 0 1 -.28321.05712 2.68424 2.68424 0 0 1 -.31836.01758.85965.85965 0 0 1 -.75195-.28369 1.26492 1.26492 0 0 1 -.19726-.73584v-3.11576h-.63672v-.646h.63672z" fill="#fff"/><path d="m90.8457 25.04639h.791v2.4082a2.26381 2.26381 0 0 1 .50586-.501 1.701 1.701 0 0 1 .95312-.25049 1.41035 1.41035 0 0 1 1.38868.71631 2.44347 2.44347 0 0 1 .19726 1.08545v3.01905h-.8125v-2.96629a1.659 1.659 0 0 0 -.13184-.76026.84236.84236 0 0 0 -.80859-.38672 1.344 1.344 0 0 0 -.8916.33838 1.62341 1.62341 0 0 0 -.40039 1.27881v2.4961h-.791z" fill="#fff"/><g fill="#1d1d1b"><path d="m30.39941 85.9541v-.522h2.77149v3.34814h-.52149v-1.1069a3.14889 3.14889 0 0 1 -.3916.52637 2.168 2.168 0 0 1 -.50879.40527 2.477 2.477 0 0 1 -.666.25635 3.702 3.702 0 0 1 -.85547.08984 2.93987 2.93987 0 0 1 -1.13379-.21582 2.4238 2.4238 0 0 1 -.89941-.64355 3.00655 3.00655 0 0 1 -.58985-1.07569 4.88951 4.88951 0 0 1 -.21191-1.51172 4.71364 4.71364 0 0 1 .18066-1.32763 2.97767 2.97767 0 0 1 .55375-1.07076 2.60959 2.60959 0 0 1 .93555-.71582 3.13014 3.13014 0 0 1 1.32715-.26075 3.5085 3.5085 0 0 1 .959.126 2.54042 2.54042 0 0 1 .80078.38233 2.29707 2.29707 0 0 1 .59864.63916 2.67008 2.67008 0 0 1 .35058.90429h-.62988a1.89792 1.89792 0 0 0 -.27441-.648 1.86745 1.86745 0 0 0 -.46289-.48144 2.10772 2.10772 0 0 0 -.60352-.29688 2.32616 2.32616 0 0 0 -.69336-.10351 2.47168 2.47168 0 0 0 -1.09766.22509 2.01807 2.01807 0 0 0 -.75586.63428 2.76253 2.76253 0 0 0 -.43652.981 5.308 5.308 0 0 0 -.13965 1.25537 3.32423 3.32423 0 0 0 .15723 1.02637 2.63362 2.63362 0 0 0 .459.855 2.166 2.166 0 0 0 1.7334.80078 2.6147 2.6147 0 0 0 .53906-.05859 2.09708 2.09708 0 0 0 .54-.19336 2.06993 2.06993 0 0 0 .48633-.35108 1.96636 1.96636 0 0 0 .38672-.53076 2.30444 2.30444 0 0 0 .21191-.63916 4.69054 4.69054 0 0 0 .06739-.70215z"/><path d="m36.41992 88.90625a2.42819 2.42819 0 0 1 -.8418-.16211 1.88733 1.88733 0 0 1 -.68359-.459 2.20133 2.20133 0 0 1 -.46387-.76465 3.08023 3.08023 0 0 1 -.17089-1.07129 3.29561 3.29561 0 0 1 .13476-.9585 2.28086 2.28086 0 0 1 .40527-.77832 1.92629 1.92629 0 0 1 .67481-.52685 2.17279 2.17279 0 0 1 .94531-.19336 2.19474 2.19474 0 0 1 .9541.19336 1.94939 1.94939 0 0 1 .67481.52246 2.15667 2.15667 0 0 1 .40039.77832 3.44512 3.44512 0 0 1 .13086.96289 3.102 3.102 0 0 1 -.15332 1.00781 2.25672 2.25672 0 0 1 -.43653.77442 1.92391 1.92391 0 0 1 -.68359.49951 2.19246 2.19246 0 0 1 -.88672.17531zm1.584-2.457a3.207 3.207 0 0 0 -.08985-.77393 1.84933 1.84933 0 0 0 -.27929-.62549 1.3467 1.3467 0 0 0 -.48536-.41845 1.58046 1.58046 0 0 0 -.72949-.15283 1.47974 1.47974 0 0 0 -.72461.166 1.41865 1.41865 0 0 0 -.49023.44141 1.95377 1.95377 0 0 0 -.2793.62988 2.99614 2.99614 0 0 0 -.08984.7334 2.89244 2.89244 0 0 0 .10351.79639 1.874 1.874 0 0 0 .30176.62548 1.35037 1.35037 0 0 0 .49512.40528 1.54331 1.54331 0 0 0 .68359.144 1.47976 1.47976 0 0 0 .72461-.1665 1.40245 1.40245 0 0 0 .49024-.4458 2.0071 2.0071 0 0 0 .27929-.62989 2.94331 2.94331 0 0 0 .08984-.72898z"/><path d="m41.42383 88.90625a2.42814 2.42814 0 0 1 -.8418-.16211 1.88733 1.88733 0 0 1 -.68359-.459 2.20118 2.20118 0 0 1 -.46387-.76465 3.08022 3.08022 0 0 1 -.1709-1.07129 3.29527 3.29527 0 0 1 .13477-.9585 2.28068 2.28068 0 0 1 .40527-.77832 1.9262 1.9262 0 0 1 .67481-.52685 2.17275 2.17275 0 0 1 .94531-.19336 2.19477 2.19477 0 0 1 .9541.19336 1.94926 1.94926 0 0 1 .6748.52246 2.15651 2.15651 0 0 1 .40039.77832 3.44475 3.44475 0 0 1 .13086.96289 3.102 3.102 0 0 1 -.15332 1.00781 2.25686 2.25686 0 0 1 -.43652.77442 1.924 1.924 0 0 1 -.68359.49951 2.19246 2.19246 0 0 1 -.88672.17531zm1.584-2.457a3.207 3.207 0 0 0 -.08984-.77393 1.84934 1.84934 0 0 0 -.2793-.62549 1.34658 1.34658 0 0 0 -.48535-.41845 1.58049 1.58049 0 0 0 -.72949-.15283 1.47971 1.47971 0 0 0 -.72461.166 1.41877 1.41877 0 0 0 -.49024.44141 1.95376 1.95376 0 0 0 -.27929.62988 2.99615 2.99615 0 0 0 -.08985.7334 2.892 2.892 0 0 0 .10352.79639 1.87376 1.87376 0 0 0 .30176.62548 1.35025 1.35025 0 0 0 .49511.40528 1.54338 1.54338 0 0 0 .6836.144 1.47979 1.47979 0 0 0 .72461-.1665 1.40234 1.40234 0 0 0 .49023-.4458 2.00711 2.00711 0 0 0 .2793-.62989 2.94331 2.94331 0 0 0 .08982-.72898z"/><path d="m48.17383 82.30029h.54v6.48h-.54v-.81884h-.01758a1.46318 1.46318 0 0 1 -.30176.40918 1.80492 1.80492 0 0 1 -.40527.29248 2.18845 2.18845 0 0 1 -.4541.18017 1.766 1.766 0 0 1 -.459.063 2.22173 2.22173 0 0 1 -.96289-.189 1.78775 1.78775 0 0 1 -.65332-.51758 2.11257 2.11257 0 0 1 -.373-.77832 3.81155 3.81155 0 0 1 -.11719-.96289 3.454 3.454 0 0 1 .126-.936 2.32153 2.32153 0 0 1 .38282-.7876 1.89076 1.89076 0 0 1 .64746-.54 1.98167 1.98167 0 0 1 .92285-.20263 2.14773 2.14773 0 0 1 .94922.2207 1.6717 1.6717 0 0 1 .71582.65234zm0 4.13086a2.56545 2.56545 0 0 0 -.1084-.75146 1.92151 1.92151 0 0 0 -.31055-.6211 1.52919 1.52919 0 0 0 -.49414-.42285 1.376 1.376 0 0 0 -.66211-.15722 1.50071 1.50071 0 0 0 -.72851.166 1.439 1.439 0 0 0 -.50391.45459 1.94567 1.94567 0 0 0 -.28809.67041 3.03621 3.03621 0 0 0 -.07226.82373 2.28967 2.28967 0 0 0 .12109.77832 1.65505 1.65505 0 0 0 .33789.57178 1.4318 1.4318 0 0 0 .50391.35547 1.60594 1.60594 0 0 0 .62988.12158 1.44933 1.44933 0 0 0 .67481-.15332 1.41026 1.41026 0 0 0 .49511-.41846 1.92507 1.92507 0 0 0 .30176-.62988 2.86026 2.86026 0 0 0 .10352-.78759z"/><path d="m52.62891 88.78027v-6.48h2.36718a3.17219 3.17219 0 0 1 1.03907.144 1.61 1.61 0 0 1 .64843.396 1.40685 1.40685 0 0 1 .333.58057 2.49412 2.49412 0 0 1 .09375.68848 1.65434 1.65434 0 0 1 -.21973.89111 1.62838 1.62838 0 0 1 -.57226.55322 2.45315 2.45315 0 0 1 -.7959.28369 5.02348 5.02348 0 0 1 -.89551.08106h-1.38573v2.86181zm2.01562-3.38379a4.98967 4.98967 0 0 0 .77442-.05419 1.54586 1.54586 0 0 0 .58007-.20264.999.999 0 0 0 .36914-.40479 1.48211 1.48211 0 0 0 .13086-.67041 1.10922 1.10922 0 0 0 -.40039-.92724 2.06657 2.06657 0 0 0 -1.27343-.31494h-1.584v2.57421z"/><path d="m58.64062 88.78027h-.54v-4.66211h.54v.873h.01856a1.55639 1.55639 0 0 1 .58008-.77832 1.76849 1.76849 0 0 1 .94043-.2207v.585a1.57807 1.57807 0 0 0 -.75586.144 1.2454 1.2454 0 0 0 -.47266.41406 1.6364 1.6364 0 0 0 -.24316.6167 3.97744 3.97744 0 0 0 -.06739.74219z"/><path d="m61.4043 86.5752a2.51808 2.51808 0 0 0 .09863.71582 1.72287 1.72287 0 0 0 .292.585 1.41676 1.41676 0 0 0 .49121.396 1.51119 1.51119 0 0 0 .6836.14844 1.48746 1.48746 0 0 0 .90918-.2793 1.34142 1.34142 0 0 0 .5039-.792h.60352a2.90676 2.90676 0 0 1 -.26172.6167 1.90843 1.90843 0 0 1 -.4043.49512 1.74633 1.74633 0 0 1 -.57617.32812 2.3351 2.3351 0 0 1 -.77441.11719 2.25826 2.25826 0 0 1 -.96289-.189 1.816 1.816 0 0 1 -.666-.51758 2.1844 2.1844 0 0 1 -.38672-.77393 3.51 3.51 0 0 1 -.126-.95849 3.03627 3.03627 0 0 1 .14844-.9629 2.432 2.432 0 0 1 .42285-.78759 1.96162 1.96162 0 0 1 .6709-.53125 2.02172 2.02172 0 0 1 .89942-.19336 1.858 1.858 0 0 1 1.51172.66162 2.90557 2.90557 0 0 1 .54 1.92139zm3.042-.44971a2.15688 2.15688 0 0 0 -.09473-.64356 1.5096 1.5096 0 0 0 -.27929-.522 1.32451 1.32451 0 0 0 -.46387-.35107 1.48932 1.48932 0 0 0 -.63867-.13037 1.42484 1.42484 0 0 0 -.63477.13476 1.45979 1.45979 0 0 0 -.46777.35986 1.82433 1.82433 0 0 0 -.31055.522 2.39566 2.39566 0 0 0 -.15234.63037z"/><path d="m68.06348 86.16113v.55811h-2.27637v-.55811z"/><path d="m69.18848 88.78027v-6.48h.6123v3.35694l3.32129-3.35694h.69238l-2.55566 2.583 3.00586 3.897h-.74707l-2.7002-3.519-1.0166 1.01709v2.502z"/><path d="m77.65723 88.78027v-6.48h4.31152v.522h-3.69922v2.33984h3.33887v.522h-3.33887v2.57419h3.78906v.522z"/><path d="m86.67578 82.30029h.54v6.48h-.54v-.81884h-.01758a1.46315 1.46315 0 0 1 -.30175.40918 1.8052 1.8052 0 0 1 -.40528.29248 2.18845 2.18845 0 0 1 -.4541.18017 1.766 1.766 0 0 1 -.459.063 2.22173 2.22173 0 0 1 -.96289-.189 1.78767 1.78767 0 0 1 -.65332-.51758 2.11258 2.11258 0 0 1 -.37305-.77832 3.81155 3.81155 0 0 1 -.11719-.96289 3.45358 3.45358 0 0 1 .126-.936 2.32133 2.32133 0 0 1 .38281-.7876 1.89076 1.89076 0 0 1 .64746-.54 1.98167 1.98167 0 0 1 .92285-.20263 2.1477 2.1477 0 0 1 .94922.2207 1.67165 1.67165 0 0 1 .71582.65234zm0 4.13086a2.56545 2.56545 0 0 0 -.1084-.75146 1.92149 1.92149 0 0 0 -.31054-.6211 1.52939 1.52939 0 0 0 -.49414-.42285 1.376 1.376 0 0 0 -.66211-.15722 1.50075 1.50075 0 0 0 -.72852.166 1.439 1.439 0 0 0 -.50391.45459 1.94547 1.94547 0 0 0 -.28808.67041 3.0358 3.0358 0 0 0 -.07227.82373 2.28941 2.28941 0 0 0 .1211.77832 1.6549 1.6549 0 0 0 .33789.57178 1.43167 1.43167 0 0 0 .5039.35547 1.606 1.606 0 0 0 .62989.12158 1.44932 1.44932 0 0 0 .6748-.15332 1.41039 1.41039 0 0 0 .49512-.41846 1.92547 1.92547 0 0 0 .30176-.62988 2.86064 2.86064 0 0 0 .10351-.78759z"/><path d="m91.7334 84.11816h.54v4.66211h-.54v-.64795c-.07129.084-.15235.1709-.24219.26075a1.87857 1.87857 0 0 1 -.31055.24755 1.7685 1.7685 0 0 1 -.41015.189 1.73075 1.73075 0 0 1 -.54.07666 2.04919 2.04919 0 0 1 -.78223-.13037 1.27275 1.27275 0 0 1 -.50879-.36475 1.43924 1.43924 0 0 1 -.27929-.54443 2.56656 2.56656 0 0 1 -.085-.6792v-3.06937h.54v3.06006a1.36369 1.36369 0 0 0 .27832.92237 1.1619 1.1619 0 0 0 .918.31982 1.33443 1.33443 0 0 0 .59864-.13086 1.24915 1.24915 0 0 0 .44531-.36426 1.73992 1.73992 0 0 0 .2793-.5581 2.4087 2.4087 0 0 0 .09863-.71094z"/><path d="m96.88184 85.58545a1.5686 1.5686 0 0 0 -.49512-.81445 1.34386 1.34386 0 0 0 -.89063-.29248 1.40239 1.40239 0 0 0 -.71191.17089 1.43718 1.43718 0 0 0 -.48535.45459 2.03852 2.03852 0 0 0 -.2793.63868 2.92824 2.92824 0 0 0 -.08984.71582 2.99681 2.99681 0 0 0 .08593.71972 1.91381 1.91381 0 0 0 .27442.62989 1.42159 1.42159 0 0 0 .48535.4458 1.45635 1.45635 0 0 0 .7207.1665 1.37973 1.37973 0 0 0 .9668-.333 1.55012 1.55012 0 0 0 .46387-.918h.57617a2.76389 2.76389 0 0 1 -.22949.70655 1.87123 1.87123 0 0 1 -.40528.54882 1.73966 1.73966 0 0 1 -.58984.35547 2.52512 2.52512 0 0 1 -1.74609-.063 1.82419 1.82419 0 0 1 -.666-.51758 2.181 2.181 0 0 1 -.38672-.77832 3.56048 3.56048 0 0 1 -.126-.96289 3.10551 3.10551 0 0 1 .13964-.93164 2.43186 2.43186 0 0 1 .40918-.7876 1.98034 1.98034 0 0 1 .6709-.54444 2.01273 2.01273 0 0 1 .92285-.20263 2.07727 2.07727 0 0 1 1.3086.3872 1.79647 1.79647 0 0 1 .626 1.20606z"/><path d="m100.72461 86.0625c.10156-.01221.22363-.03027.36426-.0542a1.3777 1.3777 0 0 0 .34668-.09912.28839.28839 0 0 0 .167-.21143 1.36269 1.36269 0 0 0 .03125-.27441.92214.92214 0 0 0 -.26563-.67969 1.23922 1.23922 0 0 0 -.8955-.26513 2.45639 2.45639 0 0 0 -.5127.04931 1.12215 1.12215 0 0 0 -.41016.1709.94275.94275 0 0 0 -.28808.32422 1.37626 1.37626 0 0 0 -.14844.5083h-.54883a1.67214 1.67214 0 0 1 .18946-.70654 1.42821 1.42821 0 0 1 .418-.477 1.748 1.748 0 0 1 .59374-.27 2.92806 2.92806 0 0 1 .71583-.08545 2.77188 2.77188 0 0 1 .6621.07666 1.5216 1.5216 0 0 1 .53907.24316 1.12388 1.12388 0 0 1 .36035.44531 1.60982 1.60982 0 0 1 .13086.68409v2.53808c0 .21.03711.34326.1123.40039s.22657.04346.4541-.04052v.42285c-.042.0122-.10351.02978-.18457.0542a.83715.83715 0 0 1 -.23828.03564 1.07622 1.07622 0 0 1 -.24316-.02685.41714.41714 0 0 1 -.21582-.08545.51788.51788 0 0 1 -.12988-.16211.68389.68389 0 0 1 -.06836-.207 1.53956 1.53956 0 0 1 -.01758-.23829 2.35693 2.35693 0 0 1 -.7832.57618 2.30235 2.30235 0 0 1 -.95411.19775 2.12034 2.12034 0 0 1 -.58886-.08105 1.42023 1.42023 0 0 1 -.5-.252 1.25322 1.25322 0 0 1 -.3418-.41845 1.28457 1.28457 0 0 1 -.126-.58936q0-1.188 1.62891-1.4043zm.90918.26953a2.65593 2.65593 0 0 1 -.69336.18945q-.3501.04469-.70215.07178a1.97944 1.97944 0 0 0 -.9668.27881.79929.79929 0 0 0 -.34668.71143.7736.7736 0 0 0 .085.373.78371.78371 0 0 0 .22558.26123.94247.94247 0 0 0 .32324.15284 1.4316 1.4316 0 0 0 .374.0498 2.465 2.465 0 0 0 .62988-.08105 1.71458 1.71458 0 0 0 .54492-.24756 1.26531 1.26531 0 0 0 .38184-.42285 1.216 1.216 0 0 0 .14453-.60791z"/><path d="m105.22461 88.79834q-.09962.01758-.26074.063a1.35851 1.35851 0 0 1 -.36035.04492.85459.85459 0 0 1 -.61622-.20264.98231.98231 0 0 1 -.21191-.72412v-3.41114h-.65723v-.4502h.65723v-1.29589h.54v1.29589h.873v.4502h-.873v3.19482q0 .17139.00879.29688a.48842.48842 0 0 0 .05469.207.25482.25482 0 0 0 .13867.11719.77648.77648 0 0 0 .26562.03613 1.37217 1.37217 0 0 0 .22071-.01807c.07519-.0122.14843-.02685.2207-.04492z"/><path d="m106.14258 83.10107v-.80078h.59375v.80078zm.02637 5.6792v-4.66211h.54v4.66211z"/><path d="m109.94043 88.90625a2.42814 2.42814 0 0 1 -.8418-.16211 1.88733 1.88733 0 0 1 -.68359-.459 2.20133 2.20133 0 0 1 -.46387-.76465 3.08022 3.08022 0 0 1 -.1709-1.07129 3.29561 3.29561 0 0 1 .13477-.9585 2.28068 2.28068 0 0 1 .40527-.77832 1.92629 1.92629 0 0 1 .67481-.52685 2.17275 2.17275 0 0 1 .94531-.19336 2.19477 2.19477 0 0 1 .9541.19336 1.94939 1.94939 0 0 1 .67481.52246 2.15683 2.15683 0 0 1 .40039.77832 3.44512 3.44512 0 0 1 .13086.96289 3.10227 3.10227 0 0 1 -.15332 1.00781 2.25688 2.25688 0 0 1 -.43653.77442 1.92391 1.92391 0 0 1 -.68359.49951 2.19246 2.19246 0 0 1 -.88672.17531zm1.584-2.457a3.207 3.207 0 0 0 -.08984-.77393 1.84934 1.84934 0 0 0 -.2793-.62549 1.34658 1.34658 0 0 0 -.48535-.41845 1.58046 1.58046 0 0 0 -.72949-.15283 1.47971 1.47971 0 0 0 -.72461.166 1.41865 1.41865 0 0 0 -.49023.44141 1.95377 1.95377 0 0 0 -.2793.62988 2.99614 2.99614 0 0 0 -.08984.7334 2.89206 2.89206 0 0 0 .10351.79639 1.87376 1.87376 0 0 0 .30176.62548 1.3502 1.3502 0 0 0 .49512.40528 1.54331 1.54331 0 0 0 .68359.144 1.47976 1.47976 0 0 0 .72461-.1665 1.40234 1.40234 0 0 0 .49023-.4458 2.00711 2.00711 0 0 0 .2793-.62989 2.94331 2.94331 0 0 0 .08982-.72898z"/><path d="m113.63086 88.78027h-.54v-4.66211h.54v.64795a3.41793 3.41793 0 0 1 .66992-.55761 1.54445 1.54445 0 0 1 .833-.21631 2.13536 2.13536 0 0 1 .80078.14843 1.36666 1.36666 0 0 1 .62109.51758 1.1754 1.1754 0 0 1 .20215.51758 4.59831 4.59831 0 0 1 .03125.55371v3.05078h-.54v-3.042a1.39075 1.39075 0 0 0 -.27832-.94482 1.18648 1.18648 0 0 0 -.92773-.31494 1.32346 1.32346 0 0 0 -.459.07617 1.46114 1.46114 0 0 0 -.373.20263 1.365 1.365 0 0 0 -.46387.62989 1.71356 1.71356 0 0 0 -.09863.43213q-.01758.20727-.01758.4497z"/><path d="m27.46289 51.79834a1.89906 1.89906 0 0 0 .19336.7334 1.44231 1.44231 0 0 0 .4043.49072 1.60492 1.60492 0 0 0 .57226.27442 2.69576 2.69576 0 0 0 .69239.08544 2.31549 2.31549 0 0 0 .74707-.10791 1.40659 1.40659 0 0 0 .51269-.29248 1.13362 1.13362 0 0 0 .293-.42773 1.39125 1.39125 0 0 0 .09473-.5127 1.01927 1.01927 0 0 0 -.1709-.6123 1.32235 1.32235 0 0 0 -.44629-.38232 2.71073 2.71073 0 0 0 -.62988-.23829q-.35449-.09008-.72852-.17578-.37353-.085-.72949-.20263a2.29239 2.29239 0 0 1 -.62988-.315 1.52629 1.52629 0 0 1 -.44532-.5083 1.61628 1.61628 0 0 1 -.1709-.78759 1.57356 1.57356 0 0 1 .13965-.64795 1.60539 1.60539 0 0 1 .41407-.55811 2.01737 2.01737 0 0 1 .68847-.38672 2.891 2.891 0 0 1 .9541-.144 2.73119 2.73119 0 0 1 .958.15283 1.90161 1.90161 0 0 1 .67969.41846 1.72916 1.72916 0 0 1 .40527.6167 2.06514 2.06514 0 0 1 .13477.74707h-.585a1.45669 1.45669 0 0 0 -.13086-.63916 1.19058 1.19058 0 0 0 -.35547-.44092 1.51528 1.51528 0 0 0 -.5127-.252 2.18057 2.18057 0 0 0 -.59375-.08106 2.09151 2.09151 0 0 0 -.78808.13037 1.38365 1.38365 0 0 0 -.50781.33741 1.14131 1.14131 0 0 0 -.26172.459 1.10273 1.10273 0 0 0 -.02637.50391.87471.87471 0 0 0 .25195.50439 1.59372 1.59372 0 0 0 .48535.31055 3.6828 3.6828 0 0 0 .63477.19775q.34716.07691.707.16211.35889.0857.69727.20264a2.15562 2.15562 0 0 1 .59863.31494 1.44348 1.44348 0 0 1 .418.5083 1.70741 1.70741 0 0 1 .15722.77832 1.68057 1.68057 0 0 1 -.62011 1.395 2.73649 2.73649 0 0 1 -1.7461.49512 3.23061 3.23061 0 0 1 -.93652-.13037 2.068 2.068 0 0 1 -.74707-.396 1.81774 1.81774 0 0 1 -.49023-.65723 2.23483 2.23483 0 0 1 -.17579-.92236z"/><path d="m34.2666 53.75146q-.0996.01758-.26074.063a1.35808 1.35808 0 0 1 -.36035.04493.85459.85459 0 0 1 -.61621-.20264.98234.98234 0 0 1 -.21192-.72412v-3.41115h-.65722v-.45019h.65722v-1.2959h.54v1.2959h.873v.45019h-.873v3.19483q0 .17139.00879.29687a.48838.48838 0 0 0 .05469.207.25482.25482 0 0 0 .13867.11719.77627.77627 0 0 0 .26563.03614 1.37214 1.37214 0 0 0 .2207-.01807c.07519-.01221.14844-.02686.2207-.04492z"/><path d="m35.69727 53.7334h-.54v-4.66211h.54v.873h.01855a1.55639 1.55639 0 0 1 .58008-.77832 1.76839 1.76839 0 0 1 .94043-.22071v.585a1.57807 1.57807 0 0 0 -.75586.14405 1.24532 1.24532 0 0 0 -.47266.41406 1.63634 1.63634 0 0 0 -.24316.6167 3.97729 3.97729 0 0 0 -.06738.74219z"/><path d="m39.98145 53.85938a2.42814 2.42814 0 0 1 -.8418-.16211 1.88761 1.88761 0 0 1 -.6836-.459 2.20112 2.20112 0 0 1 -.46386-.76465 3.08018 3.08018 0 0 1 -.1709-1.07129 3.29554 3.29554 0 0 1 .13476-.95849 2.28078 2.28078 0 0 1 .40528-.77832 1.9264 1.9264 0 0 1 .6748-.52686 2.17294 2.17294 0 0 1 .94532-.19336 2.19491 2.19491 0 0 1 .9541.19336 1.94947 1.94947 0 0 1 .6748.52246 2.1566 2.1566 0 0 1 .40039.77832 3.44486 3.44486 0 0 1 .13086.96289 3.1021 3.1021 0 0 1 -.15332 1.00782 2.25681 2.25681 0 0 1 -.43652.77441 1.924 1.924 0 0 1 -.6836.49951 2.19242 2.19242 0 0 1 -.88671.17531zm1.584-2.457a3.20685 3.20685 0 0 0 -.08984-.77392 1.84926 1.84926 0 0 0 -.2793-.62549 1.34668 1.34668 0 0 0 -.48535-.41846 1.58049 1.58049 0 0 0 -.72949-.15283 1.47972 1.47972 0 0 0 -.72461.166 1.41866 1.41866 0 0 0 -.49024.4414 1.95392 1.95392 0 0 0 -.2793.62989 2.996 2.996 0 0 0 -.08984.73339 2.892 2.892 0 0 0 .10352.79639 1.87389 1.87389 0 0 0 .30175.62549 1.35034 1.35034 0 0 0 .49512.40527 1.54335 1.54335 0 0 0 .6836.14405 1.47975 1.47975 0 0 0 .7246-.16651 1.40227 1.40227 0 0 0 .49024-.4458 2.00716 2.00716 0 0 0 .2793-.62988 2.94339 2.94339 0 0 0 .08982-.72903z"/><path d="m43.67188 53.7334h-.54v-4.66211h.54v.648a3.418 3.418 0 0 1 .66992-.55762 1.5445 1.5445 0 0 1 .833-.21631 2.13545 2.13545 0 0 1 .80079.14844 1.36658 1.36658 0 0 1 .62109.51758 1.17564 1.17564 0 0 1 .20215.51758 4.60013 4.60013 0 0 1 .03125.55371v3.05073h-.54v-3.042a1.39076 1.39076 0 0 0 -.27832-.94483 1.1865 1.1865 0 0 0 -.92774-.31494 1.3234 1.3234 0 0 0 -.459.07617 1.46076 1.46076 0 0 0 -.373.20264 1.36507 1.36507 0 0 0 -.46386.62988 1.71369 1.71369 0 0 0 -.09864.43213q-.01758.20727-.01757.44971z"/><path d="m51.73535 49.07129h.54v4.21191a4.10646 4.10646 0 0 1 -.09473.89551 1.93132 1.93132 0 0 1 -.33691.75147 1.69327 1.69327 0 0 1 -.666.51757 3.10421 3.10421 0 0 1 -1.97168.063 1.901 1.901 0 0 1 -.60253-.32812 1.42148 1.42148 0 0 1 -.35547-.43653 1.0939 1.0939 0 0 1 -.13086-.4458h.57617a1.07257 1.07257 0 0 0 .19824.42774.98658.98658 0 0 0 .31934.26074 1.38165 1.38165 0 0 0 .40918.13086 3.03679 3.03679 0 0 0 .46777.03564 1.78632 1.78632 0 0 0 .88281-.189 1.29371 1.29371 0 0 0 .50391-.49512 1.89685 1.89685 0 0 0 .21973-.69287 5.29574 5.29574 0 0 0 .041-.792 1.66862 1.66862 0 0 1 -.71582.65234 2.14771 2.14771 0 0 1 -.94922.22071 1.98167 1.98167 0 0 1 -.92285-.20264 1.89064 1.89064 0 0 1 -.64746-.54 2.31886 2.31886 0 0 1 -.38281-.78711 3.4587 3.4587 0 0 1 -.126-.936 3.81253 3.81253 0 0 1 .11719-.96337 2.11617 2.11617 0 0 1 .373-.77832 1.79265 1.79265 0 0 1 .65332-.51758 2.22158 2.22158 0 0 1 .96289-.189 1.766 1.766 0 0 1 .459.063 2.18793 2.18793 0 0 1 .4541.18018 1.75048 1.75048 0 0 1 .40528.29687 1.5914 1.5914 0 0 1 .30175.40527h.01758zm0 2.34912a2.86322 2.86322 0 0 0 -.10351-.7876 1.93517 1.93517 0 0 0 -.30176-.62988 1.42066 1.42066 0 0 0 -.49512-.41846 1.4491 1.4491 0 0 0 -.6748-.15283 1.60583 1.60583 0 0 0 -.62989.12109 1.438 1.438 0 0 0 -.5039.35547 1.6549 1.6549 0 0 0 -.33789.57178 2.29144 2.29144 0 0 0 -.1211.77832 3.034 3.034 0 0 0 .07227.82373 1.94141 1.94141 0 0 0 .28808.67041 1.43885 1.43885 0 0 0 .50391.45459 1.5008 1.5008 0 0 0 .72852.16651 1.37627 1.37627 0 0 0 .66211-.15772 1.52927 1.52927 0 0 0 .49414-.42285 1.91167 1.91167 0 0 0 .31054-.62109 2.56078 2.56078 0 0 0 .1084-.75147z"/><path d="m56.2168 53.7334v-6.48h2.34082a3.52349 3.52349 0 0 1 .97168.11719 1.77523 1.77523 0 0 1 .66113.333 1.26973 1.26973 0 0 1 .374.51709 1.81327 1.81327 0 0 1 .11719.66162 1.71062 1.71062 0 0 1 -.09082.58936 1.29918 1.29918 0 0 1 -.2334.41406 1.08264 1.08264 0 0 1 -.3291.26123 1.37035 1.37035 0 0 1 -.38184.13037v.01807a1.46216 1.46216 0 0 1 1.00293.53076 1.72963 1.72963 0 0 1 .32911 1.08008 2.07239 2.07239 0 0 1 -.15821.855 1.45109 1.45109 0 0 1 -.43554.56738 1.76382 1.76382 0 0 1 -.6709.31006 3.62192 3.62192 0 0 1 -.85059.09473zm.6123-3.61817h1.5479a3.36036 3.36036 0 0 0 .80176-.081 1.3524 1.3524 0 0 0 .52149-.23828.8764.8764 0 0 0 .2832-.38721 1.48563 1.48563 0 0 0 .08594-.52637 1.22642 1.22642 0 0 0 -.09864-.51757.79136.79136 0 0 0 -.31543-.3418 1.60949 1.60949 0 0 0 -.5625-.189 5.2175 5.2175 0 0 0 -.85058-.05859h-1.41314zm0 3.0962h1.55762a7.48215 7.48215 0 0 0 .877-.04493 1.61847 1.61847 0 0 0 .61621-.18457.8806.8806 0 0 0 .36524-.396 1.60152 1.60152 0 0 0 .12109-.67969 1.36272 1.36272 0 0 0 -.13476-.65234.93544.93544 0 0 0 -.38672-.38233 1.7974 1.7974 0 0 0 -.60352-.18457 5.61141 5.61141 0 0 0 -.7832-.0498h-1.62896z"/><path d="m65.29785 49.07129h.54v4.66211h-.54v-.648c-.07129.084-.15234.1709-.24219.26074a1.87947 1.87947 0 0 1 -.31054.24756 1.76877 1.76877 0 0 1 -.41016.189 1.73074 1.73074 0 0 1 -.54.07667 2.04889 2.04889 0 0 1 -.78222-.13038 1.27256 1.27256 0 0 1 -.50879-.36474 1.43909 1.43909 0 0 1 -.2793-.54444 2.5665 2.5665 0 0 1 -.085-.6792v-3.06932h.54v3.06006a1.36363 1.36363 0 0 0 .27832.92236 1.16185 1.16185 0 0 0 .918.31983 1.33439 1.33439 0 0 0 .59863-.13086 1.24916 1.24916 0 0 0 .44531-.36426 1.74 1.74 0 0 0 .2793-.55811 2.40864 2.40864 0 0 0 .09863-.71093z"/><path d="m67.458 52.27539a1.36794 1.36794 0 0 0 .45508.85059 1.53864 1.53864 0 0 0 .94043.24756 1.62144 1.62144 0 0 0 .51269-.07227 1.02867 1.02867 0 0 0 .35547-.19336.85.85 0 0 0 .21191-.27441.75336.75336 0 0 0 .07129-.32422.59456.59456 0 0 0 -.2207-.5083 1.66094 1.66094 0 0 0 -.55273-.26123 7.18163 7.18163 0 0 0 -.72071-.16163 3.55361 3.55361 0 0 1 -.71972-.20263 1.453 1.453 0 0 1 -.55372-.38721 1.04737 1.04737 0 0 1 -.21972-.71094 1.21378 1.21378 0 0 1 .42676-.95849 1.78278 1.78278 0 0 1 1.21093-.37354 2.07013 2.07013 0 0 1 1.22852.3374 1.547 1.547 0 0 1 .57129 1.12989h-.54883a1.00969 1.00969 0 0 0 -.40918-.76074 1.52737 1.52737 0 0 0 -.85059-.22022 1.21025 1.21025 0 0 0 -.7832.22022.71457.71457 0 0 0 -.27051.58056.56783.56783 0 0 0 .22071.48145 1.79615 1.79615 0 0 0 .55371.27q.33252.10326.71972.18457a3.51564 3.51564 0 0 1 .71973.22949 1.56768 1.56768 0 0 1 .55371.40039 1.02936 1.02936 0 0 1 .2207.70215 1.1852 1.1852 0 0 1 -.14355.58935 1.26594 1.26594 0 0 1 -.39648.42774 1.84587 1.84587 0 0 1 -.59864.25635 3.16343 3.16343 0 0 1 -.76074.08545 2.05468 2.05468 0 0 1 -.7334-.12159 1.58535 1.58535 0 0 1 -.54394-.3374 1.553 1.553 0 0 1 -.35157-.50391 1.76812 1.76812 0 0 1 -.14355-.62109z"/><path d="m71.69727 48.0542v-.80078h.59373v.80078zm.02636 5.6792v-4.66211h.54v4.66211z"/><path d="m74.18164 53.7334h-.54v-4.66211h.54v.648a3.418 3.418 0 0 1 .66992-.55762 1.54454 1.54454 0 0 1 .833-.21631 2.13536 2.13536 0 0 1 .80078.14844 1.36656 1.36656 0 0 1 .6211.51758 1.1755 1.1755 0 0 1 .20214.51758 4.59807 4.59807 0 0 1 .03125.55371v3.05073h-.54v-3.042a1.39076 1.39076 0 0 0 -.27832-.94483 1.18648 1.18648 0 0 0 -.92773-.31494 1.32336 1.32336 0 0 0 -.459.07617 1.46076 1.46076 0 0 0 -.37305.20264 1.36518 1.36518 0 0 0 -.46387.62988 1.71366 1.71366 0 0 0 -.09863.43213q-.01758.20727-.01758.44971z"/><path d="m78.97852 51.52832a2.51808 2.51808 0 0 0 .09863.71582 1.7226 1.7226 0 0 0 .292.585 1.41679 1.41679 0 0 0 .49121.396 1.51132 1.51132 0 0 0 .6836.14844 1.48748 1.48748 0 0 0 .90917-.2793 1.34145 1.34145 0 0 0 .50391-.792h.60352a2.9072 2.9072 0 0 1 -.26172.6167 1.90859 1.90859 0 0 1 -.4043.49511 1.74635 1.74635 0 0 1 -.57617.32813 2.33536 2.33536 0 0 1 -.77441.11719 2.25819 2.25819 0 0 1 -.9629-.189 1.81606 1.81606 0 0 1 -.666-.51758 2.18427 2.18427 0 0 1 -.38672-.77392 3.51009 3.51009 0 0 1 -.126-.9585 3.03616 3.03616 0 0 1 .14844-.96289 2.43191 2.43191 0 0 1 .42285-.7876 1.96174 1.96174 0 0 1 .6709-.53125 2.02186 2.02186 0 0 1 .89942-.19336 1.858 1.858 0 0 1 1.51171.66162 2.90553 2.90553 0 0 1 .54 1.92139zm3.042-.44971a2.15682 2.15682 0 0 0 -.09473-.64355 1.50961 1.50961 0 0 0 -.2793-.522 1.3244 1.3244 0 0 0 -.46386-.35108 1.48947 1.48947 0 0 0 -.63867-.13037 1.42471 1.42471 0 0 0 -.63477.13477 1.45979 1.45979 0 0 0 -.46777.35986 1.82405 1.82405 0 0 0 -.31055.522 2.39536 2.39536 0 0 0 -.15234.63037z"/><path d="m83.96387 52.27539a1.36794 1.36794 0 0 0 .45508.85059 1.53864 1.53864 0 0 0 .94043.24756 1.62144 1.62144 0 0 0 .51269-.07227 1.02876 1.02876 0 0 0 .35547-.19336.85008.85008 0 0 0 .21191-.27441.75351.75351 0 0 0 .07129-.32422.59456.59456 0 0 0 -.2207-.5083 1.661 1.661 0 0 0 -.55274-.26123 7.18079 7.18079 0 0 0 -.7207-.16163 3.55343 3.55343 0 0 1 -.71972-.20263 1.45294 1.45294 0 0 1 -.55372-.38721 1.04737 1.04737 0 0 1 -.21972-.71094 1.21378 1.21378 0 0 1 .42676-.95849 1.78278 1.78278 0 0 1 1.21093-.37354 2.07013 2.07013 0 0 1 1.22852.3374 1.547 1.547 0 0 1 .57129 1.12989h-.54883a1.00969 1.00969 0 0 0 -.40918-.76074 1.52737 1.52737 0 0 0 -.85059-.22022 1.21025 1.21025 0 0 0 -.7832.22022.71457.71457 0 0 0 -.27051.58056.56783.56783 0 0 0 .22071.48145 1.79615 1.79615 0 0 0 .55371.27q.33252.10326.71972.18457a3.51564 3.51564 0 0 1 .71973.22949 1.56768 1.56768 0 0 1 .55371.40039 1.02936 1.02936 0 0 1 .2207.70215 1.1852 1.1852 0 0 1 -.14355.58935 1.26594 1.26594 0 0 1 -.39648.42774 1.84587 1.84587 0 0 1 -.59864.25635 3.16343 3.16343 0 0 1 -.76074.08545 2.05468 2.05468 0 0 1 -.7334-.12159 1.58535 1.58535 0 0 1 -.54394-.3374 1.553 1.553 0 0 1 -.35157-.50391 1.76812 1.76812 0 0 1 -.14355-.62109z"/><path d="m88.46387 52.27539a1.36794 1.36794 0 0 0 .45508.85059 1.53864 1.53864 0 0 0 .94043.24756 1.62144 1.62144 0 0 0 .51269-.07227 1.02876 1.02876 0 0 0 .35547-.19336.85008.85008 0 0 0 .21191-.27441.75351.75351 0 0 0 .07129-.32422.59456.59456 0 0 0 -.2207-.5083 1.661 1.661 0 0 0 -.55274-.26123 7.18079 7.18079 0 0 0 -.7207-.16163 3.55343 3.55343 0 0 1 -.71972-.20263 1.45294 1.45294 0 0 1 -.55372-.38721 1.04737 1.04737 0 0 1 -.21972-.71094 1.21378 1.21378 0 0 1 .42676-.95849 1.78278 1.78278 0 0 1 1.21093-.37354 2.07013 2.07013 0 0 1 1.22852.3374 1.547 1.547 0 0 1 .57129 1.12989h-.54883a1.00969 1.00969 0 0 0 -.40918-.76074 1.52737 1.52737 0 0 0 -.85059-.22022 1.21025 1.21025 0 0 0 -.7832.22022.71457.71457 0 0 0 -.27051.58056.56783.56783 0 0 0 .22071.48145 1.79615 1.79615 0 0 0 .55371.27q.33252.10326.71972.18457a3.51564 3.51564 0 0 1 .71973.22949 1.56768 1.56768 0 0 1 .55371.40039 1.02936 1.02936 0 0 1 .2207.70215 1.1852 1.1852 0 0 1 -.14355.58935 1.26594 1.26594 0 0 1 -.39648.42774 1.84587 1.84587 0 0 1 -.59864.25635 3.16343 3.16343 0 0 1 -.76074.08545 2.05468 2.05468 0 0 1 -.7334-.12159 1.58535 1.58535 0 0 1 -.54394-.3374 1.553 1.553 0 0 1 -.35157-.50391 1.76812 1.76812 0 0 1 -.14355-.62109z"/><path d="m27.42676 64.5332v-6.48h.61133v6.48z"/><path d="m30.17188 64.5332h-.54v-4.66211h.54v.64791a3.41793 3.41793 0 0 1 .66992-.55761 1.54441 1.54441 0 0 1 .833-.21631 2.13545 2.13545 0 0 1 .80079.14843 1.36671 1.36671 0 0 1 .62109.51758 1.17564 1.17564 0 0 1 .20215.51758 4.60037 4.60037 0 0 1 .03125.55371v3.05082h-.54v-3.042a1.39075 1.39075 0 0 0 -.27832-.94482 1.1865 1.1865 0 0 0 -.92774-.31494 1.3234 1.3234 0 0 0 -.459.07617 1.461 1.461 0 0 0 -.373.20263 1.365 1.365 0 0 0 -.46386.62989 1.7136 1.7136 0 0 0 -.09864.43213q-.01758.20727-.01757.4497z"/><path d="m34.167 60.32129v-.4502h.69336v-.73779a1.52974 1.52974 0 0 1 .22464-.8823.86657.86657 0 0 1 .76563-.32373c.084 0 .16211.00293.23339.00879.07227.00634.14454.01513.2168.02734v.4946a1.36446 1.36446 0 0 0 -.32422-.04492.58951.58951 0 0 0 -.32422.07666.44777.44777 0 0 0 -.17089.20263.90252.90252 0 0 0 -.06739.28321c-.00879.105-.01367.21142-.01367.31982v.57568h.90039v.4502h-.90039v4.21192h-.54v-4.21191z"/><path d="m37.7041 64.5332h-.54v-4.66211h.54v.873h.01856a1.55644 1.55644 0 0 1 .58007-.77832 1.76854 1.76854 0 0 1 .94043-.2207v.585a1.57812 1.57812 0 0 0 -.75586.144 1.24537 1.24537 0 0 0 -.47265.41406 1.63658 1.63658 0 0 0 -.24317.6167 3.97745 3.97745 0 0 0 -.06738.74219z"/><path d="m42.27637 61.81543c.10156-.01221.22363-.03027.36425-.0542a1.37787 1.37787 0 0 0 .34668-.09912.2884.2884 0 0 0 .167-.21143 1.36341 1.36341 0 0 0 .03125-.27441.92214.92214 0 0 0 -.26563-.67969 1.23925 1.23925 0 0 0 -.89551-.26513 2.45636 2.45636 0 0 0 -.51269.04931 1.122 1.122 0 0 0 -.41016.1709.94256.94256 0 0 0 -.28808.32422 1.37607 1.37607 0 0 0 -.14844.5083h-.54883a1.67228 1.67228 0 0 1 .18945-.70654 1.42832 1.42832 0 0 1 .418-.47705 1.74808 1.74808 0 0 1 .59375-.27 2.928 2.928 0 0 1 .71582-.08545 2.7719 2.7719 0 0 1 .66211.07666 1.5216 1.5216 0 0 1 .53907.24316 1.12388 1.12388 0 0 1 .36035.44531 1.60982 1.60982 0 0 1 .13086.68409v2.53808c0 .21.03711.34326.1123.40039s.22656.04346.4541-.04052v.42285c-.042.0122-.10351.02978-.18457.0542a.83715.83715 0 0 1 -.23828.03564 1.07565 1.07565 0 0 1 -.24316-.02686.417.417 0 0 1 -.21582-.08544.51806.51806 0 0 1 -.12989-.16211.68444.68444 0 0 1 -.06836-.207 1.54083 1.54083 0 0 1 -.01757-.23829 2.35687 2.35687 0 0 1 -.78321.57618 2.3023 2.3023 0 0 1 -.9541.19775 2.1201 2.1201 0 0 1 -.58887-.08106 1.42022 1.42022 0 0 1 -.5-.25195 1.25325 1.25325 0 0 1 -.34179-.41846 1.2845 1.2845 0 0 1 -.126-.58935q0-1.188 1.62891-1.4043zm.90918.26953a2.65593 2.65593 0 0 1 -.69336.18945q-.3501.04469-.70215.07178a1.97933 1.97933 0 0 0 -.9668.27881.79929.79929 0 0 0 -.34668.71143.77371.77371 0 0 0 .085.373.78385.78385 0 0 0 .22559.26123.94238.94238 0 0 0 .32324.15284 1.4316 1.4316 0 0 0 .374.0498 2.465 2.465 0 0 0 .62988-.081 1.71458 1.71458 0 0 0 .54492-.24756 1.26531 1.26531 0 0 0 .38184-.42285 1.216 1.216 0 0 0 .14453-.60792z"/><path d="m45.45312 63.0752a1.368 1.368 0 0 0 .45508.85058 1.53866 1.53866 0 0 0 .94043.24756 1.62146 1.62146 0 0 0 .5127-.07227 1.02869 1.02869 0 0 0 .35547-.19336.85008.85008 0 0 0 .21191-.27441.75351.75351 0 0 0 .07129-.32422.59456.59456 0 0 0 -.2207-.5083 1.66119 1.66119 0 0 0 -.55274-.26123 7.1781 7.1781 0 0 0 -.7207-.16162 3.55307 3.55307 0 0 1 -.71973-.20264 1.453 1.453 0 0 1 -.55371-.3872 1.04739 1.04739 0 0 1 -.21972-.71094 1.21383 1.21383 0 0 1 .42675-.9585 1.78287 1.78287 0 0 1 1.21094-.37353 2.07006 2.07006 0 0 1 1.22852.3374 1.547 1.547 0 0 1 .57129 1.12988h-.54883a1.00969 1.00969 0 0 0 -.40918-.76074 1.52745 1.52745 0 0 0 -.85059-.22021 1.21031 1.21031 0 0 0 -.7832.22021.71458.71458 0 0 0 -.27051.58057.56783.56783 0 0 0 .2207.48144 1.79615 1.79615 0 0 0 .55371.27q.33252.10327.71973.18457a3.51583 3.51583 0 0 1 .71973.22949 1.56811 1.56811 0 0 1 .55371.40039 1.02938 1.02938 0 0 1 .2207.70215 1.18526 1.18526 0 0 1 -.14355.58936 1.26584 1.26584 0 0 1 -.39649.42773 1.84582 1.84582 0 0 1 -.59863.25635 3.163 3.163 0 0 1 -.76074.08545 2.05491 2.05491 0 0 1 -.7334-.12158 1.58564 1.58564 0 0 1 -.54395-.3374 1.55317 1.55317 0 0 1 -.35156-.50391 1.76822 1.76822 0 0 1 -.14355-.62109z"/><path d="m51.27637 64.55127q-.09961.01758-.26075.063a1.3584 1.3584 0 0 1 -.36035.04492.85458.85458 0 0 1 -.61621-.20264.98231.98231 0 0 1 -.21191-.72412v-3.41114h-.65723v-.4502h.65723v-1.29589h.54v1.29589h.873v.4502h-.873v3.19482q0 .17139.00879.29688a.48857.48857 0 0 0 .05468.207.25488.25488 0 0 0 .13868.11719.77644.77644 0 0 0 .26562.03613 1.372 1.372 0 0 0 .2207-.01807c.0752-.0122.14844-.02685.22071-.04492z"/><path d="m52.707 64.5332h-.54v-4.66211h.54v.873h.01856a1.55644 1.55644 0 0 1 .58007-.77832 1.76854 1.76854 0 0 1 .94043-.2207v.585a1.57812 1.57812 0 0 0 -.75586.144 1.24537 1.24537 0 0 0 -.47265.41406 1.63658 1.63658 0 0 0 -.24317.6167 3.97745 3.97745 0 0 0 -.06738.74219z"/><path d="m58.2959 59.87109h.54v4.66211h-.54v-.64795c-.07129.084-.15235.1709-.24219.26075a1.87857 1.87857 0 0 1 -.31055.24755 1.7685 1.7685 0 0 1 -.41015.189 1.73075 1.73075 0 0 1 -.54.07666 2.04919 2.04919 0 0 1 -.78223-.13037 1.27275 1.27275 0 0 1 -.50879-.36475 1.43924 1.43924 0 0 1 -.27929-.54443 2.56656 2.56656 0 0 1 -.085-.6792v-3.06937h.54v3.06006a1.36371 1.36371 0 0 0 .27832.92237 1.1619 1.1619 0 0 0 .918.31982 1.33443 1.33443 0 0 0 .59864-.13086 1.24915 1.24915 0 0 0 .44531-.36426 1.73992 1.73992 0 0 0 .2793-.5581 2.4087 2.4087 0 0 0 .09863-.71094z"/><path d="m63.44434 61.33838a1.5686 1.5686 0 0 0 -.49512-.81445 1.34386 1.34386 0 0 0 -.89063-.29248 1.40239 1.40239 0 0 0 -.71191.17089 1.43718 1.43718 0 0 0 -.48535.45459 2.03852 2.03852 0 0 0 -.2793.63868 2.92824 2.92824 0 0 0 -.08984.71582 2.99681 2.99681 0 0 0 .08593.71972 1.91381 1.91381 0 0 0 .27442.62989 1.42159 1.42159 0 0 0 .48535.4458 1.45635 1.45635 0 0 0 .7207.1665 1.37973 1.37973 0 0 0 .9668-.333 1.55012 1.55012 0 0 0 .46387-.918h.57617a2.76389 2.76389 0 0 1 -.22949.70655 1.87123 1.87123 0 0 1 -.40528.54882 1.73966 1.73966 0 0 1 -.58984.35547 2.52505 2.52505 0 0 1 -1.74609-.063 1.82406 1.82406 0 0 1 -.666-.51757 2.181 2.181 0 0 1 -.38672-.77832 3.56048 3.56048 0 0 1 -.126-.96289 3.10551 3.10551 0 0 1 .13964-.93164 2.43175 2.43175 0 0 1 .40918-.7876 1.98034 1.98034 0 0 1 .6709-.54444 2.01273 2.01273 0 0 1 .92285-.20263 2.07727 2.07727 0 0 1 1.3086.3872 1.79647 1.79647 0 0 1 .626 1.20606z"/><path d="m66.7832 64.55127q-.0996.01758-.26074.063a1.35845 1.35845 0 0 1 -.36035.04492.85455.85455 0 0 1 -.61621-.20264.98231.98231 0 0 1 -.21192-.72412v-3.41114h-.65722v-.4502h.65724v-1.29589h.54v1.29589h.873v.4502h-.873v3.19482q0 .17139.00879.29688a.48856.48856 0 0 0 .05469.207.25486.25486 0 0 0 .13867.11719.77655.77655 0 0 0 .26563.03613 1.37214 1.37214 0 0 0 .2207-.01807c.0752-.0122.14844-.02685.2207-.04492z"/><path d="m70.80566 59.87109h.54v4.66211h-.54v-.64795c-.07128.084-.15234.1709-.24218.26075a1.879 1.879 0 0 1 -.31055.24755 1.76877 1.76877 0 0 1 -.41016.189 1.73071 1.73071 0 0 1 -.54.07666 2.0491 2.0491 0 0 1 -.78222-.13037 1.27268 1.27268 0 0 1 -.50879-.36475 1.43912 1.43912 0 0 1 -.2793-.54443 2.56656 2.56656 0 0 1 -.085-.6792v-3.06937h.54v3.06006a1.36366 1.36366 0 0 0 .27832.92237 1.16188 1.16188 0 0 0 .918.31982 1.33439 1.33439 0 0 0 .59863-.13086 1.249 1.249 0 0 0 .44531-.36426 1.73992 1.73992 0 0 0 .2793-.5581 2.40837 2.40837 0 0 0 .09863-.71094z"/><path d="m73.21777 64.5332h-.54v-4.66211h.54v.873h.01856a1.55639 1.55639 0 0 1 .58008-.77832 1.76849 1.76849 0 0 1 .94043-.2207v.585a1.57807 1.57807 0 0 0 -.75586.144 1.24533 1.24533 0 0 0 -.47266.41406 1.6364 1.6364 0 0 0 -.24316.6167 3.97659 3.97659 0 0 0 -.06739.74219z"/><path d="m75.98145 62.32812a2.5181 2.5181 0 0 0 .09863.71583 1.72269 1.72269 0 0 0 .292.585 1.41676 1.41676 0 0 0 .49121.396 1.51119 1.51119 0 0 0 .6836.14844 1.48741 1.48741 0 0 0 .90917-.2793 1.34139 1.34139 0 0 0 .50391-.792h.60352a2.90676 2.90676 0 0 1 -.26172.6167 1.9088 1.9088 0 0 1 -.4043.49512 1.74633 1.74633 0 0 1 -.57617.32812 2.3351 2.3351 0 0 1 -.77441.11719 2.25815 2.25815 0 0 1 -.9629-.189 1.81593 1.81593 0 0 1 -.666-.51757 2.18423 2.18423 0 0 1 -.38672-.77393 3.51 3.51 0 0 1 -.126-.9585 3.03625 3.03625 0 0 1 .14844-.96289 2.43176 2.43176 0 0 1 .42285-.78759 1.96162 1.96162 0 0 1 .6709-.53125 2.02172 2.02172 0 0 1 .89942-.19336 1.858 1.858 0 0 1 1.51171.66162 2.90556 2.90556 0 0 1 .54 1.92138zm3.042-.4497a2.15688 2.15688 0 0 0 -.09473-.64356 1.50961 1.50961 0 0 0 -.2793-.522 1.32438 1.32438 0 0 0 -.46386-.35107 1.48932 1.48932 0 0 0 -.63867-.13037 1.42484 1.42484 0 0 0 -.63477.13476 1.45979 1.45979 0 0 0 -.46777.35986 1.824 1.824 0 0 0 -.31055.522 2.39526 2.39526 0 0 0 -.15234.63037z"/><path d="m136.97949 53.7334v-6.48h4.31151v.522h-3.6992v2.33984h3.33886v.522h-3.33886v2.57422h3.78906v.522z"/><path d="m145.99805 47.25342h.54v6.48h-.54v-.81885h-.01758a1.46318 1.46318 0 0 1 -.30176.40918 1.80483 1.80483 0 0 1 -.40527.29248 2.18849 2.18849 0 0 1 -.4541.18018 1.766 1.766 0 0 1 -.459.063 2.22158 2.22158 0 0 1 -.96289-.189 1.78775 1.78775 0 0 1 -.65332-.51758 2.11266 2.11266 0 0 1 -.373-.77832 3.8119 3.8119 0 0 1 -.11718-.96289 3.45384 3.45384 0 0 1 .126-.936 2.32144 2.32144 0 0 1 .38282-.7876 1.89035 1.89035 0 0 1 .64746-.54 1.98167 1.98167 0 0 1 .92285-.20264 2.14761 2.14761 0 0 1 .94922.22071 1.67164 1.67164 0 0 1 .71582.65234zm0 4.13086a2.5659 2.5659 0 0 0 -.1084-.75147 1.92146 1.92146 0 0 0 -.31055-.62109 1.52906 1.52906 0 0 0 -.49414-.42285 1.376 1.376 0 0 0 -.66211-.15723 1.50068 1.50068 0 0 0 -.72851.166 1.43867 1.43867 0 0 0 -.50391.45459 1.9454 1.9454 0 0 0 -.28809.67041 3.03617 3.03617 0 0 0 -.07226.82373 2.28971 2.28971 0 0 0 .12109.77832 1.6551 1.6551 0 0 0 .33789.57177 1.43167 1.43167 0 0 0 .50391.35547 1.60577 1.60577 0 0 0 .62988.12159 1.44924 1.44924 0 0 0 .67481-.15333 1.41034 1.41034 0 0 0 .49511-.41845 1.92517 1.92517 0 0 0 .30176-.62988 2.86036 2.86036 0 0 0 .10352-.78758z"/><path d="m151.05566 49.07129h.54v4.66211h-.54v-.648c-.07128.084-.15234.1709-.24218.26074a1.87956 1.87956 0 0 1 -.31055.24756 1.76877 1.76877 0 0 1 -.41016.189 1.73069 1.73069 0 0 1 -.54.07667 2.04889 2.04889 0 0 1 -.78222-.13038 1.27256 1.27256 0 0 1 -.50879-.36474 1.43909 1.43909 0 0 1 -.2793-.54444 2.5665 2.5665 0 0 1 -.085-.6792v-3.06932h.54v3.06006a1.36363 1.36363 0 0 0 .27832.92236 1.16185 1.16185 0 0 0 .918.31983 1.33439 1.33439 0 0 0 .59863-.13086 1.24908 1.24908 0 0 0 .44531-.36426 1.74 1.74 0 0 0 .2793-.55811 2.40831 2.40831 0 0 0 .09863-.71093z"/><path d="m156.2041 50.53857a1.56861 1.56861 0 0 0 -.49512-.81445 1.34388 1.34388 0 0 0 -.89062-.29248 1.40227 1.40227 0 0 0 -.71191.1709 1.4373 1.4373 0 0 0 -.48536.45459 2.03858 2.03858 0 0 0 -.27929.63867 2.92837 2.92837 0 0 0 -.08985.71582 2.99646 2.99646 0 0 0 .08594.71973 1.91384 1.91384 0 0 0 .27441.62988 1.42153 1.42153 0 0 0 .48536.4458 1.45633 1.45633 0 0 0 .7207.16651 1.37975 1.37975 0 0 0 .9668-.333 1.55005 1.55005 0 0 0 .46386-.918h.57618a2.76356 2.76356 0 0 1 -.2295.70654 1.87124 1.87124 0 0 1 -.40527.54883 1.74007 1.74007 0 0 1 -.58984.35547 2.52508 2.52508 0 0 1 -1.7461-.063 1.82407 1.82407 0 0 1 -.666-.51758 2.18073 2.18073 0 0 1 -.38672-.77832 3.56 3.56 0 0 1 -.126-.96289 3.10556 3.10556 0 0 1 .13965-.93164 2.43157 2.43157 0 0 1 .40918-.7876 1.98021 1.98021 0 0 1 .6709-.54443 2.01273 2.01273 0 0 1 .92285-.20264 2.07723 2.07723 0 0 1 1.30859.38721 1.79645 1.79645 0 0 1 .626 1.206z"/><path d="m160.04688 51.01562c.10156-.0122.22363-.03027.36425-.05419a1.37742 1.37742 0 0 0 .34668-.09913.28835.28835 0 0 0 .167-.21142 1.3627 1.3627 0 0 0 .03125-.27442.92211.92211 0 0 0 -.26562-.67968 1.23927 1.23927 0 0 0 -.89551-.26514 2.45566 2.45566 0 0 0 -.51269.04932 1.12181 1.12181 0 0 0 -.41016.1709.94265.94265 0 0 0 -.28809.32421 1.37632 1.37632 0 0 0 -.14843.50831h-.54883a1.672 1.672 0 0 1 .18945-.70655 1.4284 1.4284 0 0 1 .418-.477 1.74808 1.74808 0 0 1 .59375-.27 2.928 2.928 0 0 1 .71582-.08545 2.7719 2.7719 0 0 1 .66211.07666 1.52148 1.52148 0 0 1 .53906.24317 1.12372 1.12372 0 0 1 .36035.44531 1.60958 1.60958 0 0 1 .13086.68408v2.53809c0 .21.03711.34326.11231.40039s.22656.04345.4541-.04053v.42285c-.042.01221-.10352.02979-.18457.0542a.83687.83687 0 0 1 -.23828.03565 1.07574 1.07574 0 0 1 -.24317-.02686.41718.41718 0 0 1 -.21582-.08545.5178.5178 0 0 1 -.12988-.16211.68435.68435 0 0 1 -.06836-.207 1.53952 1.53952 0 0 1 -.01758-.23828 2.3567 2.3567 0 0 1 -.7832.57617 2.30215 2.30215 0 0 1 -.9541.19776 2.1201 2.1201 0 0 1 -.58887-.08106 1.4203 1.4203 0 0 1 -.5-.252 1.25325 1.25325 0 0 1 -.34179-.41846 1.28457 1.28457 0 0 1 -.126-.58936q0-1.188 1.6289-1.40429zm.90917.26954a2.65575 2.65575 0 0 1 -.69335.18945q-.3501.04467-.70215.07178a1.97919 1.97919 0 0 0 -.9668.27881.79925.79925 0 0 0 -.34668.71142.77372.77372 0 0 0 .085.373.784.784 0 0 0 .22559.26123.94218.94218 0 0 0 .32324.15283 1.43159 1.43159 0 0 0 .374.04981 2.4651 2.4651 0 0 0 .62989-.08106 1.71458 1.71458 0 0 0 .54492-.24756 1.26508 1.26508 0 0 0 .38183-.42285 1.216 1.216 0 0 0 .14453-.60791z"/><path d="m164.54688 53.75146q-.09961.01758-.26075.063a1.358 1.358 0 0 1 -.36035.04493.85461.85461 0 0 1 -.61621-.20264.98234.98234 0 0 1 -.21191-.72412v-3.41115h-.65723v-.45019h.65723v-1.2959h.54v1.2959h.873v.45019h-.873v3.19483q0 .17139.00878.29687a.48852.48852 0 0 0 .05469.207.25482.25482 0 0 0 .13867.11719.77627.77627 0 0 0 .26563.03614 1.37205 1.37205 0 0 0 .2207-.01807c.0752-.01221.14844-.02686.22071-.04492z"/><path d="m165.46484 48.0542v-.80078h.59375v.80078zm.02637 5.6792v-4.66211h.54v4.66211z"/><path d="m169.2627 53.85938a2.42814 2.42814 0 0 1 -.8418-.16211 1.88761 1.88761 0 0 1 -.6836-.459 2.20112 2.20112 0 0 1 -.46386-.76465 3.08018 3.08018 0 0 1 -.1709-1.07129 3.29554 3.29554 0 0 1 .13476-.95849 2.28061 2.28061 0 0 1 .40528-.77832 1.9264 1.9264 0 0 1 .6748-.52686 2.17294 2.17294 0 0 1 .94532-.19336 2.19491 2.19491 0 0 1 .9541.19336 1.94947 1.94947 0 0 1 .6748.52246 2.1566 2.1566 0 0 1 .40039.77832 3.44486 3.44486 0 0 1 .13086.96289 3.1021 3.1021 0 0 1 -.15332 1.00782 2.25681 2.25681 0 0 1 -.43652.77441 1.924 1.924 0 0 1 -.6836.49951 2.19242 2.19242 0 0 1 -.88671.17531zm1.584-2.457a3.20685 3.20685 0 0 0 -.08984-.77392 1.84926 1.84926 0 0 0 -.2793-.62549 1.34668 1.34668 0 0 0 -.48535-.41846 1.58049 1.58049 0 0 0 -.72949-.15283 1.47972 1.47972 0 0 0 -.72461.166 1.41866 1.41866 0 0 0 -.49024.4414 1.95414 1.95414 0 0 0 -.2793.62989 2.996 2.996 0 0 0 -.08984.73339 2.892 2.892 0 0 0 .10352.79639 1.87389 1.87389 0 0 0 .30175.62549 1.35034 1.35034 0 0 0 .49512.40527 1.54335 1.54335 0 0 0 .6836.14405 1.47975 1.47975 0 0 0 .7246-.16651 1.40227 1.40227 0 0 0 .49024-.4458 2.00716 2.00716 0 0 0 .2793-.62988 2.94339 2.94339 0 0 0 .08982-.72903z"/><path d="m172.95312 53.7334h-.54v-4.66211h.54v.648a3.41833 3.41833 0 0 1 .66993-.55762 1.5445 1.5445 0 0 1 .833-.21631 2.13545 2.13545 0 0 1 .80079.14844 1.36658 1.36658 0 0 1 .62109.51758 1.17564 1.17564 0 0 1 .20215.51758 4.60013 4.60013 0 0 1 .03125.55371v3.05073h-.54v-3.042a1.39076 1.39076 0 0 0 -.27832-.94483 1.1865 1.1865 0 0 0 -.92774-.31494 1.3234 1.3234 0 0 0 -.459.07617 1.46076 1.46076 0 0 0 -.37305.20264 1.36507 1.36507 0 0 0 -.46386.62988 1.71326 1.71326 0 0 0 -.09864.43213q-.01758.20727-.01758.44971z"/><path d="m180.52148 53.7334h-.54v-6.48h.54v2.56494a1.66613 1.66613 0 0 1 .71582-.65234 2.14764 2.14764 0 0 1 .94922-.22071 1.98449 1.98449 0 0 1 .92286.20264 1.89053 1.89053 0 0 1 .64746.54 2.3216 2.3216 0 0 1 .38281.7876 3.45384 3.45384 0 0 1 .126.936 3.8119 3.8119 0 0 1 -.11718.96289 2.11266 2.11266 0 0 1 -.37305.77832 1.78775 1.78775 0 0 1 -.65332.51758 2.22158 2.22158 0 0 1 -.96289.189 1.766 1.766 0 0 1 -.459-.063 2.1466 2.1466 0 0 1 -.45411-.18018 1.80483 1.80483 0 0 1 -.40527-.29248 1.46318 1.46318 0 0 1 -.30176-.40918h-.01758zm0-2.34912a2.86036 2.86036 0 0 0 .10352.7876 1.92537 1.92537 0 0 0 .30176.62988 1.41029 1.41029 0 0 0 .49512.41845 1.44917 1.44917 0 0 0 .6748.15333 1.60577 1.60577 0 0 0 .62988-.12159 1.43158 1.43158 0 0 0 .50391-.35547 1.67044 1.67044 0 0 0 .33789-.57177 2.28971 2.28971 0 0 0 .12109-.77832 3.03617 3.03617 0 0 0 -.07226-.82373 1.96405 1.96405 0 0 0 -.28809-.67041 1.42581 1.42581 0 0 0 -.50781-.45459 1.51442 1.51442 0 0 0 -.72461-.166 1.376 1.376 0 0 0 -.66211.15723 1.52917 1.52917 0 0 0 -.49414.42285 1.92146 1.92146 0 0 0 -.31055.62109 2.5659 2.5659 0 0 0 -.1084.75145z"/><path d="m185.751 51.52832a2.51808 2.51808 0 0 0 .09863.71582 1.72278 1.72278 0 0 0 .292.585 1.41679 1.41679 0 0 0 .49121.396 1.51132 1.51132 0 0 0 .6836.14844 1.48753 1.48753 0 0 0 .90918-.2793 1.34148 1.34148 0 0 0 .5039-.792h.60352a2.9072 2.9072 0 0 1 -.26172.6167 1.90859 1.90859 0 0 1 -.4043.49511 1.74635 1.74635 0 0 1 -.57617.32813 2.33536 2.33536 0 0 1 -.77441.11719 2.25811 2.25811 0 0 1 -.96289-.189 1.816 1.816 0 0 1 -.666-.51758 2.18444 2.18444 0 0 1 -.38672-.77392 3.51009 3.51009 0 0 1 -.126-.9585 3.03616 3.03616 0 0 1 .14844-.96289 2.4321 2.4321 0 0 1 .42285-.7876 1.96174 1.96174 0 0 1 .6709-.53125 2.02186 2.02186 0 0 1 .89942-.19336 1.858 1.858 0 0 1 1.51171.66162 2.90553 2.90553 0 0 1 .54 1.92139zm3.042-.44971a2.15682 2.15682 0 0 0 -.09473-.64355 1.5096 1.5096 0 0 0 -.27929-.522 1.32453 1.32453 0 0 0 -.46387-.35108 1.48947 1.48947 0 0 0 -.63867-.13037 1.42471 1.42471 0 0 0 -.63477.13477 1.45979 1.45979 0 0 0 -.46777.35986 1.82428 1.82428 0 0 0 -.31055.522 2.39575 2.39575 0 0 0 -.15234.63037z"/><path d="m190.38574 54.99316c.07129.01221.14551.02393.21973.03614a1.4365 1.4365 0 0 0 .22949.01806.49968.49968 0 0 0 .36914-.14355 1.20743 1.20743 0 0 0 .23926-.34619 2.91 2.91 0 0 0 .15723-.42237 1.96254 1.96254 0 0 1 .14355-.373l-1.80859-4.69092h.60254l1.49414 4.00488 1.49414-4.00488h.585l-1.73737 4.59908q-.16113.44093-.31054.792a3.519 3.519 0 0 1 -.31446.59864 1.313 1.313 0 0 1 -.36914.37792.87036.87036 0 0 1 -.48144.13038 1.97706 1.97706 0 0 1 -.27442-.01807 2.26491 2.26491 0 0 1 -.23828-.04492z"/><path d="m196.77539 53.85938a2.42819 2.42819 0 0 1 -.8418-.16211 1.88748 1.88748 0 0 1 -.68359-.459 2.20114 2.20114 0 0 1 -.46387-.76465 3.08018 3.08018 0 0 1 -.1709-1.07129 3.29554 3.29554 0 0 1 .13477-.95849 2.28076 2.28076 0 0 1 .40527-.77832 1.92643 1.92643 0 0 1 .67481-.52686 2.17293 2.17293 0 0 1 .94531-.19336 2.19491 2.19491 0 0 1 .9541.19336 1.94951 1.94951 0 0 1 .67481.52246 2.15691 2.15691 0 0 1 .40039.77832 3.44522 3.44522 0 0 1 .13086.96289 3.1021 3.1021 0 0 1 -.15332 1.00782 2.25683 2.25683 0 0 1 -.43653.77441 1.92391 1.92391 0 0 1 -.68359.49951 2.19247 2.19247 0 0 1 -.88672.17531zm1.584-2.457a3.20684 3.20684 0 0 0 -.08985-.77392 1.84926 1.84926 0 0 0 -.2793-.62549 1.34651 1.34651 0 0 0 -.48535-.41846 1.58046 1.58046 0 0 0 -.72949-.15283 1.47972 1.47972 0 0 0 -.72461.166 1.41862 1.41862 0 0 0 -.49023.4414 1.95392 1.95392 0 0 0 -.2793.62989 2.996 2.996 0 0 0 -.08984.73339 2.89239 2.89239 0 0 0 .10351.79639 1.87391 1.87391 0 0 0 .30176.62549 1.35026 1.35026 0 0 0 .49512.40527 1.54331 1.54331 0 0 0 .68359.14405 1.47976 1.47976 0 0 0 .7246-.16656 1.40224 1.40224 0 0 0 .49023-.4458 2.00716 2.00716 0 0 0 .2793-.62988 2.94339 2.94339 0 0 0 .08985-.72898z"/><path d="m200.46582 53.7334h-.54v-4.66211h.54v.648a3.418 3.418 0 0 1 .66992-.55762 1.54454 1.54454 0 0 1 .833-.21631 2.13536 2.13536 0 0 1 .80078.14844 1.36653 1.36653 0 0 1 .62109.51758 1.1754 1.1754 0 0 1 .20215.51758 4.59807 4.59807 0 0 1 .03125.55371v3.05073h-.54v-3.042a1.39076 1.39076 0 0 0 -.27832-.94483 1.18648 1.18648 0 0 0 -.92773-.31494 1.32336 1.32336 0 0 0 -.459.07617 1.46076 1.46076 0 0 0 -.37305.20264 1.36518 1.36518 0 0 0 -.46387.62988 1.71366 1.71366 0 0 0 -.09863.43213q-.01758.20727-.01758.44971z"/><path d="m208.5293 47.25342h.54v6.48h-.54v-.81885h-.01758a1.46318 1.46318 0 0 1 -.30176.40918 1.80483 1.80483 0 0 1 -.40527.29248 2.18849 2.18849 0 0 1 -.4541.18018 1.766 1.766 0 0 1 -.459.063 2.22158 2.22158 0 0 1 -.96289-.189 1.78775 1.78775 0 0 1 -.65332-.51758 2.11266 2.11266 0 0 1 -.373-.77832 3.8119 3.8119 0 0 1 -.11718-.96289 3.45384 3.45384 0 0 1 .126-.936 2.32144 2.32144 0 0 1 .38282-.7876 1.89035 1.89035 0 0 1 .64746-.54 1.98164 1.98164 0 0 1 .92285-.20264 2.14761 2.14761 0 0 1 .94922.22071 1.67164 1.67164 0 0 1 .71582.65234zm0 4.13086a2.5659 2.5659 0 0 0 -.1084-.75147 1.92146 1.92146 0 0 0 -.31055-.62109 1.52906 1.52906 0 0 0 -.49414-.42285 1.376 1.376 0 0 0 -.66211-.15723 1.50071 1.50071 0 0 0 -.72851.166 1.43867 1.43867 0 0 0 -.50391.45459 1.9454 1.9454 0 0 0 -.28809.67041 3.03617 3.03617 0 0 0 -.07226.82373 2.28971 2.28971 0 0 0 .12109.77832 1.6551 1.6551 0 0 0 .33789.57177 1.43167 1.43167 0 0 0 .50391.35547 1.60577 1.60577 0 0 0 .62988.12159 1.44924 1.44924 0 0 0 .67481-.15333 1.41034 1.41034 0 0 0 .49511-.41845 1.92517 1.92517 0 0 0 .30176-.62988 2.86036 2.86036 0 0 0 .10352-.78758z"/><path d="m212.98438 53.7334v-6.48h2.36718a3.17242 3.17242 0 0 1 1.03906.144 1.61 1.61 0 0 1 .64844.396 1.40688 1.40688 0 0 1 .333.58056 2.49417 2.49417 0 0 1 .09375.68848 1.65431 1.65431 0 0 1 -.21973.89111 1.6285 1.6285 0 0 1 -.57226.55323 2.45324 2.45324 0 0 1 -.7959.28369 5.02356 5.02356 0 0 1 -.89551.08105h-1.38574v2.86188zm2.01562-3.38379a4.98936 4.98936 0 0 0 .77441-.0542 1.54567 1.54567 0 0 0 .58008-.20264.99893.99893 0 0 0 .36914-.40478 1.48211 1.48211 0 0 0 .13086-.67041 1.10924 1.10924 0 0 0 -.40039-.92725 2.06658 2.06658 0 0 0 -1.27344-.31494h-1.584v2.57422z"/><path d="m218.99609 53.7334h-.54v-4.66211h.54v.873h.01856a1.55639 1.55639 0 0 1 .58008-.77832 1.76839 1.76839 0 0 1 .94043-.22071v.585a1.57807 1.57807 0 0 0 -.75586.14405 1.24524 1.24524 0 0 0 -.47266.41406 1.63634 1.63634 0 0 0 -.24316.6167 3.97644 3.97644 0 0 0 -.06739.74219z"/><path d="m221.75977 51.52832a2.51808 2.51808 0 0 0 .09863.71582 1.7226 1.7226 0 0 0 .292.585 1.41679 1.41679 0 0 0 .49121.396 1.51132 1.51132 0 0 0 .6836.14844 1.48753 1.48753 0 0 0 .90918-.2793 1.34148 1.34148 0 0 0 .5039-.792h.60352a2.9072 2.9072 0 0 1 -.26172.6167 1.90859 1.90859 0 0 1 -.4043.49511 1.74635 1.74635 0 0 1 -.57617.32813 2.33536 2.33536 0 0 1 -.77441.11719 2.25815 2.25815 0 0 1 -.9629-.189 1.81606 1.81606 0 0 1 -.666-.51758 2.18427 2.18427 0 0 1 -.38672-.77392 3.51009 3.51009 0 0 1 -.126-.9585 3.03616 3.03616 0 0 1 .14844-.96289 2.43191 2.43191 0 0 1 .42285-.7876 1.96174 1.96174 0 0 1 .6709-.53125 2.02186 2.02186 0 0 1 .89942-.19336 1.858 1.858 0 0 1 1.51171.66162 2.90559 2.90559 0 0 1 .54 1.92139zm3.042-.44971a2.15682 2.15682 0 0 0 -.09473-.64355 1.50961 1.50961 0 0 0 -.2793-.522 1.3244 1.3244 0 0 0 -.46386-.35108 1.48947 1.48947 0 0 0 -.63867-.13037 1.42471 1.42471 0 0 0 -.63477.13477 1.45979 1.45979 0 0 0 -.46777.35986 1.82405 1.82405 0 0 0 -.31055.522 2.39536 2.39536 0 0 0 -.15234.63037z"/><path d="m228.419 51.11426v.5581h-2.27637v-.5581z"/><path d="m229.544 53.7334v-6.48h.6123v3.35693l3.32129-3.35693h.69238l-2.55566 2.583 3.00586 3.897h-.74707l-2.7002-3.519-1.0166 1.01709v2.502z"/><path d="m137.13086 88.78027v-6.48h.6123v2.78076h3.834v-2.78074h.6123v6.48h-.6123v-3.17677h-3.834v3.17675z"/><path d="m143.89062 86.5752a2.51809 2.51809 0 0 0 .09864.71582 1.72269 1.72269 0 0 0 .292.585 1.41676 1.41676 0 0 0 .49121.396 1.51117 1.51117 0 0 0 .68359.14844 1.48742 1.48742 0 0 0 .90918-.2793 1.34139 1.34139 0 0 0 .50391-.792h.60352a2.90676 2.90676 0 0 1 -.26172.6167 1.90864 1.90864 0 0 1 -.4043.49512 1.74633 1.74633 0 0 1 -.57617.32812 2.33512 2.33512 0 0 1 -.77442.11719 2.25829 2.25829 0 0 1 -.96289-.189 1.81606 1.81606 0 0 1 -.666-.51758 2.18423 2.18423 0 0 1 -.38672-.77393 3.51 3.51 0 0 1 -.126-.95849 3.03627 3.03627 0 0 1 .14844-.9629 2.43176 2.43176 0 0 1 .42285-.78759 1.96162 1.96162 0 0 1 .6709-.53125 2.02171 2.02171 0 0 1 .89941-.19336 1.858 1.858 0 0 1 1.51172.66162 2.90557 2.90557 0 0 1 .54 1.92139zm3.042-.44971a2.15688 2.15688 0 0 0 -.09473-.64356 1.50961 1.50961 0 0 0 -.2793-.522 1.32438 1.32438 0 0 0 -.46386-.35107 1.48934 1.48934 0 0 0 -.63868-.13037 1.42483 1.42483 0 0 0 -.63476.13476 1.45979 1.45979 0 0 0 -.46777.35986 1.82411 1.82411 0 0 0 -.31055.522 2.39567 2.39567 0 0 0 -.15235.63037z"/><path d="m150.70312 86.0625c.10157-.01221.22364-.03027.36426-.0542a1.37745 1.37745 0 0 0 .34668-.09912.28834.28834 0 0 0 .167-.21143 1.36269 1.36269 0 0 0 .03125-.27441.92214.92214 0 0 0 -.26562-.67969 1.23927 1.23927 0 0 0 -.89551-.26513 2.45636 2.45636 0 0 0 -.51269.04931 1.12215 1.12215 0 0 0 -.41016.1709.94277.94277 0 0 0 -.28809.32422 1.37626 1.37626 0 0 0 -.14843.5083h-.54881a1.672 1.672 0 0 1 .18945-.70654 1.42821 1.42821 0 0 1 .418-.477 1.74808 1.74808 0 0 1 .59375-.27 2.928 2.928 0 0 1 .71582-.08545 2.7719 2.7719 0 0 1 .66211.07666 1.52155 1.52155 0 0 1 .53906.24316 1.12379 1.12379 0 0 1 .36035.44531 1.60966 1.60966 0 0 1 .13086.68409v2.53808c0 .21.03711.34326.11231.40039s.22656.04346.4541-.04052v.42285c-.042.0122-.10352.02978-.18457.0542a.83725.83725 0 0 1 -.23828.03564 1.07631 1.07631 0 0 1 -.24317-.02685.41714.41714 0 0 1 -.21582-.08545.518.518 0 0 1 -.12988-.16211.68444.68444 0 0 1 -.06836-.207 1.53956 1.53956 0 0 1 -.01758-.23829 2.35673 2.35673 0 0 1 -.7832.57618 2.3023 2.3023 0 0 1 -.9541.19775 2.12046 2.12046 0 0 1 -.58887-.08105 1.42032 1.42032 0 0 1 -.5-.252 1.25346 1.25346 0 0 1 -.3418-.41845 1.2847 1.2847 0 0 1 -.126-.58936q0-1.188 1.6289-1.4043zm.90918.26953a2.65575 2.65575 0 0 1 -.69335.18945q-.3501.04469-.70215.07178a1.9794 1.9794 0 0 0 -.9668.27881.79927.79927 0 0 0 -.34668.71143.77371.77371 0 0 0 .085.373.78385.78385 0 0 0 .22559.26123.94238.94238 0 0 0 .32324.15284 1.43158 1.43158 0 0 0 .374.0498 2.4651 2.4651 0 0 0 .62989-.08105 1.71458 1.71458 0 0 0 .54492-.24756 1.26518 1.26518 0 0 0 .38183-.42285 1.216 1.216 0 0 0 .14453-.60791z"/><path d="m153.64551 88.78027v-6.48h.54v6.48z"/><path d="m157.20117 88.79834q-.0996.01758-.26074.063a1.35851 1.35851 0 0 1 -.36035.04492.85455.85455 0 0 1 -.61621-.20264.98231.98231 0 0 1 -.21192-.72412v-3.41114h-.65722v-.4502h.65722v-1.29589h.54v1.29589h.87305v.4502h-.873v3.19482q0 .17139.00879.29688a.48856.48856 0 0 0 .05469.207.25486.25486 0 0 0 .13867.11719.77655.77655 0 0 0 .26563.03613 1.37214 1.37214 0 0 0 .2207-.01807c.07519-.0122.14844-.02685.2207-.04492z"/><path d="m158.06543 88.78027v-6.48h.54v2.46582a3.41793 3.41793 0 0 1 .66992-.55761 1.54445 1.54445 0 0 1 .833-.21631 2.13536 2.13536 0 0 1 .80078.14843 1.36671 1.36671 0 0 1 .62109.51758 1.17552 1.17552 0 0 1 .20215.51758 4.59831 4.59831 0 0 1 .03125.55371v3.05078h-.54v-3.042a1.39075 1.39075 0 0 0 -.27832-.94482 1.18648 1.18648 0 0 0 -.92773-.31494 1.32346 1.32346 0 0 0 -.459.07617 1.46114 1.46114 0 0 0 -.373.20263 1.365 1.365 0 0 0 -.46387.62989 1.71356 1.71356 0 0 0 -.09863.43213q-.01758.20727-.01758.4497v2.51123z"/><path d="m137.1582 119.17578v-6.48h4.31153v.522h-3.69922v2.33985h3.33887v.522h-3.33887v2.57422h3.78906v.522z"/><path d="m143.04492 119.17578h-.54v-4.66211h.54v.70215h.01758a1.4214 1.4214 0 0 1 .59375-.6167 1.74253 1.74253 0 0 1 .84668-.21142 1.80826 1.80826 0 0 1 .54883.07226 1.24705 1.24705 0 0 1 .38281.19336 1.12318 1.12318 0 0 1 .26074.28369 2.00978 2.00978 0 0 1 .17578.35059 1.56719 1.56719 0 0 1 .625-.6792 1.79306 1.79306 0 0 1 .89551-.2207 1.56881 1.56881 0 0 1 .76074.15771 1.144 1.144 0 0 1 .43653.41406 1.60561 1.60561 0 0 1 .20215.58936 4.62309 4.62309 0 0 1 .0498.68408v2.94287h-.54v-3.22217a1.31038 1.31038 0 0 0 -.21191-.792.92042.92042 0 0 0 -.78711-.2876 1.3032 1.3032 0 0 0 -1.05274.53077 1.02926 1.02926 0 0 0 -.14843.27441 2.23684 2.23684 0 0 0 -.09473.32861 2.58756 2.58756 0 0 0 -.04981.3418c-.00878.11426-.01367.21924-.01367.31494v2.51123h-.54v-3.22217a1.31715 1.31715 0 0 0 -.21093-.792.92254.92254 0 0 0 -.78809-.2876 1.30316 1.30316 0 0 0 -1.05273.53077 1.05737 1.05737 0 0 0 -.14844.27441 2.36539 2.36539 0 0 0 -.09473.32861 2.75575 2.75575 0 0 0 -.04883.3418c-.00976.11426-.01367.21924-.01367.31494z"/><path d="m150.67676 121.01172h-.54v-6.498h.54v.81934h.01758a1.59145 1.59145 0 0 1 .30175-.40528 1.75077 1.75077 0 0 1 .40528-.29687 2.14631 2.14631 0 0 1 .4541-.18018 1.766 1.766 0 0 1 .459-.063 2.22159 2.22159 0 0 1 .96289.189 1.79275 1.79275 0 0 1 .65332.51758 2.11625 2.11625 0 0 1 .37305.77832 3.81256 3.81256 0 0 1 .11719.96338 3.45868 3.45868 0 0 1 -.126.936 2.31877 2.31877 0 0 1 -.38281.78711 1.89053 1.89053 0 0 1 -.64746.54 1.98435 1.98435 0 0 1 -.92285.20264 2.14758 2.14758 0 0 1 -.94922-.22071 1.66313 1.66313 0 0 1 -.71582-.65234zm0-4.14893a2.56078 2.56078 0 0 0 .1084.75147 1.91167 1.91167 0 0 0 .31054.62109 1.52927 1.52927 0 0 0 .49414.42285 1.37627 1.37627 0 0 0 .66211.15772 1.51455 1.51455 0 0 0 .72461-.16651 1.42592 1.42592 0 0 0 .50782-.45459 1.96009 1.96009 0 0 0 .28808-.67041 3.034 3.034 0 0 0 .07227-.82373 2.29144 2.29144 0 0 0 -.1211-.77832 1.67013 1.67013 0 0 0 -.33789-.57177 1.43769 1.43769 0 0 0 -.5039-.35547 1.60565 1.60565 0 0 0 -.62989-.1211 1.449 1.449 0 0 0 -.6748.15284 1.42064 1.42064 0 0 0 -.49512.41845 1.93512 1.93512 0 0 0 -.30176.62989 2.86309 2.86309 0 0 0 -.10351.78759z"/><path d="m155.65332 119.17578v-6.48h.54v6.48z"/><path d="m159.42383 119.30176a2.42814 2.42814 0 0 1 -.8418-.16211 1.88723 1.88723 0 0 1 -.68359-.459 2.201 2.201 0 0 1 -.46387-.76464 3.08026 3.08026 0 0 1 -.1709-1.07129 3.29527 3.29527 0 0 1 .13477-.9585 2.28068 2.28068 0 0 1 .40527-.77832 1.92634 1.92634 0 0 1 .67481-.52686 2.1729 2.1729 0 0 1 .94531-.19335 2.19491 2.19491 0 0 1 .9541.19335 1.9494 1.9494 0 0 1 .6748.52247 2.15651 2.15651 0 0 1 .40039.77832 3.44475 3.44475 0 0 1 .13086.96289 3.102 3.102 0 0 1 -.15332 1.00781 2.25681 2.25681 0 0 1 -.43652.77441 1.92388 1.92388 0 0 1 -.68359.49951 2.19247 2.19247 0 0 1 -.88672.17531zm1.584-2.457a3.207 3.207 0 0 0 -.08984-.77393 1.84926 1.84926 0 0 0 -.2793-.62549 1.34649 1.34649 0 0 0 -.48535-.41845 1.58036 1.58036 0 0 0 -.72949-.15284 1.47972 1.47972 0 0 0 -.72461.166 1.41877 1.41877 0 0 0 -.49024.44141 1.95376 1.95376 0 0 0 -.27929.62988 2.996 2.996 0 0 0 -.08985.7334 2.89193 2.89193 0 0 0 .10352.79638 1.87381 1.87381 0 0 0 .30176.62549 1.35035 1.35035 0 0 0 .49511.40528 1.54338 1.54338 0 0 0 .6836.144 1.47979 1.47979 0 0 0 .72461-.16651 1.40214 1.40214 0 0 0 .49023-.4458 2.007 2.007 0 0 0 .2793-.62988 2.94337 2.94337 0 0 0 .08982-.72897z"/><path d="m162.53906 120.43555c.07129.0122.14551.02392.21973.03613a1.43535 1.43535 0 0 0 .22949.01807.49969.49969 0 0 0 .36914-.14356 1.20729 1.20729 0 0 0 .23926-.34619 2.9103 2.9103 0 0 0 .15723-.42236 1.9624 1.9624 0 0 1 .14355-.37305l-1.80859-4.69092h.60254l1.49414 4.00488 1.49414-4.00488h.585l-1.73731 4.59912q-.16113.44092-.31054.792a3.51925 3.51925 0 0 1 -.31446.59863 1.313 1.313 0 0 1 -.36914.37793.87043.87043 0 0 1 -.48144.13037 1.97706 1.97706 0 0 1 -.27442-.01807 2.25978 2.25978 0 0 1 -.23828-.04492z"/><path d="m167.543 119.17578h-.54v-4.66211h.54v.70215h.01758a1.42129 1.42129 0 0 1 .59375-.6167 1.74253 1.74253 0 0 1 .84668-.21142 1.80819 1.80819 0 0 1 .54882.07226 1.247 1.247 0 0 1 .38282.19336 1.12336 1.12336 0 0 1 .26074.28369 2.01048 2.01048 0 0 1 .17578.35059 1.56713 1.56713 0 0 1 .625-.6792 1.793 1.793 0 0 1 .89551-.2207 1.56881 1.56881 0 0 1 .76074.15771 1.144 1.144 0 0 1 .43652.41406 1.60524 1.60524 0 0 1 .20215.58936 4.62172 4.62172 0 0 1 .04981.68408v2.94287h-.54v-3.22217a1.31031 1.31031 0 0 0 -.21192-.792.9204.9204 0 0 0 -.78711-.2876 1.3032 1.3032 0 0 0 -1.05273.53077 1.02928 1.02928 0 0 0 -.14844.27441 2.23682 2.23682 0 0 0 -.09472.32861 2.5859 2.5859 0 0 0 -.04981.3418c-.00879.11426-.01367.21924-.01367.31494v2.51123h-.54v-3.22217a1.31708 1.31708 0 0 0 -.21094-.792.92252.92252 0 0 0 -.78808-.2876 1.3032 1.3032 0 0 0 -1.05274.53077 1.05735 1.05735 0 0 0 -.14843.27441 2.36265 2.36265 0 0 0 -.09473.32861 2.75575 2.75575 0 0 0 -.04883.3418c-.00976.11426-.01367.21924-.01367.31494z"/><path d="m174.9043 116.9707a2.518 2.518 0 0 0 .09863.71582 1.72269 1.72269 0 0 0 .292.585 1.41679 1.41679 0 0 0 .49121.396 1.51132 1.51132 0 0 0 .6836.14844 1.48746 1.48746 0 0 0 .90918-.2793 1.34148 1.34148 0 0 0 .5039-.792h.60352a2.907 2.907 0 0 1 -.26172.6167 1.9086 1.9086 0 0 1 -.4043.49512 1.74651 1.74651 0 0 1 -.57617.32812 2.3351 2.3351 0 0 1 -.77441.11719 2.25811 2.25811 0 0 1 -.96289-.189 1.8159 1.8159 0 0 1 -.666-.51758 2.18444 2.18444 0 0 1 -.38672-.77392 3.51009 3.51009 0 0 1 -.126-.9585 3.03625 3.03625 0 0 1 .14844-.96289 2.4321 2.4321 0 0 1 .42285-.7876 1.96186 1.96186 0 0 1 .6709-.53125 2.02185 2.02185 0 0 1 .89942-.19335 1.858 1.858 0 0 1 1.51172.66162 2.90554 2.90554 0 0 1 .54 1.92138zm3.042-.4497a2.15683 2.15683 0 0 0 -.09473-.64356 1.5096 1.5096 0 0 0 -.27929-.522 1.32465 1.32465 0 0 0 -.46387-.35108 1.48947 1.48947 0 0 0 -.63867-.13037 1.42484 1.42484 0 0 0 -.63477.13477 1.45979 1.45979 0 0 0 -.46777.35986 1.82428 1.82428 0 0 0 -.31055.522 2.39582 2.39582 0 0 0 -.15234.63038z"/><path d="m180.11621 119.17578h-.54v-4.66211h.54v.64795a3.418 3.418 0 0 1 .66992-.55762 1.54453 1.54453 0 0 1 .833-.2163 2.13536 2.13536 0 0 1 .80078.14843 1.36662 1.36662 0 0 1 .6211.51758 1.1755 1.1755 0 0 1 .20214.51758 4.59831 4.59831 0 0 1 .03125.55371v3.05078h-.54v-3.042a1.39079 1.39079 0 0 0 -.27833-.94483 1.18648 1.18648 0 0 0 -.92773-.31494 1.32313 1.32313 0 0 0 -.459.07618 1.46073 1.46073 0 0 0 -.37305.20263 1.36518 1.36518 0 0 0 -.46387.62988 1.71375 1.71375 0 0 0 -.09863.43213q-.01758.20729-.01758.44971z"/><path d="m186.21777 119.19385q-.0996.01758-.26074.063a1.35845 1.35845 0 0 1 -.36035.04492.85455.85455 0 0 1 -.61621-.20264.98231.98231 0 0 1 -.21192-.72412v-3.41113h-.65722v-.4502h.65722v-1.2959h.54v1.2959h.873v.4502h-.873v3.19482q0 .17139.00879.29688a.48856.48856 0 0 0 .05469.207.25486.25486 0 0 0 .13867.11719.77655.77655 0 0 0 .26563.03613 1.37205 1.37205 0 0 0 .2207-.01807c.0752-.01221.14844-.02685.2207-.04492z"/><path d="m142.0498 144.44434a1.8546 1.8546 0 0 0 -.70214-1.17872 2.327 2.327 0 0 0 -1.34082-.35107 1.97293 1.97293 0 0 0 -1.70606.86377 2.7904 2.7904 0 0 0 -.4043.91357 4.46338 4.46338 0 0 0 -.13086 1.09375 5.01539 5.01539 0 0 0 .11231 1.062 2.8116 2.8116 0 0 0 .374.93115 1.97114 1.97114 0 0 0 .70215.66162 2.203 2.203 0 0 0 1.10645.252 2.04163 2.04163 0 0 0 .75586-.13476 1.89169 1.89169 0 0 0 .59863-.37354 2.19108 2.19108 0 0 0 .43262-.5625 2.85085 2.85085 0 0 0 .26464-.71094h.63965a4.066 4.066 0 0 1 -.31543.88624 2.52192 2.52192 0 0 1 -.54394.73339 2.47983 2.47983 0 0 1 -.81934.49952 3.15 3.15 0 0 1 -1.12988.18457 2.74739 2.74739 0 0 1 -1.27734-.27442 2.43082 2.43082 0 0 1 -.86914-.74267 3.10953 3.10953 0 0 1 -.49024-1.08448 5.39 5.39 0 0 1 -.15332-1.30957 4.76148 4.76148 0 0 1 .22949-1.5747 2.82153 2.82153 0 0 1 .63477-1.05762 2.40045 2.40045 0 0 1 .9541-.59375 3.735 3.735 0 0 1 1.19727-.18457 3.1443 3.1443 0 0 1 .92187.13037 2.2761 2.2761 0 0 1 .75684.3916 2.11941 2.11941 0 0 1 .53906.64356 2.68328 2.68328 0 0 1 .293.88623z"/><path d="m144.43457 149.04346h-.54v-4.66211h.54v.873h.01855a1.55655 1.55655 0 0 1 .58008-.77832 1.76851 1.76851 0 0 1 .94043-.2207v.585a1.578 1.578 0 0 0 -.75586.144 1.24521 1.24521 0 0 0 -.47265.41406 1.63644 1.63644 0 0 0 -.24317.6167 3.97726 3.97726 0 0 0 -.06738.74218z"/><path d="m146.919 143.36426v-.80078h.59375v.80078zm.02636 5.6792v-4.66211h.54v4.66211z"/><path d="m149.33008 149.04346h-.54v-4.66211h.54v.70215h.01758a1.42129 1.42129 0 0 1 .59375-.6167 1.74243 1.74243 0 0 1 .84668-.21143 1.80817 1.80817 0 0 1 .54882.07227 1.24678 1.24678 0 0 1 .38282.19336 1.12319 1.12319 0 0 1 .26074.28369 2.01074 2.01074 0 0 1 .17578.35058 1.56724 1.56724 0 0 1 .625-.6792 1.793 1.793 0 0 1 .89551-.2207 1.5688 1.5688 0 0 1 .76074.15772 1.144 1.144 0 0 1 .43652.41406 1.60525 1.60525 0 0 1 .20215.58935 4.62186 4.62186 0 0 1 .04981.68409v2.94287h-.54v-3.22217a1.31036 1.31036 0 0 0 -.21192-.792.92038.92038 0 0 0 -.78711-.2876 1.30319 1.30319 0 0 0 -1.05273.53076 1.02906 1.02906 0 0 0 -.14844.27442 2.23682 2.23682 0 0 0 -.09472.32861 2.5859 2.5859 0 0 0 -.04981.3418c-.00879.11425-.01367.21923-.01367.31494v2.51123h-.54v-3.22217a1.31706 1.31706 0 0 0 -.21094-.792.92249.92249 0 0 0 -.78808-.2876 1.30322 1.30322 0 0 0 -1.05274.53076 1.05773 1.05773 0 0 0 -.14844.27442 2.364 2.364 0 0 0 -.09472.32861 2.75575 2.75575 0 0 0 -.04883.3418c-.00977.11425-.01367.21923-.01367.31494z"/><path d="m156.69238 146.83838a2.51809 2.51809 0 0 0 .09864.71582 1.7226 1.7226 0 0 0 .292.585 1.4167 1.4167 0 0 0 .49121.396 1.51127 1.51127 0 0 0 .68359.14843 1.4875 1.4875 0 0 0 .90918-.27929 1.34149 1.34149 0 0 0 .50391-.792h.60351a2.90674 2.90674 0 0 1 -.26171.6167 1.90867 1.90867 0 0 1 -.4043.49512 1.74653 1.74653 0 0 1 -.57617.32813 2.33539 2.33539 0 0 1 -.77442.11718 2.25811 2.25811 0 0 1 -.96289-.189 1.816 1.816 0 0 1 -.666-.51758 2.18423 2.18423 0 0 1 -.38672-.77393 3.50958 3.50958 0 0 1 -.126-.95849 3.03616 3.03616 0 0 1 .14844-.96289 2.43191 2.43191 0 0 1 .42285-.7876 1.96162 1.96162 0 0 1 .6709-.53125 2.02171 2.02171 0 0 1 .89941-.19336 1.858 1.858 0 0 1 1.51172.66162 2.90559 2.90559 0 0 1 .54 1.92139zm3.042-.44971a2.15677 2.15677 0 0 0 -.09473-.64355 1.50975 1.50975 0 0 0 -.2793-.522 1.32442 1.32442 0 0 0 -.46387-.35107 1.48941 1.48941 0 0 0 -.63867-.13037 1.42483 1.42483 0 0 0 -.63476.13476 1.4601 1.4601 0 0 0 -.46778.35987 1.82426 1.82426 0 0 0 -.31054.522 2.39567 2.39567 0 0 0 -.15235.63037z"/></g></svg>