<svg id="Layer_1" data-name="Layer 1" xmlns="http://www.w3.org/2000/svg" viewBox="0 0 262 173"><defs><style>.cls-1,.cls-4,.cls-5,.cls-6{fill:none;stroke-miterlimit:10;}.cls-1{stroke:#d8d8d8;stroke-width:0.5px;}.cls-2{fill:#1d1d1b;}.cls-3{fill:#19233e;}.cls-4,.cls-5,.cls-6{stroke:#c40d3c;}.cls-5{stroke-dasharray:2.3202 2.3202 2.3202 2.3202;}.cls-6{stroke-dasharray:1.89406 1.89406 1.89406 1.89406;}</style></defs><line class="cls-1" x1="28.7397" y1="133.32378" x2="218.55267" y2="133.32378"/><path class="cls-2" d="M18.68262,135.6377a1.07841,1.07841,0,0,0,.40332.75292,1.32464,1.32464,0,0,0,.81543.248,1.20171,1.20171,0,0,0,.49316-.09765,1.09679,1.09679,0,0,0,.374-.26954,1.16234,1.16234,0,0,0,.23536-.39941,1.48815,1.48815,0,0,0,.08007-.49316,1.408,1.408,0,0,0-.08789-.50391,1.191,1.191,0,0,0-.24414-.39941,1.0657,1.0657,0,0,0-.38574-.25879,1.35381,1.35381,0,0,0-.50683-.09082,1.43428,1.43428,0,0,0-.60254.12207,1.249,1.249,0,0,0-.46875.38867l-.3711-.04883.39942-2.55469h2.44921v.37793H19.19434l-.3086,1.65918c.09864-.06054.18848-.1123.26953-.15429a1.49849,1.49849,0,0,1,.249-.10157,1.428,1.428,0,0,1,.26172-.05273c.09179-.00879.19336-.01367.30468-.01367a1.68649,1.68649,0,0,1,.623.1123,1.39592,1.39592,0,0,1,.82227.83594,1.91028,1.91028,0,0,1,.11621.68262,1.75329,1.75329,0,0,1-.12989.69629,1.54147,1.54147,0,0,1-.34668.51464,1.47086,1.47086,0,0,1-.5.31836,1.62547,1.62547,0,0,1-.585.1084,2.96217,2.96217,0,0,1-.65429-.06933,1.48665,1.48665,0,0,1-.53516-.23438,1.26221,1.26221,0,0,1-.375-.42773,1.57593,1.57593,0,0,1-.1709-.64746Z"/><path class="cls-2" d="M23.82812,131.98438a1.66723,1.66723,0,0,1,.62989.10839,1.31112,1.31112,0,0,1,.45117.29688,1.539,1.539,0,0,1,.30176.4414,2.73157,2.73157,0,0,1,.17773.53516,3.9263,3.9263,0,0,1,.084.585q.022.3003.02148.58789a6.037,6.037,0,0,1-.07031.9375,2.46173,2.46173,0,0,1-.25488.791,1.43884,1.43884,0,0,1-.50782.5459,1.53653,1.53653,0,0,1-.833.20312,1.55779,1.55779,0,0,1-.83691-.20312,1.43237,1.43237,0,0,1-.51074-.54883,2.48726,2.48726,0,0,1-.25586-.80567,6.50633,6.50633,0,0,1-.06934-.96875,6.58334,6.58334,0,0,1,.0625-.917,2.55044,2.55044,0,0,1,.24219-.80176,1.45728,1.45728,0,0,1,.50684-.57031A1.54251,1.54251,0,0,1,23.82812,131.98438Zm1.21778,2.50585a6.61277,6.61277,0,0,0-.04492-.78125,2.39622,2.39622,0,0,0-.17871-.68164,1.19432,1.19432,0,0,0-.375-.48339,1.02638,1.02638,0,0,0-.63282-.18165.943.943,0,0,0-.60547.18555,1.2342,1.2342,0,0,0-.36816.49317,2.6406,2.6406,0,0,0-.18555.70019,5.97361,5.97361,0,0,0-.05175.79785,5.8203,5.8203,0,0,0,.05859.86426,2.17669,2.17669,0,0,0,.20019.66211.99787.99787,0,0,0,.96582.57324.99105.99105,0,0,0,.64063-.19531,1.23814,1.23814,0,0,0,.36719-.50488,2.52542,2.52542,0,0,0,.168-.69239A6.892,6.892,0,0,0,25.0459,134.49023Z"/><path class="cls-2" d="M18.68262,125.41113a1.07841,1.07841,0,0,0,.40332.75293,1.32464,1.32464,0,0,0,.81543.248,1.20171,1.20171,0,0,0,.49316-.09766,1.09676,1.09676,0,0,0,.374-.26953,1.16243,1.16243,0,0,0,.23536-.39941,1.48817,1.48817,0,0,0,.08007-.49317,1.40789,1.40789,0,0,0-.08789-.5039,1.19117,1.19117,0,0,0-.24414-.39942,1.066,1.066,0,0,0-.38574-.25879,1.354,1.354,0,0,0-.50683-.09082,1.43444,1.43444,0,0,0-.60254.12207,1.24916,1.24916,0,0,0-.46875.38868l-.3711-.04883.39942-2.55469h2.44921v.37793H19.19434l-.3086,1.65918c.09864-.06055.18848-.1123.26953-.1543a1.49929,1.49929,0,0,1,.249-.10156,1.428,1.428,0,0,1,.26172-.05273c.09179-.00879.19336-.01368.30468-.01368a1.68629,1.68629,0,0,1,.623.11231,1.39592,1.39592,0,0,1,.82227.83594,1.91027,1.91027,0,0,1,.11621.68261,1.75322,1.75322,0,0,1-.12989.69629,1.54151,1.54151,0,0,1-.34668.51465,1.47086,1.47086,0,0,1-.5.31836,1.62547,1.62547,0,0,1-.585.1084,2.96156,2.96156,0,0,1-.65429-.06934,1.48663,1.48663,0,0,1-.53516-.23437,1.26216,1.26216,0,0,1-.375-.42774,1.57584,1.57584,0,0,1-.1709-.64746Z"/><path class="cls-2" d="M23.99609,123.02441H22.72168v-.29394c.18652-.01367.35644-.03223.50781-.05567a1.15393,1.15393,0,0,0,.39942-.13378.80407.80407,0,0,0,.28711-.28321,1.42871,1.42871,0,0,0,.17089-.5h.35743v4.93457h-.44825Z"/><path class="cls-2" d="M18.68262,115.18457a1.07843,1.07843,0,0,0,.40332.75293,1.32464,1.32464,0,0,0,.81543.24805,1.20171,1.20171,0,0,0,.49316-.09766,1.09676,1.09676,0,0,0,.374-.26953,1.16243,1.16243,0,0,0,.23536-.39941,1.48817,1.48817,0,0,0,.08007-.49317,1.40789,1.40789,0,0,0-.08789-.5039,1.19117,1.19117,0,0,0-.24414-.39942,1.06582,1.06582,0,0,0-.38574-.25879,1.35381,1.35381,0,0,0-.50683-.09082,1.43444,1.43444,0,0,0-.60254.12207,1.24913,1.24913,0,0,0-.46875.38867l-.3711-.04882.39942-2.55469h2.44921v.37793H19.19434l-.3086,1.65918c.09864-.06055.18848-.11231.26953-.1543a1.49929,1.49929,0,0,1,.249-.10156,1.42884,1.42884,0,0,1,.26172-.05274c.09179-.00879.19336-.01367.30468-.01367a1.68629,1.68629,0,0,1,.623.11231,1.39594,1.39594,0,0,1,.82227.83593,1.91036,1.91036,0,0,1,.11621.68262,1.75322,1.75322,0,0,1-.12989.69629,1.54151,1.54151,0,0,1-.34668.51465,1.471,1.471,0,0,1-.5.31836,1.62569,1.62569,0,0,1-.585.1084,2.96156,2.96156,0,0,1-.65429-.06934,1.48663,1.48663,0,0,1-.53516-.23437,1.26225,1.26225,0,0,1-.375-.42774,1.57584,1.57584,0,0,1-.1709-.64746Z"/><path class="cls-2" d="M22.36523,113.14746a1.85247,1.85247,0,0,1,.11231-.66113,1.40253,1.40253,0,0,1,.8291-.83985,1.99347,1.99347,0,0,1,1.31641-.00683,1.43446,1.43446,0,0,1,.47558.29,1.181,1.181,0,0,1,.29.43457,1.546,1.546,0,0,1-.00976,1.1123,1.59873,1.59873,0,0,1-.28711.44824,2.26141,2.26141,0,0,1-.40625.34961q-.22705.15528-.46582.291-.23731.13623-.46875.26269a3.1728,3.1728,0,0,0-.41309.26563c-.0791.06055-.15625.125-.23047.19238a1.664,1.664,0,0,0-.20312.22071,1.06427,1.06427,0,0,0-.14746.26269.96614.96614,0,0,0-.0625.31836h2.751v.37793H22.21777a2.96505,2.96505,0,0,1,.07715-.64355,1.3396,1.3396,0,0,1,.3086-.56055,3.61232,3.61232,0,0,1,.53515-.50391q.27685-.20947.542-.374.26661-.16553.50489-.30176a2.56607,2.56607,0,0,0,.41992-.29687,1.23963,1.23963,0,0,0,.28613-.36426,1.06882,1.06882,0,0,0,.10547-.49707,1.04664,1.04664,0,0,0-.084-.42676.93862.93862,0,0,0-.23145-.32227.954.954,0,0,0-.34277-.19921,1.30336,1.30336,0,0,0-.42676-.06641.9569.9569,0,0,0-.44434.10156,1.088,1.088,0,0,0-.34277.26953,1.17508,1.17508,0,0,0-.2207.39161,1.23969,1.23969,0,0,0-.06348.47558Z"/><path class="cls-2" d="M18.68262,104.959a1.07841,1.07841,0,0,0,.40332.75293,1.32464,1.32464,0,0,0,.81543.248,1.20171,1.20171,0,0,0,.49316-.09766,1.09663,1.09663,0,0,0,.374-.26953,1.16234,1.16234,0,0,0,.23536-.39941,1.48815,1.48815,0,0,0,.08007-.49316,1.40794,1.40794,0,0,0-.08789-.50391,1.191,1.191,0,0,0-.24414-.39941,1.0657,1.0657,0,0,0-.38574-.25879,1.35381,1.35381,0,0,0-.50683-.09082,1.43428,1.43428,0,0,0-.60254.12207,1.249,1.249,0,0,0-.46875.38867l-.3711-.04883.39942-2.55469h2.44921v.37793H19.19434l-.3086,1.65918c.09864-.06055.18848-.1123.26953-.1543a1.49929,1.49929,0,0,1,.249-.10156,1.428,1.428,0,0,1,.26172-.05273c.09179-.00879.19336-.01367.30468-.01367a1.68649,1.68649,0,0,1,.623.1123,1.39592,1.39592,0,0,1,.82227.83594,1.91028,1.91028,0,0,1,.11621.68262,1.75321,1.75321,0,0,1-.12989.69628,1.54151,1.54151,0,0,1-.34668.51465,1.47086,1.47086,0,0,1-.5.31836,1.62547,1.62547,0,0,1-.585.1084,2.96156,2.96156,0,0,1-.65429-.06934,1.48663,1.48663,0,0,1-.53516-.23437,1.26221,1.26221,0,0,1-.375-.42773,1.57594,1.57594,0,0,1-.1709-.64747Z"/><path class="cls-2" d="M23.42871,103.49609a3.96921,3.96921,0,0,0,.57422-.03808,1.22229,1.22229,0,0,0,.44434-.14746.78977.78977,0,0,0,.291-.29.93979.93979,0,0,0,.10449-.46973.85656.85656,0,0,0-.084-.39551.74242.74242,0,0,0-.22754-.26855.94825.94825,0,0,0-.33594-.1543,1.59919,1.59919,0,0,0-.40234-.04883,1.16584,1.16584,0,0,0-.43067.07618.95566.95566,0,0,0-.332.2207,1.00447,1.00447,0,0,0-.21679.33594,1.12475,1.12475,0,0,0-.07715.42382h-.44824a1.42742,1.42742,0,0,1,.47558-1.10644,1.09907,1.09907,0,0,1,.52149-.26953,3.02812,3.02812,0,0,1,.59863-.0586,1.9898,1.9898,0,0,1,.5498.07325,1.26137,1.26137,0,0,1,.44434.22363,1.0793,1.0793,0,0,1,.30078.38184,1.21665,1.21665,0,0,1,.11231.53906,1.24848,1.24848,0,0,1-.17188.665,1.109,1.109,0,0,1-.52832.43359,1.36,1.36,0,0,1,.4375.2207,1.12324,1.12324,0,0,1,.26953.30078,1.07492,1.07492,0,0,1,.13281.34668,1.84485,1.84485,0,0,1,.03516.34961,1.55892,1.55892,0,0,1-.10449.57422,1.35564,1.35564,0,0,1-.3086.46875,1.50466,1.50466,0,0,1-.5.32617,1.85065,1.85065,0,0,1-.67578.12891,3.18976,3.18976,0,0,1-.74218-.07617,1.25672,1.25672,0,0,1-.52442-.25586,1.192,1.192,0,0,1-.3291-.46875,2.61466,2.61466,0,0,1-.16113-.72461h.44824a1.06777,1.06777,0,0,0,.33887.85742,1.31638,1.31638,0,0,0,.88574.29,1.346,1.346,0,0,0,.49707-.09082,1.22625,1.22625,0,0,0,.39551-.24512,1.06859,1.06859,0,0,0,.252-.35644.979.979,0,0,0,.08105-.41992,1.01616,1.01616,0,0,0-.14062-.501.908.908,0,0,0-.33887-.31543,1.46468,1.46468,0,0,0-.501-.15332,3.1241,3.1241,0,0,0-.60938-.01758Z"/><path class="cls-2" d="M18.68262,94.73242a1.07841,1.07841,0,0,0,.40332.75293,1.32464,1.32464,0,0,0,.81543.24805,1.20171,1.20171,0,0,0,.49316-.09766,1.09676,1.09676,0,0,0,.374-.26953,1.16243,1.16243,0,0,0,.23536-.39941,1.48817,1.48817,0,0,0,.08007-.49317,1.40789,1.40789,0,0,0-.08789-.5039,1.19117,1.19117,0,0,0-.24414-.39942,1.06582,1.06582,0,0,0-.38574-.25879,1.354,1.354,0,0,0-.50683-.09082,1.43444,1.43444,0,0,0-.60254.12207,1.24907,1.24907,0,0,0-.46875.38868l-.3711-.04883.39942-2.55469h2.44921v.37793H19.19434l-.3086,1.65918c.09864-.06055.18848-.11231.26953-.1543a1.49929,1.49929,0,0,1,.249-.10156,1.428,1.428,0,0,1,.26172-.05273c.09179-.00879.19336-.01368.30468-.01368a1.68629,1.68629,0,0,1,.623.11231,1.39592,1.39592,0,0,1,.82227.83594,1.91027,1.91027,0,0,1,.11621.68261,1.75322,1.75322,0,0,1-.12989.69629,1.54151,1.54151,0,0,1-.34668.51465,1.471,1.471,0,0,1-.5.31836,1.62547,1.62547,0,0,1-.585.1084,2.96156,2.96156,0,0,1-.65429-.06934,1.48663,1.48663,0,0,1-.53516-.23437,1.26216,1.26216,0,0,1-.375-.42774,1.57584,1.57584,0,0,1-.1709-.64746Z"/><path class="cls-2" d="M24.3877,94.7959H22.13379v-.38477l2.2959-3.2832h.40625v3.29h.68652v.37793h-.68652v1.21777H24.3877ZM22.5752,94.418h1.8125V91.7998Z"/><path class="cls-2" d="M18.68262,84.50586a1.07843,1.07843,0,0,0,.40332.75293,1.32464,1.32464,0,0,0,.81543.248,1.20171,1.20171,0,0,0,.49316-.09766,1.09676,1.09676,0,0,0,.374-.26953,1.16239,1.16239,0,0,0,.23536-.39942,1.48811,1.48811,0,0,0,.08007-.49316,1.408,1.408,0,0,0-.08789-.50391,1.19112,1.19112,0,0,0-.24414-.39941,1.06582,1.06582,0,0,0-.38574-.25879,1.35381,1.35381,0,0,0-.50683-.09082,1.43444,1.43444,0,0,0-.60254.12207,1.249,1.249,0,0,0-.46875.38867l-.3711-.04883.39942-2.55468h2.44921v.37793H19.19434l-.3086,1.65918c.09864-.06055.18848-.11231.26953-.1543a1.49929,1.49929,0,0,1,.249-.10156,1.42884,1.42884,0,0,1,.26172-.05274c.09179-.00879.19336-.01367.30468-.01367a1.68629,1.68629,0,0,1,.623.11231,1.39587,1.39587,0,0,1,.82227.83593,1.91036,1.91036,0,0,1,.11621.68262,1.75326,1.75326,0,0,1-.12989.69629,1.54161,1.54161,0,0,1-.34668.51465,1.471,1.471,0,0,1-.5.31836,1.62569,1.62569,0,0,1-.585.1084,2.96156,2.96156,0,0,1-.65429-.06934,1.48665,1.48665,0,0,1-.53516-.23438,1.26221,1.26221,0,0,1-.375-.42773,1.57584,1.57584,0,0,1-.1709-.64746Z"/><path class="cls-2" d="M22.5752,84.50586a1.07757,1.07757,0,0,0,.40234.75293,1.32664,1.32664,0,0,0,.81543.248,1.19845,1.19845,0,0,0,.49316-.09766,1.09147,1.09147,0,0,0,.375-.26953,1.1758,1.1758,0,0,0,.23438-.39942,1.46342,1.46342,0,0,0,.081-.49316,1.408,1.408,0,0,0-.08789-.50391,1.19349,1.19349,0,0,0-.24512-.39941,1.06187,1.06187,0,0,0-.38476-.25879,1.36261,1.36261,0,0,0-.50781-.09082,1.42991,1.42991,0,0,0-.60157.12207,1.25934,1.25934,0,0,0-.46972.38867l-.3711-.04883.39942-2.55468H25.1582v.37793H23.08594l-.30762,1.65918c.09766-.06055.1875-.11231.26953-.1543a1.45675,1.45675,0,0,1,.248-.10156,1.43923,1.43923,0,0,1,.26269-.05274c.09082-.00879.19239-.01367.30469-.01367a1.69,1.69,0,0,1,.623.11231,1.43053,1.43053,0,0,1,.49707.32128,1.44811,1.44811,0,0,1,.32519.51465,1.91032,1.91032,0,0,1,.11524.68262,1.77073,1.77073,0,0,1-.12891.69629,1.55646,1.55646,0,0,1-.34668.51465,1.46576,1.46576,0,0,1-.501.31836,1.62057,1.62057,0,0,1-.584.1084,2.95531,2.95531,0,0,1-.6543-.06934,1.499,1.499,0,0,1-.53613-.23438,1.27009,1.27009,0,0,1-.374-.42773,1.57553,1.57553,0,0,1-.17188-.64746Z"/><path class="cls-2" d="M18.68262,74.2793a1.07845,1.07845,0,0,0,.40332.75293,1.32463,1.32463,0,0,0,.81543.248,1.20171,1.20171,0,0,0,.49316-.09765,1.0969,1.0969,0,0,0,.374-.26953,1.16239,1.16239,0,0,0,.23536-.39942,1.48815,1.48815,0,0,0,.08007-.49316,1.408,1.408,0,0,0-.08789-.50391,1.191,1.191,0,0,0-.24414-.39941,1.06582,1.06582,0,0,0-.38574-.25879,1.35381,1.35381,0,0,0-.50683-.09082,1.43428,1.43428,0,0,0-.60254.12207,1.249,1.249,0,0,0-.46875.38867l-.3711-.04883.39942-2.55469h2.44921v.37793H19.19434l-.3086,1.65918c.09864-.06054.18848-.1123.26953-.15429a1.49934,1.49934,0,0,1,.249-.10157,1.42883,1.42883,0,0,1,.26172-.05273c.09179-.00879.19336-.01367.30468-.01367a1.68649,1.68649,0,0,1,.623.1123,1.39592,1.39592,0,0,1,.82227.83594,1.91032,1.91032,0,0,1,.11621.68262,1.75326,1.75326,0,0,1-.12989.69629,1.54161,1.54161,0,0,1-.34668.51465,1.471,1.471,0,0,1-.5.31835,1.62547,1.62547,0,0,1-.585.1084,2.96157,2.96157,0,0,1-.65429-.06933,1.48665,1.48665,0,0,1-.53516-.23438,1.26221,1.26221,0,0,1-.375-.42773,1.57593,1.57593,0,0,1-.1709-.64746Z"/><path class="cls-2" d="M24.94141,71.83691a1.14661,1.14661,0,0,0-.3086-.60546.85372.85372,0,0,0-.62988-.22754,1.09507,1.09507,0,0,0-.71777.21679,1.41469,1.41469,0,0,0-.40235.54981,2.73482,2.73482,0,0,0-.18847.72363q-.04981.39258-.07715.74219c.07031-.09278.14355-.18653.2207-.2793a1.47,1.47,0,0,1,.26172-.249,1.25023,1.25023,0,0,1,.34375-.17481,1.44659,1.44659,0,0,1,.46875-.0664,1.53572,1.53572,0,0,1,1.1582.42285,1.87117,1.87117,0,0,1-.00293,2.3418,1.549,1.549,0,0,1-1.16894.42675,1.88931,1.88931,0,0,1-.68653-.12207,1.3301,1.3301,0,0,1-.54589-.40234,2.04391,2.04391,0,0,1-.36426-.73145A3.94632,3.94632,0,0,1,22.169,73.2998a5.64366,5.64366,0,0,1,.07714-.91406,2.959,2.959,0,0,1,.27637-.86426,1.7822,1.7822,0,0,1,.5459-.64355,1.481,1.481,0,0,1,.89258-.252,1.53982,1.53982,0,0,1,.98047.30761,1.28492,1.28492,0,0,1,.46191.90332Zm-1.043,1.00782a1.072,1.072,0,0,0-.46582.09765,1.02918,1.02918,0,0,0-.34961.2666,1.186,1.186,0,0,0-.22071.3877,1.41567,1.41567,0,0,0-.07714.47266,1.55763,1.55763,0,0,0,.05957.42382,1.04585,1.04585,0,0,0,1.06054.78711,1.15982,1.15982,0,0,0,.52832-.10839.97273.97273,0,0,0,.34668-.28711,1.17873,1.17873,0,0,0,.19239-.39844,1.72623,1.72623,0,0,0,.05957-.44434,1.29361,1.29361,0,0,0-.27637-.88574A1.08913,1.08913,0,0,0,23.89844,72.84473Z"/><path class="cls-2" d="M18.68262,64.05273a1.07841,1.07841,0,0,0,.40332.75293,1.32464,1.32464,0,0,0,.81543.248,1.20171,1.20171,0,0,0,.49316-.09766,1.09676,1.09676,0,0,0,.374-.26953,1.16234,1.16234,0,0,0,.23536-.39941A1.48815,1.48815,0,0,0,21.084,63.794a1.40794,1.40794,0,0,0-.08789-.50391,1.19117,1.19117,0,0,0-.24414-.39942,1.0658,1.0658,0,0,0-.38574-.25878,1.35381,1.35381,0,0,0-.50683-.09082,1.43428,1.43428,0,0,0-.60254.12207,1.249,1.249,0,0,0-.46875.38867l-.3711-.04883.39942-2.55469h2.44921v.37793H19.19434l-.3086,1.65918c.09864-.06055.18848-.1123.26953-.1543a1.49929,1.49929,0,0,1,.249-.10156,1.428,1.428,0,0,1,.26172-.05273c.09179-.00879.19336-.01367.30468-.01367a1.68649,1.68649,0,0,1,.623.1123,1.39592,1.39592,0,0,1,.82227.83594,1.91028,1.91028,0,0,1,.11621.68262,1.75321,1.75321,0,0,1-.12989.69628,1.54151,1.54151,0,0,1-.34668.51465,1.47086,1.47086,0,0,1-.5.31836,1.62547,1.62547,0,0,1-.585.1084,2.96156,2.96156,0,0,1-.65429-.06934,1.48663,1.48663,0,0,1-.53516-.23437,1.26221,1.26221,0,0,1-.375-.42773,1.57594,1.57594,0,0,1-.1709-.64747Z"/><path class="cls-2" d="M22.29492,60.44824h3.14356v.41992a7.85215,7.85215,0,0,0-.90332,1.23536,9.2145,9.2145,0,0,0-.60938,1.23242,7.44254,7.44254,0,0,0-.35351,1.11621,5.607,5.607,0,0,0-.13575.88183h-.49023a5.21427,5.21427,0,0,1,.21289-1.13086,9.41743,9.41743,0,0,1,.44531-1.18652,10.35347,10.35347,0,0,1,.60156-1.13672,8.65608,8.65608,0,0,1,.69336-.98437H22.29492Z"/><path class="cls-2" d="M18.68262,53.82715a1.07843,1.07843,0,0,0,.40332.75293,1.32463,1.32463,0,0,0,.81543.248,1.20171,1.20171,0,0,0,.49316-.09765,1.09676,1.09676,0,0,0,.374-.26953,1.16239,1.16239,0,0,0,.23536-.39942,1.48811,1.48811,0,0,0,.08007-.49316,1.408,1.408,0,0,0-.08789-.50391A1.19112,1.19112,0,0,0,20.752,52.665a1.06582,1.06582,0,0,0-.38574-.25879,1.35381,1.35381,0,0,0-.50683-.09082,1.43444,1.43444,0,0,0-.60254.12207,1.249,1.249,0,0,0-.46875.38867l-.3711-.04883.39942-2.55468h2.44921v.37793H19.19434l-.3086,1.65918c.09864-.06055.18848-.11231.26953-.1543a1.49929,1.49929,0,0,1,.249-.10156,1.42884,1.42884,0,0,1,.26172-.05274c.09179-.00879.19336-.01367.30468-.01367a1.68649,1.68649,0,0,1,.623.1123,1.39592,1.39592,0,0,1,.82227.83594,1.91036,1.91036,0,0,1,.11621.68262,1.75326,1.75326,0,0,1-.12989.69629,1.54161,1.54161,0,0,1-.34668.51465,1.471,1.471,0,0,1-.5.31836,1.62567,1.62567,0,0,1-.585.10839,2.96157,2.96157,0,0,1-.65429-.06933,1.48665,1.48665,0,0,1-.53516-.23438,1.26221,1.26221,0,0,1-.375-.42773,1.57593,1.57593,0,0,1-.1709-.64746Z"/><path class="cls-2" d="M23.05078,52.45508a3.46812,3.46812,0,0,1-.31152-.21289,1.07574,1.07574,0,0,1-.21289-.22071.79021.79021,0,0,1-.123-.26953,1.561,1.561,0,0,1-.03809-.375,1.0422,1.0422,0,0,1,.11231-.47558,1.25374,1.25374,0,0,1,.30078-.38867,1.36328,1.36328,0,0,1,.44434-.25489,1.51411,1.51411,0,0,1,.5498-.084,2.20787,2.20787,0,0,1,.54883.06933,1.48166,1.48166,0,0,1,.47949.2168,1.06667,1.06667,0,0,1,.46192.917,1.29047,1.29047,0,0,1-.15723.65821,1.14716,1.14716,0,0,1-.51465.44824,1.3321,1.3321,0,0,1,.64063.46875,1.25066,1.25066,0,0,1,.23437.75586,1.60426,1.60426,0,0,1-.12207.64453,1.25106,1.25106,0,0,1-.35059.46875,1.56156,1.56156,0,0,1-.54882.28711,2.44556,2.44556,0,0,1-.71387.09765,1.73421,1.73421,0,0,1-.543-.09082,1.523,1.523,0,0,1-.49707-.27246,1.44827,1.44827,0,0,1-.36035-.45507,1.37591,1.37591,0,0,1-.13965-.6377,1.43891,1.43891,0,0,1,.21973-.78711A1.27673,1.27673,0,0,1,23.05078,52.45508Zm.78418.23828a1.69747,1.69747,0,0,0-.47558.06348,1.0559,1.0559,0,0,0-.37793.19238.87574.87574,0,0,0-.252.3291,1.11369,1.11369,0,0,0-.09179.47168,1.03444,1.03444,0,0,0,.08789.42773,1.01573,1.01573,0,0,0,.24511.33887,1.15173,1.15173,0,0,0,.38477.22754,1.44281,1.44281,0,0,0,.50781.084,1.26334,1.26334,0,0,0,.45508-.08007,1.12374,1.12374,0,0,0,.36719-.22754,1.0238,1.0238,0,0,0,.24511-.35059,1.111,1.111,0,0,0,.08789-.44726,1.05247,1.05247,0,0,0-.09179-.45215.89659.89659,0,0,0-.252-.32129,1.0641,1.0641,0,0,0-.37792-.19238A1.64955,1.64955,0,0,0,23.835,52.69336Zm-.02051-2.1416a1.33366,1.33366,0,0,0-.39257.05566.92831.92831,0,0,0-.31836.168.78349.78349,0,0,0-.21387.28027.9204.9204,0,0,0-.07617.38477.82734.82734,0,0,0,.08691.39551.78192.78192,0,0,0,.23438.26953,1.06372,1.06372,0,0,0,.33593.15723,1.45394,1.45394,0,0,0,.39258.05273,1.30949,1.30949,0,0,0,.37793-.05273.747.747,0,0,0,.30078-.1709.83949.83949,0,0,0,.19922-.30176,1.18029,1.18029,0,0,0,.07422-.44727.72407.72407,0,0,0-.24512-.585A1.15852,1.15852,0,0,0,23.81445,50.55176Z"/><path class="cls-2" d="M18.68262,43.60059a1.07845,1.07845,0,0,0,.40332.75293,1.3247,1.3247,0,0,0,.81543.248,1.20171,1.20171,0,0,0,.49316-.09765,1.0969,1.0969,0,0,0,.374-.26953,1.16248,1.16248,0,0,0,.23536-.39942,1.48815,1.48815,0,0,0,.08007-.49316,1.408,1.408,0,0,0-.08789-.50391,1.191,1.191,0,0,0-.24414-.39941,1.0657,1.0657,0,0,0-.38574-.25879,1.35381,1.35381,0,0,0-.50683-.09082,1.43428,1.43428,0,0,0-.60254.12207,1.249,1.249,0,0,0-.46875.38867l-.3711-.04883.39942-2.55469h2.44921V40.374H19.19434l-.3086,1.65918c.09864-.06054.18848-.1123.26953-.15429a1.49849,1.49849,0,0,1,.249-.10157,1.42883,1.42883,0,0,1,.26172-.05273c.09179-.00879.19336-.01367.30468-.01367a1.68649,1.68649,0,0,1,.623.1123,1.39592,1.39592,0,0,1,.82227.83594,1.91028,1.91028,0,0,1,.11621.68262,1.75326,1.75326,0,0,1-.12989.69629,1.54147,1.54147,0,0,1-.34668.51464,1.47086,1.47086,0,0,1-.5.31836,1.62547,1.62547,0,0,1-.585.1084,2.96217,2.96217,0,0,1-.65429-.06933,1.48665,1.48665,0,0,1-.53516-.23438,1.26221,1.26221,0,0,1-.375-.42773,1.57593,1.57593,0,0,1-.1709-.64746Z"/><path class="cls-2" d="M22.708,43.79688a1.0234,1.0234,0,0,0,.31152.60156.95453.95453,0,0,0,.64746.20312,1.06915,1.06915,0,0,0,.70313-.21679,1.43471,1.43471,0,0,0,.40625-.5459,2.68969,2.68969,0,0,0,.19629-.71094c.03515-.25391.05664-.49316.0664-.7168l-.01367-.01465a1.58926,1.58926,0,0,1-.55664.57422,1.493,1.493,0,0,1-.77344.19629,1.672,1.672,0,0,1-.62988-.1123,1.31525,1.31525,0,0,1-.47949-.32227,1.43343,1.43343,0,0,1-.3086-.5039,1.86632,1.86632,0,0,1-.10839-.6504,2.08335,2.08335,0,0,1,.09765-.64746,1.46206,1.46206,0,0,1,.29492-.51855,1.32427,1.32427,0,0,1,.49317-.34277,1.83262,1.83262,0,0,1,.70312-.12207,1.61908,1.61908,0,0,1,.83008.19531,1.49168,1.49168,0,0,1,.53125.53222,2.3767,2.3767,0,0,1,.28418.791,5.39342,5.39342,0,0,1,.084.97266,4.11828,4.11828,0,0,1-.13281,1.10254,2.39262,2.39262,0,0,1-.375.79492,1.57185,1.57185,0,0,1-.57031.48242,1.61863,1.61863,0,0,1-.7207.16113,2.038,2.038,0,0,1-.53907-.06933,1.254,1.254,0,0,1-.4414-.21778,1.12938,1.12938,0,0,1-.30762-.37011,1.37152,1.37152,0,0,1-.14746-.52539Zm1.0498-3.47168a1.0974,1.0974,0,0,0-.85351.3496,1.36437,1.36437,0,0,0-.28711.917,1.22982,1.22982,0,0,0,.29785.88183,1.10393,1.10393,0,0,0,.84277.31543,1.07226,1.07226,0,0,0,.46582-.09863,1.02358,1.02358,0,0,0,.34961-.26563,1.16664,1.16664,0,0,0,.21778-.38867,1.48864,1.48864,0,0,0,.07324-.47265,1.30581,1.30581,0,0,0-.294-.88477A1.05622,1.05622,0,0,0,23.75781,40.3252Z"/><path class="cls-2" d="M21.04883,30.93164a1.14563,1.14563,0,0,0-.30762-.60547.85684.85684,0,0,0-.62988-.22754,1.0933,1.0933,0,0,0-.71778.2168,1.405,1.405,0,0,0-.40234.5498,2.73548,2.73548,0,0,0-.18945.72364c-.03223.26172-.0586.50879-.07715.74218.07031-.09277.14355-.18652.2207-.27929a1.47617,1.47617,0,0,1,.2627-.249,1.23059,1.23059,0,0,1,.34277-.1748,1.45068,1.45068,0,0,1,.46875-.06641,1.53805,1.53805,0,0,1,1.15918.42286,1.8729,1.8729,0,0,1-.00391,2.34179,1.549,1.549,0,0,1-1.16894.42676,1.888,1.888,0,0,1-.68555-.12207,1.32389,1.32389,0,0,1-.5459-.40234,2.04415,2.04415,0,0,1-.36425-.73145,3.94639,3.94639,0,0,1-.13282-1.10254,5.74979,5.74979,0,0,1,.07618-.91406,2.93085,2.93085,0,0,1,.27734-.86426,1.77252,1.77252,0,0,1,.5459-.64355,1.479,1.479,0,0,1,.89258-.252,1.53884,1.53884,0,0,1,.97949.30762,1.28126,1.28126,0,0,1,.46191.90332Zm-1.043,1.00781a1.072,1.072,0,0,0-.46582.09766,1.03873,1.03873,0,0,0-.34961.2666,1.20356,1.20356,0,0,0-.2207.3877,1.4406,1.4406,0,0,0-.07715.47265,1.5967,1.5967,0,0,0,.05957.42383,1.12372,1.12372,0,0,0,.19629.38867,1.03082,1.03082,0,0,0,.86426.39844,1.1569,1.1569,0,0,0,.52832-.1084.9728.9728,0,0,0,.34668-.28711,1.16072,1.16072,0,0,0,.19238-.39844,1.6846,1.6846,0,0,0,.05957-.44433,1.28872,1.28872,0,0,0-.27637-.88574A1.08775,1.08775,0,0,0,20.00586,31.93945Z"/><path class="cls-2" d="M23.82812,29.7207a1.66722,1.66722,0,0,1,.62989.1084,1.31112,1.31112,0,0,1,.45117.29688,1.53881,1.53881,0,0,1,.30176.4414,2.73157,2.73157,0,0,1,.17773.53516,3.9263,3.9263,0,0,1,.084.585q.022.3003.02148.58789a6.037,6.037,0,0,1-.07031.9375,2.46173,2.46173,0,0,1-.25488.791,1.43874,1.43874,0,0,1-.50782.54589,1.53644,1.53644,0,0,1-.833.20313,1.5577,1.5577,0,0,1-.83691-.20313,1.43227,1.43227,0,0,1-.51074-.54882,2.48726,2.48726,0,0,1-.25586-.80567,6.50643,6.50643,0,0,1-.06934-.96875,6.58334,6.58334,0,0,1,.0625-.917,2.55036,2.55036,0,0,1,.24219-.80176,1.45728,1.45728,0,0,1,.50684-.57031A1.54251,1.54251,0,0,1,23.82812,29.7207Zm1.21778,2.50586a6.61277,6.61277,0,0,0-.04492-.78125,2.39622,2.39622,0,0,0-.17871-.68164,1.19442,1.19442,0,0,0-.375-.4834,1.02644,1.02644,0,0,0-.63282-.18164.943.943,0,0,0-.60547.18555,1.23423,1.23423,0,0,0-.36816.49316,2.64078,2.64078,0,0,0-.18555.7002,5.97361,5.97361,0,0,0-.05175.79785,5.82039,5.82039,0,0,0,.05859.86426,2.17669,2.17669,0,0,0,.20019.66211.99787.99787,0,0,0,.96582.57324.99105.99105,0,0,0,.64063-.19531,1.2381,1.2381,0,0,0,.36719-.50489,2.52525,2.52525,0,0,0,.168-.69238A6.892,6.892,0,0,0,25.0459,32.22656Z"/><line class="cls-1" x1="28.7397" y1="133.32378" x2="218.55267" y2="133.32378"/><line class="cls-1" x1="28.7397" y1="123.09739" x2="218.55267" y2="123.09739"/><line class="cls-1" x1="28.7397" y1="112.871" x2="218.55267" y2="112.871"/><line class="cls-1" x1="28.7397" y1="102.64461" x2="218.55267" y2="102.64461"/><line class="cls-1" x1="28.7397" y1="92.41822" x2="218.55267" y2="92.41822"/><line class="cls-1" x1="28.7397" y1="82.19183" x2="218.55267" y2="82.19183"/><line class="cls-1" x1="28.7397" y1="71.96544" x2="218.55267" y2="71.96544"/><line class="cls-1" x1="28.7397" y1="61.73906" x2="218.55267" y2="61.73906"/><line class="cls-1" x1="28.7397" y1="51.51267" x2="218.55267" y2="51.51267"/><line class="cls-1" x1="28.7397" y1="41.28628" x2="218.55267" y2="41.28628"/><line class="cls-1" x1="28.7397" y1="31.05989" x2="218.55267" y2="31.05989"/><rect class="cls-3" x="37.59764" y="69.17671" width="45.55511" height="64.14707"/><rect class="cls-3" x="100.86863" y="92.09814" width="45.55511" height="41.22564"/><rect class="cls-3" x="164.13962" y="132.35841" width="45.55511" height="0.96537"/><path class="cls-2" d="M164.53516,140.60742a1.50264,1.50264,0,0,0,.15039.57031,1.13567,1.13567,0,0,0,.31543.38184,1.24259,1.24259,0,0,0,.44433.21289,2.08011,2.08011,0,0,0,.53907.06641,1.77971,1.77971,0,0,0,.58105-.084,1.10469,1.10469,0,0,0,.39941-.22754.89422.89422,0,0,0,.22754-.332,1.0941,1.0941,0,0,0,.07324-.39941.79264.79264,0,0,0-.13281-.47559,1.03141,1.03141,0,0,0-.34668-.29785,2.17155,2.17155,0,0,0-.49023-.18555c-.18457-.04589-.373-.09179-.56738-.13574-.19336-.04492-.38184-.09668-.56641-.1582a1.75977,1.75977,0,0,1-.49023-.24512,1.18144,1.18144,0,0,1-.34668-.39551,1.25252,1.25252,0,0,1-.13282-.6123,1.23852,1.23852,0,0,1,.1084-.50391,1.25273,1.25273,0,0,1,.32227-.43359,1.57174,1.57174,0,0,1,.53515-.30078,2.24169,2.24169,0,0,1,.74219-.11231,2.12991,2.12991,0,0,1,.74512.11914,1.48032,1.48032,0,0,1,.52929.3252,1.33765,1.33765,0,0,1,.31446.47949,1.598,1.598,0,0,1,.10547.58106h-.45508a1.13431,1.13431,0,0,0-.10156-.49707.93773.93773,0,0,0-.27637-.34278,1.18343,1.18343,0,0,0-.39942-.19629,1.70051,1.70051,0,0,0-.46191-.0625,1.60913,1.60913,0,0,0-.6123.10157,1.06438,1.06438,0,0,0-.39551.26171.88908.88908,0,0,0-.20313.35743.85967.85967,0,0,0-.0205.3916.68128.68128,0,0,0,.19531.39258,1.24886,1.24886,0,0,0,.37793.24121,2.84873,2.84873,0,0,0,.49414.15429q.26953.0586.54883.126a5.54911,5.54911,0,0,1,.543.15723,1.67831,1.67831,0,0,1,.46583.24511,1.13556,1.13556,0,0,1,.32519.39551,1.33919,1.33919,0,0,1,.12207.60547,1.30975,1.30975,0,0,1-.48242,1.085,2.12971,2.12971,0,0,1-1.3584.38477,2.50939,2.50939,0,0,1-.72754-.10157,1.60068,1.60068,0,0,1-.58105-.30761,1.41194,1.41194,0,0,1-.38184-.51074,1.74632,1.74632,0,0,1-.13672-.71778Z"/><path class="cls-2" d="M168.918,142.1123h-.41992v-3.626h.41992v.5459h.01367a1.10729,1.10729,0,0,1,.46191-.4795,1.35411,1.35411,0,0,1,.65821-.16406,1.41852,1.41852,0,0,1,.42676.05567.969.969,0,0,1,.29785.15039.88817.88817,0,0,1,.20312.2207,1.54487,1.54487,0,0,1,.13672.27246,1.2216,1.2216,0,0,1,.48633-.52832,1.3936,1.3936,0,0,1,.69629-.1709,1.22976,1.22976,0,0,1,.59179.12207.891.891,0,0,1,.33887.32227,1.24294,1.24294,0,0,1,.15821.458,3.66129,3.66129,0,0,1,.03808.53222v2.28906h-.41992v-2.50585a1.01711,1.01711,0,0,0-.165-.61622.71522.71522,0,0,0-.6123-.22363,1.01249,1.01249,0,0,0-.81836.41309.80709.80709,0,0,0-.11621.21289,1.79775,1.79775,0,0,0-.07325.25586,2.09571,2.09571,0,0,0-.03808.26562c-.00684.08887-.01074.1709-.01074.24512v1.95312H170.752v-2.50585a1.017,1.017,0,0,0-.165-.61622.71521.71521,0,0,0-.6123-.22363,1.01249,1.01249,0,0,0-.81836.41309.80738.80738,0,0,0-.11621.21289,1.79773,1.79773,0,0,0-.07324.25586,2.09575,2.09575,0,0,0-.03809.26562c-.00781.08887-.01074.1709-.01074.24512Z"/><path class="cls-2" d="M176.0498,139.99805c.07911-.00879.17383-.02344.28321-.042a1.02832,1.02832,0,0,0,.26953-.07714.22165.22165,0,0,0,.12988-.16407,1.019,1.019,0,0,0,.02442-.21386.7199.7199,0,0,0-.20606-.52832.96443.96443,0,0,0-.69726-.20606,1.94362,1.94362,0,0,0-.39844.03809.86486.86486,0,0,0-.31836.13281.73871.73871,0,0,0-.22461.25195,1.0681,1.0681,0,0,0-.11523.39551h-.42676a1.29157,1.29157,0,0,1,.14648-.54883,1.10159,1.10159,0,0,1,.32617-.37109,1.33364,1.33364,0,0,1,.46192-.21,2.22954,2.22954,0,0,1,.55664-.06641,2.1165,2.1165,0,0,1,.51367.05957,1.18,1.18,0,0,1,.41992.18848.88032.88032,0,0,1,.28028.34668,1.25587,1.25587,0,0,1,.10156.53222v1.97364c0,.16308.02929.26758.08789.31152.05762.04395.17578.03418.35351-.03125v.3291c-.0332.00879-.081.02344-.14355.042a.65685.65685,0,0,1-.18555.02735.86.86,0,0,1-.18945-.02051.32784.32784,0,0,1-.168-.06641.42457.42457,0,0,1-.10156-.126.51147.51147,0,0,1-.05176-.16113,1.12489,1.12489,0,0,1-.01465-.18555,1.76849,1.76849,0,0,1-1.35058.60156,1.66413,1.66413,0,0,1-.459-.0625,1.11426,1.11426,0,0,1-.38867-.19629.98659.98659,0,0,1-.26563-.32519,1.001,1.001,0,0,1-.09765-.459q0-.92284,1.2666-1.09179Zm.707.21a2.05284,2.05284,0,0,1-.53907.14746c-.18164.02344-.36425.042-.54589.05566a1.54376,1.54376,0,0,0-.75293.2168.62309.62309,0,0,0-.26954.55371.59218.59218,0,0,0,.06739.29.60681.60681,0,0,0,.1748.20312.73318.73318,0,0,0,.25195.11915,1.12659,1.12659,0,0,0,.29.03808,1.90628,1.90628,0,0,0,.49024-.0625,1.34333,1.34333,0,0,0,.42383-.19238.99.99,0,0,0,.29687-.3291.9455.9455,0,0,0,.11231-.47266Z"/><path class="cls-2" d="M178.33984,142.1123v-5.04h.41993v5.04Z"/><path class="cls-2" d="M179.89355,142.1123v-5.04h.41993v5.04Z"/><path class="cls-2" d="M183.5752,140.97852a1.06188,1.06188,0,0,0,.35351.66113,1.19294,1.19294,0,0,0,.73145.19238,1.27618,1.27618,0,0,0,.39941-.05566.81089.81089,0,0,0,.27637-.15039.64425.64425,0,0,0,.16406-.21387.58686.58686,0,0,0,.05664-.252.46566.46566,0,0,0-.17187-.39551,1.29731,1.29731,0,0,0-.43067-.20313,5.66757,5.66757,0,0,0-.55957-.126,2.72944,2.72944,0,0,1-.56055-.15723,1.12086,1.12086,0,0,1-.43066-.30078.81515.81515,0,0,1-.1709-.55371.94427.94427,0,0,1,.332-.74512,1.38874,1.38874,0,0,1,.94141-.29,1.60907,1.60907,0,0,1,.956.26172,1.20472,1.20472,0,0,1,.44434.87891h-.42676a.78784.78784,0,0,0-.31836-.5918,1.18925,1.18925,0,0,0-.66211-.1709.941.941,0,0,0-.6084.1709.55479.55479,0,0,0-.21093.45215.44007.44007,0,0,0,.17187.374,1.38366,1.38366,0,0,0,.43067.21q.25928.08056.55957.14356a2.74729,2.74729,0,0,1,.56054.17871,1.22348,1.22348,0,0,1,.43067.31152.802.802,0,0,1,.1709.5459.92208.92208,0,0,1-.11133.458.97621.97621,0,0,1-.3086.333,1.42682,1.42682,0,0,1-.46484.19921,2.4395,2.4395,0,0,1-.5918.06641,1.60543,1.60543,0,0,1-.57031-.09375,1.25062,1.25062,0,0,1-.42383-.26269,1.21024,1.21024,0,0,1-.27343-.39258,1.36251,1.36251,0,0,1-.11133-.48242Z"/><path class="cls-2" d="M188.27246,142.21a1.85785,1.85785,0,0,1-.65527-.126,1.46921,1.46921,0,0,1-.53125-.35644,1.69713,1.69713,0,0,1-.36035-.5957,2.36946,2.36946,0,0,1-.13379-.833,2.54927,2.54927,0,0,1,.10547-.74512,1.777,1.777,0,0,1,.31445-.60547,1.50239,1.50239,0,0,1,.52539-.40918,1.68457,1.68457,0,0,1,.73535-.15039,1.70668,1.70668,0,0,1,.74219.15039,1.51424,1.51424,0,0,1,.52441.40528,1.68532,1.68532,0,0,1,.31153.60644,2.68363,2.68363,0,0,1,.10156.74805,2.43063,2.43063,0,0,1-.11914.78418,1.77016,1.77016,0,0,1-.33887.60254,1.516,1.516,0,0,1-.53223.38867A1.70344,1.70344,0,0,1,188.27246,142.21Zm1.23145-1.91113a2.51557,2.51557,0,0,0-.06934-.60156,1.41953,1.41953,0,0,0-.21777-.48633,1.03372,1.03372,0,0,0-.37793-.3252,1.21491,1.21491,0,0,0-.56641-.11914,1.15225,1.15225,0,0,0-.56348.12891,1.10691,1.10691,0,0,0-.38183.34375,1.51565,1.51565,0,0,0-.2168.48926,2.31,2.31,0,0,0-.07031.57031,2.26344,2.26344,0,0,0,.08105.62012,1.44469,1.44469,0,0,0,.23438.48632,1.051,1.051,0,0,0,.38476.31543,1.21165,1.21165,0,0,0,.53223.11133,1.1549,1.1549,0,0,0,.56348-.12891,1.09287,1.09287,0,0,0,.38086-.34667,1.54926,1.54926,0,0,0,.21777-.49024A2.30923,2.30923,0,0,0,189.50391,140.29883Z"/><path class="cls-2" d="M193.17871,138.48633h.41992v3.626h-.41992v-.5039c-.05566.06543-.11914.13281-.18848.20312a1.5097,1.5097,0,0,1-.24218.19239,1.33887,1.33887,0,0,1-.73828.20605,1.58652,1.58652,0,0,1-.60938-.10156.99942.99942,0,0,1-.39551-.2832,1.1411,1.1411,0,0,1-.21679-.42383,1.99593,1.99593,0,0,1-.06641-.52832v-2.38672h.41992v2.37988a1.06147,1.06147,0,0,0,.2168.71777.90677.90677,0,0,0,.71484.24805,1.03174,1.03174,0,0,0,.46485-.10156.97558.97558,0,0,0,.34668-.2832,1.32845,1.32845,0,0,0,.21679-.4336,1.87379,1.87379,0,0,0,.07715-.55371Z"/><path class="cls-2" d="M195.88867,142.126c-.05176.00976-.11914.02636-.20312.0498a1.08565,1.08565,0,0,1-.28028.03418.66464.66464,0,0,1-.47949-.15723.76755.76755,0,0,1-.16406-.56347v-2.65332H194.25v-.34961h.51172v-1.00781h.41992v1.00781h.67871v.34961h-.67871v2.48535c0,.08887.002.166.00684.23144a.38439.38439,0,0,0,.042.16016.2025.2025,0,0,0,.1084.0918.60621.60621,0,0,0,.20605.02734,1.03674,1.03674,0,0,0,.17188-.01367c.05859-.00977.11523-.02148.17187-.03516Z"/><path class="cls-2" d="M196.55957,142.1123v-5.04h.41992v1.918a2.66008,2.66008,0,0,1,.52149-.43359,1.197,1.197,0,0,1,.64746-.168,1.64845,1.64845,0,0,1,.623.11524,1.06451,1.06451,0,0,1,.4834.40234.91484.91484,0,0,1,.15723.40234,3.60037,3.60037,0,0,1,.02441.43067v2.373h-.41992v-2.36621a1.07952,1.07952,0,0,0-.2168-.73437.918.918,0,0,0-.7207-.24512,1.01659,1.01659,0,0,0-.35742.05957,1.09168,1.09168,0,0,0-.29.15723,1.04062,1.04062,0,0,0-.2207.22363,1.05917,1.05917,0,0,0-.14063.2666,1.30376,1.30376,0,0,0-.07617.33594c-.00976.10742-.01465.22363-.01465.34961v1.95312Z"/><path class="cls-2" d="M200.71094,140.39746a1.99084,1.99084,0,0,0,.07715.55664,1.355,1.355,0,0,0,.22753.45508,1.10776,1.10776,0,0,0,.38184.30762,1.27183,1.27183,0,0,0,1.23926-.10157,1.04655,1.04655,0,0,0,.3916-.61621h.46875a2.21954,2.21954,0,0,1-.20312.4795,1.48493,1.48493,0,0,1-.31446.38574,1.36232,1.36232,0,0,1-.44824.25488,1.81657,1.81657,0,0,1-.60156.09082,1.761,1.761,0,0,1-.749-.14648,1.429,1.429,0,0,1-.51855-.40235,1.69643,1.69643,0,0,1-.30078-.60254,2.7219,2.7219,0,0,1-.09766-.74511,2.369,2.369,0,0,1,.11524-.749,1.90153,1.90153,0,0,1,.3291-.6123,1.50935,1.50935,0,0,1,.52148-.41309,1.5697,1.5697,0,0,1,.7002-.15039,1.44639,1.44639,0,0,1,1.17578.51367,2.26507,2.26507,0,0,1,.41992,1.49512Zm2.36621-.35058a1.669,1.669,0,0,0-.07324-.5,1.16717,1.16717,0,0,0-.2168-.40626,1.025,1.025,0,0,0-.36133-.27246,1.146,1.146,0,0,0-.49609-.10156,1.11489,1.11489,0,0,0-.49414.10449,1.14769,1.14769,0,0,0-.36426.28028,1.4122,1.4122,0,0,0-.24121.40625,1.87824,1.87824,0,0,0-.11914.48926Z"/><path class="cls-2" d="M204.78516,142.1123h-.41993v-3.626h.41993v.67871h.01367a1.21773,1.21773,0,0,1,.45117-.60547,1.37693,1.37693,0,0,1,.73145-.1709v.45508a1.22857,1.22857,0,0,0-.5879.11133.97317.97317,0,0,0-.36718.32226,1.28256,1.28256,0,0,0-.18946.4795,3.16406,3.16406,0,0,0-.05175.57714Z"/><path class="cls-2" d="M207.09473,142.1123h-.41993v-3.626h.41993v.5039a2.66,2.66,0,0,1,.52148-.43359,1.19705,1.19705,0,0,1,.64746-.168,1.64854,1.64854,0,0,1,.62305.11524,1.06456,1.06456,0,0,1,.4834.40234.91482.91482,0,0,1,.15722.40234,3.59825,3.59825,0,0,1,.02442.43067v2.373h-.41992v-2.36621a1.07957,1.07957,0,0,0-.2168-.73437.918.918,0,0,0-.7207-.24512,1.01668,1.01668,0,0,0-.35743.05957,1.09146,1.09146,0,0,0-.29.15723,1.04067,1.04067,0,0,0-.22071.22363,1.05881,1.05881,0,0,0-.14062.2666,1.30293,1.30293,0,0,0-.07617.33594c-.00977.10742-.01465.22363-.01465.34961Z"/><path class="cls-2" d="M181.82227,148.02734a1.22236,1.22236,0,0,0-.38477-.63281,1.044,1.044,0,0,0-.69336-.22754,1.085,1.085,0,0,0-.55273.13281,1.11077,1.11077,0,0,0-.37793.35352,1.577,1.577,0,0,0-.21778.49707,2.32867,2.32867,0,0,0-.00293,1.11621,1.49856,1.49856,0,0,0,.21289.49024,1.11885,1.11885,0,0,0,.37793.34668,1.13542,1.13542,0,0,0,.56055.1289,1.06936,1.06936,0,0,0,.752-.25879,1.204,1.204,0,0,0,.36133-.71386h.44727a2.13524,2.13524,0,0,1-.17774.5498,1.4741,1.4741,0,0,1-.31543.42676,1.34731,1.34731,0,0,1-.459.27637,1.96838,1.96838,0,0,1-1.35742-.04883,1.429,1.429,0,0,1-.51856-.40235,1.71033,1.71033,0,0,1-.30078-.60547,2.76587,2.76587,0,0,1-.09766-.749,2.411,2.411,0,0,1,.1084-.72461,1.88284,1.88284,0,0,1,.31836-.6123,1.53383,1.53383,0,0,1,.52149-.42383,1.56564,1.56564,0,0,1,.71777-.15723,1.61365,1.61365,0,0,1,1.01856.30078,1.39788,1.39788,0,0,1,.48632.9375Z"/><path class="cls-2" d="M183.18652,146.0957v-.623h.46192v.623Zm.02149,4.417v-3.626h.41992v3.626Z"/><path class="cls-2" d="M185.97363,150.52637c-.05175.00976-.11914.02636-.20312.0498a1.08565,1.08565,0,0,1-.28028.03418.66464.66464,0,0,1-.47949-.15723.76755.76755,0,0,1-.16406-.56347v-2.65332H184.335v-.34961h.51172v-1.00781h.41992v1.00781h.67871v.34961h-.67871v2.48535c0,.08887.00195.166.00684.23144a.38439.38439,0,0,0,.042.16016.2025.2025,0,0,0,.1084.0918.60621.60621,0,0,0,.20605.02734,1.03567,1.03567,0,0,0,.17188-.01367c.05859-.00977.11523-.02148.17187-.03516Z"/><path class="cls-2" d="M186.68652,146.0957v-.623h.46192v.623Zm.02149,4.417v-3.626h.41992v3.626Z"/><path class="cls-2" d="M188.457,148.79785a1.9912,1.9912,0,0,0,.07715.55664,1.355,1.355,0,0,0,.22754.45508,1.10772,1.10772,0,0,0,.38183.30762,1.27183,1.27183,0,0,0,1.23926-.10157,1.04652,1.04652,0,0,0,.3916-.61621h.46875a2.21954,2.21954,0,0,1-.20312.4795,1.48509,1.48509,0,0,1-.31445.38574,1.36237,1.36237,0,0,1-.44825.25488,1.81653,1.81653,0,0,1-.60156.09082,1.761,1.761,0,0,1-.749-.14648,1.429,1.429,0,0,1-.51856-.40235,1.69643,1.69643,0,0,1-.30078-.60254,2.72186,2.72186,0,0,1-.09765-.74511,2.369,2.369,0,0,1,.11523-.749,1.90182,1.90182,0,0,1,.3291-.6123,1.50929,1.50929,0,0,1,.52149-.41309,1.56962,1.56962,0,0,1,.70019-.15039,1.44637,1.44637,0,0,1,1.17578.51367,2.265,2.265,0,0,1,.41992,1.49512Zm2.36621-.35058a1.66869,1.66869,0,0,0-.07324-.5,1.167,1.167,0,0,0-.2168-.40625,1.025,1.025,0,0,0-.36132-.27247,1.14624,1.14624,0,0,0-.4961-.10156,1.11492,1.11492,0,0,0-.49414.10449,1.14769,1.14769,0,0,0-.36426.28028,1.41242,1.41242,0,0,0-.24121.40625,1.87864,1.87864,0,0,0-.11914.48926Z"/><path class="cls-2" d="M192.33594,149.37891a1.06193,1.06193,0,0,0,.35351.66113,1.19292,1.19292,0,0,0,.73145.19238,1.27614,1.27614,0,0,0,.39941-.05566.81089.81089,0,0,0,.27637-.15039.64412.64412,0,0,0,.16406-.21387.58686.58686,0,0,0,.05664-.25195.46564.46564,0,0,0-.17187-.39551,1.29722,1.29722,0,0,0-.43067-.20313,5.66757,5.66757,0,0,0-.55957-.126,2.72917,2.72917,0,0,1-.56054-.15723,1.1209,1.1209,0,0,1-.43067-.30078.81515.81515,0,0,1-.1709-.55371.94427.94427,0,0,1,.332-.74512,1.38871,1.38871,0,0,1,.9414-.29,1.60913,1.60913,0,0,1,.95606.26172,1.20475,1.20475,0,0,1,.44433.87891h-.42676a.78786.78786,0,0,0-.31835-.5918,1.18927,1.18927,0,0,0-.66211-.1709.941.941,0,0,0-.6084.1709.55479.55479,0,0,0-.21094.45215.44009.44009,0,0,0,.17187.374,1.38366,1.38366,0,0,0,.43067.21q.25928.08057.55957.14356a2.74758,2.74758,0,0,1,.56055.17871,1.22353,1.22353,0,0,1,.43066.31152.802.802,0,0,1,.1709.5459.92208.92208,0,0,1-.11133.458.97618.97618,0,0,1-.30859.333,1.4271,1.4271,0,0,1-.46485.19922,2.43993,2.43993,0,0,1-.59179.0664,1.60545,1.60545,0,0,1-.57032-.09375,1.25057,1.25057,0,0,1-.42382-.26269,1.21011,1.21011,0,0,1-.27344-.39258,1.36251,1.36251,0,0,1-.11133-.48242Z"/><path class="cls-2" d="M100.47949,142.1123v-5.04h.47656v4.63378h2.70215v.40625Z"/><path class="cls-2" d="M105.97461,139.99805c.08008-.00879.17383-.02344.28418-.042a1.05129,1.05129,0,0,0,.26953-.07714.22263.22263,0,0,0,.12891-.16407,1.019,1.019,0,0,0,.02441-.21386.71607.71607,0,0,0-.20605-.52832.96335.96335,0,0,0-.69629-.20606,1.94674,1.94674,0,0,0-.39942.03809.87193.87193,0,0,0-.31836.13281.73625.73625,0,0,0-.22363.25195,1.06778,1.06778,0,0,0-.11621.39551h-.42676a1.29168,1.29168,0,0,1,.14746-.54883,1.10961,1.10961,0,0,1,.3252-.37109,1.34183,1.34183,0,0,1,.46191-.21,2.2296,2.2296,0,0,1,.55664-.06641,2.13036,2.13036,0,0,1,.51465.05957,1.18782,1.18782,0,0,1,.41992.18848.87807.87807,0,0,1,.2793.34668,1.24105,1.24105,0,0,1,.10156.53222v1.97364c0,.16308.0293.26758.08789.31152s.17578.03418.35352-.03125v.3291c-.0332.00879-.08008.02344-.14356.042a.65179.65179,0,0,1-.18554.02735.8512.8512,0,0,1-.18848-.02051.33137.33137,0,0,1-.16894-.06641.40663.40663,0,0,1-.10059-.126.48885.48885,0,0,1-.05274-.16113,1.126,1.126,0,0,1-.01464-.18555,1.81246,1.81246,0,0,1-.6084.44824,1.79371,1.79371,0,0,1-.74219.15332,1.65718,1.65718,0,0,1-.458-.0625,1.09763,1.09763,0,0,1-.38867-.19629.97753.97753,0,0,1-.2666-.32519,1.00084,1.00084,0,0,1-.09766-.459q0-.92284,1.2666-1.09179Zm.707.21a2.03245,2.03245,0,0,1-.53906.14746q-.27246.03516-.5459.05566a1.543,1.543,0,0,0-.752.2168.62308.62308,0,0,0-.26953.55371.592.592,0,0,0,.0664.29.60684.60684,0,0,0,.17481.20312.73309.73309,0,0,0,.25195.11915,1.12834,1.12834,0,0,0,.291.03808,1.8987,1.8987,0,0,0,.48925-.0625,1.33333,1.33333,0,0,0,.42383-.19238.9928.9928,0,0,0,.29785-.3291.95567.95567,0,0,0,.11133-.47266Z"/><path class="cls-2" d="M108.6416,142.1123h-.41992v-3.626h.41992v.67871h.01465a1.21215,1.21215,0,0,1,.45117-.60547,1.3746,1.3746,0,0,1,.73145-.1709v.45508a1.22607,1.22607,0,0,0-.58789.11133.96589.96589,0,0,0-.36719.32226,1.28238,1.28238,0,0,0-.18945.4795,3.0788,3.0788,0,0,0-.05274.57714Z"/><path class="cls-2" d="M113.332,138.48633h.41992v3.27637a3.17,3.17,0,0,1-.07422.69628,1.49462,1.49462,0,0,1-.26171.584,1.318,1.318,0,0,1-.51856.40332,2.41884,2.41884,0,0,1-1.5332.04883,1.49852,1.49852,0,0,1-.46875-.25586,1.09342,1.09342,0,0,1-.27637-.33985.84543.84543,0,0,1-.10156-.3457h.44824a.83051.83051,0,0,0,.15332.332.77665.77665,0,0,0,.249.20313,1.06715,1.06715,0,0,0,.31836.10156,2.31423,2.31423,0,0,0,.36426.02832,1.38907,1.38907,0,0,0,.68555-.14746,1.0058,1.0058,0,0,0,.39258-.38477,1.49349,1.49349,0,0,0,.17089-.53906,4.27439,4.27439,0,0,0,.03223-.61621,1.307,1.307,0,0,1-.55664.50781,1.67684,1.67684,0,0,1-.73926.1709,1.53341,1.53341,0,0,1-.71679-.15723,1.46653,1.46653,0,0,1-.50391-.41992,1.78941,1.78941,0,0,1-.29785-.6123,2.6877,2.6877,0,0,1-.09766-.72852,2.97623,2.97623,0,0,1,.09082-.749,1.646,1.646,0,0,1,.29-.60547,1.4157,1.4157,0,0,1,.50781-.40234,1.73337,1.73337,0,0,1,.749-.14649,1.35669,1.35669,0,0,1,.35742.04883,1.69536,1.69536,0,0,1,.35351.13965,1.35366,1.35366,0,0,1,.31446.23144,1.22306,1.22306,0,0,1,.23437.31446h.01465Zm0,1.82715a2.22638,2.22638,0,0,0-.08105-.61231,1.49329,1.49329,0,0,0-.23438-.49023,1.10564,1.10564,0,0,0-.38476-.3252,1.1224,1.1224,0,0,0-.52539-.11914,1.25663,1.25663,0,0,0-.49024.09375,1.12106,1.12106,0,0,0-.3916.27735,1.29212,1.29212,0,0,0-.2627.44433,1.79529,1.79529,0,0,0-.09472.60547,2.381,2.381,0,0,0,.05664.64062,1.51716,1.51716,0,0,0,.22363.52149,1.11876,1.11876,0,0,0,.39258.35351,1.16936,1.16936,0,0,0,.56641.12891,1.063,1.063,0,0,0,.51464-.12207,1.18791,1.18791,0,0,0,.38477-.3291,1.51818,1.51818,0,0,0,.24219-.4834A2.00564,2.00564,0,0,0,113.332,140.31348Z"/><path class="cls-2" d="M115.06836,140.39746a1.99111,1.99111,0,0,0,.07617.55664,1.3734,1.3734,0,0,0,.22754.45508,1.10776,1.10776,0,0,0,.38184.30762,1.17262,1.17262,0,0,0,.53222.11523,1.15865,1.15865,0,0,0,.707-.2168,1.04652,1.04652,0,0,0,.39161-.61621h.46875a2.21788,2.21788,0,0,1-.20215.4795,1.48868,1.48868,0,0,1-.31543.38574,1.36242,1.36242,0,0,1-.44824.25488,1.81663,1.81663,0,0,1-.60157.09082,1.761,1.761,0,0,1-.749-.14648,1.42915,1.42915,0,0,1-.51856-.40235,1.71276,1.71276,0,0,1-.30078-.60254,2.72191,2.72191,0,0,1-.09765-.74511,2.369,2.369,0,0,1,.11523-.749,1.90191,1.90191,0,0,1,.3291-.6123,1.52764,1.52764,0,0,1,.52149-.41309,1.56965,1.56965,0,0,1,.70019-.15039,1.44636,1.44636,0,0,1,1.17578.51367,2.26507,2.26507,0,0,1,.41993,1.49512Zm2.36523-.35058a1.66864,1.66864,0,0,0-.07324-.5,1.167,1.167,0,0,0-.2168-.40626,1.03019,1.03019,0,0,0-.36035-.27246,1.15045,1.15045,0,0,0-.49707-.10156,1.11791,1.11791,0,0,0-.49414.10449,1.14373,1.14373,0,0,0-.36328.28028,1.39307,1.39307,0,0,0-.24219.40625,1.87755,1.87755,0,0,0-.11816.48926Z"/><path class="cls-2" d="M120.8916,140.97852a1.06193,1.06193,0,0,0,.35352.66113,1.19293,1.19293,0,0,0,.73144.19238,1.27625,1.27625,0,0,0,.39942-.05566.81084.81084,0,0,0,.27636-.15039.64415.64415,0,0,0,.16407-.21387.58686.58686,0,0,0,.05664-.252.46564.46564,0,0,0-.17188-.39551,1.29726,1.29726,0,0,0-.43066-.20313,5.66822,5.66822,0,0,0-.55957-.126,2.72926,2.72926,0,0,1-.56055-.15723,1.12079,1.12079,0,0,1-.43066-.30078.81515.81515,0,0,1-.1709-.55371.94427.94427,0,0,1,.332-.74512,1.38872,1.38872,0,0,1,.94141-.29,1.60912,1.60912,0,0,1,.956.26172,1.20472,1.20472,0,0,1,.44434.87891h-.42676a.7879.7879,0,0,0-.31836-.5918,1.18925,1.18925,0,0,0-.66211-.1709.941.941,0,0,0-.6084.1709.5548.5548,0,0,0-.21094.45215.44007.44007,0,0,0,.17188.374,1.3836,1.3836,0,0,0,.43066.21q.25927.08056.55957.14356a2.74718,2.74718,0,0,1,.56055.17871,1.22344,1.22344,0,0,1,.43066.31152.802.802,0,0,1,.1709.5459.92208.92208,0,0,1-.11133.458.97608.97608,0,0,1-.30859.333,1.42682,1.42682,0,0,1-.46484.19921,2.43956,2.43956,0,0,1-.5918.06641,1.60543,1.60543,0,0,1-.57031-.09375,1.25052,1.25052,0,0,1-.42383-.26269,1.21011,1.21011,0,0,1-.27344-.39258,1.36251,1.36251,0,0,1-.11133-.48242Z"/><path class="cls-2" d="M125.58887,142.21a1.858,1.858,0,0,1-.65528-.126,1.46938,1.46938,0,0,1-.53125-.35644,1.69727,1.69727,0,0,1-.36035-.5957,2.36946,2.36946,0,0,1-.13379-.833,2.54961,2.54961,0,0,1,.10547-.74512,1.77722,1.77722,0,0,1,.31445-.60547,1.50243,1.50243,0,0,1,.5254-.40918,1.68454,1.68454,0,0,1,.73535-.15039,1.70661,1.70661,0,0,1,.74218.15039,1.51419,1.51419,0,0,1,.52442.40528,1.68515,1.68515,0,0,1,.31152.60644,2.68326,2.68326,0,0,1,.10156.74805,2.43036,2.43036,0,0,1-.11914.78418,1.77014,1.77014,0,0,1-.33886.60254,1.51613,1.51613,0,0,1-.53223.38867A1.70348,1.70348,0,0,1,125.58887,142.21Zm1.23144-1.91113a2.51558,2.51558,0,0,0-.06933-.60156,1.41954,1.41954,0,0,0-.21778-.48633,1.03356,1.03356,0,0,0-.37793-.3252,1.21486,1.21486,0,0,0-.5664-.11914,1.15225,1.15225,0,0,0-.56348.12891,1.107,1.107,0,0,0-.38184.34375,1.51564,1.51564,0,0,0-.21679.48926,2.30949,2.30949,0,0,0-.07031.57031,2.26344,2.26344,0,0,0,.08105.62012,1.4445,1.4445,0,0,0,.23438.48632,1.0508,1.0508,0,0,0,.38476.31543,1.21165,1.21165,0,0,0,.53223.11133,1.15486,1.15486,0,0,0,.56347-.12891,1.09278,1.09278,0,0,0,.38086-.34667,1.54928,1.54928,0,0,0,.21778-.49024A2.30922,2.30922,0,0,0,126.82031,140.29883Z"/><path class="cls-2" d="M130.49609,138.48633h.41993v3.626h-.41993v-.5039c-.05566.06543-.11914.13281-.18847.20312a1.51023,1.51023,0,0,1-.24219.19239,1.33887,1.33887,0,0,1-.73828.20605,1.58655,1.58655,0,0,1-.60938-.10156.99938.99938,0,0,1-.3955-.2832,1.14112,1.14112,0,0,1-.2168-.42383,1.99593,1.99593,0,0,1-.06641-.52832v-2.38672h.41992v2.37988a1.06147,1.06147,0,0,0,.2168.71777.90677.90677,0,0,0,.71484.24805,1.03174,1.03174,0,0,0,.46485-.10156.97558.97558,0,0,0,.34668-.2832,1.32866,1.32866,0,0,0,.2168-.4336,1.87412,1.87412,0,0,0,.07714-.55371Z"/><path class="cls-2" d="M133.20508,142.126c-.05176.00976-.11914.02636-.20313.0498a1.08551,1.08551,0,0,1-.28027.03418.66463.66463,0,0,1-.47949-.15723.7675.7675,0,0,1-.16407-.56347v-2.65332h-.51171v-.34961h.51171v-1.00781h.41993v1.00781h.67871v.34961h-.67871v2.48535c0,.08887.00195.166.00683.23144a.38454.38454,0,0,0,.042.16016.20247.20247,0,0,0,.10839.0918.60627.60627,0,0,0,.20606.02734,1.03654,1.03654,0,0,0,.17187-.01367c.0586-.00977.11524-.02148.17188-.03516Z"/><path class="cls-2" d="M133.877,142.1123v-5.04h.41993v1.918a2.65974,2.65974,0,0,1,.52148-.43359,1.19705,1.19705,0,0,1,.64746-.168,1.64854,1.64854,0,0,1,.623.11524,1.06456,1.06456,0,0,1,.4834.40234.91482.91482,0,0,1,.15722.40234,3.60033,3.60033,0,0,1,.02442.43067v2.373H136.334v-2.36621a1.07957,1.07957,0,0,0-.21679-.73437.91806.91806,0,0,0-.72071-.24512,1.01659,1.01659,0,0,0-.35742.05957,1.09168,1.09168,0,0,0-.29.15723,1.04085,1.04085,0,0,0-.2207.22363,1.05881,1.05881,0,0,0-.14062.2666,1.30338,1.30338,0,0,0-.07618.33594c-.00976.10742-.01464.22363-.01464.34961v1.95312Z"/><path class="cls-2" d="M138.02734,140.39746a1.9912,1.9912,0,0,0,.07715.55664,1.35521,1.35521,0,0,0,.22754.45508,1.10776,1.10776,0,0,0,.38184.30762,1.27181,1.27181,0,0,0,1.23925-.10157,1.04652,1.04652,0,0,0,.39161-.61621h.46875a2.21907,2.21907,0,0,1-.20313.4795,1.48469,1.48469,0,0,1-.31445.38574,1.36242,1.36242,0,0,1-.44824.25488,1.81663,1.81663,0,0,1-.60157.09082,1.761,1.761,0,0,1-.749-.14648,1.429,1.429,0,0,1-.51855-.40235,1.69629,1.69629,0,0,1-.30079-.60254,2.72191,2.72191,0,0,1-.09765-.74511,2.369,2.369,0,0,1,.11523-.749,1.90191,1.90191,0,0,1,.3291-.6123,1.50938,1.50938,0,0,1,.52149-.41309,1.56968,1.56968,0,0,1,.70019-.15039,1.44639,1.44639,0,0,1,1.17579.51367,2.26513,2.26513,0,0,1,.41992,1.49512Zm2.36621-.35058a1.66864,1.66864,0,0,0-.07324-.5,1.16715,1.16715,0,0,0-.21679-.40626,1.02513,1.02513,0,0,0-.36133-.27246,1.146,1.146,0,0,0-.4961-.10156,1.11492,1.11492,0,0,0-.49414.10449,1.14765,1.14765,0,0,0-.36425.28028,1.41245,1.41245,0,0,0-.24122.40625,1.879,1.879,0,0,0-.11914.48926Z"/><path class="cls-2" d="M142.10254,142.1123h-.41992v-3.626h.41992v.67871h.01367a1.21773,1.21773,0,0,1,.45117-.60547,1.37693,1.37693,0,0,1,.73145-.1709v.45508a1.2285,1.2285,0,0,0-.58789.11133.9732.9732,0,0,0-.36719.32226,1.28238,1.28238,0,0,0-.18945.4795,3.164,3.164,0,0,0-.05176.57714Z"/><path class="cls-2" d="M144.41211,142.1123h-.41992v-3.626h.41992v.5039a2.66032,2.66032,0,0,1,.52148-.43359,1.19705,1.19705,0,0,1,.64746-.168,1.6485,1.6485,0,0,1,.62305.11524,1.06451,1.06451,0,0,1,.4834.40234.915.915,0,0,1,.15723.40234,3.60037,3.60037,0,0,1,.02441.43067v2.373h-.41992v-2.36621a1.07957,1.07957,0,0,0-.2168-.73437.918.918,0,0,0-.7207-.24512,1.01659,1.01659,0,0,0-.35742.05957,1.09168,1.09168,0,0,0-.29.15723,1.04067,1.04067,0,0,0-.22071.22363,1.05913,1.05913,0,0,0-.14062.2666,1.30376,1.30376,0,0,0-.07617.33594c-.00977.10742-.01465.22363-.01465.34961Z"/><path class="cls-2" d="M118.55078,148.02734a1.2111,1.2111,0,0,0-.38574-.63281,1.04132,1.04132,0,0,0-.69238-.22754,1.09126,1.09126,0,0,0-.55371.13281,1.12873,1.12873,0,0,0-.37793.35352,1.5976,1.5976,0,0,0-.2168.49707,2.253,2.253,0,0,0-.07031.55664,2.37165,2.37165,0,0,0,.0664.55957,1.52079,1.52079,0,0,0,.21387.49024,1.101,1.101,0,0,0,.37793.34668,1.13542,1.13542,0,0,0,.56055.1289,1.06938,1.06938,0,0,0,.75195-.25879,1.204,1.204,0,0,0,.36133-.71386h.44726a2.13561,2.13561,0,0,1-.17773.5498,1.4741,1.4741,0,0,1-.31543.42676,1.34726,1.34726,0,0,1-.459.27637,1.96838,1.96838,0,0,1-1.35742-.04883,1.42893,1.42893,0,0,1-.51855-.40235,1.71017,1.71017,0,0,1-.30078-.60547,2.76587,2.76587,0,0,1-.09766-.749,2.41065,2.41065,0,0,1,.1084-.72461,1.88264,1.88264,0,0,1,.31836-.6123,1.52462,1.52462,0,0,1,.52148-.42383,1.56,1.56,0,0,1,.71778-.15723,1.61551,1.61551,0,0,1,1.01855.30078,1.39785,1.39785,0,0,1,.48633.9375Z"/><path class="cls-2" d="M119.915,146.0957v-.623h.46191v.623Zm.02148,4.417v-3.626h.41993v3.626Z"/><path class="cls-2" d="M122.70215,150.52637c-.05176.00976-.11914.02636-.20313.0498a1.08551,1.08551,0,0,1-.28027.03418.66463.66463,0,0,1-.47949-.15723.7675.7675,0,0,1-.16406-.56347v-2.65332h-.51172v-.34961h.51172v-1.00781h.41992v1.00781h.67871v.34961h-.67871v2.48535c0,.08887.00195.166.00683.23144a.38454.38454,0,0,0,.042.16016.20247.20247,0,0,0,.10839.0918.60627.60627,0,0,0,.20606.02734,1.03547,1.03547,0,0,0,.17187-.01367c.0586-.00977.11524-.02148.17188-.03516Z"/><path class="cls-2" d="M123.415,146.0957v-.623h.46191v.623Zm.02148,4.417v-3.626h.41993v3.626Z"/><path class="cls-2" d="M125.18555,148.79785a1.99084,1.99084,0,0,0,.07715.55664,1.355,1.355,0,0,0,.22753.45508,1.10776,1.10776,0,0,0,.38184.30762,1.27183,1.27183,0,0,0,1.23926-.10157,1.04652,1.04652,0,0,0,.3916-.61621h.46875a2.21907,2.21907,0,0,1-.20313.4795,1.48469,1.48469,0,0,1-.31445.38574,1.36242,1.36242,0,0,1-.44824.25488,1.81657,1.81657,0,0,1-.60156.09082,1.761,1.761,0,0,1-.749-.14648,1.42893,1.42893,0,0,1-.51855-.40235,1.69643,1.69643,0,0,1-.30078-.60254,2.72185,2.72185,0,0,1-.09766-.74511,2.369,2.369,0,0,1,.11524-.749,1.90163,1.90163,0,0,1,.3291-.6123,1.50935,1.50935,0,0,1,.52148-.41309,1.5697,1.5697,0,0,1,.7002-.15039,1.44639,1.44639,0,0,1,1.17578.51367A2.26507,2.26507,0,0,1,128,148.79785Zm2.36621-.35058a1.669,1.669,0,0,0-.07324-.5,1.16712,1.16712,0,0,0-.2168-.40625,1.025,1.025,0,0,0-.36133-.27247,1.14617,1.14617,0,0,0-.49609-.10156,1.11489,1.11489,0,0,0-.49414.10449,1.14758,1.14758,0,0,0-.36426.28028,1.4122,1.4122,0,0,0-.24121.40625,1.87824,1.87824,0,0,0-.11914.48926Z"/><path class="cls-2" d="M129.06445,149.37891a1.06193,1.06193,0,0,0,.35352.66113,1.19287,1.19287,0,0,0,.73144.19238,1.27625,1.27625,0,0,0,.39942-.05566.81089.81089,0,0,0,.27637-.15039.64425.64425,0,0,0,.16406-.21387.58686.58686,0,0,0,.05664-.25195.46564.46564,0,0,0-.17188-.39551,1.29716,1.29716,0,0,0-.43066-.20313,5.66822,5.66822,0,0,0-.55957-.126,2.72926,2.72926,0,0,1-.56055-.15723,1.12086,1.12086,0,0,1-.43066-.30078.81515.81515,0,0,1-.1709-.55371.94427.94427,0,0,1,.332-.74512,1.38872,1.38872,0,0,1,.94141-.29,1.6091,1.6091,0,0,1,.95605.26172,1.20472,1.20472,0,0,1,.44434.87891h-.42676a.78787.78787,0,0,0-.31836-.5918,1.18925,1.18925,0,0,0-.66211-.1709.941.941,0,0,0-.6084.1709.55481.55481,0,0,0-.21093.45215.44007.44007,0,0,0,.17187.374,1.3836,1.3836,0,0,0,.43066.21q.25929.08057.55957.14356a2.74718,2.74718,0,0,1,.56055.17871,1.22357,1.22357,0,0,1,.43067.31152.802.802,0,0,1,.17089.5459.92218.92218,0,0,1-.11132.458.97621.97621,0,0,1-.3086.333,1.427,1.427,0,0,1-.46484.19922,2.44,2.44,0,0,1-.5918.0664,1.60543,1.60543,0,0,1-.57031-.09375,1.25052,1.25052,0,0,1-.42383-.26269,1.21011,1.21011,0,0,1-.27344-.39258,1.36228,1.36228,0,0,1-.11132-.48242Z"/><path class="cls-2" d="M33.49512,142.1123v-5.04h.72851l1.65137,4.44531h.01465l1.624-4.44531h.72071v5.04h-.47559v-4.49414h-.01465l-1.65137,4.49414h-.44824l-1.65918-4.49414h-.01367v4.49414Z"/><path class="cls-2" d="M39.544,140.39746a1.99111,1.99111,0,0,0,.07617.55664,1.3734,1.3734,0,0,0,.22754.45508,1.10772,1.10772,0,0,0,.38183.30762,1.1727,1.1727,0,0,0,.53223.11523,1.15867,1.15867,0,0,0,.707-.2168,1.04655,1.04655,0,0,0,.3916-.61621h.46875a2.21688,2.21688,0,0,1-.20215.4795,1.48828,1.48828,0,0,1-.31543.38574,1.36232,1.36232,0,0,1-.44824.25488,1.81657,1.81657,0,0,1-.60156.09082,1.761,1.761,0,0,1-.749-.14648,1.429,1.429,0,0,1-.51856-.40235,1.71276,1.71276,0,0,1-.30078-.60254,2.7219,2.7219,0,0,1-.09766-.74511,2.369,2.369,0,0,1,.11524-.749,1.90172,1.90172,0,0,1,.3291-.6123,1.5277,1.5277,0,0,1,.52148-.41309,1.5697,1.5697,0,0,1,.7002-.15039,1.44639,1.44639,0,0,1,1.17578.51367,2.26507,2.26507,0,0,1,.41992,1.49512Zm2.36523-.35058a1.66864,1.66864,0,0,0-.07324-.5,1.16717,1.16717,0,0,0-.2168-.40626,1.03019,1.03019,0,0,0-.36035-.27246,1.15048,1.15048,0,0,0-.49707-.10156,1.11791,1.11791,0,0,0-.49414.10449,1.14373,1.14373,0,0,0-.36328.28028,1.39307,1.39307,0,0,0-.24219.40625,1.87715,1.87715,0,0,0-.11816.48926Z"/><path class="cls-2" d="M44.4502,142.126q-.07619.01464-.20215.0498a1.08565,1.08565,0,0,1-.28028.03418.66464.66464,0,0,1-.47949-.15723.76308.76308,0,0,1-.165-.56347v-2.65332H42.8125v-.34961h.51074v-1.00781h.41992v1.00781h.67969v.34961h-.67969v2.48535c0,.08887.00293.166.00782.23144a.37014.37014,0,0,0,.042.16016.199.199,0,0,0,.1084.0918.6024.6024,0,0,0,.206.02734,1.03674,1.03674,0,0,0,.17188-.01367c.05859-.00977.11523-.02148.1709-.03516Z"/><path class="cls-2" d="M45.56348,142.1123h-.41993v-3.626h.41993v.67871h.01367a1.21886,1.21886,0,0,1,.45215-.60547,1.37221,1.37221,0,0,1,.73144-.1709v.45508a1.22366,1.22366,0,0,0-.58789.11133.96889.96889,0,0,0-.36816.32226,1.28157,1.28157,0,0,0-.18848.4795,3.07881,3.07881,0,0,0-.05273.57714Z"/><path class="cls-2" d="M48.89551,142.21a1.85254,1.85254,0,0,1-.6543-.126,1.46476,1.46476,0,0,1-.53223-.35644,1.72665,1.72665,0,0,1-.36035-.5957,2.37055,2.37055,0,0,1-.13281-.833,2.54973,2.54973,0,0,1,.10449-.74512,1.76206,1.76206,0,0,1,.31543-.60547,1.49012,1.49012,0,0,1,.52442-.40918,1.68454,1.68454,0,0,1,.73535-.15039,1.7037,1.7037,0,0,1,.74219.15039,1.51424,1.51424,0,0,1,.52441.40528,1.67,1.67,0,0,1,.31152.60644,2.64785,2.64785,0,0,1,.10157.74805,2.40416,2.40416,0,0,1-.11915.78418,1.77014,1.77014,0,0,1-.33886.60254,1.50733,1.50733,0,0,1-.53223.38867A1.70348,1.70348,0,0,1,48.89551,142.21Zm1.23242-1.91113a2.46638,2.46638,0,0,0-.07031-.60156,1.437,1.437,0,0,0-.2168-.48633,1.0496,1.0496,0,0,0-.37793-.3252,1.22185,1.22185,0,0,0-.56738-.11914,1.15225,1.15225,0,0,0-.56348.12891,1.11576,1.11576,0,0,0-.38183.34375,1.51544,1.51544,0,0,0-.2168.48926,2.30949,2.30949,0,0,0-.07031.57031,2.26344,2.26344,0,0,0,.08105.62012,1.46317,1.46317,0,0,0,.23438.48632,1.0508,1.0508,0,0,0,.38476.31543,1.21165,1.21165,0,0,0,.53223.11133,1.15224,1.15224,0,0,0,.56347-.12891,1.10453,1.10453,0,0,0,.38184-.34667,1.56972,1.56972,0,0,0,.2168-.49024A2.26381,2.26381,0,0,0,50.12793,140.29883Z"/><path class="cls-2" d="M51.81445,143.54h-.41992v-5.05371h.41992v.63672h.01367a1.22686,1.22686,0,0,1,.23536-.31446,1.33313,1.33313,0,0,1,.31445-.23144,1.67447,1.67447,0,0,1,.35352-.13965,1.34587,1.34587,0,0,1,.35742-.04883,1.73636,1.73636,0,0,1,.749.14649,1.40393,1.40393,0,0,1,.50684.40234,1.63211,1.63211,0,0,1,.291.60547,2.97577,2.97577,0,0,1,.09082.749,2.6877,2.6877,0,0,1-.09765.72852,1.80715,1.80715,0,0,1-.29786.6123,1.46659,1.46659,0,0,1-.5039.41992,1.53756,1.53756,0,0,1-.71777.15723,1.66969,1.66969,0,0,1-.73829-.1709,1.307,1.307,0,0,1-.55664-.50781Zm0-3.22656a2.0053,2.0053,0,0,0,.084.584,1.51648,1.51648,0,0,0,.24121.4834,1.19143,1.19143,0,0,0,.38574.3291,1.063,1.063,0,0,0,.51465.12207,1.18175,1.18175,0,0,0,.56348-.12891,1.12788,1.12788,0,0,0,.3955-.35351,1.5362,1.5362,0,0,0,.22364-.52149,2.34326,2.34326,0,0,0,.05566-.64062,1.7712,1.7712,0,0,0-.09473-.60547,1.29041,1.29041,0,0,0-.26171-.44433,1.12478,1.12478,0,0,0-.39258-.27735,1.25525,1.25525,0,0,0-.48926-.09375,1.12237,1.12237,0,0,0-.52539.11914,1.097,1.097,0,0,0-.38477.3252,1.45549,1.45549,0,0,0-.23437.49023A2.22637,2.22637,0,0,0,51.81445,140.31348Z"/><path class="cls-2" d="M57.06445,142.21a1.85244,1.85244,0,0,1-.65429-.126,1.46468,1.46468,0,0,1-.53223-.35644,1.7265,1.7265,0,0,1-.36035-.5957,2.37033,2.37033,0,0,1-.13281-.833,2.54973,2.54973,0,0,1,.10449-.74512,1.76189,1.76189,0,0,1,.31543-.60547,1.49009,1.49009,0,0,1,.52441-.40918,1.68457,1.68457,0,0,1,.73535-.15039,1.70366,1.70366,0,0,1,.74219.15039,1.51415,1.51415,0,0,1,.52441.40528,1.66986,1.66986,0,0,1,.31153.60644,2.64785,2.64785,0,0,1,.10156.74805,2.40416,2.40416,0,0,1-.11914.78418,1.77,1.77,0,0,1-.33887.60254,1.50738,1.50738,0,0,1-.53222.38867A1.70349,1.70349,0,0,1,57.06445,142.21Zm1.23243-1.91113a2.46588,2.46588,0,0,0-.07032-.60156,1.437,1.437,0,0,0-.21679-.48633,1.04968,1.04968,0,0,0-.37793-.3252,1.22186,1.22186,0,0,0-.56739-.11914,1.15224,1.15224,0,0,0-.56347.12891,1.1158,1.1158,0,0,0-.38184.34375,1.51565,1.51565,0,0,0-.2168.48926,2.31,2.31,0,0,0-.07031.57031,2.26343,2.26343,0,0,0,.08106.62012,1.46316,1.46316,0,0,0,.23437.48632,1.05091,1.05091,0,0,0,.38477.31543,1.21157,1.21157,0,0,0,.53222.11133,1.15225,1.15225,0,0,0,.56348-.12891,1.10462,1.10462,0,0,0,.38184-.34667,1.56971,1.56971,0,0,0,.21679-.49024A2.26335,2.26335,0,0,0,58.29688,140.29883Z"/><path class="cls-2" d="M59.57715,142.1123v-5.04h.41992v5.04Z"/><path class="cls-2" d="M61.11035,137.69531v-.623h.46192v.623Zm.02051,4.417v-3.626h.41992v3.626Z"/><path class="cls-2" d="M63.89551,142.126q-.07617.01464-.20215.0498a1.08557,1.08557,0,0,1-.28027.03418.66465.66465,0,0,1-.4795-.15723.76308.76308,0,0,1-.165-.56347v-2.65332h-.51074v-.34961h.51074v-1.00781h.41993v1.00781h.67968v.34961h-.67968v2.48535c0,.08887.00293.166.00781.23144a.37028.37028,0,0,0,.042.16016.199.199,0,0,0,.1084.0918.60243.60243,0,0,0,.206.02734,1.03657,1.03657,0,0,0,.17188-.01367c.05859-.00977.11523-.02148.1709-.03516Z"/><path class="cls-2" d="M66.23438,139.99805c.0791-.00879.17382-.02344.2832-.042a1.05129,1.05129,0,0,0,.26953-.07714.22165.22165,0,0,0,.12988-.16407,1.08787,1.08787,0,0,0,.02442-.21386.71681.71681,0,0,0-.207-.52832.96179.96179,0,0,0-.69629-.20606,1.94362,1.94362,0,0,0-.39844.03809.87674.87674,0,0,0-.31934.13281.74634.74634,0,0,0-.22363.25195,1.0681,1.0681,0,0,0-.11523.39551h-.42676a1.29157,1.29157,0,0,1,.14648-.54883,1.1095,1.1095,0,0,1,.3252-.37109,1.35025,1.35025,0,0,1,.46191-.21,2.24072,2.24072,0,0,1,.55664-.06641,2.12458,2.12458,0,0,1,.51465.05957,1.18782,1.18782,0,0,1,.41992.18848.88032.88032,0,0,1,.28028.34668,1.25587,1.25587,0,0,1,.10156.53222v1.97364c0,.16308.02929.26758.08691.31152.0586.04395.17676.03418.35352-.03125v.3291c-.03223.00879-.08008.02344-.14258.042a.65685.65685,0,0,1-.18555.02735.86.86,0,0,1-.18945-.02051.32438.32438,0,0,1-.168-.06641.40979.40979,0,0,1-.10156-.126.539.539,0,0,1-.05274-.16113,1.246,1.246,0,0,1-.01367-.18555,1.82563,1.82563,0,0,1-.60937.44824,1.78919,1.78919,0,0,1-.74121.15332,1.66413,1.66413,0,0,1-.459-.0625,1.11426,1.11426,0,0,1-.38867-.19629.98644.98644,0,0,1-.26562-.32519,1.00082,1.00082,0,0,1-.09864-.459q0-.92284,1.26758-1.09179Zm.707.21a2.05284,2.05284,0,0,1-.53907.14746q-.27392.03516-.54589.05566a1.54376,1.54376,0,0,0-.75293.2168.62309.62309,0,0,0-.26954.55371.603.603,0,0,0,.06641.29.60956.60956,0,0,0,.17578.20312.73318.73318,0,0,0,.25195.11915,1.121,1.121,0,0,0,.29.03808,1.91174,1.91174,0,0,0,.49024-.0625,1.32807,1.32807,0,0,0,.42285-.19238.98253.98253,0,0,0,.29785-.3291.95591.95591,0,0,0,.11231-.47266Z"/><path class="cls-2" d="M68.87988,142.1123H68.46v-3.626h.41992v.5039a2.66008,2.66008,0,0,1,.52149-.43359,1.197,1.197,0,0,1,.64746-.168,1.64854,1.64854,0,0,1,.62305.11524,1.06453,1.06453,0,0,1,.48339.40234.89182.89182,0,0,1,.15723.40234,3.60037,3.60037,0,0,1,.02441.43067v2.373H70.917v-2.36621a1.07957,1.07957,0,0,0-.21679-.73437.91807.91807,0,0,0-.72071-.24512,1.01659,1.01659,0,0,0-.35742.05957,1.09168,1.09168,0,0,0-.29.15723,1.04085,1.04085,0,0,0-.2207.22363,1.02491,1.02491,0,0,0-.13965.2666,1.30727,1.30727,0,0,0-.07715.33594c-.00976.10742-.01465.22363-.01465.34961Z"/><path class="cls-2" d="M76.86719,139.627a1.21607,1.21607,0,0,0-.38477-.63281,1.044,1.044,0,0,0-.69336-.22754,1.08754,1.08754,0,0,0-.55273.13281,1.11077,1.11077,0,0,0-.37793.35352,1.55362,1.55362,0,0,0-.2168.49707,2.25345,2.25345,0,0,0-.07031.55664,2.37114,2.37114,0,0,0,.06641.55957,1.47965,1.47965,0,0,0,.21386.49024,1.10093,1.10093,0,0,0,.37793.34667,1.12884,1.12884,0,0,0,.55957.12891,1.07354,1.07354,0,0,0,.75293-.25879,1.20839,1.20839,0,0,0,.36035-.71386h.44825a2.175,2.175,0,0,1-.17871.5498,1.45691,1.45691,0,0,1-.31543.42676,1.35206,1.35206,0,0,1-.458.27636,1.97106,1.97106,0,0,1-1.3584-.04882,1.41746,1.41746,0,0,1-.51758-.40235,1.69576,1.69576,0,0,1-.30176-.60547,2.805,2.805,0,0,1-.09765-.749,2.41065,2.41065,0,0,1,.1084-.72461,1.88272,1.88272,0,0,1,.31835-.6123,1.54322,1.54322,0,0,1,.52149-.42383,1.56564,1.56564,0,0,1,.71777-.15723,1.61365,1.61365,0,0,1,1.01856.30078,1.39782,1.39782,0,0,1,.48633.9375Z"/><path class="cls-2" d="M79.63184,142.21a1.8525,1.8525,0,0,1-.6543-.126,1.473,1.473,0,0,1-.53223-.35644,1.72665,1.72665,0,0,1-.36035-.5957,2.37033,2.37033,0,0,1-.13281-.833,2.54927,2.54927,0,0,1,.10547-.74512,1.76,1.76,0,0,1,.31445-.60547,1.50248,1.50248,0,0,1,.52539-.40918,1.68315,1.68315,0,0,1,.73438-.15039,1.70064,1.70064,0,0,1,.74218.15039,1.51783,1.51783,0,0,1,.52539.40528,1.68532,1.68532,0,0,1,.31153.60644,2.68363,2.68363,0,0,1,.10156.74805,2.43063,2.43063,0,0,1-.11914.78418,1.7559,1.7559,0,0,1-.33984.60254,1.50379,1.50379,0,0,1-.53125.38867A1.70488,1.70488,0,0,1,79.63184,142.21Zm1.23242-1.91113a2.46638,2.46638,0,0,0-.07031-.60156,1.41842,1.41842,0,0,0-.2168-.48633,1.03364,1.03364,0,0,0-.37793-.3252,1.21908,1.21908,0,0,0-.56738-.11914,1.1549,1.1549,0,0,0-.56348.12891,1.10384,1.10384,0,0,0-.38086.34375,1.475,1.475,0,0,0-.2168.48926,2.31,2.31,0,0,0-.07031.57031,2.26419,2.26419,0,0,0,.08008.62012,1.46316,1.46316,0,0,0,.23437.48632,1.06214,1.06214,0,0,0,.38575.31543,1.20723,1.20723,0,0,0,.53125.11133,1.15224,1.15224,0,0,0,.56347-.12891,1.08748,1.08748,0,0,0,.38184-.34667,1.54775,1.54775,0,0,0,.2168-.49024A2.26381,2.26381,0,0,0,80.86426,140.29883Z"/><path class="cls-2" d="M82.52246,142.1123h-.41992v-3.626h.41992v.67871h.01465a1.21215,1.21215,0,0,1,.45117-.60547,1.3746,1.3746,0,0,1,.73145-.1709v.45508a1.22607,1.22607,0,0,0-.58789.11133.96589.96589,0,0,0-.36719.32226,1.28238,1.28238,0,0,0-.18945.4795,3.0788,3.0788,0,0,0-.05274.57714Z"/><path class="cls-2" d="M84.67188,140.39746a1.95619,1.95619,0,0,0,.07714.55664,1.33733,1.33733,0,0,0,.22754.45508,1.10776,1.10776,0,0,0,.38184.30762,1.16845,1.16845,0,0,0,.53125.11523,1.15665,1.15665,0,0,0,.707-.2168,1.04324,1.04324,0,0,0,.39258-.61621H87.458a2.26879,2.26879,0,0,1-.20313.4795,1.46868,1.46868,0,0,1-.31543.38574,1.36756,1.36756,0,0,1-.44726.25488,1.82263,1.82263,0,0,1-.60254.09082,1.76413,1.76413,0,0,1-.749-.14648,1.41734,1.41734,0,0,1-.51757-.40235,1.69627,1.69627,0,0,1-.30078-.60254,2.72152,2.72152,0,0,1-.09864-.74511,2.3694,2.3694,0,0,1,.11621-.749,1.9,1.9,0,0,1,.32813-.6123,1.5277,1.5277,0,0,1,.52148-.41309,1.57564,1.57564,0,0,1,.7002-.15039,1.447,1.447,0,0,1,1.17676.51367,2.27057,2.27057,0,0,1,.41992,1.49512Zm2.36621-.35058a1.66865,1.66865,0,0,0-.07325-.5,1.18517,1.18517,0,0,0-.21777-.40626,1.03019,1.03019,0,0,0-.36035-.27246,1.15048,1.15048,0,0,0-.49707-.10156,1.11357,1.11357,0,0,0-.49317.10449,1.14765,1.14765,0,0,0-.36425.28028,1.39047,1.39047,0,0,0-.24121.40625,1.87824,1.87824,0,0,0-.11914.48926Z"/><path class="cls-2" d="M33.03125,4.11279v.76905H30.85547v5.68652h-.88281V4.88184H27.79688v-.769Z"/><path class="cls-2" d="M33.72949,4.09082h.791V6.499a2.28415,2.28415,0,0,1,.50586-.501,1.70314,1.70314,0,0,1,.95312-.25049,1.41033,1.41033,0,0,1,1.38867.71631,2.44192,2.44192,0,0,1,.19825,1.08545v3.019h-.81348V7.60205a1.65905,1.65905,0,0,0-.13184-.76025.84234.84234,0,0,0-.80859-.38672,1.34578,1.34578,0,0,0-.8916.33838,1.627,1.627,0,0,0-.40039,1.27881v2.49609h-.791Z"/><path class="cls-2" d="M41.64258,5.99121a1.78766,1.78766,0,0,1,.71191.60889,2.11263,2.11263,0,0,1,.31446.83056,5.53819,5.53819,0,0,1,.06933,1.03711H39.31543a2.02853,2.02853,0,0,0,.33594,1.15235,1.11788,1.11788,0,0,0,.97168.43408,1.2492,1.2492,0,0,0,.98144-.41065,1.39128,1.39128,0,0,0,.29-.55175h.77832a1.64814,1.64814,0,0,1-.2041.57812,2.0863,2.0863,0,0,1-.3877.52051,1.8226,1.8226,0,0,1-.88574.47461,2.66387,2.66387,0,0,1-.64062.07031,1.96223,1.96223,0,0,1-1.48047-.63965,2.49361,2.49361,0,0,1-.60742-1.79052,2.71774,2.71774,0,0,1,.61132-1.84131,2.01252,2.01252,0,0,1,1.59864-.70752A2.13106,2.13106,0,0,1,41.64258,5.99121Zm.2832,1.84815a2.06652,2.06652,0,0,0-.22266-.82178A1.136,1.136,0,0,0,40.627,6.44629a1.18836,1.18836,0,0,0-.90625.39355,1.492,1.492,0,0,0-.38769.99952Z"/><path class="cls-2" d="M48.76367,7.72021a.42885.42885,0,0,0,.36426-.22851.69861.69861,0,0,0,.05273-.3042.64618.64618,0,0,0-.28711-.58887,1.53386,1.53386,0,0,0-.82226-.1831,1.04049,1.04049,0,0,0-.877.33545,1.11089,1.11089,0,0,0-.18848.55224h-.73828a1.36558,1.36558,0,0,1,.56347-1.21435,2.31173,2.31173,0,0,1,1.25782-.34131,2.55864,2.55864,0,0,1,1.34765.3164,1.075,1.075,0,0,1,.51368.98438V9.75977a.34337.34337,0,0,0,.05078.19775.24262.24262,0,0,0,.21289.07471,1.06734,1.06734,0,0,0,.11816-.00684c.04395-.00391.09082-.01074.14063-.01953v.58447a2.2029,2.2029,0,0,1-.28125.06592,2.05545,2.05545,0,0,1-.26368.01318.64974.64974,0,0,1-.59277-.29,1.11881,1.11881,0,0,1-.13672-.43505,2.01256,2.01256,0,0,1-.69433.54931,2.14567,2.14567,0,0,1-.99707.23291,1.48464,1.48464,0,0,1-1.07032-.39746,1.31889,1.31889,0,0,1-.415-.99365,1.28031,1.28031,0,0,1,.40821-1.01416A1.94761,1.94761,0,0,1,47.502,7.87793Zm-1.666,2.13672a.93248.93248,0,0,0,.59375.19727A1.80961,1.80961,0,0,0,48.5,9.86133a1.0867,1.0867,0,0,0,.65918-1.04883V8.17627a1.33465,1.33465,0,0,1-.373.1543,3.038,3.038,0,0,1-.44726.08789L47.86035,8.48a1.83521,1.83521,0,0,0-.64551.18018.69815.69815,0,0,0-.36718.65771A.64882.64882,0,0,0,47.09766,9.85693Z"/><path class="cls-2" d="M51.26855,5.86182h.751v.813a1.80471,1.80471,0,0,1,.45313-.57812,1.17431,1.17431,0,0,1,.83007-.34033c.01465,0,.04.00146.0752.00439s.09473.00879.17969.01758v.835a1.16994,1.16994,0,0,0-.12989-.01758q-.05859-.00439-.1289-.00439a1.13114,1.13114,0,0,0-.919.38428,1.34329,1.34329,0,0,0-.32031.88574v2.707h-.791Z"/><path class="cls-2" d="M57.35254,6.1123a1.85442,1.85442,0,0,1,.59961,1.33155h-.76856a1.42284,1.42284,0,0,0-.32129-.72315,1.01383,1.01383,0,0,0-.80371-.28759,1.111,1.111,0,0,0-1.08105.7373,2.92519,2.92519,0,0,0-.21094,1.18066,2.21922,2.21922,0,0,0,.29883,1.18946,1.15955,1.15955,0,0,0,1.71973.1831,1.6426,1.6426,0,0,0,.39843-.8208h.76856a2.06248,2.06248,0,0,1-.65918,1.36865,2.05271,2.05271,0,0,1-1.34863.43311,1.8017,1.8017,0,0,1-1.47266-.67432,2.58226,2.58226,0,0,1-.54883-1.68554,2.83912,2.83912,0,0,1,.60156-1.9292,1.94642,1.94642,0,0,1,1.53418-.68994A2.05228,2.05228,0,0,1,57.35254,6.1123Z"/><path class="cls-2" d="M58.74316,4.09082h.791V6.499a2.28415,2.28415,0,0,1,.50586-.501,1.70314,1.70314,0,0,1,.95312-.25049,1.41035,1.41035,0,0,1,1.38868.71631,2.44208,2.44208,0,0,1,.19824,1.08545v3.019H61.7666V7.60205a1.65907,1.65907,0,0,0-.13183-.76025.84237.84237,0,0,0-.8086-.38672,1.34578,1.34578,0,0,0-.8916.33838,1.627,1.627,0,0,0-.40039,1.27881v2.49609h-.791Z"/><path class="cls-2" d="M66.65625,5.99121a1.78766,1.78766,0,0,1,.71191.60889,2.11263,2.11263,0,0,1,.31446.83056,5.53732,5.53732,0,0,1,.06933,1.03711H64.3291A2.02853,2.02853,0,0,0,64.665,9.62012a1.11788,1.11788,0,0,0,.97168.43408,1.24918,1.24918,0,0,0,.98144-.41065,1.39128,1.39128,0,0,0,.29-.55175h.77832a1.64774,1.64774,0,0,1-.2041.57812,2.08652,2.08652,0,0,1-.38769.52051,1.82263,1.82263,0,0,1-.88575.47461,2.66387,2.66387,0,0,1-.64062.07031,1.96223,1.96223,0,0,1-1.48047-.63965,2.49361,2.49361,0,0,1-.60742-1.79052,2.71769,2.71769,0,0,1,.61133-1.84131,2.0125,2.0125,0,0,1,1.59863-.70752A2.131,2.131,0,0,1,66.65625,5.99121Zm.2832,1.84815a2.06653,2.06653,0,0,0-.22265-.82178,1.136,1.136,0,0,0-1.07618-.57129,1.18834,1.18834,0,0,0-.90624.39355,1.492,1.492,0,0,0-.3877.99952Z"/><path class="cls-2" d="M68.91211,4.54785h.7998v1.314h.752v.646h-.752V9.57959a.33239.33239,0,0,0,.167.32959.70971.70971,0,0,0,.30761.04834q.05713,0,.123-.00293c.044-.00195.0957-.00684.1543-.01465v.62842a1.764,1.764,0,0,1-.28418.05713,2.68436,2.68436,0,0,1-.31836.01758.85645.85645,0,0,1-.751-.28369,1.25791,1.25791,0,0,1-.19824-.73584V6.50781h-.63672v-.646h.63672Z"/><path class="cls-2" d="M74.19727,5.86182h.874q-.167.45263-.74219,2.0664-.43212,1.21362-.7207,1.97852a13.37134,13.37134,0,0,1-.9668,2.1958,1.103,1.103,0,0,1-.96582.395,1.89919,1.89919,0,0,1-.25683-.01318,2.055,2.055,0,0,1-.22168-.04834v-.72071a2.7254,2.7254,0,0,0,.29882.07031,1.16013,1.16013,0,0,0,.16211.01319.56981.56981,0,0,0,.32227-.07227.67642.67642,0,0,0,.17383-.17773c.01465-.02344.0664-.14356.15722-.35938q.13623-.32519.19825-.48242L70.76953,5.86182H71.666l1.26074,3.834Z"/><path class="cls-2" d="M75.68848,5.88379h.77343v.624a1.926,1.926,0,0,1,.52051-.49658,1.67336,1.67336,0,0,1,.94238-.26367,1.77528,1.77528,0,0,1,1.36133.61279,2.5089,2.5089,0,0,1,.55957,1.75147,2.68364,2.68364,0,0,1-.80664,2.19726,1.83,1.83,0,0,1-1.1914.41748,1.62018,1.62018,0,0,1-.89551-.23291,2.05836,2.05836,0,0,1-.47266-.45263v2.4038h-.791ZM78.665,9.57324a2.20369,2.20369,0,0,0,.36816-1.38672,2.58748,2.58748,0,0,0-.16308-.96679,1.19694,1.19694,0,0,0-2.25782.04394,3.23239,3.23239,0,0,0-.16308,1.11621,2.34831,2.34831,0,0,0,.16308.92725,1.20107,1.20107,0,0,0,2.05274.26611Z"/><path class="cls-2" d="M83.667,5.99121a1.78769,1.78769,0,0,1,.71192.60889,2.11278,2.11278,0,0,1,.31445.83056,5.43461,5.43461,0,0,1,.07031,1.03711H81.33984a2.03608,2.03608,0,0,0,.33594,1.15235,1.11858,1.11858,0,0,0,.97266.43408,1.24852,1.24852,0,0,0,.98047-.41065,1.40585,1.40585,0,0,0,.291-.55175h.77735a1.648,1.648,0,0,1-.20411.57812,2.08628,2.08628,0,0,1-.38769.52051,1.82375,1.82375,0,0,1-.88477.47461,2.67806,2.67806,0,0,1-.6416.07031,1.96373,1.96373,0,0,1-1.48047-.63965,2.49752,2.49752,0,0,1-.60644-1.79052,2.71278,2.71278,0,0,1,.61133-1.84131,2.01113,2.01113,0,0,1,1.59863-.70752A2.12706,2.12706,0,0,1,83.667,5.99121Zm.28321,1.84815a2.06753,2.06753,0,0,0-.22168-.82178,1.13853,1.13853,0,0,0-1.07715-.57129,1.18982,1.18982,0,0,0-.90625.39355,1.492,1.492,0,0,0-.3877.99952Z"/><path class="cls-2" d="M86.23535,9.0918a1.1416,1.1416,0,0,0,.20215.60644,1.28143,1.28143,0,0,0,1.05859.38233,1.59178,1.59178,0,0,0,.78907-.19092.63279.63279,0,0,0,.34082-.59131.50411.50411,0,0,0-.27246-.46143,3.26541,3.26541,0,0,0-.6875-.22412l-.63868-.1582a3.14257,3.14257,0,0,1-.90234-.334.99605.99605,0,0,1-.51758-.8877,1.34806,1.34806,0,0,1,.48731-1.08105,1.96338,1.96338,0,0,1,1.31152-.41309,1.83359,1.83359,0,0,1,1.55469.624,1.34645,1.34645,0,0,1,.28906.85254h-.74707A.892.892,0,0,0,88.30957,6.73a1.25507,1.25507,0,0,0-.9668-.31006,1.18177,1.18177,0,0,0-.69531.1709.53125.53125,0,0,0-.23633.45068.55356.55356,0,0,0,.31055.49073A1.897,1.897,0,0,0,87.25,7.7251l.5332.12744a4.17238,4.17238,0,0,1,1.16407.3999,1.05855,1.05855,0,0,1,.46093.95361,1.44664,1.44664,0,0,1-.48242,1.08545,2.07337,2.07337,0,0,1-1.4707.457,1.98724,1.98724,0,0,1-1.50586-.47706,1.78919,1.78919,0,0,1-.47363-1.17968Z"/><path class="cls-2" d="M96.17578,6.33154a2.37437,2.37437,0,0,1,.624,1.78272,3.06719,3.06719,0,0,1-.5498,1.8789,1.98377,1.98377,0,0,1-1.70605.74219,1.92021,1.92021,0,0,1-1.53125-.65625,2.6,2.6,0,0,1-.56739-1.76318,2.8165,2.8165,0,0,1,.59766-1.8877,2.00047,2.00047,0,0,1,1.60547-.70263A2.1094,2.1094,0,0,1,96.17578,6.33154Zm-.49121,3.12793a2.97741,2.97741,0,0,0,.28906-1.32324,2.38437,2.38437,0,0,0-.208-1.07129,1.17246,1.17246,0,0,0-1.13867-.64941,1.11922,1.11922,0,0,0-1.043.55322,2.57857,2.57857,0,0,0-.32617,1.334,2.24261,2.24261,0,0,0,.32617,1.251,1.14323,1.14323,0,0,0,1.03418.50049A1.076,1.076,0,0,0,95.68457,9.45947Z"/><path class="cls-2" d="M98.14062,4.4248A1.21031,1.21031,0,0,1,99.208,4.02051c.0498,0,.10156.00146.15429.00439s.11231.00733.17969.01319v.7207c-.083-.00586-.14258-.00928-.17969-.01074s-.07226-.00244-.10449-.00244c-.24316,0-.38769.0625-.43554.187a3.67176,3.67176,0,0,0-.07129.95117h.791v.624h-.791v4.06055h-.78223V6.50781h-.6543v-.624h.6543V5.14551A1.41,1.41,0,0,1,98.14062,4.4248Z"/><path class="cls-2" d="M103.56348,5.86182V8.98633a1.34746,1.34746,0,0,0,.11132.58887.77132.77132,0,0,0,.76563.42187,1.08345,1.08345,0,0,0,1.0957-.73828,3.00326,3.00326,0,0,0,.15821-1.08545V5.86182h.791v4.70654h-.74707l.00879-.69434a1.58878,1.58878,0,0,1-.375.45264,1.63046,1.63046,0,0,1-1.07812.36914,1.38453,1.38453,0,0,1-1.34571-.67236,2.04089,2.04089,0,0,1-.19336-.9624V5.86182Z"/><path class="cls-2" d="M107.7998,5.86182h.751v.813a1.80471,1.80471,0,0,1,.45313-.57812,1.17431,1.17431,0,0,1,.83007-.34033c.01465,0,.04.00146.0752.00439s.09473.00879.17969.01758v.835a1.16994,1.16994,0,0,0-.12989-.01758q-.05859-.00439-.1289-.00439a1.13114,1.13114,0,0,0-.91895.38428,1.34329,1.34329,0,0,0-.32031.88574v2.707h-.791Z"/><path class="cls-2" d="M110.709,4.09082h.76856V6.43311a1.73458,1.73458,0,0,1,1.40723-.69434,1.845,1.845,0,0,1,1.43164.604,2.5689,2.5689,0,0,1,.5498,1.78223,3.05063,3.05063,0,0,1-.543,1.85449,1.76179,1.76179,0,0,1-1.5039.73828,1.54584,1.54584,0,0,1-.90918-.25927,2.16689,2.16689,0,0,1-.47168-.49219v.60205h-.7295Zm3.02442,5.41846a2.50545,2.50545,0,0,0,.31933-1.34473,2.2033,2.2033,0,0,0-.31933-1.23047,1.054,1.054,0,0,0-.94141-.48779,1.315,1.315,0,0,0-.95019.3999,1.78955,1.78955,0,0,0-.40821,1.31836,2.89169,2.89169,0,0,0,.168,1.07666,1.15642,1.15642,0,0,0,1.168.77783A1.06129,1.06129,0,0,0,113.7334,9.50928Z"/><path class="cls-2" d="M118.30273,7.72021a.42884.42884,0,0,0,.36426-.22851.69859.69859,0,0,0,.05274-.3042.6462.6462,0,0,0-.28711-.58887,1.5339,1.5339,0,0,0-.82227-.1831,1.04049,1.04049,0,0,0-.87695.33545,1.11089,1.11089,0,0,0-.18848.55224h-.73828a1.36556,1.36556,0,0,1,.56348-1.21435,2.31172,2.31172,0,0,1,1.25781-.34131,2.5587,2.5587,0,0,1,1.34766.3164,1.075,1.075,0,0,1,.51367.98438V9.75977a.34337.34337,0,0,0,.05078.19775.24262.24262,0,0,0,.21289.07471,1.06721,1.06721,0,0,0,.11816-.00684c.044-.00391.09082-.01074.14063-.01953v.58447a2.2029,2.2029,0,0,1-.28125.06592,2.05528,2.05528,0,0,1-.26367.01318.64976.64976,0,0,1-.59278-.29,1.11881,1.11881,0,0,1-.13672-.43505,2.01247,2.01247,0,0,1-.69433.54931,2.14567,2.14567,0,0,1-.99707.23291,1.48461,1.48461,0,0,1-1.07031-.39746,1.31885,1.31885,0,0,1-.415-.99365,1.28031,1.28031,0,0,1,.4082-1.01416,1.94762,1.94762,0,0,1,1.07227-.44336Zm-1.666,2.13672a.93248.93248,0,0,0,.59375.19727,1.80961,1.80961,0,0,0,.80859-.19287,1.08668,1.08668,0,0,0,.65918-1.04883V8.17627a1.3347,1.3347,0,0,1-.373.1543,3.03835,3.03835,0,0,1-.44727.08789l-.47852.06152a1.83508,1.83508,0,0,0-.6455.18018.69814.69814,0,0,0-.36719.65771A.64885.64885,0,0,0,116.63672,9.85693Z"/><path class="cls-2" d="M120.78516,5.86182h.75195v.668a2.10645,2.10645,0,0,1,.707-.59327,1.889,1.889,0,0,1,.83106-.18017,1.36946,1.36946,0,0,1,1.35351.69873,2.48108,2.48108,0,0,1,.19336,1.09424v3.019h-.80469V7.60205a1.60685,1.60685,0,0,0-.12695-.69434.77263.77263,0,0,0-.76465-.43945,1.56029,1.56029,0,0,0-.46191.05713,1.18826,1.18826,0,0,0-.57129.38672,1.1587,1.1587,0,0,0-.25684.48144,3.20366,3.20366,0,0,0-.05957.70948v2.46533h-.791Z"/><path class="cls-2" d="M128.22559,5.88379h.77246v.624a1.92867,1.92867,0,0,1,.52148-.49658,1.67236,1.67236,0,0,1,.94141-.26367,1.77931,1.77931,0,0,1,1.36328.61279,2.518,2.518,0,0,1,.55859,1.75147,2.68672,2.68672,0,0,1-.80664,2.19726,1.83,1.83,0,0,1-1.1914.41748,1.62817,1.62817,0,0,1-.89649-.23291,2.07819,2.07819,0,0,1-.47266-.45263v2.4038h-.79Zm2.97558,3.68945a2.19733,2.19733,0,0,0,.36914-1.38672,2.56733,2.56733,0,0,0-.16406-.96679,1.19694,1.19694,0,0,0-2.25781.04394,3.282,3.282,0,0,0-.16211,1.11621,2.3845,2.3845,0,0,0,.16211.92725,1.20106,1.20106,0,0,0,2.05273.26611Z"/><path class="cls-2" d="M133.31836,5.86182h.75195v.813a1.79082,1.79082,0,0,1,.45313-.57812,1.17266,1.17266,0,0,1,.83008-.34033c.01464,0,.03906.00146.07421.00439s.09571.00879.18067.01758v.835a1.17009,1.17009,0,0,0-.12988-.01758c-.03907-.00293-.083-.00439-.12891-.00439a1.12983,1.12983,0,0,0-.919.38428,1.34421,1.34421,0,0,0-.32128.88574v2.707h-.791Z"/><path class="cls-2" d="M139.7041,6.33154a2.37437,2.37437,0,0,1,.624,1.78272,3.07358,3.07358,0,0,1-.5498,1.8789,1.98377,1.98377,0,0,1-1.70605.74219A1.92226,1.92226,0,0,1,136.54,10.0791a2.60454,2.60454,0,0,1-.56641-1.76318,2.8165,2.8165,0,0,1,.59766-1.8877,2.00047,2.00047,0,0,1,1.60547-.70263A2.1094,2.1094,0,0,1,139.7041,6.33154Zm-.49121,3.12793a2.9908,2.9908,0,0,0,.28906-1.32324,2.37053,2.37053,0,0,0-.209-1.07129,1.17106,1.17106,0,0,0-1.1377-.64941,1.11922,1.11922,0,0,0-1.043.55322,2.57857,2.57857,0,0,0-.32617,1.334,2.24261,2.24261,0,0,0,.32617,1.251,1.14323,1.14323,0,0,0,1.03418.50049A1.076,1.076,0,0,0,139.21289,9.45947Z"/><path class="cls-2" d="M141.76953,9.0918a1.13333,1.13333,0,0,0,.20117.60644,1.28275,1.28275,0,0,0,1.0586.38233,1.58914,1.58914,0,0,0,.78906-.19092.63362.63362,0,0,0,.3418-.59131.505.505,0,0,0-.27344-.46143,3.24459,3.24459,0,0,0-.6875-.22412l-.63867-.1582a3.1459,3.1459,0,0,1-.90137-.334.99511.99511,0,0,1-.51856-.8877,1.34806,1.34806,0,0,1,.48731-1.08105,1.96338,1.96338,0,0,1,1.31152-.41309,1.83236,1.83236,0,0,1,1.55469.624,1.34076,1.34076,0,0,1,.28906.85254h-.74609a.9008.9008,0,0,0-.19434-.48535,1.255,1.255,0,0,0-.96679-.31006,1.18387,1.18387,0,0,0-.69532.1709.53035.53035,0,0,0-.23535.45068.55252.55252,0,0,0,.30957.49073,1.90921,1.90921,0,0,0,.52832.19287l.53321.12744a4.17228,4.17228,0,0,1,1.16406.3999,1.05854,1.05854,0,0,1,.46094.95361,1.44318,1.44318,0,0,1-.48243,1.08545,2.07013,2.07013,0,0,1-1.4707.457,1.98725,1.98725,0,0,1-1.50586-.47706,1.78923,1.78923,0,0,1-.47363-1.17968Z"/><path class="cls-2" d="M145.73242,5.88379h.77344v.624a1.92581,1.92581,0,0,1,.52051-.49658,1.67558,1.67558,0,0,1,.94238-.26367,1.77727,1.77727,0,0,1,1.3623.61279,2.51358,2.51358,0,0,1,.55957,1.75147,2.684,2.684,0,0,1-.80761,2.19726,1.83,1.83,0,0,1-1.19141.41748,1.62246,1.62246,0,0,1-.89551-.23291,2.05835,2.05835,0,0,1-.47265-.45263v2.4038h-.791ZM148.709,9.57324a2.20369,2.20369,0,0,0,.36817-1.38672,2.58747,2.58747,0,0,0-.16309-.96679,1.19694,1.19694,0,0,0-2.25781.04394,3.25578,3.25578,0,0,0-.16309,1.11621,2.36577,2.36577,0,0,0,.16309.92725,1.20106,1.20106,0,0,0,2.05273.26611Z"/><path class="cls-2" d="M153.71191,5.99121a1.78769,1.78769,0,0,1,.71192.60889,2.11262,2.11262,0,0,1,.31445.83056,5.43377,5.43377,0,0,1,.07031,1.03711h-3.42382a2.036,2.036,0,0,0,.33593,1.15235,1.11791,1.11791,0,0,0,.97168.43408,1.2492,1.2492,0,0,0,.98145-.41065,1.40559,1.40559,0,0,0,.291-.55175h.77735a1.64814,1.64814,0,0,1-.2041.57812,2.0863,2.0863,0,0,1-.3877.52051,1.82375,1.82375,0,0,1-.88477.47461,2.67806,2.67806,0,0,1-.6416.07031,1.96223,1.96223,0,0,1-1.48047-.63965,2.49752,2.49752,0,0,1-.60644-1.79052,2.71278,2.71278,0,0,1,.61133-1.84131,2.01113,2.01113,0,0,1,1.59863-.70752A2.13008,2.13008,0,0,1,153.71191,5.99121Zm.28321,1.84815a2.06669,2.06669,0,0,0-.22266-.82178,1.136,1.136,0,0,0-1.07617-.57129,1.18836,1.18836,0,0,0-.90625.39355,1.492,1.492,0,0,0-.3877.99952Z"/><path class="cls-2" d="M155.832,5.86182h.75195v.813a1.79082,1.79082,0,0,1,.45313-.57812,1.17266,1.17266,0,0,1,.83008-.34033c.01465,0,.03906.00146.07422.00439s.0957.00879.18066.01758v.835a1.16946,1.16946,0,0,0-.12988-.01758c-.03907-.00293-.083-.00439-.12891-.00439a1.1298,1.1298,0,0,0-.91894.38428,1.34417,1.34417,0,0,0-.32129.88574v2.707h-.791Z"/><path class="cls-2" d="M158.80664,4.11279h.80469v.89649h-.80469Zm0,1.771h.80469v4.68457h-.80469Z"/><path class="cls-2" d="M160.96484,4.54785h.79981v1.314h.751v.646h-.751V9.57959a.33238.33238,0,0,0,.167.32959.70973.70973,0,0,0,.30762.04834q.05712,0,.123-.00293c.04395-.00195.09473-.00684.15332-.01465v.62842a1.752,1.752,0,0,1-.2832.05713,2.68424,2.68424,0,0,1-.31836.01758.85965.85965,0,0,1-.75195-.28369,1.26494,1.26494,0,0,1-.19727-.73584V6.50781h-.63672v-.646h.63672Z"/><path class="cls-2" d="M166.249,5.86182h.874q-.167.45263-.74219,2.0664-.43067,1.21362-.7207,1.97852a13.49556,13.49556,0,0,1-.96582,2.1958,1.10535,1.10535,0,0,1-.96582.395,1.88949,1.88949,0,0,1-.25684-.01318A1.95882,1.95882,0,0,1,163.25,12.436v-.72071a2.67106,2.67106,0,0,0,.29785.07031,1.16013,1.16013,0,0,0,.16211.01319.56981.56981,0,0,0,.32227-.07227.66157.66157,0,0,0,.17382-.17773c.01465-.02344.06739-.14356.15821-.35938.08984-.21679.15625-.37744.19726-.48242l-1.74023-4.84521h.89648l1.26075,3.834Z"/><line class="cls-4" x1="43.3407" y1="80.14655" x2="41.8407" y2="80.14655"/><line class="cls-5" x1="39.52051" y1="80.14655" x2="31.39978" y2="80.14655"/><line class="cls-4" x1="30.23975" y1="80.14655" x2="28.73975" y2="80.14655"/><line class="cls-4" x1="57.94165" y1="80.14655" x2="56.44165" y2="80.14655"/><line class="cls-5" x1="54.12146" y1="80.14655" x2="46.00085" y2="80.14655"/><line class="cls-4" x1="44.8407" y1="80.14655" x2="43.3407" y2="80.14655"/><line class="cls-4" x1="72.54272" y1="80.14655" x2="71.04272" y2="80.14655"/><line class="cls-5" x1="68.72253" y1="80.14655" x2="60.60181" y2="80.14655"/><line class="cls-4" x1="59.44165" y1="80.14655" x2="57.94165" y2="80.14655"/><line class="cls-4" x1="87.14368" y1="80.14655" x2="85.64368" y2="80.14655"/><line class="cls-5" x1="83.32349" y1="80.14655" x2="75.20276" y2="80.14655"/><line class="cls-4" x1="74.04272" y1="80.14655" x2="72.54272" y2="80.14655"/><line class="cls-4" x1="101.74463" y1="80.14655" x2="100.24463" y2="80.14655"/><line class="cls-5" x1="97.92444" y1="80.14655" x2="89.80383" y2="80.14655"/><line class="cls-4" x1="88.64368" y1="80.14655" x2="87.14368" y2="80.14655"/><line class="cls-4" x1="116.3457" y1="80.14655" x2="114.8457" y2="80.14655"/><line class="cls-5" x1="112.52551" y1="80.14655" x2="104.40479" y2="80.14655"/><line class="cls-4" x1="103.24463" y1="80.14655" x2="101.74463" y2="80.14655"/><line class="cls-4" x1="130.94666" y1="80.14655" x2="129.44666" y2="80.14655"/><line class="cls-5" x1="127.12646" y1="80.14655" x2="119.00574" y2="80.14655"/><line class="cls-4" x1="117.8457" y1="80.14655" x2="116.3457" y2="80.14655"/><line class="cls-4" x1="145.54773" y1="80.14655" x2="144.04773" y2="80.14655"/><line class="cls-5" x1="141.72754" y1="80.14655" x2="133.60681" y2="80.14655"/><line class="cls-4" x1="132.44666" y1="80.14655" x2="130.94666" y2="80.14655"/><line class="cls-4" x1="160.14868" y1="80.14655" x2="158.64868" y2="80.14655"/><line class="cls-5" x1="156.32849" y1="80.14655" x2="148.20776" y2="80.14655"/><line class="cls-4" x1="147.04773" y1="80.14655" x2="145.54773" y2="80.14655"/><line class="cls-4" x1="174.74963" y1="80.14655" x2="173.24963" y2="80.14655"/><line class="cls-5" x1="170.92944" y1="80.14655" x2="162.80884" y2="80.14655"/><line class="cls-4" x1="161.64868" y1="80.14655" x2="160.14868" y2="80.14655"/><line class="cls-4" x1="189.35071" y1="80.14655" x2="187.85071" y2="80.14655"/><line class="cls-5" x1="185.53052" y1="80.14655" x2="177.40979" y2="80.14655"/><line class="cls-4" x1="176.24963" y1="80.14655" x2="174.74963" y2="80.14655"/><line class="cls-4" x1="203.95166" y1="80.14655" x2="202.45166" y2="80.14655"/><line class="cls-5" x1="200.13147" y1="80.14655" x2="192.01074" y2="80.14655"/><line class="cls-4" x1="190.85071" y1="80.14655" x2="189.35071" y2="80.14655"/><line class="cls-4" x1="218.55261" y1="80.14655" x2="217.05261" y2="80.14655"/><line class="cls-5" x1="214.73242" y1="80.14655" x2="206.61182" y2="80.14655"/><line class="cls-4" x1="205.45166" y1="80.14655" x2="203.95166" y2="80.14655"/><path class="cls-2" d="M45.34863,154.93555a3.46812,3.46812,0,0,1-.31152-.21289,1.076,1.076,0,0,1-.21289-.22071.79021.79021,0,0,1-.123-.26953,1.56106,1.56106,0,0,1-.03808-.375,1.04232,1.04232,0,0,1,.1123-.47558,1.254,1.254,0,0,1,.30078-.38868,1.36344,1.36344,0,0,1,.44434-.25488,1.51368,1.51368,0,0,1,.5498-.084,2.20734,2.20734,0,0,1,.54883.06933,1.48166,1.48166,0,0,1,.47949.2168,1.06667,1.06667,0,0,1,.46192.917,1.29043,1.29043,0,0,1-.15723.6582,1.14712,1.14712,0,0,1-.51465.44825,1.3321,1.3321,0,0,1,.64063.46875,1.25064,1.25064,0,0,1,.23437.75586,1.60412,1.60412,0,0,1-.12207.64453,1.25114,1.25114,0,0,1-.35058.46875,1.56186,1.56186,0,0,1-.54883.28711,2.44556,2.44556,0,0,1-.71387.09765,1.73426,1.73426,0,0,1-.543-.09082,1.523,1.523,0,0,1-.49707-.27246,1.44831,1.44831,0,0,1-.36035-.45508,1.37584,1.37584,0,0,1-.13965-.63769,1.43889,1.43889,0,0,1,.21973-.78711A1.27672,1.27672,0,0,1,45.34863,154.93555Zm.78418.23828a1.69785,1.69785,0,0,0-.47558.06347,1.05616,1.05616,0,0,0-.37793.19239.87576.87576,0,0,0-.252.3291,1.11369,1.11369,0,0,0-.09179.47168,1.03447,1.03447,0,0,0,.08789.42773,1.01586,1.01586,0,0,0,.24511.33887,1.15173,1.15173,0,0,0,.38477.22754,1.44281,1.44281,0,0,0,.50781.084,1.2633,1.2633,0,0,0,.45508-.08007,1.1238,1.1238,0,0,0,.36719-.22754,1.024,1.024,0,0,0,.24512-.35059,1.1112,1.1112,0,0,0,.08789-.44727,1.05231,1.05231,0,0,0-.0918-.45214.89659.89659,0,0,0-.252-.32129,1.06441,1.06441,0,0,0-.37793-.19239A1.64987,1.64987,0,0,0,46.13281,155.17383Zm-.02051-2.1416a1.33366,1.33366,0,0,0-.39257.05566.92831.92831,0,0,0-.31836.168.7834.7834,0,0,0-.21387.28027.9204.9204,0,0,0-.07617.38477.82734.82734,0,0,0,.08691.39551.78211.78211,0,0,0,.23438.26953,1.06349,1.06349,0,0,0,.33593.15722,1.45355,1.45355,0,0,0,.39258.05274,1.30909,1.30909,0,0,0,.37793-.05274.7469.7469,0,0,0,.30078-.17089.83949.83949,0,0,0,.19922-.30176,1.18033,1.18033,0,0,0,.07422-.44727.72407.72407,0,0,0-.24512-.585A1.15852,1.15852,0,0,0,46.1123,153.03223Z"/><path class="cls-2" d="M50.12305,155.55176v.43457H48.35156v-.43457Z"/><path class="cls-2" d="M51.15234,156.45508a1.06193,1.06193,0,0,0,.35352.66113,1.19287,1.19287,0,0,0,.73144.19238,1.26977,1.26977,0,0,0,.39844-.05566.80173.80173,0,0,0,.27637-.15039.63474.63474,0,0,0,.165-.21387.586.586,0,0,0,.05566-.25195.465.465,0,0,0-.1709-.39551,1.297,1.297,0,0,0-.43066-.20312,5.62612,5.62612,0,0,0-.56055-.126,2.73682,2.73682,0,0,1-.55957-.15723,1.12086,1.12086,0,0,1-.43066-.30078.81538.81538,0,0,1-.17188-.55371.94513.94513,0,0,1,.333-.74512,1.387,1.387,0,0,1,.94141-.29,1.61114,1.61114,0,0,1,.956.26172,1.20812,1.20812,0,0,1,.44434.87891h-.42774a.78488.78488,0,0,0-.31836-.5918,1.18581,1.18581,0,0,0-.66113-.1709.94576.94576,0,0,0-.60937.1709.55674.55674,0,0,0-.21.45215.44.44,0,0,0,.17187.374,1.38378,1.38378,0,0,0,.43067.21c.17187.05371.35937.10156.55957.14355a2.74729,2.74729,0,0,1,.56054.17871,1.22853,1.22853,0,0,1,.42969.31152.80226.80226,0,0,1,.17187.5459.91226.91226,0,0,1-.1123.458.96382.96382,0,0,1-.30762.333,1.42322,1.42322,0,0,1-.46582.19922,2.43745,2.43745,0,0,1-.59082.0664,1.61483,1.61483,0,0,1-.57129-.09375,1.25534,1.25534,0,0,1-.42285-.26269,1.21011,1.21011,0,0,1-.27344-.39258,1.38472,1.38472,0,0,1-.1123-.48242Z"/><path class="cls-2" d="M55.68066,157.60254q-.07617.01464-.20214.0498a1.08565,1.08565,0,0,1-.28028.03418.66463.66463,0,0,1-.47949-.15722.76313.76313,0,0,1-.165-.56348V154.3125H54.043v-.34961h.51074v-1.00781h.41992v1.00781h.67969v.34961h-.67969v2.48535c0,.08887.00293.166.00782.23145a.3701.3701,0,0,0,.042.16015.19894.19894,0,0,0,.1084.0918.60236.60236,0,0,0,.20605.02734,1.03567,1.03567,0,0,0,.17188-.01367c.05859-.00976.11523-.02148.17089-.03515Z"/><path class="cls-2" d="M58.01855,155.47461c.08008-.00879.17383-.02344.28418-.042a1.05176,1.05176,0,0,0,.26954-.07715.22262.22262,0,0,0,.1289-.16406,1.01921,1.01921,0,0,0,.02442-.21387.716.716,0,0,0-.20606-.52832.96334.96334,0,0,0-.69629-.20606,1.94657,1.94657,0,0,0-.39941.03809.87186.87186,0,0,0-.31836.13281.73609.73609,0,0,0-.22363.252,1.06766,1.06766,0,0,0-.11622.3955h-.42675a1.29149,1.29149,0,0,1,.14746-.54882,1.10941,1.10941,0,0,1,.32519-.3711,1.34206,1.34206,0,0,1,.46192-.21,2.22954,2.22954,0,0,1,.55664-.06641,2.13091,2.13091,0,0,1,.51465.05957,1.188,1.188,0,0,1,.41992.18848.87822.87822,0,0,1,.2793.34668,1.24125,1.24125,0,0,1,.10156.53223v1.97363c0,.16309.02929.26758.08789.31152s.17578.03418.35351-.03125v.32911c-.0332.00878-.08007.02343-.14355.042a.65214.65214,0,0,1-.18555.02734.85045.85045,0,0,1-.18847-.02051.33148.33148,0,0,1-.16895-.0664.40708.40708,0,0,1-.10059-.126.48907.48907,0,0,1-.05273-.16113,1.12489,1.12489,0,0,1-.01465-.18555,1.81237,1.81237,0,0,1-.6084.44824,1.79367,1.79367,0,0,1-.74218.15332,1.6567,1.6567,0,0,1-.458-.0625,1.09754,1.09754,0,0,1-.38867-.19629.97734.97734,0,0,1-.26661-.32519,1.00084,1.00084,0,0,1-.09765-.459q0-.92284,1.2666-1.09179Zm.707.21a2.03214,2.03214,0,0,1-.53907.14746q-.27246.03516-.5459.05567a1.543,1.543,0,0,0-.752.21679.62309.62309,0,0,0-.26953.55371.59186.59186,0,0,0,.06641.29.60684.60684,0,0,0,.1748.20313.73316.73316,0,0,0,.252.11914,1.12845,1.12845,0,0,0,.291.03808,1.89829,1.89829,0,0,0,.48926-.0625,1.33343,1.33343,0,0,0,.42383-.19238.99281.99281,0,0,0,.29785-.3291.95564.95564,0,0,0,.11133-.47266Z"/><path class="cls-2" d="M61.51855,157.60254q-.07617.01464-.20214.0498a1.08565,1.08565,0,0,1-.28028.03418.66464.66464,0,0,1-.47949-.15722.76313.76313,0,0,1-.165-.56348V154.3125h-.51074v-.34961h.51074v-1.00781h.41992v1.00781h.67969v.34961h-.67969v2.48535c0,.08887.00293.166.00782.23145a.3701.3701,0,0,0,.042.16015.19894.19894,0,0,0,.1084.0918.60236.60236,0,0,0,.20605.02734,1.03567,1.03567,0,0,0,.17188-.01367c.05859-.00976.11523-.02148.17089-.03515Z"/><path class="cls-2" d="M62.4502,155.874a1.99111,1.99111,0,0,0,.07617.55664,1.37312,1.37312,0,0,0,.22754.45508,1.10772,1.10772,0,0,0,.38183.30762,1.1727,1.1727,0,0,0,.53223.11523,1.15873,1.15873,0,0,0,.707-.21679,1.04655,1.04655,0,0,0,.3916-.61621h.46875a2.217,2.217,0,0,1-.20215.47949,1.48828,1.48828,0,0,1-.31543.38574,1.362,1.362,0,0,1-.44824.25488,1.81657,1.81657,0,0,1-.60156.09082,1.7608,1.7608,0,0,1-.749-.14648,1.42885,1.42885,0,0,1-.51856-.40234,1.71268,1.71268,0,0,1-.30078-.60254A2.722,2.722,0,0,1,62.002,155.79a2.36885,2.36885,0,0,1,.11524-.749,1.90187,1.90187,0,0,1,.3291-.61231,1.5277,1.5277,0,0,1,.52148-.41309,1.5697,1.5697,0,0,1,.7002-.15039,1.44637,1.44637,0,0,1,1.17578.51368,2.265,2.265,0,0,1,.41992,1.49511Zm2.36523-.35058a1.66869,1.66869,0,0,0-.07324-.5,1.16721,1.16721,0,0,0-.2168-.40625,1.03,1.03,0,0,0-.36035-.27246,1.15048,1.15048,0,0,0-.49707-.10157,1.11777,1.11777,0,0,0-.49414.1045,1.14356,1.14356,0,0,0-.36328.28027,1.39307,1.39307,0,0,0-.24219.40625,1.87715,1.87715,0,0,0-.11816.48926Z"/><path class="cls-2" d="M69.69434,155.47461c.08007-.00879.17382-.02344.28418-.042a1.05179,1.05179,0,0,0,.26953-.07715.22262.22262,0,0,0,.1289-.16406,1.01921,1.01921,0,0,0,.02442-.21387.716.716,0,0,0-.20606-.52832.96332.96332,0,0,0-.69629-.20606,1.94664,1.94664,0,0,0-.39941.03809.87193.87193,0,0,0-.31836.13281.73609.73609,0,0,0-.22363.252,1.06748,1.06748,0,0,0-.11621.3955h-.42676a1.29149,1.29149,0,0,1,.14746-.54882,1.10941,1.10941,0,0,1,.32519-.3711,1.34206,1.34206,0,0,1,.46192-.21,2.22954,2.22954,0,0,1,.55664-.06641,2.13085,2.13085,0,0,1,.51465.05957,1.188,1.188,0,0,1,.41992.18848.87822.87822,0,0,1,.2793.34668,1.2411,1.2411,0,0,1,.10156.53223v1.97363c0,.16309.0293.26758.08789.31152s.17578.03418.35352-.03125v.32911c-.03321.00878-.08008.02343-.14356.042a.65214.65214,0,0,1-.18555.02734.85045.85045,0,0,1-.18847-.02051.33148.33148,0,0,1-.16895-.0664.4069.4069,0,0,1-.10058-.126.48885.48885,0,0,1-.05274-.16113,1.126,1.126,0,0,1-.01465-.18555,1.81227,1.81227,0,0,1-.6084.44824,1.79367,1.79367,0,0,1-.74218.15332,1.6567,1.6567,0,0,1-.458-.0625,1.09763,1.09763,0,0,1-.38867-.19629.97731.97731,0,0,1-.2666-.32519,1.00084,1.00084,0,0,1-.09766-.459q0-.92284,1.2666-1.09179Zm.707.21a2.03214,2.03214,0,0,1-.53907.14746q-.27246.03516-.54589.05567a1.543,1.543,0,0,0-.752.21679.62311.62311,0,0,0-.26953.55371.592.592,0,0,0,.06641.29.60684.60684,0,0,0,.1748.20313.73313.73313,0,0,0,.252.11914,1.12832,1.12832,0,0,0,.291.03808,1.89829,1.89829,0,0,0,.48926-.0625,1.33343,1.33343,0,0,0,.42383-.19238.99281.99281,0,0,0,.29785-.3291.95564.95564,0,0,0,.11133-.47266Z"/><path class="cls-2" d="M71.53613,153.96289h.45508l1.17578,3.1084,1.17578-3.1084h.45508l-1.40723,3.626h-.46874Z"/><path class="cls-2" d="M75.67969,155.874a1.95584,1.95584,0,0,0,.07715.55664,1.33706,1.33706,0,0,0,.22754.45508,1.10763,1.10763,0,0,0,.38183.30762,1.16848,1.16848,0,0,0,.53125.11523,1.15671,1.15671,0,0,0,.707-.21679,1.04324,1.04324,0,0,0,.39258-.61621h.46875a2.26943,2.26943,0,0,1-.20312.47949,1.46907,1.46907,0,0,1-.31543.38574,1.36725,1.36725,0,0,1-.44727.25488,1.82258,1.82258,0,0,1-.60254.09082,1.7639,1.7639,0,0,1-.749-.14648,1.41725,1.41725,0,0,1-.51758-.40234,1.69652,1.69652,0,0,1-.30078-.60254,2.7216,2.7216,0,0,1-.09863-.74512,2.369,2.369,0,0,1,.11621-.749,1.89991,1.89991,0,0,1,.32812-.61231,1.52764,1.52764,0,0,1,.52149-.41309,1.57556,1.57556,0,0,1,.70019-.15039,1.447,1.447,0,0,1,1.17676.51368,2.27049,2.27049,0,0,1,.41992,1.49511Zm2.36621-.35058a1.669,1.669,0,0,0-.07324-.5,1.18523,1.18523,0,0,0-.21778-.40625,1.03,1.03,0,0,0-.36035-.27246,1.15048,1.15048,0,0,0-.49707-.10157,1.11342,1.11342,0,0,0-.49316.1045,1.14741,1.14741,0,0,0-.36426.28027,1.39069,1.39069,0,0,0-.24121.40625,1.87824,1.87824,0,0,0-.11914.48926Z"/><path class="cls-2" d="M79.75391,157.58887H79.334v-3.626h.41993v.67871h.01367a1.21886,1.21886,0,0,1,.45215-.60547,1.3723,1.3723,0,0,1,.73144-.1709v.45508a1.22366,1.22366,0,0,0-.58789.11133.96883.96883,0,0,0-.36816.32227,1.28145,1.28145,0,0,0-.18848.47949,3.07884,3.07884,0,0,0-.05273.57715Z"/><path class="cls-2" d="M83.30957,155.47461c.08008-.00879.17383-.02344.28418-.042a1.05167,1.05167,0,0,0,.26953-.07715.22261.22261,0,0,0,.12891-.16406,1.01916,1.01916,0,0,0,.02441-.21387.71607.71607,0,0,0-.206-.52832.96335.96335,0,0,0-.69629-.20606,1.94674,1.94674,0,0,0-.39942.03809.87193.87193,0,0,0-.31836.13281.73619.73619,0,0,0-.22363.252,1.06786,1.06786,0,0,0-.11621.3955h-.42676a1.29164,1.29164,0,0,1,.14746-.54882,1.10955,1.10955,0,0,1,.3252-.3711,1.342,1.342,0,0,1,.46191-.21,2.2296,2.2296,0,0,1,.55664-.06641,2.13085,2.13085,0,0,1,.51465.05957,1.18792,1.18792,0,0,1,.41992.18848.87814.87814,0,0,1,.2793.34668,1.2411,1.2411,0,0,1,.10156.53223v1.97363c0,.16309.0293.26758.08789.31152s.17579.03418.35352-.03125v.32911c-.0332.00878-.08008.02343-.14355.042a.65214.65214,0,0,1-.18555.02734.85061.85061,0,0,1-.18848-.02051.33148.33148,0,0,1-.16894-.0664.40679.40679,0,0,1-.10059-.126.48884.48884,0,0,1-.05273-.16113,1.12489,1.12489,0,0,1-.01465-.18555,1.81246,1.81246,0,0,1-.6084.44824,1.79371,1.79371,0,0,1-.74219.15332,1.6568,1.6568,0,0,1-.458-.0625,1.09763,1.09763,0,0,1-.38867-.19629.97743.97743,0,0,1-.2666-.32519,1.00084,1.00084,0,0,1-.09766-.459q0-.92284,1.26661-1.09179Zm.707.21a2.03208,2.03208,0,0,1-.53906.14746q-.27246.03516-.5459.05567a1.54291,1.54291,0,0,0-.752.21679.62309.62309,0,0,0-.26953.55371.592.592,0,0,0,.0664.29.60687.60687,0,0,0,.17481.20313.73308.73308,0,0,0,.25195.11914,1.12834,1.12834,0,0,0,.291.03808,1.89826,1.89826,0,0,0,.48925-.0625,1.33333,1.33333,0,0,0,.42383-.19238.9926.9926,0,0,0,.29785-.3291.95564.95564,0,0,0,.11133-.47266Z"/><path class="cls-2" d="M88.33594,153.96289h.41992v3.27637a3.23094,3.23094,0,0,1-.07324.69629,1.49607,1.49607,0,0,1-.2627.584,1.32152,1.32152,0,0,1-.51758.40332,2.41878,2.41878,0,0,1-1.5332.04883,1.49852,1.49852,0,0,1-.46875-.25586,1.09716,1.09716,0,0,1-.27734-.33984.84309.84309,0,0,1-.10059-.34571h.44727a.83127.83127,0,0,0,.15429.332.77329.77329,0,0,0,.248.20313,1.06426,1.06426,0,0,0,.31934.10156,2.30049,2.30049,0,0,0,.36328.02832,1.39052,1.39052,0,0,0,.68652-.14746,1.003,1.003,0,0,0,.3916-.38476,1.49444,1.49444,0,0,0,.17188-.53907,4.14208,4.14208,0,0,0,.03125-.61621,1.30684,1.30684,0,0,1-.55664.50781,1.66965,1.66965,0,0,1-.73828.1709,1.53757,1.53757,0,0,1-.71778-.15722,1.46681,1.46681,0,0,1-.5039-.41992,1.78774,1.78774,0,0,1-.29688-.61231,2.68815,2.68815,0,0,1-.09863-.72852,2.97577,2.97577,0,0,1,.09082-.749,1.64752,1.64752,0,0,1,.291-.60547,1.40393,1.40393,0,0,1,.50684-.40234,1.73636,1.73636,0,0,1,.749-.14649,1.346,1.346,0,0,1,.35743.04883,1.6746,1.6746,0,0,1,.35351.13965,1.35864,1.35864,0,0,1,.31543.23145,1.24579,1.24579,0,0,1,.23438.31445h.01367Zm0,1.82715a2.26491,2.26491,0,0,0-.08008-.61231,1.47574,1.47574,0,0,0-.23535-.49023,1.09706,1.09706,0,0,0-.38477-.3252,1.11845,1.11845,0,0,0-.52441-.11914,1.25667,1.25667,0,0,0-.49024.09375,1.12479,1.12479,0,0,0-.39257.27735,1.29028,1.29028,0,0,0-.26172.44433,1.77124,1.77124,0,0,0-.09473.60547,2.34334,2.34334,0,0,0,.05566.64063,1.51871,1.51871,0,0,0,.22461.52148,1.1242,1.1242,0,0,0,.39161.35352,1.1734,1.1734,0,0,0,.56738.1289,1.05919,1.05919,0,0,0,.51367-.12207,1.19131,1.19131,0,0,0,.38574-.3291,1.51637,1.51637,0,0,0,.24121-.4834A2.00526,2.00526,0,0,0,88.33594,155.79Z"/><path class="cls-2" d="M90.07227,155.874a1.99111,1.99111,0,0,0,.07617.55664,1.37331,1.37331,0,0,0,.22754.45508,1.10772,1.10772,0,0,0,.38183.30762,1.1727,1.1727,0,0,0,.53223.11523,1.15873,1.15873,0,0,0,.707-.21679,1.04655,1.04655,0,0,0,.3916-.61621h.46875a2.217,2.217,0,0,1-.20215.47949,1.48828,1.48828,0,0,1-.31543.38574,1.362,1.362,0,0,1-.44824.25488,1.81657,1.81657,0,0,1-.60156.09082,1.7608,1.7608,0,0,1-.749-.14648,1.42885,1.42885,0,0,1-.51856-.40234,1.71285,1.71285,0,0,1-.30078-.60254A2.722,2.722,0,0,1,89.624,155.79a2.36885,2.36885,0,0,1,.11524-.749,1.90187,1.90187,0,0,1,.3291-.61231,1.5277,1.5277,0,0,1,.52148-.41309,1.5697,1.5697,0,0,1,.7002-.15039,1.44637,1.44637,0,0,1,1.17578.51368,2.265,2.265,0,0,1,.41992,1.49511Zm2.36523-.35058a1.66869,1.66869,0,0,0-.07324-.5,1.16721,1.16721,0,0,0-.2168-.40625,1.03,1.03,0,0,0-.36035-.27246,1.15048,1.15048,0,0,0-.49707-.10157,1.11777,1.11777,0,0,0-.49414.1045,1.14356,1.14356,0,0,0-.36328.28027,1.39307,1.39307,0,0,0-.24219.40625,1.87715,1.87715,0,0,0-.11816.48926Z"/><line class="cls-4" x1="29.40991" y1="155.42722" x2="30.90991" y2="155.42722"/><line class="cls-6" x1="32.80396" y1="155.42722" x2="39.43323" y2="155.42722"/><line class="cls-4" x1="40.38025" y1="155.42722" x2="41.88025" y2="155.42722"/></svg>