<svg id="Layer_1" data-name="Layer 1" xmlns="http://www.w3.org/2000/svg" viewBox="0 0 262 173"><defs><style>.cls-1,.cls-4,.cls-5,.cls-6{fill:none;stroke-miterlimit:10;}.cls-1{stroke:#d8d8d8;stroke-width:0.5px;}.cls-2{fill:#1d1d1b;}.cls-3{fill:#19233e;}.cls-4,.cls-5,.cls-6{stroke:#c40d3c;}.cls-5{stroke-dasharray:1.89406 1.89406 1.89406 1.89406;}.cls-6{stroke-dasharray:2.3202 2.3202 2.3202 2.3202;}</style></defs><line class="cls-1" x1="29.73619" y1="132.97531" x2="219.54915" y2="132.97531"/><path class="cls-2" d="M19.67969,135.28906a1.07755,1.07755,0,0,0,.40234.75293,1.32666,1.32666,0,0,0,.81543.24805,1.19845,1.19845,0,0,0,.49316-.09766,1.09128,1.09128,0,0,0,.375-.26953A1.17585,1.17585,0,0,0,22,135.52344a1.46348,1.46348,0,0,0,.08105-.49317,1.40789,1.40789,0,0,0-.08789-.5039,1.19351,1.19351,0,0,0-.24511-.39942,1.062,1.062,0,0,0-.38477-.25879,1.36281,1.36281,0,0,0-.50781-.09082,1.42986,1.42986,0,0,0-.60156.12207,1.25942,1.25942,0,0,0-.46973.38868l-.37109-.04883.39941-2.55469h2.4502v.37793H20.19043l-.30762,1.65918c.09766-.06055.1875-.1123.26953-.1543a1.45708,1.45708,0,0,1,.24805-.10156,1.43866,1.43866,0,0,1,.2627-.05273c.09082-.00879.19238-.01368.30468-.01368a1.69,1.69,0,0,1,.623.11231,1.43037,1.43037,0,0,1,.49707.32129,1.44809,1.44809,0,0,1,.3252.51465,1.91045,1.91045,0,0,1,.11523.68261,1.7707,1.7707,0,0,1-.12891.69629,1.5562,1.5562,0,0,1-.34668.51465,1.46576,1.46576,0,0,1-.501.31836,1.62036,1.62036,0,0,1-.584.1084,2.95522,2.95522,0,0,1-.65429-.06934,1.499,1.499,0,0,1-.53614-.23437,1.27,1.27,0,0,1-.374-.42774,1.57553,1.57553,0,0,1-.17187-.64746Z"/><path class="cls-2" d="M24.82422,131.63574a1.669,1.669,0,0,1,.63086.1084,1.32977,1.32977,0,0,1,.45117.29688,1.55562,1.55562,0,0,1,.30078.4414,2.67017,2.67017,0,0,1,.17871.53516,3.9263,3.9263,0,0,1,.084.585q.0205.30029.0205.58789a6.16094,6.16094,0,0,1-.06933.9375,2.4385,2.4385,0,0,1-.25586.791,1.43871,1.43871,0,0,1-.50781.54589,1.53418,1.53418,0,0,1-.833.20313,1.55416,1.55416,0,0,1-.83594-.20313,1.425,1.425,0,0,1-.51074-.54882,2.48726,2.48726,0,0,1-.25586-.80567,6.37464,6.37464,0,0,1-.07031-.96875,6.58256,6.58256,0,0,1,.06347-.917,2.54981,2.54981,0,0,1,.24121-.80176,1.4598,1.4598,0,0,1,.50782-.57031A1.53688,1.53688,0,0,1,24.82422,131.63574ZM26.043,134.1416a6.611,6.611,0,0,0-.0459-.78125,2.364,2.364,0,0,0-.17871-.68164,1.19237,1.19237,0,0,0-.374-.4834,1.02749,1.02749,0,0,0-.63379-.18164.94482.94482,0,0,0-.60547.18555,1.23213,1.23213,0,0,0-.36719.49316,2.64078,2.64078,0,0,0-.18555.7002,5.973,5.973,0,0,0-.05273.79785,5.684,5.684,0,0,0,.05957.86426,2.20464,2.20464,0,0,0,.19922.66211,1.00033,1.00033,0,0,0,.96582.57324.98919.98919,0,0,0,.64062-.19531,1.24005,1.24005,0,0,0,.36817-.50489,2.56076,2.56076,0,0,0,.168-.69238A7.1438,7.1438,0,0,0,26.043,134.1416Z"/><path class="cls-2" d="M19.67969,125.0625a1.07757,1.07757,0,0,0,.40234.75293,1.32666,1.32666,0,0,0,.81543.248,1.19845,1.19845,0,0,0,.49316-.09766,1.09128,1.09128,0,0,0,.375-.26953A1.17585,1.17585,0,0,0,22,125.29688a1.46348,1.46348,0,0,0,.08105-.49317,1.408,1.408,0,0,0-.08789-.50391,1.19357,1.19357,0,0,0-.24511-.39941,1.062,1.062,0,0,0-.38477-.25879,1.36261,1.36261,0,0,0-.50781-.09082,1.42986,1.42986,0,0,0-.60156.12207,1.25939,1.25939,0,0,0-.46973.38867l-.37109-.04882.39941-2.55469h2.4502v.37793H20.19043l-.30762,1.65918c.09766-.06055.1875-.11231.26953-.1543a1.45708,1.45708,0,0,1,.24805-.10156,1.43951,1.43951,0,0,1,.2627-.05274c.09082-.00879.19238-.01367.30468-.01367a1.69,1.69,0,0,1,.623.11231,1.43037,1.43037,0,0,1,.49707.32129,1.44813,1.44813,0,0,1,.3252.51464,1.91054,1.91054,0,0,1,.11523.68262,1.7707,1.7707,0,0,1-.12891.69629,1.55631,1.55631,0,0,1-.34668.51465,1.46576,1.46576,0,0,1-.501.31836,1.62057,1.62057,0,0,1-.584.1084,2.95522,2.95522,0,0,1-.65429-.06934,1.499,1.499,0,0,1-.53614-.23437,1.27012,1.27012,0,0,1-.374-.42774,1.57553,1.57553,0,0,1-.17187-.64746Z"/><path class="cls-2" d="M24.99219,122.67578H23.71875v-.29394c.18652-.01368.35547-.03223.50781-.05567a1.14874,1.14874,0,0,0,.39844-.13379.804.804,0,0,0,.28711-.2832,1.42771,1.42771,0,0,0,.17187-.5h.35645v4.93457h-.44824Z"/><path class="cls-2" d="M19.67969,114.83594a1.07757,1.07757,0,0,0,.40234.75293,1.32665,1.32665,0,0,0,.81543.248,1.19845,1.19845,0,0,0,.49316-.09765,1.09141,1.09141,0,0,0,.375-.26953A1.1758,1.1758,0,0,0,22,115.07031a1.46342,1.46342,0,0,0,.08105-.49316,1.408,1.408,0,0,0-.08789-.50391,1.19347,1.19347,0,0,0-.24511-.39941,1.062,1.062,0,0,0-.38477-.25879,1.36261,1.36261,0,0,0-.50781-.09082,1.42971,1.42971,0,0,0-.60156.12207,1.25929,1.25929,0,0,0-.46973.38867l-.37109-.04883.39941-2.55468h2.4502v.37793H20.19043l-.30762,1.65917c.09766-.06054.1875-.1123.26953-.15429a1.45708,1.45708,0,0,1,.24805-.10156,1.43867,1.43867,0,0,1,.2627-.05274c.09082-.00879.19238-.01367.30468-.01367a1.69015,1.69015,0,0,1,.623.1123,1.43037,1.43037,0,0,1,.49707.32129,1.44826,1.44826,0,0,1,.3252.51465,1.91054,1.91054,0,0,1,.11523.68262,1.77073,1.77073,0,0,1-.12891.69629,1.55631,1.55631,0,0,1-.34668.51465,1.46591,1.46591,0,0,1-.501.31836,1.62056,1.62056,0,0,1-.584.10839,2.95524,2.95524,0,0,1-.65429-.06933,1.499,1.499,0,0,1-.53614-.23438,1.27009,1.27009,0,0,1-.374-.42773,1.57562,1.57562,0,0,1-.17187-.64746Z"/><path class="cls-2" d="M23.36133,112.79883a1.8743,1.8743,0,0,1,.1123-.66113,1.40932,1.40932,0,0,1,.8291-.83985,1.99352,1.99352,0,0,1,1.31641-.00683,1.41506,1.41506,0,0,1,.47559.29,1.17168,1.17168,0,0,1,.291.43457,1.55313,1.55313,0,0,1-.01074,1.11231,1.59888,1.59888,0,0,1-.28711.44824,2.2552,2.2552,0,0,1-.40527.34961q-.22852.15528-.46582.291-.23877.13623-.46875.26269a3.17175,3.17175,0,0,0-.41309.26563c-.08008.06054-.15625.125-.23144.19238a1.73361,1.73361,0,0,0-.20313.2207,1.06129,1.06129,0,0,0-.14648.2627.96623.96623,0,0,0-.06348.31836h2.751v.37793H23.21484a2.96523,2.96523,0,0,1,.07715-.64356,1.33692,1.33692,0,0,1,.30762-.56054,3.71089,3.71089,0,0,1,.53516-.50391q.27686-.20948.543-.374c.17676-.11036.34571-.21094.50391-.30176a2.52406,2.52406,0,0,0,.41992-.29688,1.25926,1.25926,0,0,0,.28711-.36425,1.06888,1.06888,0,0,0,.10547-.49707,1.03087,1.03087,0,0,0-.085-.42676.94891.94891,0,0,0-.23047-.32227.96236.96236,0,0,0-.34277-.19922,1.30959,1.30959,0,0,0-.42774-.0664.95686.95686,0,0,0-.44433.10156,1.099,1.099,0,0,0-.34278.26953,1.19238,1.19238,0,0,0-.2207.3916,1.23951,1.23951,0,0,0-.0625.47559Z"/><path class="cls-2" d="M19.67969,104.61035a1.07755,1.07755,0,0,0,.40234.75293,1.32666,1.32666,0,0,0,.81543.248,1.19845,1.19845,0,0,0,.49316-.09766,1.09128,1.09128,0,0,0,.375-.26953A1.17585,1.17585,0,0,0,22,104.84473a1.46348,1.46348,0,0,0,.08105-.49317,1.40789,1.40789,0,0,0-.08789-.5039,1.19351,1.19351,0,0,0-.24511-.39942,1.062,1.062,0,0,0-.38477-.25879,1.36281,1.36281,0,0,0-.50781-.09082,1.42986,1.42986,0,0,0-.60156.12207,1.25932,1.25932,0,0,0-.46973.38868l-.37109-.04883.39941-2.55469h2.4502v.37793H20.19043l-.30762,1.65918c.09766-.06055.1875-.11231.26953-.1543a1.45708,1.45708,0,0,1,.24805-.10156,1.43866,1.43866,0,0,1,.2627-.05273c.09082-.00879.19238-.01368.30468-.01368a1.69,1.69,0,0,1,.623.11231,1.43037,1.43037,0,0,1,.49707.32129,1.44809,1.44809,0,0,1,.3252.51465,1.91045,1.91045,0,0,1,.11523.68261,1.7707,1.7707,0,0,1-.12891.69629,1.5562,1.5562,0,0,1-.34668.51465,1.46576,1.46576,0,0,1-.501.31836,1.62057,1.62057,0,0,1-.584.1084,2.95522,2.95522,0,0,1-.65429-.06934,1.499,1.499,0,0,1-.53614-.23437,1.27,1.27,0,0,1-.374-.42774,1.57553,1.57553,0,0,1-.17187-.64746Z"/><path class="cls-2" d="M24.42578,103.14746A3.96921,3.96921,0,0,0,25,103.10938a1.235,1.235,0,0,0,.44434-.14747.78709.78709,0,0,0,.29-.29.92934.92934,0,0,0,.10546-.46973.86912.86912,0,0,0-.084-.39551.752.752,0,0,0-.22754-.26855.95608.95608,0,0,0-.33594-.1543A1.60468,1.60468,0,0,0,24.79,101.335a1.15864,1.15864,0,0,0-.43066.07617.95949.95949,0,0,0-.333.22071,1.03548,1.03548,0,0,0-.2168.33593,1.1248,1.1248,0,0,0-.07715.42383h-.44824a1.43265,1.43265,0,0,1,.47656-1.10644,1.09909,1.09909,0,0,1,.52149-.26954,3.01371,3.01371,0,0,1,.59863-.05859,1.97817,1.97817,0,0,1,.54883.07324,1.258,1.258,0,0,1,.44531.22364,1.09028,1.09028,0,0,1,.30078.38183,1.23038,1.23038,0,0,1,.11231.53906,1.24843,1.24843,0,0,1-.17188.665,1.1136,1.1136,0,0,1-.52832.4336,1.37016,1.37016,0,0,1,.4375.2207,1.12324,1.12324,0,0,1,.26953.30078,1.07483,1.07483,0,0,1,.13281.34668,1.84477,1.84477,0,0,1,.03516.34961,1.53948,1.53948,0,0,1-.10547.57422,1.35326,1.35326,0,0,1-.30762.46875,1.5193,1.5193,0,0,1-.501.32617,1.84535,1.84535,0,0,1-.67481.12891,3.18394,3.18394,0,0,1-.74218-.07617,1.26666,1.26666,0,0,1-.52539-.25586,1.21207,1.21207,0,0,1-.32911-.46875,2.61466,2.61466,0,0,1-.16113-.72461h.44824a1.06519,1.06519,0,0,0,.33985.85742,1.31638,1.31638,0,0,0,.88574.29,1.34994,1.34994,0,0,0,.49707-.09082,1.24762,1.24762,0,0,0,.39551-.24512,1.06859,1.06859,0,0,0,.252-.35644.97816.97816,0,0,0,.08008-.41993,1.01612,1.01612,0,0,0-.13965-.501.9035.9035,0,0,0-.33984-.31543,1.46467,1.46467,0,0,0-.501-.15332,3.114,3.114,0,0,0-.6084-.01758Z"/><path class="cls-2" d="M19.67969,94.38379a1.07757,1.07757,0,0,0,.40234.75293,1.32666,1.32666,0,0,0,.81543.24805,1.19845,1.19845,0,0,0,.49316-.09766,1.09128,1.09128,0,0,0,.375-.26953A1.1758,1.1758,0,0,0,22,94.61816a1.46342,1.46342,0,0,0,.08105-.49316,1.408,1.408,0,0,0-.08789-.50391,1.19347,1.19347,0,0,0-.24511-.39941,1.062,1.062,0,0,0-.38477-.25879,1.36261,1.36261,0,0,0-.50781-.09082,1.42986,1.42986,0,0,0-.60156.12207,1.25929,1.25929,0,0,0-.46973.38867l-.37109-.04883.39941-2.55468h2.4502v.37793H20.19043l-.30762,1.65918c.09766-.06055.1875-.11231.26953-.1543a1.45708,1.45708,0,0,1,.24805-.10156,1.43951,1.43951,0,0,1,.2627-.05274c.09082-.00879.19238-.01367.30468-.01367a1.69,1.69,0,0,1,.623.11231,1.43035,1.43035,0,0,1,.49707.32128,1.44826,1.44826,0,0,1,.3252.51465,1.91054,1.91054,0,0,1,.11523.68262,1.77073,1.77073,0,0,1-.12891.69629,1.55631,1.55631,0,0,1-.34668.51465,1.46576,1.46576,0,0,1-.501.31836,1.62057,1.62057,0,0,1-.584.1084,2.95522,2.95522,0,0,1-.65429-.06934,1.499,1.499,0,0,1-.53614-.23438,1.27009,1.27009,0,0,1-.374-.42773,1.57558,1.57558,0,0,1-.17187-.64746Z"/><path class="cls-2" d="M25.38477,94.44727H23.13086V94.0625l2.2959-3.2832H25.833v3.29h.68554v.37793H25.833V95.665h-.44824Zm-1.81348-.37793h1.81348V91.45117Z"/><path class="cls-2" d="M19.67969,84.15723a1.07759,1.07759,0,0,0,.40234.75293,1.32665,1.32665,0,0,0,.81543.248,1.19845,1.19845,0,0,0,.49316-.09765,1.09141,1.09141,0,0,0,.375-.26953A1.1758,1.1758,0,0,0,22,84.3916a1.46754,1.46754,0,0,0,.08105-.49316,1.40416,1.40416,0,0,0-.08789-.50391,1.1863,1.1863,0,0,0-.24511-.39892,1.05685,1.05685,0,0,0-.38477-.25928,1.36261,1.36261,0,0,0-.50781-.09082,1.4223,1.4223,0,0,0-.60156.12256,1.24858,1.24858,0,0,0-.46973.38818l-.37109-.04883.39941-2.55517h2.4502v.37841H20.19043l-.30762,1.6587q.14649-.09083.26953-.15381a1.49738,1.49738,0,0,1,.24805-.10157,1.4395,1.4395,0,0,1,.2627-.05273,3.02365,3.02365,0,0,1,.30468-.01367,1.70008,1.70008,0,0,1,.623.11181,1.40185,1.40185,0,0,1,.82227.83643,1.9105,1.9105,0,0,1,.11523.68262,1.77415,1.77415,0,0,1-.12891.69629,1.55631,1.55631,0,0,1-.34668.51465,1.46573,1.46573,0,0,1-.501.31835,1.62036,1.62036,0,0,1-.584.1084,2.95524,2.95524,0,0,1-.65429-.06933,1.499,1.499,0,0,1-.53614-.23438,1.27009,1.27009,0,0,1-.374-.42773,1.57562,1.57562,0,0,1-.17187-.64746Z"/><path class="cls-2" d="M23.57129,84.15723a1.07845,1.07845,0,0,0,.40332.75293,1.32463,1.32463,0,0,0,.81543.248,1.20171,1.20171,0,0,0,.49316-.09765,1.097,1.097,0,0,0,.374-.26953,1.16252,1.16252,0,0,0,.23535-.39942,1.49232,1.49232,0,0,0,.08008-.49316,1.40438,1.40438,0,0,0-.08789-.50391,1.18416,1.18416,0,0,0-.24415-.39892,1.06048,1.06048,0,0,0-.38574-.25928,1.35377,1.35377,0,0,0-.50683-.09082,1.42685,1.42685,0,0,0-.60254.12256,1.23848,1.23848,0,0,0-.46875.38818l-.3711-.04883.39942-2.55517H26.1543v.37841H24.083l-.3086,1.6587q.148-.09083.26954-.15381a1.54163,1.54163,0,0,1,.249-.10157,1.42883,1.42883,0,0,1,.26172-.05273q.13768-.01392.30469-.01367a1.69634,1.69634,0,0,1,.623.11181,1.40185,1.40185,0,0,1,.82227.83643,1.9101,1.9101,0,0,1,.11621.68262,1.7568,1.7568,0,0,1-.12988.69629,1.54191,1.54191,0,0,1-.34668.51465,1.47118,1.47118,0,0,1-.5.31835,1.62555,1.62555,0,0,1-.585.1084,2.96166,2.96166,0,0,1-.6543-.06933,1.48665,1.48665,0,0,1-.53516-.23438,1.26221,1.26221,0,0,1-.375-.42773,1.57593,1.57593,0,0,1-.1709-.64746Z"/><path class="cls-2" d="M19.67969,73.93115a1.07643,1.07643,0,0,0,.40234.75244,1.3238,1.3238,0,0,0,.81543.24854,1.19857,1.19857,0,0,0,.49316-.09815,1.09128,1.09128,0,0,0,.375-.26953A1.183,1.183,0,0,0,22,74.16553a1.47047,1.47047,0,0,0,.08105-.49365,1.40416,1.40416,0,0,0-.08789-.50391,1.18645,1.18645,0,0,0-.24511-.39893,1.057,1.057,0,0,0-.38477-.25927,1.36261,1.36261,0,0,0-.50781-.09082,1.42245,1.42245,0,0,0-.60156.12255,1.2487,1.2487,0,0,0-.46973.38819l-.37109-.04883.39941-2.55518h2.4502v.37842H20.19043l-.30762,1.65869q.14649-.09081.26953-.15381a1.49818,1.49818,0,0,1,.24805-.10156,1.43866,1.43866,0,0,1,.2627-.05273,3.02365,3.02365,0,0,1,.30468-.01367,1.69987,1.69987,0,0,1,.623.11181,1.40185,1.40185,0,0,1,.82227.83643,1.91047,1.91047,0,0,1,.11523.68262,1.77484,1.77484,0,0,1-.12891.69677,1.56408,1.56408,0,0,1-.34668.51416,1.45832,1.45832,0,0,1-.501.31836,1.61045,1.61045,0,0,1-.584.10889,2.89719,2.89719,0,0,1-.65429-.07031,1.48222,1.48222,0,0,1-.53614-.23438,1.25735,1.25735,0,0,1-.374-.42676,1.57981,1.57981,0,0,1-.17187-.64746Z"/><path class="cls-2" d="M25.9375,71.48779a1.14746,1.14746,0,0,0-.30762-.60547A.86082.86082,0,0,0,25,70.65479a1.09338,1.09338,0,0,0-.71777.21728,1.40342,1.40342,0,0,0-.40235.54932,2.73774,2.73774,0,0,0-.18945.72461c-.03223.26123-.05859.50879-.07715.7417.07031-.09327.14356-.18653.2207-.27979a1.49076,1.49076,0,0,1,.2627-.24853,1.24347,1.24347,0,0,1,.34277-.17481,1.46343,1.46343,0,0,1,.46875-.06689,1.53855,1.53855,0,0,1,1.15918.42382,1.87224,1.87224,0,0,1-.0039,2.34131,1.55111,1.55111,0,0,1-1.16895.42725,1.87783,1.87783,0,0,1-.68555-.12256,1.31957,1.31957,0,0,1-.54589-.40234,2.04669,2.04669,0,0,1-.36426-.73194,3.93915,3.93915,0,0,1-.13281-1.10254,5.73429,5.73429,0,0,1,.07617-.91308,2.925,2.925,0,0,1,.27734-.86475,1.77822,1.77822,0,0,1,.5459-.644,1.479,1.479,0,0,1,.89258-.25195,1.53622,1.53622,0,0,1,.97949.3081,1.28112,1.28112,0,0,1,.46191.90283Zm-1.043,1.0083a1.07907,1.07907,0,0,0-.46582.09766,1.04385,1.04385,0,0,0-.34961.26611,1.20851,1.20851,0,0,0-.2207.38868,1.43553,1.43553,0,0,0-.07715.47216,1.59948,1.59948,0,0,0,.05957.42383,1.11731,1.11731,0,0,0,.19629.38818,1.07531,1.07531,0,0,0,.34668.28711,1.08758,1.08758,0,0,0,.51758.11231,1.15036,1.15036,0,0,0,.52832-.10889.97659.97659,0,0,0,.34668-.28662,1.16113,1.16113,0,0,0,.19238-.39941,1.682,1.682,0,0,0,.05957-.44434,1.28907,1.28907,0,0,0-.27637-.88525A1.08774,1.08774,0,0,0,24.89453,72.49609Z"/><path class="cls-2" d="M19.67969,63.70459a1.07643,1.07643,0,0,0,.40234.75244,1.3238,1.3238,0,0,0,.81543.24854,1.19857,1.19857,0,0,0,.49316-.09815,1.09128,1.09128,0,0,0,.375-.26953A1.183,1.183,0,0,0,22,63.939a1.47039,1.47039,0,0,0,.08105-.49365,1.40407,1.40407,0,0,0-.08789-.5039,1.18645,1.18645,0,0,0-.24511-.39893,1.0571,1.0571,0,0,0-.38477-.25928,1.36281,1.36281,0,0,0-.50781-.09082,1.42245,1.42245,0,0,0-.60156.12256,1.24867,1.24867,0,0,0-.46973.38818l-.37109-.04882.39941-2.55518h2.4502v.37842H20.19043l-.30762,1.65869q.14649-.09082.26953-.15381a1.49818,1.49818,0,0,1,.24805-.10156,1.43951,1.43951,0,0,1,.2627-.05274,3.0266,3.0266,0,0,1,.30468-.01367,1.69988,1.69988,0,0,1,.623.11182,1.40185,1.40185,0,0,1,.82227.83643,1.91045,1.91045,0,0,1,.11523.68261,1.77492,1.77492,0,0,1-.12891.69678,1.56418,1.56418,0,0,1-.34668.51416,1.45847,1.45847,0,0,1-.501.31836,1.61066,1.61066,0,0,1-.584.10889,2.8966,2.8966,0,0,1-.65429-.07032,1.482,1.482,0,0,1-.53614-.23437,1.25745,1.25745,0,0,1-.374-.42676,1.57981,1.57981,0,0,1-.17187-.64746Z"/><path class="cls-2" d="M23.292,60.09912h3.14258v.42041a7.9556,7.9556,0,0,0-.90332,1.23535,9.08317,9.08317,0,0,0-.6084,1.23194,7.35236,7.35236,0,0,0-.35351,1.1167,5.605,5.605,0,0,0-.13672.88183h-.49024a5.15138,5.15138,0,0,1,.21387-1.13037,9.35223,9.35223,0,0,1,.44434-1.18652,10.37468,10.37468,0,0,1,.60253-1.1377,8.59481,8.59481,0,0,1,.69239-.9834H23.292Z"/><path class="cls-2" d="M19.67969,53.479a1.07647,1.07647,0,0,0,.40234.75245,1.32386,1.32386,0,0,0,.81543.24853,1.19857,1.19857,0,0,0,.49316-.09814,1.0913,1.0913,0,0,0,.375-.26954A1.18287,1.18287,0,0,0,22,53.71338a1.47047,1.47047,0,0,0,.08105-.49365,1.40416,1.40416,0,0,0-.08789-.50391,1.18645,1.18645,0,0,0-.24511-.39893,1.057,1.057,0,0,0-.38477-.25927,1.36261,1.36261,0,0,0-.50781-.09082,1.4223,1.4223,0,0,0-.60156.12256,1.24858,1.24858,0,0,0-.46973.38818l-.37109-.04883.39941-2.55517h2.4502V50.252H20.19043l-.30762,1.65869q.14649-.09081.26953-.1538a1.49738,1.49738,0,0,1,.24805-.10157,1.43866,1.43866,0,0,1,.2627-.05273,3.02365,3.02365,0,0,1,.30468-.01367,1.70008,1.70008,0,0,1,.623.11181,1.40185,1.40185,0,0,1,.82227.83643,1.91047,1.91047,0,0,1,.11523.68262,1.77484,1.77484,0,0,1-.12891.69677,1.56408,1.56408,0,0,1-.34668.51416,1.45832,1.45832,0,0,1-.501.31836,1.61045,1.61045,0,0,1-.584.10889,2.89719,2.89719,0,0,1-.65429-.07031,1.482,1.482,0,0,1-.53614-.23438,1.25735,1.25735,0,0,1-.374-.42676,1.57981,1.57981,0,0,1-.17187-.64746Z"/><path class="cls-2" d="M24.04785,52.10693a3.20041,3.20041,0,0,1-.31152-.21386,1.05588,1.05588,0,0,1-.21387-.22022.81188.81188,0,0,1-.12207-.26953,1.50371,1.50371,0,0,1-.03906-.37451,1.05693,1.05693,0,0,1,.1123-.47608,1.24846,1.24846,0,0,1,.30078-.38867,1.37474,1.37474,0,0,1,.44434-.25537,1.52762,1.52762,0,0,1,.5498-.084,2.19275,2.19275,0,0,1,.54981.06982,1.48152,1.48152,0,0,1,.47949.21729,1.065,1.065,0,0,1,.46192.917,1.2985,1.2985,0,0,1-.15723.65771,1.16352,1.16352,0,0,1-.51465.44825,1.33452,1.33452,0,0,1,.64063.46923,1.24863,1.24863,0,0,1,.23437.75586,1.58671,1.58671,0,0,1-.12305.64405,1.2487,1.2487,0,0,1-.34961.46875,1.55794,1.55794,0,0,1-.5498.28711,2.44041,2.44041,0,0,1-.71387.09814,1.72465,1.72465,0,0,1-.542-.09131,1.50577,1.50577,0,0,1-.49707-.27295,1.4053,1.4053,0,0,1-.36035-.45508,1.37049,1.37049,0,0,1-.14063-.63671,1.432,1.432,0,0,1,.22071-.7876A1.27025,1.27025,0,0,1,24.04785,52.10693Zm.78418.2378a1.70531,1.70531,0,0,0-.47656.063,1.08056,1.08056,0,0,0-.37793.19239.88732.88732,0,0,0-.252.3291,1.1337,1.1337,0,0,0-.09082.47266,1.04519,1.04519,0,0,0,.08691.42675,1.02346,1.02346,0,0,0,.24512.33985,1.16484,1.16484,0,0,0,.38574.22754,1.45979,1.45979,0,0,0,.50684.084,1.2559,1.2559,0,0,0,.45507-.08057,1.12807,1.12807,0,0,0,.36817-.22753,1.02888,1.02888,0,0,0,.24414-.3501,1.116,1.116,0,0,0,.08789-.44824,1.048,1.048,0,0,0-.09082-.45118.90007.90007,0,0,0-.25195-.32226,1.08065,1.08065,0,0,0-.37793-.19239A1.64993,1.64993,0,0,0,24.832,52.34473Zm-.02148-2.14209a1.33168,1.33168,0,0,0-.3916.05615.91955.91955,0,0,0-.31836.168.76017.76017,0,0,0-.21387.27978.91077.91077,0,0,0-.07715.38526.83.83,0,0,0,.08789.3955.758.758,0,0,0,.23438.26954,1.0537,1.0537,0,0,0,.33593.15722,1.45166,1.45166,0,0,0,.39161.05274,1.29951,1.29951,0,0,0,.37792-.05274.73407.73407,0,0,0,.30176-.17138.83543.83543,0,0,0,.19922-.30079,1.20459,1.20459,0,0,0,.07324-.44824.72307.72307,0,0,0-.24511-.58447A1.15479,1.15479,0,0,0,24.81055,50.20264Z"/><path class="cls-2" d="M19.67969,43.25244a1.07643,1.07643,0,0,0,.40234.75244,1.3238,1.3238,0,0,0,.81543.24854,1.19857,1.19857,0,0,0,.49316-.09815,1.09128,1.09128,0,0,0,.375-.26953A1.18306,1.18306,0,0,0,22,43.48682a1.47049,1.47049,0,0,0,.08105-.49366,1.40414,1.40414,0,0,0-.08789-.5039,1.18645,1.18645,0,0,0-.24511-.39893,1.0571,1.0571,0,0,0-.38477-.25928,1.36281,1.36281,0,0,0-.50781-.09082,1.42245,1.42245,0,0,0-.60156.12256,1.2487,1.2487,0,0,0-.46973.38819l-.37109-.04883L19.8125,39.647h2.4502v.37842H20.19043l-.30762,1.65869q.14649-.09081.26953-.15381a1.49818,1.49818,0,0,1,.24805-.10156,1.43866,1.43866,0,0,1,.2627-.05273,3.02345,3.02345,0,0,1,.30468-.01368,1.69988,1.69988,0,0,1,.623.11182,1.40185,1.40185,0,0,1,.82227.83643,1.91045,1.91045,0,0,1,.11523.68261,1.77489,1.77489,0,0,1-.12891.69678,1.56418,1.56418,0,0,1-.34668.51416,1.45832,1.45832,0,0,1-.501.31836,1.61066,1.61066,0,0,1-.584.10889,2.89719,2.89719,0,0,1-.65429-.07031,1.48222,1.48222,0,0,1-.53614-.23438,1.25735,1.25735,0,0,1-.374-.42676,1.57981,1.57981,0,0,1-.17187-.64746Z"/><path class="cls-2" d="M23.70508,43.44824a1.01408,1.01408,0,0,0,.31152.602.957.957,0,0,0,.64746.20313,1.06931,1.06931,0,0,0,.70313-.21729,1.44846,1.44846,0,0,0,.40625-.5459,2.64837,2.64837,0,0,0,.19531-.71044q.05274-.3816.06738-.71778l-.01465-.01367a1.58392,1.58392,0,0,1-.55664.57373,1.493,1.493,0,0,1-.77343.19629,1.68154,1.68154,0,0,1-.62989-.11231,1.32853,1.32853,0,0,1-.47949-.32177,1.45473,1.45473,0,0,1-.30762-.50391A1.87183,1.87183,0,0,1,23.166,41.229a2.05915,2.05915,0,0,1,.09765-.64746,1.45787,1.45787,0,0,1,.29395-.51806,1.321,1.321,0,0,1,.49316-.34278,1.84709,1.84709,0,0,1,.7041-.12256,1.608,1.608,0,0,1,.8291.19629,1.48526,1.48526,0,0,1,.53223.53174,2.38387,2.38387,0,0,1,.2832.791,5.30371,5.30371,0,0,1,.084.97314,4.08182,4.08182,0,0,1-.13281,1.10254,2.41268,2.41268,0,0,1-.374.79443,1.57755,1.57755,0,0,1-.57129.48291,1.6125,1.6125,0,0,1-.7207.16114,1.998,1.998,0,0,1-.53906-.07031,1.24777,1.24777,0,0,1-.44043-.2168,1.141,1.141,0,0,1-.3086-.3711,1.38361,1.38361,0,0,1-.14648-.5249Zm1.0498-3.47217a1.10158,1.10158,0,0,0-.85449.3501,1.36609,1.36609,0,0,0-.28711.917,1.23418,1.23418,0,0,0,.29785.88184,1.10476,1.10476,0,0,0,.84375.31543,1.06794,1.06794,0,0,0,.46485-.09814,1.04749,1.04749,0,0,0,.35058-.26612,1.14765,1.14765,0,0,0,.2168-.38867,1.48755,1.48755,0,0,0,.07324-.47217,1.30349,1.30349,0,0,0-.29394-.88574A1.05914,1.05914,0,0,0,24.75488,39.97607Z"/><path class="cls-2" d="M22.0459,30.58252a1.14851,1.14851,0,0,0-.3086-.60547.85769.85769,0,0,0-.62988-.22754,1.09519,1.09519,0,0,0-.71777.21729,1.413,1.413,0,0,0-.40235.54931,2.73708,2.73708,0,0,0-.18847.72461q-.04981.39185-.07715.7417c.07031-.09326.14355-.18652.2207-.27978a1.48565,1.48565,0,0,1,.26172-.24854,1.26386,1.26386,0,0,1,.34375-.1748,1.45893,1.45893,0,0,1,.46875-.0669,1.5362,1.5362,0,0,1,1.1582.42383,1.87049,1.87049,0,0,1-.00292,2.34131,1.55113,1.55113,0,0,1-1.169.42725,1.87925,1.87925,0,0,1-.68652-.12256,1.32583,1.32583,0,0,1-.5459-.40235,2.04656,2.04656,0,0,1-.36426-.73193,3.9392,3.9392,0,0,1-.13281-1.10254,5.6264,5.6264,0,0,1,.07715-.91309,2.95232,2.95232,0,0,1,.27636-.86474,1.7878,1.7878,0,0,1,.5459-.644,1.48107,1.48107,0,0,1,.89258-.252,1.53716,1.53716,0,0,1,.98047.30811,1.28476,1.28476,0,0,1,.46191.90283Zm-1.043,1.0083a1.079,1.079,0,0,0-.46582.09766,1.03407,1.03407,0,0,0-.34961.26611,1.19066,1.19066,0,0,0-.2207.38867,1.41047,1.41047,0,0,0-.07715.47217,1.56034,1.56034,0,0,0,.05957.42383,1.08469,1.08469,0,0,0,.19629.38818,1.07163,1.07163,0,0,0,.3457.28711,1.0917,1.0917,0,0,0,.51856.11231,1.15331,1.15331,0,0,0,.52832-.10889.97678.97678,0,0,0,.34668-.28662,1.179,1.179,0,0,0,.19238-.39942,1.72338,1.72338,0,0,0,.05957-.44433,1.29393,1.29393,0,0,0-.27637-.88526A1.08916,1.08916,0,0,0,21.00293,31.59082Z"/><path class="cls-2" d="M24.82422,29.37158a1.66875,1.66875,0,0,1,.63086.1084,1.33924,1.33924,0,0,1,.45117.29785,1.55336,1.55336,0,0,1,.30078.44092,2.65984,2.65984,0,0,1,.17871.53516,3.93537,3.93537,0,0,1,.084.585q.0205.301.0205.58789a6.1722,6.1722,0,0,1-.06933.938,2.43844,2.43844,0,0,1-.25586.791,1.44939,1.44939,0,0,1-.50781.5459,1.53859,1.53859,0,0,1-.833.20313,1.55866,1.55866,0,0,1-.83594-.20313,1.42635,1.42635,0,0,1-.51074-.54932,2.49191,2.49191,0,0,1-.25586-.80517,6.39717,6.39717,0,0,1-.07031-.96973,6.58256,6.58256,0,0,1,.06347-.917,2.55466,2.55466,0,0,1,.24121-.80127,1.45642,1.45642,0,0,1,.50782-.57031A1.53288,1.53288,0,0,1,24.82422,29.37158ZM26.043,31.87744a6.60049,6.60049,0,0,0-.0459-.78027,2.37059,2.37059,0,0,0-.17871-.68262,1.19731,1.19731,0,0,0-.374-.48291,1.02762,1.02762,0,0,0-.63379-.18213.94762.94762,0,0,0-.60547.18555,1.23716,1.23716,0,0,0-.36719.49365,2.64719,2.64719,0,0,0-.18555.69971,5.99128,5.99128,0,0,0-.05273.79834,5.684,5.684,0,0,0,.05957.86426,2.19267,2.19267,0,0,0,.19922.66162,1.00108,1.00108,0,0,0,.96582.57422.984.984,0,0,0,.64062-.19629,1.23681,1.23681,0,0,0,.36817-.50391,2.569,2.569,0,0,0,.168-.69287A7.14576,7.14576,0,0,0,26.043,31.87744Z"/><line class="cls-1" x1="29.73619" y1="132.97531" x2="219.54915" y2="132.97531"/><line class="cls-1" x1="29.73619" y1="122.74892" x2="219.54915" y2="122.74892"/><line class="cls-1" x1="29.73619" y1="112.52253" x2="219.54915" y2="112.52253"/><line class="cls-1" x1="29.73619" y1="102.29615" x2="219.54915" y2="102.29615"/><line class="cls-1" x1="29.73619" y1="92.06976" x2="219.54915" y2="92.06976"/><line class="cls-1" x1="29.73619" y1="81.84337" x2="219.54915" y2="81.84337"/><line class="cls-1" x1="29.73619" y1="71.61698" x2="219.54915" y2="71.61698"/><line class="cls-1" x1="29.73619" y1="61.39059" x2="219.54915" y2="61.39059"/><line class="cls-1" x1="29.73619" y1="51.1642" x2="219.54915" y2="51.1642"/><line class="cls-1" x1="29.73619" y1="40.93781" x2="219.54915" y2="40.93781"/><line class="cls-1" x1="29.73619" y1="30.71142" x2="219.54915" y2="30.71142"/><rect class="cls-3" x="38.59413" y="111.96874" width="45.55511" height="21.00657"/><rect class="cls-3" x="101.86511" y="97.12899" width="45.55511" height="35.84632"/><rect class="cls-3" x="165.1361" y="64.05502" width="45.55511" height="68.92029"/><path class="cls-2" d="M178.76562,136.72363h.47559v3.00293a2.08444,2.08444,0,0,0,.35059,1.35156,1.39723,1.39723,0,0,0,1.12695.41211,1.93887,1.93887,0,0,0,.68945-.10839,1.046,1.046,0,0,0,.458-.32911,1.35718,1.35718,0,0,0,.25195-.54882,3.42317,3.42317,0,0,0,.07715-.77735v-3.00293h.47657v3.14258a2.13354,2.13354,0,0,1-.48731,1.50879,1.91018,1.91018,0,0,1-1.46582.52148,1.88742,1.88742,0,0,1-1.4707-.53222,2.15169,2.15169,0,0,1-.48243-1.49805Z"/><path class="cls-2" d="M184.19043,141.76367h-.41992v-3.626h.41992v.67871h.01367a1.21768,1.21768,0,0,1,.45117-.60547,1.37693,1.37693,0,0,1,.73145-.1709v.45508a1.22826,1.22826,0,0,0-.58789.11133.97312.97312,0,0,0-.36719.32226,1.28227,1.28227,0,0,0-.18945.47949,3.16416,3.16416,0,0,0-.05176.57715Z"/><path class="cls-2" d="M186.54883,141.76367h-.41992v-5.04h.41992v1.99512a1.307,1.307,0,0,1,.55664-.50781,1.6727,1.6727,0,0,1,.73828-.1709,1.53753,1.53753,0,0,1,.71777.15723,1.46653,1.46653,0,0,1,.50391.41992,1.80732,1.80732,0,0,1,.29785.6123,2.6877,2.6877,0,0,1,.09766.72852,2.97623,2.97623,0,0,1-.09082.749,1.646,1.646,0,0,1-.29.60547,1.4157,1.4157,0,0,1-.50781.40234,1.73337,1.73337,0,0,1-.749.14649,1.35126,1.35126,0,0,1-.35742-.04883,1.67468,1.67468,0,0,1-.35352-.13965,1.42527,1.42527,0,0,1-.31445-.22754,1.13459,1.13459,0,0,1-.23437-.31836h-.01465Zm0-1.82715a2.22638,2.22638,0,0,0,.08105.61231,1.49329,1.49329,0,0,0,.23438.49023,1.097,1.097,0,0,0,.38476.3252,1.12237,1.12237,0,0,0,.52539.11914,1.26016,1.26016,0,0,0,.49024-.09375,1.13,1.13,0,0,0,.3916-.27735,1.29228,1.29228,0,0,0,.2627-.44433,1.79611,1.79611,0,0,0,.09375-.60547,2.34325,2.34325,0,0,0-.05567-.64062,1.536,1.536,0,0,0-.22363-.52149,1.11127,1.11127,0,0,0-.39551-.35351,1.18172,1.18172,0,0,0-.56348-.12891,1.074,1.074,0,0,0-.51464.12207,1.18791,1.18791,0,0,0-.38477.3291,1.51818,1.51818,0,0,0-.24219.4834A2.00564,2.00564,0,0,0,186.54883,139.93652Z"/><path class="cls-2" d="M192.02344,139.64941c.0791-.00879.17383-.02343.2832-.042a1.02779,1.02779,0,0,0,.26953-.07715.22162.22162,0,0,0,.12988-.16406,1.01855,1.01855,0,0,0,.02442-.21387.71993.71993,0,0,0-.20606-.52832.96446.96446,0,0,0-.69726-.20605,1.94372,1.94372,0,0,0-.39844.03808.865.865,0,0,0-.31836.13282.73872.73872,0,0,0-.22461.252,1.068,1.068,0,0,0-.11523.39551h-.42676a1.29157,1.29157,0,0,1,.14648-.54883,1.10162,1.10162,0,0,1,.32618-.37109,1.33332,1.33332,0,0,1,.46191-.21,2.22908,2.22908,0,0,1,.55664-.06641,2.11644,2.11644,0,0,1,.51367.05957,1.17989,1.17989,0,0,1,.41992.18848.88008.88008,0,0,1,.28028.34668,1.25587,1.25587,0,0,1,.10156.53222v1.97363c0,.16309.0293.26758.08789.31153.05762.04394.17578.03418.35352-.03125v.3291c-.03321.00879-.08106.02344-.14356.042a.65678.65678,0,0,1-.18554.02735.86006.86006,0,0,1-.18946-.02051.328.328,0,0,1-.168-.06641.42469.42469,0,0,1-.10156-.126.51144.51144,0,0,1-.05176-.16114,1.12577,1.12577,0,0,1-.01465-.18554,1.76845,1.76845,0,0,1-1.35058.60156,1.66418,1.66418,0,0,1-.459-.0625,1.11435,1.11435,0,0,1-.38867-.19629.9866.9866,0,0,1-.26562-.3252,1.0008,1.0008,0,0,1-.09766-.459q0-.92286,1.2666-1.0918Zm.707.21a2.05277,2.05277,0,0,1-.53906.14746c-.18164.02343-.36426.042-.5459.05566a1.54369,1.54369,0,0,0-.75293.2168.62308.62308,0,0,0-.26953.55371.59218.59218,0,0,0,.06738.29.60692.60692,0,0,0,.1748.20312.73313.73313,0,0,0,.252.11914,1.12649,1.12649,0,0,0,.29.03809,1.90615,1.90615,0,0,0,.49023-.0625,1.34345,1.34345,0,0,0,.42383-.19238.98976.98976,0,0,0,.29687-.32911.94543.94543,0,0,0,.11231-.47265Z"/><path class="cls-2" d="M194.669,141.76367H194.249v-3.626h.41993v.5039a2.65939,2.65939,0,0,1,.52148-.43359,1.197,1.197,0,0,1,.64746-.168,1.64853,1.64853,0,0,1,.62305.11523,1.06464,1.06464,0,0,1,.4834.40235.91482.91482,0,0,1,.15722.40234,3.60028,3.60028,0,0,1,.02442.43066v2.373h-.41993v-2.36621a1.07957,1.07957,0,0,0-.21679-.73437.918.918,0,0,0-.72071-.24512,1.01663,1.01663,0,0,0-.35742.05957,1.09168,1.09168,0,0,0-.29.15723,1.04062,1.04062,0,0,0-.2207.22363,1.05864,1.05864,0,0,0-.14062.2666,1.30338,1.30338,0,0,0-.07618.33594c-.00976.10742-.01464.22363-.01464.34961Z"/><path class="cls-2" d="M110.041,140.25879a1.50264,1.50264,0,0,0,.15039.57031,1.13577,1.13577,0,0,0,.31543.38184,1.24293,1.24293,0,0,0,.44433.21289,2.08009,2.08009,0,0,0,.53906.0664,1.7838,1.7838,0,0,0,.58106-.084,1.09214,1.09214,0,0,0,.39844-.22754.883.883,0,0,0,.22754-.332,1.095,1.095,0,0,0,.07421-.39941.78619.78619,0,0,0-.13378-.47559,1.02809,1.02809,0,0,0-.34571-.29785,2.17155,2.17155,0,0,0-.49023-.18555c-.18457-.0459-.374-.0918-.56738-.13574-.19336-.04492-.38282-.09668-.56641-.1582a1.76024,1.76024,0,0,1-.49024-.24512,1.18175,1.18175,0,0,1-.34668-.39551,1.25268,1.25268,0,0,1-.13281-.6123,1.23848,1.23848,0,0,1,.1084-.50391,1.25255,1.25255,0,0,1,.32227-.43359,1.56256,1.56256,0,0,1,.53515-.30079,2.242,2.242,0,0,1,.74219-.1123,2.12991,2.12991,0,0,1,.74512.11914,1.46746,1.46746,0,0,1,.52832.3252,1.34028,1.34028,0,0,1,.31543.47949,1.5974,1.5974,0,0,1,.10449.58105h-.4541a1.13437,1.13437,0,0,0-.10156-.49707.94.94,0,0,0-.27735-.34277,1.16957,1.16957,0,0,0-.39844-.19629,1.70051,1.70051,0,0,0-.46191-.0625,1.60573,1.60573,0,0,0-.6123.10156,1.06451,1.06451,0,0,0-.39551.26172.87763.87763,0,0,0-.20313.35742.84687.84687,0,0,0-.02148.39161.68811.68811,0,0,0,.19629.39257,1.24847,1.24847,0,0,0,.37793.24121,2.83648,2.83648,0,0,0,.49316.1543q.26954.05859.54981.126a5.629,5.629,0,0,1,.543.15722,1.65884,1.65884,0,0,1,.46485.24512,1.12743,1.12743,0,0,1,.32617.39551,1.33929,1.33929,0,0,1,.12207.60547,1.30775,1.30775,0,0,1-.4834,1.085,2.1249,2.1249,0,0,1-1.35742.38476,2.52135,2.52135,0,0,1-.72852-.10156,1.61665,1.61665,0,0,1-.581-.30762,1.42051,1.42051,0,0,1-.38086-.51074,1.74624,1.74624,0,0,1-.13672-.71777Z"/><path class="cls-2" d="M116.51562,138.1377h.41993v3.626h-.41993v-.5039c-.05566.06543-.11914.13281-.18847.20312a1.46706,1.46706,0,0,1-.24219.19238,1.33876,1.33876,0,0,1-.73828.20606,1.58147,1.58147,0,0,1-.6084-.10156.98574.98574,0,0,1-.39551-.28321,1.12856,1.12856,0,0,1-.21777-.42383,1.99582,1.99582,0,0,1-.06641-.52832V138.1377h.41993v2.37988a1.05655,1.05655,0,0,0,.21777.71777.90445.90445,0,0,0,.71387.248,1.0288,1.0288,0,0,0,.46484-.10156.96712.96712,0,0,0,.34668-.28321,1.32831,1.32831,0,0,0,.2168-.43359,1.87412,1.87412,0,0,0,.07714-.55371Z"/><path class="cls-2" d="M118.41992,141.76367H118v-5.04h.41992v1.99512a1.307,1.307,0,0,1,.55664-.50781,1.6727,1.6727,0,0,1,.73828-.1709,1.53345,1.53345,0,0,1,.7168.15723,1.46662,1.46662,0,0,1,.50391.41992,1.82726,1.82726,0,0,1,.29883.6123,2.72667,2.72667,0,0,1,.09765.72852,2.97525,2.97525,0,0,1-.0918.749,1.6444,1.6444,0,0,1-.28906.60547,1.424,1.424,0,0,1-.50781.40234,1.73491,1.73491,0,0,1-.75.14649,1.34424,1.34424,0,0,1-.35645-.04883,1.6746,1.6746,0,0,1-.35351-.13965,1.40252,1.40252,0,0,1-.31445-.22754,1.13777,1.13777,0,0,1-.23536-.31836h-.01367Zm0-1.82715a2.22637,2.22637,0,0,0,.08106.61231,1.45549,1.45549,0,0,0,.23437.49023,1.097,1.097,0,0,0,.38477.3252,1.1211,1.1211,0,0,0,.52441.11914,1.25319,1.25319,0,0,0,.49024-.09375,1.14286,1.14286,0,0,0,.39257-.27735,1.29028,1.29028,0,0,0,.26172-.44433,1.79611,1.79611,0,0,0,.09375-.60547,2.34375,2.34375,0,0,0-.05469-.64062,1.51847,1.51847,0,0,0-.2246-.52149,1.10826,1.10826,0,0,0-.39454-.35351,1.18565,1.18565,0,0,0-.56445-.12891,1.07013,1.07013,0,0,0-.51367.12207,1.19143,1.19143,0,0,0-.38574.3291,1.51627,1.51627,0,0,0-.24121.4834A2.0053,2.0053,0,0,0,118.41992,139.93652Z"/><path class="cls-2" d="M124.68457,138.1377h.41992v3.626h-.41992v-.5039c-.05566.06543-.11914.13281-.18848.20312a1.5091,1.5091,0,0,1-.24218.19238,1.33876,1.33876,0,0,1-.73829.20606,1.58669,1.58669,0,0,1-.60937-.10156.99944.99944,0,0,1-.39551-.28321,1.14095,1.14095,0,0,1-.21679-.42383,1.99582,1.99582,0,0,1-.06641-.52832V138.1377h.41992v2.37988a1.06147,1.06147,0,0,0,.2168.71777.90677.90677,0,0,0,.71484.248,1.03174,1.03174,0,0,0,.46485-.10156.97549.97549,0,0,0,.34667-.28321,1.32812,1.32812,0,0,0,.2168-.43359,1.87379,1.87379,0,0,0,.07715-.55371Z"/><path class="cls-2" d="M126.56055,141.76367h-.41993v-3.626h.41993v.67871h.01367a1.21768,1.21768,0,0,1,.45117-.60547,1.37693,1.37693,0,0,1,.73145-.1709v.45508a1.22826,1.22826,0,0,0-.58789.11133.973.973,0,0,0-.36719.32226,1.28244,1.28244,0,0,0-.18946.47949,3.16417,3.16417,0,0,0-.05175.57715Z"/><path class="cls-2" d="M128.919,141.76367H128.499v-5.04h.41993v1.99512a1.30691,1.30691,0,0,1,.55664-.50781,1.6727,1.6727,0,0,1,.73828-.1709,1.53753,1.53753,0,0,1,.71777.15723,1.46662,1.46662,0,0,1,.50391.41992,1.80732,1.80732,0,0,1,.29785.6123,2.6877,2.6877,0,0,1,.09765.72852,2.97577,2.97577,0,0,1-.09082.749,1.64587,1.64587,0,0,1-.29.60547,1.41565,1.41565,0,0,1-.50782.40234,1.73336,1.73336,0,0,1-.749.14649,1.35126,1.35126,0,0,1-.35742-.04883,1.67447,1.67447,0,0,1-.35352-.13965,1.425,1.425,0,0,1-.31445-.22754,1.13481,1.13481,0,0,1-.23438-.31836H128.919Zm0-1.82715a2.22638,2.22638,0,0,0,.08105.61231,1.49329,1.49329,0,0,0,.23438.49023,1.09683,1.09683,0,0,0,.38476.3252,1.12237,1.12237,0,0,0,.52539.11914,1.26016,1.26016,0,0,0,.49024-.09375,1.13016,1.13016,0,0,0,.3916-.27735,1.2921,1.2921,0,0,0,.26269-.44433,1.79611,1.79611,0,0,0,.09375-.60547,2.34326,2.34326,0,0,0-.05566-.64062,1.53638,1.53638,0,0,0-.22363-.52149,1.11127,1.11127,0,0,0-.39551-.35351,1.18172,1.18172,0,0,0-.56348-.12891,1.074,1.074,0,0,0-.51465.12207,1.188,1.188,0,0,0-.38476.3291,1.51818,1.51818,0,0,0-.24219.4834A2.00564,2.00564,0,0,0,128.919,139.93652Z"/><path class="cls-2" d="M134.39355,139.64941c.07911-.00879.17383-.02343.28321-.042a1.0279,1.0279,0,0,0,.26953-.07715.22162.22162,0,0,0,.12988-.16406,1.01921,1.01921,0,0,0,.02442-.21387.71993.71993,0,0,0-.20606-.52832.96448.96448,0,0,0-.69726-.20605,1.94365,1.94365,0,0,0-.39844.03808.865.865,0,0,0-.31836.13282.73862.73862,0,0,0-.22461.252,1.06822,1.06822,0,0,0-.11524.39551h-.42675a1.29157,1.29157,0,0,1,.14648-.54883,1.10159,1.10159,0,0,1,.32617-.37109,1.33346,1.33346,0,0,1,.46192-.21,2.22908,2.22908,0,0,1,.55664-.06641,2.1165,2.1165,0,0,1,.51367.05957,1.18,1.18,0,0,1,.41992.18848.88025.88025,0,0,1,.28028.34668,1.25587,1.25587,0,0,1,.10156.53222v1.97363c0,.16309.02929.26758.08789.31153.05762.04394.17578.03418.35351-.03125v.3291c-.0332.00879-.081.02344-.14355.042a.65685.65685,0,0,1-.18555.02735.86.86,0,0,1-.18945-.02051.32793.32793,0,0,1-.168-.06641.42469.42469,0,0,1-.10156-.126.51144.51144,0,0,1-.05176-.16114,1.12468,1.12468,0,0,1-.01465-.18554,1.76849,1.76849,0,0,1-1.35058.60156,1.66413,1.66413,0,0,1-.459-.0625,1.11426,1.11426,0,0,1-.38867-.19629.98663.98663,0,0,1-.26563-.3252,1.0008,1.0008,0,0,1-.09765-.459q0-.92286,1.2666-1.0918Zm.707.21a2.05284,2.05284,0,0,1-.53907.14746c-.18164.02343-.36425.042-.5459.05566a1.54365,1.54365,0,0,0-.75292.2168.62309.62309,0,0,0-.26954.55371.59207.59207,0,0,0,.06739.29.60681.60681,0,0,0,.1748.20312.73316.73316,0,0,0,.25195.11914,1.1266,1.1266,0,0,0,.29.03809,1.90623,1.90623,0,0,0,.49024-.0625,1.34356,1.34356,0,0,0,.42383-.19238.99.99,0,0,0,.29687-.32911.94543.94543,0,0,0,.11231-.47265Z"/><path class="cls-2" d="M137.03906,141.76367h-.41992v-3.626h.41992v.5039a2.65972,2.65972,0,0,1,.52149-.43359,1.19692,1.19692,0,0,1,.64746-.168,1.64845,1.64845,0,0,1,.623.11523,1.06459,1.06459,0,0,1,.4834.40235.91484.91484,0,0,1,.15723.40234,3.60032,3.60032,0,0,1,.02441.43066v2.373h-.41992v-2.36621a1.07957,1.07957,0,0,0-.21679-.73437.918.918,0,0,0-.72071-.24512,1.01659,1.01659,0,0,0-.35742.05957,1.09168,1.09168,0,0,0-.29.15723,1.04039,1.04039,0,0,0-.2207.22363,1.059,1.059,0,0,0-.14063.2666,1.30376,1.30376,0,0,0-.07617.33594c-.00976.10742-.01465.22363-.01465.34961Z"/><path class="cls-2" d="M54.23926,139.47461v2.28906l-.47656-.00683v-5.03321h1.9746a2.19129,2.19129,0,0,1,1.27344.31153,1.15269,1.15269,0,0,1,.44141,1.01172,1.3166,1.3166,0,0,1-.19238.75585,1.46992,1.46992,0,0,1-.627.47559.78135.78135,0,0,1,.34961.22461.99153.99153,0,0,1,.18946.33594,1.70648,1.70648,0,0,1,.08007.39843c.01172.14063.02051.2754.02539.40625.00391.19141.0127.35059.02442.47657a2.61555,2.61555,0,0,0,.042.30761.6896.6896,0,0,0,.05957.18555.27443.27443,0,0,0,.084.10156v.042l-.52539.00683a.90585.90585,0,0,1-.10839-.34961c-.02149-.14941-.03711-.30566-.04883-.46972-.01172-.16309-.02149-.32129-.02832-.47559a2.74389,2.74389,0,0,0-.03809-.37793.79223.79223,0,0,0-.13672-.3252.619.619,0,0,0-.22754-.18554.9781.9781,0,0,0-.29785-.084,2.557,2.557,0,0,0-.33887-.02148Zm1.4834-.40625a2.08114,2.08114,0,0,0,.49414-.05566,1.11073,1.11073,0,0,0,.3955-.17872.88382.88382,0,0,0,.26563-.31152.97568.97568,0,0,0,.09766-.45508.93485.93485,0,0,0-.10157-.46191.77016.77016,0,0,0-.27246-.28711,1.157,1.157,0,0,0-.39258-.14648,2.41291,2.41291,0,0,0-.458-.042H54.23926v1.93848Z"/><path class="cls-2" d="M60.833,138.1377h.41992v3.626H60.833v-.5039c-.05664.06543-.11914.13281-.18946.20312a1.45849,1.45849,0,0,1-.24121.19238,1.33876,1.33876,0,0,1-.73828.20606,1.58328,1.58328,0,0,1-.60937-.10156.99944.99944,0,0,1-.39551-.28321,1.11281,1.11281,0,0,1-.2168-.42383,1.95659,1.95659,0,0,1-.0664-.52832V138.1377h.41992v2.37988a1.06141,1.06141,0,0,0,.2168.71777.90584.90584,0,0,0,.71386.248,1.033,1.033,0,0,0,.46582-.10156.97552.97552,0,0,0,.34668-.28321,1.3677,1.3677,0,0,0,.2168-.43359,1.90654,1.90654,0,0,0,.07715-.55371Z"/><path class="cls-2" d="M62.709,141.76367h-.41992v-3.626H62.709v.67871h.01368a1.21875,1.21875,0,0,1,.45214-.60547,1.37227,1.37227,0,0,1,.73145-.1709v.45508a1.22342,1.22342,0,0,0-.58789.11133.96881.96881,0,0,0-.36816.32226,1.28145,1.28145,0,0,0-.18848.47949,3.07891,3.07891,0,0,0-.05274.57715Z"/><path class="cls-2" d="M66.26465,139.64941c.08008-.00879.17383-.02343.28418-.042a1.05087,1.05087,0,0,0,.26953-.07715.2226.2226,0,0,0,.12891-.16406,1.01916,1.01916,0,0,0,.02441-.21387.71607.71607,0,0,0-.20606-.52832.96336.96336,0,0,0-.69628-.20605,1.94677,1.94677,0,0,0-.39942.03808.87211.87211,0,0,0-.31836.13282.73616.73616,0,0,0-.22363.252,1.06772,1.06772,0,0,0-.11621.39551H64.585a1.29168,1.29168,0,0,1,.14746-.54883,1.1095,1.1095,0,0,1,.3252-.37109,1.34164,1.34164,0,0,1,.46191-.21,2.22914,2.22914,0,0,1,.55664-.06641,2.13036,2.13036,0,0,1,.51465.05957,1.18782,1.18782,0,0,1,.41992.18848.878.878,0,0,1,.2793.34668,1.24105,1.24105,0,0,1,.10156.53222v1.97363c0,.16309.0293.26758.08789.31153s.17578.03418.35352-.03125v.3291c-.03321.00879-.08008.02344-.14356.042a.65179.65179,0,0,1-.18554.02735.8512.8512,0,0,1-.18848-.02051.33153.33153,0,0,1-.169-.06641.40686.40686,0,0,1-.10058-.126.48883.48883,0,0,1-.05274-.16114,1.12579,1.12579,0,0,1-.01464-.18554,1.8126,1.8126,0,0,1-.6084.44824,1.79375,1.79375,0,0,1-.74219.15332,1.65718,1.65718,0,0,1-.458-.0625,1.09763,1.09763,0,0,1-.38867-.19629.97757.97757,0,0,1-.2666-.3252,1.0008,1.0008,0,0,1-.09766-.459q0-.92286,1.2666-1.0918Zm.707.21a2.03256,2.03256,0,0,1-.53906.14746q-.27246.03514-.5459.05566a1.54288,1.54288,0,0,0-.75195.2168.62309.62309,0,0,0-.26954.55371.592.592,0,0,0,.06641.29.60684.60684,0,0,0,.17481.20312.73308.73308,0,0,0,.252.11914,1.12833,1.12833,0,0,0,.291.03809,1.89872,1.89872,0,0,0,.48926-.0625,1.33355,1.33355,0,0,0,.42383-.19238.99274.99274,0,0,0,.29785-.32911.9556.9556,0,0,0,.11133-.47265Z"/><path class="cls-2" d="M68.55371,141.76367v-5.04h.41992v5.04Z"/><path class="cls-2" d="M34.90039,4.23438a2.29107,2.29107,0,0,1,.74219,1.46777H34.79a1.78078,1.78078,0,0,0-.56738-.98877,1.77733,1.77733,0,0,0-1.19336-.36475,1.89612,1.89612,0,0,0-1.5127.6709,3.099,3.099,0,0,0-.57617,2.05615A3.01967,3.01967,0,0,0,31.46094,8.916a1.80267,1.80267,0,0,0,1.55176.70605A1.63156,1.63156,0,0,0,34.459,8.87939a2.84262,2.84262,0,0,0,.39258-1.02832h.85254A2.92812,2.92812,0,0,1,34.957,9.56055a2.6437,2.6437,0,0,1-2.05078.83056,2.68428,2.68428,0,0,1-1.86719-.68164A3.57325,3.57325,0,0,1,30.044,6.92578,3.58513,3.58513,0,0,1,30.791,4.582a2.71637,2.71637,0,0,1,2.22851-.99365A2.5975,2.5975,0,0,1,34.90039,4.23438Z"/><path class="cls-2" d="M40.13867,5.98291a2.374,2.374,0,0,1,.623,1.78271,3.07324,3.07324,0,0,1-.54883,1.87891,1.98567,1.98567,0,0,1-1.707.74219,1.92023,1.92023,0,0,1-1.53125-.65625,2.59994,2.59994,0,0,1-.56738-1.76318,2.81655,2.81655,0,0,1,.59765-1.8877A2.00247,2.00247,0,0,1,38.61133,5.377,2.111,2.111,0,0,1,40.13867,5.98291Zm-.49219,3.12793a2.97741,2.97741,0,0,0,.28907-1.32324,2.37126,2.37126,0,0,0-.208-1.07129,1.17158,1.17158,0,0,0-1.13867-.64942,1.12121,1.12121,0,0,0-1.043.55323,2.57824,2.57824,0,0,0-.3252,1.334,2.24233,2.24233,0,0,0,.3252,1.251,1.14431,1.14431,0,0,0,1.03418.50049A1.07509,1.07509,0,0,0,39.64648,9.11084Z"/><path class="cls-2" d="M42.52441,5.51318V8.6377a1.34723,1.34723,0,0,0,.11133.58886.77187.77187,0,0,0,.7666.42188,1.08506,1.08506,0,0,0,1.09571-.73828,3.00333,3.00333,0,0,0,.1582-1.08545V5.51318h.791v4.70655h-.74805l.00976-.69434a1.60788,1.60788,0,0,1-.376.45264,1.62967,1.62967,0,0,1-1.07715.36914,1.38262,1.38262,0,0,1-1.3457-.67237,2.02805,2.02805,0,0,1-.19434-.9624V5.51318Z"/><path class="cls-2" d="M46.73828,5.51318h.75195v.668a2.11587,2.11587,0,0,1,.707-.59326,1.89185,1.89185,0,0,1,.831-.18018,1.36946,1.36946,0,0,1,1.35352.69874,2.48118,2.48118,0,0,1,.19336,1.09423v3.01905h-.80372V7.25342a1.60557,1.60557,0,0,0-.12793-.69434.77259.77259,0,0,0-.76464-.43945,1.54884,1.54884,0,0,0-.46094.05713,1.19087,1.19087,0,0,0-.57227.38672,1.16752,1.16752,0,0,0-.25586.48144,3.13511,3.13511,0,0,0-.06054.70947v2.46534h-.791Z"/><path class="cls-2" d="M51.90234,4.19922h.79981v1.314h.751v.646h-.751V9.231a.33239.33239,0,0,0,.167.32959.70988.70988,0,0,0,.30762.04834q.05712,0,.123-.00293c.044-.002.09473-.00684.15332-.01465v.62842a1.75282,1.75282,0,0,1-.2832.05713,2.68646,2.68646,0,0,1-.31836.01757.85963.85963,0,0,1-.752-.28369,1.2649,1.2649,0,0,1-.19727-.73584V6.15918h-.63672v-.646h.63672Z"/><path class="cls-2" d="M57.1875,5.51318h.873q-.167.45264-.74219,2.06641-.43066,1.21362-.7207,1.97852a13.4046,13.4046,0,0,1-.96582,2.1958,1.103,1.103,0,0,1-.96582.395,1.88753,1.88753,0,0,1-.25684-.01319,2.05255,2.05255,0,0,1-.22168-.04834v-.7207a2.6768,2.6768,0,0,0,.29883.07031,1.1487,1.1487,0,0,0,.16211.01319.5698.5698,0,0,0,.32226-.07227.67627.67627,0,0,0,.17383-.17773c.01367-.02344.06641-.14356.15723-.35938q.13623-.3252.19824-.48242L53.75977,5.51318h.89648l1.25977,3.834Z"/><path class="cls-2" d="M61.17969,5.53516h.77343v.624a1.92294,1.92294,0,0,1,.51954-.49658,1.67882,1.67882,0,0,1,.94336-.26367,1.77672,1.77672,0,0,1,1.36132.61279,2.50861,2.50861,0,0,1,.5586,1.75146,2.68369,2.68369,0,0,1-.80664,2.19727,1.83,1.83,0,0,1-1.19141.41748,1.62254,1.62254,0,0,1-.89551-.23291,2.0376,2.0376,0,0,1-.47168-.45264v2.40381h-.791Zm2.97558,3.68945a2.20371,2.20371,0,0,0,.36817-1.38672,2.58753,2.58753,0,0,0-.16309-.9668,1.19694,1.19694,0,0,0-2.25781.044,3.25578,3.25578,0,0,0-.16309,1.11621,2.3658,2.3658,0,0,0,.16309.92725,1.20106,1.20106,0,0,0,2.05273.26611Z"/><path class="cls-2" d="M66.27246,5.51318h.751v.813a1.81919,1.81919,0,0,1,.45312-.57812,1.176,1.176,0,0,1,.83008-.34034c.01563,0,.04.00147.0752.0044s.09472.00879.18066.01758v.835a1.15518,1.15518,0,0,0-.13086-.01758q-.05859-.00439-.12891-.00439a1.12777,1.12777,0,0,0-.918.38427,1.33913,1.33913,0,0,0-.32129.88575v2.707h-.791Z"/><path class="cls-2" d="M72.6582,5.98291a2.374,2.374,0,0,1,.62305,1.78271,3.07324,3.07324,0,0,1-.54883,1.87891,1.98566,1.98566,0,0,1-1.707.74219,1.92023,1.92023,0,0,1-1.53125-.65625,2.59994,2.59994,0,0,1-.56738-1.76318,2.81655,2.81655,0,0,1,.59765-1.8877A2.00247,2.00247,0,0,1,71.13086,5.377,2.111,2.111,0,0,1,72.6582,5.98291ZM72.166,9.11084a2.97741,2.97741,0,0,0,.28906-1.32324,2.37126,2.37126,0,0,0-.208-1.07129,1.17158,1.17158,0,0,0-1.13867-.64942,1.12121,1.12121,0,0,0-1.043.55323,2.57833,2.57833,0,0,0-.3252,1.334,2.24241,2.24241,0,0,0,.3252,1.251,1.14431,1.14431,0,0,0,1.03418.50049A1.07511,1.07511,0,0,0,72.166,9.11084Z"/><path class="cls-2" d="M74.72266,8.74316a1.14156,1.14156,0,0,0,.20214.60645,1.28276,1.28276,0,0,0,1.0586.38232,1.59817,1.59817,0,0,0,.79-.19091.63367.63367,0,0,0,.33984-.59131.50322.50322,0,0,0-.27148-.46143,3.30117,3.30117,0,0,0-.68848-.22412l-.6377-.1582a3.14223,3.14223,0,0,1-.90234-.334.99507.99507,0,0,1-.51855-.88769,1.351,1.351,0,0,1,.4873-1.08106,1.96444,1.96444,0,0,1,1.3125-.41308,1.83154,1.83154,0,0,1,1.55371.624,1.34753,1.34753,0,0,1,.29.85254h-.74805a.89188.89188,0,0,0-.19335-.48535,1.25505,1.25505,0,0,0-.9668-.31006,1.18381,1.18381,0,0,0-.69531.1709.53125.53125,0,0,0-.23633.45068.55352.55352,0,0,0,.31054.49072,1.89265,1.89265,0,0,0,.5293.19287l.53223.12745a4.172,4.172,0,0,1,1.16406.3999,1.0592,1.0592,0,0,1,.46191.95361,1.44765,1.44765,0,0,1-.48339,1.08545,2.06914,2.06914,0,0,1-1.46973.457,1.99129,1.99129,0,0,1-1.50684-.47705,1.78926,1.78926,0,0,1-.47363-1.17969Z"/><path class="cls-2" d="M78.6875,5.53516h.77344v.624a1.92277,1.92277,0,0,1,.51953-.49658,1.67884,1.67884,0,0,1,.94336-.26367,1.77675,1.77675,0,0,1,1.36133.61279,2.50865,2.50865,0,0,1,.55859,1.75146,2.68366,2.68366,0,0,1-.80664,2.19727,1.83,1.83,0,0,1-1.19141.41748,1.62251,1.62251,0,0,1-.8955-.23291,2.03741,2.03741,0,0,1-.47168-.45264v2.40381h-.791Zm2.97559,3.68945a2.20377,2.20377,0,0,0,.36816-1.38672,2.58753,2.58753,0,0,0-.16309-.9668,1.19694,1.19694,0,0,0-2.25781.044,3.25581,3.25581,0,0,0-.16308,1.11621,2.36581,2.36581,0,0,0,.16308.92725,1.20107,1.20107,0,0,0,2.05274.26611Z"/><path class="cls-2" d="M86.666,5.64258a1.78455,1.78455,0,0,1,.71093.60888,2.09777,2.09777,0,0,1,.31446.83057,5.43461,5.43461,0,0,1,.07031,1.03711H84.33789a2.04358,2.04358,0,0,0,.33594,1.15234,1.11854,1.11854,0,0,0,.97265.43409,1.24713,1.24713,0,0,0,.98047-.41065,1.39313,1.39313,0,0,0,.291-.55176h.77734a1.62476,1.62476,0,0,1-.20312.57813,2.11269,2.11269,0,0,1-.38867.52051,1.82384,1.82384,0,0,1-.88477.47461,2.66965,2.66965,0,0,1-.64063.07031,1.96219,1.96219,0,0,1-1.48046-.63965,2.49358,2.49358,0,0,1-.60743-1.79053,2.71283,2.71283,0,0,1,.61133-1.84131,2.01252,2.01252,0,0,1,1.59864-.70752A2.13407,2.13407,0,0,1,86.666,5.64258Zm.2832,1.84814a2.08285,2.08285,0,0,0-.22266-.82177,1.137,1.137,0,0,0-1.07617-.57129,1.18833,1.18833,0,0,0-.90625.39355,1.49747,1.49747,0,0,0-.38867.99951Z"/><path class="cls-2" d="M88.78516,5.51318h.75195v.813a1.80479,1.80479,0,0,1,.45312-.57812,1.17432,1.17432,0,0,1,.83008-.34034c.01465,0,.03907.00147.07422.0044s.0957.00879.18067.01758v.835a1.16994,1.16994,0,0,0-.12989-.01758q-.05859-.00439-.1289-.00439a1.13113,1.13113,0,0,0-.919.38427,1.34421,1.34421,0,0,0-.32129.88575v2.707h-.791Z"/><path class="cls-2" d="M91.76074,3.76416h.80371v.89648h-.80371Zm0,1.771h.80371v4.68457h-.80371Z"/><path class="cls-2" d="M93.918,4.19922h.80078v1.314h.751v.646h-.751V9.231a.33183.33183,0,0,0,.166.32959.71494.71494,0,0,0,.30859.04834q.05566,0,.12305-.00293c.043-.002.09472-.00684.15332-.01465v.62842a1.76506,1.76506,0,0,1-.28418.05713,2.67479,2.67479,0,0,1-.31836.01757.85643.85643,0,0,1-.751-.28369A1.25787,1.25787,0,0,1,93.918,9.2749V6.15918h-.63672v-.646H93.918Z"/><path class="cls-2" d="M99.20312,5.51318h.874q-.167.45264-.74219,2.06641-.43212,1.21362-.7207,1.97852a13.40368,13.40368,0,0,1-.96582,2.1958,1.10613,1.10613,0,0,1-.9668.395,1.87124,1.87124,0,0,1-.25586-.01319,2.01455,2.01455,0,0,1-.22266-.04834v-.7207a2.782,2.782,0,0,0,.29883.07031,1.16013,1.16013,0,0,0,.16211.01319.56981.56981,0,0,0,.32227-.07227.67642.67642,0,0,0,.17383-.17773c.01464-.02344.0664-.14356.1582-.35938.08984-.2168.15625-.37744.19726-.48242L95.77539,5.51318h.89649l1.26074,3.834Z"/><path class="cls-2" d="M103.19531,3.74219h.76953V6.08447a1.731,1.731,0,0,1,1.40625-.69433,1.84352,1.84352,0,0,1,1.43164.604,2.56412,2.56412,0,0,1,.54981,1.78223,3.05023,3.05023,0,0,1-.542,1.85449,1.76356,1.76356,0,0,1-1.50489.73828,1.5501,1.5501,0,0,1-.90918-.25928,2.18819,2.18819,0,0,1-.47168-.49218v.60205h-.72949Zm3.02442,5.41845a2.49664,2.49664,0,0,0,.31933-1.34472,2.19539,2.19539,0,0,0-.31933-1.23047,1.05283,1.05283,0,0,0-.94141-.48779,1.315,1.315,0,0,0-.9502.3999,1.79373,1.79373,0,0,0-.4082,1.31836,2.91168,2.91168,0,0,0,.168,1.07666,1.15723,1.15723,0,0,0,1.168.77783A1.06127,1.06127,0,0,0,106.21973,9.16064Z"/><path class="cls-2" d="M111.209,5.51318h.874q-.167.45264-.74219,2.06641-.43214,1.21362-.7207,1.97852a13.40368,13.40368,0,0,1-.96582,2.1958,1.10613,1.10613,0,0,1-.9668.395,1.87124,1.87124,0,0,1-.25586-.01319,2.01455,2.01455,0,0,1-.22266-.04834v-.7207a2.782,2.782,0,0,0,.29883.07031,1.16013,1.16013,0,0,0,.16211.01319.56981.56981,0,0,0,.32227-.07227.67642.67642,0,0,0,.17383-.17773c.01464-.02344.0664-.14356.1582-.35938.08984-.2168.15625-.37744.19726-.48242l-1.74023-4.84522h.89648l1.26075,3.834Z"/><path class="cls-2" d="M115.28906,3.76416h.791v6.45557h-.791Z"/><path class="cls-2" d="M120.17383,5.64258a1.78764,1.78764,0,0,1,.71191.60888,2.11268,2.11268,0,0,1,.31446.83057,5.53819,5.53819,0,0,1,.06933,1.03711h-3.42285a2.02849,2.02849,0,0,0,.33594,1.15234,1.11786,1.11786,0,0,0,.97168.43409,1.2492,1.2492,0,0,0,.98144-.41065,1.39125,1.39125,0,0,0,.29-.55176h.77832A1.64812,1.64812,0,0,1,121,9.32129a2.0863,2.0863,0,0,1-.3877.52051,1.8226,1.8226,0,0,1-.88574.47461,2.66387,2.66387,0,0,1-.64062.07031,1.96223,1.96223,0,0,1-1.48047-.63965,2.49788,2.49788,0,0,1-.60742-1.79053,2.71769,2.71769,0,0,1,.61133-1.84131,2.01447,2.01447,0,0,1,1.5996-.70752A2.12711,2.12711,0,0,1,120.17383,5.64258Zm.2832,1.84814a2.05069,2.05069,0,0,0-.22265-.82177,1.136,1.136,0,0,0-1.07618-.57129,1.1898,1.1898,0,0,0-.90625.39355,1.492,1.492,0,0,0-.38769.99951Z"/><path class="cls-2" d="M122.66016,5.51318l1.25781,3.832,1.30859-3.832h.86719l-1.77246,4.70655h-.84277l-1.73633-4.70655Z"/><path class="cls-2" d="M129.67969,5.64258a1.78448,1.78448,0,0,1,.71093.60888,2.09777,2.09777,0,0,1,.31446.83057,5.43461,5.43461,0,0,1,.07031,1.03711h-3.42383a2.04366,2.04366,0,0,0,.33594,1.15234,1.11855,1.11855,0,0,0,.97266.43409,1.24712,1.24712,0,0,0,.98046-.41065,1.39313,1.39313,0,0,0,.291-.55176h.77734a1.62476,1.62476,0,0,1-.20312.57813,2.11244,2.11244,0,0,1-.38867.52051,1.8238,1.8238,0,0,1-.88477.47461,2.66963,2.66963,0,0,1-.64062.07031,1.96221,1.96221,0,0,1-1.48047-.63965,2.49358,2.49358,0,0,1-.60742-1.79053,2.71282,2.71282,0,0,1,.61132-1.84131,2.01252,2.01252,0,0,1,1.59864-.70752A2.13407,2.13407,0,0,1,129.67969,5.64258Zm.2832,1.84814a2.08268,2.08268,0,0,0-.22266-.82177,1.137,1.137,0,0,0-1.07617-.57129,1.18833,1.18833,0,0,0-.90625.39355,1.49752,1.49752,0,0,0-.38867.99951Z"/><path class="cls-2" d="M131.79883,3.76416h.791v6.45557h-.791Z"/><path class="cls-2" d="M139.6875,5.98291a2.37436,2.37436,0,0,1,.624,1.78271,3.07361,3.07361,0,0,1-.5498,1.87891,1.98378,1.98378,0,0,1-1.70606.74219,1.92223,1.92223,0,0,1-1.53222-.65625,2.60454,2.60454,0,0,1-.56641-1.76318,2.8165,2.8165,0,0,1,.59766-1.8877,2.00047,2.00047,0,0,1,1.60547-.70264A2.10943,2.10943,0,0,1,139.6875,5.98291Zm-.49121,3.12793a2.9908,2.9908,0,0,0,.28906-1.32324,2.3705,2.3705,0,0,0-.209-1.07129,1.17107,1.17107,0,0,0-1.1377-.64942,1.11921,1.11921,0,0,0-1.043.55323,2.57855,2.57855,0,0,0-.32617,1.334,2.24261,2.24261,0,0,0,.32617,1.251,1.14325,1.14325,0,0,0,1.03418.50049A1.076,1.076,0,0,0,139.19629,9.11084Z"/><path class="cls-2" d="M141.65234,4.07617a1.21232,1.21232,0,0,1,1.06836-.40429c.04883,0,.10059.00146.15332.00439s.11231.00732.18067.01318v.72071c-.083-.00586-.14356-.00928-.18067-.01075s-.07129-.00244-.10449-.00244q-.36328,0-.43555.187a3.69052,3.69052,0,0,0-.07031.95118h.791v.624h-.791v4.06055h-.7832V6.15918h-.6543v-.624h.6543V4.79688A1.4099,1.4099,0,0,1,141.65234,4.07617Z"/><path class="cls-2" d="M147.07422,5.51318V8.6377a1.34723,1.34723,0,0,0,.11133.58886.77219.77219,0,0,0,.76562.42188,1.08191,1.08191,0,0,0,1.09571-.73828,3.00355,3.00355,0,0,0,.1582-1.08545V5.51318h.791v4.70655H149.25l.00781-.69434a1.58845,1.58845,0,0,1-.375.45264,1.63046,1.63046,0,0,1-1.07812.36914A1.382,1.382,0,0,1,146.46,9.6748a2.02817,2.02817,0,0,1-.19434-.9624V5.51318Z"/><path class="cls-2" d="M151.31055,5.51318h.75195v.813a1.79061,1.79061,0,0,1,.45312-.57812,1.17264,1.17264,0,0,1,.83008-.34034c.01465,0,.03907.00147.07422.0044s.0957.00879.18067.01758v.835a1.16994,1.16994,0,0,0-.12989-.01758c-.03906-.00293-.083-.00439-.1289-.00439a1.12981,1.12981,0,0,0-.91895.38427,1.34421,1.34421,0,0,0-.32129.88575v2.707h-.791Z"/><path class="cls-2" d="M154.21973,3.74219h.76953V6.08447a1.73461,1.73461,0,0,1,1.40722-.69433,1.84636,1.84636,0,0,1,1.43164.604,2.56885,2.56885,0,0,1,.54981,1.78223,3.05063,3.05063,0,0,1-.543,1.85449,1.76354,1.76354,0,0,1-1.50488.73828,1.54482,1.54482,0,0,1-.9082-.25928,2.1666,2.1666,0,0,1-.47168-.49218v.60205h-.73047Zm3.02539,5.41845a2.50539,2.50539,0,0,0,.31933-1.34472,2.20328,2.20328,0,0,0-.31933-1.23047,1.055,1.055,0,0,0-.94141-.48779,1.31336,1.31336,0,0,0-.95019.3999,1.78949,1.78949,0,0,0-.40821,1.31836,2.89169,2.89169,0,0,0,.168,1.07666,1.15643,1.15643,0,0,0,1.168.77783A1.06234,1.06234,0,0,0,157.24512,9.16064Z"/><path class="cls-2" d="M161.81348,7.37158a.43055.43055,0,0,0,.36523-.22851.7153.7153,0,0,0,.05176-.3042.64618.64618,0,0,0-.28711-.58887,1.53157,1.53157,0,0,0-.82227-.18311,1.04177,1.04177,0,0,0-.877.33545,1.111,1.111,0,0,0-.18848.55225h-.73828a1.3639,1.3639,0,0,1,.56446-1.21436,2.3084,2.3084,0,0,1,1.25683-.3413,2.55383,2.55383,0,0,1,1.34766.3164A1.07307,1.07307,0,0,1,163,6.69971V9.41113a.3434.3434,0,0,0,.05078.19776.24262.24262,0,0,0,.21289.0747,1.097,1.097,0,0,0,.11914-.00683c.043-.00391.08985-.01074.14063-.01953v.58447a2.24172,2.24172,0,0,1-.28125.06592,2.0764,2.0764,0,0,1-.26367.01318.65035.65035,0,0,1-.59375-.29,1.13528,1.13528,0,0,1-.13672-.43506,2.01759,2.01759,0,0,1-.69336.54932,2.15268,2.15268,0,0,1-.99805.23291,1.48461,1.48461,0,0,1-1.07031-.39746,1.31885,1.31885,0,0,1-.415-.99365,1.27772,1.27772,0,0,1,.40918-1.01416,1.9415,1.9415,0,0,1,1.07226-.44336Zm-1.665,2.13672a.92785.92785,0,0,0,.59277.19727,1.80974,1.80974,0,0,0,.80859-.19287,1.08668,1.08668,0,0,0,.65918-1.04883V7.82764a1.33441,1.33441,0,0,1-.373.15429,3.01209,3.01209,0,0,1-.44727.08789l-.47754.06153a1.84142,1.84142,0,0,0-.64648.18017.69816.69816,0,0,0-.36719.65772A.647.647,0,0,0,160.14844,9.5083Z"/><path class="cls-2" d="M164.29688,5.51318h.752v.668a2.09721,2.09721,0,0,1,.707-.59326,1.88456,1.88456,0,0,1,.83008-.18018,1.36944,1.36944,0,0,1,1.35351.69874,2.481,2.481,0,0,1,.19336,1.09423v3.01905h-.80371V7.25342a1.60572,1.60572,0,0,0-.12793-.69434.77121.77121,0,0,0-.76367-.43945,1.55579,1.55579,0,0,0-.46191.05713,1.18826,1.18826,0,0,0-.57129.38672,1.15864,1.15864,0,0,0-.25684.48144,3.20362,3.20362,0,0,0-.05957.70947v2.46534h-.791Z"/><path class="cls-2" d="M169.30273,3.76416h.80469v.89648h-.80469Zm0,1.771h.80469v4.68457h-.80469Z"/><path class="cls-2" d="M171.77246,8.74316a1.13337,1.13337,0,0,0,.20117.60645,1.28275,1.28275,0,0,0,1.0586.38232,1.58914,1.58914,0,0,0,.78906-.19091.63362.63362,0,0,0,.3418-.59131.505.505,0,0,0-.27344-.46143,3.24459,3.24459,0,0,0-.6875-.22412l-.63867-.1582a3.14556,3.14556,0,0,1-.90137-.334.99508.99508,0,0,1-.51856-.88769,1.34807,1.34807,0,0,1,.48731-1.08106,1.96343,1.96343,0,0,1,1.31152-.41308,1.83233,1.83233,0,0,1,1.55469.624,1.34076,1.34076,0,0,1,.28906.85254H174.04a.90074.90074,0,0,0-.19434-.48535,1.255,1.255,0,0,0-.96679-.31006,1.18387,1.18387,0,0,0-.69532.1709.53035.53035,0,0,0-.23535.45068.5525.5525,0,0,0,.30957.49072,1.90857,1.90857,0,0,0,.52832.19287l.53321.12745a4.172,4.172,0,0,1,1.16406.3999,1.05854,1.05854,0,0,1,.46094.95361,1.44319,1.44319,0,0,1-.48243,1.08545,2.07014,2.07014,0,0,1-1.4707.457,1.98729,1.98729,0,0,1-1.50586-.47705,1.78926,1.78926,0,0,1-.47363-1.17969Z"/><path class="cls-2" d="M178.32422,7.37158a.43055.43055,0,0,0,.36523-.22851.7153.7153,0,0,0,.05176-.3042A.64618.64618,0,0,0,178.4541,6.25a1.53153,1.53153,0,0,0-.82226-.18311,1.04179,1.04179,0,0,0-.877.33545,1.11087,1.11087,0,0,0-.18847.55225h-.73829a1.3639,1.3639,0,0,1,.56446-1.21436,2.30842,2.30842,0,0,1,1.25683-.3413,2.55383,2.55383,0,0,1,1.34766.3164,1.07307,1.07307,0,0,1,.51367.98438V9.41113a.3434.3434,0,0,0,.05078.19776.24265.24265,0,0,0,.21289.0747,1.097,1.097,0,0,0,.11914-.00683c.043-.00391.08985-.01074.14063-.01953v.58447a2.24132,2.24132,0,0,1-.28125.06592,2.0764,2.0764,0,0,1-.26367.01318.65035.65035,0,0,1-.59375-.29,1.13528,1.13528,0,0,1-.13672-.43506,2.0175,2.0175,0,0,1-.69336.54932,2.15265,2.15265,0,0,1-.998.23291,1.48461,1.48461,0,0,1-1.07031-.39746,1.31885,1.31885,0,0,1-.415-.99365,1.27772,1.27772,0,0,1,.40918-1.01416,1.94153,1.94153,0,0,1,1.07227-.44336Zm-1.665,2.13672a.92787.92787,0,0,0,.59277.19727,1.80981,1.80981,0,0,0,.8086-.19287,1.0867,1.0867,0,0,0,.65918-1.04883V7.82764a1.33448,1.33448,0,0,1-.37305.15429,3.01209,3.01209,0,0,1-.44727.08789l-.47753.06153a1.84148,1.84148,0,0,0-.64649.18017.69816.69816,0,0,0-.36719.65772A.647.647,0,0,0,176.65918,9.5083Z"/><path class="cls-2" d="M180.96484,4.19922h.79981v1.314h.751v.646h-.751V9.231a.33239.33239,0,0,0,.167.32959.70988.70988,0,0,0,.30762.04834q.05712,0,.123-.00293c.04395-.002.09473-.00684.15332-.01465v.62842a1.753,1.753,0,0,1-.2832.05713,2.68646,2.68646,0,0,1-.31836.01757.85963.85963,0,0,1-.75195-.28369,1.2649,1.2649,0,0,1-.19727-.73584V6.15918h-.63672v-.646h.63672Z"/><path class="cls-2" d="M183.30762,3.76416h.80468v.89648h-.80468Zm0,1.771h.80468v4.68457h-.80468Z"/><path class="cls-2" d="M188.7168,5.98291a2.3744,2.3744,0,0,1,.624,1.78271,3.07361,3.07361,0,0,1-.5498,1.87891,1.98379,1.98379,0,0,1-1.70606.74219,1.92227,1.92227,0,0,1-1.53223-.65625,2.60453,2.60453,0,0,1-.5664-1.76318,2.81655,2.81655,0,0,1,.59765-1.8877,2.0005,2.0005,0,0,1,1.60547-.70264A2.10945,2.10945,0,0,1,188.7168,5.98291Zm-.49121,3.12793a2.9908,2.9908,0,0,0,.28906-1.32324,2.3705,2.3705,0,0,0-.209-1.07129,1.17105,1.17105,0,0,0-1.13769-.64942,1.1192,1.1192,0,0,0-1.043.55323,2.57855,2.57855,0,0,0-.32617,1.334,2.24261,2.24261,0,0,0,.32617,1.251,1.14324,1.14324,0,0,0,1.03418.50049A1.076,1.076,0,0,0,188.22559,9.11084Z"/><path class="cls-2" d="M190.3125,5.51318h.75195v.668a2.09721,2.09721,0,0,1,.707-.59326,1.88462,1.88462,0,0,1,.83008-.18018,1.36946,1.36946,0,0,1,1.35352.69874,2.48118,2.48118,0,0,1,.19336,1.09423v3.01905h-.80371V7.25342a1.60572,1.60572,0,0,0-.12793-.69434.77123.77123,0,0,0-.76368-.43945,1.55588,1.55588,0,0,0-.46191.05713,1.18826,1.18826,0,0,0-.57129.38672,1.15873,1.15873,0,0,0-.25683.48144,3.20362,3.20362,0,0,0-.05957.70947v2.46534h-.791Z"/><path class="cls-2" d="M195.48535,11.14258a.5573.5573,0,0,0,.42676-.42822,1.24543,1.24543,0,0,0,.06543-.38428c0-.02051-.001-.03906-.00195-.05518a.51536.51536,0,0,0-.01075-.05517h-.47949v-.958h.94043v.88769a1.92278,1.92278,0,0,1-.21094.91846.961.961,0,0,1-.72949.48779Z"/><path class="cls-2" d="M200.35547,8.80469a2.72512,2.72512,0,0,1,1.14062-1.09424l.84375-.48779a3.94439,3.94439,0,0,0,.79493-.563,1.23019,1.23019,0,0,0,.03125-1.71045,1.19994,1.19994,0,0,0-.87891-.32373,1.14749,1.14749,0,0,0-1.125.61719,2.21331,2.21331,0,0,0-.18457.9165h-.80371a2.81328,2.81328,0,0,1,.30273-1.34033,1.90226,1.90226,0,0,1,1.81446-.91406,1.967,1.967,0,0,1,1.58007.58447,1.95317,1.95317,0,0,1,.499,1.30078,1.76872,1.76872,0,0,1-.53223,1.292,5.19965,5.19965,0,0,1-1.10254.75586l-.60254.334a3.84941,3.84941,0,0,0-.67578.45263,1.64487,1.64487,0,0,0-.55469.84815h3.4375v.74707h-4.32031A3.67892,3.67892,0,0,1,200.35547,8.80469Z"/><path class="cls-2" d="M208.94531,4.93311a4.50231,4.50231,0,0,1,.42188,2.13134,5.11618,5.11618,0,0,1-.38281,2.12256,1.87179,1.87179,0,0,1-1.81055,1.2041,1.813,1.813,0,0,1-1.6875-.98437,4.51858,4.51858,0,0,1-.46094-2.20606,5.42581,5.42581,0,0,1,.27734-1.8413,1.89324,1.89324,0,0,1,1.876-1.43262A1.85943,1.85943,0,0,1,208.94531,4.93311Zm-.7959,4.19238a3.94416,3.94416,0,0,0,.36524-2.03028,5.01287,5.01287,0,0,0-.26367-1.76416,1.00589,1.00589,0,0,0-1.02637-.69238,1.07245,1.07245,0,0,0-1.02344.65723,4.5274,4.5274,0,0,0-.32324,1.93555,4.75228,4.75228,0,0,0,.207,1.54687,1.12485,1.12485,0,0,0,2.06445.34717Z"/><path class="cls-2" d="M210.36719,8.80469a2.72512,2.72512,0,0,1,1.14062-1.09424l.84375-.48779a3.944,3.944,0,0,0,.79492-.563,1.23017,1.23017,0,0,0,.03125-1.71045,1.1999,1.1999,0,0,0-.8789-.32373,1.14749,1.14749,0,0,0-1.125.61719,2.21331,2.21331,0,0,0-.18457.9165h-.80371a2.81328,2.81328,0,0,1,.30273-1.34033,1.90225,1.90225,0,0,1,1.81445-.91406,1.967,1.967,0,0,1,1.58008.58447,1.95317,1.95317,0,0,1,.499,1.30078,1.76872,1.76872,0,0,1-.53223,1.292,5.19965,5.19965,0,0,1-1.10254.75586l-.60254.334a3.84941,3.84941,0,0,0-.67578.45263,1.64475,1.64475,0,0,0-.55469.84815h3.4375v.74707h-4.32031A3.67892,3.67892,0,0,1,210.36719,8.80469Z"/><path class="cls-2" d="M218.95605,4.93311a4.50231,4.50231,0,0,1,.42188,2.13134,5.116,5.116,0,0,1-.38281,2.12256,1.87178,1.87178,0,0,1-1.81055,1.2041,1.813,1.813,0,0,1-1.6875-.98437,4.51858,4.51858,0,0,1-.46094-2.20606,5.42555,5.42555,0,0,1,.27735-1.8413,1.89322,1.89322,0,0,1,1.876-1.43262A1.85942,1.85942,0,0,1,218.95605,4.93311Zm-.79589,4.19238a3.94429,3.94429,0,0,0,.36523-2.03028,5.01287,5.01287,0,0,0-.26367-1.76416,1.00589,1.00589,0,0,0-1.02637-.69238,1.07245,1.07245,0,0,0-1.02344.65723,4.5274,4.5274,0,0,0-.32324,1.93555,4.75228,4.75228,0,0,0,.207,1.54687,1.12486,1.12486,0,0,0,2.06446.34717Z"/><path class="cls-2" d="M47.3457,158.80029a3.20648,3.20648,0,0,1-.31152-.21289,1.08209,1.08209,0,0,1-.21387-.2207.80751.80751,0,0,1-.12207-.26953,1.50839,1.50839,0,0,1-.03906-.375,1.055,1.055,0,0,1,.1123-.47559,1.25388,1.25388,0,0,1,.30079-.38867,1.37334,1.37334,0,0,1,.44433-.25488,1.51725,1.51725,0,0,1,.54981-.084,2.21508,2.21508,0,0,1,.5498.06934,1.49087,1.49087,0,0,1,.47949.2168,1.11661,1.11661,0,0,1,.33594.375,1.1007,1.1007,0,0,1,.126.542,1.30039,1.30039,0,0,1-.15723.6582,1.15759,1.15759,0,0,1-.51465.44824,1.33685,1.33685,0,0,1,.64063.46875,1.25068,1.25068,0,0,1,.23437.75586,1.58756,1.58756,0,0,1-.123.64453,1.24875,1.24875,0,0,1-.34961.46875,1.55791,1.55791,0,0,1-.54981.28711,2.44081,2.44081,0,0,1-.71387.09766,1.72379,1.72379,0,0,1-.542-.09082,1.51358,1.51358,0,0,1-.49707-.27246,1.42109,1.42109,0,0,1-.36035-.45508,1.376,1.376,0,0,1-.14062-.6377,1.43148,1.43148,0,0,1,.2207-.7871A1.26849,1.26849,0,0,1,47.3457,158.80029Zm.78418.23828a1.70492,1.70492,0,0,0-.47656.06348,1.06431,1.06431,0,0,0-.37793.19238.87575.87575,0,0,0-.252.32911,1.12894,1.12894,0,0,0-.09082.47167,1.04986,1.04986,0,0,0,.08691.42774,1.02975,1.02975,0,0,0,.24512.33887,1.15659,1.15659,0,0,0,.38574.22754,1.43727,1.43727,0,0,0,.50684.084,1.25573,1.25573,0,0,0,.45507-.08008,1.12792,1.12792,0,0,0,.36817-.22754,1.02131,1.02131,0,0,0,.24414-.35058,1.1112,1.1112,0,0,0,.08789-.44727,1.05246,1.05246,0,0,0-.09082-.45215.89667.89667,0,0,0-.252-.32129,1.06439,1.06439,0,0,0-.37793-.19238A1.64987,1.64987,0,0,0,48.12988,159.03857Zm-.02148-2.1416a1.33175,1.33175,0,0,0-.3916.05567.91955.91955,0,0,0-.31836.168.76179.76179,0,0,0-.21387.28027.90532.90532,0,0,0-.07715.38476.82731.82731,0,0,0,.08789.39551.76207.76207,0,0,0,.23438.26953,1.05351,1.05351,0,0,0,.33593.15723,1.45166,1.45166,0,0,0,.39161.05273,1.29958,1.29958,0,0,0,.37793-.05273.74431.74431,0,0,0,.30175-.1709.83949.83949,0,0,0,.19922-.30176,1.20091,1.20091,0,0,0,.07325-.44726.72408.72408,0,0,0-.24512-.585A1.15487,1.15487,0,0,0,48.1084,156.897Z"/><path class="cls-2" d="M52.11914,159.4165v.43457H50.34863v-.43457Z"/><path class="cls-2" d="M53.14844,160.31982a1.06664,1.06664,0,0,0,.35351.66114,1.19493,1.19493,0,0,0,.73145.19238,1.27614,1.27614,0,0,0,.39941-.05566.80173.80173,0,0,0,.27637-.15039.64412.64412,0,0,0,.16406-.21387.573.573,0,0,0,.05664-.252.46563.46563,0,0,0-.17187-.3955,1.29722,1.29722,0,0,0-.43067-.20313,5.66472,5.66472,0,0,0-.55957-.126,2.72917,2.72917,0,0,1-.56054-.15723,1.12469,1.12469,0,0,1-.42969-.30078.81041.81041,0,0,1-.17188-.55371.94427.94427,0,0,1,.332-.74512,1.38973,1.38973,0,0,1,.94238-.29,1.60794,1.60794,0,0,1,.95508.26172,1.20137,1.20137,0,0,1,.44433.87891h-.42676a.78489.78489,0,0,0-.31835-.5918,1.187,1.187,0,0,0-.66211-.1709.941.941,0,0,0-.6084.1709.55393.55393,0,0,0-.21.45215.43939.43939,0,0,0,.17089.374,1.38388,1.38388,0,0,0,.43067.21q.25928.08057.56055.14356a2.75791,2.75791,0,0,1,.55957.17871,1.22353,1.22353,0,0,1,.43066.31152.80226.80226,0,0,1,.17187.5459.92254.92254,0,0,1-.1123.458.97606.97606,0,0,1-.30859.333,1.40867,1.40867,0,0,1-.46485.19922,2.43941,2.43941,0,0,1-.59179.06641,1.60545,1.60545,0,0,1-.57032-.09375,1.25995,1.25995,0,0,1-.42382-.2627,1.22221,1.22221,0,0,1-.27247-.39257,1.36329,1.36329,0,0,1-.1123-.48243Z"/><path class="cls-2" d="M57.67773,161.46729c-.05175.00976-.11914.02636-.20312.0498a1.08557,1.08557,0,0,1-.28027.03418.66625.66625,0,0,1-.4795-.15723.76756.76756,0,0,1-.16406-.56347v-2.65332H56.04v-.34961h.51074v-1.00782h.41992v1.00782h.67871v.34961H56.9707v2.48535c0,.08886.002.166.00684.23144a.38439.38439,0,0,0,.042.16016.2025.2025,0,0,0,.1084.0918.60867.60867,0,0,0,.207.02734,1.03338,1.03338,0,0,0,.1709-.01367c.05859-.00977.11621-.02149.17187-.03516Z"/><path class="cls-2" d="M60.01562,159.33936c.07911-.00879.17383-.02344.28321-.042a1.05087,1.05087,0,0,0,.26953-.07715.22162.22162,0,0,0,.12988-.16406,1.088,1.088,0,0,0,.02442-.21386.71681.71681,0,0,0-.207-.52833.96179.96179,0,0,0-.69628-.20605,1.94362,1.94362,0,0,0-.39844.03809.87674.87674,0,0,0-.31934.13281.74634.74634,0,0,0-.22363.25195,1.0681,1.0681,0,0,0-.11523.39551h-.42676a1.29157,1.29157,0,0,1,.14648-.54883,1.1095,1.1095,0,0,1,.3252-.37109,1.35006,1.35006,0,0,1,.46191-.21,2.24025,2.24025,0,0,1,.55664-.06641,2.12458,2.12458,0,0,1,.51465.05957,1.18782,1.18782,0,0,1,.41992.18848.88032.88032,0,0,1,.28028.34668,1.25587,1.25587,0,0,1,.10156.53222v1.97364c0,.16308.0293.26757.08691.31152.0586.04395.17676.03418.35352-.03125v.3291c-.03223.00879-.08008.02344-.14258.042a.65685.65685,0,0,1-.18555.02735.86.86,0,0,1-.18945-.02051.32447.32447,0,0,1-.168-.06641.40991.40991,0,0,1-.10156-.126.539.539,0,0,1-.05274-.16114,1.24705,1.24705,0,0,1-.01367-.18554,1.82563,1.82563,0,0,1-.60937.44824,1.78919,1.78919,0,0,1-.74121.15332,1.66413,1.66413,0,0,1-.459-.0625,1.11426,1.11426,0,0,1-.38867-.19629.98669.98669,0,0,1-.26563-.32519,1.00094,1.00094,0,0,1-.09863-.459q0-.92284,1.26758-1.0918Zm.707.21a2.05284,2.05284,0,0,1-.53907.14746q-.27392.03515-.54589.05566a1.54366,1.54366,0,0,0-.75293.2168.62309.62309,0,0,0-.26954.55371.603.603,0,0,0,.06641.29.60956.60956,0,0,0,.17578.20312.73313.73313,0,0,0,.252.11914,1.12091,1.12091,0,0,0,.29.03809,1.91174,1.91174,0,0,0,.49024-.0625,1.32829,1.32829,0,0,0,.42285-.19238.98253.98253,0,0,0,.29785-.3291.95591.95591,0,0,0,.11231-.47266Z"/><path class="cls-2" d="M63.51562,161.46729c-.05175.00976-.11914.02636-.20312.0498a1.08551,1.08551,0,0,1-.28027.03418.66625.66625,0,0,1-.4795-.15723.76756.76756,0,0,1-.16406-.56347v-2.65332h-.51074v-.34961h.51074v-1.00782h.41992v1.00782h.67871v.34961h-.67871v2.48535c0,.08886.002.166.00684.23144a.38439.38439,0,0,0,.042.16016.2025.2025,0,0,0,.1084.0918.60867.60867,0,0,0,.207.02734,1.03329,1.03329,0,0,0,.1709-.01367c.05859-.00977.11621-.02149.17187-.03516Z"/><path class="cls-2" d="M64.44629,159.73877a1.95584,1.95584,0,0,0,.07715.55664,1.33724,1.33724,0,0,0,.22754.45508,1.10772,1.10772,0,0,0,.38183.30762,1.16861,1.16861,0,0,0,.53125.11523,1.15671,1.15671,0,0,0,.707-.2168,1.04324,1.04324,0,0,0,.39258-.61621h.46875a2.2692,2.2692,0,0,1-.20312.47949,1.46912,1.46912,0,0,1-.31543.38575,1.36761,1.36761,0,0,1-.44727.25488,1.82258,1.82258,0,0,1-.60254.09082,1.76406,1.76406,0,0,1-.749-.14648,1.41746,1.41746,0,0,1-.51758-.40235,1.69643,1.69643,0,0,1-.30078-.60254,2.72152,2.72152,0,0,1-.09863-.74511,2.36908,2.36908,0,0,1,.11621-.749,1.89976,1.89976,0,0,1,.32812-.6123,1.52764,1.52764,0,0,1,.52149-.41309,1.57556,1.57556,0,0,1,.70019-.15039,1.447,1.447,0,0,1,1.17676.51367,2.27052,2.27052,0,0,1,.41992,1.49512Zm2.36621-.35059a1.66874,1.66874,0,0,0-.07324-.5,1.18523,1.18523,0,0,0-.21778-.40625,1.03019,1.03019,0,0,0-.36035-.27246,1.15045,1.15045,0,0,0-.49707-.10156,1.11356,1.11356,0,0,0-.49316.10449,1.1474,1.1474,0,0,0-.36426.28028,1.39069,1.39069,0,0,0-.24121.40625,1.87826,1.87826,0,0,0-.11914.48925Z"/><path class="cls-2" d="M71.69141,159.33936c.0791-.00879.17382-.02344.2832-.042a1.05087,1.05087,0,0,0,.26953-.07715.22162.22162,0,0,0,.12988-.16406,1.088,1.088,0,0,0,.02442-.21386.71685.71685,0,0,0-.207-.52833.96182.96182,0,0,0-.69629-.20605,1.94369,1.94369,0,0,0-.39844.03809.87674.87674,0,0,0-.31934.13281.74634.74634,0,0,0-.22363.25195,1.0681,1.0681,0,0,0-.11523.39551h-.42676a1.29157,1.29157,0,0,1,.14648-.54883,1.10961,1.10961,0,0,1,.3252-.37109,1.35006,1.35006,0,0,1,.46191-.21,2.24025,2.24025,0,0,1,.55664-.06641,2.12458,2.12458,0,0,1,.51465.05957,1.18782,1.18782,0,0,1,.41992.18848.88032.88032,0,0,1,.28028.34668,1.25587,1.25587,0,0,1,.10156.53222v1.97364c0,.16308.0293.26757.08691.31152.0586.04395.17676.03418.35352-.03125v.3291c-.03223.00879-.08008.02344-.14258.042a.65685.65685,0,0,1-.18555.02735.86.86,0,0,1-.18945-.02051.32447.32447,0,0,1-.168-.06641.40991.40991,0,0,1-.10156-.126.53867.53867,0,0,1-.05273-.16114,1.24568,1.24568,0,0,1-.01368-.18554,1.82563,1.82563,0,0,1-.60937.44824,1.78919,1.78919,0,0,1-.74121.15332,1.66413,1.66413,0,0,1-.459-.0625,1.11435,1.11435,0,0,1-.38867-.19629.98666.98666,0,0,1-.26562-.32519,1.00082,1.00082,0,0,1-.09864-.459q0-.92284,1.26758-1.0918Zm.707.21a2.05277,2.05277,0,0,1-.53906.14746q-.27393.03515-.5459.05566a1.54366,1.54366,0,0,0-.75293.2168.62308.62308,0,0,0-.26953.55371.603.603,0,0,0,.0664.29.60956.60956,0,0,0,.17578.20312.73313.73313,0,0,0,.252.11914,1.12093,1.12093,0,0,0,.29.03809,1.91172,1.91172,0,0,0,.49023-.0625,1.32829,1.32829,0,0,0,.42285-.19238.98253.98253,0,0,0,.29785-.3291.95591.95591,0,0,0,.11231-.47266Z"/><path class="cls-2" d="M73.53223,157.82764h.45507l1.17579,3.1084,1.17578-3.1084H76.794l-1.40625,3.626H74.918Z"/><path class="cls-2" d="M77.67676,159.73877a1.99111,1.99111,0,0,0,.07617.55664,1.3735,1.3735,0,0,0,.22754.45508,1.10772,1.10772,0,0,0,.38183.30762,1.17283,1.17283,0,0,0,.53223.11523,1.15874,1.15874,0,0,0,.707-.2168,1.0465,1.0465,0,0,0,.3916-.61621h.46875a2.21728,2.21728,0,0,1-.20214.47949,1.48873,1.48873,0,0,1-.31543.38575,1.36237,1.36237,0,0,1-.44825.25488,1.81653,1.81653,0,0,1-.60156.09082,1.761,1.761,0,0,1-.749-.14648,1.42915,1.42915,0,0,1-.51856-.40235,1.71276,1.71276,0,0,1-.30078-.60254,2.72191,2.72191,0,0,1-.09765-.74511,2.36891,2.36891,0,0,1,.11523-.749,1.90172,1.90172,0,0,1,.3291-.6123,1.52764,1.52764,0,0,1,.52149-.41309,1.56962,1.56962,0,0,1,.70019-.15039,1.44637,1.44637,0,0,1,1.17578.51367,2.265,2.265,0,0,1,.41992,1.49512Zm2.36523-.35059a1.66874,1.66874,0,0,0-.07324-.5,1.167,1.167,0,0,0-.2168-.40625,1.03019,1.03019,0,0,0-.36035-.27246,1.15048,1.15048,0,0,0-.49707-.10156,1.11791,1.11791,0,0,0-.49414.10449,1.14345,1.14345,0,0,0-.36328.28028,1.39307,1.39307,0,0,0-.24219.40625,1.87758,1.87758,0,0,0-.11816.48925Z"/><path class="cls-2" d="M81.75,161.45361h-.41992v-3.626H81.75v.67871h.01465a1.21215,1.21215,0,0,1,.45117-.60547,1.37458,1.37458,0,0,1,.73145-.1709v.45508a1.226,1.226,0,0,0-.58789.11133.96581.96581,0,0,0-.36719.32226,1.28244,1.28244,0,0,0-.18946.47949,3.07975,3.07975,0,0,0-.05273.57715Z"/><path class="cls-2" d="M85.30664,159.33936c.0791-.00879.17383-.02344.2832-.042a1.051,1.051,0,0,0,.26954-.07715.22162.22162,0,0,0,.12988-.16406,1.08874,1.08874,0,0,0,.02441-.21386.71681.71681,0,0,0-.207-.52833.9618.9618,0,0,0-.69629-.20605,1.94376,1.94376,0,0,0-.39844.03809.87669.87669,0,0,0-.31933.13281.74634.74634,0,0,0-.22363.25195,1.06809,1.06809,0,0,0-.11524.39551h-.42676a1.29142,1.29142,0,0,1,.14649-.54883,1.10947,1.10947,0,0,1,.32519-.37109,1.35,1.35,0,0,1,.46192-.21,2.24025,2.24025,0,0,1,.55664-.06641,2.12469,2.12469,0,0,1,.51465.05957,1.18782,1.18782,0,0,1,.41992.18848.88021.88021,0,0,1,.28027.34668,1.25587,1.25587,0,0,1,.10156.53222v1.97364c0,.16308.0293.26757.08692.31152.05859.04395.17676.03418.35351-.03125v.3291c-.03222.00879-.08007.02344-.14257.042a.65685.65685,0,0,1-.18555.02735.85991.85991,0,0,1-.18945-.02051.32443.32443,0,0,1-.168-.06641.4098.4098,0,0,1-.10157-.126.539.539,0,0,1-.05273-.16114,1.24571,1.24571,0,0,1-.01367-.18554,1.82567,1.82567,0,0,1-.60938.44824,1.78912,1.78912,0,0,1-.74121.15332,1.66405,1.66405,0,0,1-.459-.0625,1.11417,1.11417,0,0,1-.38867-.19629.98669.98669,0,0,1-.26563-.32519,1.00082,1.00082,0,0,1-.09863-.459q0-.92284,1.26758-1.0918Zm.707.21a2.05266,2.05266,0,0,1-.53906.14746q-.27393.03515-.5459.05566a1.54372,1.54372,0,0,0-.75293.2168.62308.62308,0,0,0-.26953.55371.60289.60289,0,0,0,.06641.29.60956.60956,0,0,0,.17578.20312.73308.73308,0,0,0,.252.11914,1.121,1.121,0,0,0,.29.03809,1.91166,1.91166,0,0,0,.49023-.0625,1.32825,1.32825,0,0,0,.42286-.19238.98253.98253,0,0,0,.29785-.3291.9559.9559,0,0,0,.1123-.47266Z"/><path class="cls-2" d="M90.333,157.82764h.41992V161.104a3.17,3.17,0,0,1-.07422.69629,1.49464,1.49464,0,0,1-.26172.584,1.318,1.318,0,0,1-.51855.40332,2.41887,2.41887,0,0,1-1.53321.04883,1.49875,1.49875,0,0,1-.46875-.25586,1.09352,1.09352,0,0,1-.27636-.33985.84565.84565,0,0,1-.10157-.3457h.44825a.83037.83037,0,0,0,.15332.332.77665.77665,0,0,0,.249.20313,1.06763,1.06763,0,0,0,.31836.10156,2.31423,2.31423,0,0,0,.36426.02832,1.38914,1.38914,0,0,0,.68554-.14746,1.00567,1.00567,0,0,0,.39258-.38477,1.49356,1.49356,0,0,0,.1709-.53906,4.27725,4.27725,0,0,0,.03223-.61621,1.307,1.307,0,0,1-.55664.50781,1.67684,1.67684,0,0,1-.73926.1709,1.53348,1.53348,0,0,1-.7168-.15723,1.46659,1.46659,0,0,1-.5039-.41992,1.78951,1.78951,0,0,1-.29786-.6123,2.68775,2.68775,0,0,1-.09765-.72852,2.97577,2.97577,0,0,1,.09082-.749,1.646,1.646,0,0,1,.29-.60547,1.41574,1.41574,0,0,1,.50781-.40235,1.73351,1.73351,0,0,1,.749-.14648,1.35676,1.35676,0,0,1,.35743.04883,1.69536,1.69536,0,0,1,.35351.13965,1.35311,1.35311,0,0,1,.31445.23144,1.22293,1.22293,0,0,1,.23438.31446H90.333Zm0,1.82715a2.22637,2.22637,0,0,0-.08106-.61231,1.49328,1.49328,0,0,0-.23437-.49023,1.10567,1.10567,0,0,0-.38477-.3252,1.12234,1.12234,0,0,0-.52539-.11914,1.25662,1.25662,0,0,0-.49023.09375,1.12107,1.12107,0,0,0-.3916.27734,1.29226,1.29226,0,0,0-.2627.44434,1.79524,1.79524,0,0,0-.09473.60547,2.3818,2.3818,0,0,0,.05664.64062,1.51726,1.51726,0,0,0,.22364.52149,1.11876,1.11876,0,0,0,.39258.35351,1.16934,1.16934,0,0,0,.5664.12891,1.063,1.063,0,0,0,.51465-.12207,1.188,1.188,0,0,0,.38477-.3291,1.51837,1.51837,0,0,0,.24218-.4834A2.0053,2.0053,0,0,0,90.333,159.65479Z"/><path class="cls-2" d="M92.06836,159.73877a1.95584,1.95584,0,0,0,.07715.55664,1.33724,1.33724,0,0,0,.22754.45508,1.10772,1.10772,0,0,0,.38183.30762,1.16861,1.16861,0,0,0,.53125.11523,1.15671,1.15671,0,0,0,.707-.2168,1.04324,1.04324,0,0,0,.39258-.61621h.46875a2.2692,2.2692,0,0,1-.20312.47949,1.46912,1.46912,0,0,1-.31543.38575,1.36761,1.36761,0,0,1-.44727.25488,1.82258,1.82258,0,0,1-.60254.09082,1.76406,1.76406,0,0,1-.749-.14648,1.41746,1.41746,0,0,1-.51758-.40235,1.69643,1.69643,0,0,1-.30078-.60254,2.72152,2.72152,0,0,1-.09863-.74511,2.36908,2.36908,0,0,1,.11621-.749,1.89976,1.89976,0,0,1,.32812-.6123,1.52764,1.52764,0,0,1,.52149-.41309,1.57556,1.57556,0,0,1,.70019-.15039,1.447,1.447,0,0,1,1.17676.51367,2.27052,2.27052,0,0,1,.41992,1.49512Zm2.36621-.35059a1.66874,1.66874,0,0,0-.07324-.5,1.18523,1.18523,0,0,0-.21778-.40625,1.03019,1.03019,0,0,0-.36035-.27246,1.15045,1.15045,0,0,0-.49707-.10156,1.11356,1.11356,0,0,0-.49316.10449,1.1474,1.1474,0,0,0-.36426.28028,1.39069,1.39069,0,0,0-.24121.40625,1.87826,1.87826,0,0,0-.11914.48925Z"/><line class="cls-4" x1="30.40637" y1="159.29184" x2="31.90637" y2="159.29184"/><line class="cls-5" x1="33.80042" y1="159.29184" x2="40.42969" y2="159.29184"/><line class="cls-4" x1="41.37671" y1="159.29184" x2="42.87671" y2="159.29184"/><line class="cls-4" x1="44.37219" y1="79.81448" x2="42.87219" y2="79.81448"/><line class="cls-6" x1="40.552" y1="79.81448" x2="32.43127" y2="79.81448"/><line class="cls-4" x1="31.27112" y1="79.81448" x2="29.77112" y2="79.81448"/><line class="cls-4" x1="58.97314" y1="79.81448" x2="57.47314" y2="79.81448"/><line class="cls-6" x1="55.15295" y1="79.81448" x2="47.03223" y2="79.81448"/><line class="cls-4" x1="45.87219" y1="79.81448" x2="44.37219" y2="79.81448"/><line class="cls-4" x1="73.5741" y1="79.81448" x2="72.0741" y2="79.81448"/><line class="cls-6" x1="69.75391" y1="79.81448" x2="61.6333" y2="79.81448"/><line class="cls-4" x1="60.47314" y1="79.81448" x2="58.97314" y2="79.81448"/><line class="cls-4" x1="88.17517" y1="79.81448" x2="86.67517" y2="79.81448"/><line class="cls-6" x1="84.35498" y1="79.81448" x2="76.23425" y2="79.81448"/><line class="cls-4" x1="75.0741" y1="79.81448" x2="73.5741" y2="79.81448"/><line class="cls-4" x1="102.77612" y1="79.81448" x2="101.27612" y2="79.81448"/><line class="cls-6" x1="98.95593" y1="79.81448" x2="90.83521" y2="79.81448"/><line class="cls-4" x1="89.67517" y1="79.81448" x2="88.17517" y2="79.81448"/><line class="cls-4" x1="117.3772" y1="79.81448" x2="115.8772" y2="79.81448"/><line class="cls-6" x1="113.55688" y1="79.81448" x2="105.43628" y2="79.81448"/><line class="cls-4" x1="104.27612" y1="79.81448" x2="102.77612" y2="79.81448"/><line class="cls-4" x1="131.97815" y1="79.81448" x2="130.47815" y2="79.81448"/><line class="cls-6" x1="128.15796" y1="79.81448" x2="120.03723" y2="79.81448"/><line class="cls-4" x1="118.8772" y1="79.81448" x2="117.3772" y2="79.81448"/><line class="cls-4" x1="146.5791" y1="79.81448" x2="145.0791" y2="79.81448"/><line class="cls-6" x1="142.75891" y1="79.81448" x2="134.63818" y2="79.81448"/><line class="cls-4" x1="133.47815" y1="79.81448" x2="131.97815" y2="79.81448"/><line class="cls-4" x1="161.18018" y1="79.81448" x2="159.68018" y2="79.81448"/><line class="cls-6" x1="157.35999" y1="79.81448" x2="149.23926" y2="79.81448"/><line class="cls-4" x1="148.0791" y1="79.81448" x2="146.5791" y2="79.81448"/><line class="cls-4" x1="175.78113" y1="79.81448" x2="174.28113" y2="79.81448"/><line class="cls-6" x1="171.96094" y1="79.81448" x2="163.84021" y2="79.81448"/><line class="cls-4" x1="162.68018" y1="79.81448" x2="161.18018" y2="79.81448"/><line class="cls-4" x1="190.38208" y1="79.81448" x2="188.88208" y2="79.81448"/><line class="cls-6" x1="186.56189" y1="79.81448" x2="178.44128" y2="79.81448"/><line class="cls-4" x1="177.28113" y1="79.81448" x2="175.78113" y2="79.81448"/><line class="cls-4" x1="204.98315" y1="79.81448" x2="203.48315" y2="79.81448"/><line class="cls-6" x1="201.16296" y1="79.81448" x2="193.04224" y2="79.81448"/><line class="cls-4" x1="191.88208" y1="79.81448" x2="190.38208" y2="79.81448"/><line class="cls-4" x1="219.58411" y1="79.81448" x2="218.08411" y2="79.81448"/><line class="cls-6" x1="215.76392" y1="79.81448" x2="207.64319" y2="79.81448"/><line class="cls-4" x1="206.48315" y1="79.81448" x2="204.98315" y2="79.81448"/></svg>