<svg fill="none" height="720" viewBox="0 0 962 720" width="962" xmlns="http://www.w3.org/2000/svg"><path d="m851.866 391.012 16.992-.654 50.32-1.307 20.258 5.882-2.614 22.219-7.842 10.456-9.149 10.456-28.101 13.724-12.416 3.267h-5.228-1.961l-1.307-28.754-16.991.654z" fill="#3c3b6e" stroke="#fbfbfc"/><path d="m849.249 338.078 110.442-6.535 1.307 20.912-11.763 30.061-10.456 11.763-20.259-5.882-50.32 1.308-16.991.653-1.96-35.289z" fill="#3c3b6e" stroke="#fbfbfc"/><path d="m2.95898 61.6445h20.91232 58.1617 28.101v49.0125l-105.21458-.653-.65334-9.802 9.14882-.654-.6533-15.0308-9.80262-11.1094z" fill="#3c3b6e" stroke="#fbfbfc"/><path d="m5.57617 110.004 104.56083.653.654 70.579h-97.3727l10.4564-35.289 2.6137-5.882.6538-1.307-5.8817-20.258-1.3071-.654h-10.45595z" fill="#3c3b6e" stroke="#fbfbfc"/><path d="m110.789 181.236v70.579h-91.4909l-5.228-14.377-3.9213-5.882-5.22792-4.574-3.92088-2.614 5.88131-26.794 5.88169-15.684z" fill="#3c3b6e" stroke="#fbfbfc"/><path d="m180.06 180.583.653 70.578h-52.28-17.645v-70.578z" fill="#3c3b6e" stroke="#fbfbfc"/><path d="m110.137 110.657h69.272l.653 69.926h-69.272z" fill="#3c3b6e" stroke="#fbfbfc"/><path d="m169.606 61.6445h9.803v49.6665h-69.272v-49.0129z" fill="#3c3b6e" stroke="#fbfbfc"/><path d="m179.406 61.6445 68.618-.6533.654 49.6658-69.272.654z" fill="#3c3b6e" stroke="#fbfbfc"/><path d="m180.063 111.311 69.272-.654.654 69.926-69.926.653z" fill="#3c3b6e" stroke="#fbfbfc"/><path d="m249.989 179.929.653 70.579-69.925.653-.654-70.578z" fill="#3c3b6e" stroke="#fbfbfc"/><path d="m249.983 179.929 69.272-.653.654 52.934v17.644l-69.926.654z" fill="#3c3b6e" stroke="#fbfbfc"/><path d="m317.95 109.351 1.307 69.925-69.272.653-.653-69.925z" fill="#3c3b6e" stroke="#fbfbfc"/><path d="m317.3 59.6841.654 49.6669-68.619.653-.653-49.6663h9.149z" fill="#3c3b6e" stroke="#fbfbfc"/><path d="m385.918 59.0305 1.307 49.6665 1.307 70.579-69.272 1.307-1.306-69.926-.654-49.6658 28.754-.6536z" fill="#3c3b6e" stroke="#fbfbfc"/><path d="m319.259 179.276 69.272-1.307 1.307 52.934-69.272 1.307z" fill="#3c3b6e" stroke="#fbfbfc"/><path d="m110.788 251.815h17.644v14.377l5.882 2.614h4.574v52.934l-101.9464-.654 1.9605-12.416-4.5747-8.496-1.9604-22.872 1.3071-2.614v-3.268l-.6538-2.614-1.3071-1.96-1.9604-.654h-5.228l-5.2279-14.377z" fill="#3c3b6e" stroke="#fbfbfc"/><path d="m180.714 251.161v17.645h9.803v53.588h-51.627v-53.588h-4.575l-5.881-2.614v-14.377z" fill="#3c3b6e" stroke="#fbfbfc"/><path d="m180.714 251.161h69.925v17.645h8.496l.653 53.588h-34.636-34.636v-53.588h-9.802z" fill="#3c3b6e" stroke="#fbfbfc"/><path d="m250.637 251.161 69.925-.653v16.991h6.535l.654 53.587-34.636.654-33.982.654-.654-53.588h-8.496z" fill="#3c3b6e" stroke="#fbfbfc"/><path d="m389.186 231.556.653 34.636h5.882l1.307 52.934-34.636.653-34.636.654-.654-53.587h-6.535v-16.992-17.644z" fill="#3c3b6e" stroke="#fbfbfc"/><path d="m328.405 321.086 34.636-.653 1.307 69.925-17.645.654-52.28.653-.653-69.925z" fill="#3c3b6e" stroke="#fbfbfc"/><path d="m259.787 321.74 33.982-.654.654 69.926h-16.991l-51.627.653-.654-70.579z" fill="#3c3b6e" stroke="#fbfbfc"/><path d="m225.154 321.74.654 70.579-69.272.653h-16.991v-70.578h51.627z" fill="#3c3b6e" stroke="#fbfbfc"/><path d="m138.889 322.394v70.578l-69.9251-.653-19.6051-36.597-12.4164-33.982z" fill="#3c3b6e" stroke="#fbfbfc"/><path d="m156.534 392.972v52.934h9.149v19.605h-72.5388l-20.9123-35.289-2.6137-37.25 69.9248.654z" fill="#3c3b6e" stroke="#fbfbfc"/><path d="m156.533 392.972 69.272-.653.653 52.934h7.842v19.605h-16.991-51.627v-19.605h-9.149z" fill="#3c3b6e" stroke="#fbfbfc"/><path d="m225.809 392.319 51.627-.654.653 43.785 6.535 9.149v19.605l-50.973.654v-19.605h-7.842z" fill="#3c3b6e" stroke="#fbfbfc"/><path d="m295.08 391.665 52.281-.653.653 52.934h5.882v19.605l-68.618.653v-19.605l-6.535-8.495-.654-43.785z" fill="#3c3b6e" stroke="#fbfbfc"/><path d="m353.896 463.551 1.307 69.925-34.636.653-34.636.654-1.307-69.925z" fill="#3c3b6e" stroke="#fbfbfc"/><path d="m285.272 464.204 1.307 69.925-33.982.654h-34.636l-.653-69.925h16.991z" fill="#3c3b6e" stroke="#fbfbfc"/><path d="m165.682 464.858h51.627l.654 69.925h-33.982-70.579l-10.456-6.535-1.961-41.171-6.5348-22.873h71.2318" fill="#3c3b6e"/><g stroke="#fbfbfc"><path d="m165.682 464.858h51.627l.654 69.925h-33.982-70.579l-10.456-6.535-1.961-41.171-6.5348-22.873h71.2318"/><path d="m117.324 587.717h66.004v27.447l1.96 22.873v15.03l-59.469-.653-13.723-40.517z" fill="#3c3b6e"/><path d="m183.327 535.436v52.281h-66.004l-6.535-29.408 1.961-22.873z" fill="#3c3b6e"/><path d="m217.313 534.783h34.636l.654 52.28-69.272.654v-52.281z" fill="#3c3b6e"/><path d="m251.949 587.063.654 35.29h2.614v30.714h-43.785-26.141v-15.03l-1.96-22.873v-27.447z" fill="#3c3b6e"/><path d="m321.874 586.41.654 66.657h-24.18-43.131v-30.714h-2.614l-.654-35.29z" fill="#3c3b6e"/><path d="m320.562 534.129.654 52.281-69.272.653-.653-52.28 33.982-.654z" fill="#3c3b6e"/><path d="m355.2 533.476 33.982-.654 1.307 52.281-68.618.653-.653-52.28z" fill="#3c3b6e"/><path d="m321.869 586.41 68.618-.654 1.307 65.351-32.675 1.307-35.943.653z" fill="#3c3b6e"/><path d="m390.487 585.756 69.272-1.96 1.307 64.697-32.675 1.307-36.597 1.307z" fill="#3c3b6e"/><path d="m458.457 530.208 1.307 53.588-69.271 1.96-1.307-52.28 33.982-1.961z" fill="#3c3b6e"/><path d="m421.855 460.283 1.96 71.232-33.982 1.961-33.982.653-1.307-69.925z" fill="#3c3b6e"/><path d="m415.977 389.051 1.306 44.439 3.921 8.495.654 17.645-67.311 3.267-.654-19.605h-5.881l-.654-52.934 17.645-.653z" fill="#3c3b6e"/><path d="m431.663 318.473 1.96 69.925-17.644.653-51.627 1.307-1.307-69.925 34.636-.654z" fill="#3c3b6e"/><path d="m459.764 247.24 7.189 70.579-35.29.653-34.635.654-1.307-52.934h-5.882l-.653-17.645z" fill="#3c3b6e"/><path d="m388.527 178.622 69.272-1.96 1.96 71.232-69.925 1.307-.653-17.645z" fill="#3c3b6e"/><path d="m456.495 106.083 1.961 69.925-69.272 1.961-1.307-70.579z" fill="#3c3b6e"/><path d="m455.19 57.0701 1.307 49.0129-69.272 1.961-1.307-49.667 47.052-1.3069z" fill="#3c3b6e"/><path d="m523.808 55.1095 1.307 49.0125-69.272 1.961-1.307-49.0129 65.351-1.9606z" fill="#3c3b6e"/><path d="m456.495 106.083 69.272-1.961v8.496l1.96 61.43-69.271 1.96z" fill="#3c3b6e"/><path d="m457.803 176.662 69.272-1.961 1.96 71.232-69.925 1.961z" fill="#3c3b6e"/><path d="m529.685 245.933 5.881 69.925-33.982 1.307-33.983.654-7.188-70.579z" fill="#3c3b6e"/><path d="m500.935 317.165 1.96 69.926-16.991.653-52.28 1.307-1.961-69.925 34.636-.654z" fill="#3c3b6e"/><path d="m485.901 387.091 5.229 71.885v3.268l-69.272-2.614-.653-17.645-3.922-8.495-1.306-44.439 17.644-.653z" fill="#3c3b6e"/><path d="m491.132 462.244 1.961 67.311-34.636.653-34.636.654-1.961-70.579z" fill="#3c3b6e"/><path d="m493.088 529.555 34.636-.654 1.96 52.934-69.271 1.961-1.308-52.934z" fill="#3c3b6e"/><path d="m529.031 581.835 1.961 64.044-41.825 1.96-27.447.654-1.307-64.697z" fill="#3c3b6e"/><path d="m598.303 579.221 2.614 62.737-11.763.653-58.162 3.268-1.961-64.044z" fill="#3c3b6e"/><path d="m596.344 526.287 1.96 52.934-69.271 2.614-1.961-52.934 34.636-1.307z" fill="#3c3b6e"/><path d="m559.097 457.016 2.614 70.578-34.636 1.307-34.636.654-1.96-67.311v-3.268z" fill="#3c3b6e"/><path d="m503.545 387.091 69.272-1.961 3.92 71.232-16.991.654-68.618 1.96-4.574-71.885z" fill="#3c3b6e"/><path d="m535.565 315.859 34.636-1.308 2.614 70.579-69.272 1.961-1.96-69.926z" fill="#3c3b6e"/><path d="m599.614 243.319 4.574 52.281-34.635 1.307.653 17.644-34.636 1.308-5.882-69.926z" fill="#3c3b6e"/><path d="m527.724 174.701 69.271-1.96 1.961 53.587.653 17.645-69.925 1.96z" fill="#3c3b6e"/><path d="m525.764 113.272 68.618-2.615 1.96 62.084-69.271 1.96z" fill="#3c3b6e"/><path d="m592.423 52.4955 1.96 58.1615-68.618 2.615-1.96-58.1625z" fill="#3c3b6e"/><path d="m607.453 51.842 53.588-1.9605 2.614 58.1625-69.272 2.614-1.96-58.1625z" fill="#3c3b6e"/><path d="m663.657 108.044 1.307 26.14 1.307 35.289-69.271 2.614-1.961-62.083z" fill="#3c3b6e"/><path d="m596.342 172.741 69.271-2.614 1.961 53.587-69.925 2.614z" fill="#3c3b6e"/><path d="m668.229 223.061 1.308 35.289 2.613 4.575 1.307 30.061-34.635 1.307-34.636 1.307-4.575-52.281-.653-17.644z" fill="#3c3b6e"/><path d="m638.825 294.293 3.267 88.223-69.925 2.614-3.268-87.57z" fill="#3c3b6e"/><path d="m572.817 385.13 69.925-2.614 2.614 71.232-16.991.654-51.627 1.96z" fill="#3c3b6e"/><path d="m576.739 456.362 51.627-1.96 3.268 70.578-34.636 1.307-34.636 1.307-2.614-70.578z" fill="#3c3b6e"/><path d="m630.978 524.98 34.635-1.307 1.961 52.934-69.272 2.614-1.96-52.934z" fill="#3c3b6e"/><path d="m668.232 576.607 2.614 60.776-26.14 1.307-43.785 3.268-2.614-62.083z" fill="#3c3b6e"/><path d="m668.227 576.607 69.925-3.267.653 17.644 2.614 43.132h-34.635l-35.943 2.614z" fill="#3c3b6e"/><path d="m735.542 520.406 1.961 52.934-69.925 3.267-1.961-52.934 35.29-1.96z" fill="#3c3b6e"/><path d="m708.095 291.025 3.921 88.223-69.272 2.614-3.267-88.223 34.636-1.307z" fill="#3c3b6e"/><path d="m642.744 382.516 69.272-2.614 3.268 70.579-17.645.653-52.934 2.614z" fill="#3c3b6e"/><path d="m645.356 453.748 52.934-2.614 3.268 70.579-35.289 1.96-34.636 1.307-3.268-70.578z" fill="#3c3b6e"/><path d="m715.28 450.481 46.398-1.961 2.614 3.268 3.921 13.723 1.961 52.934-34.636 1.307-34.636 1.307-3.267-70.578z" fill="#3c3b6e"/><path d="m770.176 518.445 17.645-.653.654 17.644.653 52.934-50.32 1.961-.653-17.645-1.961-52.934z" fill="#3c3b6e"/><path d="m738.153 590.984 50.32-1.96 42.478 21.566-10.456 12.416h-5.228-3.921-1.307l-7.842 2.614-.654.654-3.921 1.96-1.307.654-.653.653-.654.654-.653.653-6.535 9.803v1.307l.653 1.96 3.268 1.307 2.614 3.922.653 2.614v1.96l-.653 18.298-.654 1.961-1.307 1.307-4.574 1.307-9.803-.654-6.535-5.228-15.684-18.951-.654-1.308.654-3.921v-1.307l-11.763-9.149-3.268-1.96z" fill="#3c3b6e"/><path d="m851.868 532.822.653 1.961.654 5.228-.654 16.338-1.307 5.881-.653 1.307-4.575 2.614-1.307 1.307-11.763 16.991-.653 2.614-1.307 22.873-42.478-21.566-.654-52.934z" fill="#3c3b6e"/><path d="m768.219 465.511 16.991-.653.653 17.645 43.785-1.961-4.574 16.991v1.961l10.456 12.416 4.574 2.614h1.961l1.307.654 1.307 1.307 7.188 11.763v5.228l-63.389 2.614-.654-17.645-17.645.654z" fill="#3c3b6e"/><path d="m853.824 426.301 16.991-.654 1.307 28.755h-9.15l-20.912 5.881-5.881 1.961-1.307 1.307-1.307 1.307v.653l-1.961 8.496-1.96 7.188-43.785 1.308-.653-17.645-1.308-35.289z" fill="#3c3b6e"/><path d="m781.285 376.634 2.614 52.935 1.307 35.289-16.991.653-3.921-13.723-2.614-3.268-46.399 1.961-3.267-70.579z" fill="#3c3b6e"/><path d="m777.367 288.411 3.267 70.579.653 17.644-69.271 2.614-3.921-88.223 34.636-.653z" fill="#3c3b6e"/><path d="m849.906 355.722 1.96 35.29 1.307 35.289-69.925 3.268-3.268-70.579z" fill="#3c3b6e"/><path d="m812.002 287.104 33.983-1.96 2.614 52.934.653 17.644-69.272 3.268-3.267-70.579z" fill="#3c3b6e"/><path d="m738.152 219.793.653 15.684.654 20.259 2.614 19.605.653 15.684-34.636.654-34.635 1.96-1.308-30.061-2.613-4.575-1.307-35.289z" fill="#3c3b6e"/><path d="m664.959 134.184 69.925-2.614 3.921 88.223-69.925 3.268-1.961-53.588z" fill="#3c3b6e"/><path d="m729.662 46.614 1.306 32.0218h1.307l1.961 52.2802-69.925 2.614-1.307-26.14-2.614-58.162 50.973-1.9604z" fill="#3c3b6e"/><path d="m787.166 44 2.613 15.6841v10.4561l15.685 11.1095 3.267 4.5746 4.575 7.1886-.654 2.614-11.109 18.9521-3.921 15.03-62.737 2.614-1.96-52.9337h-1.307l-1.307-32.0218z" fill="#3c3b6e"/><path d="m796.972 128.956 3.268 18.951 3.267 15.685 13.724 30.061 1.96 3.921 11.764 7.842 3.92 1.96 7.843 1.961-34.636 7.842-69.925 3.921-3.922-88.223z" fill="#3c3b6e"/><path d="m738.153 219.793 69.926-3.921 3.92 70.579-34.635 1.307-34.636 1.96-.654-15.684-2.614-19.605-.653-20.259z" fill="#3c3b6e"/><path d="m808.08 215.872 34.636-7.842 18.951 3.921 7.189 1.961 1.96.653 1.308 1.307 9.148 16.991 1.308 5.228v1.307l-.654.654-1.96 3.267v.654 1.307 1.307l1.306 1.307 3.268 2.614 9.803 5.228 12.416 9.149h.654l-28.101 1.307.654 17.645-34.636 1.96-33.982 1.961z" fill="#3c3b6e"/><path d="m908.069 264.231 8.496 10.457.653.653v.654l-.653 5.881-.653 1.961v1.307l1.96 4.574 3.921 5.228 2.614 1.961 2.614 1.96 6.535 1.961 26.14 31.368-110.442 6.535-2.614-52.934 34.635-1.96-.653-17.645z" fill="#3c3b6e"/></g></svg>