<svg fill="none" height="722" viewBox="0 0 960 722" width="960" xmlns="http://www.w3.org/2000/svg"><g fill="#3c3b6e"><path d="m792.594 205.327.431 1.079.432.863.431.432 2.158 1.51.863.431 3.021 1.727 5.394-2.805.216-.216h.863l3.02-.432 5.394 1.079 1.079.432 1.295 1.079.431 18.771-.431-1.079-1.079-.647-4.963-.863-1.294.215-1.726.648-.863 1.51.215 1.295.216.647-.216.216-8.414-.216-1.726-2.158-4.316.432-2.373 1.294-3.884.432-1.942-.432-.431-.431-.216-.647-5.394-3.884-.216-25.029z" stroke="#fbfbfc"/><path d="m755.483 185.477 6.473 5.394 9.493 7.552 6.904 2.805.216 25.028-3.452-2.373-17.477-1.51-6.257 1.51-3.884-.863v-.216l-.431-32.796h.863.432l1.51-.863.216-.216.215-.647v-.647-.648l-.215-.431v-.216l1.078-1.726h.216.432z" stroke="#fbfbfc"/><path d="m403.79 184.182 28.697 1.295-1.511 29.128-28.48-1.51z" stroke="#fbfbfc"/><path d="m375.309 182.888 28.697 1.294-1.295 29.128-28.696-1.294z" stroke="#fbfbfc"/><path d="m346.182 180.946 29.128 1.942-1.295 29.128-28.48-1.942z" stroke="#fbfbfc"/><path d="m322.447 179.22 23.734 1.726-.863 29.128-25.46-1.726 1.079-12.083z" stroke="#fbfbfc"/><path d="m410.695 152.465 23.518 1.295-1.726 31.933-28.696-1.295 1.726-32.148z" stroke="#fbfbfc"/><path d="m377.035 150.308 4.963.216 23.518 1.51-1.726 32.149-28.697-1.295z" stroke="#fbfbfc"/><path d="m348.555 148.366 4.963.431 23.733 1.511-1.726 32.58-29.128-1.942z" stroke="#fbfbfc"/><path d="m348.555 148.366-2.374 32.58-23.734-1.726 2.589-31.933v-.647z" stroke="#fbfbfc"/><path d="m412.421 123.337 20.713 1.079 7.983.432-1.51 29.128-5.179-.216-23.518-1.295z" stroke="#fbfbfc"/><path d="m383.94 121.611 20.066 1.295 8.63.431-1.726 29.128-5.178-.215-23.518-1.511z" stroke="#fbfbfc"/><path d="m374.662 120.964 9.278.432-1.727 29.128-4.962-.216-23.734-1.511 1.942-28.912z" stroke="#fbfbfc"/><path d="m327.41 117.728 28.049 2.157-1.942 28.912-4.963-.431-23.302-1.726z" stroke="#fbfbfc"/><path d="m405.948 93.7779 28.912 1.7262-1.726 28.9119-20.713-1.079-8.63-.431z" stroke="#fbfbfc"/><path d="m376.604 92.0518 29.344 1.7261-2.158 29.1281-20.066-1.295-9.278-.431z" stroke="#fbfbfc"/><path d="m327.41 117.728 1.078-13.809 1.079-15.3193 11.004.8629 11.436.6474 24.597 1.9418-1.942 29.1282-19.203-1.295z" stroke="#fbfbfc"/><path d="m407.674 64.65v-.2158l28.697 1.5104v.4315l-1.511 29.128-28.912-1.7262z" stroke="#fbfbfc"/><path d="m378.762 62.7081 28.912 1.7261-1.726 29.128-29.344-1.7261z" stroke="#fbfbfc"/><path d="m378.761 62.2766v.4316l-2.157 29.1279-24.597-1.9419-11.436-.6473-11.004-.8631 2.158-29.3436z" stroke="#fbfbfc"/><path d="m409.4 35.522 28.696 1.7261-1.51 28.6965-28.696-1.5104z" stroke="#fbfbfc"/><path d="m380.704 33.7959 28.696 1.7261-1.726 28.9122v.2158l-28.912-1.7261v-.4315z" stroke="#fbfbfc"/><path d="m333.882 30.5594 46.821 3.2365-1.942 28.4807-47.036-3.0207.647-7.7674z" stroke="#fbfbfc"/><path d="m439.606 7.47291-1.51 29.55949v.2157l-28.697-1.726 1.727-29.77533z" stroke="#fbfbfc"/><path d="m389.549 4.45224 21.577 1.29453-1.726 29.77533-28.697-1.7262 1.942-29.77521z" stroke="#fbfbfc"/><path d="m382.645 4.02066-1.942 29.77524-46.821-3.2365 1.295-17.4767.863-10.78811 2.158-1.29459z" stroke="#fbfbfc"/><path d="m208.741 291.632-.863 9.278-1.51 18.124-3.884 43.8-.647 3.884-.432 1.942-1.079 11.435-2.157 1.51-.432.216-1.295-4.315-3.667-1.295-2.59-3.668-6.257-4.962-2.373.431-6.689-4.531 1.079-1.726-9.709-8.199-.863-5.178-3.021-3.237-3.452-1.941-.432-1.726-2.805-1.079-1.078-2.589-3.884-5.61-2.374-1.726-1.726-3.453-2.805-1.078 2.59-2.158.215-4.315-1.726-.432 3.237-33.875z" stroke="#fbfbfc"/><path d="m148.327 285.591-3.236 33.875 1.726.431-.216 4.316-2.589 2.157-1.511-.863-3.236-.647-1.942-1.726-1.295-.216-2.373-2.158-.647-.647-.216-.216-.431-.647-1.511-4.747-1.942-1.51-.215-2.158-1.079-2.805-1.295-4.315-1.942-1.079.432-1.294-1.511-1.295-4.962-.431-1.079-2.374-4.315-4.747-.432-.647-1.294-1.295v-.862l-.216-1.295 1.295-.863.647-3.452-.863-.432v-.863l.863-.431 2.373.215 12.299 1.295z" stroke="#fbfbfc"/><path d="m402.495 213.31-1.726 28.913-7.336-.432-21.36-1.294 1.942-28.697z" stroke="#fbfbfc"/><path d="m345.318 210.074 28.481 1.942-1.942 28.696-7.336-.431-21.36-1.511z" stroke="#fbfbfc"/><path d="m345.319 210.074-1.942 28.481-26.107-1.942 2.589-28.481z" stroke="#fbfbfc"/><path d="m372.072 240.497 21.361 1.294-1.726 29.128-28.697-1.726 1.511-28.912z" stroke="#fbfbfc"/><path d="m317.27 236.829 26.107 1.941 21.36 1.511-1.51 28.912h-.432l-47.467-3.236z" stroke="#fbfbfc"/><path d="m362.58 268.977h.431l28.697 1.726-2.158 29.128-4.531-.215-24.381-1.511z" stroke="#fbfbfc"/><path d="m315.112 265.741 47.468 3.236-1.942 28.912-4.316-.215-28.696-1.942-14.888-1.079z" stroke="#fbfbfc"/><path d="m356.537 297.889 4.316.216 24.381 1.511-1.726 28.912-28.912-1.726z" stroke="#fbfbfc"/><path d="m356.538 297.889-1.942 28.913h-1.726l-25.244-1.726h-1.726l2.158-28.913z" stroke="#fbfbfc"/><path d="m327.625 324.86 25.244 1.726-1.51 37.543-4.962-.432-1.727-6.904-.431-1.295-.216-.216-.647-.647-2.805-2.373-.647-.648-6.905-4.099h-.647l-6.041.863z" stroke="#fbfbfc"/><path d="m262.681 402.534-.432 7.336-1.726 20.066-2.373 33.228-1.295 15.535-9.709-3.237-10.357-8.63-1.294-5.394-3.021-2.59-5.178-1.726-3.237-3.236-5.609-5.179-1.079-5.825-6.473-12.73-.647-8.199 1.51-3.452-.432-8.631-2.589-4.099-3.236-6.042-1.726-1.941-.648-6.473-2.157-7.552-3.021-1.942.432-.216 58.687 20.282z" stroke="#fbfbfc"/><path d="m212.624 292.064 46.173 4.099-9.493 58.904-48.762 25.028 1.078-11.435.432-1.942.647-3.884 3.884-43.8 1.51-18.124.863-9.278z" stroke="#fbfbfc"/><path d="m325.684 324.644h1.726l-1.726 23.734-4.1.216-2.373-2.374-1.511-1.51-1.726-1.079-3.452-1.51-2.805-1.079-.647 1.294h-2.158l-1.294-.215-2.805-.647-5.179-3.884-10.572-1.295-.647-.863-.647-1.079-.648-3.236.216-3.884.432-2.158-.432-1.51-.863-1.51-4.531-1.079 15.966 1.295z" stroke="#fbfbfc"/><path d="m312.954 294.653 14.888 1.295-2.158 28.912-29.775-2.158 1.942-23.086 3.237.215 2.804.216 3.884.216 3.237.216h1.294z" stroke="#fbfbfc"/><path d="m261.171 296.379 14.456 1.079 22.224 1.726-1.942 23.087-15.967-1.295-1.294-2.589.431-1.295-3.236-2.805h-.647l-.864.432v.216l-.215.215h-.432l-1.294-.215-.432-.648-2.373-2.589-1.079-7.336-2.805.432-1.295-1.51z" stroke="#fbfbfc"/><path d="m258.798 296.163 2.373.216 3.237 6.905 1.294 1.51 2.805-.432 1.079 7.336 2.373 2.589.432.648 1.294.215h.432l.216-.215v-.216l1.079-.216h.647l3.236 2.805-.431 1.295 1.294 2.589 4.531.863.863 1.51.432 1.511-.432 2.157-.215 3.884.431 3.236.647 1.079.648.647 10.572 1.295 5.178 3.884 2.805.647 1.295.216h2.157l.648-1.295 2.805 1.079-35.601 37.543-27.402-24.813z" stroke="#fbfbfc"/><path d="m276.921 380.095 7.768 7.336-22.008 15.103-5.826-.431-58.687-20.282 2.158-1.51 48.762-25.029z" stroke="#fbfbfc"/><path d="m284.474 387.431 47.036 44.231 13.593 12.73-3.021 1.942-2.589 4.315-4.962-1.942-10.357 3.453-1.295.863h-.215l-7.768 12.73-4.747 10.788-2.157 7.336-2.589 3.236-3.453.432-2.157 4.315-4.316 2.158-1.078 5.61-2.374.647h-.431l-6.689-1.726-3.236-3.884-2.374 1.295-7.767-9.925-10.573-2.158-.431-.647-2.373-2.374-1.295-2.589 1.295-15.535 2.373-33.227 1.726-20.066.432-7.336z" stroke="#fbfbfc"/><path d="m378.978 418.932-2.158 33.875-1.079-.216-.431-.216-5.61-1.294-3.452-.432-5.61.432-.648.216-3.668-.648-11.219-6.257-13.593-12.73 1.079-15.319 12.73.863 1.51-20.929 11.435.216.432-3.236 21.145 1.51h.863l3.236.647 2.158 1.942.431 4.1-1.942 2.373-1.078 2.805-2.158.216-.863 2.805 3.021 4.746-3.237 1.942z" stroke="#fbfbfc"/><path d="m325.9 348.594 6.041-.863h.648l6.904 3.883.647.648 2.805 2.373.647.647.216.216.432 1.295 1.726 6.904 7.767 3.452 11.22 3.452 3.668 1.079 5.826 4.747 2.373 9.925 2.589 6.473.216 1.726-21.145-1.51-.432 3.236-11.435-.216-1.51 20.714-12.73-.863-1.079 15.319-47.036-44.232-7.768-7.336 35.601-37.542 3.668 1.51 1.726 1.079 1.511 1.51 2.373 2.374z" stroke="#fbfbfc"/><path d="m352.87 326.586h1.726l28.912 1.942-2.373 37.974-29.776-2.373z" stroke="#fbfbfc"/><path d="m383.293 328.528 28.696 1.726-.431 6.257-.216 1.942-1.942 29.775-28.481-1.726z" stroke="#fbfbfc"/><path d="m389.765 299.831 24.165 1.511-1.726 28.912-28.696-1.726 1.726-28.912z" stroke="#fbfbfc"/><path d="m420.404 272.429-2.158 29.128-4.531-.215-24.165-1.511 2.157-29.128z" stroke="#fbfbfc"/><path d="m400.769 242.223 21.361 1.079-1.726 28.912v.215l-28.696-1.726 1.726-29.128z" stroke="#fbfbfc"/><path d="m431.192 214.821-1.511 28.481h-7.551l-21.361-1.079 1.726-28.913z" stroke="#fbfbfc"/><path d="m429.681 243.086 21.145 1.51-1.726 29.128-28.697-1.726 1.726-28.912z" stroke="#fbfbfc"/><path d="m420.404 272.214 28.696 1.726-1.726 29.344-8.846-.432-20.282-1.079 2.158-29.128z" stroke="#fbfbfc"/><path d="m413.931 301.342 4.531.215 20.281 1.079-1.51 25.892-1.942-.648-.647 9.494-22.655-.863.431-6.257z" stroke="#fbfbfc"/><path d="m411.557 338.453 15.535.863 16.829 1.079-1.294 29.128-15.535-.432-17.693-.647z" stroke="#fbfbfc"/><path d="m346.397 363.697 4.963.432 29.775 2.373 28.481 1.726 17.692.647-1.294 25.029-1.511 27.617-45.741-2.589 1.294-2.373 3.237-1.942-3.021-4.747.863-3.02 2.158-.216 1.079-2.805 1.726-2.589-.432-4.1-2.157-1.726-3.237-.647h-.863l-.216-1.726-2.589-6.473-2.373-9.925-5.826-4.747-3.668-1.079-11.219-3.452z" stroke="#fbfbfc"/><path d="m378.977 418.932 45.742 2.589 14.888.648-2.158 44.015-.647 12.083-.647 4.963-.216 1.726-2.374 5.394-.863 1.079h-.215l-1.727-.216-13.593-12.299-.863-3.883-4.531-1.942-1.078-1.942-3.668-1.511.431-5.394-3.452-1.078-.432-1.726-3.883-1.727-2.374-4.746-2.805-1.079.432-1.942-3.668.647-1.295-3.02-4.099 3.883h-1.295l-7.767-.863z" stroke="#fbfbfc"/><path d="m503.687 625.201 5.179-3.452 2.157 3.021 22.44 1.079-.863 31.717-3.884 7.983-9.709 5.826-.863-3.453-1.079-4.315-1.726-6.473-1.511-3.668-3.02-4.315-3.453-2.158 1.295-2.589-2.589-3.236h-2.589l-.216-2.589v-.216l.216-.216 1.079-1.51.431-5.394-.647-4.963z" stroke="#fbfbfc"/><path d="m542.957 620.67h9.925v.863h1.942v-1.078l2.373.215v1.079h1.942l-.216 5.179 1.726 1.941-.431 5.61 2.157.216v5.826l2.59.215-.648 17.909-31.717-1.079.863-31.717 9.278.431z" stroke="#fbfbfc"/><path d="m532.6 657.782 31.717 1.078 6.042.216-4.747 10.141-5.61 10.788-6.473 12.946-2.805.431-4.315-1.942-5.825-5.825-6.905-1.942-7.552-1.294-3.452-2.158.648-4.315-3.453-2.158-.647-1.51-.216-.432v-.431l9.71-5.826z" stroke="#fbfbfc"/><path d="m630.125 672.238h1.942l3.668 12.514h-1.079zm-38.19-1.511 4.747 1.079 26.107.216-.647 6.041-3.453.432 1.942 5.825 4.315 2.374-2.373 2.805-5.178 2.157-20.066-3.452.216-4.962-2.805-.863-5.826-1.079.432-2.805.863-3.021z" stroke="#fbfbfc"/><path d="m570.359 658.86 20.066.648-.431 11.004 1.726.215-1.726 4.963-.863 3.021-.432 2.804 5.826 1.079 2.805.863v4.963l-.432 18.771h-.431l-1.079-.216h-5.394-1.726l-.216.432-1.942.863-7.552-1.51-4.315-.863-1.294-.648-.864-.647-6.472-4.315-3.021-3.668-1.726-.863h-.216l-6.904-2.374 6.472-12.945 5.61-10.789z" stroke="#fbfbfc"/><path d="m559.14 626.928 17.261.647 10.356.431 4.316.216v3.237l-.648 28.265-20.066-.648-6.041-.216.647-17.908-2.589-.216v-5.825l-2.158-.216.432-5.61z" stroke="#fbfbfc"/><path d="m627.536 627.575h1.511l-.216.647-.863 3.884-.432 3.236-.431 3.884-.216 3.452v3.668l.432 5.394.215 2.158v.216l.648 4.099 1.079 4.747 1.726 6.689v.215.216l.647 1.726h-1.942l-3.884-14.456v-8.199-6.904-2.805-4.1l.216-3.236.216-1.726zm-36.463 3.884 1.726-.648.431-1.51h4.963l3.668-1.726 3.668-.432 1.726 1.079 4.747-.863-.216.432v1.078l.216.432.431.216 5.178 1.079h1.295l.647-.216.432-.216.216-.216.863-.431 2.157-.648h1.511l.215.432-1.51 9.278-4.315.863 1.726 6.904h-5.394l1.294 7.12-.431 5.61 4.962 3.021 1.511 8.199.215 2.157-26.107-.215-4.747-1.079-1.726-.216.432-11.004z" stroke="#fbfbfc"/><path d="m627.535 627.575 7.768-19.85 1.51.431-7.767 19.634zm-33.443-24.166 3.668.648 2.158 4.531h.431l29.991.431-3.02 10.573-1.726 4.315-.216.431-.432.648-.431.215-4.963 2.374-7.767-.432-4.747.863-1.726-1.079-3.668.432-3.668 1.726h-4.963l-.431 1.51-1.726.648v-3.237l-4.315-.216.431-24.596z" stroke="#fbfbfc"/><path d="m577.479 575.144 20.713.432 5.394.863-.431 3.236-8.199 7.121v7.12l-.647 9.278-6.905-.216-.431 24.597h-10.573z" stroke="#fbfbfc"/><path d="m647.386 590.895-10.573 17.045-1.51-.431 11.867-17.477zm-53.294 12.514.648-9.277v-7.121l8.199-7.12-.648 1.511.648 2.373 6.688 1.079 1.079 3.02 1.51.648 3.021.647 4.315.432.432-1.727 9.493-.215 4.1.215-1.079.216-3.884 1.726-1.078.863-.864 1.511v1.942l.432 1.078 1.079 1.726 1.294 1.079 1.726.863 3.021 2.374-1.942 4.315-1.726 3.452-29.991-.431h-.431l-2.158-4.747z" stroke="#fbfbfc"/><path d="m602.292 567.809 14.887 3.02 1.511-1.942 5.178.216 3.021 3.021 5.61-.647 2.589 3.668 7.336 11.435-4.1 3.452-4.315-2.158-4.1-.215-9.493.215-.432 1.727-4.315-.432-3.021-.647-1.51-.648-1.079-3.02-6.688-1.079-.648-2.373.648-1.511.431-3.236-5.394-.863-.431-4.1z" stroke="#fbfbfc"/><path d="m660.331 572.987.863-3.021 13.162-9.062.647-.431 3.021-1.295 4.531-.863.647 1.295-5.61 2.804-.863.432-4.315 2.589-4.315 3.021-3.668 3.021-5.394 4.746-.216.216zm14.888-39.701 14.888 2.59v2.157l-3.668 1.726-5.826 2.374-4.747-4.315-.431-1.511zm-18.34 13.378-.863-1.726-1.51-3.668 4.531-3.237 8.846-3.02 3.237-1.727-.863.864 3.02 7.335.216.216 2.589.432 1.726 1.079 6.905 6.041.431.432.432.647v.431l-11.004 5.61-.432.216-4.315 1.079-1.51-.432-.432-.431-3.668-4.1z" stroke="#fbfbfc"/><path d="m641.129 543.427 15.751 3.237 7.12 6.473-1.295 6.041-19.634 2.805v1.295l1.295 1.726 2.373 1.294 1.295.216h1.294l-.431 1.079-7.552 5.61-5.178 2.589h-.216l-1.079-.863-2.589-3.668-5.61.647-3.021-3.021-5.178-.215 9.925-14.672z" stroke="#fbfbfc"/><path d="m605.097 535.444 4.746 8.415 8.199 1.942v3.02l10.357 5.394-9.925 14.672-1.51 1.942-14.888-3.021.647-.431-15.75-31.933 4.962-1.726 5.394-1.726.647.431.432.863 2.158 1.079 1.941.863z" stroke="#fbfbfc"/><path d="m586.541 527.245 5.394 6.473-4.963 1.726 15.751 31.933-.647.431-4.531 3.668.431 4.1-20.713-.432-5.825-.215.862-36.68z" stroke="#fbfbfc"/><path d="m545.33 535.876 27.402.431-.863 38.622-27.618-.648z" stroke="#fbfbfc"/><path d="m544.035 574.281 27.618.648 5.826.215-1.079 52.431-17.261-.647.216-5.179h-1.942v-1.079h-2.374v1.079h-1.941v-.863h-9.926z" stroke="#fbfbfc"/><path d="m461.614 561.983 5.61.216 42.29 1.294v11.436l34.522-.648-1.079 46.389-.216 5.61-9.278-.431-22.439-1.079-2.158-3.021-5.178 3.452h-1.079l-1.294-.863-.432-1.294-.216-.216v-.216-.216l.216-.431v-3.021l.863-2.157.432-1.295.647-4.962-1.726-1.079-.432-4.747-1.294-2.158-.863-.647-2.589-1.942-1.295-.216h-2.589l-4.1-2.589-4.531-6.257-1.51-.216-1.726-2.157-1.079-3.021.432-3.021-1.942-1.941v-3.237l-3.453-1.51-1.078-4.531-.216-.432-4.1-5.394-.215-.216z" stroke="#fbfbfc"/><path d="m545.331 535.228v.648l-1.295 38.405-34.522.648v-11.436l.863-28.912z" stroke="#fbfbfc"/><path d="m468.519 532.424 41.211 2.157h.647l-.863 28.697-42.289-1.295z" stroke="#fbfbfc"/><path d="m469.814 503.511-1.511 28.913-1.294 29.775-5.61-.216-.216-.216-2.589-2.805-1.942-2.373.216-3.884-2.805-4.099 1.51-6.473-3.883-3.021.431-3.021-2.158-1.294-.431-2.158-3.021-2.805-.216-4.099-1.941-5.394-2.805-4.963-2.59-3.668-1.726-9.493z" stroke="#fbfbfc"/><path d="m437.448 466.4 34.091 1.726-1.51 35.601-32.365-1.295-6.688-10.788 1.726.432h.216l.863-1.079 2.373-5.394.216-1.51.647-4.963z" stroke="#fbfbfc"/><path d="m473.05 423.679 20.713.863-.863 14.24-4.962-.215-6.905-.863-3.452 12.514-.647 9.493v8.199l-5.61-.215-34.091-1.726 2.158-44.016z" stroke="#fbfbfc"/><path d="m493.116 438.998 3.884.216-.431 8.631 1.078 2.373 3.884.216-.647 18.555-23.734-.647v-7.983l.647-9.494 3.452-12.73 6.905.863z" stroke="#fbfbfc"/><path d="m471.324 467.91 5.61.216 23.734.648 11.004.431-1.51 35.385-40.564-1.294z" stroke="#fbfbfc"/><path d="m510.377 504.806-.647 29.775-41.211-2.157 1.51-28.913z" stroke="#fbfbfc"/><path d="m545.977 506.1-.647 29.344-34.738-.647h-.647l.647-29.775z" stroke="#fbfbfc"/><path d="m632.93 522.93h4.315l1.726.863.864 1.726 1.078 2.805.216 15.319-12.73 10.788-10.357-5.394v-3.02l-8.199-1.942-4.746-8.415 12.082-9.494 9.278-7.336h.432l1.51.648 2.589 1.51.863.647z" stroke="#fbfbfc"/><path d="m652.348 507.179 2.158 2.589 5.826 2.589.431.216 4.1 8.199 6.688 12.299-.431.215-3.237 1.727-8.846 3.02-4.531 3.237 1.51 3.668.863 1.726-15.75-3.237-.216-15.319-1.079-2.805-.863-1.726-1.726-.863h-4.315z" stroke="#fbfbfc"/><path d="m637.245 488.408 15.103 18.771-19.418 15.535-1.079-1.51-.863-.647-2.589-1.511-1.511-.647h-.431l-9.278 7.336-10.357-12.946 8.415-6.689z" stroke="#fbfbfc"/><path d="m608.765 498.764 6.688 7.552-8.414 6.689 10.356 12.946-12.082 9.493-2.805-.431-1.942-.863-2.158-1.079-.431-.863-.648-.432-5.394 1.726-5.394-6.473-5.178-6.472z" stroke="#fbfbfc"/><path d="m602.507 488.408-1.294 1.726 7.767 8.63-27.402 21.793-12.298-15.751 16.398-21.361.431 3.452.216.864.432.863 1.726-.863z" stroke="#fbfbfc"/><path d="m546.193 495.528 22.871 9.709 12.298 15.751 5.179 6.473-14.025 11.22v-2.158l-27.186-.432v-.647l.647-29.344z" stroke="#fbfbfc"/><path d="m547.057 466.184-.648 29.128-.431 10.573-35.385-1.295 1.51-35.385 24.813 1.079.431.647v.216l-.215.647-.432.863v1.295l.432.863.215.216h.216l2.589-.648z" stroke="#fbfbfc"/><path d="m501.53 450.434 17.693.863 6.689.863 3.02 1.51 11.652 6.473 7.983 4.315-1.726 1.942-7.121 8.199-2.589.647h-.215l-.216-.215-.432-.863v-1.295l.432-.863.216-.647v-.432l-.432-.647-24.813-1.079-11.004-.431z" stroke="#fbfbfc"/><path d="m519.655 425.837-.216 10.141 22.007.431-.647 23.518-11.651-6.473-3.021-1.51-6.688-.863-17.909-.863-3.883-.216-1.079-2.373.431-8.631-3.883-.216.863-14.24z" stroke="#fbfbfc"/><path d="m520.086 411.812 19.419.647 21.36.432-.432 23.95-18.987-.432-22.008-.431z" stroke="#fbfbfc"/><path d="m574.674 414.185 12.729 4.316-2.804 4.531-7.552 20.929-6.905 6.473-9.709-13.593.432-23.95 11.004.216z" stroke="#fbfbfc"/><path d="m541.446 436.409 18.988.432 9.709 13.593-13.809 12.514-7.767 1.51-7.984-4.315z" stroke="#fbfbfc"/><path d="m556.334 462.948 5.178-.647h.432l7.336.863 3.452 2.804 2.374 7.336.647 1.727 1.726 1.294 2.805.863 5.61 3.668v1.942l-.648.647-16.398 21.361-22.87-9.71.647-29.128 1.726-1.941z" stroke="#fbfbfc"/><path d="m600.997 456.475 6.041 8.199 7.552 5.826-12.298 17.908-14.241-.432-1.726.863-.431-.863-.216-.863-.432-3.452.648-.647v-1.942l-5.61-3.668-2.805-.863-1.726-1.295-.648-1.942 18.34-10.14z" stroke="#fbfbfc"/><path d="m577.048 443.961 15.103 12.946 1.726 6.472-18.34 10.141-2.373-7.336-3.452-2.805-7.336-.863h-.432l-5.178.648 13.809-12.515z" stroke="#fbfbfc"/><path d="m584.598 423.032 26.108 22.655-3.237 2.805-7.551 6.257-.432 1.726h.432l.863-.216-7.336 6.905-1.726-6.473-15.104-12.946z" stroke="#fbfbfc"/><path d="m610.706 445.687 3.452-3.021 18.987 18.987-15.535 9.71-3.02-1.079-7.552-5.826-6.041-8.199h-.863-.648l.432-1.726 7.552-6.257z" stroke="#fbfbfc"/><path d="m633.146 461.869 11.435 9.062-1.51 1.51-3.668 3.021v4.747l-2.374 8.199-22.007 17.908-6.689-7.552-7.768-8.63 1.295-1.726 12.298-17.908 3.021 1.078z" stroke="#fbfbfc"/><path d="m643.071 472.441 15.535-.215.431.215 1.079.648 3.021 3.02 13.377 16.183-5.61 4.746-16.398 13.162-17.261-21.576 2.373-8.199v-4.747z" stroke="#fbfbfc"/><path d="m670.904 496.823 1.079 1.078 19.203 18.988-.863 18.987-14.888-2.59-3.668.216-6.689-12.298-4.099-8.199-.432-.216-5.825-2.589z" stroke="#fbfbfc"/><path d="m691.185 516.889 20.066-12.083 5.394-5.394 1.295 1.294.431.432v7.983l4.316 2.374v4.962l6.041 1.942 1.295 3.236 4.531 4.1 3.452.431-1.079.648-2.373 1.51-1.079.647-13.162 7.768-4.099 2.157-6.905 3.021-4.531 2.158-8.414 4.315-3.021 1.942-.216.215-3.884 2.805-1.726 1.295-.431.863-.216-.431.432-.648 9.493-7.12 1.511-12.083-.216-.215-.432-.216-1.079.216-2.589.647-1.079.431-.863.863-1.078 1.942v-2.157z" stroke="#fbfbfc"/><path d="m704.131 474.599 4.747 11.436 3.237 6.257 4.099 4.531 1.726.215-1.51 2.158-5.394 5.394-20.066 12.083-19.203-18.987 2.158-1.079 14.887-9.278.863-2.805 2.805-5.61 6.257-6.473z" stroke="#fbfbfc"/><path d="m676.298 450.649 1.942 3.668 2.373 2.158.648.432 3.668 2.589.647.215 1.079.216h3.883l1.727 5.394 2.373 4.747 3.021.647 1.51 1.511-6.257 6.473-2.805 5.609-.863 2.805-14.888 9.278-2.157 1.079-1.079-1.079 5.61-4.747-13.378-16.182-3.02-2.805-1.079-.647-.432-.216z" stroke="#fbfbfc"/><path d="m632.715 420.874 7.551 4.315 6.689 5.395 3.237 13.808-17.046 17.261-18.987-18.987 2.589-2.373 6.689-6.905 7.336-13.808z" stroke="#fbfbfc"/><path d="m663.568 437.272 1.51 1.295 1.942-.432 1.942-.647.863-.432 2.158 1.511.863 2.373.431 2.589v1.511l3.021 5.609-17.693 21.577-15.534.215 1.51-1.51-11.435-9.062.215-.216 17.046-17.261z" stroke="#fbfbfc"/><path d="m643.071 417.422 11.004-6.473 6.689 8.415 5.178 6.041 6.473 3.021-8.846 9.062-13.377 7.12-3.237-13.809-6.689-5.394-7.767-4.315z" stroke="#fbfbfc"/><path d="m673.494 445.04 2.157-1.295 16.83-1.942 1.079.216 2.589 1.079 2.805 1.079h1.294l.648-.648 4.099 3.668-1.942 12.73 4.1 2.158v4.099l-.432 8.199-2.805.216-4.962-2.158-1.511-1.51-3.02-.647-2.374-4.747-1.726-5.394h-3.884l-1.078-.216-.648-.216-3.668-2.589-.647-.431-2.373-2.158-1.942-3.668z" stroke="#fbfbfc"/><path d="m692.049 423.032.647.863.648.431.431.216 3.237-1.079 1.078-1.078.432-.216h.863l1.51 1.726-.215 2.589 3.668 1.726-.216 5.178-4.1 1.079v3.668l-1.726 2.589 2.589 3.021-.647.647h-1.295l-2.804-1.079-2.59-1.078-1.078-.216-16.83 1.942-2.158 1.294v-1.51l-.431-2.589-.863-2.374-2.158-1.51-.863.432-1.942.647-1.941.431-1.511-1.294 8.846-9.062 8.415-2.158 1.726-.431 8.631-3.237h.431z" stroke="#fbfbfc"/><path d="m703.916 433.173 16.614-1.295v10.357l-3.021-.863-3.236-1.726-1.079-1.079-1.726-1.295.863 2.589 6.904 22.224-11.867 4.099-.216-4.099-4.099-2.158 1.726-12.73-4.1-3.668-2.589-3.02 1.726-2.59v-3.668z" stroke="#fbfbfc"/><path d="m707.368 466.184 11.867-4.099 23.303 13.809-2.158 9.277-4.747.216v3.021l-.863 2.373-1.942 1.942-1.942 1.079v1.942l-4.962-1.942-2.158-.863-1.294 1.942-1.295-.648-2.805 3.021-1.726-.216-4.099-4.531-3.237-6.257-4.747-11.435 2.805-.216z" stroke="#fbfbfc"/><path d="m742.537 475.894 4.963-1.295 4.531.432.431 2.157h2.158l-.863 6.042 6.689 11.219 3.668 6.473-4.316 7.552.648.431-.432.648-14.672 12.73-7.551 3.452-3.453-.216-4.531-4.099-1.294-3.237-6.041-1.942v-4.962l-4.316-2.374v-7.983l-.431-.431-1.295-1.295 1.51-2.158 2.805-3.02 1.295.863 1.294-1.942 2.158.863 4.963 2.158v-1.942l1.942-1.079 1.941-1.942.863-2.373v-3.237l4.747-.216z" stroke="#fbfbfc"/><path d="m803.599 476.757-1.726.863-5.179 2.373-.431.216-.216.216-4.531 2.157-.647.432-2.158 1.079-.431.215-1.079.648-.647.431-.216.216-.647.432-.432.431-.216.216-.216.215-.431.432-.216.216-.431.863-.216.431-.216.648-.216.215-1.726.432h-1.078l-.216-.216v-.863l.863-1.079 4.962-5.178.432-.431 4.531-2.158 3.021-1.079h.647l.647-.216-.216-.647v-.863zm-37.543.647 2.589 3.021 9.494 10.14 4.531 1.295-3.237 2.805-1.078.863-5.61 3.884-6.905 4.747-.431.215-.647.648-2.158 1.51-.432.216-.215.215-.863.864-.648.647-.431.647-.647-.431 4.315-7.552-3.668-6.473-6.689-11.22.863-6.041 2.805 2.805 5.826-3.021z" stroke="#fbfbfc"/><path d="m718.804 406.418 13.377 7.983h9.925l3.884.216 2.157 3.668 2.805 3.236 3.453 1.079 2.804 2.589 4.1 11.867-5.826 5.394-3.668 3.453-1.726.215-1.079-.215-.647-1.295-1.726-1.51-4.099-2.374-7.336-3.883-2.805 2.373-4.1 1.942-3.884.647-1.294.216-2.805.216v-10.357z" stroke="#fbfbfc"/><path d="m720.529 442.235 2.805-.216h1.295l3.884-.863 4.099-1.942 2.805-2.373 7.336 3.883 4.099 2.158 1.726 1.51.648 1.295 1.079.216 1.726-.216 3.668-3.452 5.825-5.394 6.905 18.771 4.531 4.962-1.726 8.847-4.963 7.983-2.805-.216-5.825 3.021-2.805-2.805h-2.158l-.432-2.158-4.53-.431-4.963 1.294-23.302-13.593-7.121-22.655-.863-2.589 1.726 1.295 1.079 1.079 3.237 1.726z" stroke="#fbfbfc"/><path d="m799.068 454.749h4.962l.647 20.713v.863l-.863.432-9.062.431-12.083-1.942 1.511-2.805.863-4.531v-.647l-.216-1.295-1.726-3.452-.647-.647-.216-.216-3.021 1.295-1.294.647-6.689 5.394 1.726-8.846-4.531-4.963z" stroke="#fbfbfc"/><path d="m792.378 412.459 27.187-.431-1.511 3.452-.431 1.51-.648 2.59.216.863 1.079 2.373h.216l.647.647-1.079 6.473-.647.863.216 5.394-.432-.431-4.315-1.511h-.863l-3.668 1.295-.216.216v.647l.216 1.079-.216.431-.863 1.079-.431.216-5.826 1.295-.863-.216-1.51-.432-8.631.216-8.199-25.028 11.22-.216z" stroke="#fbfbfc"/><path d="m775.117 415.049 6.689.215 8.199 25.029 8.63-.216.432 14.888-31.07.863-6.904-18.772-4.1-11.867z" stroke="#fbfbfc"/><path d="m798.636 439.861 1.726.863.863.216 5.826-1.294.431-.216.648-1.079.216-.432-.216-1.078v-.648l.216-.215 3.668-1.295h.863l4.315 1.295.431.431.216.863 1.295 4.1.215.215 7.984 5.179 4.746 1.294.648.432.863 1.294.216.432v.647 1.51l-.432 2.805-5.178 4.1 2.157 5.178 3.884 2.805-5.394.863h-4.1l-3.236.647-4.315 1.727-12.73 5.825v-.863l-.647-20.713h-4.747z" stroke="#fbfbfc"/><path d="m840.278 430.368v12.945l-6.689 9.278v-1.51-.647l-.216-.648-.863-1.294-.647-.432-4.747-1.294-7.983-5.179-.216-.215-1.295-4.1-.215-.863-.216-5.394 12.514-.432z" stroke="#fbfbfc"/><path d="m587.404 418.501 4.747-12.946 5.394-.216 2.157 1.511 2.805 3.883 1.079 4.963 2.158 1.726 1.726.647h1.295l3.883-1.294 5.394-2.59h1.079l3.668 1.079 8.199 4.531-7.336 13.809-6.688 6.905-2.59 2.373-3.452 3.021-26.107-22.655z" stroke="#fbfbfc"/><path d="m459.888 216.115-1.51 28.913-7.552-.432-21.144-1.51 1.51-28.481z" stroke="#fbfbfc"/><path d="m510.376 397.356-.431 14.025 10.356.431-.431 14.025-25.892-1.295-20.713-.863 1.295-27.833z" stroke="#fbfbfc"/><path d="m474.344 395.846-1.294 27.833-33.444-1.51-14.887-.648 1.51-27.617z" stroke="#fbfbfc"/><path d="m442.843 369.523 32.58 1.51-1.078 25.028-48.116-1.941 1.295-25.029z" stroke="#fbfbfc"/><path d="m475.423 370.817 29.128 1.295-.216 9.709 6.689.216-.432 15.319-36.032-1.295z" stroke="#fbfbfc"/><path d="m510.808 382.037 22.439.863v1.295l7.336.215-.863 28.049-19.419-.647-10.356-.431.431-14.025z" stroke="#fbfbfc"/><path d="m540.368 384.41 29.559.863 3.884 6.042-3.236 2.589-.432 6.688 1.51 6.905 2.374 1.294.647 5.826-2.805-1.079-11.004-.216-21.36-.431z" stroke="#fbfbfc"/><path d="m600.566 378.369 4.531 8.63-7.767 7.552-5.179 10.788-4.747 12.946-12.729-4.315-.648-5.826-2.373-1.294-1.511-6.905.432-6.688 3.236-2.59-3.883-6.041.431-7.12z" stroke="#fbfbfc"/><path d="m605.096 386.999 9.925 2.158 1.726.432 17.477 8.199 2.158.863 6.688 18.771-10.356 3.452-1.942-1.079-8.199-4.531-3.668-1.079h-1.079l-5.394 2.59-3.884 1.294h-1.294l-1.726-.647-2.158-1.726-1.079-4.963-2.805-3.883-2.157-1.511-5.394.216 5.178-10.788z" stroke="#fbfbfc"/><path d="m673.709 399.514 3.02 2.373-.215.431-1.727 3.021v.216l5.395 1.295 4.962 2.157 6.257 8.846.863 4.963-.216-.216h-.431l-8.63 3.237-1.727.431-8.414 2.158-6.473-3.021-5.179-6.041-6.688-8.415z" stroke="#fbfbfc"/><path d="m747.5 390.883 1.079-2.589 4.099-.431v3.236l2.158 2.158 4.099 2.804 1.295 6.905 4.315.431 1.079 3.668-1.295 1.726 4.531.432 6.905 2.373-1.295 2.589.432.864-18.124 10.14-2.805-2.589-3.452-1.079-2.805-3.236-2.158-3.668z" stroke="#fbfbfc"/><path d="m741.459 377.722 2.374 12.945 3.668.216-1.727 23.518-3.883-.216h-9.925l-13.378-7.983-1.942-15.535 14.025-4.531z" stroke="#fbfbfc"/><path d="m699.6 393.472 17.477-2.805 1.942 15.535 1.51 25.46-16.613 1.295.215-5.178-3.668-1.727 4.1-6.041-2.158-1.51-.431-.648-.648-1.294-2.589-8.846.432-6.905z" stroke="#fbfbfc"/><path d="m699.601 393.472-.648 7.552-.431 6.904 2.589 8.847.647 1.294.432.648 2.157 1.51-4.099 6.041.216-2.589-1.511-1.726h-.863l-.431.216-1.079 1.079-3.236 1.078-.432-.215-.647-.432-.648-.863-.863-4.963-6.257-8.846-4.962-2.157-5.394-1.295v-.216l1.726-3.02.216-.432 6.257-3.236 1.51-2.59 1.079-2.589 1.294-2.373 1.511-2.374.647-.862.863-.864 1.726-1.078 2.374-1.511 1.294-.647z" stroke="#fbfbfc"/><path d="m695.501 383.547 3.884-1.294 5.178-3.453 6.041-3.02 12.083-.216 7.12.863-1.726 4.531.863 2.805 2.158 2.805-14.025 4.531-17.477 2.805z" stroke="#fbfbfc"/><path d="m723.982 348.162.647.863 1.079 2.374 2.589 7.12-1.295 3.236h-.216l-.431.216-1.295 1.51-2.805 9.062v.863l.648 1.942-12.083.216-6.041 3.021-5.179 3.452-3.883 1.294-4.316-25.46 4.747-3.668 25.46-13.593.432.864.863-.216-.216-1.942.863-.432 1.51 2.805-.431 3.021-2.158 1.942z" stroke="#fbfbfc"/><path d="m675.435 366.934 15.751-9.063 4.315 25.46-1.295.648-2.373 1.51-1.726 1.295-.863.863-.647.863-1.511 2.373-1.294 2.374-1.079 2.589-1.511 2.805-6.257 3.236-3.02-2.373-2.805-6.905-4.963-6.257-3.236-9.709-.648-2.158z" stroke="#fbfbfc"/><path d="m662.058 374.485.647 2.158 3.237 9.709 4.962 6.257 2.805 6.905-19.634 11.435-11.004 6.473-6.689-18.771-2.157-.863 3.236-9.063 10.788-6.257z" stroke="#fbfbfc"/><path d="m628.83 359.813 3.884 5.179 4.1-2.374 11.651 19.635-10.788 6.257-3.237 9.062-17.477-8.199-1.726-.432-9.925-2.157-4.531-8.631.216-2.373z" stroke="#fbfbfc"/><path d="m618.474 341.905 10.357 17.908-28.049 16.183-14.888-26.539 23.734-13.378 4.099-2.157z" stroke="#fbfbfc"/><path d="m580.715 352.477 5.179-3.02 14.887 26.539-.216 2.373-29.991-.216-6.688-13.593z" stroke="#fbfbfc"/><path d="m570.143 334.569 10.357 18.124-16.83 11.867-.216-.863-2.157-4.747-7.552-6.473-2.589-.863-10.141-1.51-1.51-1.942.216-1.079 2.804-1.942 9.278-6.257 1.295-5.178 5.178-.647 9.925-1.079z" stroke="#fbfbfc"/><path d="m540.152 346.868-.216 1.078 1.51 1.942 10.141 1.511 2.589.863 7.552 6.473 2.158 4.746.215.863 6.689 13.593-.432 7.12-29.559-.862-7.336-.216v-1.295l1.295-34.522 2.804-2.373z" stroke="#fbfbfc"/><path d="m528.07 347.731 6.257.647-1.295 34.522-22.439-.647-6.689-.216.216-9.709 1.079-26.971 3.668.648 2.589 2.157 2.589-1.294 6.689 2.589 4.315-2.374z" stroke="#fbfbfc"/><path d="m498.941 339.316 6.473 5.825-1.079 26.971-29.128-1.295 1.726-32.796z" stroke="#fbfbfc"/><path d="m437.017 328.528 33.228 1.726-.432 7.336 7.12.431-1.726 32.796-32.58-1.51 1.295-29.128-16.83-1.079-15.535-.863.216-1.942 22.655.863.647-9.493z" stroke="#fbfbfc"/><path d="m438.743 302.636 8.847.432 24.165 1.294-1.079 25.892-33.227-1.726z" stroke="#fbfbfc"/><path d="m476.286 304.578 24.597 1.079-1.726 33.443-22.008-1.079-7.12-.431.431-7.336 1.295-25.892z" stroke="#fbfbfc"/><path d="m505.414 305.873 24.381 1.079-1.726 40.779-2.805-.648-4.315 2.374-6.689-2.805-2.589 1.294-2.589-2.157-3.668-.648-6.473-5.825 1.726-33.659z" stroke="#fbfbfc"/><path d="m534.11 307.167 10.788.432 13.593 25.46-5.178.647-1.294 5.178-9.278 6.257-2.805 1.942-2.805-.863-2.805 2.374-6.257-.648 1.726-40.779z" stroke="#fbfbfc"/><path d="m566.259 295.948 12.083 21.576 4.315-2.589 2.373 4.315 2.805 5.178-17.476 10.141-1.511-2.589-9.925 1.079-13.593-25.46z" stroke="#fbfbfc"/><path d="m585.03 319.25 11.651-6.473 12.946 23.302-23.734 13.378-5.178 3.02-10.357-18.124 17.477-10.14z" stroke="#fbfbfc"/><path d="m618.69 300.91 7.767 2.158-.647 4.099-.431 3.452.215 2.805 4.1-.863 1.079 2.158 1.726.863-3.021 3.236 3.237 3.884 5.178 1.942-3.237 4.747.648 1.079 1.942 1.078-18.556 10.141-4.747-7.983-4.099 2.158-12.946-23.303 7.983-4.531z" stroke="#fbfbfc"/><path d="m664 346.868 11.436 20.066-13.162 7.551-13.809 7.768-11.651-19.635z" stroke="#fbfbfc"/><path d="m656.664 334.353 7.336 12.515-27.186 15.75-4.1 2.374-3.883-5.179-10.357-17.908 18.556-10.141 13.593-7.767z" stroke="#fbfbfc"/><path d="m626.457 303.068 21.792-5.826 7.767 14.24 2.805-1.51 9.709 17.261-12.082 6.905-5.826-10.357-13.593 7.767-1.942-1.078-.647-1.079 3.236-4.747-5.178-1.942-3.236-3.884 3.02-3.236-1.726-.863-1.079-2.158-4.099 1.079-.216-2.805.432-3.452z" stroke="#fbfbfc"/><path d="m668.746 327.449 12.514 1.294 14.672 25.46-4.746 3.668-15.751 9.063-11.436-20.066-7.335-12.515z" stroke="#fbfbfc"/><path d="m706.289 314.719-.432 3.021 4.963 9.277 3.668 3.668 1.942.648 4.531 5.394.431 3.883-25.46 13.593-14.672-25.46 24.813-14.456z" stroke="#fbfbfc"/><path d="m658.821 309.972 28.912-16.829 5.179 2.373 3.02 2.805 1.942 2.373 4.747 5.826 2.589 3.884.648 3.883-24.813 14.456-12.514-1.294z" stroke="#fbfbfc"/><path d="m600.134 298.537 9.278-5.394 9.278.215-.216 7.768-14.24 7.552z" stroke="#fbfbfc"/><path d="m648.465 278.255h2.805l28.265.432 4.315 12.514 3.884 1.942-28.913 16.829-2.804 1.51-7.768-14.24z" stroke="#fbfbfc"/><path d="m618.905 277.392h3.668l25.891.647-.216 18.987-21.792 5.826-7.767-2.158.216-7.551z" stroke="#fbfbfc"/><path d="m593.877 276.745 25.029.647-.216 15.751-9.278-.216-9.277 5.394-6.473-18.771z" stroke="#fbfbfc"/><path d="m593.661 279.981 6.473 18.771 4.315 9.71-7.983 4.531-11.651 6.473-2.374-4.316-4.315 2.59-12.083-21.577 4.316-2.157.431-14.456z" stroke="#fbfbfc"/><path d="m536.484 278.039 28.912.863 5.61.216-.431 14.456-4.316 2.158-21.36 11.651-10.788-.432 1.294-28.912z" stroke="#fbfbfc"/><path d="m507.572 277.176 27.833.863-1.079 28.912-4.315-.215-24.381-1.079 1.294-28.912z" stroke="#fbfbfc"/><path d="m506.709 276.96-1.295 28.913-4.746-.216-24.597-1.079 1.51-29.344z" stroke="#fbfbfc"/><path d="m477.797 275.45-1.511 29.344-4.747-.216-24.165-1.294 1.726-29.344z" stroke="#fbfbfc"/><path d="m458.378 245.028 20.714 1.078-1.511 29.128-28.696-1.51 1.726-29.128z" stroke="#fbfbfc"/><path d="m479.091 246.322 8.631.432 20.928 1.078-1.078 29.56h-.863l-28.913-1.726z" stroke="#fbfbfc"/><path d="m508.65 247.617 7.768.215 20.929.648-.863 29.559h-1.079l-27.834-1.079z" stroke="#fbfbfc"/><path d="m545.331 248.911 20.929.863-.863 29.344-28.913-.863.863-29.559z" stroke="#fbfbfc"/><path d="m574.674 246.322 20.498.863-1.295 29.56-.216 3.236-22.655-.647-5.61-.216.863-29.344 8.199.432z" stroke="#fbfbfc"/><path d="m595.171 247.185 7.552.216 20.929.863-.863 29.344h-3.668l-25.029-.648z" stroke="#fbfbfc"/><path d="m623.436 248.264 7.983.432 20.282.647-.647 29.128h-2.805l-25.892-.647z" stroke="#fbfbfc"/><path d="m651.917 249.343h10.356l18.124.431-.215 11.22-.648 17.908-28.264-.431z" stroke="#fbfbfc"/><path d="m692.696 249.774v9.278 1.942h-12.299l.216-11.22z" stroke="#fbfbfc"/><path d="m692.696 259.052 12.299.216v32.149l-21.145-.216-4.315-12.514.647-17.909h12.298z" stroke="#fbfbfc"/><path d="m716.861 249.99 11.004.216v1.079l1.726 15.966-2.589-.431-5.826-3.453-3.02.648-5.394-4.531-2.158-2.158-.216-2.158 2.589-5.178z"/></g><path d="m716.861 249.99 11.004.216v1.079l1.726 15.966-2.589-.431-5.826-3.453-3.02.648-5.394-4.531-2.158-2.158-.216-2.158 2.589-5.178z" stroke="#fbfbfc"/><path d="m712.978 259.484 5.394 4.531 3.021-.648 5.825 3.453 2.589.431 2.374 2.158v13.809l6.904 7.335 1.295.864h-34.954v-32.149z" fill="#3c3b6e" stroke="#fbfbfc"/><path d="m704.995 291.417h34.953l-.431 14.671 1.726 3.453-34.954 5.394-.215-.432-.648-3.884-2.589-3.883-4.747-5.826-1.941-2.373-3.021-2.805-5.178-2.374-3.884-1.941z" fill="#3c3b6e" stroke="#fbfbfc"/><path d="m741.243 309.541-1.079 9.062.863 4.746 2.158 7.552 3.883 3.668.864.216 1.294 1.51.863 1.726.863 2.589.216.648-.863 1.079-12.514 1.941-9.062 1.511-4.963 2.589-1.942-1.726 2.158-1.942.431-3.021-1.294-2.805-.863.432.216 1.942-.864.216-.431-.864-.432-3.883-4.531-5.394-1.941-.648-3.668-3.668-4.963-9.277.432-3.021z" fill="#3c3b6e" stroke="#fbfbfc"/><path d="m723.982 348.162 4.962-2.589 9.062-1.51 12.514-1.942 3.668 1.51 2.374-1.079 1.726 2.158 2.589 2.158-1.079 2.589 6.041 3.883 2.59 2.59-26.755 22.007-10.357 8.631-2.157-2.589-.863-2.805 1.726-4.531-7.12-.863-.648-1.942v-.863l2.805-9.062 1.295-1.511.431-.215h.216l1.295-3.237-2.589-7.12-1.079-2.373z" fill="#3c3b6e" stroke="#fbfbfc"/><path d="m774.902 371.68-20.066 21.577-2.157-2.158v-3.236l-4.1.431-1.079 2.589-3.668-.431-2.373-12.946 26.97-22.008z" fill="#3c3b6e" stroke="#fbfbfc"/><path d="m791.084 377.29-5.394 3.237 6.905 32.148.431 2.374-11.22.215-6.688-.215-.432-.864 1.295-2.589-6.905-2.373-4.531-.432 1.295-1.726-1.079-3.668-4.315-.431-1.295-6.905-4.099-2.804 20.066-21.577 6.473 2.589 4.962 1.079z" fill="#3c3b6e" stroke="#fbfbfc"/><path d="m845.456 368.228 2.589-.647.216 21.144-1.079 4.532-8.199 15.319-.647 2.373.215.216 1.511 1.942.863 4.099v.432l-.216.647-2.158 1.726 1.727 10.357-10.573.431.863-28.265.216-18.555-2.805-14.025z" fill="#3c3b6e" stroke="#fbfbfc"/><path d="m820.643 371.68 7.336-1.726 2.805 14.025-.216 18.555-.863 28.265-12.514.216.647-.863 1.079-6.473-.647-.647h-.216l-1.079-2.374-.216-.863.648-2.589.431-1.51 1.51-3.452-.863-1.511-.647-1.942.216-.431 1.294-2.374-.215-2.589-4.1-7.983-.431-.431-1.295-.216h-.216l-.215-.216-3.884-11.22.431-2.157-.215-.432-.648-.647-2.589-1.079h-3.452l-5.61.216 18.556-4.747z" fill="#3c3b6e" stroke="#fbfbfc"/><path d="m796.91 378.8 5.609-.215h3.453l2.589 1.078.647.648.216.431-.432 2.158 3.884 11.22.216.215h.431l1.295.216.431.432 4.1 7.983.216 2.589-1.295 2.373-.216.432.647 1.942.864 1.51-27.187.432-6.904-32.149 5.394-3.236z" fill="#3c3b6e" stroke="#fbfbfc"/><path d="m773.391 346.436 2.373 2.589 10.573 2.589 2.589-.431 2.158.863 3.02 1.51.647.863 9.494 11.436 11.436 8.199-18.556 4.746-6.041-1.726-4.747-1.942-4.963-1.078-6.473-2.59-6.688-15.966-2.589-2.589z" fill="#3c3b6e" stroke="#fbfbfc"/><path d="m831.432 341.258 6.041 6.473 5.178 7.551 1.726 7.336.432 2.158.647 3.452-17.692 1.726-7.336 1.726-.432-1.51-.216-9.278v-7.552l2.374-2.589.863-1.294-.216-6.905z" fill="#3c3b6e" stroke="#fbfbfc"/><path d="m823.016 342.768.216 6.904-.863 1.295-2.373 2.589v7.552l.215 9.278.432 1.51-4.963 2.373-11.435-8.199.431-7.983.432-15.103-3.884-4.315-1.294-.863 17.477 1.941z" fill="#3c3b6e" stroke="#fbfbfc"/><path d="m792.81 316.229 27.833-.863 7.984 8.847 2.805 17.045-8.415 1.294-6.041-3.236-17.477-1.942-3.237-12.73z" fill="#3c3b6e" stroke="#fbfbfc"/><path d="m769.077 325.075 27.401-.215 3.237 12.73 1.294.863 3.884 4.315-.431 15.103-.216 7.984-9.494-11.436-.647-.863-3.021-1.51-2.157-.863-2.589.431-10.573-2.589-2.373-2.589-3.021-3.021-.216-.431-1.294-3.884-1.079-3.884-.647-6.041z" fill="#3c3b6e" stroke="#fbfbfc"/><path d="m739.516 306.088 26.755-.431-.216 19.419h3.236l-2.157 4.099.647 6.041 1.079 3.884 1.294 3.884.216.431 3.021 3.021-7.768 6.689-6.041-3.884 1.079-2.589-2.589-2.158-1.726-2.157-2.374 1.078-3.668-1.51.863-1.079-.215-.647-.863-2.589-.864-1.726-1.294-1.511-.863-.215-3.884-3.668-2.158-7.552-.862-4.747 1.078-9.062z" fill="#3c3b6e" stroke="#fbfbfc"/><path d="m818.702 287.964.215 13.162 1.726 14.456-27.833.863h-4.962l-.216-7.12 1.079-8.199 1.294-3.021 1.726-3.236 1.726-4.1v-2.589l1.511 1.511 6.041 2.589h.432z" fill="#3c3b6e" stroke="#fbfbfc"/><path d="m788.711 288.396h4.962v2.589l-1.726 4.1-1.726 3.236-1.295 3.021-1.078 8.199.215 7.12h4.963l3.452 8.63-27.186.216h-3.236l.431-19.419-.216-15.319 9.925-.216h9.278l2.805.432z" fill="#3c3b6e" stroke="#fbfbfc"/><path d="m765.84 279.118h.863l8.415-3.668 3.236-4.531.432-.216 2.589.216.215.432.216 13.377v1.942l3.237 1.726 3.02.431.648-.215-.863 2.157-2.805-.431h-9.278l-9.925.215z" fill="#3c3b6e" stroke="#fbfbfc"/><path d="m731.749 269.409 4.963 4.531 1.726.647 15.966 4.1h.432l1.079-.432.431-1.079 9.278 2.158.216 11.219.216 15.32-26.755.431.432-14.672-1.295-.863-6.904-7.336z" fill="#3c3b6e" stroke="#fbfbfc"/><path d="m756.346 247.401v7.336l.216 22.223-.432 1.079-1.079.432h-.431l-15.967-4.1-1.726-.647-5.178-4.315-2.373-2.158-1.727-15.966 19.851-.216 7.551.216z" fill="#3c3b6e" stroke="#fbfbfc"/><path d="m781.375 261.857 11.004 6.473h6.904l1.726-.863 6.689-.863 3.884-.216 2.805.432 3.883 1.51.432 20.066-17.045 4.315h-.432l-6.041-2.589-1.511-1.51h-4.962l-.647.215-3.021-.431-3.236-1.511v-1.941l-.216-13.378z" fill="#3c3b6e" stroke="#fbfbfc"/><path d="m756.346 254.953 23.95-.432.863 1.726.216 5.826.215 9.278-.215-.216-2.59-.216-.431.216-3.237 4.531-8.414 3.668h-.863l-9.278-2.158z" fill="#3c3b6e" stroke="#fbfbfc"/><path d="m756.346 247.401 1.51-1.51 4.747-2.589 1.295-.216h1.079 3.236l.647.216 3.021 3.667 3.021 2.158 5.61 5.178-23.95.432z" fill="#3c3b6e" stroke="#fbfbfc"/><path d="m783.964 256.031 34.091-.647.215 12.514-3.883-1.51-2.805-.431-3.884.431-6.689.863-1.726.863h-6.904l-11.004-6.473-.216-5.825z" fill="#3c3b6e" stroke="#fbfbfc"/><path d="m783.748 230.14.215.647.432.432 1.942.431 3.883-.431 2.374-1.295 4.315-.431 1.726 2.157 8.415.216.216-.216-.216-.647-.216-1.295.863-1.51 1.726-.647 1.295-.432 4.963.863 1.078.648.432 1.078.431 16.83.216 9.278-34.09.647z" fill="#3c3b6e" stroke="#fbfbfc"/><path d="m775.118 223.883 3.452 2.373 5.394 3.884.216 25.891h-2.805l-.863-1.726-5.61-5.178z" fill="#3c3b6e" stroke="#fbfbfc"/><path d="m775.118 223.883-.216 25.46-3.021-2.158-3.02-3.668-.647-.215h-3.237-1.079l-1.294.215-4.747 2.589-.216-23.734z" fill="#3c3b6e" stroke="#fbfbfc"/><path d="m757.425 222.372.216 23.734-1.511 1.511-1.078 3.883-7.552-.431-.216-27.618 3.884.863z" fill="#3c3b6e" stroke="#fbfbfc"/><path d="m716.861 234.024 4.531-2.805 2.59-2.805 4.746-.216 2.158-3.021 1.295-.647h2.804l12.515-1.295.215 27.618-19.85.216v-1.079l-11.004-.216z" fill="#3c3b6e" stroke="#fbfbfc"/><path d="m717.077 217.841 4.315-1.941 1.079-.216 7.552.647 1.079.216 6.041 1.942 1.079.431 5.61 3.884 3.452.647v.216l-12.514 1.295h-2.805l-1.295.647-2.157 3.021-4.747.215-2.374 2.805-4.531 2.589.216-12.73z" fill="#3c3b6e" stroke="#fbfbfc"/><path d="m717.077 221.294-.215 12.73v15.966h-3.884l-2.589 5.178.216 2.158 2.157 2.158h-7.983l-12.299-.216v-9.278l.216-24.597z" fill="#3c3b6e" stroke="#fbfbfc"/><path d="m663.136 221.294 24.813.647-.216 4.1 4.963-1.079-.216 24.812h-12.298l-18.124-.431z" fill="#3c3b6e" stroke="#fbfbfc"/><path d="m632.929 219.352 24.166 1.294 6.041.863-.863 27.834h-10.356l-20.282-.647z" fill="#3c3b6e" stroke="#fbfbfc"/><path d="m603.37 218.489 23.734.431 5.826.216-1.295 29.344-7.983-.432-20.929-.863z" fill="#3c3b6e" stroke="#fbfbfc"/><path d="m575.753 215.684 24.381.431v2.158h3.452l-.863 28.912-7.552-.216-20.497-.863 1.079-25.891z" fill="#3c3b6e" stroke="#fbfbfc"/><path d="m546.194 219.568 29.343.863-1.079 25.891-.215 3.884-8.199-.432-20.929-.647z" fill="#3c3b6e" stroke="#fbfbfc"/><path d="m517.497 218.489 28.696 1.079-.647 29.343-7.983-.215-20.929-.648z" fill="#3c3b6e" stroke="#fbfbfc"/><path d="m488.8 217.41 28.697 1.079-1.079 29.559-7.767-.216-20.929-1.078z" fill="#3c3b6e" stroke="#fbfbfc"/><path d="m459.888 216.115 29.128 1.295-1.079 29.128-8.63-.432-20.713-1.078z" fill="#3c3b6e" stroke="#fbfbfc"/><path d="m432.486 185.693 28.696 1.294-1.294 29.128-28.697-1.294z" fill="#3c3b6e" stroke="#fbfbfc"/><path d="m434.212 153.76 5.179.216 23.518 1.079-1.726 31.932-28.697-1.294z" fill="#3c3b6e" stroke="#fbfbfc"/><path d="m462.909 125.927 6.689.431-1.51 28.912-5.395-.215-23.302-1.079 1.51-29.128z" fill="#3c3b6e" stroke="#fbfbfc"/><path d="m464.42 96.7986-1.51 29.1284-22.008-1.079-7.984-.432 1.727-28.9119z" fill="#3c3b6e" stroke="#fbfbfc"/><path d="m436.37 66.3761 29.128 1.5103-1.294 29.1279-29.56-1.2945z" fill="#3c3b6e" stroke="#fbfbfc"/><path d="m438.096 37.2481 28.696 1.2946h.432l-1.511 29.128-29.128-1.5104v-.4315z" fill="#3c3b6e" stroke="#fbfbfc"/><path d="m446.511 7.90439 21.576 1.07881-1.51 29.5595-28.697-1.5104 1.726-29.5594z" fill="#3c3b6e" stroke="#fbfbfc"/><path d="m468.087 8.98315 28.696 1.29455-1.078 29.7753-28.697-1.2946h-.431z" fill="#3c3b6e" stroke="#fbfbfc"/><path d="m495.921 39.8373-.432 11.6512-.647 17.4767-28.912-1.2945 1.51-29.128z" fill="#3c3b6e" stroke="#fbfbfc"/><path d="m465.714 67.6707 28.913 1.2945-1.295 29.1279-29.128-1.2945z" fill="#3c3b6e" stroke="#fbfbfc"/><path d="m464.42 96.7986 29.127 1.2945-.431 10.1409-.863 18.987-22.439-1.079-6.689-.431z" fill="#3c3b6e" stroke="#fbfbfc"/><path d="m469.598 126.358 22.439 1.079-.431 12.298-.648 16.614-22.871-1.079z" fill="#3c3b6e" stroke="#fbfbfc"/><path d="m462.693 155.055 5.394.215 22.871 1.079-.215 5.826-.648-1.295-1.51.216-.432.647-1.294 26.323-25.892-1.079z" fill="#3c3b6e" stroke="#fbfbfc"/><path d="m461.183 186.987 25.892 1.079 2.805.216-.863 29.344-29.128-1.295z" fill="#3c3b6e" stroke="#fbfbfc"/><path d="m518.144 196.049-.647 22.44-28.696-1.079.863-29.344 8.846.432 7.336 2.589.863-1.295 7.767 1.942 2.805 1.942.863 1.51z" fill="#3c3b6e" stroke="#fbfbfc"/><path d="m490.742 162.175 9.926 7.767 11.651 2.374 2.589 2.157 3.236-.431.648-.648.215-.647-.647 16.83-.216 6.472-.215-.863-.863-1.51-2.805-1.942-7.768-1.942-.863 1.295-7.336-2.589-8.846-.432-2.805-.216 1.295-26.323.431-.647 1.511-.216z" fill="#3c3b6e" stroke="#fbfbfc"/><path d="m499.804 143.835 2.805 3.668 1.295 1.726 3.883 3.668 1.727.431h2.589l2.157-2.589.216-.215h.647l2.59.215.863.432 1.294.863-.863 20.929-.216.647-.647.647-3.236.432-2.59-2.373-11.651-2.374-9.925-7.767.216-5.826.647-16.614z" fill="#3c3b6e" stroke="#fbfbfc"/><path d="m547.056 190.44 29.128.647-.432 24.597v4.747l-29.343-.863z" fill="#3c3b6e" stroke="#fbfbfc"/><path d="m547.056 190.44-.863 29.128-28.696-1.079.647-22.44.216-6.688z" fill="#3c3b6e" stroke="#fbfbfc"/><path d="m534.111 156.349v1.51 1.511l.863 5.178.647.216 1.079.431 1.942.432h1.079 2.157l4.963.431.863.432-.863 24.165-28.696-1.078.647-16.83.863-20.929 1.726 1.726 1.942.216.431-.216v-.216l2.374-4.315 2.373 1.295 2.805 1.51z" fill="#3c3b6e" stroke="#fbfbfc"/><path d="m566.475 169.079h.432l1.294.863 1.295 1.079 2.589 4.099 1.51.648 3.021-2.589-.431 17.908-29.128-.647.863-24.166 4.962 3.021 4.963 1.294 3.668.216z" fill="#3c3b6e" stroke="#fbfbfc"/><path d="m593.877 178.357.863 1.942.216.216 2.373.647h1.295l1.942-.432 2.157.863-.431 3.668-1.295 3.021-.647 28.265-24.381-.432.431-24.597.432-17.908 2.157-2.805 1.079-.647 2.158.431 8.415 2.59z" fill="#3c3b6e" stroke="#fbfbfc"/><path d="m627.752 186.772-.648 32.148-23.733-.431h-3.453l.216-2.158.647-28.265.648.647 4.746 2.158h.648l1.726-.431 2.805-2.158 2.805-3.021 1.942-2.373 5.609 3.668 1.942 1.294z" fill="#3c3b6e" stroke="#fbfbfc"/><path d="m657.311 185.046-.215 35.6-24.166-1.294-5.826-.216.648-32.149 1.079 4.963.215.431.432.432.431.432 3.237.863 7.767-6.905 3.884 1.942-2.158 5.61 3.237 5.394.863.216h.863l.863-.216.431-.432.216-.431z" fill="#3c3b6e" stroke="#fbfbfc"/><path d="m717.724 192.381-.647 25.245v3.452l-24.165 3.884-4.963 1.078.216-4.099.431-22.008.432.647 8.199-1.941 1.079-.216 1.079-.432.431-.431.216-.432.216-.431v-.216-.216l.431-1.51.432-1.726 2.805-.648 6.257-.431h1.079.863l3.236.647z" fill="#3c3b6e" stroke="#fbfbfc"/><path d="m657.958 184.614 2.805 5.826.863 1.078.647.432 5.179 1.51 2.589-.431 5.394-2.589-.216 1.078v.863.432.216l5.61 3.884.431.431 2.805-.431h.648l.647.215 2.373 3.237-.431 22.008-24.813-.648-6.041-.863.216-35.601z" fill="#3c3b6e" stroke="#fbfbfc"/><path d="m747.068 190.224.432 32.796-3.668-.647-5.61-3.884-1.079-.432-6.041-1.942-1.079-.215-7.552-.648-1.079.216-4.315 1.942.647-25.244 4.747-1.726 4.531-2.374 4.1-2.157h1.726l.431.215.648 1.511v.431l-.216.432v.431l.216.432.215.216 5.394.647 2.158.216 3.668-.216z" fill="#3c3b6e" stroke="#fbfbfc"/><path d="m634.871 574.929 1.079.863h.216l5.178-2.589 7.552-5.61.431-1.079h-1.294l-1.295-.216-2.158-1.294-1.294-1.726v-1.295l19.634-2.805-.431 3.021.647 1.079v.431l-.863 1.726-.647.432-7.336 4.962h-1.726l-2.59-.216-1.294 1.942-1.079 6.042-5.178 7.767zm25.46-2.158-1.51 3.236-11.436 14.672-.215-.863z" fill="#3c3b6e" stroke="#fbfbfc"/><path d="m597.33 688.204 20.065 3.452 5.179-2.157 2.373-2.805.216.216.216 3.452 1.294 5.178v4.963l2.589 5.394 3.668 3.452 2.59 2.589.215.216-.647 2.157-7.336.216-3.452 2.805-.216 3.668-5.394-1.726-.863-.432-.863-.647-3.452-2.805-4.963-5.61-.216-.863-6.904-1.294-4.531-.863zm37.326-3.668h1.079l1.726 6.904.432 2.59.647 4.962 1.079 8.199h-.216-.216l-.431-.647-.432-4.531v-1.942l-.215-2.373-.648-3.668-1.079-5.394-.647-2.158z" fill="#3c3b6e" stroke="#fbfbfc"/></svg>