<svg fill="none" height="722" viewBox="0 0 960 722" width="960" xmlns="http://www.w3.org/2000/svg"><path d="m458.117 1-2.598 12.987-11.948 9.3506-8.831 15.5844-2.078 11.948-7.792-4.6751-5.195 3.1167-8.831-.5193-8.831-11.948-10.39 2.0777 9.87-28.5714 8.312-1.55839z" fill="#3c3b6e" stroke="#fbfbfc"/><path d="m351.624 17.6237 49.87-7.2728-9.87 28.5714-3.636 4.1558-12.468 2.5974-.52-4.1558-4.675-10.9089-3.636-2.0781-3.637.5197-7.792-4.6755-4.156-4.1558z" fill="#3c3b6e" stroke="#fbfbfc"/><path d="m415 582.818 6.753 58.182-15.584 1.558-35.325 4.156-17.662 2.078v-6.753l2.078-5.195.519-1.039 16.104-23.376 16.624-12.987 6.752-14.026z" fill="#3c3b6e" stroke="#fbfbfc"/><path d="m356.818 591.649 38.961-5.195-6.754 14.026-16.623 12.987-16.104 23.377-.519 1.039-2.078 5.194v6.754l-4.676.519-5.714-28.571-11.428 1.558-2.598-28.052z" fill="#3c3b6e" stroke="#fbfbfc"/><path d="m331.882 623.337 11.429-1.558 5.714 28.571-25.455 4.676-25.974 2.597-2.597-29.091 29.091-2.597z" fill="#3c3b6e" stroke="#fbfbfc"/><path d="m302.792 587.494 1.559 8.83 24.415-1.038 2.598 28.051v.52l-8.312 1.559-29.091 2.597 2.597 29.091-13.506 1.039-1.559-3.117-1.039-2.078-6.233-7.273h-1.039-1.039l-1.039-.519-1.559-3.117-2.078-11.429 1.039-4.155 1.559-4.157 1.558-34.285 3.117 5.195 3.117-.52 2.597-1.039 3.637-1.558z" fill="#3c3b6e" stroke="#fbfbfc"/><path d="m297.079 657.104 25.974-2.597-2.598 5.714 2.598 23.896-1.039 8.312-4.156 7.792-5.195 3.636-2.078 4.156v2.597l1.559 3.117-23.896-43.636-4.156-11.429z" fill="#3c3b6e" stroke="#fbfbfc"/><path d="m370.845 647.753 7.273 61.818-66.494 4.676-1.558-3.117v-2.598l2.078-4.155 5.195-3.637 4.156-7.792 1.039-8.312-2.598-23.896 2.598-5.714 25.454-4.675 4.675-.52z" fill="#3c3b6e" stroke="#fbfbfc"/><path d="m406.169 643.078 1.558 15.584 2.078 4.156 2.078 2.078 2.597 2.597 4.156 38.442-27.013 2.078-13.506 1.039-7.273-61.299z" fill="#3c3b6e" stroke="#fbfbfc"/><path d="m421.753 641.52.519 4.675 36.883-3.117 6.753 60.26-36.363 2.597-10.39.52-4.156-38.442-2.597-2.597-2.078-2.597-2.078-4.157-1.558-15.584z" fill="#3c3b6e" stroke="#fbfbfc"/><path d="m494.48 639.442 12.467 31.688-3.636 4.156-4.156 8.311v.52l5.195 7.792 2.078 1.558 12.468 6.754-34.805 2.597-18.182 1.039-6.754-60.26 21.818-2.597-.519-6.753z" fill="#3c3b6e" stroke="#fbfbfc"/><path d="m483.052 593.208 1.559 19.221-4.676 21.818.52 6.753-21.818 2.597-36.883 3.117-.52-4.675-4.675-41.039 46.753-5.195z" fill="#3c3b6e" stroke="#fbfbfc"/><path d="m493.442 588.013v5.195l1.039 2.597 1.039 1.039 7.272 5.195 2.079.519 7.792 11.429 3.636 12.468 3.117 9.87-24.416 2.597-14.545-5.714 4.675-21.818-1.559-19.221z" fill="#3c3b6e" stroke="#fbfbfc"/><path d="m549.025 607.234 10.389-1.559 6.753 49.87-6.233 4.156-1.559-8.831-3.636-6.234-18.701 2.078-4.156-11.429-.52-5.714 3.117-.519-.519-14.026 17.142-2.598v-.519l-1.039-2.598z" fill="#3c3b6e" stroke="#fbfbfc"/><path d="m518.897 636.844 13.506-1.559 4.156 11.429 18.701-2.078 3.637 6.234 1.558 8.831-14.026 5.715 3.117 32.207-23.896 1.559-6.753.519-12.468-6.753-2.078-1.558-5.195-7.793v-.519l4.156-8.312 3.636-4.156-12.467-31.688z" fill="#3c3b6e" stroke="#fbfbfc"/><path d="m566.169 655.545 17.663 3.117 1.558 2.597 2.078 5.715 4.156 4.156 2.078 1.039 3.636 1.039h5.195l2.597-.52h5.195l8.831.52 2.598 1.038 1.558 1.559.519 1.039 1.559 15.584-14.546 1.039-61.298 4.156-3.117-32.207 14.026-5.715z" fill="#3c3b6e" stroke="#fbfbfc"/><path d="m559.417 605.676 40.519-5.715 12.467 20.779 4.676 4.676 8.831 6.234 4.156 21.298 10.909-.519 2.597 18.182 2.597 14.025 2.079 4.676-5.715.519-17.143 1.039-1.558-15.584-.52-1.039-1.558-1.559-2.597-1.039-8.832-.519h-5.195l-2.597.519h-5.195l-3.636-1.038-2.078-1.039-4.156-4.156-2.077-5.715-1.559-2.597-17.663-3.117z" fill="#3c3b6e" stroke="#fbfbfc"/><path d="m602.012 570.87-.52 13.506h-9.351l7.792 16.104-40.519 5.715-10.389 1.558-1.04-6.753-3.636-14.546-6.234-4.675-6.233-6.753v-.52l-.52-2.597 24.416-3.117 13.506-1.039 4.675 4.675 2.078 2.078z" fill="#3c3b6e" stroke="#fbfbfc"/><path d="m529.804 563.598 2.078 7.792.519 2.597v.52l6.234 6.753 6.234 4.675 3.117 14.546 1.039 6.753 1.039 2.078 1.038 2.597v.52l-17.142 2.597.519 14.026-3.117.52.52 5.714-13.507 1.558-3.116-9.87-3.637-12.467-7.792-11.429-2.078-1.039-7.273-5.195-1.039-1.039-1.039-2.597v-5.195l10.39-21.818z" fill="#3c3b6e" stroke="#fbfbfc"/><path d="m545.388 528.792-15.584 34.805-25.974 2.598-24.415-15.585 3.116-27.013 10.909-1.038 6.234-.52 1.558 11.429 7.793-.52.519 3.636 11.948-1.038-.519-3.637 8.312-.519z" fill="#3c3b6e" stroke="#fbfbfc"/><path d="m459.674 557.363-1.039-4.675 20.26-1.558 24.415 15.584-10.389 21.818-10.39 5.195-19.22 2.078z" fill="#3c3b6e" stroke="#fbfbfc"/><path d="m414.999 517.883 19.221 4.676.52.519 1.038 6.234 3.117 21.818 10.39-1.039 1.039.519 4.155 2.598 2.078 4.675 3.117-.52 4.156 37.923-46.753 5.195-2.078-17.144-6.753-32.207-1.558-17.143z" fill="#3c3b6e" stroke="#fbfbfc"/><path d="m370.844 559.961 33.247-5.195 3.636-4.155 6.753 32.207-19.221 3.117-38.961 5.195-6.234-29.091z" fill="#3c3b6e" stroke="#fbfbfc"/><path d="m337.597 564.117 12.987-1.559 6.234 29.091-28.052 3.637-24.416 1.038-1.558-8.83-2.078-18.702z" fill="#3c3b6e" stroke="#fbfbfc"/><path d="m255 548.013 24.416-2.597 4.156 24.415 17.662-1.558 2.078 18.701-18.701 3.117-3.636 1.559-2.598 1.039-3.117.519-3.117-5.195-15.065-36.883z" fill="#3c3b6e" stroke="#fbfbfc"/><path d="m261.234 513.727 22.338 7.792 1.558 23.377-5.714.519-24.416 2.597z" fill="#3c3b6e" stroke="#fbfbfc"/><path d="m317.337 518.402 7.792-1.038 2.598 23.376 4.675 2.078 6.234 11.429.519 5.194-.519 3.117-.52 1.039-36.363 4.676-17.663 1.039-4.155-24.416 5.714-.52-1.559-23.376z" fill="#3c3b6e" stroke="#fbfbfc"/><path d="m368.766 549.052 2.598 10.909-20.78 2.597-12.987 1.559.52-1.039.519-3.117-.519-5.714-6.234-11.429-4.675-2.078-2.598-23.376 20.26-2.598v-7.273l16.104 12.987 7.792 2.598 3.637 8.311-2.598 4.156z" fill="#3c3b6e" stroke="#fbfbfc"/><path d="m416.038 507.493-1.039 10.39-8.312 15.584 1.558 17.143-3.636 4.156-33.247 5.195-2.077-10.909.519-12.987 2.597-4.156-3.636-8.312-7.792-2.597-1.039-6.753z" fill="#3c3b6e" stroke="#fbfbfc"/><path d="m408.247 489.312 47.273-5.715 3.117 27.533 1.039 8.311-25.455 2.598-19.22-4.675 1.038-10.39z" fill="#3c3b6e" stroke="#fbfbfc"/><path d="m458.637 511.13 17.663-1.039 5.714 13.506-3.117 27.013-20.26 1.559 1.039 4.675-3.117.519-2.078-4.675-4.155-2.597-1.04-.52-10.389 1.039-3.117-21.818-1.039-6.234-.52-.519 25.455-2.598z" fill="#3c3b6e" stroke="#fbfbfc"/><path d="m476.817 510.091 40.519-5.714 25.974 7.272 2.078 17.143-16.104 2.597-8.311.52.519 3.636-11.948 1.039-.52-3.636-7.792.519-1.558-11.428-6.234.519-10.909 1.039z" fill="#3c3b6e" stroke="#fbfbfc"/><path d="m543.311 511.649 20.779-8.831 3.117 22.857 28.052-4.156 2.597 18.182 4.156-.52 1.559 14.027-4.675.519 2.597 16.623-25.455 3.637-2.078-2.078-4.675-4.675-13.506 1.039-24.416 2.597-2.078-7.792 15.585-34.805z" fill="#3c3b6e" stroke="#fbfbfc"/><path d="m608.767 513.727 10.39 5.714 6.233 3.117 8.831 2.078 15.585 7.792 1.558 1.558 1.039 2.078h-1.558l-7.273 7.273.52 4.156-5.195 6.753-9.87 3.637h-10.909l-2.598-6.234-11.428 1.039-1.559-14.026-4.155.519-2.598-18.182 14.545-1.558z" fill="#3c3b6e" stroke="#fbfbfc"/><path d="m669.546 486.195 11.428 4.156 47.273 33.766 7.272 12.987-11.428 21.818-4.675-2.078-5.195-2.078-6.234 2.597-9.87 2.598-15.065-1.039-1.558-1.039-6.754-14.026h-7.792l-7.273-47.792 5.195-8.312z" fill="#3c3b6e" stroke="#fbfbfc"/><path d="m652.403 536.584 14.026 7.792h7.793l6.752 14.026 8.313 9.351-.52 3.636-1.558 2.079-22.338 15.064h-.52l-12.467-1.558-15.585-7.273-7.273-20.26 9.871-3.636 5.194-6.753-.519-4.156 7.273-7.273z" fill="#3c3b6e" stroke="#fbfbfc"/><path d="m723.57 558.402-1.039 25.974-7.273 10.91-8.831 2.597-2.597 1.039-1.039 1.559-.52 6.233-17.662-2.078-1.039 10.909-6.753 1.039-14.546-12.467-1.558-10.909-9.87-2.598.519-5.195 12.468 1.559h.519l22.338-15.065 1.558-2.078.519-3.636-7.792-9.351 1.559 1.039 15.065 1.039 9.87-2.597 6.234-2.598 5.195 1.559z" fill="#3c3b6e" stroke="#fbfbfc"/><path d="m603.571 553.727 11.428-1.039 2.598 6.234h10.909l7.272 20.259 15.585 7.273-.52 5.195 9.871 2.597 1.558 10.909 14.545 12.468-38.441 5.195 4.156 34.805 33.246-4.156 4.156.52-3.636 35.844-28.052 1.558-2.597-4.675-2.598-14.026-2.597-18.182-10.909.52-4.156-21.299-8.831-6.234-4.676-4.675-12.467-20.779-7.792-16.104h9.35l.52-13.507-2.598-16.623z" fill="#3c3b6e" stroke="#fbfbfc"/><path d="m702.791 607.234 9.35 35.325-15.064 8.831-1.039 17.143.519 3.116 2.078 3.118 4.156 5.194 1.558 5.195v10.909l-.519 10.909-.52 10.909-15.584 3.117h-1.039l-2.597-2.078-2.598-3.636-1.558-3.637-4.156-22.337 3.636-35.844-4.156-.52-33.247 4.156-4.155-34.805 38.442-5.195 6.752-1.039 1.04-10.909z" fill="#3c3b6e" stroke="#fbfbfc"/><path d="m769.805 602.559 8.312 48.311h-2.078l-11.428 1.559-8.313.519-16.103-2.078-21.299-4.675-5.714-4.156-9.351-35.325.519-6.233 1.04-1.559 2.597-1.039 8.831-2.597 7.273-10.909.519 2.078.52.519 10.909 3.117 6.234.52z" fill="#3c3b6e" stroke="#fbfbfc"/><path d="m786.947 554.766-17.143 47.792-28.052-11.429-6.234-.519-10.909-3.117-.519-.519-.52-2.078 1.039-25.974 11.429-21.818v.519l7.272 6.753 9.351 5.715 19.221 3.636 13.507 1.558z" fill="#3c3b6e" stroke="#fbfbfc"/><path d="m746.949 495.026 4.155 1.039 6.754 4.675 3.636 1.039 9.87-4.156h7.273l4.156 1.039 2.597 1.039 4.675 3.637.52 1.039v4.155l-3.637 45.195-2.078.52-13.506-1.559-19.22-3.636-9.351-5.714-7.273-6.754v-.519l-7.272-12.987 10.909-9.87z" fill="#3c3b6e" stroke="#fbfbfc"/><path d="m240.973 284.117 14.026 30.649-37.922 19.74-12.987-46.753z" fill="#3c3b6e" stroke="#fbfbfc"/><path d="m183.311 213.468 15.584-1.559 7.272-1.558 21.299-2.078 3.117 14.545v15.585l-9.87 3.636-20.26 9.87-6.233.52z" fill="#3c3b6e" stroke="#fbfbfc"/><path d="m224.35 177.104 16.624.519-4.676 21.819-9.35 1.039 1.039 7.792-21.299 2.078-7.273 1.558-15.584 1.559-2.598-9.871-5.194-18.181 21.298-2.078-.519-2.598z" fill="#3c3b6e" stroke="#fbfbfc"/><path d="m212.403 99.1819-1.558 28.0521 13.506 2.078 1.039 7.272v21.819h-2.597l1.558 18.701-27.532 3.117v2.597l-21.299 2.078-8.831-32.208 9.87-1.039 6.753-15.065 6.754-4.155 10.389-7.793 1.039-3.116 5.714-21.8187z" fill="#3c3b6e" stroke="#fbfbfc"/><path d="m207.208 99.7012-5.714 22.3378-1.039 3.117-10.39 7.792-6.753 4.156-6.754 15.584-9.87 1.039-10.909-37.402-2.597-10.39z" fill="#3c3b6e" stroke="#fbfbfc"/><path d="m217.078 33.7275 21.818-2.5974-2.598 10.3896.52 30.6495-8.831 5.1948-.52 5.1948 4.675 6.7532-17.662 4.1558-2.078-15.5844-15.584 1.5583v-1.5583l2.078-6.7532 1.558-8.8312 8.312-2.5975 3.117-6.2338 4.675-17.6621z" fill="#3c3b6e" stroke="#fbfbfc"/><path d="m179.676 38.403 36.883-4.6755.519 2.5974-4.675 17.6625-3.117 6.2338-8.312 2.5974-1.558 8.8309-7.273 1.0391-2.078-12.987-7.272 1.039z" fill="#3c3b6e" stroke="#fbfbfc"/><path d="m179.676 38.4023 2.078 22.3376 7.273-1.039 2.078 12.987 7.272-1.039-2.078 6.7535v1.5584l15.585-1.5584 2.077 15.5844-1.558 5.7142-5.195.519-54.545 6.234-1.559-5.714 4.676-7.7922 3.636-15.0651-.519-6.2338 3.116-18.1818 5.195-12.987z" fill="#3c3b6e" stroke="#fbfbfc"/><path d="m166.688 39.961-5.194 12.987-3.117 18.1818.519 6.2339-3.636 15.0647-4.676 7.7926-10.389-37.4027-5.195-19.7405 17.143-1.5584z" fill="#3c3b6e" stroke="#fbfbfc"/><path d="m695.001 451.909 3.636 4.156 7.792 2.078-.519 13.506.519 1.559 19.221 15.065 20.78 7.273h1.038l-8.311 19.221-10.909 9.869-47.273-33.766z" fill="#3c3b6e" stroke="#fbfbfc"/><path d="m643.572 475.805 25.455 10.39-5.195 1.558-5.195 8.312 7.273 47.792-14.026-7.792-1.039-2.078-1.559-1.559-15.584-7.792-8.831-2.078-6.234-3.117-10.39-5.714-2.597-20.26 11.948-1.558-2.078-16.104-.519-4.156z" fill="#3c3b6e" stroke="#fbfbfc"/><path d="m614.481 471.649 1.038 4.156 2.078 16.104-11.948 1.558 2.597 20.26 1.04 6.234-14.546 1.558-28.052 4.156-3.117-22.857 23.377-19.74 12.987-8.312 8.311-3.117z" fill="#3c3b6e" stroke="#fbfbfc"/><path d="m310.585 468.532h1.039l1.558 1.039 1.039 9.351 1.039 10.909v11.429l1.558 17.142-33.766 3.117-22.337-7.792-.52-11.948 14.546-28.571z" fill="#3c3b6e" stroke="#fbfbfc"/><path d="m312.144 468.532 3.636-.519 11.428 7.792 3.117 3.636 6.234 2.078 6.753-.519 1.559 26.493v7.793l-20.26 2.597-7.792 1.039-2.078-17.143v-11.428l-1.039-10.91-1.039-9.35z" fill="#3c3b6e" stroke="#fbfbfc"/><path d="m374.48 459.701h5.195l.52 5.195 14.545 2.078 13.506 21.819 7.793 18.181-56.104 6.234 1.039 6.753-16.104-12.987-1.558-26.493-.52-5.195 32.208-5.195z" fill="#3c3b6e" stroke="#fbfbfc"/><path d="m490.324 466.454 21.818 30.13 4.675 7.793-40.519 5.714-17.662 1.039-3.117-27.533-1.559-14.545 16.104-2.078 7.273-2.078 2.597-1.559 5.715-.519 1.558.519z" fill="#3c3b6e" stroke="#fbfbfc"/><path d="m544.351 453.987 42.597 29.09-23.376 19.741-20.779 8.831-25.974-7.273-4.676-7.792z" fill="#3c3b6e" stroke="#fbfbfc"/><path d="m568.246 422.818 9.35.519h1.039l1.039 3.117 4.675 16.104 1.04 8.312 4.155 12.467 1.559 2.598.519 1.039 8.312 7.792-12.987 8.311-42.597-29.09 4.155-10.39z" fill="#3c3b6e" stroke="#fbfbfc"/><path d="m485.65 439.961 6.234-9.351-3.117-2.597 15.065-19.74 6.234 4.155 25.974 41.039 12.987-9.87-4.156 10.39-32.208 42.597-21.818-30.13 3.636-3.636.52-1.039 1.038-7.273-12.467-9.87z" fill="#3c3b6e" stroke="#fbfbfc"/><path d="m485.65 439.961-3.117 4.156 12.468 9.87-1.039 7.273-.52 1.039-3.636 3.636-4.156-3.116-1.558-.52-5.715.52-2.597 1.558-7.272 2.078-16.105 2.078-4.674-27.013 8.311-20.78 5.195.52z" fill="#3c3b6e" stroke="#fbfbfc"/><path d="m449.286 442.039 4.675 27.013 1.559 14.026-47.273 5.714-13.507-21.818 7.273-15.065 15.584-6.234z" fill="#3c3b6e" stroke="#fbfbfc"/><path d="m391.105 414.506 11.948-1.038 11.948 4.155 3.636 28.052-15.584 6.234-7.272 15.065-14.546-2.078-1.039-5.195h-5.195-5.714l-2.078-9.87-4.156.52v-10.39l-1.039-5.714 6.753-1.559 4.156-11.428 3.637-6.234 10.389-3.117z" fill="#3c3b6e" stroke="#fbfbfc"/><path d="m346.947 437.364 15.065 2.078v10.389l4.675-.519 2.078 9.87h5.715l.519 10.389-32.208 5.195-1.039-10.389v-10.39l4.156-1.039-2.597-18.701z" fill="#3c3b6e" stroke="#fbfbfc"/><path d="m307.986 420.221 25.454-7.273 9.871 22.858 2.597 18.701-4.156 1.039v10.389l1.039 10.39.52 5.195-6.754.519-6.233-2.078-3.117-3.636-11.429-7.792-3.636.519h-1.039l-5.714-43.117h3.116v-5.714" fill="#3c3b6e"/><g stroke="#fbfbfc"><path d="m307.986 420.221 25.454-7.273 9.871 22.858 2.597 18.701-4.156 1.039v10.389l1.039 10.39.52 5.195-6.754.519-6.233-2.078-3.117-3.636-11.429-7.792-3.636.519h-1.039l-5.714-43.117h3.116v-5.714"/><path d="m307.987 420.22v5.195h-3.117l6.234 43.117-35.324 4.676.519-.52 1.039-5.195-1.558-2.597-3.117-2.598-8.831-2.597-1.039-1.039-.52-1.559 1.559-5.714 14.025-7.273 14.546-4.155 4.156-14.026 4.675-2.598z" fill="#3c3b6e"/><path d="m247.208 415.546 23.377-2.598.519 3.637 28.572-3.637 1.039 10.39-4.676 2.597-4.155 14.026-14.546 4.156-14.026 7.273-3.636-21.818z" fill="#3c3b6e"/><path d="m350.586 380.221 12.467 7.792 16.104 2.597 4.676 12.468 9.35 7.273-6.753 2.078-10.39 3.116-3.636 6.234-4.156 11.429-6.753 1.558 1.039 5.714-15.065-2.077-4.156-2.078-9.87-22.857z" fill="#3c3b6e"/><path d="m318.378 362.558 1.038-.519 3.118.519 9.35 5.715 2.078 2.597 1.559 3.117.519 1.039 1.039 1.039 6.753 2.597 6.753 1.039-17.143 32.208-24.935 7.273-7.272 3.636-1.039-10.389-5.715-41.559 16.624-2.597z" fill="#3c3b6e"/><path d="m271.623 369.831 11.948-2.078 9.87 3.636 5.715 41.559-28.572 3.636-.519-3.636-23.377 2.597-9.87-21.298-8.312-19.221z" fill="#3c3b6e"/><path d="m254.999 314.766 10.909-1.039 6.234 56.104-42.597 5.195-10.909-37.403-1.039-3.117z" fill="#3c3b6e"/><path d="m230.584 222.818 18.701 3.117 3.636 30.129 12.468 1.559-2.597 7.273-21.819 19.22-36.883 3.637-2.597-8.831-7.273-26.494 6.234-.519 20.26-9.87 9.87-3.637z" fill="#3c3b6e"/><path d="m240.974 177.623 24.416-2.597 2.077 20.779h2.079l2.597 22.857-22.857 6.754-18.702-3.117-3.116-14.546-1.039-7.792 9.35-1.039z" fill="#3c3b6e"/><path d="m262.791 28.0128 3.117 21.2985 5.195 3.6365.52.5193v.5197l-2.598 4.6751-3.636 3.6364-1.559 7.2729 3.117 23.3766-34.805-4.1558-4.675-6.7535.519-5.1948 8.831-5.1948-.519-30.6491 2.597-10.3896 4.156-.5197z" fill="#3c3b6e"/><path d="m231.624 89.3117 34.805 4.1558.519 5.7145 2.598 21.818-45.715 8.831-13.506-2.078 1.558-28.0517 1.559-5.7141z" fill="#3c3b6e"/><path d="m269.544 120.48 5.714 53.507-34.805 3.636-16.623-.519-1.559-18.702h2.598v-21.818l-1.039-7.272z" fill="#3c3b6e"/><path d="m275.26 173.987 31.688-3.117 5.195 11.948-4.675 19.221-1.559 6.234-.519 2.077-8.312 10.39-4.675 4.675-7.792-9.35-12.987 1.558-2.598-22.857-2.078.52-2.078-21.299z" fill="#3c3b6e"/><path d="m249.286 225.416 22.857-6.754 12.987-1.558 7.792 9.351-8.311 12.987-12.468 7.792-5.195 5.714-1.039 1.558v2.078l-12.467-1.558z" fill="#3c3b6e"/><path d="m262.792 264.377 26.493-2.078 3.117 2.597 2.078 16.624 8.312 8.311 6.233 7.273 3.118 5.195v5.714l-47.273 5.195-10.909 1.039-12.987-30.13z" fill="#3c3b6e"/><path d="m314.221 314.246v34.286l4.156 14.026-8.312 6.753-16.623 2.598-9.87-3.637-11.948 1.559-6.234-56.104 47.273-5.195z" fill="#3c3b6e"/><path d="m314.221 314.246 5.714-4.675 7.792-1.039 3.117 2.598 16.624-2.079 1.039 31.689-30.13 2.597-3.637 4.675z" fill="#3c3b6e"/><path d="m347.987 341.26 19.221-2.598 1.558 9.351 1.559 12.987v7.273l-2.597.519-4.156 18.702-12.468-7.793-6.753-1.039-6.753-2.597-1.039-1.039-.52-1.039-1.558-3.117-2.078-2.597-9.351-5.715-3.116-.519-1.039.519-4.156-14.025 3.636-4.676z" fill="#3c3b6e"/><path d="m369.804 361.519 30.65-3.636 11.429 14.545 11.947 7.273-4.675.519-26.494 30.13-9.35-6.753-4.156-12.468-16.104-2.597 4.156-18.701 2.597-.52z" fill="#3c3b6e"/><path d="m392.661 410.351 26.494-30.13 10.39-1.039 1.038 25.974v1.558l-9.87 2.078 1.559 10.909-2.598 1.559-1.558.519-3.117-4.155-11.948-4.156-11.948 1.039-5.195-2.078z" fill="#3c3b6e"/><path d="m429.545 379.182 14.545 2.597h4.156l5.714 20.26 6.753 5.714 1.039 6.234 1.039 7.792-5.195-.519-8.312 20.779-31.168 3.636-3.637-28.051 3.117 4.155 1.559-.519 2.597-1.559-1.558-10.909 9.87-2.078v-1.558z" fill="#3c3b6e"/><path d="m510.064 412.429-6.234-4.156-15.065 19.74 3.118 2.597-6.235 9.351-22.857-18.182-1.039-7.792 33.247-25.974z" fill="#3c3b6e"/><path d="m494.999 388.013 33.247-24.416 12.467-3.117 10.91 3.117-.52 5.714 18.181 4.156 1.04 14.026 3.636 1.039-1.558 6.753-7.792 20.26 3.636 6.234-19.221 20.779-12.987 9.87-25.974-41.039z" fill="#3c3b6e"/><path d="m470.065 336.065 24.416-15.065 2.077-1.558h2.078l8.832 8.312 7.272 11.948 6.234 2.077 2.078 1.559 3.636 5.714 2.078 6.753v8.312l-33.246 24.416-30.65-46.754z" fill="#3c3b6e"/><path d="m451.364 351.649 12.987-10.389 30.649 46.753-33.246 25.974-1.039-6.234-6.754-5.714-5.714-20.26h-4.156l-2.597-10.909 3.116-1.039 8.832-11.429 1.558-4.155z" fill="#3c3b6e"/><path d="m422.792 338.143 2.598 5.195 5.714 4.156 7.792-1.039 4.676 1.039 7.272 4.155 3.637 3.117-1.559 4.156-8.831 11.428-3.117 1.039 2.598 10.91-14.546-2.598-5.714.52-11.948-7.273-11.429-14.546z" fill="#3c3b6e"/><path d="m475.78 292.948 2.597-.52 21.299 2.598.52.519v1.039 1.039l-.52.52-.52 1.039-.519 5.714.519 1.558 2.598 4.156 3.117-2.597 2.598-3.117v21.818l-8.832-8.312h-2.078l-2.077 1.559-24.416 15.065-15.066-40z" fill="#3c3b6e"/><path d="m455 296.065 15.065 40-6.234 5.195-12.987 10.39-7.272-4.156-4.676-1.039-7.792 1.039-5.714-4.156-2.598-5.195-17.662-26.493 34.805-10.909z" fill="#3c3b6e"/><path d="m373.961 303.857h29.611l1.558 7.793 17.662 27.013-21.818 19.74-30.649 3.636-1.559-12.987 9.351-1.039 1.039-2.597z" fill="#3c3b6e"/><path d="m373.962 303.857 4.676 40.52-1.039 2.597-9.351 1.039-1.558-9.35-19.221 2.597-1.039-31.688h16.104v-4.156z" fill="#3c3b6e"/><path d="m325.13 285.676 4.155-.52 13.507-2.078 1.039 3.117 10.909-2.597 1.558 4.675 6.754 1.039-1.039 15.584v4.156h-16.104l-16.624 2.078-3.116-2.597-7.793.519-5.714 4.676-1.558-6.234v-5.714l8.311-2.598z" fill="#3c3b6e"/><path d="m292.921 265.416 2.078-6.234 17.143-4.156 11.429 9.351 2.078 21.298-4.156 14.546-8.312 2.597-3.117-5.195-5.714-7.272-8.312-8.312z" fill="#3c3b6e"/><path d="m333.44 236.844 2.598 2.078 1.039 7.792v5.195l-1.559 18.701-1.039 1.559-6.233 3.117 1.039 9.87-4.156.519-2.078-21.298-11.429-9.351-1.039-15.584 13.507-1.559z" fill="#3c3b6e"/><path d="m384.35 262.299 9.87 11.948 9.351 29.091h-29.611l-10.909 1.558 1.039-15.584z" fill="#3c3b6e"/><path d="m333.44 236.844 12.987-1.558 7.273 11.948 13.506 4.675 2.598 5.714 9.87.52 4.675 4.156-20.779 27.532-6.753-1.039-1.558-4.675-10.909 2.597-1.039-3.116-13.507 2.077-1.039-9.87 6.234-3.117 1.039-1.558 1.558-18.701v-5.195l-1.039-7.792z" fill="#3c3b6e"/><path d="m327.729 187.494 10.909 12.987 25.974 15.584-3.637 4.675-5.195 17.143-5.194-3.117-5.195.52-12.987 1.558-8.831 1.039-1.559-11.948-1.039-9.87v-1.559l-3.117-27.012 5.195 1.038z" fill="#3c3b6e"/><path d="m325.65 150.611 2.078 10.909 21.818 7.792-8.311 3.117-2.598 5.714-7.272.52-3.637 8.311-4.156 1.559-5.194-1.039 3.116 27.013v1.558l1.039 9.87 1.559 11.948-13.507 1.559 1.039 15.584-17.143 4.156-1.558 6.234-3.117-2.597-26.494 2.077 2.598-7.272v-2.078l1.039-1.559 5.195-5.714 12.467-7.792 8.312-12.987 4.675-4.675 8.312-10.39 1.039-2.078 1.558-6.234 4.676-19.74-5.195-11.948v-6.753l6.234-4.156 2.078-8.831z" fill="#3c3b6e"/><path d="m322.012 119.442.519 7.273 2.598 23.896-10.39.519-2.078 8.831-6.234 4.156v6.753l-31.688 3.117-5.714-53.506z" fill="#3c3b6e"/><path d="m266.948 99.1819 11.948-1.5587 24.415-2.5974 3.117-2.5974v2.0781l5.195 12.4675 8.312-1.039 1.558 14.026-52.467 1.039z" fill="#3c3b6e"/><path d="m325.131 80.4808 1.558 2.078 3.117 9.87 10.909 9.8702 16.623 6.234 4.676 12.987-39.481 4.675-.52-7.273-1.558-14.026-8.311 1.039-5.195-12.4672v-2.0777l10.909-2.0781z" fill="#3c3b6e"/><path d="m322.533 126.715 39.481-4.676 4.155 14.026-5.194 9.87-9.87 4.676-4.676 14.026 2.598 5.194-21.819-7.792-2.077-10.909z" fill="#3c3b6e"/><path d="m384.351 152.689-2.597 18.181 9.351 12.987-21.299 25.974-4.675 6.234-25.974-15.584-10.909-12.987 3.636-8.312 7.273-.519 2.597-5.715 8.312-3.117-2.598-5.194 4.676-14.026 27.532 6.753z" fill="#3c3b6e"/><path d="m379.677 215.546.519 14.545-12.987 22.338-13.506-4.676-7.273-11.948 5.194-.519 5.195 3.117 5.195-17.143 3.637-4.675 4.675-6.234z" fill="#3c3b6e"/><path d="m436.299 258.143 4.156 42.077-34.806 10.91-1.558-7.793-9.351-29.091 3.637-9.87 6.753-4.155 9.351-7.793 1.038-6.233z" fill="#3c3b6e"/><path d="m379.675 215.546 33.766 19.74 1.04 11.428-1.04 6.234-9.35 7.793-6.753 4.155-3.636 9.871-9.871-11.948-4.675-4.157-9.87-.519-2.598-5.714 12.987-22.338z" fill="#3c3b6e"/><path d="m391.103 183.857 6.753 4.675 14.026-3.636 20.26 11.428-18.182 38.442-33.766-19.74-9.87-5.715z" fill="#3c3b6e"/><path d="m384.35 152.688 5.195 6.234 2.078 1.558 12.468 2.598 3.116-.52h10.909l1.559 1.039 4.676 9.87-12.987 11.429-14.027 3.636-6.753-4.675-9.351-12.987z" fill="#3c3b6e"/><path d="m437.338 134.507 7.792 9.869 1.039 14.546-21.818 15.065-4.675-9.87-1.559-1.039h-10.909l-3.117.519-12.468-2.597-2.078-1.558-5.194-6.234 22.337-30.13 4.156 3.117 2.597 1.558 1.559.52 5.714-1.039 4.676-1.559 8.311 6.234z" fill="#3c3b6e"/><path d="m446.169 158.403 14.026 4.675h-1.039l-.519 7.273v.519l.519 1.559 5.195 5.195-3.116 9.35-36.883-14.026z" fill="#3c3b6e"/><path d="m411.365 184.896 12.987-11.429 36.883 14.026 1.038 14.026-2.597 6.753-12.468 5.715-15.584-17.143z" fill="#3c3b6e"/><path d="m447.208 213.987 21.299 32.208-32.208 12.467-21.298-11.948-1.039-11.429 18.182-38.441z" fill="#3c3b6e"/><path d="m436.298 258.143 32.209-12.468 18.181 18.182 2.078 1.039 1.039 1.039v.519l-1.039 5.195-5.195 4.156-3.636 2.078-2.598 3.117-1.558 9.351v1.558l.52.519-20.26 3.117-15.065 4.156z" fill="#3c3b6e"/><path d="m525.649 244.636 4.156 2.078 7.272 17.663 5.715 8.311 1.039 2.078-4.156.52-9.351 7.792-1.558 2.597-1.04 4.676-1.038 2.597-1.559 2.078-12.987 9.351-5.714 1.038-2.597 3.117-3.117 2.598-2.598-4.156-.519-1.559.519-6.233.52-1.039.519-.52v-1.039-1.039l-.519-.519-21.299-2.598h-2.597v-.519-1.558l1.558-9.351 2.598-3.117 3.636-2.078 5.195-4.156 1.038-5.195v-.519l-1.038-1.039-2.078-1.039 17.662-20.779 11.428 2.597z" fill="#3c3b6e"/><path d="m506.429 200.481 9.871 14.545 2.078 2.078h.519l6.754-5.714 9.35 4.155 10.389 1.039-4.155 6.754-2.078 7.792-10.39 2.597-4.156 6.753v.52l2.078 3.117-10.389 1.558-11.429-2.597 4.675-5.195-6.233-12.987 5.714-11.948-6.753-6.234z" fill="#3c3b6e"/><path d="m501.233 207.234 6.754 6.234-5.714 11.948 6.233 12.987-4.675 5.194-17.663 20.78-18.181-18.182-21.299-32.208 12.468-5.714 2.597-6.754 22.857 7.273z" fill="#3c3b6e"/><path d="m496.038 151.649 27.532 7.792-8.311 6.234-2.598 3.117-7.273 12.987-5.194 10.909v.52l6.233 6.753-5.195 7.273-16.103 1.558-22.858-7.273-1.038-14.025 3.116-9.351-5.194-5.714-.52-1.559v-.52l.52-7.272h1.038l15.065-9.87h1.04l2.077 1.039 7.273 2.078h1.559z" fill="#3c3b6e"/><path d="m523.572 159.442 17.143-4.676 11.429 27.533 18.181 24.415-21.818 7.792-3.636 2.078-10.39-1.558-9.351-4.156-6.753 5.714h-.519l-2.078-2.078-9.87-14.545-6.234-6.753v-.52l5.195-10.909 7.272-12.987 2.598-3.117z" fill="#3c3b6e"/><path d="m548.507 214.506 8.312 16.104 11.948 22.338 5.714 1.558 15.584 2.078-5.714 6.754-9.35-3.117-8.312-2.598-4.156 1.559-20.26 14.026-5.714-8.312-7.273-17.662-4.156-2.078-2.077-3.117v-.52l4.155-6.753 10.39-3.117 2.078-7.792 4.156-6.753z" fill="#3c3b6e"/><path d="m577.078 203.597-1.038 1.559v2.078l2.078 12.467 8.831 12.468 11.948 14.545 2.078 1.559-6.754 7.792-4.156.519-15.584-2.078-5.714-1.558-11.948-22.338-8.312-16.104 21.818-7.792z" fill="#3c3b6e"/><path d="m542.792 273.208 20.26-14.026 4.156-1.559 8.312 2.598 9.35 3.117-4.675 4.675-13.507 14.545.52 1.559 1.039 6.753-10.909.52-9.871-5.715-4.156-10.389z" fill="#3c3b6e"/><path d="m590.064 257.103 4.156-.519 12.468 5.714h.519l1.039 1.039 3.637 4.156-2.598 12.987-1.039 7.273-.52 7.792 1.04 4.156 1.558 4.675 3.117 10.909-1.558 9.871-2.079 7.272-11.948 6.753-2.077 7.273-12.987-7.792-3.118-17.663-5.714-12.467h-.519l-4.676-2.597-5.194-4.156-2.078-3.117-3.637-6.234 10.909-.519-1.038-6.753-.52-1.559 13.507-14.546 4.675-4.675z" fill="#3c3b6e"/><path d="m557.857 291.909 3.636 6.234 2.078 3.117 5.195 4.155 4.675 2.598h.52l5.714 12.467 3.117 17.663-11.429 5.714-7.273 3.117-13.506 4.156-1.039-4.156-4.156-2.078-18.182 10.909-2.078-6.753-3.636-5.714-2.078-1.559-6.233-2.078-7.273-11.948v-21.818l5.714-1.039 12.987-9.351 1.559-1.558 1.038-2.597 1.04-4.676 1.558-2.597 9.351-7.792 4.155-.52 4.156 10.39z" fill="#3c3b6e"/><path d="m596.299 345.416-4.156 18.701-18.182 24.935-3.636-1.039-1.039-14.026-18.182-4.156.52-5.714-10.909-3.117-12.467 3.117v-8.312l18.181-10.909 4.156 2.078 1.039 4.156 13.507-4.156 7.272-3.636 11.429-5.714z" fill="#3c3b6e"/><path d="m573.442 389.052 20.26-.52 3.636 1.039 11.949 4.676 1.038 1.039v7.792l-1.038 6.234-31.689 13.506-9.351-.519-3.636-6.234 7.793-20.26z" fill="#3c3b6e"/><path d="m608.767 409.831-1.039 62.337-8.312 3.117-8.312-7.792-.519-1.039-1.559-2.597-4.156-12.468-1.038-8.312-4.676-16.103-1.039-3.117h-1.039z" fill="#3c3b6e"/><path d="m608.767 409.831 9.87 8.311 14.545-5.714 9.351 27.533 1.039 36.883-29.091-4.156h-6.753z" fill="#3c3b6e"/><path d="m702.274 445.156 4.674-7.273 11.429 5.195 10.909 11.428 12.987-3.636 9.871 3.636 1.038 2.078 4.156 10.39.52 1.039v.519l1.558 1.039 9.87 7.273 15.065 7.273 1.039.519-.52 1.039 2.598 2.597 3.637 1.039 1.038-.519v-.52h.52 1.558l1.039.52 1.039 6.753.52 5.195-2.078 8.831-1.558 2.598h-1.04l-2.078-1.559v-4.156l-.519-1.039-4.676-3.636-2.597-1.039-4.155-1.039h-7.273l-9.87 4.156-3.637-1.039-6.753-4.675-4.156-1.039h-1.039l-20.779-7.273-19.221-14.546-.519-1.558.519-13.506-7.792-2.078-3.637-4.156z" fill="#3c3b6e"/><path d="m661.753 413.987 7.792.519 9.351-2.078 9.87 4.675 8.312 12.468 9.869 8.831-4.674 7.273-17.143 2.078-12.987-3.117z" fill="#3c3b6e"/><path d="m633.181 411.909 28.572 2.078 10.389 30.13 12.987 3.117 17.143-2.078-7.792 6.234-14.026 38.961-11.429-4.156-25.454-10.39-1.039-36.883z" fill="#3c3b6e"/><path d="m654.999 372.948 8.312 3.117 1.558 8.831 7.273 5.714-2.078 20.26-1.039 3.636-7.792-.519-28.572-2.078-2.597-6.753 6.233-19.221 3.117-7.792 8.312-7.793z" fill="#3c3b6e"/><path d="m633.7 331.389 10.909 22.858 12.987 7.273-2.078 11.428-7.272-2.598-8.312 7.793-3.117 7.792-6.234 19.221 2.598 6.753-14.546 5.714-9.87-8.312 1.039-6.233v-7.792l-1.039-1.039-11.948-4.676-3.636-1.039-20.26.52 18.182-24.935 4.155-18.702 2.078-7.272 11.949-6.754z" fill="#3c3b6e"/><path d="m783.312 404.636.519 3.117 1.039 6.234 1.559 6.753.519.52 7.792 3.117 24.936 4.675 4.675.519h1.039l.519 2.078v1.559l-.519 2.597-1.559 3.117-22.337 35.844-1.04 1.559-6.233 7.272-1.039.52-3.117-.52-4.156-13.506-1.039-11.429-12.467-1.558-8.312-14.026-10.909-9.87-2.598-3.117 21.819-27.013z" fill="#3c3b6e"/><path d="m697.079 429.052 44.156-21.299 9.35 22.338 2.598 3.117 10.909 9.87 8.312 14.026 12.467 1.558 1.039 10.91 4.676 13.506-5.195 1.039h-1.04l-15.584-7.273-9.87-7.272-1.558-1.039v-.52-1.039l-4.156-10.389-1.039-1.559-9.87-3.636-12.987 3.636-10.909-11.428-11.429-5.195z" fill="#3c3b6e"/><path d="m677.858 351.649 42.598 19.221 20.779 36.883-44.156 21.299-8.312-12.468-9.87-4.675-9.351 2.078 1.039-3.636 2.078-20.26-7.273-5.715-1.558-8.831-8.311-3.116 2.077-11.429z" fill="#3c3b6e"/><path d="m633.701 331.389-.52-1.039 1.559-10.389 4.675-6.234 16.104-3.117 12.987-7.273 4.675.52 5.715 1.558 1.558 1.039 1.039 1.558-6.753 40.52 3.636 2.598-20.26 9.869-12.987-6.753z" fill="#3c3b6e"/><path d="m738.637 351.13 14.026 5.714 2.597 1.039 11.949 9.87 14.026 28.571 1.558 8.312-10.389-1.558-21.819 27.013-9.35-22.338-20.779-36.883z" fill="#3c3b6e"/><path d="m680.973 309.052 26.494-25.974 25.454 45.195 5.714 23.377-18.181 20.259-42.598-19.22-3.636-2.598z" fill="#3c3b6e"/><path d="m606.687 261.779 11.948-6.753h1.039l4.155 2.597 1.04 2.078 4.155 5.715 3.637-2.598h12.987l10.909-7.273 5.195 1.039 12.467 9.351 22.338 10.39 10.909 6.233-26.494 25.974-1.038-1.558-1.559-1.039-5.714-1.558-4.676-.52-12.987 7.273-16.103 3.117-4.676 6.233-1.558 10.39.519 1.039-23.376-.52 2.078-7.272 1.558-9.87-3.117-10.909-1.558-4.676-1.039-4.156.519-7.792 1.039-7.273 2.598-12.987-3.637-4.155-1.039-1.039z" fill="#3c3b6e"/><path d="m631.622 212.948 2.078 2.078 1.039 1.039 6.234 5.714 8.831 10.39 3.117 11.948 8.831 12.468-5.195-1.039-10.909 7.273h-12.987l-3.636 2.597-4.156-5.715-1.039-2.077-4.156-2.598h-1.039l-11.948 6.754-12.467-5.715 6.753-7.792z" fill="#3c3b6e"/><path d="m603.571 194.246 15.064 13.507 12.987 5.195-30.649 35.324-2.597-1.558-11.948-14.546-8.831-12.467-2.078-12.468v-2.078l1.038-1.558z" fill="#3c3b6e"/><path d="m540.715 154.766 11.429 3.117 19.74 11.948h1.039l2.078-.519h.519l11.429 5.714 3.636 2.597 8.312 6.753 5.195 9.871-26.494 9.87-6.753 2.597-18.182-24.415z" fill="#3c3b6e"/><path d="m518.377 108.013 4.676 12.987 23.376 28.571 5.195 8.312-11.429-3.117-17.142 4.676-27.533-7.793-15.584-13.506-1.559-13.507 18.182 1.039z" fill="#3c3b6e"/><path d="m473.183 117.364 5.714 6.753 1.558 14.026 15.585 13.506-8.831 5.715h-1.559l-7.273-2.078-2.077-1.039h-1.039l-15.066 9.87-14.025-4.675-1.039-14.546-7.792-9.87 4.675-1.039 3.636-3.636 25.455-4.676z" fill="#3c3b6e"/><path d="m432.144 92.4287 4.155 6.7535.52 15.0648 7.273 6.753 1.039 8.312-3.637 3.636-4.675 1.039-3.636-2.597-8.312-6.234-4.675 1.559-5.715 1.039-1.558-.52-2.598-1.558-4.155-3.117-5.715-10.909 3.637-10.39 9.87-10.3896h8.831z" fill="#3c3b6e"/><path d="m396.299 90.3504 8.312 10.9086-3.636 10.39 5.714 10.909-22.338 30.13-5.714 4.675-27.533-6.753 9.87-4.156 5.195-9.87-4.156-14.026-4.675-12.987 16.104-16.1038z" fill="#3c3b6e"/><path d="m367.207 58.1432 6.234 34.2855-16.104 16.1043-16.623-6.234-10.909-9.8703-3.117-9.8699 3.117-7.7922 16.623.5193 9.87-18.1818z" fill="#3c3b6e"/><path d="m265.908 49.3113 24.935-3.1168 7.273 1.039 5.714 3.6362 3.118 2.078 9.35 12.4677 7.792 11.4283 1.559 3.6364-7.273 9.3506-10.909 2.078-3.117 2.5974-24.415 2.5974-11.948 1.5584-.52-5.7141-3.117-23.3767 1.558-7.2728 3.637-3.6364 2.597-4.6752v-.5196l-.519-.5194z" fill="#3c3b6e"/><path d="m301.754 23.3373 24.935-3.1168-5.195 5.7142-.52 1.039v1.039l11.948 6.2339-3.636 7.2725-.519 8.3119 2.597 1.5583 5.195-3.117 2.077 9.8702-3.636 7.7922-4.675 9.3506-3.117 7.7922-1.559-2.0777-1.558-3.6364-7.792-11.4287-9.351-12.4676-3.117-2.0778-5.714-3.6364-7.273-1.039-24.935 3.1171-3.117-21.2989z" fill="#3c3b6e"/><path d="m342.273 18.6621 8.831-1.039-1.039 3.1168 4.156 4.1557 7.792 4.6755h3.636l3.637 2.078 4.675 10.909.52 4.1558-8.312 12.4676-10.909-1.039-9.87 18.1818-16.624-.5193 4.676-9.3509 3.636-7.7922-2.078-9.87-5.195 3.1168-2.597-1.5584.519-8.3115 3.637-7.2729-11.948-6.2338v-1.0391l.519-1.0387 5.195-5.7144z" fill="#3c3b6e"/><path d="m375.52 45.6752 12.468-2.5974 6.753 4.1561 1.039 1.5584 1.039 4.1558 5.195 30.6494-5.714 7.2726-22.858 2.5974-6.234-34.2856z" fill="#3c3b6e"/><path d="m391.622 38.922 10.39-2.0777 8.831 11.948 8.831.5193 5.195-3.1167 7.792 4.6751 2.598 4.1561-11.429 35.3246h-8.831l-9.871 10.3893-8.311-10.909 5.714-7.2725-5.195-30.6495-1.038-4.1557-1.04-1.5584-6.753-4.1558z" fill="#3c3b6e"/><path d="m476.3 80.9998 8.311 1.0387 1.558-.5194 5.195-1.039 4.675-.5193 2.598 1.039 1.558 1.0387v.5197l4.156 6.7531 14.026 19.7407-21.298 17.142-18.182-1.038-5.715-6.754z" fill="#3c3b6e"/><path d="m468.507 75.2859 7.792 5.7145-3.117 36.3636-2.597 7.792-25.454 4.675-1.04-8.311-7.273-6.753-.519-15.0654-4.155-6.7532 2.597-1.5584 1.039-.5196 24.935-4.6752z" fill="#3c3b6e"/><path d="m435.26 55.0261 33.247 20.2596-7.792 10.3896-24.935 4.6754-1.039.5194-2.597 1.5584-8.312-2.0778z" fill="#3c3b6e"/></g></svg>