<svg fill="none" height="720" viewBox="0 0 962 720" width="962" xmlns="http://www.w3.org/2000/svg"><g fill="#3c3b6e" stroke="#fbfbfc"><path d="m56.1336 552.207 40.2873-1.06 2.6504 44.528h-1.5905-1.0599l-10.0719-11.662-5.3009-2.121-30.7454-7.421z"/><path d="m51.3588 574.47 30.7454 7.422 5.3009 2.12 10.0716 11.662-66.2617 4.771-9.0113 1.06 10.0716-22.794 8.4817 7.952 5.8309-.531 1.5902-7.421zm-45.58816 28.625-3.18043-4.24-1.59021-3.181v-.53-.53-.53-.53-.53-.53l1.59021-2.121 1.06025-.53 2.65047-.53 3.71037.53 2.1205.53h.53l1.0602 1.06.5303 2.121.53 1.59v.53.53.53l-.53 1.591v.53.53l-1.0602 2.12z"/><path d="m778.118 453.079 3.181 6.891-.53 27.565 9.011 9.542-26.504 14.312-32.866 6.361-6.361-10.601 11.132-6.362 8.481-15.372 12.192-12.192 5.301-5.301 7.952-9.012.53-3.18-.53-1.061-2.651-2.12z"/><path d="m728.816 440.357h1.59l11.132 1.59 4.241 1.06 1.59 1.591 1.59 2.12v1.06l3.711 1.59 5.301 1.591 5.301 1.06h2.65l2.651 2.12.53 1.06-.53 3.181-7.952 9.011-5.3 5.301-12.193 12.192-8.481 15.373-11.132-5.301-16.433-19.083-5.831-16.433z"/><path d="m676.343 464.742 25.974-4.771 5.831 16.433 16.433 19.083 11.132 5.301-11.132 6.361 6.361 10.602-7.421.53-30.745 3.711-8.482-7.951-3.711-4.771-7.421-15.903v-2.12z"/><path d="m689.062 401.13 26.505 7.952-1.59 12.722 3.71 4.241 6.892 4.24 3.71 5.301.53 4.241-26.504 19.614-25.975 4.77-7.951-1.06 5.301-32.335z"/><path d="m733.586 390.528 10.602.53 19.084 9.542 5.3.53 2.651 3.181-1.59 22.264 7.951 25.974-10.602-1.59h-2.65l-5.301-1.06-5.301-1.591-3.711-1.59v-1.06l-1.59-2.12-1.591-1.591-4.24-1.06-11.132-1.59h-1.59l-1.06-4.241-3.711-5.301-6.891-4.241-3.711-4.24 1.59-12.723z"/><path d="m771.757 404.311 9.541-12.723 10.602 6.361 14.313 9.012 4.77 4.241 5.301 9.011 2.121 6.892v7.421l-36.577 25.974-3.18-6.891-7.952-25.974z"/><path d="m817.873 433.996 7.951 2.12 3.711 4.771 19.083-10.602 10.072 5.301-.53 12.192-2.651 4.771-8.481 6.892-12.192.53-5.301 19.083-7.952.53-24.384 14.313-7.951 2.65-9.012-9.542.53-27.564z"/><path d="m869.827 385.228 5.831 5.3h3.71l3.711-2.65h.53l4.24 2.65 5.301 4.771-17.492 15.373 1.06 13.782-11.662 6.892-5.301 5.301-10.072-5.301-19.083 10.602-3.711-4.771 1.59 1.06h.53l5.831-4.771.531-.53.53-1.59v-7.952l-3.181-6.361v-1.06l2.12-5.831 3.711-6.891 2.121 1.59h2.65l4.77-4.241 2.651-2.65 2.65-3.181 9.012-6.361z"/><path d="m840.672 353.422 12.722 2.121 9.542 5.301 1.059 1.59.531 5.301-.531 4.241 2.121 6.891.53.53 2.65 1.59 2.651 1.06-2.651 2.651-8.481 3.18-9.011 6.362-2.651 3.18-2.65 2.65-4.771 4.241h-2.651l-2.12-1.59-18.023-4.241-2.651-27.565v-16.432l20.144-2.121z"/><path d="m816.815 370.385 2.651 27.565 18.022 4.241-3.71 6.891-2.121 5.831v1.06l3.181 6.361v7.951l-.53 1.591-.53.53-5.831 4.771h-.53l-1.59-1.061-7.952-2.12v-7.421l-2.12-6.891-5.301-9.012-4.771-4.241-14.312-9.011-10.602-6.361-9.542 12.722-3.181-3.181-4.24-12.192 14.842-5.301 27.565-13.782z"/><path d="m756.91 361.374 7.422 27.565 4.24 12.192-5.301-.53-19.083-9.542-10.602-.53-16.433-25.974 3.181 2.12 3.18 1.06 2.651.53 10.072-2.65 7.421-3.711 1.59-2.12 5.831-.53z"/><path d="m690.122 360.313 23.855 1.061 3.18 3.71 16.433 25.975-18.023 18.553-26.505-7.951-2.12-7.952-3.711-8.481-3.71-5.301-2.651-4.241-.53-4.241.53-2.12z"/><path d="m685.348 313.134 10.072 1.061 5.3 5.3 8.482 5.832 10.072.529 13.782 3.181-19.613 31.276-23.855-.53z"/><path d="m735.707 329.568 25.444 9.541-4.241 22.264-5.301-2.12-5.83.53-1.591 2.121-7.421 3.71-10.072 2.651-2.65-.53-3.181-1.061-3.181-2.12-3.18-3.711 19.613-31.275z"/><path d="m761.157 339.109 4.241 2.121 4.241-2.121 1.06-1.06 1.59-3.18.53-2.121v-1.06l.53-1.59.53-1.06 3.181-2.121 18.553 2.651 41.877 21.734-20.143 2.12v16.433h-9.542l-27.564 13.782-14.843 5.301-7.421-27.565z"/><path d="m871.414 310.485 10.602 4.241-3.71 1.06-2.121 1.06-.53 1.06 2.651 23.324 3.71 3.711 2.12 5.301v3.71l-2.65 10.602-5.831 14.313-2.12 2.65-1.06 1.06-2.651-1.06-2.65-1.59-.531-.53-2.12-6.891.53-4.241-.53-5.301-1.06-2.12-9.542-5.301-12.722-2.121-6.891-37.106h4.241l14.842-7.421 4.241-1.591h3.71z"/><path d="m871.413 283.98-5.831 14.843 6.361 11.662-10.602-2.651h-3.71l-4.241 1.591-14.843 7.421h-4.241l-11.132-22.264-.529-17.493 1.059-3.711.53-1.06 2.121-2.12h.53l15.373 3.18 13.252 6.891 7.421 2.651z"/><path d="m822.116 294.051 11.132 22.264 6.891 37.106-3.18-2.12-41.877-21.734-2.651-6.891-2.12-9.011 14.842-22.264.53-.53h5.301l5.832 1.06z"/><path d="m759.563 302.003 1.59 2.651 6.891 3.18 13.253 4.771 10.601 10.072 2.651 6.891-18.553-2.65-3.181 2.12-.53 1.06-.53 1.59v1.061l-.53 2.12-1.59 3.181-1.061 1.06-3.71 2.12-4.241-2.12-25.444-9.542 7.421-19.083z"/><path d="m698.603 298.292 25.444-1.061 19.614 12.723-7.422 19.083h-2.12l-13.782-3.181-10.072-.53-8.482-5.831-5.301-5.301z"/><path d="m680.053 270.198 18.023 28.095-2.65 15.902-10.072-1.06-33.396-2.12 3.18-29.686z"/><path d="m691.712 255.885 6.891 6.362 6.362 1.06 1.59 1.06 7.421 6.891 8.482 10.072 1.06 2.12.53 13.253-25.445 1.06-18.023-28.095z"/><path d="m755.323 271.258 8.482 1.59-4.241 29.155-16.433 7.951-19.613-12.722-.531-13.252z"/><path d="m816.283 270.197 5.301 6.361.531 17.493-5.301-2.65-5.831-1.06h-5.301l-.53.53-14.843 22.264 2.121 9.011-10.602-10.071-13.253-4.771-6.891-3.181-1.59-2.65 4.241-29.155 19.613-15.903 8.482 15.903z"/><path d="m824.763 241.572 4.24 13.253-12.722 15.902-24.385 2.651-8.481-15.903.53-12.722 6.891-13.253 3.181.531 9.542 5.301 5.301 3.71 10.071 2.121h4.241z"/><path d="m769.104 224.61 14.843 19.083-.53 12.722-19.613 15.903-8.482-1.59-20.143-20.144 6.361-5.301 2.12-2.12 5.301-8.482-1.06-3.18 1.06-7.422 4.771-8.481z"/><path d="m706.027 236.802 1.06-1.061h.531l12.192.531 1.59.53 3.181 2.65 4.24 7.952 5.301 6.361 1.061-1.061v-1.59l20.143 20.144-31.806 12.722-1.06-2.12-8.481-10.072-7.422-6.891-1.59-1.061-6.361-1.06-6.891-6.361z"/><path d="m686.41 215.598 19.614 21.203-14.313 19.084-30.745-25.975 9.541-15.903z"/><path d="m726.701 196.514 27.035 20.144-4.771 8.481-1.06 7.421 1.06 3.181-5.301 8.481-2.12 2.121-6.892 5.301v1.59l-1.06 1.06-5.301-6.361-4.24-7.951-3.181-2.651-1.06-.53-12.192-.53h-.531l-1.059 1.06-19.614-21.204 5.301-9.541 9.542 4.771 16.432-10.072z"/><path d="m681.639 190.684 9.542 15.373-5.301 9.541-15.903-1.59-11.662-2.65 2.121-11.663z"/><path d="m689.063 160.998-7.421 29.685-20.674 9.012-5.831-4.241-7.951-39.757 23.324 6.361z"/><path d="m724.048 178.492 3.181 18.023-9.542 4.771-16.433 10.071-9.541-4.771-10.072-15.372 7.421-29.685 4.241.53 1.59.53 1.06.53 11.132 11.662 10.072 4.771z"/><path d="m799.325 153.577-12.192 38.697-5.832 20.674 1.591 6.361-.53 1.06-5.301 3.18-7.952 1.591-15.372-8.482-27.035-20.143-3.181-18.023.53-5.831 1.061-1.591 1.06-1.06 10.072-4.241 1.59-.53h1.06l5.301 1.061 13.783 3.18h.529l4.241 2.12h.53l7.422 5.301 5.3-4.24 12.193-1.591 2.12-8.481z"/><path d="m859.752 197.574 1.06 8.482 4.241 4.771.53 6.891-1.59 5.831-23.854 3.711-5.831-20.674 15.902-24.384z"/><path d="m829.536 174.781 20.144 7.951-15.903 24.385-12.722-2.651-19.084-8.481-5.3-1.591-10.072-2.65 12.192-38.697 2.121-1.06 10.601-4.771 3.181-1.59h1.06l1.06.53.53.53v.53l.53.53v.53 1.06 1.061 2.12l1.06 5.301 3.711 10.602v.53l1.06 1.59 1.061 1.06 2.65 2.121z"/><path d="m787.131 191.744 10.071 2.65 5.301 1.59 19.083 8.482 12.723 2.65 5.831 20.674-14.843 13.782-2.12 1.061h-4.241l-10.071-2.121-5.301-3.71-9.542-5.301-3.181-.531-6.891 13.253-14.843-19.084 7.952-1.59 5.301-2.65.53-1.06-1.591-6.892z"/><path d="m840.141 227.79 23.854-3.71-3.18 13.782v3.711l5.831 3.18 2.12 4.241 3.711 1.59 6.361 10.072 8.482 3.181v1.06l-3.181 5.831-10.072 2.12-3.18 10.602-9.011-1.06-7.422-2.65-13.252-6.892-15.373-3.18h-.53l-2.12 2.12-.53 1.06-1.061 3.711-5.301-6.361 12.722-15.903-4.24-13.252z"/><path d="m895.797 282.919 14.843 18.023-10.072 11.662-18.554 1.591-10.601-4.241-6.361-11.662 5.831-14.843 3.18-10.602 10.072-2.12z"/><path d="m882.016 314.725 18.553-1.59 10.072-11.662.53 1.06 4.771 7.421 9.542 5.301 4.24-2.651 3.711 7.422 8.482 7.421 8.481 1.59 7.422-2.65 3.18 1.59-37.637 45.058-4.77 6.361-19.084 10.602-4.771 3.711-1.59 1.06-5.301-4.771-4.24-2.65h-.53l-3.711 3.18h-3.711l-5.831-5.301 2.651-2.65 1.06-1.06 2.12-2.651 5.831-14.312 2.65-10.602v-3.711l-2.12-5.301-3.71-3.71-2.651-23.325.53-1.06 2.121-1.06z"/><path d="m660.968 200.225-2.12 11.662 11.662 2.65-9.542 15.903-29.685 18.553-18.554-32.335 9.012-9.542 33.396-10.602z"/><path d="m631.282 248.463 29.686-18.553 30.745 25.974-11.132 14.313-24.914 11.132-5.832-1.59-6.891-2.651.53-13.252-5.301-3.711z"/><path d="m652.486 311.015 33.396 2.12 4.771 47.178-13.253 9.012h-19.083l-27.035-34.986 10.072-13.783z"/><path d="m677.396 368.794-.529 2.121.529 4.24 2.651 4.241 3.711 5.301 3.71 8.481 2.121 7.952-15.903 29.685-30.746-25.444 4.241-26.505 9.542 2.12 2.12-12.192z"/><path d="m668.387 463.682 7.951 1.06-3.71 25.974v2.121l7.421 15.903 3.711 4.77 8.481 7.952-4.24.53-66.792 6.361 10.602-22.794 7.951-12.722 2.12-10.072z"/><path d="m616.44 358.192 29.685 21.204-4.241 26.504-7.421-2.65-18.553 20.674.53-10.072-2.651-10.072-10.072-3.711-7.421-5.3-2.12-6.362v-13.252z"/><path d="m605.836 329.037 2.65-2.12 2.121-.53 9.541 5.301.53 3.71 4.241 5.301 2.12.53h.53l4.771-7.421 27.035 34.986-2.12 12.192-9.542-2.12-29.685-21.204-12.722-11.662z"/><path d="m609.018 297.762 23.854 6.891 7.421 15.373-10.072 13.782-4.77 7.422h-.53l-2.121-.53-4.24-5.301-.531-3.711-9.541-5.301-2.121.53-2.65 2.121v-7.952z"/><path d="m637.646 260.125 5.301 3.711-.53 13.252 6.891 3.181 5.831 1.59-2.651 29.685-11.662 9.012-7.421-15.373-23.854-6.891 2.12-19.084z"/><path d="m596.828 267.017 14.313 11.131-2.121 19.084-3.71 23.854-13.252-16.433-11.662-22.794z"/><path d="m612.727 216.128 18.553 32.336 6.362 11.662-26.505 18.553-14.313-11.132-4.77-25.444 18.023-22.264z"/><path d="m575.621 243.163 16.433-1.06 4.77 25.444-15.903 14.843-6.361 5.831-13.782-5.301-.53-33.926z"/><path d="m560.776 282.39 13.782 5.3 6.361-5.831 11.662 22.794-10.071 5.831-15.373 10.072-1.59 1.06h-1.06l-.531-.53-15.903.53-3.18-11.662 6.891-11.662z"/><path d="m592.588 305.183 13.252 16.433v7.951l-1.59 16.963-34.986 9.542-4.771-34.456.53.53h1.06l1.591-1.06 15.372-10.072z"/><path d="m604.247 346.531 12.722 11.661-22.264 16.963-24.384 3.181-.53-14.312-.53-7.952z"/><path d="m569.791 378.337 24.384-3.181v13.253l2.121 6.361 7.421 5.301 10.072 3.71 3.18 9.542-.53 10.072-20.673 22.794-9.542 2.65-9.542-11.662-3.18-10.602-14.843-7.951 9.542-18.023 3.711-.53z"/><path d="m616.438 423.394 18.553-20.673 7.421 2.65 30.746 25.445-5.301 32.335-26.505 18.554-9.011-4.241-7.952-13.783-9.541 5.301-9.012-4.24-11.132-6.362.53-11.661z"/><path d="m641.88 482.234-2.12 10.072-7.952 12.722-10.601 22.794h-1.061l-23.854 1.06-2.65-.53-1.591-.53-.53-1.06-3.18-9.542-.531-1.59v-2.651l.531-2.12-5.301-13.782-3.711-5.832 27.035-25.974 9.011 4.241 9.542-5.301 8.482 13.782z"/><path d="m576.156 437.177 9.541 11.662 9.542-2.651-.53 11.663 11.132 6.361-27.035 25.974-6.361 5.831-10.602-6.361-4.771-2.12-.53.53v.53l3.181 4.241-1.591.53h-1.06l-1.06-.53-4.771-6.362 5.301-5.3 2.12-12.193 4.241-6.361 7.952-15.902z"/><path d="m560.253 493.896-3.181-4.24v-1.061l.53-.53 4.771 2.121 10.602 6.361 6.361-5.831 3.711 5.831 5.301 13.782-.531 2.12v2.651l.531 1.59 3.18 9.542.53 1.06 1.591.53 2.65.53-39.757 2.651-2.65.53z"/><path d="m556.538 482.235-5.301 5.301 4.771 6.361 1.06.53h1.061l1.59-.53-6.361 38.697-18.023 3.18-24.385-30.215 16.433-21.734z"/><path d="m558.125 418.624 14.843 7.951 3.18 10.602-4.77 10.602-7.952 15.903-4.241 6.361-2.12 12.192-28.625 1.06-12.722-27.035 20.674-15.902z"/><path d="m516.78 397.42 2.65-1.591 12.193-1.06 12.192 6.891 4.771-4.24 6.361-4.241 5.301 1.06 7.951 5.831-9.542 18.553-21.734 21.734-12.192-16.963-7.421-9.011-14.843-9.542-.529-1.59v-4.771z"/><path d="m519.959 353.422 4.771 6.361 5.831 5.301 9.541 2.65 29.155-3.18.531 14.312 1.59 21.734-3.711.53-7.951-5.831-5.301-1.06-6.361 4.241-4.771 4.24-12.192-6.891-12.193 1.061-2.65 1.06v.53l-8.481-13.783z"/><path d="m564.491 321.616 4.77 34.456v7.952l-29.155 3.18-9.541-2.65-5.831-5.301-4.771-6.361 28.625-30.745z"/><path d="m509.362 285.041 42.937 13.782-6.891 11.662-29.155 9.012-12.192-7.422-2.651-2.65 7.952-18.553z"/><path d="m523.671 248.993 36.577-.53.53 34.456-7.952 16.433-42.937-13.782.53-18.023-8.481-3.711 1.59-1.59 1.06-1.06 2.12-1.061 4.771-1.59 4.771.53 3.18-1.59z"/><path d="m533.748 209.767 11.662-3.181 30.215 36.047-15.902 5.301-36.577.53-6.361-21.734z"/><path d="m561.842 194.394 17.493-11.662 3.711 16.433 21.204 18.553 2.65 1.061 3.711 1.06-18.023 22.264-16.433 1.06-30.216-36.047z"/><path d="m598.947 166.299 10.602.53 11.662 39.757-9.011 9.542-2.651 3.71-3.711-1.06-2.65-1.06-21.204-18.554-3.711-16.432 14.843-11.132z"/><path d="m646.657 156.227 7.952 39.757-33.396 10.602-11.662-39.757 13.782-4.241 21.734-13.782z"/><path d="m631.815 126.012 13.782 22.794-21.734 13.782-16.963-45.588z"/><path d="m606.898 117 16.963 45.588-13.783 4.241-10.602-.53-6.361-44.528z"/><path d="m592.588 122.301 6.361 44.528-4.771 4.771-18.023-11.132-1.59-7.422-12.722-20.143 5.831-13.253z"/><path d="m576.155 160.469 18.023 10.601-14.843 11.132-17.493 11.662-13.252-15.372z"/><path d="m527.385 193.334 20.673-14.312 13.252 15.373-16.432 12.722-11.662 3.18-23.855-22.794z"/><path d="m509.892 186.973 23.854 22.794-16.433 17.493-15.373-3.18-.53-10.072z"/><path d="m517.308 227.26 6.361 21.734-4.24 8.482-3.181 1.59-4.771-.53-4.771 1.59-2.12 1.06-1.06 1.06-1.59 1.591-23.325-13.253 23.325-26.504z"/><path d="m478.086 250.054 23.324 13.252 8.481 3.711-.53 18.023v4.771l-15.372 9.012h-20.144l-19.083 9.541-3.711 2.651-3.711 5.301-1.59-1.061 3.181-28.625 11.662-19.613z"/><path d="m509.358 290.341-7.952 18.554 2.651 2.65-10.602 17.493 1.06 1.06v.53l-7.421 9.012-4.241 3.18-5.301 2.121h-2.12l-28.625-27.565 3.71-5.301 3.711-2.65 19.613-9.542h20.144z"/><path d="m545.403 310.484 3.181 11.662-28.625 30.745-12.192 30.746-4.241 5.301-.53.53-6.361-2.121-.531-3.18v-5.301l.531-2.651 2.65-3.18-3.181-11.662-1.06-1.06-9.011-3.711-1.591-.53-8.481-12.192h2.12l5.301-2.121 4.241-3.18 7.421-9.012v-.53l-1.06-1.06 10.602-17.493 12.192 7.421z"/><path d="m484.444 356.603 2.121.53 9.011 3.711 1.061 1.06 3.18 11.662-2.65 3.18-.53 2.651v5.301l.53 3.18 6.361 2.121.53-.53 4.24-5.301 8.482 13.782-14.842 1.06-6.362 1.591-2.65 7.421-30.745.53.53-17.493 8.481-11.662 5.301-6.891z"/><path d="m492.931 406.961 2.65-7.421 6.361-1.591v4.771l.53 1.59 14.843 10.072 7.421 9.012 12.192 16.963-20.673 15.902-13.783-1.59-7.951-8.481z"/><path d="m493.458 446.719 7.952 8.481 13.782 1.59 12.722 27.035-16.432 21.734-19.084-1.59-4.241-27.035-2.12-10.072-2.12-6.361-1.061-4.771 3.711-5.831z"/><path d="m492.926 503.438 19.083 1.591 24.385 30.215-45.589 4.241-24.384 1.59-1.59-15.373 19.613-20.673z"/><path d="m379.489 508.209 4.24 8.481 23.855 1.59v5.301l1.59 20.674-19.613 4.771h-25.975l3.181-27.565z"/><path d="m436.207 493.896 28.095 31.806 1.59 15.373-29.685 1.06-27.034 1.06-1.591-20.674 12.722-13.252 3.711-6.361 7.421-8.481z"/><path d="m486.565 449.899-3.711 5.831 1.06 4.771 2.121 6.361 2.12 10.071 4.24 27.035-9.011 1.59-19.613 20.674-28.095-31.806 4.77-21.733 5.301-.531v-17.493h20.144z"/><path d="m462.711 407.492 30.745-.53.53 39.757-7.421 2.65-20.144 4.771h-20.143l.53-8.481-16.433-17.493 12.192-4.771-.53-15.373z"/><path d="m445.219 315.785 1.59 1.06 28.625 27.565 8.481 12.192-7.421 14.843-5.301 6.891-8.481 11.662-.53 17.493-20.144.53-2.12-7.951-7.952-10.072h-2.65l-2.121 1.06-3.71 1.59-13.253-4.77 12.193-35.517 18.023-5.301 3.181-10.071-4.771-19.614z"/><path d="m376.833 316.315 25.975-16.433-.53 4.771v.53 1.06.53.53l1.06 3.181.53 1.06v.53l.53.53 5.831 3.711 5.301 2.12h1.06l18.554 1.061 3.71-1.061 4.771 19.614-3.18 10.072-18.023 5.3-47.179-36.046z"/><path d="m315.877 341.23 20.143-13.253 22.795 23.324-1.061 1.06-1.06 7.422 9.542 21.734-2.12-1.061-24.915-10.071v-9.012l-5.301-7.421-7.951-7.952h-10.072z"/><path d="m358.282 351.832h1.061l1.59-.53 3.71-2.65 8.482-19.084-1.06-9.541v-1.591l.53-.53.53-.53 2.65-.53 47.179 36.046-12.192 35.517-1.591 1.06-10.601 5.831-12.723-4.771v-.53l-1.59-1.59-3.711-1.591-3.18 1.591-2.651 3.18-3.71 5.831-7.422-15.372 2.121.53-9.542-21.734 1.06-7.421z"/><path d="m371.003 396.36 3.711-5.831 2.65-3.181 3.18-1.59h.53l3.711 1.59 1.59 1.591v.53l12.723 4.771 10.602-5.831 1.59-1.061 13.252 5.301 3.711-1.59 2.12-1.06h2.651l7.951 9.542 2.12 7.951.531 15.373-12.193 4.77-39.757 6.362-3.71-7.422-15.903-2.65-10.072-27.035z"/><path d="m390.618 434.527 39.757-6.361 16.433 17.493-.53 8.481v17.493l-5.301.53-10.072-2.12-3.711-4.241-8.481 4.771-16.433-12.192z"/><path d="m402.278 458.38 16.433 12.193 8.481-4.771 3.711 4.241 10.072 2.12-4.771 21.734-4.241.53-7.421 8.481-3.711 6.361-12.722 13.253v-5.301l-23.854-1.59-4.241-8.482-10.072-18.023 4.241-28.625-1.06-3.181 11.132.53 4.241-2.12 4.771 4.241z"/><path d="m371.005 424.454 15.903 2.65 3.711 7.422 11.662 23.854-8.482 2.65-4.771-4.24-4.24 2.12-11.132-.53 1.06 3.18-4.241 28.625-35.516-7.951 3.18-23.854 9.542-14.313-1.59-6.361 4.771-1.59 2.12 3.711 3.181.53z"/><path d="m333.9 481.704 35.516 7.951 10.072 18.024-12.722 12.722-3.181 27.565-38.167 4.771-5.301-68.382z"/><path d="m293.084 485.415 26.504-.53 5.301 68.382-6.891.53-28.625 2.651z"/><path d="m308.451 427.104 28.625 30.746-3.18 23.854-14.313 2.651-26.504.53-10.602-13.253 2.12-4.771-8.481-10.601-1.591-9.012 9.542-14.843z"/><path d="m338.668 370.915 24.915 10.072 7.421 15.373-9.542 1.06 10.072 27.035-16.433 15.372-3.18-.53-2.121-3.71-4.771 1.59 1.591 6.361-9.542 14.313-29.155-30.746-2.12-10.072 7.951-14.312 12.722-11.662 13.252-8.482-6.361-5.831z"/><path d="m275.059 350.242 4.771 3.18 18.553 12.722 9.542-16.963 7.951-7.421-.53 5.301h10.072l7.951 7.951 5.301 7.422v9.011l-5.301 5.301 6.361 5.831-13.252 8.482-12.722 11.662-49.299-15.903 2.65-9.012 13.253-8.481-5.831-6.891z"/><path d="m264.988 386.818 49.298 15.903-7.951 14.312 2.12 10.072-24.914 6.361-7.422-6.361-5.83-21.734-16.434-11.131z"/><path d="m270.821 404.841 5.831 22.263 7.421 6.362-9.542 14.842 1.59 9.012 8.482 10.602-2.12 4.77-9.012 4.771-14.843 5.831-21.203-5.301-20.144-31.275 22.794-18.023 15.903-8.482z"/><path d="m282.48 472.162 10.602 13.252-3.18 71.563-39.757 4.241-6.892.53.531-13.783-1.061-40.287-10.072-4.77 4.771-24.915 21.204 5.301 14.843-5.831z"/><path d="m233.182 502.378 10.072 4.771 1.06 40.287-.53 13.783-20.673 2.65v-5.301l-21.204-.53-7.421.53-6.361-10.602-7.422-19.083 34.986-18.023z"/><path d="m171.69 483.295 12.192-6.361h6.891l10.072 16.963 14.313 16.433-34.986 18.023-12.193-18.023z"/><path d="m217.808 446.189 20.143 31.275-4.771 24.914-18.023 8.482-14.312-16.433-10.072-16.963h-6.891l1.59-9.012 33.926-27.034z"/><path d="m254.383 393.709 16.433 11.132-14.313 14.843-15.903 8.482-22.794 18.023 1.061-4.771-5.831-1.06v-5.301l-9.542 2.65-3.181-11.132 23.325-28.095z"/><path d="m255.443 344.94 19.614 5.301-.53 11.662 5.831 6.891-13.253 8.482-2.65 9.012-10.602 6.891-30.215 4.24-5.301-18.553-7.422-3.18-15.902-19.084 29.155-2.12 5.301-1.59-1.59 10.601 7.421 2.121 4.771-6.891-5.831-6.891 3.18-11.663 7.422 7.952z"/><path d="m183.884 374.626 5.831-.53 4.771 3.181 2.65-4.771 3.181-2.121-5.831-9.541 1.06-4.241 15.903 19.083 7.421 3.181 5.301 18.553-23.324 28.095-4.771.53-4.24-11.662-3.181 5.831-4.241 2.121-10.072-10.602-1.06-2.121-2.65-7.421-.53-3.711v-1.06l.53-1.59v-.53l1.06-1.59 2.12-3.711 5.831-4.241 1.591-1.59 1.06-1.59.53-1.591z"/><path d="m200.845 426.044 3.18 11.132 9.542-2.65v5.3l5.831 1.061-33.926 27.035-1.59 9.011-12.193 6.361-2.65-20.143-22.264-20.144 3.181-4.241 2.12-2.12.53-.53 3.181-1.59h.53 1.06l2.12-.53 2.651-.531 18.023-3.71h1.06l2.651-2.651v-2.65l4.241-2.121 3.18-5.831 4.241 11.663z"/><path d="m147.308 443.008 21.734 20.144 2.65 20.143-3.71 27.565-14.313-13.252-17.493 9.541-11.132-7.951 9.542 1.06h1.06l3.181-1.06 1.59-4.241 1.59-9.012-3.711-7.951-1.59-1.59-1.59-1.06-5.301-6.362-1.06-3.71v-1.06l3.71-15.903.53-1.59 1.591-2.121 1.06-1.06 1.06-.53 2.121-1.06.53-.53z"/><path d="m139.352 551.677 48.768-3.181 6.361 10.602 7.952 23.324-3.181 5.831-56.72 4.241z"/><path d="m136.174 507.149 17.493-9.542 14.312 13.252 12.192 18.023 7.422 19.084-48.769 3.18-2.12-31.275z"/><path d="m136.703 519.871 2.121 31.275 2.65 40.817h-3.711l-39.2267 2.651-2.6505-44.528-2.1202-28.625z"/><path d="m76.2728 477.994 48.7682 20.673 11.133 7.952.53 13.252-42.4079 2.651-.53-1.06-18.5532-43.468z"/><path d="m94.2959 522.522 2.1205 28.625-40.2873 1.06-7.4211-3.711v-3.71l3.7104-2.121 4.771-16.432 36.5765-4.241z"/><path d="m75.2127 477.994 18.5533 43.468-36.5766 4.24-4.7709-5.831-6.3609-13.782z"/></g></svg>