<svg fill="none" height="238" viewBox="0 0 380 238" width="380" xmlns="http://www.w3.org/2000/svg"><path d="m88.0933 202.481.752-1.425.9105-.119.1187.317-.8312 1.227zm4.0375-1.465 2.4145 1.029.8313-.118.6333-1.544-.2375-1.346-1.6625-.198-1.5833.713zm12.1522 3.959 1.464 2.177.95-.119.436-.198.594.515 1.464-.08.396-.593-1.148-.713-.752-1.464-.831-1.425-2.296 1.147zm7.996 3.522.514-.752 1.861.396.237-.198 2.415.277-.119.515-1.029.594-1.742-.119zm2.098 2.059.752 1.544 1.227-.436.118-.633-.633-.831-1.464-.119zm2.77-.475.911-1.148 1.86.95 1.742.435 1.742 1.109v.752l-1.425.712-1.94.396-.95-.594zm6.571 6.175.634-.515 1.345.634 3.009 1.425 1.346.831.633.95.752 1.741 1.583 1.03-.118.514-1.544 1.267-1.663.594-.593-.277-1.228.712-.95 1.267-.91 1.148-.712-.08-1.425-1.029-.119-1.781.237-.95-.633-2.256-.831-.713-.079-1.029.91-.396.831-1.227.198-.396-.633-.712z" fill="#d1d0dc" stroke="#fbfbfc"/><path d="m62.5815 178.184-.1187 33.805.6333.395 1.2271.08.5542-.436h1.0291l.0792 1.148 2.7312 2.692.198 1.029 1.3458-.752.2375-.079.1187-1.227.5542-.634.4354-.079.7521-.594 1.2271.832.2375 1.148.7521.435.4354.95 1.5437.712 1.3459 2.375 1.1083 1.544.9104 1.109.5542 1.464 1.9792.713 2.0583.831.3958 1.742.1979 1.227-.3958 1.345-.7125.911-.6333-.317-.5542-1.227-1.1083-.594-.7125-.435-.3167.317.5542 1.108.0791 1.465-.4354.197-.7521-.752-.8312-.514.1979.633.5146.713-.3167.316-.5146-.396-.8312-1.345-.3959-.911-.3958.396-.5146-.594.7125-.752-.5541-.594v-1.979h-.3167l-.3167 1.346-.4354.198-.3958-1.465-.2375-1.464-.3167-.198.1188 2.256v.436l-.5542-.515-1.425-2.375-.8312-.198-.2375-1.464-.6334-1.148-.6333-.436v-.91l.8312-.515-.1979-.119-1.0291.278-1.3459-.95-1.0291-1.148-1.9396-1.03-1.5834-1.029.5146-1.266v-.752l-.7125.633-1.1479.435-1.4646-.435-2.2562-.95h-2.1771l-.2375.198-2.5729-1.544-.8313-.119-1.1083-2.296-1.425.119-1.425.594.1979 1.781.4354-1.148.3959.119-.5542 1.742 1.2667-1.109.2375.634-1.5438 1.741-.5146-.118-.1979-.752-.5146-.317-.5146.435-1.1083-.712-1.2271.831-.7125.831-1.3458.832-1.8604-.08-.1979-.831 1.4645-.277v-.515l-.9104-.277.3959-.95.9104-1.543v-.713l.0791-.317 1.7417-.91.3958.515h1.1084l-.5146-1.03-1.4646-.118-1.9792 1.108-.95 1.346-.7125 1.029-.4354.91-1.6625.594-1.2271 1.029-.1187.634.9104.396.3167.831-1.1084 1.266-2.5729 1.663-3.0875 1.662-.8312.436-2.0979.435-2.098.911.7125.514-.5541.594-.1979.435-1.1084-.395-1.2666.079-.3167.91h-.3958l.1187-.95-1.425.515-1.1479.396-1.3458-.515-1.148.752h-1.2666l-.8313.515-.6333.316-.8313-.118-1.0291-.436-.9104.277-.3959.396-.6333-.435v-.752l1.2271-.515 2.4937.277 1.7417-.633.8312-.831 1.148-.278.7125-.316 1.1083.079.6333.515.3959-.119.9104-1.109 1.2271-.395 1.3458-.277.5146-.119.2771.198h.3166l.5146-1.465 1.5833-.594.7521-1.464.9104-1.781.6334-.594.1187-1.029-.6333.514-1.3458.277-.2771-.95-.5146-.118-.3958.395-.0792 1.148-.5542-.079-.5541-2.296-.5146.515-.4354-.198-.1188-.752-1.5833.079-.8313.435-1.0291-.118.5937-.594.1979-1.029-.2771-.752.5938-.396.5146-.079-.2771-.713v-1.741l-.3958-.396-.3167.593h-2.4146l-.5937-.514-.2771-1.544-.8313-1.425v-.396l.8313-.316.0791-.911.4355-.435-.3167-.198-.5146.198-.4354-1.109.3958-1.979 1.7813-1.266 1.0291-.634.7521-1.464 1.1084-.515 1.0291.436.1188.95.95-.119 1.2666-.95.6334.237.3958.238h.6333l.9105-.515.3166-1.741.3959-1.346.3958-.396-.4354-.752-1.0292.316-1.2667.317-.752-.198-1.425-.712-1.9792-.079-1.425-1.465.1979-1.544.2771-.95-.8313-.712-.752-1.465.1979-.317 2.6916-.197h.8313l.3958.395h.2771l-.0792-.633 1.5438-.237 1.0292.118.5541.436-.5541.831-.198.594 1.1084.633 1.9791.713.7125-.396-.9104-1.742-.3958-1.267.3958-.316-1.3458-.752-.1979-.436.1979-.633-.3167-1.544-1.1479-1.86-.95-1.663 1.1479-.752h1.2667l.7125.238 1.6625-.08 1.4646-1.425.4354-1.227 1.4646-.95.6333.396 1.1083-.237 1.4646-.832.4354-.079.3959.317 1.7812-.079 1.1084-1.227h.4354l1.425.95.7521.831-.198.435.2771.436.6334-.634 1.5437.119.1188 1.465.752.594 2.8105.237 2.4937 1.663.5542-.396 2.0583 1.029.8313-.238.752-.316 1.9396.752zm-45.5604 11.44.8313 2.098-.0792.396-1.1479-.119-.7125-1.583-.7125-.594h-.95l-.0792-1.029.7125-.95.4354.95.5938.594zm-1.0292 13.26 1.4646.317 1.4646.396.3167.396-.6334 1.464-1.227-.079-1.3459-1.425zm-8.19371-5.581.43542 1.029.43542.634-.43542.316-.83125-1.227v-.752zm-5.4625 28.936 1.34584-.911 1.34583-.396 1.02917.119.19791.633.75209.198.75208-.752-.11875-.633 1.10833-.277 1.14792 1.029-.43542.713-1.74166.435-1.10834-.198-1.46458-.435-1.74167.554-.63333.119zm19.39581-1.782.6334.752.8312-.633-.5937-.514zm1.1479 1.188.4355-.911.8312.119-.3167.752h-.95zm9.3417-.752.5542.712.3958-.435-.3167-.752zm3.4833-4.948.4355 2.296 1.1479.316 1.9791-1.148 1.7417-1.029-.6333-.91.1979-.95-.8313.514-1.1479-.316.6334-.436.752.317 1.5438-.712.1979-.594-.95-.317.3167-.752-1.1084.752-1.8604 1.425-1.9 1.148zm16.7438-7.838.95-.593-.3958-.713-.7125.396z" fill="#d1d0dc" stroke="#fbfbfc"/><path d="m300.754 173.81.911 2.89 1.464 3.839 2.098 3.721 1.465 2.494 1.9 2.177 1.583 1.465.634 1.147-.436.515-.317.515 1.148 2.929 1.148 1.148 1.029 2.098 1.425 2.295 1.782 3.246.514 3.009.198 4.75.277.712-.118 1.346-.95.515.118.752-.277.752.119.95.198.752-1.108 1.266-1.228.594-1.543.079-.594.634-.95.395-.515-.197-.435-.396-.119-1.148-.316-1.346-1.346-2.058-1.425-.911-1.544-.118-.317.514-1.227-1.742-.277-1.425-1.029-1.583-.713-.435-.633.831-.712-.119-.832-1.979-1.148-1.544-1.147-2.098-1.03-1.227-1.425-1.464.832-.95 1.266-2.177-.079-.634-1.781-.396-.633.238.118.237 1.029.396-.593 1.781-.317.198-.712-1.583-.515-1.939-.119-1.109.594-1.86v-3.761l-1.227-1.464-.515-1.227-2.058-.515-.752-.237-.633-1.03-1.346-.633-.436-1.346-1.108-.396-.95-1.464-1.663-.594-1.147-.594h-.871l-1.584.317-.079.752.317.396-.198.435-1.227-.079-1.465 1.425-1.425.752h-1.543l-1.267.515-.119-1.108-.633-.753-1.148-.435-.633-.594-3.207-1.543-3.008-.713-1.742.238-2.375.197-2.375.832-1.385.237-.079-3.166-1.03-.753-.712-.712.119-1.227 4.037-.515 10.094-1.148 2.692-.237 2.137.119 1.029 1.543.594.594 3.206.198 4.275-.237 8.511-.515 2.177-.277 2.019.079.158 1.148.871.317.079-1.821-.594-1.663.515-.554 2.177.198zm4.988 52.408.95-.277.514-.079.594-.91.911-.634.514.198.673.119.158.396-1.385.475-1.662.594-.911.475zm5.344-1.979.475.396 1.108-.831 2.098-1.663 1.464-1.543.99-2.613.396-.673.079-1.346-.277.198-.396 1.109-.594 1.82-1.266 2.059-1.742 1.662-1.346.752z" fill="#66668e" stroke="#fbfbfc"/><path d="m348.65 56.3663.357-.4354.435-1.3062-.99-.3563-.198-1.2271-1.543-.4354-.119-1.1083-2.89-9.2625-1.82-5.7396h-.357l-.277.6333-.277-.1979-.396-.3958-.593.7521v1.9791l.118 2.2563.752 1.1083v1.5833l-1.464 2.0188-1.029.4354v.4354l.435.7125v3.4042l-.317 3.6417-.079 1.9395.396.5146-.079 1.7813-.198.7125.396.2771 6.65-1.7417.871-.2375.712-1.1083z" fill="#d1d0dc" stroke="#fbfbfc"/><path d="m276.252 70.1412-1.266-3.2458-.911-3.6021-.95-1.2667-1.029-.7125-.633.4354-1.544.7125-.752 1.9792-1.108 1.4646-.436.2375-.594-.2375-.95-.8313.198-1.9792 1.346-.5145.317-1.3459.277-1.0291.95-.6334-.119-3.9583-.633-.9104-.515-.3167-.316-.8312.316-.3167.634.1187.079-.6333-1.029-.8708-.515-1.0292h-1.029l-1.781-.5542-2.178-1.3458h-1.108l-.277.2771-.396-.1979-1.227-.9104-1.148.7125-1.148.9104.119 1.425.396.1187.831.1979.198.3167-1.029.3167-1.029.1187-.594.7125-.119.8313.119.6333.119 2.1771-1.425.8312-.277-.0791v-1.6625l.514-.95.277-.95-.316-.3167-.752.3167-.396 1.6625-1.109.4354-.712.7521-.079.3958.277.3167-.277 1.0291-.911.198v.4354l.317.95-.435 2.4146-.634 1.5833.277 1.8604.198.4354-.316.95-.119.3167-.119 1.1083 1.425 2.375 1.148 2.573.594 1.9395-.317 1.8605-.396 2.375-.95 2.0583-.119 1.1083-1.306 1.2271 1.742-.0792 8.471-.9104 2.889-.3958.04.6729 2.692-.475 4.077-.5937 1.504-.198.039-.2375.08-.5541.831-1.4646.791-.6729-.079-2.0188.634-.6333.435-.1188.079-1.425.594-1.1875.396.2375.079.2375.317.0792.752-.3958z" fill="#d1d0dc"/><path d="m230.217 32.4975.712-.8312.871-.3167 2.138-1.5437.91-.2375.198.1979-2.019 2.0187-1.306.7521-.831.3563zm34.121 12.7063.277.9896 1.266.0791.515-.475-.159-.6333-.633-.7521-.871.0792-.633.0792-.119.4354zm-39.703-1.1875.278-.2375 1.108-.3167 1.425-.9104v-.3958l.277-.2771 2.375-.3958.95-.7521 1.742-.8313.079-.5146.752-1.1479.712-.3167.515-.7125.91-.9104 1.742-.95 1.86-.1979.436.4354-.119.3959-1.464.3958-.594 1.2271-.911.3166-.198.95-.95 1.2667-.118 1.0292.316.1979.396-.4354 1.425-1.1479.515.5146h.91l1.267.3958.594.4354.593 1.2271 1.109 1.1083 1.543-.0791.594-.3959.634.5146.633.1979.514-.3166h.436l.633-.3959 1.584-1.425 1.345-.4354 2.613-.1188 1.781-.752 1.029-.5146.594.0791v2.2563l.198.1187 1.148.3167 3.167-.8312.435-.4355.594.198v2.7312l1.266 1.2271.515.2771.515.3958-.515.1188-.317-.1188-1.464-.1979-.832.2771-.91-.0792-1.267.5542h-.712l-2.296-.5146-2.058.0792-.752 1.0291-2.771.2771-.95.3167-.436 1.2271-.514.4354-.198-.0792-.594-.6333-1.781.95h-.277l-.436-.6333-.316.0791-.752 1.7417-.396 1.5833-1.267 2.7709-.475-.3959-.554-.3958-.752-4.0771-1.386-.5542-.791-.9104-4.79-1.0687-1.148-.3959-3.246-.8708-3.127-.4354z" fill="#d1d0dc"/><path d="m276.252 70.1412-1.266-3.2458-.911-3.6021-.95-1.2667-1.029-.7125-.633.4354-1.544.7125-.752 1.9792-1.108 1.4646-.436.2375-.594-.2375-.95-.8313.198-1.9792 1.346-.5145.317-1.3459.277-1.0291.95-.6334-.119-3.9583-.633-.9104-.515-.3167-.316-.8312.316-.3167.634.1187.079-.6333-1.029-.8708-.515-1.0292h-1.029l-1.781-.5542-2.178-1.3458h-1.108l-.277.2771-.396-.1979-1.227-.9104-1.148.7125-1.148.9104.119 1.425.396.1187.831.1979.198.3167-1.029.3167-1.029.1187-.594.7125-.119.8313.119.6333.119 2.1771-1.425.8312-.277-.0791v-1.6625l.514-.95.277-.95-.316-.3167-.752.3167-.396 1.6625-1.109.4354-.712.7521-.079.3958.277.3167-.277 1.0291-.911.198v.4354l.317.95-.435 2.4146-.634 1.5833.277 1.8604.198.4354-.316.95-.119.3167-.119 1.1083 1.425 2.375 1.148 2.573.594 1.9395-.317 1.8605-.396 2.375-.95 2.0583-.119 1.1083-1.306 1.2271 1.742-.0792 8.471-.9104 2.889-.3958.04.6729 2.692-.475 4.077-.5937 1.504-.198.039-.2375.08-.5541.831-1.4646.791-.6729-.079-2.0188.634-.6333.435-.1188.079-1.425.594-1.1875.396.2375.079.2375.317.0792.752-.3958z" stroke="#fbfbfc"/><path d="m230.217 32.4975.712-.8312.871-.3167 2.138-1.5437.91-.2375.198.1979-2.019 2.0187-1.306.7521-.831.3563zm34.121 12.7063.277.9896 1.266.0791.515-.475-.159-.6333-.633-.7521-.871.0792-.633.0792-.119.4354zm-39.703-1.1875.278-.2375 1.108-.3167 1.425-.9104v-.3958l.277-.2771 2.375-.3958.95-.7521 1.742-.8313.079-.5146.752-1.1479.712-.3167.515-.7125.91-.9104 1.742-.95 1.86-.1979.436.4354-.119.3959-1.464.3958-.594 1.2271-.911.3166-.198.95-.95 1.2667-.118 1.0292.316.1979.396-.4354 1.425-1.1479.515.5146h.91l1.267.3958.594.4354.593 1.2271 1.109 1.1083 1.543-.0791.594-.3959.634.5146.633.1979.514-.3166h.436l.633-.3959 1.584-1.425 1.345-.4354 2.613-.1188 1.781-.752 1.029-.5146.594.0791v2.2563l.198.1187 1.148.3167 3.167-.8312.435-.4355.594.198v2.7312l1.266 1.2271.515.2771.515.3958-.515.1188-.317-.1188-1.464-.1979-.832.2771-.91-.0792-1.267.5542h-.712l-2.296-.5146-2.058.0792-.752 1.0291-2.771.2771-.95.3167-.436 1.2271-.514.4354-.198-.0792-.594-.6333-1.781.95h-.277l-.436-.6333-.316.0791-.752 1.7417-.396 1.5833-1.267 2.7709-.475-.3959-.554-.3958-.752-4.0771-1.386-.5542-.791-.9104-4.79-1.0687-1.148-.3959-3.246-.8708-3.127-.4354z" stroke="#fbfbfc"/><path d="m334.281 60.9979.119-2.1375-1.148-4.275-.277-.1188-1.148-.5146.317-1.1479-.317-.8312-1.068-1.8209.395-1.5437-.316-2.0583-.95-2.573-.317-1.9395 10.45-2.6521.119 2.1771.752 1.0687v1.5833l-1.465 2.0188-1.029.4354v.4354l.515.5938-.119 3.2062-.238 3.6813-.079 2.2166.396.5146-.079 1.8209-.198.6729.396.2771-2.929.5937z" fill="#d1d0dc" stroke="#fbfbfc"/><path d="m365.275 31.1914.752.8312.911 1.4646v.7521l-.832 1.8604-.752.2375-1.346 1.2271-1.9 2.1771h-.514l-.396-.8313-.712.0792-.396.5541-.95.5542-.396.5542.633.5541-.198.2771-.198 1.1084-.752-.0792v-.5542l-.118-.5146-.594.1188-.713-1.2667-.831.5146.515.5542.118.4354-.316.5146.118 1.2271.08.6333-.634 1.0292-1.148.1979-.118 1.1479-2.098 1.2271-.515.1979-.633-.5542-1.227 1.425.396 1.2667-.594.5146-.079 1.7416-.436 2.4938-.989-.475-.198-1.2271-1.465-.5146-.119-1.1083-2.889-9.2625-1.861-5.7792.555-.0396.593.1584v-1.0292l.515-1.7812 1.029-1.8605.594-1.5833-.752-.95v-2.375l.316-.3958.317-1.1084-.079-.5937-.079-1.9.712-1.9 1.148-3.5229.831-1.6625h.515l.515.0791v.4354l.514.9105 1.108.277.317-.3166v-.3959l1.583-1.1479.713-.7125.594.0792 2.375.95.752.3958 3.562 11.8355h2.375l.317.752.079 1.9 1.148.9105h.317l.079-.198-.198-.4354zm-8.273 11.9541.594-.5937.554.4354.238.95-.673.3562zm2.652-2.3354.713.7521.514-.0792.08-.7916.356-.3167-.317-.7125-.792.2771z" fill="#d1d0dc" stroke="#fbfbfc"/><path d="m345.998 70.8144-1.464-5.9374 2.493-.7521.871.7521 1.307 1.702 1.068 1.7417-1.187.6333-.515-.0791-.435.7125-.95.752z" fill="#d1d0dc" stroke="#fbfbfc"/><path d="m328.7 74.7332-.435-.3958-1.029-.0792-.911-.7521-.633-2.4145-1.386.0395-.949-1.0687-7.68 1.7416-17.021 3.4438-2.968.475-.277-2.5729.554-.4354.514-.4354.396-.6334.713-.4354.752-.7125.198-.6333.831-1.1084.435-.3958-.079-.3958-.514-1.2271-.713-.0792-.752-2.4146 1.148-.7125 1.742-.5541 1.583-.5146 1.267-.1979 2.493-.0792.753.5146.633.0792.831-.5146 1.029-.4355 2.059-.1979.831-.7125.712-1.2666.634-.7521h.831l.752-.4354.079-.9105-.594-.8312-.118-.5542.435-.8312v-.5542h-.712l-.713-.3167-.317-.4354-.079-1.0291 2.296-2.1771.277-.3167.594-1.1479 1.148-1.7813 1.108-1.4645.831-.95.95-.7125 1.227-.475 2.178-.5146 1.266.0791 1.782-.5541 3.008-.8313.198 1.9792.95 2.5729.316 2.0583-.395 1.5438 1.029 1.7812.316.8313-.316 1.1479 1.148.5146.277.1187 1.227 4.3542-.198 2.0188-.198 4.275.317 2.1771.316 1.4249.594 2.8896v3.2063l-.435.9104.712.7917.317.6729-.752.7125.119.5146.514-.1188.594-.5146.91-1.0291.436-.2375.633.2375.91.0791 3.128-1.5437 1.147-1.1084.515-.5541 1.663.6333-1.346 1.425-1.544.8708-2.81 2.098-1.03.3958-2.295.7521-1.584.4354-.475-.1979-.079-1.4646.198-1.1083-.079-.8313-1.109-.6729-1.781-.3958-1.544-.4355z" fill="#66668e" stroke="#fbfbfc"/><path d="m326.602 88.9436.515-.1187.91-.475.475-.9896.633-.9104 1.267-1.2271v-.3167l-2.375-1.5833-.396-1.0292-1.108-.1187-.079-.4354-.317-1.1084.911-.4354.079-.95-.515-.5146.079-.6333.752-1.2271v-1.2271l1.069-1.0291-.356-.2771-.99-.0792-.91-.7521-.594-2.4146-1.385.0396-.99-1.0687-7.165 1.6625-17.02 3.4437-3.523.5542-.238-2.5729-2.137 2.0187-.515.1979-1.662 1.1875 1.148 7.5605.989 3.8396 1.425 7.6395 1.306-.2375 4.711-.5937 15.002-3.0479 5.898-1.1084 3.285-.6333.119-.0792.831-.6333z" fill="#d1d0dc" stroke="#fbfbfc"/><path d="m328.423 74.6145-.91 1.0688v1.227l-.752 1.2271-.079.6334.514.5145-.079.95-.91.4355.316 1.1083.079.4354 1.109.1188.396 1.0291 1.425.95.95.6334v.3166l-1.188 1.0688-.633.9104-.594 1.1083-.91.5146-.198.5938-.08.475-.237 1.0291.435.8709 1.267 1.1479 1.9.9104 1.583.2375.08.5542-.317.3958.119 1.1083h.316l.832-.95.316-1.9395 1.109-1.5834 1.227-2.5729.435-2.1771-.277-.4354-.079-3.7208-.634-1.3459-.435.3167-1.108.1187-.198-.1979.435-.3958.831-.7521.04-.4354-.158-1.3458.237-1.1084-.039-.7916-1.109-.7125-2.018-.475-1.623-.5542z" fill="#d1d0dc" stroke="#fbfbfc"/><path d="m326.8 90.3687.159-.8313.158-.6729-.633.1583-.634.198-.871.7125.673 1.9791.911 2.2563.831 3.8396.633 2.4937 1.98-.079 2.414-.4751-.91-2.9292-.396.1979-1.425-.95-.713-1.8604-.752-1.425-1.266-1.1479-.357-.8313z" fill="#d1d0dc" stroke="#fbfbfc"/><path d="m332.421 99.9082-2.375.4748-2.019.04-.712-2.7315-.752-3.6417-1.029-2.4541-.515-1.7417-2.969.6333-5.898 1.1084-14.843 3.0083.435 1.9792.396 2.2562.119-.1187.831-.95.91-1.0292.95-.2375.594-.5542.713-1.0291.514.2375 1.148-.1188 1.029-.8312.792-.5542.712-.1979.634.4354 1.148.5542.752.7125.475.5937 1.623.673v1.1479l2.177.5146.435.1979.554-.7917 1.148.7917-.514.9896-.317 1.5831-.713 1.029v.832l.278.712 2.018.554 1.702-.039 1.227.396.832.118.396-.831-.594-.831v-.713l-.95-.831-.831-2.1771.514-2.0979-.079-.8312-.515-.5146.594-.9104.198-.8313.752-.5146.752-.6333.198.3958-.594.6334-.514 1.4646.119.4354.712.1187.198 2.1771-.831.3958.118 1.425.198-.0791.436-.7521.633.7125-.633.5143-.119 1.346 1.029 1.346 1.544.198.633-.317 1.267 1.663.554.198 2.652-1.109.792-1.583zm-6.333 3.5628.435.989.079.713.436.752.356-.475-.277-1.227-.277-.911z" fill="#d1d0dc" stroke="#fbfbfc"/><path d="m329.175 105.331-.04-.792 2.573-.989-.316 1.267-1.148 1.504-.159 1.821.198 1.345-.712 1.98-.871.752-.594-1.821.198-2.177.633-1.663zm1.346 11.202-23.038 4.988-14.804 2.098-2.652-.159-1.029.752-2.89.08-3.325.395-4.314.634 4.156-2.217v-.831l.594-.831 4.156-4.553 1.583 1.782 1.504.396.99-.436.871-.514.989.514 1.544-.554.752-1.821 1.03.198 1.147-.831.713.198 1.108-1.465.119-.831-.396-.515.396-.752 2.098-4.869.237-2.256.475-.198.871.95 1.544-.118.752-3.009 1.108-.237.396-1.069 1.029-.95 1.109-2.2563.039-2.0187 3.879 1.5041.317-2.0187 1.465.6333.039 1.148 2.296.5145.831.475.673.8313-.277 1.4245-.791 1.03.039.831.238.752 1.979.515h1.781l1.227.395.752.119.277 1.227 1.267.159.356.475-.158 1.86.554.435-.198.752.475.317-.079.554-1.069-.039.04.633.91.594.04.554.712.712.198.99-.989.554.633.594 2.296-.673z" fill="#d1d0dc" stroke="#fbfbfc"/><path d="m301.309 94.604.435 1.9396.435 2.375.832-1.0291.91-1.2271.99-.2375.593-.5542.713-1.0291.594.2374 1.148-.1187 1.029-.8312.791-.5542.713-.1979.514.3958 1.425.7125.753.7125.554.5146-.317 2.2166-2.296-.9895-1.662-.6334-.04 2.0584-1.108 2.1775-.99.95-.475 1.108-1.029.198-.356 1.425-.396 1.583-1.583.119-.911-.95-.435.237-.238 2.177-.514 1.386-1.979 4.354.356.475-.079.752-1.109 1.544-.712-.198-1.188.871-.989-.238-.792 1.821-1.544.554-.989-.475-.911.554-.95.396-1.464-.356-.436-.475-.871-1.187-1.227-.792-.673-1.425-1.702-1.386-.277-.91-1.029-.594-.317-.633-.079-2.058.871-.04.752-.317.079-1.108.634-.594.079-1.979.396-1.544.514-.237.515.435.198.713.712-.396.198-.633-.435-.713v-.95l.396-.514.91-1.346.515-.5544.831.1979.91-.6334 1.227-1.3458.911-1.5438.119-2.2562.197-1.9792v-1.8604l-.435-1.2271.396-.5541.514-.5146 1.386 7.8375 1.821-.3167z" fill="#d1d0dc" stroke="#fbfbfc"/><path d="m291.057 76.5144-2.415 1.6229-1.544.9104-1.346 1.4646-1.583 1.5438-1.267.3166-1.148.198-2.177 1.0291-.831.0792-1.346-1.2271-2.058.2375-1.029-.5542-.95-.5541-1.94.2771-4.037.6333-4.434.8708.515 5.7792.712 5.4229 1.03 9.2626.237 1.9 1.623-.04.95-.316 1.346.593.831 1.742h2.019l.752.831.712-.039.99-.515.99.159 2.137.197.673-.831.91-.514.832-.277.277 1.108.712.396 1.386.91.871-.039.514-.198.079-1.109.634-.593.039-1.9.396-1.623.515-.238.514.436.198.672.673-.395.158-.594-.435-.752.04-.911.316-.435.871-1.306.396-.5941.831.198.911-.6334 1.227-1.3458 1.108-1.6229.119-2.0188.198-1.9792-.08-2.0979-.395-1.1479.118-.475.713-.7125-.911-3.6021z" fill="#d1d0dc" stroke="#fbfbfc"/><path d="m245.259 118.75.039-1.148.198-1.781.911-1.148.712-1.544 1.029-1.662-.198-2.296-.712-1.109-.119-1.266.317-2.177-.198-2.771-.515-6.3336-.514-6.0958-.396-4.6312 1.227.3562.594.3958.435-.1187.831-.7521 1.109-.6333 2.019-.0792 8.708-.9104 2.217-.1979.593 6.3333 1.663 14.5669.237 2.296-.158.91.475.713.04.554-.99.633-1.385.594-1.267.198-.238 1.939-1.82 1.307-1.109 1.583.119.95-.238.594h-1.306l-.633-.634-.99.515-1.068.594.079 1.187-.475.119-.198-.396-.871-.594-1.267.515-.593 1.187-.555-.316-.593-.634-1.782.198-2.216.396z" fill="#d1d0dc" stroke="#fbfbfc"/><path d="m245.219 118.868v-1.266l.238-1.821.91-1.148.752-1.623.871-1.583-.158-2.059-.792-1.385-.04-1.346.278-2.098-.317-2.85-.436-6.2539-.514-5.9375-.356-4.5916-.119-.3563-.317-1.0292-.514-1.4645-.634-.7125-.593-1.0292-.08-2.1771-18.129 1.0292.079.95.911.2771.356.4354.198.7125 1.544 1.3458.277.9104-.277 1.3459-.713 1.4645-.277.9896-.91.7125-.713.2771-2.098.5542-.277.7125-.277.8312.277.5542.713.6333-.079 1.6229-.713.6334-.277.6333v1.0688l-.713.1979-.633.4354-.079.5542.079.8312-.673.5146-.396 1.1083.198 1.4644.911 2.89 2.889 2.969 2.177 1.464-.079 1.702.356.554 2.534.198 1.069.554-.278 1.465-.91 2.335-.277 1.267.91 1.544 2.534 2.098 1.821.277.831 1.979.831 1.267-.356 1.187.633 1.623.713.831.554-.356.356-.831.871-.713.831-.237 1.029.475 1.425.554.475-.119.079-.91-.514-.95.119-.95.712-.554 1.188-.317.514-.198-.237-.554-.317-.95.554-.396z" fill="#d1d0dc" stroke="#fbfbfc"/><path d="m345.998 70.8144-1.464-5.8979-1.861.3563-8.392 1.8604.396 1.2666.594 2.8896.079 3.5625-.475.8708.752.7521 1.702-1.5437 1.425-1.2667.752-.8312.317.2375 1.108-.5542 2.059-.4354z" fill="#d1d0dc" stroke="#fbfbfc"/><path d="m243.477 78.1372-.039-1.2666-.475-1.7813-.277-2.4146-.436-.95.396-1.2271.317-1.1479.594-1.0291-.278-1.3459-.277-1.425.198-.7125.752-.95.08-1.1083-.317-.5146.277-1.0292-.198-1.6625 1.108-2.2562 1.148-2.6917.079-.9104-.118-.3958-.317.1979-1.662 2.4937-1.109 1.5834-.752.7125-.317.9104-.791.3167-.436.752-.593-.1187-.08-.7125.515-.95.831-1.8604.713-.6334.396-.95-1.03-.752-.791-4.1167-1.386-.5146-.791-.9104-4.79-1.0688-1.148-.3958-3.246-.8708-3.127-.475-1.504-2.0188-.317.2375-.475-.0791-.277-.4355-.514.1188-.436.0792-.712.3958-.396-.2771.277-.7521.752-1.2271.436-.4354-.753-.5541-.831.3166-1.148.7521-2.929 1.2667-1.148.2771-1.148-.198-.396-.3562-.831 1.1083-.079 1.0688v3.3646l-.435.6333-2.098 1.5437-.911 2.3355.198.0791.99.8313.277 1.2666-.713 1.2667v1.5438l.198 2.6125 1.188 1.1875h1.346l.712 1.2666 1.346.1979 1.544 2.2563 2.81 1.6229.831 1.0688.357 2.9291.277 1.3063.91.6333.079.5542-.831 1.3458.079 1.2667.99 1.5437.989.4354 1.188.198.515.5541z" fill="#d1d0dc" stroke="#fbfbfc"/><path d="m330.521 116.494.831 1.939 1.425 2.573.95.95.277.91-.95.08.317.237-.119 1.663-1.029.514-.277.831-.515 1.148-1.464.634-.95-.119-.594-.079-.633-.515.118.515v.396h.753l.316.514-.752 2.494h1.663l.277.633.91-.91.515-.198-.752 1.425-1.227 1.94h-.515l-.435-.198-1.109.237-2.058.95-2.573 2.098-1.346 1.86-.752 2.573-.198.95-1.86.198-2.177.515-3.959-3.246-4.987-3.008-1.148-.317-4.988.594-1.702.316-.633-1.266-1.188-.831-6.531.197-2.889.317-3.563 1.781-2.414 1.03-8.392 1.029.198-1.584.712-.593 1.109-.238.277-1.464 1.662-1.109 1.544-.594 1.662-1.425 1.742-.831.277-1.227 1.544-1.544.277-.079.317.436.752.118.91-1.425.831-.237.911.119.633-1.425 1.148-1.03.198-.831.079-1.425h1.702l2.85-.356 6.254-.871 5.978-.831 8.55-1.861 7.916-1.702 4.434-.95zm1.662 13.141 1.03-.989 1.266-1.03.594-.237.079-.792-.277-2.414-.594-.911-.277-.752.277-.079 1.109 2.177.158 1.781-.079 1.346-1.346.594-1.108.95-.436.475z" fill="#d1d0dc" stroke="#fbfbfc"/><path d="m318.963 99.2749-.713-.7125-.475-.2771.555-.7916 1.147.752z" fill="#d1d0dc"/><path d="m318.963 99.2749-.713-.7125-.475-.2771.555-.7916 1.147.752z" fill="#d1d0dc"/><path d="m361.376 121.778-.317-.357-.554-.554-.237-.277-.594-.633-.238-.277-.989-.99-.158-.198-3.88-3.879-.435-.475-.396-.435-.119-.159-1.543-1.544-.317-.277-2.296 2.296h-.039l-1.425 1.425-.673.752-.277.238-1.148 1.187.158.198.079.356.238.357.514.593.198.594.158.159.555.514.277.158.594.238.316.04.198.039.396.04.237.118.198.792.079.238.396.831h.238l.079.079.237.396v.198l.159.237.198-.039.039-.159-.079-.198.079-.039.159.119.198.277.118.316v.238l-.039.158.079.238.475 1.108-.079.831-.634.159h-.198l-.039.158v.356l.119.159.079-.04h.119l.158.158.079.357-.079.712.039.198.04.396.158.079-.237 1.385.039.911 2.811-2.929.079-.04h.04l.039-.04.119-.079.119-.118.237-.277.594-.594.396-.357 1.939-1.939.277-.238 1.307-1.306.554-.594 1.069-1.068z" fill="#d1d0dc"/><g stroke="#fbfbfc"><path d="m318.963 99.2749-.713-.7125-.475-.2771.555-.7916 1.147.752z"/><path d="m318.963 99.2749-.713-.7125-.475-.2771.555-.7916 1.147.752z"/><path d="m361.376 121.778-.317-.357-.554-.554-.237-.277-.594-.633-.238-.277-.989-.99-.158-.198-3.88-3.879-.435-.475-.396-.435-.119-.159-1.543-1.544-.317-.277-2.296 2.296h-.039l-1.425 1.425-.673.752-.277.238-1.148 1.187.158.198.079.356.238.357.514.593.198.594.158.159.555.514.277.158.594.238.316.04.198.039.396.04.237.118.198.792.079.238.396.831h.238l.079.079.237.396v.198l.159.237.198-.039.039-.159-.079-.198.079-.039.159.119.198.277.118.316v.238l-.039.158.079.238.475 1.108-.079.831-.634.159h-.198l-.039.158v.356l.119.159.079-.04h.119l.158.158.079.357-.079.712.039.198.04.396.158.079-.237 1.385.039.911 2.811-2.929.079-.04h.04l.039-.04.119-.079.119-.118.237-.277.594-.594.396-.357 1.939-1.939.277-.238 1.307-1.306.554-.594 1.069-1.068z"/><path d="m356.092 68.558.871-.2771.198-.6729.396.0396.395.9104-.514.1979-1.544.0396zm-3.721.3563.911-1.0292h.633l.712.5938-.95.3958-.87.3958zm-13.735-8.7084 7.006-1.8208.91-.2375.752-1.1083 1.465-.673 1.148 1.7417-.95 2.0583-.119.5542.752 1.0292.436-.3167h.712l.911 1.0292 1.543 2.375 1.425.1979.911-.3958.712-.7125-.316-1.1084-.832-.6333-.593.3167-.396-.5146.198-.1979.831-.0792.712.3167.753.95.395 1.1479.119.95-1.662.5542-1.544.752-1.544 1.7813-.752.5542v-.3959l.95-.5541.198-.7125-.317-1.2271-1.148.5541-.316.5542.198.9104-.832.3959-1.108-1.7813-1.346-1.7417-.831-.7125-2.573.7521-2.098.5542-8.194 1.8208-.277-1.9.277-4.1958 1.702-.3563z" fill="#d1d0dc"/><path d="m275.777 125.954-20.544 1.979-6.254.713-1.82.198h-1.544l-.079 1.623-3.246.118-2.771.238-3.206-.04-.555 2.811-.633 2.177-.475 1.306-.712 2.415-1.109.95.515 1.583 1.227.198-.712.475-.08 1.029 40.375-3.879.159-1.583.712-.594 1.108-.317.278-1.464 1.622-1.069 1.584-.594 1.623-1.425 1.741-.792.198-1.227 1.623-1.583.198-.04.317.436.752.158.91-1.425.832-.237.91.118.633-1.385 1.188-1.029.158-.752.119-1.465-.871-.079-1.029.792h-2.771l-7.283.95z" fill="#d1d0dc"/><path d="m235.046 135.77-1.583.277-2.019-.237.158-.633 1.188-1.03.356-1.464-.712-1.188-31.034.99.634 2.731v3.246l.554 4.354.079 14.963.91.752 1.188-.554 1.069.435.277 2.613 22.008-.436.475-.831-.119-1.386-.712-1.187.633-.594-.633-.989.277-.99.554-2.217.99-.831-.277-.91 1.464-2.138 1.069-.554-.04-.594-.118-.712 1.148-2.217.95-.514.158-1.346.712-.475-1.227-.198-.514-1.584 1.108-.95.198-.791.515-1.584z" fill="#d1d0dc"/><path d="m221.034 98.2059-.99-1.2271-.435-.9104-25.492.95-.91.0395.514.9896-.079.9104.99 1.5441 1.227 1.623 1.227 1.068.871.08.593.356v1.187l-.712.634-.198.91.831 1.346.99 1.187.989.713.554 4.631.119 14.29.079 1.86.198 2.138 8.867-.357 9.183-.277 8.234-.316 4.631-.08.871 1.346-.277 1.307-1.228.95-.237.712 2.137.198 1.544-.277.673-2.177.277-2.336.831-1.029 1.03-.594v-1.187l.395-.752-.672-.99-.515.396-.792-.871-.514-1.9.316-.989-.752-1.346-.712-1.821-1.9-.317-2.771-2.216-.673-1.623.317-1.267.831-2.414.198-1.148-.792-.396-2.731-.317-.396-.673-.039-1.662-2.178-1.346-2.77-3.088-.911-2.889-.079-1.6627z" fill="#d1d0dc"/><path d="m266.119 140.719v.871l.079.831.277 1.346 1.346 3.127.95 3.918.594 2.415.633 1.94.594 2.77.831 2.494 1.029 1.346.198 1.346.752.317.08.831-.713 1.939-.198 1.267-.079.752.633 1.742.119 2.098-.317.95.278.316.593.317.079 1.267.871 1.346.871.87 3.127.08 4.275-.238 8.511-.515 2.177-.277h1.821l.079 1.148 1.029.317.119-1.742-.634-1.781.436-.633 2.296.316 1.979.119-.317-2.494.91-3.958.594-1.662-.198-1.03 1.307-2.454-.198-.554-.752.277-1.03-.514-.277-.832-.514-1.425-.911-.831-1.029-.237-.633-1.94-1.148-2.494-1.663-.752-.831-.752-.514-1.029-.832-.752-.91-.515-.911-1.148-1.227-.91-1.781-.713-.198-.593-.95-1.148-.198-.594-1.346-1.979-1.385.039-1.504-.95-.554-.514-.119-.713.356-.752.871-.435-.237-.831z" fill="#66668e"/><path d="m302.773 161.579-.713.396-1.029-.515-.277-.831-.514-1.425-.911-.831-1.029-.238-.633-1.939-1.109-2.375-1.662-.752-.831-.752-.515-1.03-.831-.752-.911-.514-.91-1.148-1.227-.911-1.781-.712-.198-.594-.95-1.148-.198-.594-1.346-2.058-1.346.079-1.583-.95-.515-.514-.119-.713.317-.752.911-.396-.198-.91 2.296-.911 3.602-1.82 3.087-.317 6.373-.158 1.029.752.673 1.346 1.702-.238 4.988-.594 1.148.317 4.987 3.008 4.117 3.207-2.138 2.177-1.029 2.414-.198 2.494-.633.317-.436 1.108-.95.237-.831 1.425-1.108 1.109-.911 1.346-.633.316-1.425 1.307-1.148.079.396 1.266-1.979 2.177z" fill="#d1d0dc"/><path d="m287.375 116.889-.91.95-1.425 1.584-1.94 2.177-.475.673-.039.831-1.742.871-2.256 1.346-2.85.712-20.544 1.94-6.214.673-1.821.197h-1.544l-.079 1.663-3.246.04-2.771.237-3.166-.04.475-.514.989-.594.079-1.267.357-.712-.634-.99.317-.752.91-.712.832-.238 1.108.515 1.425.514.435-.118.079-.911-.514-.95.119-.91.752-.594 1.029-.237.633-.238-.316-.712-.278-.752.594-.396.475-1.465 1.188-.594 2.098-.395 1.781-.198.554.633.594.356.633-1.227 1.267-.514.871.593.158.396.475-.119-.079-1.187 1.227-.713.871-.435.593.673h1.307l.237-.633-.158-.911 1.029-1.583 1.9-1.346.277-1.9 1.148-.198 1.504-.633.95-.673-.079-.634-.435-.593.237-1.188 1.663-.039.91-.317 1.306.554.792 1.742h2.019l.791.871.634-.04 1.029-.515 2.058.238 1.029.079.673-.831 1.029-.554.753-.277.277 1.108.791.435 1.029.832.04 2.256.317.633 1.029.634.317.91 1.662 1.346.713 1.425z" fill="#66668e"/><path d="m249.89 182.241-.594-5.66-1.108-7.442.079-5.581.317-12.271-.08-6.571.08-2.533 17.614-1.425-.079.871.079.831.277 1.346 1.346 3.127.95 3.919.594 2.414.633 1.94.594 2.771.831 2.494 1.029 1.345.198 1.346.752.317.079.831-.712 1.94-.198 1.266-.079.752.633 1.742.119 2.098-.317.95.277.317.594.316.119 1.148-2.217-.158-2.691.237-10.094 1.148-4.117.555-.079 1.147.712.713 1.03.752.237 3.127-2.177 1.029-1.187-.118 1.108-.753v-.395l-1.227-2.375-.911-.238-.593 1.742-.515 1.108-.277-.079z" fill="#d1d0dc"/><path d="m240.667 181.766-1.307-1.266.396-2.178-.277-.356-3.681.396-9.896.198-.277-.95.356-3.365 1.306-2.375 1.98-3.443-.238-.95.515-.277.198-.792-.911-.831-.039-.752-.713-1.742-.079-2.494-21.969.356v3.8l.277 3.721.277 1.544.99 1.623.356 1.979 1.702 2.177.079 1.267.278.277-.278 3.364-1.187 1.98.633.831-.277.989-.277 2.89-.554 1.267.04 1.425 1.86-.594 4.79.079 4.077 1.425 2.573.436 1.464-.594 1.267.435 1.266.396.317-.831-1.267-.436-1.029.198-1.108-.633.317-.594 1.227-.396.712.594.713-.396 1.266.238.594.95.119.91 1.781.119.713.712-.317.634-.515.316.634.634 3.325 1.425 1.425-.515.396-.95 1.029-.237.712-.594.515.396.316 1.148-.91.316.277.238 1.346-.515.91-1.346.317-.197-.831-.119.316-.634-.079-.593.832-.198.435-.515.277.317.277 1.227 1.663.237 1.583.753.396.593h1.148l.435.396.911-1.227v-.594h-.515l-1.346-1.108-2.296-.317-1.266-.91.435-1.108.91.118.08-.237-.713-.396v-.198h1.267l.712-1.227-.514-.752-.119-1.108-.594.079-.752.831-.277 1.029-1.227-.237-.396-.713.713-.752.752-1.385-.436-.95z" fill="#d1d0dc"/><path d="m250.009 181.806-.08.514h-2.058l-.594-.316-.831-.119-2.692.752-.712-.317-1.029 1.663-.436.317-.435-.99-.436-1.544-1.345-1.266.435-2.178-.277-.356-.713.079-3.127.357-9.698.158-.316-.871.356-3.325 1.227-2.256 2.058-3.602-.197-.95.475-.277.158-.752-.911-.832-.039-.831-.713-1.623-.039-2.375.514-.989-.079-1.346-.712-1.227.593-.594-.633-.99.198-.633.633-2.573.99-.792-.238-.95 1.465-2.097 1.108-.555-.079-.673-.119-.672 1.148-2.217.911-.475.079-.356 14.765-1.544.079 2.494.079 6.57-.317 12.271-.079 5.582 1.108 7.441z" fill="#d1d0dc"/><path d="m225.309 79.0079.118 1.1084.871.2375.396.475.198.7521 1.504 1.3458.277.95-.277 1.3458-.633 1.2667-.317 1.0687-.871.6334-.673.2375-2.216.7521-.555 1.5437.278.5542.712.6729-.119 1.5833-.712.5938-.317.6333.04 1.1084-.752.1979-.634.4354-.119.5542.119.8312-.593.4354-.99-1.2271-.515-.95-26.006.9896-.356.0792-.792-1.7813-.079-2.6125-.633-1.6229-.277-2.0979-.911-1.4646-.356-1.9-1.069-2.9687-.435-2.1375-.554-.8709-.634-1.0687.792-1.9.554-2.2563-1.069-.8312-.198-1.0688.357-1.4072h.673l32.695-.5145.317 1.6625.871.6333.119.9717-.792 1.3459.079 1.2666.99 1.0866.989.5146 1.227.1979z" fill="#66668e"/><path d="m188.1 50.983-.198-3.3646-.672-2.8896-.713-5.3437-.198-3.8792-.712-1.3458-.634-1.9792v-4.0771l.277-1.5437-.712-2.1771h11.914l.119-3.2458.238-.0792.91.1979.752.3167.317 2.1771.594 2.4145.633.6334h1.94l.118.5541 2.494.1188v.8312h1.9l.119-.5145.435-.4355.911-.277.514.3958h1.148l1.544 1.0292 2.098.95.95.1979.198-.3959.593-.1979.198 1.1479 1.03.5146.197-.1979.515.0792v.8312l1.029.3959h1.227l.634-.3167 1.266-1.2667 1.029-.1979.317.7125.198.5146h.396l.396-.3167 3.523-.1187.712 1.2271h.277l.277-.4355 1.742-.1583-.237.9104-1.544.7125-3.642 1.6229-1.9.7917-1.227 1.0292-.95 1.425-.91 1.5437-.713.3167-1.781 1.9792-.515.0791-1.702 1.1084-.989 1.2666-.08 1.2667.04 3.1667-.554.6729-2.019 1.5041-.871 2.3751 1.148.8708.277 1.2666-.752 1.2667.079 1.5042.159 2.6521 1.187 1.1875h1.306l.752 1.2271 1.346.1979 1.544 2.2562 2.81 1.6229.832 1.148.277 2.5333-32.142.4354-.119-14.1313-.198-1.1875-1.622-1.3458-.436-.7125v-.5937l.831-.6334.555-.5541z" fill="#66668e"/><path d="m150.536 126.983-6.611-.514-.356 4.354 8.115.475 12.706.515-.911 9.658-.197 7.046.079.633 1.702 1.465.831.435.277-.079.277-.831.554.712h.832v-.554l1.068.554-.197 1.544 1.622.079.99.435 1.623.278.989.712.911-.831 1.346.277.989 1.346h.357v.91l.91.277.91-.91.713.277h.989l.357.989 2.493.832.555-.277.712-1.623h.436l.435.831 1.623.277 1.464.554 1.188.356.712-.356.278-.989h1.702l.831.356 1.069-.831h.435l.277.633h1.623l.633-.831.713.198.831.989 1.267.713 1.266.356.753.435-.159-14.725-.554-4.354-.079-3.523-.554-2.573-.317-2.85-.04-1.504-4.789.119-18.367-.198-17.812-.831z" fill="#66668e"/><path d="m143.094 130.862 8.985.436 12.311.435-.911 9.302-.118 7.165.039.831 1.702 1.504.792.594.475-.238.158-.712.436.712h.831v-.593l.673.395.435.159-.158 1.583 1.623.04 1.148.475 1.583.198.95.831.831-.831 1.465.237.871 1.267.435.119-.079.791.871.317.91-.792.832.238h.87l.357.95 2.493.831.634-.317.593-1.662h.119l.356.039.475.832 1.544.277 1.306.435 1.346.475.713-.396.277-.989h1.781l.713.356 1.108-.831h.435l.357.633h1.583l.594-.792.752.159.791.95 1.386.791 1.148.317.594.317.989.791 1.188-.514 1.068.435.238 2.415v3.839l.277 3.761.277 1.425 1.069 1.741.356 1.98 1.662 2.177.08 1.227.316.316-.277 3.325-1.148 1.98.594.831-.237.91-.277 2.929-.594 1.307.119 1.385-2.257.633-3.918 1.782-.396.752-1.029.752-.832.594-.514.316-2.138 2.336-1.108.831-2.098 1.267-2.256.95-2.494 1.345-.713.594-2.295 1.425-1.346.277-1.544 2.177-1.583.119-.396.752.91.752-.593 2.177-.515 1.782-.435 1.543-.317 1.782.317.95.712 2.77.396 2.415.712 1.108-.395.555-1.228.752-2.256-1.544-2.177-.436-.514.198-1.267-.277-1.663-1.227-2.058-.435-3.008-1.346-.832-1.544-.514-2.573-1.267-.752-.237-.91.237-.277.119-1.346-.515-.277-.237-.396.514-1.742-.633-.91-1.267-.515-1.345-1.741-1.425-2.613-1.663-1.029.079-.752-2.098-4.869-.316-1.662-.713-.752-.079-.594-2.375-2.098-1.029-1.227v-.436l-1.029-.831-2.692-.435-2.929-.238-1.227-.91-1.781.712-1.425.594-.911 1.267-.396 1.464-1.741 2.415-.95.95-1.03-.396-.712-.435-.752-.238-1.544-.91v-.238l-.712-.752-2.059-.831-2.929-3.088-.91-1.86v-3.206l-1.267-2.573-.198-1.109-.633-.395-.436-.832-1.979-.831-.514-.633-2.811-3.127-.514-1.267-1.861-.91-.594-1.742-1.029-1.148-.752-.198-.237-1.86 3.166.277 11.48 1.069 11.479.633.871-7.719 1.543-22.008.634-7.442h.554zm39.662 90.884-.237-2.811-1.108-2.85-.238-2.771.594-3.246 1.306-2.731 1.386-2.137 1.227-1.425.237.079-1.9 2.612-1.742 2.573-.791 2.613-.119 2.058.356 2.415 1.029 2.85.198 2.058.08.594z" fill="#66668e"/><path d="m114.04 167.833-.317-1.9 3.404.198 11.955 1.187 10.806.673.871-7.402 1.543-22.127.673-7.679.634.04.316-4.434-41.166-4.196-6.9275 47.659 6.1355.791.515-3.958z" fill="#d1d0dc"/><path d="m201.044 128.408-4.988.079-18.248-.198-17.654-.831-9.737-.514 1.543-25.571 8.748.277 15.952.316 17.536.396h2.019l.87.871h.792l.633.396-.039 1.187-.713.673-.118.871.712 1.346 1.188 1.267.91.633.515 4.433z" fill="#d1d0dc"/><path d="m192.415 95.2768 1.266 2.7709-.039.9104 1.385 2.1769 1.069 1.227h-1.979l-17.219-.356-16.15-.356-8.787-.317.435-8.4311-12.785-1.148 1.702-17.4166 6.135.3958 7.956.4354 7.046.4354 9.421.4355 4.275-.198.831.9105 1.9 1.1875.436.3562 1.702-.5542 1.543-.1979 1.069-.0791.713.5541 1.623.6334 1.187.6333.198.6333.356.8313h.713l.316.0396.357 1.8604 1.148 3.3646.237 1.5041.99 1.5042.237 2.0187.634 1.6625z" fill="#66668e"/><path d="m188.615 80.7499v-.2375l-1.148-1.9396.752-1.8604.594-2.3354-1.109-.8312-.158-1.0688.317-1.0292h1.266l-.039-1.9791-.119-11.9542-.237-1.5042-1.623-1.3062-.396-.6729-.04-.6334.792-.5937.594-.6729.079-1.0688-23.077-.6333-21.692-1.3458-2.098 25.2145 5.779.3563 7.917.475 7.006.3562 9.421.5146 4.75-.1583.792.8708 2.058 1.2667.317.2771 1.781-.5542 2.573-.2375.673.5146 1.662.6333 1.188.6333.158.5938.396.8708z" fill="#d1d0dc"/><path d="m188.14 51.0228-.238-3.325-.673-2.6917-.752-5.1458-.198-4.3542-.672-1.2271-.713-2.0583v-4.1167l.238-1.5041-.713-2.1771-11.321-.2375-7.362-.2771-10.49-.5146-9.104-.8312-2.771 26.6 21.731 1.3062z" fill="#d1d0dc"/><path d="m142.659 56.7228-42.236-5.3438-5.581 35.0313 44.848 5.3833z" fill="#d1d0dc"/><path d="m146.142 22.5624-12.152-1.1083-11.598-1.425-11.598-1.5833-12.7857-2.098-7.2833-1.3458-12.9438-2.7312-1.7812 8.4312 1.3458 2.9688-.5541 1.8208.7125 1.8208 1.2666.5542 1.8209 4.275 1.0687 1.2667.1979.4354 1.3459.4354.1979.8312-2.8104 6.9667v.9896l.9896 1.2667h.3562l1.9-1.1875.2771-.4355.6333.2771-.0792 2.098 1.0688 4.9874 1.1875.9896.3562.2771.7125.9104-.1979 1.3459.2771 1.3458.4354.3563.9104-.9105h1.0688l1.2667.6334.9895-.3563h1.623l1.4645.6334 1.0688-.198.1979-1.1875 1.1875-.277.5542.5541.1979 1.2667.5542.3167.7523-4.3542 42.275 5.3042z" fill="#66668e"/><path d="m150.417 127.062 1.94-34.16-44.888-5.0271-4.829 34.7941z" fill="#66668e"/><path d="m58.9399 69.2707 3.325-13.3791.5542-1.6625.9896-2.3355-.5146-.9104-.9896.0396-.3166-.3958.1979-.4354.1187-1.2271 1.7813-2.1771.7125-.1979.4354-.4354.2375-1.2667.3562-.2771 1.5438-2.2958 1.5437-1.7021.0792-1.5042-1.3458-1.0291-.5938-1.7417 5.3834-25.0563 5.3437.9896-1.7812 8.4313 1.425 2.9687-.6334 1.8604.7917 1.8209 1.2271.5146 1.5041 3.8 1.3855 1.7416.1979.4354 1.3062.4355.1584.8312-2.7709 6.8875-.0791 1.0292 1.0291 1.3062.3563-.0396 1.9396-1.1875.277-.4354.6334.2771-.1188 2.0979 1.0688 4.9875 1.5437 1.2667.6729.8708-.277 1.6229.4354 1.1084.4354.4354.9896-.95 1.1479.0396 1.1479.5146 1.1083-.2771 1.5042-.0792 1.5833.6333 1.0688-.1187.1979-1.1875 1.1479-.3167.5146.5938.1583 1.1479.5542.475-3.325 21.2167-18.6042-3.6021z" fill="#d1d0dc"/><path d="m102.719 122.748-33.1709-4.711 8.1542-44.5311 18.6041 3.5625-.6729 4.1166-.9104 5.225 3.0875.3563 6.4914.7125 3.246.3562z" fill="#d1d0dc"/><path d="m57.3564 151.446-1.0292.87-.1187.594.1979.396 7.4813 4.235 4.7895 3.009 5.8188 3.404 6.65 3.958 4.8687.95 9.8563 1.069 6.848-47.144-33.1313-4.71-1.2271 6.492h-.6333l-.673 1.029-.9896-.04-.5145-1.069-1.0688-.118-.3562-.436h-.3959l-.3562.238-.7521.396-.0396 2.77-.0792.673-.2375 4.988-.5937.871-.2375 1.306 1.0687 1.939.5146 2.296.3167.396.3958.238-.0396.91-.6333.554-1.3458.673-.7521.752-.5938 1.465-.2375 1.939-1.1479 1.069-.8312.277.0396.317-.198.673.198.316 1.4645.238-.2375 1.069-.5937.871z" fill="#d1d0dc"/><path d="m77.7421 73.4663-9.3417 50.9837-.7125.158-.6333.95h-.95l-.5938-1.069-1.0292-.158-.3166-.435h-.3959l-1.1083.633-.1187 2.692-.1584 2.295-.1583 3.405-.5542.831-.95-.436-27.3521-41.2851 7.5209-26.7583z" fill="#d1d0dc"/><path d="m58.9401 69.2705 3.4438-13.5771.4354-1.6625.95-2.2167-.2375-.475-.9896-.0396-.5146-.6729.198-.5937.1979-1.2667 1.7812-2.1771.7125-.4354.4354-.4354.5938-1.425 1.6229-2.2563 1.425-1.5437.0792-1.3459-1.3063-.9895-.7125-1.8209-5.0271-1.425-5.977-1.3854-6.0959.0396-.1979-.5542-2.1771.8313-1.7812-.2375-.95-.6334-.5146.2771-1.8604-.0791-.6729-.5542-2.098-.8313-.3166.0396-1.7021-.5541-.7521.7125-2.4542-.1188-2.3354-1.6229.2771-.3167.0792-3.0875-.9104-1.5437-1.623-.2375-.277-.95-.9105-.1979-2.2958.8312-.9104 2.5729-1.3063 3.9584-1.2666 2.5729-1.9792 5.5812-2.5729 5.3042-3.2063 4.9875-.752 1.1479-.3167 3.4042.1583 4.7896 26.6 6.2145z" fill="#d1d0dc"/><path d="m40.4148 3.00806 1.7417.59375 3.8396 1.10833 3.4042.75208 7.9562 2.25625 9.1042 2.25626 6.0167 1.26667-5.3834 25.175-4.9083-1.3854-6.1354-1.425h-6.0167l-.1979-.5146-2.2167.8708-1.8208-.277-.8709-.6334-.5937.1979-1.8604-.0395-.6729-.5146-2.098-.8313-.277.0792-1.7417-.6729-.7521.7125-2.4937-.1188-2.3355-1.6229.3167-.3563.0396-3.0479-.9104-1.5041-1.6229-.2375-.2771-.9896-.9104-.1979-1.425.475-.9105-1.2667.1188-1.1479 1.1083-.1188.6334-1.5833-.9896-.475.0791-1.4646 1.7417-.2771-1.1083-1.1083-.5542-2.8104.2771-1.1479v-3.12712l-.7125-1.26667.9104-3.72084.8313.19792.95 1.14792 1.1083 1.02916 1.2667.75209 1.7812.83125 1.2271.2375 1.1479.59375 1.3458.39584.9105-.07917v-.95001l.5145-.43541.8313-.51459.1187.43542.1188.7125-.9104.19792-.1188.83124.7125.5938.4354.95.2771.752.5542-.0791.0792-.5146-.3959-.5146-.1979-1.2667.3167-.71246-.2771-.59375v-.91041l.7125-1.42501-.4354-1.02916-.95-1.93959.1187-.31666zm-3.7604 2.375.7917-.07917.1979.55417.5938-.63334h.95l.3166.59375-.5937.67292.2771.31667-.2771.79166-.5542.15834-.3562-.07917.5541-1.02917-.6729-.2375-.1187.59375-.2771.2375-.5938-.87083z" fill="#d1d0dc"/><path d="m57.2772 151.287 1.5437-.198.5938-.792.1979-1.147-1.425-.238-.1979-.277.1979-.792-.0792-.237.7521-.238 1.1875-1.108.2375-1.979.5542-1.346.7521-.871 1.3854-.633.6333-.634.0396-.831-.3958-.237-.3959-.436-.475-2.335-1.0687-1.9.2375-1.386-.95-.395-27.3125-41.2462 7.4812-26.7584-26.5604-6.2145-.5937 1.8604-.0792 2.9291-2.0584 4.6709-1.227 1.0291-.1188.4355-.71249.3166-.59375 1.6625-.31666 1.2667 1.10833 1.6625.63337 1.6625.4354 1.425-.1188 2.5729-.71247 1.2271-.2375 2.2958-.39583 1.4646.7125 1.5438 1.1083 1.7812.9104 1.9396.5146 1.5833-.1187 1.2667-.1188.1979v.8313l2.2563 2.4937-.1979.95-.2771.9104-.2771.7521.0792 3.2459.8312 1.465.7521 1.029 1.1083.198.3959 1.108-.4354 1.425-.8313.633h-.4354l-.3167 1.544.1979 1.148 1.2667 1.742.6333 2.098.5938 1.86.5146 1.227 1.3458 2.296.5938 1.029.1979 1.148.6333.396v.95l-.3167.752-.7125 2.81-.1979.752.95 1.109 1.6625.198 1.7813.712 1.5437.831h1.1479l1.148 1.227 1.0291 1.94.4354.91 1.5438.832 1.9.316.5542.832.277 1.266-.5541.238.1187.396 1.2667.316 1.1083.079 1.2667-.672 1.5437 1.662.3167.91 1.0292 1.663.1187 1.267v3.72l.1979.713 3.9584.594 7.7979 1.108zm-34.8729-17.298.5145.594-.0791.514-1.2667-.039-.2375-.475-.2771-.594zm.752 0 .475-.237 1.425.831 1.2271.475-.3562.237-1.7813-.079-.6333-.633zm8.1938 7.838.7125.91.3167.396.5937.237.2375-.593-.3958-.713-1.0688-.792-.4354.08zm-.5938 3.404.7125 1.227.475.752-.5541.079-.5146-.435-.2771-.752v-.832z" fill="#66668e"/></g><path d="m366.007 119.364c.504 2.96-.003 6.004-1.439 8.642s-3.717 4.716-6.478 5.899c-2.76 1.184-5.838 1.405-8.739.626-2.901-.778-5.455-2.509-7.252-4.915-1.26-1.712-2.113-3.689-2.494-5.779-.591-3.501.232-7.093 2.288-9.988 2.056-2.894 5.177-4.854 8.676-5.45 1.939-.331 3.928-.223 5.819.317l.198.039c2.412.699 4.576 2.066 6.243 3.943 1.667 1.878 2.769 4.188 3.178 6.666z" stroke="#d1d0dc"/><path d="m318.606 98.3252 22.701 16.4068" stroke="#d1d0dc"/><path d="m83.5208 193.741v21.771l14.25 17.812m-14.25-39.583-26.5208-26.917h-57m83.5208 26.917h34.0422l20.979 21.375v18.208" stroke="#d1d0dc"/></svg>