<svg fill="none" height="722" viewBox="0 0 960 722" width="960" xmlns="http://www.w3.org/2000/svg"><g fill="#3c3b6e"><path d="m677.869 667.711 2.003 14.825 6.01 27.646-35.259 1.602-10.818.401-2.003-42.871z" stroke="#fbfbfc"/><path d="m607.348 670.916 30.851-1.202 2.004 42.872-31.252 1.202-32.855 1.202-1.603-41.269z" stroke="#fbfbfc"/><path d="m389.386 120.398-.801-41.6692 1.202-.4007h2.404 6.811l1.603.4007 2.404 1.202.801 1.6027v.8013 2.404l.401.4007 1.603.4006 8.013.4007h6.01l17.629 1.6027.401.4007.801 2.0033 1.202 4.0067v1.202l-.4 3.2053-.401.8014v.8013l.401.4008 1.602 1.202h3.206l7.612-.401 9.616-2.0031 6.411-2.4041.401-.8013.401-1.202v-.8013l-.401-.8014-.401-1.6026v-.4007l9.616-4.4074 7.613-2.404h4.007l2.403 2.0034h2.805l4.408-.4007.4 26.0432.401 20.835.801 21.235.802 5.61.801 11.218v4.808l-58.097.802v6.41l-53.69 1.202z" stroke="#fbfbfc"/><path d="m314.861 44.2722h14.024v-18.8315-8.0133-12.82138-3.60602l16.026 1.60268 5.209 2.404 6.01 4.80804 6.811 22.43738v14.0234l4.408 3.606 2.003 9.616-1.603 10.8181 3.606 3.606 1.202 1.202 5.61 3.2053 2.404 1.202h1.202l4.006.4007 3.206-1.202.801 41.6694-64.908.801-.401-21.235h-10.818v-21.2354h20.835l-.401-25.2421-2.003 2.0033-2.004 1.2021-.801.4006-6.411 1.202h-.801l-1.202-.4006-4.007-2.4041-2.003-3.6059-.4-6.0101z" stroke="#fbfbfc"/><path d="m314.86 44.2715v2.0033l.401 6.01 2.003 3.6061 4.007 2.404 1.202.4006h.801l6.411-1.202.802-.4007 1.602-1.2019 2.003-2.0034.401 25.2421h-20.834v21.2354l-21.637.401-64.908-.8017v-9.2153l-1.202-12.0201v-34.4574z" stroke="#fbfbfc"/><path d="m157.801 43.8711 67.713.8013v34.4575l1.202 12.02v9.2151l-64.107-.4004 6.01-16.8281-3.606-8.414-1.602-4.808-6.01-19.2321-.401-2.404v-2.0033l.401-2.0033z" stroke="#fbfbfc"/><path d="m283.212 174.489v10.818h-10.418v10.818h-43.272v-10.818h-10.818v-14.023h64.508z" stroke="#fbfbfc"/><path d="m292.825 145.241.801 18.831v10.417h-10.418v-3.606h-64.507l-1.202-25.642h20.434l6.01.4h15.225z" stroke="#fbfbfc"/><path d="m162.611 99.564 64.107.4007 64.908.8013v16.027 5.208h.802v23.64l-34.057.4h-15.225l-6.011-.4h-20.433l-53.69-.401v-2.404l2.805-10.417-.401-29.249-2.003-2.404z" stroke="#fbfbfc"/><path d="m217.499 145.24 1.202 25.643v14.023h10.818v10.818h43.273v-10.818h10.818v-10.818h10.417l.401 30.05.801 2.004h1.202v21.235l-43.272.401-66.111-.401-2.804-21.235-10.818-24.842-8.013-28.848-2.004-7.613z" stroke="#fbfbfc"/><path d="m253.559 227.778v42.471h-10.818l-53.288-.401-.401-10.818-1.603-32.053z" stroke="#fbfbfc"/><path d="m296.433 227.777.4 42.872h-43.673v-42.471z" stroke="#fbfbfc"/><path d="m294.025 174.489v-10.417h29.65l3.205 18.03.802 24.441.4 32.053 1.603 32.053-32.454.401-.401-42.871v-21.236h-1.202l-.801-2.003z" stroke="#fbfbfc"/><path d="m313.663 100.365h10.818l.401 21.236 64.908-.802 2.003 63.707.401 19.632.801 15.226v14.023 4.407h-21.235-43.272l-.401-32.053-.802-24.441-3.205-18.03h-29.649l-.801-18.831v-23.64h-.802v-5.208-16.027z" stroke="#fbfbfc"/><path d="m672.656 132.419 4.408-3.606 7.612-3.606h3.206.4l.401.401 3.205 7.212 1.202 4.006 2.805 5.61.801.801 15.226-2.805 32.854-2.404h3.206l3.606.802 1.603.4 4.407 1.603 2.404 3.205.401.802v1.602l.4.802 2.004 1.602 6.01 2.805h2.003l2.003-.801 16.027-2.805 14.023-2.003v1.202l-.4.4-4.808 3.606-1.603 1.202-17.629 10.418-11.219 6.411-6.411 3.606-6.01 2.804-7.612 2.404-5.61 2.004-16.027 6.811-8.013 3.205-16.027 10.418-10.417 8.814-12.421 12.02-2.404-50.083-1.602-23.239z" stroke="#fbfbfc"/><path d="m672.657 132.418 1.602 15.627 1.603 23.238 2.404 50.084-2.003 1.202-6.411 7.212-2.404 2.804-10.417 14.425-13.623 16.427-1.603 1.603-3.205 2.404-4.407 2.404-10.818 10.818-2.805 2.804-4.808 5.61-2.805-71.319-2.003-26.044-.401-10.417-2.003-46.878 4.808-.802 2.404.401.401.401 1.202 6.01-.802 2.804-.4.802v.4l6.01 1.603 12.821 3.206 13.222-.802 3.205-.4 2.004-.802 1.202-.801z" stroke="#fbfbfc"/><path d="m503.178 176.091v8.414l.401 12.421 1.603 14.023 1.202 28.448.4 14.824 1.202 17.229.401 10.017-60.902 1.202-.801-33.656-.801-.401-6.01-1.202h-1.603v.401l-2.003 2.003-.802.401-2.404-1.603-7.212-4.808-.801-1.202-.801-2.003v-3.206-.4l-.401-2.404-3.205-5.61-1.202-1.202-2.004-.4-15.225 7.212-2.003 1.202-5.209-1.603-2.805-2.003v-14.024l-.801-15.225-.401-19.633 53.69-1.202v-6.411z" stroke="#fbfbfc"/><path d="m327.683 238.195h43.272l.801 10.818 1.202 42.471v21.236h-10.818l-32.053.4-.401-21.235-.401-1.202v-8.815-11.219z" stroke="#fbfbfc"/><path d="m370.959 238.195 21.235-.401v-4.407l2.805 2.003 5.208 1.603 2.004-1.202 15.225-7.212 2.003.4 1.203 1.202 3.205 5.61.4 2.003v.401 3.205l.802 2.003.801 1.202 7.212 4.808 2.404 1.603.802-.401 2.003-1.602v-.401h1.603l6.01 1.202.801.401 1.202 61.703-48.08.801v14.023 7.212l1.202 6.01.801 30.852v5.208l-.401 1.202h-.801v-1.202l-.401-.801-6.41-4.407-2.805.4-.4 1.202-1.603 1.202-4.007 1.603-.801-.401-6.812-3.205-2.404-2.404-6.811-2.404-4.007-3.205-.801-28.848-.401-21.236h10.818v-21.235l-1.202-42.471z" stroke="#fbfbfc"/><path d="m362.141 312.719.4 21.235.801 28.848 4.007 3.206-36.461.4-1.201-42.871v-10.818z" stroke="#fbfbfc"/><path d="m329.287 270.249v11.218 8.815l.4 1.603.401 21.235v10.818l-40.067.401-46.077-.401-1.602-53.289h10.818 43.673z" stroke="#fbfbfc"/><path d="m242.743 270.649 1.603 53.289v10.818h-9.215l-42.872-.401v-6.811l1.603-26.845-1.202-2.805-3.606-11.619v-15.626z" stroke="#fbfbfc"/><path d="m192.258 334.355h42.871v42.872h1.202v21.636 10.818h-26.845l1.603-4.407.401-.802v-2.404l-.401-2.003-3.205-25.643-12.02-28.447z" stroke="#fbfbfc"/><path d="m243.945 323.938 46.076.401 40.067-.401 1.202 42.871 1.202 32.455h-53.689-42.471v-21.636h-1.202v-42.872h9.215z" stroke="#fbfbfc"/><path d="m499.971 86.3413h8.814l58.498 32.4537 2.404-1.602 17.229-1.202 2.003 4.006 3.606 8.014.401.801.801.801 15.225 5.209 2.004 46.878.4 10.418 2.004 26.043 2.804 71.319-4.006 2.003-3.606 2.404-14.424 12.421-2.004 2.003-.801.802.801 1.602 2.004 3.206 3.606 4.006.801.401-.401.401-1.202-.401-4.808-4.808h-2.404l-6.01 4.007-.4.801v.801l.4.802.401.4v1.603l-1.202 3.205-.401.401-.4.401h-2.405l-2.403-.401-2.004-1.202-1.202-12.421-19.633.401-44.874 1.603-.401-32.054-.401-10.016-1.202-17.229-.4-14.825-1.202-28.447-1.603-14.024-.401-12.42v-8.414-4.808l-.801-11.219-.801-5.609-.802-21.236-.4-20.835z" stroke="#fbfbfc"/><path d="m509.184 313.921 44.875-1.602 19.633-.401 1.202 12.421 1.202 30.05-65.309 2.003-.801-18.431-.802-2.804-.4-4.408-.401-6.01z" stroke="#fbfbfc"/><path d="m510.788 356.792 65.309-2.003 1.202 32.054v5.208 4.808l-12.421 8.014-18.03 11.619-4.407 3.606-1.202 1.603-1.202 2.003-8.815 17.229-26.043.801-1.202-30.851 7.612-.401-.4-21.636z" stroke="#fbfbfc"/><path d="m479.537 390.048 32.454-1.602.401 21.636-7.613.401 1.202 30.851-32.053.401-.802-17.229-.4-13.222h4.006v-3.205l3.606-.401z" stroke="#fbfbfc"/><path d="m508.384 281.868.401 32.053v10.818l.4 6.01.401 4.408.801 2.804.802 18.431 1.202 32.053-32.454 1.603v-3.205l-.401-8.014h-8.815l-22.437.802-1.202-.802-.401-.4v-.401l-.801-40.868 2.805-8.815-.401-18.03-.401-28.047z" stroke="#fbfbfc"/><path d="m401.005 376.826.802-.4.4-1.202v-5.209l-.801-30.852-1.202-6.01v-7.212-14.023l48.08-.801.401 18.03-2.805 8.814.802 40.869v.4l.4.401.802.801-.802 10.818-48.48.802v-4.007-6.411z" stroke="#fbfbfc"/><path d="m374.159 368.413 2.404 2.404 6.811 3.205h.802l4.007-1.603 1.602-1.202.401-1.202 2.805-.4 6.41 4.407.401.801v1.202l-2.404 4.408v6.41 4.007l48.481-.801.4 21.235h.401l3.206 7.212.801 12.421-21.236.4-29.649.802 7.212 5.609-32.053.802z" stroke="#fbfbfc"/><path d="m367.75 366.008 6.811 2.404 2.003 70.918-42.871.401-.802-40.868-1.202-32.454z" stroke="#fbfbfc"/><path d="m332.493 398.863.801 40.868v1.603h-53.289v-21.236h-.801v-21.235z" stroke="#fbfbfc"/><path d="m236.33 398.863h42.47v21.636h.802v21.235h-42.872l-.801-32.454z" stroke="#fbfbfc"/><path d="m209.489 409.28h26.845l.801 32.454v21.636l-50.484-.4-1.603-2.004-.401-.4 1.202-4.007.401-.801v-.401l8.014-6.411 3.205-2.003 3.205-1.603 1.603-1.602 6.01-8.815v-.401-.4-.802-1.202l.401-2.804.4-3.206v-.801l.401-5.609z" stroke="#fbfbfc"/><path d="m186.651 462.969 50.484.401h.802v21.235h10.818l1.202 28.848-6.01-2.003-8.815-3.606-.801-1.603-3.606-1.602-10.818-2.404-1.603-7.212-1.603-3.606-2.804-2.404-8.414-4.007-6.812-.801-6.01-13.222z" stroke="#fbfbfc"/><path d="m280.806 484.606 42.871-.401.801 32.054-68.914.4-6.01-3.205-1.202-28.848z" stroke="#fbfbfc"/><path d="m280.005 441.735v21.636h.802v21.235h-32.054-10.818v-21.235h-.801v-21.636z" stroke="#fbfbfc"/><path d="m333.292 441.735v21.636h.801v21.235h-10.818l-42.871.401v-21.235h-.801v-21.637z" stroke="#fbfbfc"/><path d="m376.164 439.331 32.054-.802 11.218 26.444 9.216 16.828-3.606 10.017-7.613 6.411-2.805-1.603-4.006 2.404-11.62.401v-5.209h-12.42l-20.034.401v-10.818l-32.053.4v-21.235h-.802v-21.636-1.603z" stroke="#fbfbfc"/><path d="m408.221 438.53-7.212-5.61 29.649-.801 21.236-.401 1.202 32.454-33.657.802z" stroke="#fbfbfc"/><path d="m447.885 380.032 22.437-.802h8.815l.4 8.014v3.205l.401 17.63-3.606.4v3.206h-4.007l.401 13.222.801 17.228.802 21.636-21.636.401-1.203-32.454-.801-12.421-3.205-7.212h-.401l-.4-21.235z" stroke="#fbfbfc"/><path d="m505.979 441.735.801 21.235 10.418 1.603.801 16.027h-12.421l-24.841.801h-5.209l-.4-17.629-.802-21.637z" stroke="#fbfbfc"/><path d="m532.024 440.933-3.606 10.818v2.003.801l.401 3.206.4 2.404 1.202.801 4.007.801 1.603-.4 6.811 3.606 4.407 8.013 1.603 8.815-3.206 8.414-2.403 2.804-1.202.802-23.64.801-.4-14.023-.802-16.027-10.417-1.603-.802-21.235z" stroke="#fbfbfc"/><path d="m501.173 527.478-.401-12.02 18.031.4.801 28.848-13.623.802z" stroke="#fbfbfc"/><path d="m475.132 481.401h5.208l24.842-.801h12.421l.4 14.023.401 21.235-18.03-.4.401 12.02h-4.007l-1.202-14.424-20.034-10.818z" stroke="#fbfbfc"/><path d="m474.728 463.771.401 17.63.401 20.835h-.802l-5.208-5.61-7.613-.4-7.212.4-1.202-.4-8.815-4.808-15.626-10.017-9.215-16.828 33.656-.802z" stroke="#fbfbfc"/><path d="m410.219 499.03 4.006-2.404 2.805 1.603 7.613-6.411 3.606-10.016 16.027 10.016 8.814 4.808 1.202.401 7.212-.401 7.613.401 5.209 5.609-10.418 5.209-1.202.802-8.013 14.824-1.202 12.421-21.636.401-21.235.4z" stroke="#fbfbfc"/><path d="m366.549 494.622 20.033-.4h12.421v5.208l11.619-.4 1.202 37.663-21.636.4.401 10.818-22.438.401z" stroke="#fbfbfc"/><path d="m323.677 484.206h10.818l32.053-.401v10.818l1.202 53.69-42.871.4v-32.053z" stroke="#fbfbfc"/><path d="m255.962 516.659 68.915-.401v32.054l-20.434.4v16.828l-22.438-22.437z" stroke="#fbfbfc"/><path d="m518.399 495.023 23.64-.801-1.202 10.818-2.003 16.427.4 4.007 2.004 4.808 2.003 8.814-.802 9.216-3.205 14.424-19.633-.801v-16.428l-.801-28.848z" stroke="#fbfbfc"/><path d="m505.984 545.507 14.023-.801v16.427l19.633.802 6.41 3.606.401 10.417-4.808.401v10.417l-11.219.401v3.606l-10.417.401v5.208l-21.636-.4v-8.014-10.818h-3.606l-1.202-10.818-.401-9.215 9.616-3.606z" stroke="#fbfbfc"/><path d="m475.531 502.235 20.033 10.818 1.202 14.424h4.007l4.808 18.031-3.606 8.814-9.616 3.606-16.828-1.202-.401-10.818-21.636.401v-10.818l1.202-12.421 8.014-14.825 1.202-.801 10.417-5.209z" stroke="#fbfbfc"/><path d="m476.334 556.727 16.828 1.202.4 9.215 1.202 10.818h3.606v10.818l-21.235.401-34.057.801 12.421-12.421h.401l2.403-.801 7.212-5.609 2.004-2.805-.401-1.202v-2.003l4.407-7.212 3.206-1.202z"/></g><path d="m476.334 556.727 16.828 1.202.4 9.215 1.202 10.818h3.606v10.818l-21.235.401-34.057.801 12.421-12.421h.401l2.403-.801 7.212-5.609 2.004-2.805-.401-1.202v-2.003l4.407-7.212 3.206-1.202z" stroke="#fbfbfc"/><path d="m432.659 536.292 21.636-.4v10.818l21.636-.401.401 10.818h-1.603l-3.205 1.202-4.407 7.212v2.003l.4 1.202-2.003 2.805-7.613 5.609-2.404.802h-.401l-21.636-9.216z" fill="#3c3b6e" stroke="#fbfbfc"/><path d="m411.424 536.693 21.236-.401.801 32.053-10.818.401-10.818 1.202v9.616l-18.03.401h-3.205v-10.818l-.801-21.636-.401-10.818z" fill="#3c3b6e" stroke="#fbfbfc"/><path d="m433.46 568.747 21.636 9.215-12.421 12.421-1.603 10.818-61.302 1.202-.801-10.818-.401-21.636 11.62-.401v10.818h3.205l18.03-.401v-9.616l10.818-1.202z" fill="#3c3b6e" stroke="#fbfbfc"/><path d="m390.188 547.912.802 21.636-11.62.401.401 21.636.801 10.818h-14.023l-7.613-5.209-43.673-24.44-10.818-6.812v-16.828l20.434-.401 42.872-.4z" fill="#3c3b6e" stroke="#fbfbfc"/><path d="m249.954 513.855 6.01 3.205 26.043 26.444v5.61h-9.616v10.818h-52.888v-57.296l10.818 2.404 3.606 1.603.801 1.603 8.815 3.606z" fill="#3c3b6e" stroke="#fbfbfc"/><path d="m219.503 559.531h52.888v-10.418h9.616v-5.609l22.438 22.437 10.817 6.812v19.232h-20.434l-.801-10.818h-42.871-31.653z" fill="#3c3b6e" stroke="#fbfbfc"/><path d="m250.756 581.167 1.202 53.689h-32.854l.4-42.871v-10.818z" fill="#3c3b6e" stroke="#fbfbfc"/><path d="m294.831 634.856h-42.871l-1.202-53.689h42.871l.802 10.818z" fill="#3c3b6e" stroke="#fbfbfc"/><path d="m358.938 596.793.401 26.845-21.236.4v10.818h-31.252-11.619l-.401-42.871h20.434v-19.232z" fill="#3c3b6e" stroke="#fbfbfc"/><path d="m366.546 602.001 2.805.802 3.606 2.003 18.831 9.616 1.202.801 2.004 2.004 8.013 8.414.4 19.232-43.272.801h-22.036v-10.417-10.818l21.235-.401-.401-26.845z" fill="#3c3b6e" stroke="#fbfbfc"/><path d="m441.472 600.8-2.804 10.818-4.408 12.421v3.606l.802 8.013v.801l-3.606 1.603h-.802l-2.404-.801-2.805-1.603-1.201-.801-18.431-8.815-3.606-1.202-8.014-8.414-2.003-2.004-1.202-.801-18.831-9.616-3.606-2.003-2.805-.802h13.623z" fill="#3c3b6e" stroke="#fbfbfc"/><path d="m442.675 589.981 34.057-.801 1.202 42.871-21.636.401v-5.209l-21.636.401v-3.606l4.407-12.822 2.805-10.818z" fill="#3c3b6e" stroke="#fbfbfc"/><path d="m476.732 589.18 21.236-.801v8.013l21.636.401.801 34.057h-.4l-32.054.801-10.417.401z" fill="#3c3b6e" stroke="#fbfbfc"/><path d="m545.649 565.942 9.216 7.613.801 1.202v1.202l6.411 6.41 1.202.802 3.606.4 12.02.401 1.602.401.802.4.801.802.401.4.4 6.01 6.411 4.408-16.427.4v10.818l-10.418.401.802 21.636-11.219.401-32.054.801-.801-34.057v-5.208l10.417-.401v-3.606l11.219-.401v-10.417h4.808z" fill="#3c3b6e" stroke="#fbfbfc"/><path d="m590.121 596.392 13.222 5.609 10.017 4.808 4.808 4.408v2.805l-.401 2.003 2.004 1.603 2.003 6.811 1.202 2.805-17.629.801.4 10.818-21.235.801-.401-10.818-20.434.802-.801-21.637 10.417-.4-.4-10.818z" fill="#3c3b6e" stroke="#fbfbfc"/><path d="m622.977 627.243 28.047 20.034 14.023 4.006 12.821 16.428-39.666 2.003-30.851 1.202-1.202-32.053-.401-10.818z" fill="#3c3b6e" stroke="#fbfbfc"/><path d="m552.456 630.049 11.219-.401 20.434-.801.4 10.818 21.236-.802 1.202 32.054-32.855 2.804-21.636-1.202z" fill="#3c3b6e" stroke="#fbfbfc"/><path d="m520.803 630.85 32.054-.801.4 42.871-31.653 1.202-1.202-43.272z" fill="#3c3b6e" stroke="#fbfbfc"/><path d="m520.403 630.85 1.202 43.272h-.401l-31.652.802-1.202-43.273z" fill="#3c3b6e" stroke="#fbfbfc"/><path d="m477.932 632.052 10.417-.401 1.202 43.272-21.636.401-10.417.4-1.202-43.272z" fill="#3c3b6e" stroke="#fbfbfc"/><path d="m456.299 632.452 1.202 42.872-42.47.801h-10.818l-.401-32.454-.401-19.232 3.606 1.202 18.431 8.815 1.202.801 2.805 1.603 2.404.801h.801l3.606-1.603v-.801l-.801-7.613 21.636-.4z" fill="#3c3b6e" stroke="#fbfbfc"/><path d="m360.136 645.273 43.272-.801.401 32.454-43.272.401h-.401z" fill="#3c3b6e" stroke="#fbfbfc"/><path d="m306.448 634.856h31.252v10.418h22.037l.401 32.053-52.889.401h-.801z" fill="#3c3b6e" stroke="#fbfbfc"/><path d="m294.83 634.856h11.619v43.273h-53.289v-42.872z" fill="#3c3b6e" stroke="#fbfbfc"/><path d="m219.105 634.856h32.854 1.202v42.872h-34.457z" fill="#3c3b6e" stroke="#fbfbfc"/><path d="m218.704 677.728h34.457 1.203v43.272h-35.66z" fill="#3c3b6e" stroke="#fbfbfc"/><path d="m254.36 677.728h53.289v42.872h-36.461-17.229z" fill="#3c3b6e" stroke="#fbfbfc"/><path d="m360.538 677.327.801 43.272h-5.609l-42.071.4h-6.01v-42.871z" fill="#3c3b6e" stroke="#fbfbfc"/><path d="m414.629 676.526.801 42.871-17.629.401-36.861.401-.401-42.872 43.272-.401z" fill="#3c3b6e" stroke="#fbfbfc"/><path d="m467.918 675.323 1.202 43.272-28.848.802-24.842.4-.801-42.871 42.471-.801z" fill="#3c3b6e" stroke="#fbfbfc"/><path d="m521.207 673.721 1.202 43.272-40.067 1.202-13.622.401-1.202-43.272 21.636-.401z" fill="#3c3b6e" stroke="#fbfbfc"/><path d="m553.262 672.92 21.637 1.202 1.602 41.269-9.215.4-42.07 1.603h-2.404l-1.603-43.673h.401z" fill="#3c3b6e" stroke="#fbfbfc"/></svg>