<svg fill="none" height="720" viewBox="0 0 962 720" width="962" xmlns="http://www.w3.org/2000/svg"><path d="m84.1238 125.276 53.6762 4.275 22.326 1.9-2.375 31.351 1.425 8.55-2.85 42.276-72.2022-5.225-3.8001-.475 3.8001-50.826-.9501-5.7v-11.401z" fill="#3c3b6e" stroke="#fbfbfc"/><path d="m84.1237 125.275-.9501 14.726v11.4l.9501 5.7-3.8001 50.826 3.8001.475-3.8001 50.827 4.7502.475-.9501 12.825-70.3019-5.225 12.3502-146.304z" fill="#3c3b6e" stroke="#fbfbfc"/><path d="m882.623 560.387h50.827l27.55 38.476h-3.8-49.876-24.701z" fill="#3c3b6e" stroke="#fbfbfc"/><path d="m832.272 559.913h44.177 6.175v38.476h-25.176-25.176z" fill="#3c3b6e" stroke="#fbfbfc"/><path d="m876.449 521.436h39.426l1.425-3.325 4.275 3.801-2.375 4.275-1.425 1.425.475 2.375 7.125 18.05 7.6 7.6.475.95v.475 2.851.475h-50.826-6.175z" fill="#3c3b6e" stroke="#fbfbfc"/><path d="m876.449 521.437v38.476h-44.177v-38.476z" fill="#3c3b6e" stroke="#fbfbfc"/><path d="m899.724 483.436 9.975 29.45 6.175 9.026h-39.426-43.701v-38.476z" fill="#3c3b6e" stroke="#fbfbfc"/><path d="m848.898 444.484.95 1.426 1.425 1.425 8.075 4.75h.95l2.85-.95 3.325-1.425 1.9-1.425.95-1.425 2.375-2.376.95-.474 4.75-1.901h2.376l15.2.95h.95l2.375 1.9 4.75 21.376-3.325 17.576h-66.977v-34.201h15.201z" fill="#3c3b6e" stroke="#fbfbfc"/><path d="m847.947 423.583h44.176l7.601 4.75-1.425 16.626-2.376-1.9h-.949l-15.201-.951h-2.375l-4.75 1.901-.95.95-2.375 2.375-.95 1.425-1.9 1.425-3.325 1.425-2.851.95h-.949l-8.076-4.75-1.425-1.425-.95-1.425z" fill="#3c3b6e" stroke="#fbfbfc"/><path d="m832.272 393.183h15.676 42.751l1.425 29.925h-44.176l-2.375-16.15z" fill="#3c3b6e" stroke="#fbfbfc"/><path d="m835.595 350.432h35.151l15.2 26.125 4.75 16.626h-42.751v-5.7l-7.125-.475-2.85-7.125-.95-2.851-.95-3.325v-23.275" fill="#3c3b6e"/><g stroke="#fbfbfc"><path d="m835.595 350.432h35.151l15.2 26.125 4.75 16.626h-42.751v-5.7l-7.125-.475-2.85-7.125-.95-2.851-.95-3.325v-23.275"/><path d="m854.124 297.23 14.251 26.601 1.9 27.076h-35.151v-8.075l-12.351-.475v-40.376l30.876.475z" fill="#3c3b6e"/><path d="m805.668 263.03 41.327.475-1.425 9.025 9.025 24.701.475 4.75-30.876-.475v-9.975l-28.976-.951.475-25.65z" fill="#3c3b6e"/><path d="m815.649 226.928 20.901 5.225h3.8l1.425.475.95 1.425.475 1.9v2.376l-.95 1.9 1.425 17.1 3.325 6.175-41.326-.475.95-36.101z" fill="#3c3b6e"/><path d="m775.269 191.778 22.326 8.55 8.55 5.7.95 2.85.475 2.375-.475 1.9v1.425l.475 1.426 7.6 11.4h-9.025l-.95 36.101-10.45 1.9h-21.376l.475-12.826z" fill="#3c3b6e"/><path d="m736.792 251.154 37.526.475-.475 12.826h21.375l-.475 25.65-21.375-.475-37.526-.475z" fill="#3c3b6e"/><path d="m685.493 289.155.95-51.301 37.526.475h12.825v13.3l-.475 38.476z" fill="#3c3b6e"/><path d="m724.918 174.677 6.65 1.425 5.225-2.375 5.226-.95 6.65 2.85 6.65.95v5.226l6.175 4.275 13.301 5.7-.95 59.852-37.526-.475v-13.301h-12.826z" fill="#3c3b6e"/><path d="m637.045 171.352 15.201 6.65 11.875 9.976 2.375.95 1.9.475h1.9l5.226-.95 1.425-.95 2.85-2.85 2.375-3.326 2.85-3.325 1.425-3.8 5.225-.95 3.325 3.8 3.8.475 3.325-4.275 3.325.95 2.376 4.275 4.275-4.75 3.8.475.95 2.85 5.7-1.425 3.325-.95-.95 63.652-37.526-.475-49.876-.95.474-47.501z" fill="#3c3b6e"/><path d="m823.723 341.881 12.35.475v8.076 23.75l.95 3.325.95 2.85 2.85 7.126 7.125.475v5.7h-15.675l-47.502-9.025.475-42.277z" fill="#3c3b6e"/><path d="m772.896 341.407h12.35l-.474 42.276h-1.425l-1.426.475-16.625 8.075-11.4 2.85h-7.125l.95-53.676z" fill="#3c3b6e"/><path d="m773.842 290.105h21.376l28.976 1.425v9.975 40.377l-38.001-.476h-12.351z" fill="#3c3b6e"/><path d="m773.843 290.105-.475 51.301-25.176-.475h-12.35l.475-51.301z" fill="#3c3b6e"/><path d="m685.494 289.155 50.352.475-.475 51.302-50.351-.95v-25.651z" fill="#3c3b6e"/><path d="m685.493 289.155-.475 25.651-49.876-.95v-25.651l1.425-51.301 49.876.95z" fill="#3c3b6e"/><path d="m635.142 313.856 49.877.95v25.651l-.475 31.826h-6.175l-18.051 4.275-5.225 1.9-20.901-.475.475-38.476z" fill="#3c3b6e"/><path d="m735.373 340.931h12.35l-.95 53.676-12.35-2.85-25.176 8.551.475-9.026-11.875-.475.475-19-13.776-.475.476-31.826z" fill="#3c3b6e"/><path d="m785.246 384.158 47.502 9.025 13.3 13.776 2.375 16.15.95 21.376-.475 3.8-15.2.475v-4.275l-48.927-.475z" fill="#3c3b6e"/><path d="m783.822 444.01-.95 51.301-50.351-.475.95-51.301z" fill="#3c3b6e"/><path d="m733.944 443.535.95-51.302 12.35 2.85h7.125l11.401-2.375 16.625-8.075 1.425-.475h1.425l-.95 59.852h-.475z" fill="#3c3b6e"/><path d="m709.242 400.783 25.176-8.55-.95 51.301-50.351-.95v-18.525l17.1-19.476z" fill="#3c3b6e"/><path d="m733.945 443.534-.95 51.301-50.351-.95.95-51.302z" fill="#3c3b6e"/><path d="m683.596 442.584-.95 51.302-49.876-.95h-.476l.476-25.651 5.225-6.175 11.4-11.401 13.775-10.925 4.276-2.85.474.95 2.375-.95 5.701-2.85 1.425-.95 1.9-1.9 3.325-4.275.95-1.9z" fill="#3c3b6e"/><path d="m634.189 377.507 20.9.475 5.225-1.9 18.051-4.275h6.175l13.776.475-.475 19.001-.476 12.825h-15.675l-16.625 1.9-9.501 1.9-4.75 1.9-13.3-.475h-2.375l.475-19h-1.425-.475z" fill="#3c3b6e"/><path d="m634.193 390.333h1.425l-.475 19h2.375l13.3.475 4.75-1.9 9.5-1.9 16.626-1.9h15.675l.475-12.825 11.876.475-.475 8.55-8.551 3.325-17.1 19.475-.95 1.901-3.325 4.275-1.9 1.9-1.425.95-5.701 2.85-2.375.95-.475-.95-4.275 2.85-13.775 10.925-11.4 11.401-5.225 6.175v-25.651z" fill="#3c3b6e"/><path d="m585.263 440.208 47.501 1.426v25.65l-.475 25.651-48.451-1.425z" fill="#3c3b6e"/><path d="m584.319 388.908 49.401 1.425h.475l-1.425 51.302-47.501-1.425h-2.851z" fill="#3c3b6e"/><path d="m583.365 388.907h.95l-1.9 51.302-50.351-1.9 2.375-51.302z" fill="#3c3b6e"/><path d="m536.814 151.401 80.752 2.375 19.476 17.576v17.575l-16.626-.95-11.4-1.9-17.575-5.7-9.501-3.325-10.925-6.175-2.85-2.85-1.425-.475h-1.9l-1.425.475-18.526 7.6-9.5 3.8-.95.475z" fill="#3c3b6e"/><path d="m535.389 179.902.95-.475 9.5-3.8 18.526-7.6 1.425-.475h1.9l1.425.475 2.85 2.375 10.925 6.175 9.501 3.325 17.575 5.7 11.4 2.375 16.626.95-.475 47.502-1.425 51.301-49.876-1.425-49.877-1.425h-1.9l1.425-47.026.475-50.352z" fill="#3c3b6e"/><path d="m534.914 336.181 49.401 1.425h.95l-1.425 50.827-49.401-1.425z" fill="#3c3b6e"/><path d="m634.666 339.031-.475 38.476-.475 12.826-49.401-1.425h-.95l1.425-50.827z" fill="#3c3b6e"/><path d="m635.141 288.205v25.651l-.475 25.65-49.401-.95h-.95l1.425-51.301z" fill="#3c3b6e"/><path d="m533.96 336.181 1.425-51.302 49.877 1.425-1.425 51.302-49.402-1.425z" fill="#3c3b6e"/><path d="m534.436 285.355h1.425l-1.425 51.301-50.352-1.9 1.9-50.826h2.851z" fill="#3c3b6e"/><path d="m534.438 285.355-46.076-1.425 1.9-51.302h-1.425l1.425-43.701 8.075 1.9 5.7.475 2.375-.475 3.801-1.425 23.275-8.55.95-.475.95-.95.95 8.075-.475 50.351z" fill="#3c3b6e"/><path d="m436.112 147.125 70.777 2.85 29.925.951-.95 28.5-.95.95-.95.475-23.275 8.551-3.8 1.425-1.901.475-5.7-.475-8.075-1.9-.95.475h-3.325l-8.075-1.425-29.451-8.551-6.175-2.375-1.9-.95-6.65-5.7z" fill="#3c3b6e"/><path d="m490.262 188.927-1.425 43.702h1.425l-1.901 51.301h-2.85l-51.776-1.9 2.375-51.302-.475-60.801 6.65 5.7 1.9.95 6.175 2.375 29.451 8.55 8.075 1.425h1.9z" fill="#3c3b6e"/><path d="m422.814 281.079 10.925.475 51.777 2.375-1.901 50.827-61.276-2.375h-1.425z" fill="#3c3b6e"/><path d="m483.613 334.757 50.352 1.9h.95l-.95 51.301-2.375 51.302-23.751-.951-87.402-3.8h-1.425l.95-17.1.95-14.726.475-18.525-1.425-.475 2.375-50.827z" fill="#3c3b6e"/><path d="m508.312 437.833 23.751.951 50.351 1.9h2.851l-1.425 51.301-.476 1.425-3.325.475-8.075 1.425-4.275 1.9-4.275.95-13.301-.475-15.675-1.425-.95-.475-26.126-2.375z" fill="#3c3b6e"/><path d="m420.439 434.035 87.402 3.325-.95 55.576-24.701-2.85-37.051-3.8-26.6-1.425z" fill="#3c3b6e"/><path d="m482.191 490.085 24.7 2.85 26.126 2.375-1.425 45.601-49.876-1.9h-1.425z" fill="#3c3b6e"/><path d="m583.365 492.936-1.425 49.876-49.876-1.425 1.425-45.601.95.475 15.675 1.425 13.301.475 4.75-.95 4.275-1.9 8.075-1.425z" fill="#3c3b6e"/><path d="m583.369 492.935.475-1.425 48.451 1.425h.475l-.95 51.302-49.402-1.425z" fill="#3c3b6e"/><path d="m682.64 493.886-.95 51.301-49.876-.95h-.475l1.425-51.301z" fill="#3c3b6e"/><path d="m732.995 494.835-.95 51.302-49.877-.95h-.475l.95-51.302z" fill="#3c3b6e"/><path d="m732.994 494.835 50.351.475v25.651l-.475 25.651-49.876-.475z" fill="#3c3b6e"/><path d="m784.293 444.009 48.926.475v4.275 34.201 38.476l-49.876-.475v-25.65z" fill="#3c3b6e"/><path d="m832.748 521.436v38.476 38.476l-38.001-.475h-12.351l.475-51.301.476-25.651z" fill="#3c3b6e"/><path d="m732.042 546.137 49.876.475-.474 51.301-50.352-.475z" fill="#3c3b6e"/><path d="m732.043 546.137-.95 51.301-50.351-.95.95-51.301z" fill="#3c3b6e"/><path d="m681.694 545.187-.95 51.302h-12.35l-38.001-.95 1.425-51.302z" fill="#3c3b6e"/><path d="m581.944 542.812 49.401 1.425h.475l-1.425 51.302-25.651-.476-24.701-.475z" fill="#3c3b6e"/><path d="m581.943 542.812-1.425 51.301-38.001-.95-12.35-.475 1.9-51.301z" fill="#3c3b6e"/><path d="m481.71 539.487 49.876 1.9-1.9 51.302-49.877-1.9h-.475z" fill="#3c3b6e"/><path d="m482.191 490.085-1.901 49.402-49.876-1.9.475-12.826 12.826.475 1.425-38.476z" fill="#3c3b6e"/><path d="m419.011 536.637 11.4.475 49.877 1.9h1.425l-1.9 51.301-61.277-2.375h-1.9z" fill="#3c3b6e"/><path d="m356.784 533.787 62.227 2.85-1.9 51.302-60.802-2.851-2.375-.475z" fill="#3c3b6e"/><path d="m294.555 530.461 60.326 3.326h1.9l-2.375 51.301-62.701-3.325z" fill="#3c3b6e"/><path d="m292.179 530.462h2.375l-2.85 51.301-9.5-.475-71.252-4.275 3.325-50.826z" fill="#3c3b6e"/><path d="m357.26 482.485 61.277 2.85 26.601 1.426-1.425 38.476-12.826-.475-.475 12.825-11.4-.475-62.227-2.85h-1.9z" fill="#3c3b6e"/><path d="m357.259 482.485-2.375 51.776-60.327-3.325h-2.375l2.375-51.301 10.925.475z" fill="#3c3b6e"/><path d="m217.13 474.885 77.427 4.75-2.375 51.301-78.377-4.75z" fill="#3c3b6e"/><path d="m219.983 429.759 87.878 5.225-2.375 45.126-10.926-.475-77.902-4.75.475-7.6z" fill="#3c3b6e"/><path d="m369.61 380.833 50.352 2.375 1.425.475-.476 18.525-.949 14.726-.951 17.1h1.425l-2.375 50.827-61.276-2.85-51.777-2.375 2.375-45.127.95-57.476z" fill="#3c3b6e"/><path d="m230.904 372.758 62.702 3.8 15.201.95-.951 57.476-87.877-5.225 1.425-31.826 1.425-25.65z" fill="#3c3b6e"/><path d="m371.985 329.531 48.452 2.375h1.425l-2.375 50.827-50.352-2.375z" fill="#3c3b6e"/><path d="m296.932 325.256 28.025 1.425 19.001 1.425 14.25.95 14.251.95-2.85 50.826-60.802-3.325-15.201-.95z" fill="#3c3b6e"/><path d="m234.231 321.456 60.802 3.325h1.9l-2.85 51.301-62.702-3.8z" fill="#3c3b6e"/><path d="m360.108 277.754 62.227 3.325-1.9 50.827-48.452-2.375-14.25-.95z" fill="#3c3b6e"/><path d="m297.407 273.954 62.702 3.8-2.375 51.302-14.251-.95-19-1.425-28.026-1.9h-1.9z" fill="#3c3b6e"/><path d="m227.58 281.554 6.175.476.95-12.826 62.701 4.275-2.85 51.302-60.801-3.325-9.026-.475z" fill="#3c3b6e"/><path d="m161.078 393.658 60.801 4.275-1.425 31.826-62.226-4.275z" fill="#3c3b6e"/><path d="m227.58 281.554-2.851 39.426 9.026.476-3.325 51.301-8.076-.475-1.425 25.651-60.801-4.275 1.9-23.276-3.325-.475.475-8.55 2.375-36.576-2.375-8.551-.95-4.275v-2.85l.475-7.6 1.9-23.751z" fill="#3c3b6e"/><path d="m160.129 361.356-.475 8.551 3.325.475-2.375 23.275-3.326 32.301h-3.8l-79.8017-5.7 5.225-57.476h.9501l.4752-6.651z" fill="#3c3b6e"/><path d="m159.651 277.754h2.375l-1.9 23.751-.475 7.6v2.375l.475 4.275 2.375 8.551-2.375 36.101-79.8023-5.701 2.85-38.476 4.2752-44.651z" fill="#3c3b6e"/><path d="m79.3772 361.831-5.2253 57.477-20.9004-1.425-52.2515-4.275 4.75013-57.477z" fill="#3c3b6e"/><path d="m83.652 317.18-2.85 38.476-.4749 6.651h-.95l-73.6271-5.701 3.80005-44.651z" fill="#3c3b6e"/><path d="m83.6481 272.529 4.2753.475-4.7502 44.177-74.10191-5.701 3.80001-44.651z" fill="#3c3b6e"/><path d="m159.653 277.755-71.7271-5.225-4.2753-.475.9501-12.826-4.7501-.475 3.8-50.826 72.2024 5.225h2.375l-3.325 52.251 5.225.475z" fill="#3c3b6e"/><path d="m235.181 136.2 21.851 1.425 26.601 1.9 42.276 2.375 34.201 1.9 38.476 1.9 20.9.951 7.601.475 8.55.474-.95 22.326.475 60.802-2.375 51.301-10.925-.475-62.227-3.325-62.702-3.8-61.752-4.75-3.8-.475 3.8-59.377-1.9-.475 1.425-45.601h-.95z" fill="#3c3b6e"/><path d="m235.182 136.2-1.425 27.551h.95l-1.426 45.601h1.901l-3.8 59.377 3.8.475-.951 12.825-6.175-.475-66.027-3.8h-2.375l.95-10.925-5.225-.95 3.326-52.251h-2.376l2.85-42.277-1.425-8.55 2.376-31.351z" fill="#3c3b6e"/></g></svg>