<svg fill="none" height="751" viewBox="0 0 1200 751" width="1200" xmlns="http://www.w3.org/2000/svg"><path d="m278.189 639.413 2.375-4.5 2.875-.375.375 1-2.625 3.875zm12.75-4.625 7.625 3.25 2.625-.375 2-4.875-.75-4.25-5.25-.625-5 2.25zm38.375 12.5 4.625 6.875 3-.375 1.375-.625 1.875 1.625 4.625-.25 1.25-1.875-3.625-2.25-2.375-4.625-2.625-4.5-7.25 3.625zm25.25 11.125 1.625-2.375 5.875 1.25.75-.625 7.625.875-.375 1.625-3.25 1.875-5.5-.375zm6.625 6.5 2.375 4.875 3.875-1.375.375-2-2-2.625-4.625-.375zm8.75-1.5 2.875-3.625 5.875 3 5.5 1.375 5.5 3.5v2.375l-4.5 2.25-6.125 1.25-3-1.875zm20.75 19.5 2-1.625 4.25 2 9.5 4.5 4.25 2.625 2 3 2.375 5.5 5 3.25-.375 1.625-4.875 4-5.25 1.875-1.875-.875-3.875 2.25-3 4-2.875 3.625-2.25-.25-4.5-3.25-.375-5.625.75-3-2-7.125-2.625-2.25-.25-3.25 2.875-1.25 2.625-3.875.625-1.25-2-2.25z" fill="#d1d0dc" stroke="#3c3b6e" stroke-width="1.3"/><path d="m197.626 562.688-.375 106.75 2 1.25 3.875.25 1.75-1.375h3.25l.25 3.625 8.625 8.5.625 3.25 4.25-2.375.75-.25.375-3.875 1.75-2 1.375-.25 2.375-1.875 3.875 2.625.75 3.625 2.375 1.375 1.375 3 4.875 2.25 4.25 7.5 3.5 4.875 2.875 3.5 1.75 4.625 6.25 2.25 6.5 2.625 1.25 5.5.625 3.875-1.25 4.25-2.25 2.875-2-1-1.75-3.875-3.5-1.875-2.25-1.375-1 1 1.75 3.5.25 4.625-1.375.625-2.375-2.375-2.625-1.625.625 2 1.625 2.25-1 1-1.625-1.25-2.625-4.25-1.25-2.875-1.25 1.25-1.625-1.875 2.25-2.375-1.75-1.875v-6.25h-1l-1 4.25-1.375.625-1.25-4.625-.75-4.625-1-.625.375 7.125v1.375l-1.75-1.625-4.5-7.5-2.625-.625-.75-4.625-2-3.625-2-1.375v-2.875l2.625-1.625-.625-.375-3.25.875-4.25-3-3.25-3.625-6.125-3.25-5-3.25 1.625-4v-2.375l-2.25 2-3.625 1.375-4.625-1.375-7.125-3h-6.875l-.75.625-8.125-4.875-2.625-.375-3.5-7.25-4.5.375-4.5 1.875.625 5.625 1.375-3.625 1.25.375-1.75 5.5 4-3.5.75 2-4.875 5.5-1.625-.375-.625-2.375-1.625-1-1.625 1.375-3.5-2.25-3.875 2.625-2.25 2.625-4.25 2.625-5.875-.25-.625-2.625 4.625-.875v-1.625l-2.875-.875 1.25-3 2.875-4.875v-2.25l.25-1 5.5-2.875 1.25 1.625h3.5l-1.625-3.25-4.625-.375-6.25 3.5-3 4.25-2.25 3.25-1.375 2.875-5.25 1.875-3.875 3.25-.375 2 2.875 1.25 1 2.625-3.5 4-8.125 5.25-9.75 5.25-2.625 1.375-6.6253 1.375-6.625 2.875 2.25 1.625-1.75 1.875-.625 1.375-3.5-1.25-4 .25-1 2.875h-1.25l.375-3-4.5 1.625-3.625 1.25-4.25-1.625-3.625 2.375h-4l-2.625 1.625-2 1-2.625-.375-3.25-1.375-2.875.875-1.25 1.25-2-1.375v-2.375l3.875-1.625 7.875.875 5.5-2 2.625-2.625 3.625-.875 2.25-1 3.5.25 2 1.625 1.25-.375 2.875-3.5 3.875-1.25 4.25-.875 1.625-.375.875.625h1l1.625-4.625 5-1.875 2.375-4.625 2.8753-5.625 2-1.875.375-3.25-2 1.625-4.2503.875-.875-3-1.625-.375-1.25 1.25-.25 3.625-1.75-.25-1.75-7.25-1.625 1.625-1.375-.625-.375-2.375-5 .25-2.625 1.375-3.25-.375 1.875-1.875.625-3.25-.875-2.375 1.875-1.25 1.625-.25-.875-2.25v-5.5l-1.25-1.25-1 1.875h-7.625l-1.875-1.625-.875-4.875-2.625-4.5v-1.25l2.625-1 .25-2.875 1.375-1.375-1-.625-1.625.625-1.375-3.5 1.25-6.25 5.625-4 3.25-2 2.375-4.625 3.5-1.625 3.25 1.375.375 3 3-.375 4-3 2 .75 1.25.75h2l2.875-1.625 1-5.5 1.2503-4.25 1.25-1.25-1.375-2.375-3.2503 1-4 1-2.375-.625-4.5-2.25-6.25-.25-4.5-4.625.625-4.875.875-3-2.625-2.25-2.375-4.625.625-1 8.5-.625h2.625l1.25 1.25h.875l-.25-2 4.875-.75 3.25.375 1.75 1.375-1.75 2.625-.625 1.875 3.5 2 6.2503 2.25 2.25-1.25-2.875-5.5-1.25-4 1.25-1-4.2503-2.375-.625-1.375.625-2-1-4.875-3.625-5.875-3-5.25 3.625-2.375h4l2.2503.75 5.25-.25 4.625-4.5 1.375-3.875 4.625-3 2 1.25 3.5-.75 4.625-2.625 1.375-.25 1.25 1 5.625-.25 3.5-3.875h1.375l4.5 3 2.375 2.625-.625 1.375.875 1.375 2-2 4.875.375.375 4.625 2.375 1.875 8.875.75 7.875 5.25 1.75-1.25 6.5 3.25 2.625-.75 2.375-1 6.125 2.375zm-143.8753 36.125 2.625 6.625-.25 1.25-3.625-.375-2.25-5-2.25-1.875h-3l-.25-3.25 2.25-3 1.375 3 1.875 1.875zm-3.25 41.875 4.625 1 4.625 1.25 1 1.25-2 4.625-3.875-.25-4.25-4.5zm-25.875-17.625 1.375 3.25 1.375 2-1.375 1-2.625-3.875v-2.375zm-17.24997 91.375 4.24997-2.875 4.25-1.25 3.25.375.625 2 2.375.625 2.375-2.375-.375-2 3.5-.875 3.625 3.25-1.375 2.25-5.5 1.375-3.5-.625-4.625-1.375-5.5 1.75-1.99997.375zm61.24997-5.625 2 2.375 2.625-2-1.875-1.625zm3.625 3.75 1.375-2.875 2.625.375-1 2.375h-3zm29.5003-2.375 1.75 2.25 1.25-1.375-1-2.375zm11-15.625 1.375 7.25 3.625 1 6.25-3.625 5.5-3.25-2-2.875.625-3-2.625 1.625-3.625-1 2-1.375 2.375 1 4.875-2.25.625-1.875-3-1 1-2.375-3.5 2.375-5.875 4.5-6 3.625zm52.875-24.75 3-1.875-1.25-2.25-2.25 1.25z" fill="#d1d0dc" stroke="#3c3b6e" stroke-width="1.3"/><path d="m949.75 548.874 2.875 9.125 4.625 12.125 6.625 11.75 4.625 7.875 6 6.875 5 4.625 2 3.625-1.375 1.625-1 1.625 3.625 9.25 3.625 3.625 3.25 6.625 4.5 7.25 5.625 10.25 1.63 9.5.62 15 .88 2.25-.38 4.25-3 1.625.375 2.375-.875 2.375.375 3 .625 2.375-3.5 4-3.875 1.875-4.875.25-1.875 2-3 1.25-1.625-.625-1.375-1.25-.375-3.625-1-4.25-4.25-6.5-4.5-2.875-4.875-.375-1 1.625-3.875-5.5-.875-4.5-3.25-5-2.25-1.375-2 2.625-2.25-.375-2.625-6.25-3.625-4.875-3.625-6.625-3.25-3.875-4.5-4.625 2.625-3 4-6.875-.25-2-5.625-1.25-2 .75.375.75 3.25 1.25-1.875 5.625-1 .625-2.25-5-1.625-6.125-.375-3.5 1.875-5.875v-11.875l-3.875-4.625-1.625-3.875-6.5-1.625-2.375-.75-2-3.25-4.25-2-1.375-4.25-3.5-1.25-3-4.625-5.25-1.875-3.625-1.875h-2.75l-5 1-.25 2.375 1 1.25-.625 1.375-3.875-.25-4.625 4.5-4.5 2.375h-4.875l-4 1.625-.375-3.5-2-2.375-3.625-1.375-2-1.875-10.125-4.875-9.5-2.25-5.5.75-7.5.625-7.5 2.625-4.375.75-.25-10-3.25-2.375-2.25-2.25.375-3.875 12.75-1.625 31.875-3.625 8.5-.75 6.75.375 3.25 4.875 1.875 1.875 10.125.625 13.5-.75 26.875-1.625 6.875-.875 6.375.25.5 3.625 2.75 1 .25-5.75-1.875-5.25 1.625-1.75 6.875.625zm15.75 165.5 3-.875 1.625-.25 1.875-2.875 2.875-2 1.625.625 2.125.375.5 1.25-4.375 1.5-5.25 1.875-2.875 1.5zm16.875-6.25 1.5 1.25 3.5-2.625 6.625-5.25 4.625-4.875 3.125-8.25 1.25-2.125.25-4.25-.87.625-1.25 3.5-1.88 5.75-4 6.5-5.5 5.25-4.25 2.375z" fill="#66668e" stroke="#3c3b6e" stroke-width="1.3"/><path d="m1101 177.999 1.13-1.375 1.37-4.125-3.12-1.125-.63-3.875-4.87-1.375-.38-3.5-9.12-29.25-5.75-18.125h-1.13l-.87 2-.88-.625-1.25-1.25-1.87 2.375v6.25l.37 7.125 2.38 3.5v5l-4.63 6.375-3.25 1.375v1.375l1.38 2.25v10.75l-1 11.5-.25 6.125 1.25 1.625-.25 5.625-.63 2.25 1.25.875 21-5.5 2.75-.75 2.25-3.5z" fill="#d1d0dc" stroke="#3c3b6e" stroke-width="1.3"/><path d="m872.376 221.499-4-10.251-2.875-11.375-3-4-3.25-2.25-2 1.375-4.875 2.25-2.375 6.25-3.5 4.625-1.375.751-1.875-.751-3-2.625.625-6.25 4.25-1.625 1-4.25.875-3.25 3-2-.375-12.5-2-2.875-1.625-1-1-2.625 1-1 2 .375.25-2-3.25-2.75-1.625-3.25h-3.25l-5.625-1.75-6.875-4.25h-3.5l-.875.875-1.25-.625-3.875-2.875-3.625 2.25-3.625 2.875.375 4.5 1.25.375 2.625.625.625 1-3.25 1-3.25.375-1.875 2.25-.375 2.625.375 2 .375 6.875-4.5 2.625-.875-.25v-5.25l1.625-3 .875-3-1-1-2.375 1-1.25 5.25-3.5 1.375-2.25 2.375-.25 1.25.875 1-.875 3.25-2.875.625v1.375l1 3-1.375 7.625-2 5 .875 5.875.625 1.376-1 2.999-.375 1-.375 3.501 4.5 7.5 3.625 8.125 1.875 6.125-1 5.875-1.25 7.5-3 6.5-.375 3.5-4.125 3.875 5.5-.25 26.75-2.875 9.125-1.25.125 2.125 8.5-1.5 12.875-1.875 4.75-.625.125-.75.25-1.75 2.625-4.625 2.5-2.125-.25-6.375 2-2 1.375-.375.25-4.5 1.875-3.75 1.25.75.25.75 1 .25 2.375-1.25z" fill="#d1d0dc"/><path d="m727 102.624 2.25-2.6252 2.75-1 6.75-4.875 2.875-.75.625.625-6.375 6.3752-4.125 2.375-2.625 1.125zm107.75 40.125.875 3.125 4 .25 1.625-1.5-.5-2-2-2.375-2.75.25-2 .25-.375 1.375zm-125.375-3.75.875-.75 3.5-1 4.5-2.875v-1.25l.875-.875 7.5-1.25 3-2.375 5.5-2.625.25-1.625 2.375-3.625 2.25-1 1.625-2.25 2.875-2.875 5.5-3 5.875-.625 1.375 1.375-.375 1.25-4.625 1.25-1.875 3.875-2.875 1-.625 3-3 4-.375 3.25 1 .625 1.25-1.375 4.5-3.625 1.625 1.625h2.875l4 1.25 1.875 1.375 1.875 3.875 3.5 3.5 4.875-.25 1.875-1.25 2 1.625 2 .625 1.625-1h1.375l2-1.25 5-4.5 4.25-1.375 8.25-.375 5.625-2.375 3.25-1.625 1.875.25v7.125l.625.375 3.625 1 10-2.625 1.375-1.375 1.875.625v8.625l4 3.875 1.625.875 1.625 1.25-1.625.375-1-.375-4.625-.625-2.625.875-2.875-.25-4 1.75h-2.25l-7.25-1.625-6.5.25-2.375 3.25-8.75.875-3 1-1.375 3.875-1.625 1.375-.625-.25-1.875-2-5.625 3h-.875l-1.375-2-1 .25-2.375 5.5-1.25 5-4 8.75-1.5-1.25-1.75-1.25-2.375-12.875-4.375-1.75-2.5-2.875-15.125-3.375-3.625-1.25-10.25-2.75-9.875-1.375z" fill="#d1d0dc"/><path d="m872.376 221.499-4-10.251-2.875-11.375-3-4-3.25-2.25-2 1.375-4.875 2.25-2.375 6.25-3.5 4.625-1.375.751-1.875-.751-3-2.625.625-6.25 4.25-1.625 1-4.25.875-3.25 3-2-.375-12.5-2-2.875-1.625-1-1-2.625 1-1 2 .375.25-2-3.25-2.75-1.625-3.25h-3.25l-5.625-1.75-6.875-4.25h-3.5l-.875.875-1.25-.625-3.875-2.875-3.625 2.25-3.625 2.875.375 4.5 1.25.375 2.625.625.625 1-3.25 1-3.25.375-1.875 2.25-.375 2.625.375 2 .375 6.875-4.5 2.625-.875-.25v-5.25l1.625-3 .875-3-1-1-2.375 1-1.25 5.25-3.5 1.375-2.25 2.375-.25 1.25.875 1-.875 3.25-2.875.625v1.375l1 3-1.375 7.625-2 5 .875 5.875.625 1.376-1 2.999-.375 1-.375 3.501 4.5 7.5 3.625 8.125 1.875 6.125-1 5.875-1.25 7.5-3 6.5-.375 3.5-4.125 3.875 5.5-.25 26.75-2.875 9.125-1.25.125 2.125 8.5-1.5 12.875-1.875 4.75-.625.125-.75.25-1.75 2.625-4.625 2.5-2.125-.25-6.375 2-2 1.375-.375.25-4.5 1.875-3.75 1.25.75.25.75 1 .25 2.375-1.25z" stroke="#3c3b6e" stroke-width="1.3"/><path d="m727 102.624 2.25-2.6252 2.75-1 6.75-4.875 2.875-.75.625.625-6.375 6.3752-4.125 2.375-2.625 1.125zm107.75 40.125.875 3.125 4 .25 1.625-1.5-.5-2-2-2.375-2.75.25-2 .25-.375 1.375zm-125.375-3.75.875-.75 3.5-1 4.5-2.875v-1.25l.875-.875 7.5-1.25 3-2.375 5.5-2.625.25-1.625 2.375-3.625 2.25-1 1.625-2.25 2.875-2.875 5.5-3 5.875-.625 1.375 1.375-.375 1.25-4.625 1.25-1.875 3.875-2.875 1-.625 3-3 4-.375 3.25 1 .625 1.25-1.375 4.5-3.625 1.625 1.625h2.875l4 1.25 1.875 1.375 1.875 3.875 3.5 3.5 4.875-.25 1.875-1.25 2 1.625 2 .625 1.625-1h1.375l2-1.25 5-4.5 4.25-1.375 8.25-.375 5.625-2.375 3.25-1.625 1.875.25v7.125l.625.375 3.625 1 10-2.625 1.375-1.375 1.875.625v8.625l4 3.875 1.625.875 1.625 1.25-1.625.375-1-.375-4.625-.625-2.625.875-2.875-.25-4 1.75h-2.25l-7.25-1.625-6.5.25-2.375 3.25-8.75.875-3 1-1.375 3.875-1.625 1.375-.625-.25-1.875-2-5.625 3h-.875l-1.375-2-1 .25-2.375 5.5-1.25 5-4 8.75-1.5-1.25-1.75-1.25-2.375-12.875-4.375-1.75-2.5-2.875-15.125-3.375-3.625-1.25-10.25-2.75-9.875-1.375z" stroke="#3c3b6e" stroke-width="1.3"/><path d="m1055.63 192.625.37-6.75-3.62-13.5-.88-.375-3.62-1.625 1-3.625-1-2.625-3.38-5.75 1.25-4.875-1-6.5-3-8.125-1-6.125 33-8.375.38 6.875 2.37 3.375v5l-4.62 6.375-3.25 1.375v1.375l1.62 1.875-.37 10.125-.75 11.625-.25 7 1.25 1.625-.25 5.75-.63 2.125 1.25.875-9.25 1.875z" fill="#d1d0dc" stroke="#3c3b6e" stroke-width="1.3"/><path d="m1153.5 98.4993 2.38 2.6247 2.87 4.625v2.375l-2.62 5.875-2.38.75-4.25 3.875-6 6.875h-1.62l-1.25-2.625-2.25.25-1.25 1.75-3 1.75-1.25 1.75 2 1.75-.63.875-.62 3.5-2.38-.25v-1.75l-.37-1.625-1.88.375-2.25-4-2.62 1.625 1.62 1.75.38 1.375-1 1.625.37 3.875.25 2-2 3.25-3.62.625-.38 3.625-6.62 3.875-1.63.625-2-1.75-3.87 4.5 1.25 4-1.88 1.625-.25 5.5-1.37 7.875-3.13-1.5-.62-3.875-4.63-1.625-.37-3.5-9.13-29.25-5.88-18.25 1.75-.125 1.88.5v-3.25l1.63-5.625 3.25-5.875 1.87-4.9997-2.38-3v-7.5l1.01-1.25 1-3.5-.25-1.875-.26-6 2.25-6 3.63-11.125 2.63-5.25h1.62l1.63.25v1.375l1.62 2.875 3.5.875 1-1v-1.25l5-3.625 2.25-2.25 1.88.25 7.5 3 2.37 1.25 11.25 37.375h7.5l1 2.375.25 6 3.63 2.8747h1l.25-.625-.63-1.3747zm-26.12 37.7497 1.87-1.875 1.75 1.375.75 3-2.12 1.125zm8.37-7.375 2.25 2.375 1.63-.25.25-2.5 1.12-1-1-2.25-2.5.875z" fill="#d1d0dc" stroke="#3c3b6e" stroke-width="1.3"/><path d="m1092.63 223.625-4.63-18.75 7.88-2.375 2.75 2.375 4.12 5.375 3.38 5.5-3.75 2-1.63-.25-1.37 2.25-3 2.375z" fill="#d1d0dc" stroke="#3c3b6e" stroke-width="1.3"/><path d="m1038 236-1.37-1.25-3.25-.25-2.88-2.375-2-7.625-4.37.125-3-3.375-24.254 5.5-53.75 10.875-9.375 1.5-.875-8.125 1.75-1.375 1.625-1.375 1.25-2 2.25-1.375 2.375-2.25.625-2 2.625-3.5 1.375-1.25-.25-1.25-1.625-3.875-2.25-.25-2.375-7.625 3.625-2.25 5.5-1.75 5-1.625 4-.625 7.875-.25 2.375 1.625 2 .25 2.625-1.625 3.25-1.375 6.5-.625 2.625-2.25 2.25-4 2-2.375h2.625l2.375-1.375.25-2.875-1.875-2.625-.375-1.75 1.375-2.625v-1.75h-2.25l-2.25-1-1-1.375-.25-3.25 7.25-6.875.875-1 1.875-3.625 3.629-5.625 3.5-4.625 2.62-3 3-2.25 3.88-1.5 6.87-1.625 4 .25 5.63-1.75 9.5-2.625.62 6.25 3 8.125 1 6.5-1.25 4.875 3.25 5.625 1 2.625-1 3.625 3.63 1.625.87.375 3.88 13.75-.63 6.375-.62 13.5 1 6.875 1 4.5 1.87 9.125v10.125l-1.37 2.875 2.25 2.5 1 2.125-2.38 2.25.38 1.625 1.62-.375 1.88-1.625 2.87-3.25 1.38-.75 2 .75 2.87.25 9.88-4.875 3.62-3.5 1.63-1.75 5.25 2-4.25 4.5-4.88 2.75-8.87 6.625-3.25 1.25-7.25 2.375-5 1.375-1.5-.625-.25-4.625.62-3.5-.25-2.625-3.5-2.125-5.62-1.25-4.88-1.375z" fill="#66668e" stroke="#3c3b6e" stroke-width="1.3"/><path d="m1031.38 280.875 1.62-.375 2.88-1.5 1.5-3.125 2-2.875 4-3.875v-1l-7.5-5-1.25-3.25-3.5-.375-.25-1.375-1-3.5 2.87-1.375.25-3-1.62-1.625.25-2 2.37-3.875v-3.875l3.38-3.25-1.13-.875-3.12-.25-2.88-2.375-1.87-7.625-4.38.125-3.12-3.375-22.63 5.25-53.75 10.875-11.125 1.75-.75-8.125-6.75 6.375-1.625.625-5.25 3.75 3.625 23.875 3.125 12.125 4.5 24.125 4.125-.75 14.875-1.875 47.375-9.625 18.625-3.5 10.38-2 .37-.25 2.63-2z" fill="#d1d0dc" stroke="#3c3b6e" stroke-width="1.3"/><path d="m1037.13 235.625-2.88 3.375v3.875l-2.37 3.875-.25 2 1.62 1.625-.25 3-2.87 1.375 1 3.5.25 1.375 3.5.375 1.25 3.25 4.5 3 3 2v1l-3.75 3.375-2 2.875-1.88 3.5-2.87 1.625-.63 1.875-.25 1.5-.75 3.25 1.38 2.75 4 3.625 6 2.875 5 .75.25 1.75-1 1.25.37 3.5h1l2.63-3 1-6.125 3.5-5 3.87-8.125 1.38-6.875-.88-1.375-.25-11.75-2-4.25-1.37 1-3.5.375-.63-.625 1.38-1.25 2.62-2.375.13-1.375-.5-4.25.75-3.5-.13-2.5-3.5-2.25-6.37-1.5-5.13-1.75z" fill="#d1d0dc" stroke="#3c3b6e" stroke-width="1.3"/><path d="m1032 285.375.5-2.625.5-2.125-2 .5-2 .625-2.75 2.25 2.13 6.25 2.87 7.125 2.63 12.125 2 7.875 6.25-.25 7.62-1.5-2.87-9.25-1.25.625-4.5-3-2.25-5.875-2.38-4.5-4-3.625-1.12-2.625z" fill="#d1d0dc" stroke="#3c3b6e" stroke-width="1.3"/><path d="m1049.75 315.5-7.5 1.5-6.37.125-2.25-8.625-2.38-11.5-3.25-7.75-1.62-5.5-9.38 2-18.624 3.5-46.875 9.5 1.375 6.25 1.25 7.125.375-.375 2.625-3 2.875-3.25 3-.75 1.875-1.75 2.25-3.25 1.625.75 3.625-.375 3.25-2.625 2.5-1.75 2.25-.625 2 1.375 3.625 1.75 2.375 2.25 1.5 1.875 5.125 2.125v3.625l6.879 1.625 1.37.625 1.75-2.5 3.63 2.5-1.63 3.125-1 5-2.25 3.25v2.625l.88 2.25 6.37 1.75 5.38-.125 3.87 1.25 2.63.375 1.25-2.625-1.88-2.625v-2.25l-3-2.625-2.62-6.875 1.62-6.625-.25-2.625-1.62-1.625 1.87-2.875.63-2.625 2.37-1.625 2.38-2 .62 1.25-1.87 2-1.63 4.625.38 1.375 2.25.375.62 6.875-2.62 1.25.37 4.5.63-.25 1.37-2.375 2 2.25-2 1.625-.37 4.25 3.25 4.25 4.87.625 2-1 4 5.25 1.75.625 8.38-3.5 2.5-5zm-20 11.25 1.38 3.125.25 2.25 1.37 2.375 1.13-1.5-.88-3.875-.87-2.875z" fill="#d1d0dc" stroke="#3c3b6e" stroke-width="1.3"/><path d="m1039.5 332.625-.13-2.5 8.13-3.125-1 4-3.63 4.75-.5 5.75.63 4.25-2.25 6.25-2.75 2.375-1.88-5.75.63-6.875 2-5.25zm4.25 35.375-72.75 15.75-46.75 6.625-8.375-.5-3.25 2.375-9.125.25-10.5 1.25-13.625 2 13.125-7v-2.625l1.875-2.625 13.125-14.375 5 5.625 4.75 1.25 3.125-1.375 2.75-1.625 3.125 1.625 4.875-1.75 2.375-5.75 3.25.625 3.625-2.625 2.25.625 3.5-4.625.375-2.625-1.25-1.625 1.25-2.375 6.625-15.375.75-7.125 1.5-.625 2.75 3 4.875-.375 2.375-9.5 3.5-.75 1.25-3.375 3.25-3 3.5-7.125.125-6.375 12.25 4.75 1-6.375 4.625 2 .125 3.625 7.25 1.625 2.62 1.5 2.13 2.625-.88 4.5-2.5 3.25.13 2.625.75 2.375 6.25 1.625h5.62l3.88 1.25 2.37.375.88 3.875 4 .5 1.12 1.5-.5 5.875 1.75 1.375-.62 2.375 1.5 1-.25 1.75-3.38-.125.13 2 2.87 1.875.13 1.75 2.25 2.25.62 3.125-3.12 1.75 2 1.875 7.25-2.125z" fill="#d1d0dc" stroke="#3c3b6e" stroke-width="1.3"/><path d="m951.501 298.75 1.375 6.125 1.375 7.5 2.625-3.25 2.875-3.875 3.125-.75 1.875-1.75 2.25-3.25 1.875.75 3.625-.375 3.25-2.625 2.5-1.75 2.25-.625 1.625 1.25 4.5 2.25 2.375 2.25 1.75 1.625-1 7-7.25-3.125-5.25-2-.125 6.5-3.5 6.875-3.125 3-1.5 3.5-3.25.625-1.125 4.5-1.25 5-5 .375-2.875-3-1.375.75-.75 6.875-1.625 4.375-6.25 13.75 1.125 1.5-.25 2.375-3.5 4.875-2.25-.625-3.75 2.75-3.125-.75-2.5 5.75-4.875 1.75-3.125-1.5-2.875 1.75-3 1.25-4.625-1.125-1.376-1.5-2.749-3.75-3.876-2.5-2.125-4.5-5.375-4.375-.875-2.875-3.25-1.875-.999-2-.251-6.5 2.751-.125 2.374-1 .25-3.5 2.001-1.875.249-6.25 1.25-4.875 1.626-.75 1.625 1.375.625 2.25 2.25-1.25.625-2-1.375-2.25v-3l1.25-1.625 2.875-4.25 1.625-1.75 2.624.625 2.876-2 3.875-4.25 2.875-4.875.375-7.125.625-6.25v-5.875l-1.375-3.875 1.25-1.75 1.625-1.625 4.375 24.75 5.75-1z" fill="#d1d0dc" stroke="#3c3b6e" stroke-width="1.3"/><path d="m919.126 241.625-7.625 5.125-4.875 2.875-4.25 4.625-5 4.875-4 1-3.625.625-6.875 3.25-2.625.25-4.25-3.875-6.5.75-3.25-1.75-3-1.75-6.125.875-12.75 2-14 2.75 1.625 18.25 2.25 17.125 3.25 29.25.75 6 5.125-.125 3-1 4.25 1.875 2.625 5.5h6.375l2.375 2.625 2.25-.125 3.125-1.625 3.125.5 6.75.625 2.125-2.625 2.875-1.625 2.625-.875.875 3.5 2.25 1.25 4.375 2.875 2.75-.125 1.625-.625.25-3.5 2-1.875.125-6 1.25-5.125 1.625-.75 1.625 1.375.625 2.125 2.125-1.25.5-1.875-1.375-2.375.125-2.875 1-1.375 2.75-4.125 1.25-1.875 2.625.625 2.875-2 3.875-4.25 3.5-5.125.375-6.375.625-6.25-.25-6.625-1.25-3.625.375-1.5 2.25-2.25-2.875-11.375z" fill="#d1d0dc" stroke="#3c3b6e" stroke-width="1.3"/><path d="m774.501 374.999.125-3.625.625-5.625 2.875-3.624 2.25-4.876 3.25-5.25-.625-7.25-2.25-3.5-.375-4 1-6.875-.625-8.75-1.625-19.999-1.625-19.251-1.25-14.624 3.875 1.125 1.875 1.25 1.375-.375 2.625-2.376 3.5-1.999 6.375-.25 27.5-2.875 7-.625 1.875 20 5.25 46 .75 7.249-.5 2.876 1.5 2.249.125 1.75-3.125 2-4.375 1.875-4 .625-.75 6.125-5.75 4.126-3.5 5 .375 2.999-.75 1.875h-4.125l-2-2-3.125 1.625-3.375 1.875.25 3.75-1.5.375-.625-1.25-2.75-1.875-4 1.625-1.875 3.75-1.75-1-1.875-2-5.625.625-7 1.25z" fill="#d1d0dc" stroke="#3c3b6e" stroke-width="1.3"/><path d="m774.376 375.374v-4l.75-5.75 2.875-3.625 2.375-5.125 2.75-5-.5-6.5-2.5-4.375-.125-4.25.875-6.625-1-9-1.375-19.75-1.625-18.75-1.125-14.5-.375-1.125-1-3.25-1.625-4.625-2-2.25-1.875-3.25-.25-6.875-57.25 3.25.25 3 2.875.875 1.125 1.375.625 2.25 4.875 4.25.875 2.875-.875 4.25-2.25 4.625-.875 3.125-2.875 2.25-2.25.875-6.625 1.75-.875 2.25-.875 2.625.875 1.75 2.25 2-.25 5.125-2.25 2-.875 2v3.375l-2.25.625-2 1.375-.25 1.75.25 2.625-2.125 1.625-1.25 3.5.625 4.625 2.875 9.125 9.125 9.375 6.875 4.625-.25 5.375 1.125 1.75 8 .625 3.375 1.75-.875 4.625-2.875 7.375-.875 4 2.875 4.875 8 6.625 5.75.875 2.625 6.25 2.625 4-1.125 3.75 2 5.125 2.25 2.625 1.75-1.125 1.125-2.625 2.75-2.25 2.625-.75 3.25 1.5 4.5 1.75 1.5-.375.25-2.875-1.625-3 .375-3 2.25-1.75 3.75-1 1.625-.625-.75-1.75-1-3 1.75-1.25z" fill="#d1d0dc" stroke="#3c3b6e" stroke-width="1.3"/><path d="m1092.63 223.625-4.63-18.625-5.87 1.125-26.5 5.875 1.25 4 1.87 9.125.25 11.25-1.5 2.75 2.38 2.375 5.37-4.875 4.5-4 2.38-2.625 1 .75 3.5-1.75 6.5-1.375z" fill="#d1d0dc" stroke="#3c3b6e" stroke-width="1.3"/><path d="m768.876 246.749-.125-4-1.5-5.625-.875-7.625-1.375-3 1.25-3.875 1-3.625 1.875-3.25-.875-4.25-.875-4.5.625-2.25 2.375-3 .25-3.5-1-1.625.875-3.25-.625-5.25 3.5-7.125 3.625-8.5.25-2.875-.375-1.25-1 .625-5.25 7.875-3.5 5-2.375 2.25-1 2.875-2.5 1-1.375 2.375-1.875-.375-.25-2.25 1.625-3 2.625-5.875 2.25-2 1.25-3-3.25-2.375-2.5-13-4.375-1.625-2.5-2.875-15.125-3.375-3.625-1.25-10.25-2.75-9.875-1.5-4.75-6.375-1 .75-1.5-.25-.875-1.375-1.625.375-1.375.25-2.25 1.25-1.25-.875.875-2.375 2.375-3.875 1.375-1.375-2.375-1.75-2.625 1-3.625 2.375-9.25 4-3.625.875-3.625-.625-1.25-1.125-2.625 3.5-.25 3.375v10.625l-1.375 2-6.625 4.875-2.875 7.375.625.25 3.125 2.625.875 4-2.25 4v4.875l.625 8.25 3.75 3.75h4.25l2.25 4 4.25.625 4.875 7.125 8.875 5.125 2.625 3.375 1.125 9.25.875 4.125 2.875 2 .25 1.75-2.625 4.25.25 4 3.125 4.875 3.125 1.375 3.75.625 1.625 1.75z" fill="#d1d0dc" stroke="#3c3b6e" stroke-width="1.3"/><path d="m1043.75 367.875 2.63 6.125 4.5 8.125 3 3 .87 2.875-3 .25 1 .75-.37 5.25-3.25 1.625-.88 2.625-1.62 3.625-4.63 2-3-.375-1.87-.25-2-1.625.37 1.625v1.25h2.38l1 1.625-2.38 7.875h5.25l.88 2 2.87-2.875 1.63-.625-2.38 4.5-3.87 6.125h-1.63l-1.37-.625-3.5.75-6.5 3-8.13 6.625-4.25 5.875-2.37 8.125-.63 3-5.87.625-6.88 1.625-12.5-10.25-15.75-9.5-3.625-1-15.75 1.875-5.375 1-2-4-3.75-2.625-20.625.625-9.125 1-11.25 5.625-7.625 3.25-26.5 3.25.625-5 2.25-1.875 3.5-.75.875-4.625 5.25-3.5 4.875-1.875 5.25-4.5 5.5-2.625.875-3.875 4.875-4.875.875-.25 1 1.375 2.375.375 2.875-4.5 2.625-.75 2.875.375 2-4.5 3.625-3.25.625-2.625.25-4.5h5.375l9-1.125 19.75-2.75 18.875-2.625 27-5.875 25.005-5.375 14-3zm5.25 41.5 3.25-3.125 4-3.25 1.88-.75.25-2.5-.88-7.625-1.87-2.875-.88-2.375.88-.25 3.5 6.875.5 5.625-.25 4.25-4.25 1.875-3.5 3-1.38 1.5z" fill="#d1d0dc" stroke="#3c3b6e" stroke-width="1.3"/><path d="m1007.25 313.5-2.25-2.25-1.5-.875 1.75-2.5 3.63 2.375z" fill="#d1d0dc"/><path d="m1007.25 313.5-2.25-2.25-1.5-.875 1.75-2.5 3.63 2.375z" fill="#d1d0dc"/><path d="m1141.19 384.561-1-1.125-1.75-1.75-.75-.875-1.88-2-.75-.875-3.12-3.125-.5-.625-12.25-12.25-1.38-1.5-1.25-1.375-.37-.5-4.88-4.875-1-.875-7.25 7.25h-.12l-4.5 4.5-2.13 2.375-.87.75-3.63 3.75.5.625.25 1.125.75 1.125 1.63 1.875.62 1.875.5.5 1.75 1.625.88.5 1.87.75 1 .125.63.125 1.25.125.75.375.62 2.5.25.75 1.25 2.625h.75l.25.25.75 1.25v.625l.5.75.63-.125.12-.5-.25-.625.25-.125.5.375.63.875.37 1v.75l-.12.5.25.75 1.5 3.5-.25 2.625-2 .5h-.63l-.12.5v1.125l.37.5.25-.125h.38l.5.5.25 1.125-.25 2.25.12.625.13 1.25.5.25-.75 4.375.12 2.875 8.88-9.25.25-.125h.12l.13-.125.37-.25.38-.375.75-.875 1.87-1.875 1.25-1.125 6.13-6.125.87-.75 4.13-4.125 1.75-1.875 3.37-3.375z" fill="#d1d0dc"/><g stroke="#3c3b6e" stroke-width="1.3"><path d="m1007.25 313.5-2.25-2.25-1.5-.875 1.75-2.5 3.63 2.375z"/><path d="m1007.25 313.5-2.25-2.25-1.5-.875 1.75-2.5 3.63 2.375z"/><path d="m1141.19 384.561-1-1.125-1.75-1.75-.75-.875-1.88-2-.75-.875-3.12-3.125-.5-.625-12.25-12.25-1.38-1.5-1.25-1.375-.37-.5-4.88-4.875-1-.875-7.25 7.25h-.12l-4.5 4.5-2.13 2.375-.87.75-3.63 3.75.5.625.25 1.125.75 1.125 1.63 1.875.62 1.875.5.5 1.75 1.625.88.5 1.87.75 1 .125.63.125 1.25.125.75.375.62 2.5.25.75 1.25 2.625h.75l.25.25.75 1.25v.625l.5.75.63-.125.12-.5-.25-.625.25-.125.5.375.63.875.37 1v.75l-.12.5.25.75 1.5 3.5-.25 2.625-2 .5h-.63l-.12.5v1.125l.37.5.25-.125h.38l.5.5.25 1.125-.25 2.25.12.625.13 1.25.5.25-.75 4.375.12 2.875 8.88-9.25.25-.125h.12l.13-.125.37-.25.38-.375.75-.875 1.87-1.875 1.25-1.125 6.13-6.125.87-.75 4.13-4.125 1.75-1.875 3.37-3.375z"/><path d="m1124.5 216.499 2.75-.875.63-2.125 1.25.125 1.25 2.875-1.63.625-4.87.125zm-11.75 1.125 2.88-3.25h2l2.25 1.875-3 1.25-2.75 1.25zm-43.37-27.5 22.12-5.75 2.88-.75 2.37-3.5 4.63-2.125 3.62 5.5-3 6.5-.37 1.75 2.37 3.25 1.38-1h2.25l2.87 3.25 4.88 7.5 4.5.625 2.87-1.25 2.25-2.25-1-3.5-2.62-2-1.88 1-1.25-1.625.63-.625 2.62-.25 2.25 1 2.38 3 1.25 3.625.37 3-5.25 1.75-4.87 2.375-4.88 5.625-2.37 1.75v-1.25l3-1.75.62-2.25-1-3.875-3.62 1.75-1 1.75.62 2.875-2.62 1.25-3.5-5.625-4.25-5.5-2.63-2.25-8.12 2.375-6.63 1.75-25.87 5.75-.88-6 .88-13.25 5.37-1.125z" fill="#d1d0dc"/><path d="m870.875 397.75-64.875 6.25-19.75 2.25-5.75.625h-4.875l-.25 5.125-10.25.375-8.75.75-10.125-.125-1.75 8.875-2 6.875-1.5 4.125-2.25 7.625-3.5 3 1.625 5 3.875.625-2.25 1.5-.25 3.25 127.5-12.25.5-5 2.25-1.875 3.5-1 .875-4.625 5.125-3.375 5-1.875 5.125-4.5 5.5-2.5.625-3.875 5.125-5 .625-.125 1 1.375 2.375.5 2.875-4.5 2.625-.75 2.875.375 2-4.375 3.75-3.25.5-2.375.375-4.625-2.75-.25-3.25 2.5h-8.75l-23 3z" fill="#d1d0dc"/><path d="m742.251 428.749-5 .875-6.375-.75.5-2 3.75-3.25 1.125-4.625-2.25-3.75-98 3.125 2 8.625v10.25l1.75 13.75.25 47.25 2.875 2.375 3.75-1.75 3.375 1.375.875 8.25 69.5-1.375 1.5-2.625-.375-4.375-2.25-3.75 2-1.875-2-3.125.875-3.125 1.75-7 3.125-2.625-.875-2.875 4.625-6.75 3.375-1.75-.125-1.875-.375-2.25 3.625-7 3-1.625.5-4.25 2.25-1.5-3.875-.625-1.625-5 3.5-3 .625-2.5 1.625-5z" fill="#d1d0dc"/><path d="m698.001 310.124-3.125-3.875-1.375-2.875-80.5 3-2.875.125 1.625 3.125-.25 2.875 3.125 4.875 3.875 5.125 3.875 3.375 2.75.25 1.875 1.125v3.75l-2.25 2-.625 2.875 2.625 4.25 3.125 3.75 3.125 2.25 1.75 14.625.375 45.125.25 5.875.625 6.75 28-1.125 29-.875 26-1 14.625-.25 2.75 4.25-.875 4.125-3.875 3-.75 2.25 6.75.625 4.875-.875 2.125-6.875.875-7.375 2.625-3.25 3.25-1.875v-3.75l1.25-2.375-2.125-3.125-1.625 1.25-2.5-2.75-1.625-6 1-3.125-2.375-4.25-2.25-5.75-6-1-8.75-7-2.125-5.125 1-4 2.625-7.625.625-3.625-2.5-1.25-8.625-1-1.25-2.125-.125-5.25-6.875-4.25-8.75-9.75-2.875-9.125-.25-5.25z" fill="#d1d0dc"/><path d="m840.376 444.375v2.75l.25 2.625.875 4.25 4.25 9.875 3 12.375 1.875 7.625 2 6.125 1.875 8.75 2.625 7.875 3.25 4.25.625 4.25 2.375 1 .25 2.625-2.25 6.125-.625 4-.25 2.375 2 5.5.375 6.625-1 3 .875 1 1.875 1 .25 4 2.75 4.25 2.75 2.75 9.875.25 13.5-.75 26.875-1.625 6.875-.875h5.75l.25 3.625 3.25 1 .375-5.5-2-5.625 1.375-2 7.25 1 6.25.375-1-7.875 2.875-12.5 1.875-5.25-.625-3.25 4.125-7.75-.625-1.75-2.375.875-3.25-1.625-.875-2.625-1.625-4.5-2.875-2.625-3.25-.75-2-6.125-3.625-7.875-5.25-2.375-2.625-2.375-1.625-3.25-2.625-2.375-2.875-1.625-2.875-3.625-3.875-2.875-5.625-2.25-.625-1.875-3-3.625-.625-1.875-4.25-6.25-4.375.125-4.75-3-1.75-1.625-.375-2.25 1.125-2.375 2.75-1.375-.75-2.625z" fill="#66668e"/><path d="m956.125 510.25-2.25 1.25-3.25-1.625-.875-2.625-1.625-4.5-2.875-2.625-3.25-.75-2-6.125-3.5-7.5-5.25-2.375-2.625-2.375-1.625-3.25-2.625-2.375-2.875-1.625-2.875-3.625-3.875-2.875-5.625-2.25-.625-1.875-3-3.625-.625-1.875-4.25-6.5-4.25.25-5-3-1.625-1.625-.375-2.25 1-2.375 2.875-1.25-.625-2.875 7.25-2.875 11.375-5.75 9.75-1 20.125-.5 3.25 2.375 2.125 4.25 5.375-.75 15.75-1.875 3.625 1 15.75 9.5 13 10.125-6.75 6.875-3.25 7.625-.625 7.875-2 1-1.375 3.5-3 .75-2.625 4.5-3.5 3.5-2.875 4.25-2 1-4.5 4.125-3.625.25 1.25 4-6.25 6.875z" fill="#d1d0dc"/><path d="m907.501 369.124-2.875 3-4.5 5-6.125 6.875-1.5 2.125-.125 2.625-5.5 2.75-7.125 4.25-9 2.25-64.875 6.125-19.625 2.125-5.75.625h-4.875l-.25 5.25-10.25.125-8.75.75-10-.125 1.5-1.625 3.125-1.875.25-4 1.125-2.25-2-3.125 1-2.375 2.875-2.25 2.625-.75 3.5 1.625 4.5 1.625 1.375-.375.25-2.875-1.625-3 .375-2.875 2.375-1.875 3.25-.75 2-.75-1-2.25-.875-2.375 1.875-1.25 1.5-4.625 3.75-1.875 6.625-1.25 5.625-.625 1.75 2 1.875 1.125 2-3.875 4-1.625 2.75 1.875.5 1.25 1.5-.375-.25-3.75 3.875-2.25 2.75-1.375 1.875 2.125h4.125l.75-2-.5-2.875 3.25-5 6-4.25.875-6 3.625-.625 4.75-2 3-2.125-.25-2-1.375-1.875.75-3.75 5.25-.125 2.875-1 4.125 1.75 2.5 5.5h6.375l2.5 2.75 2-.125 3.25-1.625 6.5.75 3.25.25 2.125-2.625 3.25-1.75 2.375-.875.875 3.5 2.5 1.375 3.25 2.625.125 7.125 1 2 3.25 2 1 2.875 5.25 4.25 2.25 4.5z" fill="#66668e"/><path d="m789.125 575.499-1.875-17.875-3.5-23.5.251-17.625.999-38.75-.25-20.75.25-8 55.625-4.5-.25 2.75.25 2.625.875 4.25 4.25 9.875 3 12.375 1.875 7.625 2 6.125 1.875 8.75 2.625 7.875 3.25 4.25.625 4.25 2.375 1 .25 2.625-2.25 6.125-.625 4-.25 2.375 2 5.5.375 6.625-1 3 .875 1 1.875 1 .375 3.625-7-.5-8.5.75-31.875 3.625-13 1.75-.25 3.625 2.25 2.25 3.25 2.375.75 9.875-6.875 3.25-3.75-.375 3.5-2.375v-1.25l-3.875-7.5-2.875-.75-1.874 5.5-1.626 3.5-.874-.25z" fill="#d1d0dc"/><path d="m760 573.999-4.125-4 1.25-6.875-.875-1.125-11.625 1.25-31.25.625-.875-3 1.125-10.625 4.125-7.5 6.25-10.875-.75-3 1.625-.875.625-2.5-2.875-2.625-.125-2.375-2.25-5.5-.25-7.875-69.375 1.125v12l.875 11.75.875 4.875 3.125 5.125 1.125 6.25 5.375 6.875.25 4 .875.875-.875 10.625-3.75 6.25 2 2.625-.875 3.125-.875 9.125-1.75 4 .125 4.5 5.875-1.875 15.125.25 12.875 4.5 8.125 1.375 4.625-1.875 4 1.375 4 1.25 1-2.625-4-1.375-3.25.625-3.5-2 1-1.875 3.875-1.25 2.25 1.875 2.25-1.25 4 .75 1.875 3 .375 2.875 5.625.375 2.25 2.25-1 2-1.625 1 2 2 10.5 4.5 4.5-1.625 1.25-3 3.25-.75 2.25-1.875 1.625 1.25 1 3.625-2.875 1 .875.75 4.25-1.625 2.875-4.25 1-.625-2.625-.375 1-2-.25-1.875 2.625-.625 1.375-1.625.875 1 .875 3.875 5.25.75 5 2.375 1.25 1.875h3.625l1.375 1.25 2.875-3.875v-1.875h-1.625l-4.25-3.5-7.25-1-4-2.875 1.375-3.5 2.875.375.25-.75-2.25-1.25v-.625h4l2.25-3.875-1.625-2.375-.375-3.5-1.875.25-2.375 2.625-.875 3.25-3.875-.75-1.25-2.25 2.25-2.375 2.375-4.375-1.375-3z" fill="#d1d0dc"/><path d="m789.501 574.124-.25 1.625h-6.5l-1.875-1-2.625-.375-8.5 2.375-2.25-1-3.25 5.25-1.375 1-1.375-3.125-1.375-4.875-4.25-4 1.375-6.875-.875-1.125-2.25.25-9.875 1.125-30.625.5-1-2.75 1.125-10.5 3.875-7.125 6.5-11.375-.625-3 1.5-.875.5-2.375-2.875-2.625-.125-2.625-2.25-5.125-.125-7.5 1.625-3.125-.25-4.25-2.25-3.875 1.875-1.875-2-3.125.625-2 2-8.125 3.125-2.5-.75-3 4.625-6.625 3.5-1.75-.25-2.125-.375-2.125 3.625-7 2.875-1.5.25-1.125 46.625-4.875.25 7.875.25 20.75-1 38.75-.25 17.625 3.5 23.5z" fill="#d1d0dc"/><path d="m711.501 249.499.375 3.5 2.75.75 1.25 1.5.625 2.375 4.75 4.25.875 3-.875 4.25-2 4-1 3.375-2.75 2-2.125.75-7 2.375-1.75 4.875.875 1.75 2.25 2.125-.375 5-2.25 1.875-1 2 .125 3.5-2.375.625-2 1.375-.375 1.75.375 2.625-1.875 1.375-3.125-3.875-1.625-3-82.126 3.125-1.124.25-2.5-5.625-.251-8.25-1.999-5.125-.876-6.625-2.874-4.625-1.126-6-3.374-9.375-1.376-6.75-1.75-2.75-2-3.375 2.5-6 1.75-7.125-3.374-2.625-.625-3.375 1.124-4.444h2.125l103.251-1.625 1 5.25 2.75 2 .375 3.069-2.5 4.25.25 4 3.125 3.431 3.125 1.625 3.875.625z" fill="#66668e"/><path d="m594.001 160.999-.625-10.625-2.125-9.125-2.25-16.875-.625-12.25-2.25-4.25-2-6.25v-12.8752l.875-4.875-2.25-6.875h37.625l.375-10.25.75-.25 2.875.625 2.375 1 1 6.875 1.875 7.625 2 2h6.125l.375 1.75 7.875.375v2.625h6l.375-1.625 1.375-1.375 2.875-.875 1.625 1.25h3.625l4.875 3.25 6.625 3 3 .625.625-1.25 1.875-.625.625 3.625 3.25 1.625.625-.625 1.625.25v2.625l3.25 1.2502h3.875l2-1.0002 4-4 3.25-.625 1 2.25.625 1.625h1.25l1.25-1 11.125-.375 2.25 3.8752h.875l.875-1.3752 5.5-.5-.75 2.8752-4.875 2.25-11.5 5.125-6 2.5-3.875 3.25-3 4.5-2.875 4.875-2.25 1-5.625 6.25-1.625.25-5.375 3.5-3.125 4-.25 4 .125 10-1.75 2.125-6.375 4.75-2.75 7.5 3.625 2.75.875 4-2.375 4 .25 4.75.5 8.375 3.75 3.75h4.125l2.375 3.875 4.25.625 4.875 7.125 8.875 5.125 2.625 3.625.875 8-101.5 1.375-.375-44.625-.625-3.75-5.125-4.25-1.375-2.25v-1.875l2.625-2 1.75-1.75z" fill="#66668e"/><path d="m475.376 401-20.875-1.625-1.125 13.75 25.625 1.5 40.125 1.625-2.875 30.5-.625 22.25.25 2 5.375 4.625 2.625 1.375.875-.25.875-2.625 1.75 2.25h2.625v-1.75l3.375 1.75-.625 4.875 5.125.25 3.125 1.375 5.125.875 3.125 2.25 2.875-2.625 4.25.875 3.125 4.25h1.125v2.875l2.875.875 2.875-2.875 2.25.875h3.125l1.125 3.125 7.875 2.625 1.75-.875 2.25-5.125h1.375l1.375 2.625 5.125.875 4.625 1.75 3.75 1.125 2.25-1.125.875-3.125h5.375l2.625 1.125 3.375-2.625h1.375l.875 2h5.125l2-2.625 2.25.625 2.625 3.125 4 2.25 4 1.125 2.375 1.375-.5-46.5-1.75-13.75-.25-11.125-1.75-8.125-1-9-.125-4.75-15.125.375-58-.625-56.25-2.625z" fill="#66668e"/><path d="m451.876 413.249 28.375 1.375 38.875 1.375-2.875 29.375-.375 22.625.125 2.625 5.375 4.75 2.5 1.875 1.5-.75.5-2.25 1.375 2.25h2.625v-1.875l2.125 1.25 1.375.5-.5 5 5.125.125 3.625 1.5 5 .625 3 2.625 2.625-2.625 4.625.75 2.75 4 1.375.375-.25 2.5 2.75 1 2.875-2.5 2.625.75h2.75l1.125 3 7.875 2.625 2-1 1.875-5.25h.375l1.125.125 1.5 2.625 4.875.875 4.125 1.375 4.25 1.5 2.25-1.25.875-3.125h5.625l2.25 1.125 3.5-2.625h1.375l1.125 2h5l1.875-2.5 2.375.5 2.5 3 4.375 2.5 3.625 1 1.875 1 3.125 2.5 3.75-1.625 3.375 1.375.75 7.625v12.125l.875 11.875.875 4.5 3.375 5.5 1.125 6.25 5.25 6.875.25 3.875 1 1-.875 10.5-3.625 6.25 1.875 2.625-.75 2.875-.875 9.25-1.875 4.125.375 4.375-7.125 2-12.375 5.625-1.25 2.375-3.25 2.375-2.625 1.875-1.625 1-6.75 7.375-3.5 2.625-6.625 4-7.125 3-7.875 4.25-2.25 1.875-7.25 4.5-4.25.875-4.875 6.875-5 .375-1.25 2.375 2.875 2.375-1.875 6.875-1.625 5.625-1.375 4.875-1 5.625 1 3 2.25 8.75 1.25 7.625 2.25 3.5-1.25 1.75-3.875 2.375-7.125-4.875-6.875-1.375-1.625.625-4-.875-5.25-3.875-6.5-1.375-9.5-4.25-2.625-4.875-1.625-8.125-4-2.375-.75-2.875.75-.875.375-4.25-1.625-.875-.75-1.25 1.625-5.5-2-2.875-4-1.625-4.25-5.5-4.5-8.25-5.25-3.25.25-2.375-6.625-15.375-1-5.25-2.25-2.375-.25-1.875-7.5-6.625-3.25-3.875v-1.375l-3.25-2.625-8.5-1.375-9.25-.75-3.875-2.875-5.625 2.25-4.5 1.875-2.875 4-1.25 4.625-5.5 7.625-3 3-3.25-1.25-2.25-1.375-2.375-.75-4.875-2.875v-.75l-2.25-2.375-6.5-2.625-9.25-9.75-2.875-5.875v-10.125l-4-8.125-.625-3.5-2-1.25-1.375-2.625-6.25-2.625-1.625-2-8.875-9.875-1.625-4-5.875-2.875-1.875-5.5-3.25-3.625-2.375-.625-.75-5.875 10 .875 36.25 3.375 36.25 2 2.75-24.375 4.875-69.5 2-23.5h1.75zm125.25 287-.75-8.875-3.5-9-.75-8.75 1.875-10.25 4.125-8.625 4.375-6.75 3.875-4.5.75.25-6 8.25-5.5 8.125-2.5 8.25-.375 6.5 1.125 7.625 3.25 9 .625 6.5.25 1.875z" fill="#66668e"/><path d="m360.126 529.999-1-6 10.75.625 37.75 3.75 34.125 2.125 2.75-23.375 4.875-69.875 2.125-24.25 2 .125 1-14-130-13.25-21.875 150.5 19.375 2.5 1.625-12.5z" fill="#d1d0dc"/><path d="m634.875 405.499-15.75.25-57.625-.625-55.75-2.625-30.75-1.625 4.875-80.75 27.625.875 50.375 1 55.375 1.25h6.375l2.75 2.75h2.5l2 1.25-.125 3.75-2.25 2.125-.375 2.75 2.25 4.25 3.75 4 2.875 2 1.625 14z" fill="#d1d0dc"/><path d="m607.625 300.875 4 8.75-.125 2.875 4.375 6.875 3.375 3.875h-6.25l-54.375-1.125-51-1.125-27.75-1 1.375-26.625-40.375-3.625 5.375-55 19.375 1.25 25.125 1.375 22.25 1.375 29.75 1.375 13.5-.625 2.625 2.875 6 3.75 1.375 1.125 5.375-1.75 4.875-.625 3.375-.25 2.25 1.75 5.125 2 3.75 2 .625 2 1.125 2.625h2.25l1 .125 1.125 5.875 3.625 10.625.75 4.75 3.125 4.75.75 6.375 2 5.25z" fill="#66668e"/><path d="m595.626 255v-.75l-3.625-6.125 2.375-5.875 1.875-7.375-3.5-2.625-.5-3.375 1-3.25h4l-.125-6.25-.375-37.75-.75-4.75-5.125-4.125-1.25-2.125-.125-2 2.5-1.875 1.875-2.125.25-3.375-72.875-2-68.5-4.25-6.625 79.625 18.25 1.125 25 1.5 22.125 1.125 29.75 1.625 15-.5 2.5 2.75 6.5 4 1 .875 5.625-1.75 8.125-.75 2.125 1.625 5.25 2 3.75 2 .5 1.875 1.25 2.75z" fill="#d1d0dc"/><path d="m594.126 161.125-.75-10.5-2.125-8.5-2.375-16.25-.625-13.75-2.125-3.875-2.25-6.5v-13l.75-4.75-2.25-6.875-35.75-.75-23.25-.875-33.125-1.625-28.751-2.625-8.75 84 68.626 4.125z" fill="#d1d0dc"/><path d="m450.501 179.125-133.375-16.875-17.625 110.625 141.625 17z" fill="#d1d0dc"/><path d="m461.5 71.2498-38.375-3.5-36.625-4.5-36.625-5-40.375-6.625-23-4.25-40.875-8.625-5.625 26.625 4.25 9.375-1.75 5.75 2.25 5.75 4 1.75 5.75 13.5002 3.375 4 .625 1.375 4.25 1.375.625 2.625-8.875 22v3.125l3.125 4h1.125l6-3.75.875-1.375 2 .875-.25 6.625 3.375 15.75 3.75 3.125 1.125.875 2.25 2.875-.625 4.25.875 4.25 1.375 1.125 2.875-2.875h3.375l4 2 3.125-1.125h5.125l4.625 2 3.375-.625.625-3.75 3.75-.875 1.75 1.75.625 4 1.75 1 2.375-13.75 133.5 16.75z" fill="#66668e"/><path d="m475.001 401.25 6.125-107.875-141.75-15.875-15.25 109.875z" fill="#66668e"/><path d="m186.126 218.75 10.5-42.25 1.75-5.25 3.125-7.375-1.625-2.875-3.125.125-1-1.25.625-1.375.375-3.875 5.625-6.875 2.25-.625 1.375-1.375.75-4 1.125-.875 4.875-7.25 4.875-5.375.25-4.75-4.25-3.25-1.875-5.5 17-79.1255 16.875 3.125-5.625 26.625 4.5 9.375-2 5.875 2.5 5.75 3.875 1.625 4.75 12 4.375 5.5005.625 1.375 4.125 1.375.5 2.625-8.75 21.75-.25 3.25 3.25 4.125 1.125-.125 6.125-3.75.875-1.375 2 .875-.375 6.625 3.375 15.75 4.875 4 2.125 2.75-.875 5.125 1.375 3.5 1.375 1.375 3.125-3 3.625.125 3.625 1.625 3.5-.875 4.75-.25 5 2 3.375-.375.625-3.75 3.625-1 1.625 1.875.5 3.625 1.75 1.5-10.5 67-58.75-11.375z" fill="#d1d0dc"/><path d="m324.375 387.624-104.75-14.875 25.75-140.625 58.75 11.25-2.125 13-2.875 16.5 9.75 1.125 20.5 2.25 10.25 1.125z" fill="#d1d0dc"/><path d="m181.125 478.25-3.25 2.75-.375 1.875.625 1.25 23.625 13.375 15.125 9.5 18.375 10.75 21 12.5 15.375 3 31.125 3.375 21.625-148.875-104.625-14.875-3.875 20.5h-2l-2.125 3.25-3.125-.125-1.625-3.375-3.375-.375-1.125-1.375h-1.25l-1.125.75-2.375 1.25-.125 8.75-.25 2.125-.75 15.75-1.875 2.75-.75 4.125 3.375 6.125 1.625 7.25 1 1.25 1.25.75-.125 2.875-2 1.75-4.25 2.125-2.375 2.375-1.875 4.625-.75 6.125-3.625 3.375-2.625.875.125 1-.625 2.125.625 1 4.625.75-.75 3.375-1.875 2.75z" fill="#d1d0dc"/><path d="m245.501 231.999-29.5 161-2.25.5-2 3h-3l-1.875-3.375-3.25-.5-1-1.375h-1.25l-3.5 2-.375 8.5-.5 7.25-.5 10.75-1.75 2.625-3-1.375-86.375-130.375 23.75-84.5z" fill="#d1d0dc"/><path d="m186.126 218.749 10.875-42.875 1.375-5.25 3-7-.75-1.5-3.125-.125-1.625-2.125.625-1.875.625-4 5.625-6.875 2.25-1.375 1.375-1.375 1.875-4.5 5.125-7.125 4.5-4.875.25-4.25-4.125-3.125-2.25-5.75-15.875-4.5-18.875-4.375-19.25.125-.625-1.75-6.875 2.625-5.625-.75-3-2-1.625.875-5.875-.25-2.125-1.75-6.625-2.625-1 .125-5.375-1.75-2.375 2.25-7.75-.375-7.375-5.125.875-1 .25-9.75-2.8745-4.875-5.125-.75-.875-3-2.875-.625-7.25 2.625-2.875 8.125-4.125 12.5-4 8.125-6.25 17.625-8.125 16.75-10.125 15.75-2.375 3.625-1 10.75.5 15.125 83.9995 19.625z" fill="#d1d0dc"/><path d="m127.626 9.49927 5.5 1.87503 12.125 3.5 10.75 2.375 25.125 7.125 28.75 7.125 19 4-17 79.4997-15.5-4.375-19.375-4.5h-19l-.625-1.625-7 2.75-5.75-.875-2.75-2-1.875.625-5.875-.125-2.125-1.625-6.625-2.625-.875.25-5.5-2.1247-2.375 2.2497-7.875-.375-7.376-5.1247 1.001-1.125.124-9.625-2.8745-4.75-5.125-.75-.875-3.125-2.875-.625-4.5 1.5-2.875-4 .375-3.625 3.5-.375 2-5-3.125-1.5.25-4.625 5.5-.875-3.5-3.5-1.75-8.875.875-3.625v-9.875l-2.25-4 2.875-11.75 2.625.625 3 3.625 3.5 3.25 3.9995 2.375 5.626 2.625 3.874.75 3.626 1.875 4.25 1.25 2.875-.25v-3l1.625-1.375 2.625-1.625.375 1.375.375 2.25-2.875.625-.375 2.625 2.25 1.875 1.375 3 .875 2.375 1.75-.25.25-1.625-1.25-1.625-.625-4 1-2.25-.875-1.875v-2.875l2.25-4.5-1.375-3.25-3-6.125.375-1zm-11.875 7.50003 2.5-.25.625 1.75 1.875-2h3l1 1.875-1.875 2.125.875 1-.875 2.5-1.75.5-1.125-.25 1.75-3.25-2.125-.75-.375 1.875-.875.75-1.876-2.75z" fill="#d1d0dc"/><path d="m180.875 477.749 4.875-.625 1.875-2.5.625-3.625-4.5-.75-.625-.875.625-2.5-.25-.75 2.375-.75 3.75-3.5.75-6.25 1.75-4.25 2.375-2.75 4.375-2 2-2 .125-2.625-1.25-.75-1.25-1.375-1.5-7.375-3.375-6 .75-4.375-3-1.25-86.25-130.25 23.625-84.5-83.8748-19.625-1.875 5.875-.25 9.25-6.5 14.75-3.875 3.25-.375 1.375-2.25 1-1.875 5.25-1 4 3.5 5.25 2 5.25 1.375 4.5-.375 8.125-2.25 3.875-.75 7.25-1.25 4.625 2.25 4.875 3.5 5.625 2.875 6.125 1.625 5-.375 4-.375.625v2.625l7.125 7.875-.625 3-.875 2.875-.875 2.375.25 10.25 2.625 4.625 2.375 3.25 3.5.625 1.2501 3.5-1.3751 4.5-2.625 2h-1.3749l-1.0001 4.875.625 3.625 4 5.5 2.0001 6.625 1.875 5.875 1.625 3.875 4.25 7.25 1.875 3.25.625 3.625 2 1.25v3l-1 2.375-2.2501 8.875-.6249 2.375 3 3.5 5.25.625 5.625 2.25 4.875 2.625h3.625l3.625 3.875 3.25 6.125 1.375 2.875 4.875 2.625 5.9997 1 1.75 2.625.875 4-1.75.75.375 1.25 4 1 3.5.25 4-2.125 4.875 5.25 1 2.875 3.25 5.25.375 4v11.75l.625 2.25 12.5 1.875 24.625 3.5zm-110.1248-54.625 1.6251 1.875-.25 1.625-4-.125-.75-1.5-.875-1.875zm2.3751 0 1.5-.75 4.5 2.625 3.875 1.5-1.125.75-5.625-.25-2-2zm25.875 24.75 2.2497 2.875 1 1.25 1.875.75.75-1.875-1.25-2.25-3.375-2.5-1.3747.25zm-1.875 10.75 2.25 3.875 1.4997 2.375-1.7497.25-1.625-1.375-.875-2.375v-2.625z" fill="#66668e"/></g><path d="m1155.81 376.938c1.59 9.349-.01 18.962-4.54 27.292-4.54 8.33-11.74 14.892-20.46 18.629-8.71 3.738-18.44 4.434-27.6 1.977s-17.22-7.925-22.9-15.523c-3.98-5.406-6.67-11.648-7.87-18.25-1.87-11.055.73-22.398 7.22-31.539 6.5-9.14 16.35-15.33 27.4-17.211 6.12-1.045 12.4-.704 18.38 1l.62.125c7.62 2.206 14.45 6.523 19.72 12.452 5.26 5.928 8.74 13.225 10.03 21.048z" stroke="#66668e"/><path d="m1006.12 310.5 71.69 51.812" stroke="#66668e"/><path d="m263.75 611.814v68.75l45 56.25m-45-125-83.75-85.001h-180m263.75 85.001h107.5l66.25 67.5v57.5" stroke="#66668e"/></svg>