<svg fill="none" height="722" viewBox="0 0 960 722" width="960" xmlns="http://www.w3.org/2000/svg"><g fill="#3c3b6e" stroke="#fbfbfc"><path d="m310.241 1 18.258 5.79952 14.392 3.86638-1.504 2.5775-2.148 2.7924-3.437.4296-4.725 4.0811-3.652 17.3986.43 1.5036.429 4.2959-.214.8592-2.363 2.5776-1.289.8592-2.792-.8592-1.933-2.5776 1.074-3.4367-5.37-1.7184-8.592-2.5776.859-5.5847.215-3.8664v-7.3031-.6444-.8591l-.215-.8592 1.074-10.95468z"/><path d="m342.675 10.6659 13.532 3.8663h.215l3.437.6444 4.94 1.7184 2.148.6444 1.289.4296 16.11 4.5107 6.444 1.5036 5.799 1.5036 1.504.4296 2.577.8592 39.523 11.8138-1.289 3.0072-.429 1.7184-2.578 9.2362v.2148l.215.2148-6.014 22.3389-4.296 15.6802-26.42-7.3031-13.747-4.0811-10.096-2.5776 1.289-6.6587-5.8-3.6516-10.31 4.0812-7.303 7.5179.43 3.0071-.645 1.074-1.074.8592-.859-.2148-3.866-1.9332-6.659-7.0882-3.651-5.37-2.363-2.1479-2.363-1.9332.43-12.8879-.86-1.2887-7.518-2.148 1.289-.8592 2.363-2.5776.215-.8591-.43-4.296-.429-1.5036 3.651-17.3985 4.726-4.296 3.436-.2148 2.148-2.7924z"/><path d="m575.301 659.353 33.293 6.874 27.279 5.37 7.089 1.289 10.954 2.148-5.584 1.288-3.222 19.976v.215l1.074 3.007 2.577 1.719.859.429 4.726.86.215.214.215.215 1.718 3.867-.43 4.295-.429 1.719-2.363 3.437-7.733 4.725-5.799-.43h-.215l-40.811-4.94h-.86l-4.725-.644-17.184-2.148-7.303-.859-5.37-.645 2.578-10.954 5.155-18.473 1.718-7.518z"/><path d="m672.389 634.866-4.94 7.089-1.504 2.577-1.289 5.155-.214 2.148-1.504 7.948-2.148 7.518-6.659 7.947-10.954-2.148-7.089-1.288-27.279-5.37-33.293-6.874-11.599-2.578-16.969-3.651-11.814-2.578-21.695-5.155.215-1.074-5.799-5.155-7.733-1.718.429-1.933 7.089-6.874-2.578-3.651-3.007-1.074-1.718-4.296-3.437-7.948 1.718-3.222 6.659-5.799 7.733 1.718 2.148.43.429 1.074 7.089 2.577 15.68 3.437 6.873.215 13.318 2.362 38.878 8.163 27.064 5.799.645-3.007 10.31 1.933z"/><path d="m500.122 637.229 7.733 1.718 5.799 5.156-.214 1.074 21.694 5.155 11.814 2.577 16.969 3.652 11.599 2.577-3.007 15.251-1.719 7.518-5.155 18.473-2.577 10.954-5.155-.644-10.525-1.289-10.74-1.289-15.251-1.718-14.606-1.719h-.215l-2.578-10.954 1.074-16.325v-.644-3.652-1.288l-.644-5.585-.215-1.933-1.074-3.222v-.215l-3.007-7.518-.859-2.148-.215-.43-1.289-2.577-1.718-2.578-1.074-1.074-1.289-.859z"/><path d="m492.174 605.224 4.725 6.23 3.437 7.732 1.718 4.296 3.008 1.074 2.577 3.652-7.088 6.873-.43 1.933-6.444 6.659-.429-1.289-.859-1.933-.645-.859-10.095-12.673-8.163-10.096-1.933-2.362 1.504-2.578 3.007-3.651 5.799-4.941 2.578.215.644.215z"/><path d="m444.275 670.952-4.081-.214-2.578-3.222-.43-.43-1.288-4.081-1.074-7.303 1.503.429 7.518 13.318zm-2.793-45.107-.214-.644h.214l2.793.859 3.222 2.577 2.577 2.148 1.933 1.719 2.578 5.155.215.429.215 1.074-.215.645-.859.429h-.43l-6.659-3.222-.429-.429zm70.024-76.038-3.651 15.25-1.719 8.807-1.288 7.518-.43 3.222-3.437 7.733-3.007 5.155-1.289 1.933-3.866 1.933-1.289 1.718v.43l.215 1.074.43.644-7.304-1.718-.644-.215-2.578-.215-5.799 4.941-3.007 3.651-1.504 2.578-4.081.644h-4.296l-1.933-.859-1.074-.644-3.866-2.578-.645-.644-.429-2.363.429-.43 1.289-.859.644-.215.43-.644.43-1.718-.43-3.008-.215-1.503-.215-.859-.214-1.719-.43-2.148-.644-1.933v-.215-.214l-.645-1.074-.215-.215-.429-.645-.215-.214-.215-.215-.859-.859-1.289-.43-5.37-1.074-4.081-.644-2.148.214-8.162-3.651.644-1.933 5.37-2.363 4.296-1.718 6.444 1.503 3.222-5.155.43-2.363-4.941-35.441-.214-1.934z"/><path d="m419.573 522.313 3.007 1.074 5.155 2.362.645 1.719.214 1.718 13.318 6.229 4.94 1.289 4.94 35.442-.429 2.362-3.222 5.155-6.444-1.503-4.296 1.718-5.37 2.363-.644 1.933-7.303-5.584-7.948-13.962-5.37-7.089-1.289-1.718-.644-.215 1.504-1.074.429-.429 1.074-3.222z"/><path d="m362.222 569.568 9.666.859 4.296 3.867-.215 2.147v.43h-.215l-7.947.859h-.645l-2.147-2.148-.43-.644zm27.065 3.007 1.933 1.504 5.37 1.718h.215.214l.215-.215.215-.214h.215 1.503l1.719 1.288.429.645-1.718 1.288-.43.43h-.429l-9.022.215-1.933-.43-1.933-.859-.645-.43-1.718-.859-1.503-1.074v-.429l-1.074-6.015.429-.429h.215l2.792 1.074zm-31.361-71.313 8.163.86 3.007 1.074 2.792 2.792 3.652-.644 3.436-1.934 10.74-3.007 1.074 1.289 3.007 2.792 9.451 7.518 11.814 9.237 2.363.644h1.074l1.504.43-7.303 28.782-1.074 3.222-.43.43-1.504 1.074-3.866-3.652-3.007-1.288-3.007-.43h-.86l-3.221-.215-6.659-2.148-2.363-2.362-3.866-2.793-1.504-.644-4.081-1.504-3.437-.859-3.866-.859-4.511-.645-5.37-.859-6.873-9.021.429-5.37 3.437-17.399z"/><path d="m336.017 438.757 58.21 15.895 1.074.214-2.792 11.17 6.658 2.363-1.074 6.014 3.222 5.37 4.726 1.718-1.718 5.585 4.081 1.504-1.719 5.155 5.8 1.503 1.503 1.719-.429 4.94 2.577-.43 2.578.86-1.074 6.229 3.652 1.288-2.793 11.385h-1.074l-2.363-.645-11.813-9.236-9.451-7.518-3.008-2.792-1.074-1.289-10.739 3.007-3.437 1.933-3.652.645-2.792-2.793-3.007-1.074-8.163-.859.86-1.503v-.215l.859-1.933.644-1.719.43-1.074.215-1.074v-.214l.214-1.504v-.215l-.214-1.074-.215-.644-.43-.43-1.503-1.718-.215-.215-.43-.215-4.725-13.102-8.807-16.325-5.8-9.022-.859-.859-.429-.644-.86-3.007z"/><path d="m429.024 463.673 25.131 6.229 28.353 6.874 22.769 5.37 3.007.859 19.546 4.081-2.147 5.37-.43 1.933-.644 7.733-11.17 48.114-1.933-.429-64.439-15.036.215 1.933-4.941-1.289-13.317-6.229-.215-1.718-.644-1.719-5.155-2.362-3.008-1.074-1.503-.43 2.792-11.384-3.651-1.504 1.074-6.229-2.578-.859-2.578.43.43-4.941-1.504-1.933-5.799-1.504 1.718-5.155-4.081-1.503 1.719-5.585-4.726-1.718-3.222-5.37 1.074-6.015-6.659-2.362 2.793-11.17z"/><path d="m527.831 487.086 13.317 3.222 85.275 18.902h4.94l10.525 15.895 3.652 5.37 1.289 1.933 19.546 29.427 7.303 10.74-1.718 7.303v.86.429l3.007 7.518 3.652 5.8.214 2.577 3.437 14.391 3.437 4.082 3.007 3.222 2.578 4.51-.215 2.793-6.874 4.081-4.725 1.933-6.874 2.578-36.945-7.303-10.31-1.934-.644 3.008-27.065-5.8-38.878-8.162-13.318-2.363-6.873-.215-15.68-3.437-7.089-2.577-.429-1.074-2.148-.43-7.733-1.718-6.659 5.799-1.718 3.222-4.726-6.229-.429-.644-.215-1.074v-.43l1.289-1.718 3.866-1.933 1.289-2.148 3.007-5.155 3.437-7.733.43-3.222 1.288-7.518 1.719-8.807 3.436-15.25 1.934.429 11.169-48.114.644-7.733.43-1.933z"/><path d="m494.967 365.081 47.9 11.384 26.634 39.953 1.074 1.503 5.585 8.377 3.222 4.941 17.399 26.205 14.176 21.265 1.933 2.792 7.518 11.384.645.86 10.31 15.465h-4.94l-85.275-18.902-13.317-3.222-19.547-4.081 2.578-5.585.859-3.222-.215-4.296-1.503-21.48-3.867-21.909-1.289-9.881 1.504-6.443.43-3.652-.215-2.578-.859-8.162-.645-1.289-3.866-4.296h-1.074l-4.081-2.792-.215-.215-.43-1.074-2.577-13.102.215-4.082z"/><path d="m504.847 416.847 1.289 9.881 3.866 21.909 1.504 21.48.215 4.296-.859 3.007-2.578 5.585-3.007-.859-22.769-5.37-28.353-6.874-25.131-6.229 5.585-21.265 2.577-8.592 1.719-.429 1.288.214 2.148-8.591-2.362-.86 1.074-5.584-2.363-.645 6.873-4.296 7.733 1.504 1.933-4.94 6.659 1.718 9.666 2.578 1.503-5.37 22.769 5.37z"/><path d="m438.69 418.136 2.363.644-1.074 5.585 2.363.859-2.148 8.592-1.289-.215-1.718.43-2.578 8.592-5.585 21.48-33.938-8.592-1.074-.215-3.221-9.022 22.983-12.887 3.651-14.177 7.948 1.933 7.518.859z"/><path d="m474.561 341.024 3.866 1.074 3.222 1.074.644.859 1.504 3.222.644 6.874-16.109 9.88-2.363 1.504-1.074.859-.645 1.289-.429 3.007v1.074l-.215.429-1.074 2.363-.859.859-1.504 1.289-1.503.859-7.518-.429-2.148.429-8.377 5.156-2.363 1.503-.43.43-3.651 4.081-.859 1.503-1.289 1.289h-.215l-22.124-.644-3.222-.645-3.652-3.007-1.933-3.222-.429-1.288-.215-.645-.215-1.289-1.504-11.384 4.296-2.363 10.096-1.074 7.947 1.074h5.156l18.472-11.384 5.585 1.289 4.511-4.081 1.074-4.296 17.398-10.525z"/><path d="m494.966 365.081-1.933 4.296-.215 4.081 2.578 13.103.43 1.074.214.215 4.082 2.792h1.074l3.866 4.296.644 1.289.859 8.162.215 2.578-.429 3.651-1.504 6.444-9.236-2.148-22.769-5.37-1.503 5.37-9.666-2.577-6.659-1.719-1.933 4.94-7.733-1.503-6.873 4.081-6.015 3.437-7.517-.859-7.518-2.148-3.652 14.176-22.983 12.888-10.525-12.888-3.222-4.725-.215-3.652 1.504-6.873 2.577-2.793 2.793.859 2.147-11.169-11.813-20.621 24.272-14.391 1.503 11.384.215 1.289.215.859.429 1.289 1.934 3.222 3.651 3.007 3.222.645 22.124.644h.215l1.289-1.289.859-1.503 3.652-4.082.429-.429 2.363-1.504 8.377-5.155 2.148-.429 7.518.429 1.503-.859 1.504-1.289.859-.859 1.074-2.363v-.429-1.074l.43-3.008.644-1.288.859-1.074 2.363-1.504 16.11-9.881z"/><path d="m340.097 364.007-.215 1.289.43 2.148 4.296 7.088 4.726 8.807 3.007 3.866-1.289 8.163h2.577l6.874 13.961-.215 3.222 3.437.645 9.666 8.162 1.503.644h.215l.43-.214 2.577-3.867-1.503 6.874.215 3.651 3.222 4.726 10.525 12.888 3.222 9.021-58.21-15.895-1.719-2.363-2.363-5.37v-2.362-1.289l.215-2.148-.215-1.933v-.215l-6.014-13.103-1.289-2.362-2.577-3.008-.645-.644h-.429l-.215-.215-.43-.644-.214-.645-1.289-3.007-.43-1.074v-1.074l1.719-16.754 3.651-1.289h.859l.645-.214 1.288-.86.86-.859.644-.644 1.074-1.504.859-1.933 2.578-5.585v-.859l-.215-2.363v-.214z"/><path d="m340.098 364.007 3.222.43 4.511-2.578 4.725 1.074 10.311 2.793-1.074 1.074-.43.429-.215.43.43.859 2.792 6.014 9.022 8.377.644.86 11.814 20.62-2.148 11.17-2.792-.86-2.578 2.793-2.578 3.866-.429.215h-.215l-1.504-.645-9.665-8.162-3.437-.644.215-3.222-6.874-13.962h-2.577l1.288-8.162-3.007-3.867-4.725-8.592-4.296-7.088-.43-2.148z"/><path d="m416.351 333.506 2.577 12.673v1.074.215l-.214.215 2.148 12.673 1.288 1.933 3.652 4.725h-5.155l-7.948-1.074-10.095 1.074-4.296 2.578-24.272 14.391-.645-.859-9.021-8.377-2.792-6.014-.43-.859.215-.43.429-.43 1.074-1.074-.644-.644-.43-.859v-.43l.645-2.577 1.289-.645 1.073-1.718.645-3.652-.215-.859 16.969-10.095.215-2.148-.215-.645-.43-.214 7.518-2.148z"/><path d="m321.625 331.573v.644.43l1.289 3.007 2.792 5.37 1.289 1.933 3.437 3.222 2.148 1.504 4.51 4.725 6.23 10.31.429.645-.429 1.289-3.222-.43-9.237.43-.429-2.148-.859-3.867-.645-1.503-.429-1.074-.43-.645-1.074-.859-.43-.215-2.577.645h-2.363l-1.289-.215-.859-.215-.43-.215h-.214l-.645-.429-.644-.215-1.933-2.363-1.933-2.792-1.504-3.652-1.289-3.866-.215-2.793.43-2.577 4.296-.644 4.511 1.288.429-.859z"/><path d="m317.329 301.286-1.289 6.659.645 1.074 7.947 8.377.645.43 1.288.429.86-.215.859 2.363-7.088 11.384-1.074 3.652-.43.859-4.511-1.289-4.296.645-.429 2.577.215 2.793-.43-.645-1.504-2.362-1.933-3.437-.215-.645v-3.222l.86-17.183 1.503-6.874 1.933-6.873z"/><path d="m324.633 290.332h2.362l.215.214 1.504 2.148 1.074 3.008.215 1.503 9.021 9.236 18.258-.429 3.866-.43-2.148 7.518-2.792 10.31.429.86 2.793 4.296-19.117-5.37h-.645l-.429.429-.43.215-1.718.215-.859-.215-6.444-2.148-.859-1.289-.86-2.362v-11.6l-4.081-11.599z"/><path d="m328.714 320.403.859 1.289 6.444 2.148.859.215 1.718-.215.43-.215.43-.429h.644l19.117 5.37-.859.429-.215 3.437 1.504 16.969 5.799 4.94.215.859-.644 3.652-1.074 1.718-1.289.645-.645 2.577v.43l.43.859.644.645-10.31-2.793-4.725-1.074-4.511 2.578.429-1.289-.429-.644-6.229-10.311-4.511-4.725-2.148-1.504-3.437-3.222-1.289-1.933-2.792-5.37-1.289-3.007-.215-.43v-.644z"/><path d="m397.019 297.635 9.451 19.332 10.095 16.324-27.064 5.585-7.518 2.148.43.215.215.644-.215 2.148-16.969 10.095-5.8-4.94-1.503-16.969.214-3.437.86-.429 13.532-8.163 2.363-1.503 1.074-.43 5.799-1.503 1.289.429 2.577.43 3.008.429 2.792-.644 1.933-7.518z"/><path d="m416.351 333.506.215-2.578.429-.644 3.008-2.148 15.035-3.222 1.074.43 4.296 4.725.43.645.215.214 1.503.645 4.726 1.289h1.718l6.229-1.074.86-.43 4.51-3.652 3.007-.644 4.941 3.437 3.007 3.651 1.289 3.652-17.399 10.525-1.074 4.296-4.511 4.081-5.584-1.289-18.473 11.385-3.651-4.726-1.289-1.933-2.148-12.458.215-.215v-.215-1.074z"/><path d="m465.539 298.494-.429.215-.645 1.933-.859 6.014 2.148 3.437 1.504 1.289 1.289.859 2.148 1.289 1.933 1.289 1.289 1.074 1.933 1.933 1.503 3.222-1.718 6.229 3.437 2.577.859 3.008-1.719 5.799-2.792 2.148-.859.644-1.289-3.007-1.289-3.651-3.007-3.652-4.94-3.437-3.007.645-4.511 3.651-.859.43-6.229 1.074h-1.934l-4.725-1.289-1.504-.644-.214-.215-.43-.644-4.296-4.726-1.074-.429-15.036 3.221-3.007 2.148-.43.645-.214 2.577-10.096-16.324 9.022-6.015 3.866-3.866 6.444-6.444 6.014-5.585 7.733-6.658 1.289-.645 1.289-.429 6.443-.859 5.585 6.658.859-.429 3.867-1.289 2.792-.43 1.933.43.215.215.215.429z"/><path d="m474.561 274.222 9.881 14.821 6.659 9.881 28.353 42.529 23.627 35.227-47.899-11.384-10.525-10.955-.645-6.873-1.503-3.222-.645-.859-3.222-1.074-3.866-1.074.859-.645 2.792-2.148 1.719-5.799-.859-3.007-3.437-2.578 1.718-6.229-1.503-3.222-2.148-1.933-1.289-1.074-1.718-1.289-2.148-1.289-1.289-.859-1.504-1.289-2.148-3.437.859-6.014.43-1.933.43-.43 5.155-4.51 2.363-5.585-2.148-7.733v-.644l1.288-3.222z"/><path d="m462.318 255.749 12.243 18.258-2.148 2.792-1.289 3.222v.645l2.148 7.733-2.363 5.584-5.155 4.511-1.718-6.014-.215-.43-.215-.215-1.933-.429-2.792.429-3.867 1.289-.859.43-5.584-6.444-1.289-5.585 3.222-12.458 6.873-3.437 1.289-.859 4.081-3.652.215-.429.43-1.933v-1.289z"/><path d="m448.356 286.68-6.444.859-1.289.43-1.289.644-7.732 6.659-6.015 5.585-6.444 6.658-3.866 3.652-9.021 6.014-9.451-19.331-.86-10.525.43.429.644.43 4.081.859 12.244-3.866 9.236-4.082 2.363-1.288 2.148.214 19.546 1.289z"/><path d="m450.074 268.637-3.222 12.458-19.546-1.288-2.148-.215-2.363 1.289-9.236 4.081-12.244 3.866-4.081-.859-.644-.43-.43-.429-.215-5.155 3.652-13.533 4.725.43 6.015-1.933 9.021 6.873 2.363.645 3.652.429 10.095.43 2.792-.43z"/><path d="m396.16 287.325.859 10.525-3.221 12.243-1.934 7.518-2.792.859-3.007-.429-2.578-.43-1.289-.43-5.799 1.504-1.074.43-2.363 1.503-13.532 8.162-2.792-4.296-.43-.859 2.792-10.31 2.148-7.518 3.652-18.043 2.148-3.007 5.585-6.014h1.074l.859.429.644 1.504.859.859 2.578.644 9.236 1.074h.43l3.651-1.288h4.081z"/><path d="m329.788 280.451 4.51 2.792 2.578.645 10.955 2.577h.644.644l.43-.214.43-.43 1.074 3.007.429.644 1.289.43.644.215h1.933l2.148-.645 1.289-.859.215-.429.215-.859.215-.43.429-.215h.645l3.007.43.859.429.215.215-3.652 17.828-3.651.43-18.258.429-9.022-9.236-.214-1.503-1.074-3.008-1.504-2.148-.215-.214h-2.363l-1.933-1.504-1.933-4.296 6.659-1.503 1.074-.43 1.503-1.074.215-.43z"/><path d="m459.74 245.869 2.578 9.88.644 1.289v1.289l-.429 1.718-.215.43-4.081 3.651-1.289.86-6.874 3.436-12.028 6.659-2.793.43-10.095-.43-3.652-.429-2.362-.645-9.022-6.873-6.014 1.933-4.726-.645-2.148-14.606 6.229-7.518 1.504-3.007 1.074-.859 5.585-1.504 6.873-1.074 2.148.215.43.215 1.289.644 1.503 1.719.645 1.289.429.644.645.859 3.007 3.007.644.43h.43l2.363-.43 1.288-.429 2.793-2.363 10.954.43 3.007.214 1.074-.214.645-.215.215-.859.644-.43z"/><path d="m380.694 247.802 16.539 6.014 2.148 14.606-3.651 13.533h-4.081l-3.652 1.288h-.429l-9.237-1.074-2.577-.644-.859-.859-.645-1.504-.859-.429h-1.074l-5.585 6.014-2.148 3.007-.215-.215-.859-.429-3.007-.43h-.644l-.43.215-.215.43-.214.859-.215.429-1.289.859-2.148.645h-1.933l-.43-.43-1.289-.429-.429-.645-1.074-3.007 3.007 1.289 4.94-.43 5.585-5.799 4.296-7.088 3.437-1.504 1.074-.644 2.577-5.156 2.363-9.021v-.644-.215l-1.933-3.437-.215-6.444z"/><path d="m324.632 272.289 10.525 3.007.215-.644v-.215h-.215l-.214-.43-.215-.429.215-.645 2.792-7.947 7.088 1.933.215-.43v-.644-1.074-.43l-.215-1.503-1.074-3.437v-.43l.215-.429 2.363-4.511.215-.215 2.362.43 17.399 3.437.43.859v.215l-.645 2.362-3.222 11.17 4.941 1.503-4.296 7.089-5.585 5.799-4.94.43-3.008-1.289-.429.43-.43.214h-.644-.645l-10.954-2.577-2.578-.645-4.511-2.792-5.155-7.733z"/><path d="m317.329 301.286-5.584-1.503v-1.074l.644-3.866.644-.43 2.363-.43 1.933.215.86.215.429.43.43 1.074-.215 3.866-.215.859z"/><path d="m297.783 254.676.644-.215h4.081.43l10.955 13.102 3.651 1.933 2.148 4.511-1.933 4.726-1.933 6.014-.215.43.43.429.859 1.074.859 1.504.215.644v.215l-3.007 3.007-1.289-.215-.859-.429-.645-.645-16.324-18.687 2.792-14.391-.215-1.289z"/><path d="m338.164 226.967 4.726 3.007 2.577 13.532.645 3.866v1.289 4.726l-.215.214-2.363 4.296v.43.215l1.074 3.437.215 1.503v.644 1.074.645l-.215.644-7.088-1.933-2.793 7.948-.215.644.215.43.215.429h.215v.215l-.215.644-10.525-3.007 1.933.43 1.719-2.578.214-1.503v-1.504l-.644-5.37-3.437-12.458-1.933-5.585.215-4.296.859-2.792h8.807l6.014-4.941.644-.859z"/><path d="m280.384 216.871 7.303 2.148 1.074-2.148 11.599 3.437 1.074-3.007 15.465 4.51 6.229 14.392-.859 2.792-.215 4.296 1.934 5.585 3.651 12.458.645 5.37v1.504l-.215 1.503-1.719 2.578-1.933-.43v.43l-5.155 1.503-2.148-4.51-3.651-1.934-10.955-13.102h-.43-4.081l-.644.215-3.222-11.599-10.74-20.406z"/><path d="m342.031 223.959 24.916 6.874 8.163 15.251.215 6.444 1.933 3.436v.215.644l-2.363 9.022-2.578 5.155-1.074.644-3.436 1.504-4.941-1.504 3.222-11.169.645-2.363v-.215l-.43-.859-17.399-3.436-2.362-.43v-4.726-1.288l-.645-3.867-2.577-13.532-4.726-3.007z"/><path d="m388.857 231.907 7.303-.645 2.578 2.148.429.215 6.874 2.363 1.718-.215 3.222-3.222.43-.644.429-1.074.43-.43 2.363-1.718 2.363-1.289 3.651-1.718 7.088-3.222 2.578-.645h1.933l31.575 8.163-2.577 9.666-.859 3.436-.645 3.008-6.873-1.719-.645.43-.214.859-.645.215-1.074.215-3.007-.215-10.955-.43-2.792 2.363-1.289.644-2.363.43h-.429l-.645-.43-3.007-3.007-.644-.859-.43-.644-.859-1.504-1.503-1.718-1.289-.645-.43-.215h-2.148l-6.873 1.074-5.37 1.504-1.074.859-1.504 3.007-6.229 7.518-16.539-6.014 4.081-12.029 2.792.645z"/><path d="m465.969 221.597-2.148 8.377-31.575-8.163h-1.934l-2.577.645-7.088 3.222-3.652 1.718-2.363 1.289-2.362 1.718-.43.43-.43 1.074-.429.644-3.222 3.222-1.719.215-6.873-2.363-.43-.215-2.362-2.148 3.436-12.673 1.289-2.148 4.511-3.221 4.296-2.148 2.792-.215 1.289.215 1.503.644.645-.859 1.074-.215 8.377.644 6.444-1.718.215-.215.644-.644 1.718-.859h.86l3.651 1.074 1.074 1.288.43 3.222 1.074 1.289.644.43z"/><path d="m420.002 196.036 4.726-3.007.644-2.363 1.289-.859 2.363-.645 9.451 7.303 10.31 2.578 14.606 3.866 7.303.859-4.725 17.829-24.057-6.444-.645-.43-1.074-1.289-.429-3.222-1.074-1.288-3.652-1.289-.859.215-1.718.859-.645.644-.215.215-6.443 1.718-8.378-.644-1.074.215-.644.859z"/><path d="m415.922 197.754 4.081-1.718-4.94 15.895-1.504-.645-1.289-.214-2.792.214-4.296 2.148-4.511 3.222-1.288 2.148-3.437 12.673-7.303.645-2.148-.645h-1.074l-3.437.43-1.289 1.074-.644.644v-6.873l2.363-13.747.214-1.074.86-1.933.429-.215 6.444.429 5.155-.429 1.933-1.074 6.015-8.162 8.592-.215z"/><path d="m383.917 209.998-.43.214-.859 1.934-.43 1.074-2.362 13.747v6.873l.644-.859 1.289-1.074 3.437-.43h1.074l2.148.645-1.289 4.51-2.793-.644-4.081 12.029-5.799-1.719-8.163-15.25 1.934-3.867-1.719-7.947-1.503-3.007.429-3.222 4.081-7.518z"/><path d="m372.317 200.546-2.363 4.941-4.081 7.303-.429 3.222 1.503 3.007 1.718 7.947-1.933 3.867-24.916-6.874-2.363-3.007-.215-.429-1.718-6.659.215-4.726 1.933-5.584-6.874-2.793-1.718-1.718-2.792-4.081-.43-1.933 1.074-1.719 2.148-2.148 29.212 8.162.86-2.147 6.443 1.933-.644 1.933z"/><path d="m330.862 188.947-2.148 2.148-1.074 1.719.429 1.933 2.793 4.081 1.718 1.718 6.874 2.793-1.934 5.585-.214 4.725 1.718 6.659.215.429 2.577 3.008-3.866 3.007.215 3.436-.645.86-6.014 4.94-8.807.215-6.229-14.392-4.081-4.725-1.289-2.148-2.792-7.518-.43-3.652v-.644l.215-.859 1.074-2.578 1.074-2.148 2.148-.644 2.148-2.363.43-2.792-.215-9.022.644-1.933.43-1.074 1.503-3.007 2.148-.43 4.296 1.289 2.578-.215.859-2.362.215-.86 7.303 2.148-1.718 6.659-.645 1.719z"/><path d="m372.318 171.979-.644-1.074.214-1.934 1.934-2.362 11.599 3.222h1.503l1.504-.86.429-1.074.43-.859.859-.859 2.148-1.504 9.022-5.584 2.577.644 3.222-.644.644-.43.645-1.289 1.503.43.645 3.222v1.503l-.215.86-1.074 1.074-4.081 12.028 7.303 13.318 3.866 8.162-4.081 2.578-8.592.214-6.014 8.163-1.933 1.074-5.155.429-6.444-.429-13.747-4.296 2.363-4.941 4.295-9.021-6.014-1.504 3.867-11.814z"/><path d="m328.928 159.52 43.174 12.459 2.578 6.229-3.867 12.028 6.015 1.504-4.296 9.021-5.585-1.933.644-1.933-6.443-1.933-.86 2.148-29.212-8.163 1.504-4.295.644-1.719 1.718-6.659-7.303-2.147z"/><path d="m410.336 137.611 8.163 2.148 12.887 3.437-3.222 12.243.645 1.718 4.725 4.296 1.933.43 1.074-.215.43-1.503 4.94-4.082 1.719-.429 1.933.429 8.592 6.444 11.169 13.103 1.504 1.933 2.363 10.74v1.933l-.43 1.933-2.363 7.304-2.792 3.221-14.606-3.866-10.311-2.577-9.451-7.304-2.362.645-1.289.859-.645 2.363-4.725 3.007-4.081 1.933-3.867-8.162-7.303-13.318 4.081-11.813 1.074-1.074.215-.86v-1.503l-.644-3.222-1.504-.43 4.296-3.007.215-.215.43-.644 1.503-4.511-.644-3.007h-.43l-3.437-1.718-.214-.215-.215-.645v-.429l.429-4.511z"/><path d="m410.336 137.611-.214.859-.43 4.511v.429l.215.645.215.215 3.436 1.718h.43l.644 3.007-1.503 4.511-.43.644-.215.215-4.296 3.007-.644 1.289-.644.43-3.222.644-2.578-.644-9.021 5.584-2.148 1.504-.645.859-.429.859-.43 1.289-1.504.859h-1.503l-11.599-3.222-1.933 2.363-.43 1.933.644 1.074-43.174-12.458-.215-.215v-3.007l1.504-3.007 1.718-1.074.43-1.289.215-2.148-.215-.644-.215-1.289 1.074-9.021.859-3.437.215-.215.645-3.007v-.645l-.215-.644-3.222-3.652 4.296-.429 6.873-.215h5.585l11.599 1.504 3.222 2.148 4.725 1.503 1.719.43 6.444.429 4.725-.214 4.296.214 7.948 1.074 7.088 1.289z"/><path d="m280.385 130.952 23.198 6.874-.43 1.503 29.642 8.592.215.645-.215 2.148-.43 1.288-1.718 1.074-1.504 3.007v3.008l.215.214-1.503 14.607-.215.859-.859 2.363-2.578.214-4.296-1.288-2.148.429-1.503 3.007-.43 1.074-.644 1.934.214 9.021-.429 2.792-2.148 2.363-2.148.645-1.074 2.148-1.074 2.577-.215.859v.645l.859 3.866 2.793 7.518 1.288 2.148 4.082 4.725-15.466-4.51-1.074 3.007-11.599-3.437-1.074 2.148-7.303-2.148-2.363-4.296-3.651-7.733 2.792-29.212.215-1.074.215-.429.859-2.363 1.074-2.363 1.074-1.718.644-.86.859-.859.43-.429.215-.215 1.074-1.719v-.429l1.074-6.659.215-1.718v-10.311-.214l-2.148-6.015-1.289-3.222z"/><path d="m324.203 48.0406 7.518 2.3628.859 1.2887-.43 12.8879-.859.8592-.859 1.074-1.504 3.0071v2.148l.215.4296-.215 3.2219-3.651 3.6516-1.504 1.5036-5.37 4.2959-1.503 7.7327-13.532 45.5374-23.199-6.874-1.074-1.933-9.88-18.687-.215-.86 1.289-12.0282.215-.2149 4.296-6.0142 3.007-3.8664 1.074-1.2888 2.148-2.148 3.007-3.0071 3.651-3.8664 1.934-2.1479 1.503-1.7184 1.933-2.7924 2.148-3.8664 1.074-2.3627-.215-1.5036 6.23-14.821 4.725-10.9547 8.592 2.5776 5.37 1.7184-1.074 3.4367 1.933 2.5776z"/><path d="m332.365 64.58 2.363 1.9331 2.362 2.148 3.652 5.5847 6.659 7.0883 3.866 1.9332.859.2148 1.074-.8592.644-1.0739-.429-3.0072 7.303-7.5179 10.31-4.0812 5.8 3.6516-1.289 6.6587 1.074.6444.859.8592.215.6444-.644 2.5775-.43.6444-.43.6444-5.584 4.9404-1.719.6443h-.429l-13.318 16.11-8.592 10.74-7.947 3.651-6.014 4.941-.645 2.362 3.222 3.652.215.644v.645l-.644 3.007-.215.215-.859 3.436-1.074 9.022.214 1.289-29.642-8.592.43-1.504 13.532-45.5368 1.504-7.7327 5.37-4.296 1.503-1.5035 3.652-3.6516.215-3.222-.215-.4295v-2.148l1.503-3.0072.86-1.0739z"/><path d="m425.802 90.9999 5.585 1.5036-4.511 16.9685-.214 2.148-6.23 22.339-1.933 6.015-8.162-2.148-10.096-3.222-7.088-1.289-7.947-1.074-4.296-.215-4.726.215-6.444-.43-1.718-.429-4.726-1.504-3.222-2.148-11.599-1.503h-5.584l-6.874.214-4.296.43.645-2.363 6.014-4.94 8.162-3.866 8.592-10.74 13.317-16.11h.43l1.718-.6444 5.585-4.9404.43-.6443.429-.6445.645-2.5775-.215-.6444-.859-.8592-1.074-.6444 10.095 2.7924 13.747 3.8664z"/><path d="m494.967 109.258-5.155 20.62-6.015 23.628-3.007 11.599-.859 3.652-3.222 12.243-4.94 18.687-1.074 3.867-7.303-.859 2.792-3.222 2.363-7.304.429-1.933v-1.933l-2.362-10.74-1.504-1.933-11.169-13.103-8.592-6.443-1.934-.43-1.718.43-4.94 4.081-.43 1.503-1.074.215-1.933-.43-4.726-4.295-.644-1.719 3.222-12.243-12.888-3.437 1.933-6.014 6.229-22.339.215-2.148 4.511-16.9692z"/><path d="m440.193 38.8042 26.85 7.5179 8.806 2.3628 17.399 4.5107 1.933.4296 13.532 3.4368-13.532 52.196-63.795-16.9693-5.584-1.5036 4.296-15.895 6.014-22.3389-.215-.2148v-.2148l2.578-9.2362.429-1.7184z"/></g></svg>