<svg fill="none" height="722" viewBox="0 0 960 722" width="960" xmlns="http://www.w3.org/2000/svg"><path d="m170.946 548.425-5.633 4.609-8.706 23.044-19.459 13.827-1.024 1.536-10.754 17.411-16.387 30.213-1.536 4.609-82.447-11.266 10.7539-76.301 18.9473-20.996 74.7658 9.73 14.338 1.536 10.754.512z" fill="#3c3b6e" stroke="#fbfbfc"/><path d="m170.944 548.425 60.426 7.682-12.29 100.882-111.636-13.827 1.537-4.609 16.387-30.213 10.753-17.411 1.025-1.536 19.459-13.827 8.706-23.044z" fill="#3c3b6e" stroke="#fbfbfc"/><path d="m822.839 512.579 85.519 5.633v1.024l-5.121 82.959-1.024 14.851-87.567-5.633 2.048-28.677h1.024v-2.049z" fill="#3c3b6e" stroke="#fbfbfc"/><path d="m822.838 512.579-4.609 68.108v2.049h-1.024l-2.049 28.677-40.455-3.073-40.455-3.072 8.193-98.322z" fill="#3c3b6e" stroke="#fbfbfc"/><path d="m774.189 454.201 13.315.512 54.793 4.096 30.213 1.537 38.919 2.56-3.584 54.794-85.519-5.633-80.911-5.633-12.29-1.024 2.56-39.943 5.121-.512 26.117 2.048 9.73.512z" fill="#3c3b6e" stroke="#fbfbfc"/><path d="m916.04 394.798-3.585 55.306-1.024 12.802-38.919-2.56-30.213-1.537-54.282-4.096-13.314-.512 6.145-67.596 13.315.512 40.455 3.072 26.116 1.537 17.924.512z" fill="#3c3b6e" stroke="#fbfbfc"/><path d="m788.014 303.134 42.504 3.072 90.64 5.121v1.024l-4.097 69.133-1.024 13.826-37.383-2.048-17.923-.512-26.117-1.537-40.455-3.072-13.314-.512 1.024-13.827 3.073-25.092z" fill="#3c3b6e" stroke="#fbfbfc"/><path d="m856.634 168.966 73.229 4.608-1.024 14.339-3.585 54.794-4.096 68.62-90.64-5.121 3.584-47.113 1.025-21.507 5.12-55.306 2.561-13.827z" fill="#3c3b6e" stroke="#fbfbfc"/><path d="m727.074 228.881 28.165 2.048 2.049-26.117 2.56-29.189 2.048-13.826 81.423 5.633-2.561 13.826-5.121 55.306-1.024 21.508-3.584 47.112-42.504-2.56-66.572-5.121z" fill="#3c3b6e" stroke="#fbfbfc"/><path d="m932.939 124.414-.512 8.193-2.56 40.967-73.229-4.608 5.121-49.161z" fill="#3c3b6e" stroke="#fbfbfc"/><path d="m868.416 79.8622 67.084 4.6089-2.561 39.9429-71.18-4.609 2.56-39.9428z" fill="#3c3b6e" stroke="#fbfbfc"/><path d="m755.753 71.6688 22.532 1.5362 86.032 6.1452-2.561 39.9428-5.121 49.161-13.826-1.024-81.423-5.633 1.025-13.315-13.827-1.536 2.56-28.165h.513l3.584-43.5276z" fill="#3c3b6e" stroke="#fbfbfc"/><path d="m727.078 228.881-53.258-4.609 7.682-82.959 38.407 3.073 14.85 1.536 13.826 1.024 13.827 1.537-1.024 13.314-2.048 13.826-2.561 29.19-2.048 26.116z" fill="#3c3b6e" stroke="#fbfbfc"/><path d="m774.702 608.852 40.455 3.073 87.567 5.633-2.56 40.455-4.097 62.987-38.919-2.561-65.035-5.12-15.875-1.025-10.242-.512 1.536-19.971 3.585-40.455h1.024z" fill="#3c3b6e" stroke="#fbfbfc"/><path d="m742.44 506.946-8.194 98.321-80.91-6.657 1.024-14.339 6.145-65.035 3.073 1.024 11.778 3.585 12.802 3.072 26.117 2.049 1.024-9.218 13.314.512 2.049-14.338z" fill="#3c3b6e" stroke="#fbfbfc"/><path d="m665.626 459.833 67.084 6.657-2.56 39.944-2.049 14.338-13.314-.512-1.024 9.218-26.117-2.049-12.802-3.072-11.778-3.585-3.073-1.024z" fill="#3c3b6e" stroke="#fbfbfc"/><path d="m788.016 303.134-3.585 44.552-3.072 25.092-1.024 13.827-6.145 67.084-1.025 13.826-9.729-.512-26.117-2.048-5.121.512-67.084-6.657 4.609-54.794 40.967 3.584 4.097-40.967 5.633-69.644h1.024z" fill="#3c3b6e" stroke="#fbfbfc"/><path d="m670.234 405.04 4.096-40.968-74.253-6.657 6.657-69.132 113.685 9.73-5.633 69.644-4.097 40.967z" fill="#3c3b6e" stroke="#fbfbfc"/><path d="m582.157 258.069 10.242 1.025 7.681.512 31.75 3.072 66.06 5.121 25.604 2.561-2.56 27.652h-1.024l-113.685-9.729-46.6-4.609v-8.706-1.536h20.484l2.048-5.121-1.024-8.193v-1.536" fill="#3c3b6e"/><path d="m582.157 258.069 10.242 1.025 7.681.512 31.75 3.072 66.06 5.121 25.604 2.561-2.56 27.652h-1.024l-113.685-9.729-46.6-4.609v-8.706-1.536h20.484l2.048-5.121-1.024-8.193v-1.536" stroke="#fbfbfc"/><path d="m699.425 67.0597 56.33 4.6089v3.5845l-3.585 43.5279h-1.024l-2.56 28.165-13.827-1.024-14.85-1.537-38.407-3.072-7.682 82.959-98.833-9.218.512-4.097-5.121-.512-.512 4.097-3.585-.512 3.585-41.48 1.024-13.826 13.314 1.024 1.537-13.826 8.193-88.592z" fill="#3c3b6e" stroke="#fbfbfc"/><path d="m572.426 215.566 101.906 9.218 53.258 4.609-3.585 41.479-25.604-2.56-66.06-5.121-31.75-3.073-7.681-1.024-10.242-1.024 4.609-5.121 13.314 1.024 2.561-8.193 13.826 1.024 3.073-12.29-14.851-1.025-10.754 13.315-11.778 2.56-18.947-.512 2.048-19.459 3.585-1.536 1.024-8.194 2.048.512" fill="#3c3b6e"/><path d="m572.426 215.566 101.906 9.218 53.258 4.609-3.585 41.479-25.604-2.56-66.06-5.121-31.75-3.073-7.681-1.024-10.242-1.024 4.609-5.121 13.314 1.024 2.561-8.193 13.826 1.024 3.073-12.29-14.851-1.025-10.754 13.315-11.778 2.56-18.947-.512 2.048-19.459 3.585-1.536 1.024-8.194 2.048.512" stroke="#fbfbfc"/><path d="m563.206 247.828 18.947 1.024 11.778-2.56 10.754-13.314 14.339 1.024-3.073 11.778-13.826-1.024-2.561 8.193-13.314-1.024-4.097 5.121v2.56l1.024 8.194-2.048 5.121h-20.483l.512-5.633v-2.049z" fill="#3c3b6e" stroke="#fbfbfc"/><path d="m560.135 283.674 46.601 4.609-6.658 69.132-45.064-4.097-35.846-3.584z" fill="#3c3b6e" stroke="#fbfbfc"/><path d="m670.236 405.039-4.609 54.794-108.563-9.217 2.048-20.484 1.025-9.73 1.024-9.73-14.339-2.048v-9.217l5.121.512-.512-5.633 2.561-25.605.512-15.875 45.064 4.097 74.253 6.657z" fill="#3c3b6e" stroke="#fbfbfc"/><path d="m519.68 349.222 35.846 3.585-.512 15.874-2.56 25.605.512 5.633-5.121-.512v9.218l14.338 2.048-1.024 9.73-1.024 9.729-20.484-1.536-15.874-1.536.512-3.585-5.121-4.609-5.121-.512z" fill="#3c3b6e" stroke="#fbfbfc"/><path d="m557.572 450.616 108.563 9.218-5.633 59.402-6.145 65.036-34.822-16.387-35.334-16.387-41.992-1.024-5.121-4.097-2.048-2.048 5.121-54.282 13.314 1.024z" fill="#3c3b6e" stroke="#fbfbfc"/><path d="m619.536 568.397 34.823 16.387-1.025 14.339 80.911 6.657 40.455 3.072-3.073 41.48h-1.024l-3.584 40.455-1.537 19.971-114.708-8.705-90.128-7.682-33.286-3.072-19.46-2.049 4.609-47.112h4.609l47.112-13.314 5.121-4.097 22.532-25.604 14.851-22.02z" fill="#3c3b6e" stroke="#fbfbfc"/><path d="m482.808 542.792 6.657 1.536h.512l14.338-3.584 19.46-9.218 11.266 13.315 2.048 2.048 5.121 4.097 41.992 1.024 35.334 16.387-12.29 8.705-14.851 22.02-22.532 25.605-5.121 4.096-47.112 13.315h-4.609l4.097-18.435-4.609-31.75-11.266-8.194h-1.024l-8.706 1.537-9.218 3.584-6.145 5.121 6.145-27.141z" fill="#3c3b6e" stroke="#fbfbfc"/><path d="m440.817 624.727 35.334-31.75 6.145-4.609 9.218-3.584 8.705-1.536h1.025l11.778 8.193 4.609 31.75-4.097 18.435-4.609 47.112-8.194-.512-61.963-6.145-4.608-5.633-.513-1.536v-1.536l1.025-3.073 3.584-6.145 2.561-7.681 3.072-18.948z" fill="#3c3b6e" stroke="#fbfbfc"/><path d="m404.972 613.973-1.025 6.657 36.871 4.097 1.024 12.802-3.073 18.948-2.56 7.681-3.585 6.145-1.024 3.073v1.536l.512 1.536 5.121 5.633-35.846-3.584-58.379-6.146-1.024-3.584-16.387-33.798-3.584-2.561 3.072-27.653z" fill="#3c3b6e" stroke="#fbfbfc"/><path d="m482.297 565.836-6.145 27.141-35.334 31.75-36.871-4.097 1.025-6.657 5.632-54.794z" fill="#3c3b6e" stroke="#fbfbfc"/><path d="m331.74 536.647 13.314 1.536-1.536 13.827 67.596 7.169-5.633 54.794-78.862-9.218-4.097-.512 2.049-18.435 4.609-22.02z" fill="#3c3b6e" stroke="#fbfbfc"/><path d="m449.011 480.317 30.725 3.073 25.093 3.584 35.846 3.585-5.121 54.282-11.266-13.315-19.459 9.218-14.339 3.584h-.512l-6.657-1.536-3.073-4.609-11.266-18.435-6.145-18.947-1.536-3.585z" fill="#3c3b6e" stroke="#fbfbfc"/><path d="m513.023 417.842 5.121.512 5.121 4.609-.512 3.585 15.875 1.536 20.484 1.536-5.633 61.963-13.315-1.024-35.846-3.585-25.092-3.584-30.726-3.073-23.044-31.237 13.826-9.73 3.585-7.169 1.536-6.145v-.513l-.512-2.048-3.584-9.73-.512-.512-2.049-1.536-3.072-1.024 28.165 2.56 35.334 3.073z" fill="#3c3b6e" stroke="#fbfbfc"/><path d="m396.779 449.592 29.19-.512 23.044 31.237 11.266 16.899 1.536 3.585 6.145 18.435 11.266 18.436 3.073 4.608-.512 23.045-71.693-6.658-67.084-7.169 1.536-13.826-13.314-1.537-1.024-6.657-19.972-15.875-1.536-1.024-8.706-2.56-3.584 2.048-.513.512 3.585-30.213 5.121-44.04z" fill="#3c3b6e" stroke="#fbfbfc"/><path d="m367.59 345.125 46.601 5.121.512 3.072 6.657 15.875 5.121 2.049h.512l.512-.513.512-.512h1.024l3.073.512 6.657 6.145 2.049 4.097 1.536 15.363-4.097 11.266-3.073 3.585 3.073 1.024 2.048 1.536.513.512 3.584 9.73.512 2.048v1.024l-1.536 6.145-3.585 6.146-13.826 9.729-29.189.512-8.706-12.29-9.218-26.116-.512-5.633 4.097-18.948 1.024-2.56.512-.512.513-.512 10.241-10.754-16.899-2.561-13.826-15.875z" fill="#3c3b6e" stroke="#fbfbfc"/><path d="m272.851 302.11 1.025 9.217 2.56 4.609 7.681 9.73 24.581 3.072h1.536l7.681 8.706v3.073l2.049 3.584 7.169 6.657 9.73 3.585 3.072.512 2.561-1.024 4.608-5.633.513-2.561 5.633-1.536h1.024l10.754 10.242 13.826 15.875 16.899 2.56-10.242 10.754-1.024.512-1.024 2.561-4.097 18.947.512 5.633 9.218 26.117 8.705 12.29-91.664-10.754-5.121 44.04-69.644-8.194-5.121-25.604 16.387 2.048 7.169-57.866 10.242-86.543z" fill="#3c3b6e" stroke="#fbfbfc"/><path d="m308.701 288.795 82.446 10.242-23.556 46.088-3.584 9.218-10.754-10.242h-1.024l-5.634 1.536-.511 2.561-4.609 5.633-2.049 1.024-3.072-.512-9.73-3.585-7.169-6.657-2.049-3.584v-3.073l-7.681-8.706h-1.536l-24.581-3.072-7.681-9.73-2.56-4.609-1.025-9.217-2.048-17.923z" fill="#3c3b6e" stroke="#fbfbfc"/><path d="m417.776 299.037 8.705 1.024-2.56 2.56-4.609 8.194-1.024 4.609-.512 11.266v11.266l-2.049 9.729-1.536 3.073-46.6-5.121 23.556-46.088z" fill="#3c3b6e" stroke="#fbfbfc"/><path d="m518.144 279.577-6.657 69.133 8.193 1.024-6.657 68.62-14.339-1.536-35.334-3.073-28.165-2.56 3.073-3.585 4.096-11.266-1.536-14.85-2.048-4.097-6.657-6.145-3.073-.512h-1.024l-.512.512-.512.512h-.512l-5.121-2.049-6.657-15.874-.513-3.073 1.537-3.072 2.048-9.73v-11.266l.512-10.754 1.024-4.609 4.609-8.193 2.561-2.561 13.826 3.585 20.996-21.508 4.609-7.681z" fill="#3c3b6e" stroke="#fbfbfc"/><path d="m564.741 228.368-1.024 9.73-1.024 9.73-1.536 17.411v2.56l-.512 5.633v1.536 8.706l-40.455 65.548-8.194-1.024 6.657-69.133 3.073-28.677 2.56-26.117 34.31 3.073-1.024 2.048 4.609.513" fill="#3c3b6e"/><g stroke="#fbfbfc"><path d="m564.741 228.368-1.024 9.73-1.024 9.73-1.536 17.411v2.56l-.512 5.633v1.536 8.706l-40.455 65.548-8.194-1.024 6.657-69.133 3.073-28.677 2.56-26.117 34.31 3.073-1.024 2.048 4.609.513"/><path d="m490.49 218.127 20.995 2.048h7.682l4.608 1.024-.512 3.585-2.56 26.117-17.411-7.17-3.073-4.096-5.633-6.146-7.169-2.56z" fill="#3c3b6e"/><path d="m487.419 230.929 7.169 2.56 5.633 6.146 3.073 4.096 17.411 7.17-3.072 28.677-51.722-5.121 7.17-5.633v-1.024l-.513-3.073-1.024-1.024h-3.072l-10.754-5.633-1.536-2.048.512-4.097 2.56-4.097 11.266-8.193 7.169-.513 2.561-1.024 6.145-5.121z" fill="#3c3b6e"/><path d="m399.853 209.933 4.609.512 19.459 7.17 11.266 9.729 4.097 6.145 1.024 6.658.512 6.145 3.072 6.145 3.585 1.024h6.145l2.561-1.536-.512 4.097 1.536 2.048 10.754 5.633h3.072l1.024 1.024.513 3.073v1.024l-7.17 5.633-4.608 7.681-20.996 21.508-13.827-3.585-8.705-1.024-3.585-23.044 12.29-8.706-23.556-26.116-3.584-18.435-.513-4.609z" fill="#3c3b6e"/><path d="m376.808 207.373 23.044 2.56-1.024 8.193.512 4.609 3.585 18.436 23.556 26.116-12.29 8.706 3.585 23.044h-26.629l-82.447-10.242 10.242-87.567 9.73 1.024z" fill="#3c3b6e"/><path d="m490.493 218.127 8.194-51.721 12.29 1.024 17.923 2.56 41.479 3.073-3.584 41.479-1.024 9.218-4.097-.512-3.073 4.609-34.31-3.073.512-3.585-4.608-.512h-8.706z" fill="#3c3b6e"/><path d="m376.808 207.373 1.536-11.778 5.121-53.77-.512-16.387 3.584 10.242 1.024 1.024 18.436 6.658 24.58 6.145h5.121l26.117-1.025 8.705-6.657 7.169-13.314 20.484 38.407-8.193 51.721-3.073 12.802-1.024 2.048-6.145 5.121-2.561 1.025h-6.657l-11.266 8.193-2.56 4.097-2.561 1.024h-6.145l-3.584-1.024-3.073-6.145-.512-6.145-1.024-7.17-4.097-6.145-11.266-9.217-19.459-7.17-4.609-.512z" fill="#3c3b6e"/><path d="m447.475 43.5038 107.539 10.7538 39.431 3.5847-8.706 88.5917-1.536 13.826-13.314-1.024-1.025 13.827-41.479-3.073-17.923-2.56-12.29-1.024-20.484-38.407-6.145-14.339-4.609-20.4835-5.633-14.3385-1.536-2.5604-11.266-19.4596z" fill="#3c3b6e"/><path d="m369.125 34.2859 62.987 7.6814 15.363 2.0483 2.56 14.3386 11.266 19.4594 1.536 2.5605 5.633 14.3386 4.609 20.4833 6.145 13.827-7.169 13.314-8.705 6.657-26.117 1.024h-5.121l-24.58-6.145-18.436-6.657-1.024-1.024-3.584-10.242-1.025-5.121-2.048-16.899v-5.6327l8.193-24.0682 1.025-.5121 2.048-2.0484.512-2.0485v-2.0483l-2.56-6.6571-1.537-2.0483-2.048-2.0485-8.193-4.6088-1.025-.5121-.512.5121-2.048 1.0242-5.633-5.1209-1.536-5.633v-2.5605l2.048-4.0966z" fill="#3c3b6e"/><path d="m314.846 27.6284 54.281 6.145-.512.5121-2.048 4.0969v2.5604l1.536 5.1209 5.633 5.1209 2.048-1.0242.512-.5121 1.025.5121 8.193 4.6088 2.048 2.0483 1.537 2.0485 2.56 7.1692v2.0484l-.512 2.0483-2.048 2.0483-1.025.5122-8.193 24.0683v5.6333l2.048 16.899 1.025 5.121.512 16.387-5.121 53.769-1.536 11.778-48.649-4.609 2.56-27.141 2.561-20.995-47.625-5.121 1.537-17.411 5.632-32.7741 7.682-7.6813h4.097l3.072.5121 2.049-14.8506z" fill="#3c3b6e"/><path d="m244.173 18.9232 70.669 8.7056-5.121 48.6486-2.049 14.8507-3.072-.5122h-4.097l-7.681 7.6814-5.633 32.2617-1.537 17.411v.512h-1.024l-32.261-4.609-48.137-5.633-109.5874-14.85 9.7294-67.5962 7.17-54.7938 93.712 12.8023z" fill="#3c3b6e"/><path d="m285.656 148.994 47.624 5.633-2.56 20.996-33.286-3.585-2.049 14.339-1.536 13.314-11.778-2.048-3.073 13.826-35.334-4.096-25.092-2.561-2.561 20.484-33.286-4.609-27.141-1.024-12.802-1.024-1.024 4.096-40.967-5.633-.512-1.536-17.9235-2.56 12.2901-88.592 109.5874 14.85 48.137 5.633 32.261 4.609z" fill="#3c3b6e"/><path d="m331.23 175.623-2.56 27.141-9.73-1.024-10.242 87.567-37.894-4.609-194.595-25.092 3.0726-20.484 3.5845-25.604 17.9229 2.56.512 1.537 40.968 5.633 1.024-4.097 12.802 1.024 27.141 1.024 33.286 4.609 2.56-20.484 25.093 2.561 35.334 4.097 3.073-13.827 11.778 2.048 1.536-13.314 2.048-14.338z" fill="#3c3b6e"/><path d="m259.027 306.718-10.241 86.543-106.515-13.314 3.584-25.605 27.653-8.193 25.093-22.02 14.338-1.024 11.266 2.56 11.266-3.584 6.145-5.633 4.097-2.561z" fill="#3c3b6e"/><path d="m75.6961 259.094 194.5949 25.093 2.048 17.923-13.314 4.609-13.827 7.169-4.096 2.56-6.146 6.145-11.266 3.585-11.266-2.561-14.338 1.025-25.093 22.02-27.652 8.193-3.585 25.605-3.585 26.628-82.4464-11.266 4.6088-34.822 4.6088-29.189 1.0242-6.145 4.0967-28.677z" fill="#3c3b6e"/><path d="m142.269 379.947 106.515 13.315-7.17 57.866-16.386-2.048 1.024-3.585-.512-1.024-60.427-7.682v1.537l4.097 11.266 9.217 1.024 3.073 1.536 4.096 4.097 1.025 1.536-1.025 7.169-1.536 3.073-2.56-.512-131.0955-17.411 5.633-54.794 82.4465 11.266z" fill="#3c3b6e"/><path d="m204.743 510.018 1.536 1.025 3.073 1.536h.512l4.097-1.024 2.048-1.024 1.536-1.537v-.512l-.512-1.536v-1.024l.512-4.609 8.706 1.024 4.097 52.746-60.427-7.17 1.536-4.609 4.609-5.633 6.657-1.024 3.073-5.633.512-3.072z" fill="#3c3b6e"/><path d="m187.331 528.966-.512 3.072-3.073 5.633-6.657 1.024-4.609 5.633-1.536 4.097-16.899-2.048-10.754-.512-14.339-1.537-74.7647-9.729-18.4353 20.996 8.7054-62.476 27.1409 3.585.5121-1.536 3.0725-.512 66.0601 8.705 2.048 3.073.512 2.56v3.073l2.049 4.096 19.459-1.024 5.121-1.536 3.072 1.024 7.682 6.145z" fill="#3c3b6e"/><path d="m50.6041 450.104 131.0949 17.411v1.024l1.025 4.609 6.657 1.536-2.561 13.315 1.024 2.56.513 1.024 4.096 2.561 4.097 1.536 3.073 2.048 4.096 4.609 1.537 4.097-.512 3.072-.513 1.025-17.411 18.435-6.145-7.681-7.681-6.146-3.073-1.024-5.121 1.536-19.459 1.025-1.536-3.585v-3.073l-.512-2.56-2.049-3.072-66.0596-8.706-3.0724.512-.5121 1.536-27.1409-3.584z" fill="#3c3b6e"/><path d="m225.225 449.08 5.121 25.604-.512 7.17 6.145 5.633-8.193 7.681-1.024 8.194-8.706-1.025-.512 4.609v1.024l.512 1.537v.512l-1.536 1.536-2.049 1.024-4.096 1.024h-1.024l-2.561-1.536-1.536-1.024.512-1.024.512-3.073-1.536-4.097-4.097-4.608-3.072-2.049-4.097-1.024-4.097-2.56-.512-.513-1.024-2.56 2.56-13.314-6.657-1.537-1.024-4.608v-1.025l2.56.513 1.537-3.073 1.024-7.169-1.024-1.537-4.097-4.096-3.073-1.537-9.217-1.024-4.097-11.266v-1.536l60.427 7.681.512 1.025z" fill="#3c3b6e"/><path d="m230.349 474.684 69.644 8.194-3.584 30.213-8.706-1.024-8.705 1.536-4.609 34.822v19.46l-3.585 27.141-43.528-5.121 4.097-34.31-4.097-52.746 1.025-8.193 7.681-7.682-6.145-5.633z" fill="#3c3b6e"/><path d="m296.411 513.091.512-.512 3.584-2.048 8.706 2.56 1.536 1.024 19.972 16.387 1.024 6.657-3.073 27.141-4.608 22.02-2.049 18.435v1.024l-51.721-5.12.512-5.121 3.585-27.141v-19.46l4.609-34.822 8.193-1.536z" fill="#3c3b6e"/><path d="m226.766 590.417 43.528 5.121-.512 5.12 51.721 5.121v-1.024l4.097.512-3.073 27.653 3.585 2.561 16.387 33.798 1.024 3.584-17.411-2.048-31.237-3.585-15.875-3.072-52.234-6.145-7.681-1.025z" fill="#3c3b6e"/><path d="m557.575 229.393.512-1.536 3.073-4.609 4.097.512 1.024-9.218h3.584l.512-4.097 5.121.512-.512 4.097h-2.56l-.512 3.073h-2.049l-1.024 8.193-6.657 3.073z" fill="#3c3b6e"/></g></svg>