<svg fill="none" height="720" viewBox="0 0 962 720" width="962" xmlns="http://www.w3.org/2000/svg"><path d="m167.283 121.358 54.066 2.726 13.63.454-.909 20.9h-.909l-2.725 49.067-14.539-.908-59.972-3.635-45.433-2.726 4.998-69.512z" fill="#3c3b6e" stroke="#fbfbfc"/><path d="m6.90624 110 14.08416.909 57.2458 4.543 34.5288 2.272h1.363l-4.997 69.512-14.5391-.909-93.5919-6.36z" fill="#3c3b6e" stroke="#fbfbfc"/><path d="m936.468 137.714.455 32.712.454 14.084h-40.89l.454-37.709h-3.634v-8.178z" fill="#3c3b6e" stroke="#fbfbfc"/><path d="m886.036 138.168h7.27v8.178h3.634l-.454 37.71v11.812h-2.272v10.904h-35.892l.455-12.267h-11.813v-47.25h2.726v-9.541z" fill="#3c3b6e" stroke="#fbfbfc"/><path d="m894.212 207.227v49.067h-11.813v12.267h-9.995-25.897v-24.534l.454-36.8h11.813z" fill="#3c3b6e" stroke="#fbfbfc"/><path d="m937.373 184.51.455 23.625 6.814 47.251-26.351.454h-24.079v-49.068-10.904h2.272v-11.812z" fill="#3c3b6e" stroke="#fbfbfc"/><path d="m918.292 255.84 26.351-.454 1.363 8.178 9.995 64.969-37.709.454-.454-36.801.909-14.992z" fill="#3c3b6e" stroke="#fbfbfc"/><path d="m894.216 256.294 24.079-.454.455 21.808-.909 14.993.454 36.801-36.346.454-.909-24.08-14.993-.454-.454-.454-1.818-12.721.455-8.179.908-1.362 2.272-1.818h1.363l.454-.454 2.726-6.815v-4.998h9.996v-12.267z" fill="#3c3b6e" stroke="#fbfbfc"/><path d="m955.547 328.987 4.998 33.621v2.271l-7.27 5.907v3.18l2.272 1.817-1.363 2.272-2.272.908-1.817-2.725h-18.173v-3.181l-4.998-3.634-2.271-.455h-2.272l-.455.455-4.088 4.088-10.904-10.449h-3.635l-5.452-1.363-1.817-.454-1.818-1.363-3.634-4.544-8.633-8.178-.454-17.264 36.347-.454z" fill="#3c3b6e" stroke="#fbfbfc"/><path d="m890.578 355.338 3.634 4.544 1.818 1.817 1.817.454 5.452 1.363h3.634l10.904 10.45v14.084l-8.632 3.18h-4.543l.454 20.445-48.159.455v-14.539h-11.812v-5.906l.454-13.176 4.543-3.634h4.543l3.181 4.088v2.272h8.178v3.635h4.997l1.818-2.726 1.817 1.363 3.635-4.998-1.363-1.817 3.634-9.995 8.633-10.45z" fill="#3c3b6e" stroke="#fbfbfc"/><path d="m961.002 365.334-.454 62.697-.455 29.077v31.349l-54.519.909-.454-24.08-13.63-.454-.455-24.534 6.815-.454v-9.995l8.178-2.272-.454-36.801h4.543l8.632-3.18v-14.085l4.089-4.088.455-.455h2.271l2.272.455 4.998 3.634v3.181h18.173l1.817 2.725 2.272-.908 1.363-2.272-2.272-1.817v-3.18z" fill="#3c3b6e" stroke="#fbfbfc"/><path d="m905.117 411.675v16.356l-8.178 2.272v9.995h-6.815v24.534l-51.794.454v-12.721l.454-36.346h14.993v-4.089h2.726z" fill="#3c3b6e" stroke="#fbfbfc"/><path d="m845.602 378.509-.455 13.176v5.906h11.813v14.539h-2.726v4.089h-15.447l-.455 36.346v24.988h-18.173-24.079v-12.267h-24.08v-12.267l.454-39.981 3.181-5.906 5.452-7.269.908-.455 2.272-.454h4.089l9.541-4.998h13.176l4.088-1.817 21.808-12.267z" fill="#3c3b6e" stroke="#fbfbfc"/><path d="m772.454 453.474v36.8h-8.632v4.09l2.271 1.362.455 6.815h-29.986l-12.267-.454v-11.813l.454-24.533h12.267v-12.267z" fill="#3c3b6e" stroke="#fbfbfc"/><path d="m772.452 465.286h24.079v12.267h24.08v12.267l-12.267.909v48.159h-24.534-47.705v-36.801h29.986l-.454-6.815-2.272-1.363v-4.089h8.632v-24.534" fill="#3c3b6e"/><g stroke="#fbfbfc"><path d="m772.452 465.286h24.079v12.267h24.08v12.267l-12.267.909v48.159h-24.534-47.705v-36.801h29.986l-.454-6.815-2.272-1.363v-4.089h8.632v-24.534"/><path d="m838.783 465.286 51.794-.454 13.63.454.454 24.08h-12.721l.454 37.255h-7.269l-4.998 2.726v9.541h-.454l-71.784.454v-48.159l12.267-.909v-12.267h18.173z" fill="#3c3b6e"/><path d="m905.119 489.366 54.52-.909-.454 44.525-.455 77.69-30.44-8.632-14.538-5.907-19.991-15.901-13.63-11.358-.454-29.986h.454v-9.541l4.998-2.726h7.269l-.454-37.255z" fill="#3c3b6e"/><path d="m880.131 538.888.455 29.986-7.27-2.272h-.908-.455l-2.271 3.635v.454l.454.909v1.363 1.363l-.454 1.362-.455.455-3.18 1.817h-.909-1.817l-3.18.455-7.724.454-4.543-.454-11.358-1.363-1.363.454-.455-.909v-.909l.455-.908v-.909l-1.363-3.18-.909-.454h-3.635l-8.632 4.543-9.541 4.998-9.541-.909-9.087-7.269-1.817-2.726v-.909-24.988l-6.36-4.543h24.534z" fill="#3c3b6e"/><path d="m784.264 539.342 6.361 4.543v24.989l.454.908 1.817 2.726 9.087 7.27 9.541.908-9.995 3.635-5.452-.909-6.815-1.363h-1.818-2.271l-13.176.909-5.906 1.363-.909 3.634-.908 3.181v.454.455l-.455.908-.454.909-.909.908-2.271.909-2.272.454-17.265 4.089-.908-1.362-4.998-6.815-1.363-.455h-1.363l-5.906.909-.909-.909-11.812-8.178v-.454-.455-1.817l.454-2.271 2.272-10.904-2.272-5.907 4.543-9.995-1.363-7.269 13.176.454v-6.36h7.269z" fill="#3c3b6e"/><path d="m675.679 536.616 29.986.454 5.906 1.364 4.543 4.997v.909l-.454.454 1.363 7.27-4.543 9.995 2.271 5.906-2.271 10.904-11.359 5.452-5.452.909-10.903-3.181-1.364-.909-1.817-2.271-5.906-12.267v-8.178h-4.089v-8.178l.454-14.084z" fill="#3c3b6e"/><path d="m688.4 489.82 35.892.454v11.813l12.267.454v36.801h-7.269v6.361l-13.176-.454.454-.455v-.909l-4.543-4.997-5.906-1.363-29.986-.455.454-22.716h5.907l.454-24.534z" fill="#3c3b6e"/><path d="m727.02 433.029h9.087l.454 20.445v12.267h-12.267l-.454 24.533-35.893-.454v-12.267h-12.266v-5.906l.454-30.894.454-15.448 17.719 9.087 6.815 4.089 9.087-4.998 8.178 1.818 4.089 4.088z" fill="#3c3b6e"/><path d="m676.589 440.298-.454 30.894-24.079-.454-5.906 1.818-.455.454v1.363l.909 1.817 1.817 1.363 1.363 4.544 1.363 5.906-4.543.908-19.082-.454-24.08-.454.455-24.534h-12.267l.454-24.534z" fill="#3c3b6e"/><path d="m628.432 488.911 19.082.455 4.089-.909-1.363-5.906-1.363-4.544-1.817-1.362-.909-1.818v-1.363l.454-.454 5.907-1.817 24.079.454v5.906h11.813v12.267h-5.906l-.455 24.534h-5.906-10.904l-1.363-.909-.454-.908v-.455l1.363-.908-.455-3.181-.454-.454-36.347-.454z" fill="#3c3b6e"/><path d="m603.444 549.792 68.149.908-.454 8.178h4.089v8.178l-.909.455-17.264 30.44-.454.908-1.363.909-1.818.454h-1.817l-1.817-.454-6.815-11.358 4.543-11.813-8.178-4.089-16.356 14.539-6.815-1.817-.909-.909-.908-.909v-.454l-.455-.909-2.271-10.449-9.087 2.271z" fill="#3c3b6e"/><path d="m603.895 488.457 24.079.454-.454 18.174 36.346.454.455.454.454 3.181-1.363.908v.455l.454.908 1.363.909h10.904v22.716h-4.089l-.454 14.085-68.15-.909.455-30.894z" fill="#3c3b6e"/><path d="m537.112 517.534 66.332 1.363-.454 30.44-.455 24.534-4.089-2.726-11.812-7.723-4.089 4.997-5.907 6.361-5.906 4.543-3.635.909h-1.363l-9.995-4.544-1.363-1.362 2.726-6.361.909-7.724-4.543-1.817-4.09.909h-2.725l-4.998-1.363-.454-.455-1.818-4.089 4.089-4.543-.909-6.361-5.906-3.634z" fill="#3c3b6e"/><path d="m592.536 463.923h12.267l-.454 24.534-.454 30.895-66.333-1.363.455-30.44.454-24.08h6.361z" fill="#3c3b6e"/><path d="m477.595 499.816h11.812l7.27-4.998h23.17l5.907-5.452 4.089-2.726h7.723l-.454 30.44v21.354l5.906 3.634.909 6.361-4.089 4.089-6.815-11.359-17.719-5.452-4.543-.908-2.272 1.363-4.543 5.906-6.361 5.452-3.18-1.363-5.452-8.632-2.726-2.272-2.726-1.817h-.908l.908-24.08h-5.906z" fill="#3c3b6e"/><path d="m484.406 436.664 59.972 1.362v24.534h-6.361l-.454 24.08h-7.724l-4.089 2.726-5.906 4.998h-23.171l-7.269 4.997h-11.813l.455-10.45-6.815-3.634-12.267-.455.454-12.266.909-36.801z" fill="#3c3b6e"/><path d="m459.421 473.01-.454 12.267 12.267.454 6.815 3.635-.454 10.45-.455 9.995h5.907l-.909 24.534-10.45 3.18-7.723-.455-10.45-2.725-10.449-6.361-1.818-.909-10.449-.908h-4.544-2.271l-4.089-.909-2.272-.909-1.363-.454-1.817-10.904v-3.18-3.181l1.817-.454.455-.909v-.908l-1.818-4.998-.909-.454h-1.817l-.454-2.272v-2.726l2.271-9.541 4.544-9.541 2.726-3.635 2.726-.454 4.997.454.455.455h.909l.454-.455v-3.18l-.909-1.817-1.363-1.817 7.724.454 3.634 4.543v1.363z" fill="#3c3b6e"/><path d="m412.621 439.389 6.361-4.997h.909.454l2.272 1.817.454.909-2.726 19.536 12.721.454-4.997 8.633 1.363 1.817.908 1.817v3.181l-.454.454h-.909l-.454-.454-4.998-.455-2.726.455-2.726 3.634-4.543 9.541-2.272 9.541v2.726l.455 2.272h1.817l.909.454 1.817 4.998v.908l-.454.909-1.818.454-5.452-9.541-5.906-3.18-4.997-2.726-4.998 8.632v.455l-.909.454-4.089-.454-3.634-3.635-2.727-1.817-1.817-.909-5.452-.454h-1.363-.454l-4.543 5.452h-4.998l-3.635-.909-8.177-7.724-2.727-3.634-5.906-7.724 20.899.909.909-30.44 15.902.454 10.904-.454-.455-1.363v-3.181l.455-.908 3.634-5.907 17.719.455z" fill="#3c3b6e"/><path d="m340.383 407.132 11.813.454.454-12.266 37.709 1.362 4.998.455 4.543 4.089 4.998 7.269-.454 3.18-.909 3.635 1.363 16.356.909 1.363 6.815 5.906-.455 1.363-17.719-.909-3.634 5.907-.455.908v3.181l.455 1.363-10.904.454-15.902-.454.455-3.635-7.724-.454.909-27.26-17.719-.909z" fill="#3c3b6e"/><path d="m395.357 397.591h5.452l58.155 1.817 19.99.455 5.907 3.18-.909 34.075-23.625-.909-.909 36.801-19.99-.454v-1.363l-3.635-4.544-7.724-.454 5.452-8.632-12.721-.455 2.726-19.536-.455-.908-2.271-1.818h-.454-.909l-6.361 4.998-6.815-5.906-.908-1.364-1.363-16.355.908-3.635.455-3.18-4.998-7.269z" fill="#3c3b6e"/><path d="m327.665 406.678 12.721.454-.454 12.267 17.719.909-.909 27.26 7.724.454-.454 3.634-.909 30.441-20.899-.909-16.81-8.178.908-25.897z" fill="#3c3b6e"/><path d="m809.708 299.91h13.175l8.178 8.178 11.813-2.272h17.265 6.36l14.993.455.909 24.079.454 17.265 8.632 8.178-1.817 1.363-8.632 10.449-3.635 9.996 1.363 1.817-3.635 4.998-1.817-1.363-1.817 2.725h-4.998v-3.634h-8.178v-2.272l-.454-36.346-41.799.454v-24.534h-5.906z" fill="#3c3b6e"/><path d="m815.613 342.617h41.798l.455 36.346-3.181-4.088h-4.543l-4.543 3.634-7.724 1.817-21.808 12.267-4.089 1.818h-13.175l-9.541 4.543h-4.089l.454-19.536v-12.267h11.813v-4.089l1.817-8.178 4.089-12.267z" fill="#3c3b6e"/><path d="m732.926 379.418h52.248l-.454 19.536-2.272.454-.909.455-5.452 7.723-3.18 5.907-.454 39.981h-35.893l-.454-20.445h-9.086v-29.077h5.452z" fill="#3c3b6e"/><path d="m712.483 363.971.909.908h.909l8.632.455v-.909l-.455-1.817.909-4.998 6.815-2.272 3.18-.908v24.988 24.534h-5.452v29.077l-4.089 6.815-4.089-4.089-8.178-1.817-9.086 4.997-6.815-4.089.454-71.784 5.907-1.817z" fill="#3c3b6e"/><path d="m653.872 354.43 58.609.454v8.632l-11.358-3.634-5.906 1.817-.455 71.784-17.719-9.086-9.086 8.177-6.815-.454-2.272-4.543-5.906.909.908-62.698z" fill="#3c3b6e"/><path d="m593.903 365.788 59.971.909-.908 62.697-6.361.455-14.539-4.09-1.363-.908-.454-.454-.909-2.272-.908-7.724-1.818-6.815-5.451-9.086-22.717-22.717-4.998-4.089z" fill="#3c3b6e"/><path d="m593.448 371.24 4.998 4.089 22.716 22.716 5.452 9.087 1.817 6.815.909 7.724.909 2.271.454.455 1.363.908 14.538 3.635 6.361-.454 5.906-.909 2.272 4.543 6.815.454 9.087-8.177-.455 15.447-84.051-1.363z" fill="#3c3b6e"/><path d="m545.74 364.879h9.541l10.45 6.361 14.084 1.363 9.995.908 4.089-1.362-.909 67.695-.454 24.534-48.159-.909v-24.534z" fill="#3c3b6e"/><path d="m521.662 339.437h.454v1.363l-.454 23.171 23.625.454-1.363 73.601-59.972-1.362.909-34.075.454-.454.454-14.539v-14.539l.455-22.262.454-12.267z" fill="#3c3b6e"/><path d="m534.382 315.357 59.972.909-.454 49.068v5.452l-4.089 2.271-9.996-.454-14.084-1.363-10.449-6.361h-9.541l-24.08-.908.454-23.171v-1.363h-.454l.454-24.534z" fill="#3c3b6e"/><path d="m594.356 316.72 59.971.909-.454 36.801v12.267l-59.972-.909z" fill="#3c3b6e"/><path d="m713.391 287.643v42.707l-.908 24.534-58.609-.909.455-36.8.454-30.441z" fill="#3c3b6e"/><path d="m761.547 330.35v12.267h11.813v24.534h12.267v12.267h-52.248v-24.988l-3.181.908-6.814 2.272-.909 4.998.454 1.817v.909l-8.632-.455h-.909l-.909-.908v-8.633l.455-24.988z" fill="#3c3b6e"/><path d="m809.71 299.91v18.628h5.906v24.534h-12.267l-4.089 12.266-1.817 8.178v4.089h-24.079v-24.533h-11.813v-12.267-30.895h18.173 24.079z" fill="#3c3b6e"/><path d="m846.053 269.016h25.896v4.997l-2.725 6.815-.455.454h-1.363l-2.271 1.818-.909 1.363-.454 8.178 1.817 12.721.454.454h-6.36-17.265l-11.812 2.272-8.178-8.178h-13.176-5.906v-6.815h5.906l.909-35.892h15.901l5.452 6.815 1.363 2.272-.454 1.817h-1.817l.454.454.908.455z" fill="#3c3b6e"/><path d="m804.254 195.414h42.253 11.813l-.455 12.267h-11.812l-.455 36.801v24.534h-14.538l-.454-.455-.455-.454h1.817l.455-1.817-1.363-2.272-5.452-6.815h-15.902-6.36l.454-33.62h2.726v-2.726h-2.726z" fill="#3c3b6e"/><path d="m836.06 138.623h12.722v9.541h-2.726v47.25h-42.253v-48.159h2.271v-8.632z" fill="#3c3b6e"/><path d="m786.989 138.623h19.537v8.632h-2.272v48.159l-.455 24.534h-20.899v-80.871z" fill="#3c3b6e"/><path d="m782.904 219.948h20.899 2.726v2.726h-2.726l-.454 33.62h6.36l-.908 35.893h-5.907v6.814h-24.079l.454-30.894h-29.986v-12.267h3.181l29.986.454z" fill="#3c3b6e"/><path d="m713.388 256.749h36.347v12.267h29.985l-.454 30.894h-18.173v30.895h-48.614v-42.708z" fill="#3c3b6e"/><path d="m679.314 244.482h11.812v12.267h22.262v30.894l-58.608-.454-24.08-6.361.454-24.534 24.08.455v-12.267z" fill="#3c3b6e"/><path d="m595.262 254.931 24.08.455 11.812.908-.454 24.534 24.079 6.361-.454 30.44-59.971-.909z" fill="#3c3b6e"/><path d="m535.294 253.568h11.813l48.159.909-.909 61.789-59.971-1.363.454-24.534v-20.445z" fill="#3c3b6e"/><path d="m487.589 252.205 47.705 1.363-.454 17.265v20.445l-.455 24.534h-12.267l-.454 24.533-34.983-.908v-36.801z" fill="#3c3b6e"/><path d="m486.225 350.795-.455 22.262v14.539l-.454 14.538-.454.455-5.907-3.181-19.99-.454-58.154-1.817 1.362-49.068z" fill="#3c3b6e"/><path d="m402.63 342.163v6.36l-1.363 49.068h-5.452l-4.998-.454-37.709-1.363-.455 12.267-12.267-.455-12.721-.454.909-21.354 1.363-33.62 48.159 2.272.454-12.267z" fill="#3c3b6e"/><path d="m402.627 299.456 84.051 2.726v36.8l-.454 12.267-84.051-2.726v-6.36z" fill="#3c3b6e"/><path d="m451.698 251.751 35.892.454-.909 49.522-84.051-2.726.454-28.168.455-21.354z" fill="#3c3b6e"/><path d="m403.084 270.833-.455 28.168v42.707l-24.079-.908-.454 12.267-48.159-1.818 1.362-27.714 1.364-36.801h7.269l3.18-12.266 9.087-2.726v10.904l2.726.908 2.726 3.18.908.909 5.452 3.635 3.635 1.363 5.452 1.363h1.817l6.815-2.726.455-.455 5.452-8.632 1.817-6.36.454-.455.909-.908 2.726-2.272 1.817-.909 2.726-.454z" fill="#3c3b6e"/><path d="m381.272 188.599-1.817 60.426 24.534.909-.455 21.353h-4.543l-2.726.455-1.817.908-2.726 1.818-.909.908-.454.455-1.817 6.36-5.452 8.632-.455.455-6.815 2.726h-1.817l-5.452-1.363-3.635-1.363-5.452-3.635-.908-.909-2.726-3.18-3.181-.908v-10.904l-9.086 2.726-3.181 12.266h-7.269l.909-24.533 2.272-62.698.454-13.176z" fill="#3c3b6e"/><path d="m381.276 188.599 34.529.909.909-31.803v2.271l2.726 2.272 1.817.454 9.995-.454 1.364.454 1.817.909 18.627 26.351v13.176l-.908 48.613-47.705-1.817-24.534-.909z" fill="#3c3b6e"/><path d="m548.014 211.77-.908 41.798h-11.813l-47.705-1.363-35.892-.454.909-48.613 13.176.454 2.726 4.998 1.363 1.363 1.817.908 10.449 5.452 5.907 2.726 2.271.455 2.727.454 7.723-.909v-9.086z" fill="#3c3b6e"/><path d="m620.253 194.96-.909 60.426-24.079-.455-48.16-.908.909-41.799.455-18.173z" fill="#3c3b6e"/><path d="m665.229 195.414.455 2.272 1.362 1.817 10.905-2.726 2.271 4.543-4.089 3.181-5.906-.455v3.635h-2.272l-.454 24.534h11.812v12.267l-24.079-.455v12.267l-24.08-.454-11.812-.909.909-60.426z" fill="#3c3b6e"/><path d="m679.317 244.482v-12.267h-11.813l.454-24.534h2.272l.454 2.726 2.726 2.726 1.363.909 3.181.908 7.269-1.817 4.089-6.815 7.723-6.361 4.998 2.272 1.817 14.993 5.452 4.089 6.815 1.817 5.452 5.906-2.726 6.815 5.907 3.181 5.452-6.361h4.089v2.726l12.267 13.176 12.266.454-5.452 8.178h-3.18-36.346-22.262v-12.267z" fill="#3c3b6e"/><path d="m699.759 138.623h24.988 58.154v81.325 36.801h-29.985l5.451-8.178-12.266-.455-12.267-13.175v-2.726h-4.089l-5.452 6.36-5.907-2.726 2.726-6.815-5.452-5.906-6.815-1.817-5.452-4.089-1.817-14.993-4.997-2.272-7.724 6.361-4.089 6.815-7.269 1.817-3.181-.908-1.363-.909-2.726-2.726-.454-2.726v-3.635l5.906.455 4.089-3.181-2.271-4.543-10.904 2.726-1.363-1.817-.455-2.272.455-6.815 5.906-6.361 16.356-7.723 2.272.454.908-.454 8.178-4.998z" fill="#3c3b6e"/><path d="m620.705 137.714 34.984.454 44.07.455-.455 30.44-8.178 4.998-.908.454-2.272-.454-16.356 7.723-5.906 6.361-.454 6.815-44.979-.455z" fill="#3c3b6e"/><path d="m583.453 136.805 37.71.455-.909 57.245-71.784-1.363h-.454l.908-49.067v-8.178z" fill="#3c3b6e"/><path d="m522.57 135.897 25.897.454v8.178l-.909 49.068h.454l-.454 18.627-47.704-1.363.908-75.418z" fill="#3c3b6e"/><path d="m399.901 131.808 50.431 1.817 50.431 1.363-.909 75.419v9.087l-7.724.908-2.725-.454-2.272-.454-5.907-2.726-10.449-5.452-1.817-.909-1.364-1.363-2.725-4.998-13.176-.454v-13.176l-18.628-26.351-1.817-.908-1.363-.455-9.995.455-1.817-.909-2.727-2.272v-1.817z" fill="#3c3b6e"/><path d="m339.024 129.082 51.339 2.271 9.541.455 16.81 25.897-.908 31.803-34.53-.909-44.524-1.817z" fill="#3c3b6e"/><path d="m234.525 124.538 34.53 1.364 60.425 2.726 9.541.454-2.271 57.7-.455 13.175-60.425-2.726-45.433-2.271 2.725-49.068h.909z" fill="#3c3b6e"/></g></svg>