<svg fill="none" height="722" viewBox="0 0 960 722" width="960" xmlns="http://www.w3.org/2000/svg"><g fill="#3c3b6e" stroke="#fbfbfc"><path d="m286.654 75.0393 4.155 42.3087 3.777 32.109-10.577-3.022-2.266-.755-.756-.378-2.644-1.889-3.4-3.022-21.91-12.844-1.511-.755-1.133-.756-1.133-.755-1.889-.756-3.778-1.889-1.511-.755-1.133-.756-1.511-.755-1.889-.756-1.511-.755-6.044-2.267-1.133-13.977 2.644-2.644 10.577-4.5331 30.599-3.022 6.044-.7555-1.511-15.1102 4.911-.3777z"/><path d="m270.787 26.3089 47.975-6.044 17.376 31.7313-5.288 12.8437-16.244 1.8888-7.177.3777v4.911l-7.555 1.1332-13.221 1.5109-4.911.3779-2.644-25.3097-7.555-4.1552-9.444.7553 7.932-20.3986z"/><path d="m728.248 428.996 4.156 30.22-51.375 7.177v-3.022l-1.133-6.422-.756-3.399-3.022-.378-.755-4.155 2.644-1.134-.378-1.133-1.511-.755-3.4.755-.755.378-4.911 4.155-.378.756 4.911 9.443v5.289l-12.844 1.133-13.221-16.243 12.466-1.889-.756-6.8-.377-3.022 20.399-3.022z"/><path d="m732.403 459.216-51.374 7.177-1.511 12.844-4.155-4.156-5.667 1.134.756 2.644 4.532 3.777 5.667 13.222.378 3.4 3.777-.756.378-2.644 1.511-1.511 4.533 1.511.378 1.889 4.155.755 7.177 4.533 5.289 4.911 3.4 5.289 3.022 1.133 16.621-2.644-2.266-11.711 10.577-1.888-1.889-10.2zm-60.818 7.555-12.844 1.133.378.378.378 1.511.377 1.511.378 3.022 1.133-.378-.377-3.022.755-2.266.756-1.134h.377l1.134 1.134 4.533-.756.377-.378zm-10.955 10.199 1.133 3.778 10.577 19.643.756 1.511.378.378.377.378 5.289 3.022 3.022.755h1.511.755l1.134-.378 4.533-3.777v-.378l-5.289-1.133-1.511.755-1.133 1.511-6.799-1.511-1.889-1.133-1.511-1.133-9.822-18.51-.756-4.911z"/><path d="m732.404 459.217 40.797-6.045 23.421-3.777 2.644-22.666 11.711 71.018 1.511 8.311-40.42 7.177-3.4-19.265-1.511-10.577-30.22 5.288z"/><path d="m812.868 506.058 5.667 31.732 3.022 19.643-49.108 8.311-.756-1.511-.378-.378-4.91-2.644-2.645-1.134-.755-.377-10.199-2.267h-1.134l-12.088 2.267-1.133.755-.756 1.133v1.134l-.378 2.266-.377 1.511h-.756l-.755-.755-6.8-9.444-9.066-15.488-1.133-4.155-.756-3.022-2.644-9.444-2.267-6.422-1.888-3.4 3.022 1.133 16.621-2.644-2.266-11.71 10.576-1.511-1.888-10.2 30.22-4.911 1.889 10.578 3.4 19.265z"/><path d="m821.555 557.432-49.108 7.933 1.511 9.066 3.4 1.133 7.555 7.178 7.555 11.71-1.511 3.022 5.666 3.778 3.022 8.31 4.533 3.022v1.133l-.377.756-1.512-.378-.755.378-.756 1.133-.377.756-.378 4.155v4.911l.378 2.644 4.155 6.044.755.756 4.534 2.644 1.888.756 8.311-1.889 8.311-3.4 6.421-4.911-1.133-1.511-4.533-19.265zm72.151 40.798-5.289 8.31-5.288 3.022 3.022 1.889.378 4.911-4.533 4.155 1.133 3.022-1.889 2.644-3.4.378 1.512 4.155-1.889 1.889-4.156-2.266-.378 1.511 3.023 1.133v.755l-1.889 5.667-3.022 3.777-2.267-.377v3.777l-2.644 1.889-2.267 1.889-3.399 4.91v.378l.377.378 8.311-7.933.378-.755 5.288-7.555 4.155-6.422 7.178-8.689 1.511-3.022.755-1.888-.755-1.511.378-.756 6.422-16.243 1.51-3.022.756-.378zm-37.02 59.685-9.066 6.799-4.911 4.911-.378.378h.378l5.289-1.889 4.155-3.777 4.155-3.778 1.134-2.644zm-20.399 15.866-12.466 6.799-9.066 5.289.378.377-.756 1.134 2.267 1.133 3.4-1.511 6.044-4.155 4.533-4.156 5.666-2.644.378-.756zm-44.197 9.821-3.4 1.889-.755 1.133 3.399.756 4.911.755-.378-2.266zm-9.066 3.778-2.267 2.266-2.266-1.511v4.155h-2.267l-3.022 1.134-2.266 2.644-2.644.378-1.134 1.511v1.133l-4.91 4.911-4.156 3.4-1.511.755-3.777 1.889h-.378l-.756-.378h-.755l-4.911 1.134-1.511 2.266-.378.756.378 1.888h.377l2.645-.755 7.177-.378 6.8-4.155 9.821-5.666 3.022-.756v-4.533l2.267-.378.756 2.267 10.577-.756 6.422-3.022 1.888-1.133-.378-1.133-1.51-1.134-.756-2.266-4.911-1.511-2.267-.756zm15.11 8.31 4.155-1.133-.377-1.889h-2.645zm-85.75 20.021-3.778.378-1.889 2.644 1.134 2.267 4.91-.756z"/><path d="m896.353 598.607-2.645-.377 1.133-5.289 3.778-13.221.755-1.511h.378l.756 4.155-1.889 8.688zm-77.818-60.818 19.643-3.4.756 2.644 24.931-4.155 14.355-1.511.378-2.266 6.8-1.512 4.155-.755 7.555-1.511v.378l1.133 6.422 1.133 8.31.378 2.644.378 5.289-.756 2.644-.377 1.134-.756 2.266v8.311l-2.267-1.889v-6.8l-1.133-1.511-1.133.378-3.022 1.889-1.133 1.133-.378.756-5.289 22.287-.377 4.155.377 2.267 3.023 9.066.755.756h1.133l.378.755v1.133l-1.889 4.533-4.533 6.8-.378.378-2.644 3.022v3.4l-3.777.755-2.267 2.267-1.889 3.777-5.666-3.4-4.156.378-1.51 6.8-4.156 3.022-4.533.378-1.133 3.022-2.644.377-2.267-2.644-9.821-1.133-1.134-1.511-4.533-19.266-7.933-49.864z"/><path d="m811.356 497.747 60.818-10.199 4.911-.755 18.51-1.512 2.266 40.043-7.555 1.511-4.155.755-6.799 1.511-.378 2.267-14.355 1.511-24.931 4.155-.756-3.022-19.643 3.4-5.667-31.732z"/><path d="m799.267 426.729 51.753-8.311h1.133l24.176-3.777 6.044-2.644 1.889 4.155 1.889 4.155 1.888 3.778 2.645 6.799 1.889 10.955 1.51 10.2.379 4.91 1.133 26.821v1.889l-18.51 1.511-4.911.755-60.818 10.2z"/><path d="m674.23 416.908 3.023 20.021-20.399 3.022.377 3.022.756 6.8-12.466 1.888-18.51-27.954-1.133-1.511-1.511-2.266-1.134-1.511-4.532-5.667-2.645-2.644-5.666-5.666 40.42-5.289 2.644 20.399z"/><path d="m722.582 394.242 5.288 35.131-50.997 7.933-4.91-34.753 20.399-3.022 11.332-1.889z"/><path d="m788.691 398.775 7.555 6.044 3.022 21.532-2.644 22.665-23.422 3.778-40.797 6.044-4.155-30.22 30.598-4.533-1.511-10.2 9.821-1.511-1.133-10.199z"/><path d="m864.241 380.266 18.132 30.976-6.044 2.644-24.176 3.777h-1.133l-51.753 8.311 17.755-21.91-1.134-9.444 26.821-4.533 13.599-2.266-1.133-6.422z"/><path d="m809.467 354.956 36.642-6.044 18.133 31.353-8.689 1.511 1.134 6.422-13.6 2.267-26.82 4.533z"/><path d="m785.29 328.135 36.642-6.044 4.911-4.533.377-.756 18.51 32.487-36.642 6.045-10.199 1.51-1.511-9.443-9.822 1.511z"/><path d="m760.356 353.067 27.576-4.155 9.822-1.511 1.511 9.444 10.199-1.511 6.8 40.042 1.133 9.444-17.755 21.91-3.021-21.532-7.555-6.044-8.689-8.689-10.199-7.933-14.733-13.599 3.4-5.666z"/><path d="m717.293 359.111 43.065-6.422-1.889 10.2-3.4 5.666 14.732 13.599 10.2 7.933 8.688 8.688-23.043 3.778 1.133 10.199-9.821 1.511 1.511 10.2-30.599 4.533-5.288-35.132z"/><path d="m667.053 366.666 50.241-7.555 5.289 34.753-19.266 3.022-11.333 1.889-20.398 3.022z"/><path d="m615.679 374.599 51.374-7.555 4.911 35.131 2.267 14.733-20.399 3.022-2.644-20.399-40.42 5.289-5.666-5.667-3.4-6.044 2.644-1.133 3.4-2.267 6.799-10.955.379-.755z"/><path d="m597.168 315.292 3.777 23.421-6.799 1.889-.378.377-.378.756.756 1.511 1.133.756 2.645 1.133 4.91-.756.378 3.022 3.022 1.133 4.155-1.888.378 3.022-3.022 1.511 1.511 3.4-3.777 5.666 1.133 5.288-1.889 3.4-6.799 1.889.377 3.778 1.511 1.511 1.133 3.022-3.399.755-1.511-10.577-4.533-6.8-6.8-6.044-4.533-7.555 4.533-7.555v-.378l.378-6.044.378-5.288-1.134-8.311-.755-1.889-.378-.755-1.889-2.267z"/><path d="m597.168 315.292 55.53-7.933 4.911-.756 5.288 35.131 3.778 24.932-51.375 7.555 10.2-15.488.377-.377 2.267-5.667.378-3.022-1.511-4.911-1.511-1.888-4.533-.378-3.4-1.889.755 7.555 1.511 1.889.378 3.022-4.155.378-4.155-3.022 1.511-2.267-3.023-10.577h-3.777l-3.022.378-3.022.755z"/><path d="m589.233 255.607 23.043-3.4.378 3.4 15.866-2.644v2.266l1.511 1.889 4.155 4.533 2.266 1.133 13.222 3.022 3.4 5.289-20.022 3.022.756 4.911-39.286 5.666-3.778.378z"/><path d="m652.698 271.85 2.644 18.888.755 6.422-4.911 1.133 1.512 9.444-55.531 7.933-15.865 2.266 8.688-31.731 3.777-.378 39.287-5.666-.755-4.911z"/><path d="m695.384 280.538 80.84-12.465 1.889 11.332 3.022 18.51h-.756l4.911 29.843 3.022 20.776-27.576 4.533-.756-4.155-.755-3.022-5.289-7.933-3.021-4.155-10.578-1.889-7.933-12.466-6.422-2.266-5.288-6.044 7.555 1.888 3.778-6.421-10.955.755-1.511-6.044-6.8.755-.755-6.421-4.533-6.422-10.2 1.511z"/><path d="m695.382 280.539 1.511 10.199 10.199-1.511 4.534 6.422.755 6.422 6.8-.756 1.511 6.044 10.954-.755-3.777 6.422-7.555-1.889 5.288 6.044 6.422 2.267 7.933 12.465 10.577 1.889 3.022 4.533 5.289 7.933.755 3.022.756 4.155-43.064 6.422-50.242 7.555-3.777-24.932-5.289-35.131-4.91.756-1.512-9.444 4.911-1.133-.755-6.422 4.155-1.889 1.511 1.889h3.4l.378-5.289z"/><path d="m712.381 226.897-3.4 9.444.378 2.644.756 5.666 13.599-1.511.755 2.644 33.998-5.666 12.088 11.71 5.289 16.622-80.84 12.466-7.555-49.486 1.134-.756h1.133l1.511-.378z"/><path d="m712.384 226.897 3.022-11.333 5.667 4.155 10.199-1.133 3.022 4.155 2.266.378h.756l3.4-1.511 1.133-2.266h6.422l.756 6.421 3.399 4.156 6.422 10.199-33.998 5.666-.756-2.644-13.599 1.889-.755-6.044-.378-2.645z"/><path d="m681.032 174.011 4.156 7.177 9.443 3.022 4.911 8.311 6.8 4.533 4.155 2.266 4.155 3.023.378.377 1.133 6.044-.755 6.422-3.022 11.333-21.154 3.4-1.512.377h-1.133l-1.133.756 7.555 49.486-30.598 4.911-10.2-70.263 29.843-4.533v-12.088z"/><path d="m618.701 220.475 36.265-5.288 10.199 70.262-.378 4.911h-3.4l-1.511-1.889-4.155 1.889-2.644-18.888-3.4-5.288-13.222-3.4-2.266-1.133-4.155-4.533-1.511-1.889v-2.267l.377-4.911.378-1.133 1.133-2.266 1.889-2.644 1.889-.378.378-.378 1.133-3.778v-.377l-12.844-11.711z"/><path d="m594.904 214.053 6.422-1.888 17.377 8.31 4.155 5.289 12.844 11.332v.378l-1.134 3.778-.377.377-1.889.378-1.889 2.644-1.133 2.267-.378 1.133-.378 4.911-15.866 2.644-.377-3.4-23.043 3.4-1.511-17.376-.756-3.778-.755-1.511-13.222-10.199.756-1.134 1.133-1.133 2.644-2.644 1.889-.378h1.511l6.422 1.511 6.044-3.4z"/><path d="m574.125 155.879.378 3.023 10.577-1.134 1.889 6.8 13.977-2.644 4.911 30.976-13.222 1.888 2.645 19.643v.378l-1.889 1.134-6.044 3.399-6.422-1.511h-1.511l-1.889.378-2.644 2.644-1.133 1.133-.756 1.134v-3.778l-1.133-3.022-6.422-2.644 2.644-3.4-2.266-3.777-2.267-1.134-16.243 1.134-2.645 4.155-3.399-.378-4.533-12.466-9.444-2.644 8.311-7.177 4.155-7.556 2.266-7.555 3.778-15.487z"/><path d="m600.568 161.546 18.132-2.644 1.889 1.888-.378 1.134 7.555 3.399 7.555-3.022 1.134-.755v-.378l-.378-3.4 2.644-3.022 2.267-1.133 6.799-2.644 10.578-1.889.755 4.155 6.422-1.133 1.511 6.8 4.155-.756.378 6.422 4.911-.756 3.022.378.755 3.778-3.4.755 4.911 4.911 4.156 24.554v12.088l-29.843 4.533-36.265 5.289-17.376-8.311-6.422 1.889-2.644-19.643 13.221-1.889z"/><path d="m676.117 169.1 3.4-.377 18.887-6.8 1.133-4.533 1.889-.378 2.267 15.866 8.31-1.511h.378l18.132-3.4-2.266-12.466 4.155-6.799 7.555 12.843 6.044 9.444 4.911 7.555 3.022 3.778 8.311 10.577 18.888 22.665-23.799 4.156 3.4 20.02-2.267.378-6.422-10.199-3.4-4.155-.755-6.422h-6.422l-1.133 2.266-3.4 1.511h-.755l-2.267-.377-3.022-4.156-10.199 1.134-5.666-4.534.755-6.421-1.133-6.044-.378-.378-4.155-3.022-4.156-2.267-6.799-4.533-4.911-8.311-9.444-3.022-4.155-7.555z"/><path d="m758.847 239.74 2.267-.378-3.4-20.02 23.799-3.778 18.51 19.643.377.378.756.755v.378l7.555 13.599v.756l-3.4 2.266-.755 1.134-1.134 2.266v.756l-.378 1.888-.377 3.022v3.4l.377 3.022 1.512 6.044 3.022 8.689 3.777 9.066 2.644 4.911 2.267 3.399 3.022 4.534v.377l8.311 11.333-.378.755-4.911 4.534-36.642 6.044-4.911-29.843h.756l-3.023-18.51-1.888-11.333-5.289-16.621z"/><path d="m239.432 64.463.755-7.5551.378-2.6443 6.8-.7556 1.889 1.5111.377 3.3997 11.711-1.1332 1.133-7.9328v-1.1335l-.378-1.1332 9.444-.7555 7.555 4.1554 2.644 25.3096-4.91.3777 1.511 15.1102-6.044.7555-30.599 3.022-10.577 4.5331-2.644 2.6439 3.778-6.7993 8.31-5.6663-4.911-11.3327-1.511-1.8887-.377-3.3997 4.533-7.933z"/><path d="m216.768 32.7305 53.263-6.044-7.932 20.3986.377 1.1333v1.1334l-1.133 7.9328-11.71 1.1332-.378-3.3997-1.889-1.5111-6.799.7556-.378 2.6443-.756 7.5551-19.265 1.8888z"/><path d="m201.659 34.2421 15.11-1.5111 3.4 33.2423 19.265-1.8887-1.133.7555-4.533 7.9328.378 3.3999 1.511 1.8887 4.911 11.3327-8.311 5.6663-3.778 6.7995 1.134 13.977-41.553-8.311-6.422-71.3952z"/><path d="m181.64 36.5085 6.422 71.3955-40.42 3.022-5.288-70.6399 9.443-.7556z"/><path d="m104.956 43.3076 37.397-3.3996 5.289 70.64-11.711 3.022-.755-3.022-29.843 7.933.756-5.289 6.422-1.511 1.511-13.9766-14.3549-9.0662-5.2887-12.4659-1.5111-4.1552-.3776-1.8888-1.1333-8.6885.3777-1.5109 1.8888-6.7995.7555-1.1335 4.5331-3.7775z"/><path d="m61.5109 47.4638 43.4421-4.1555-6.0443 4.9108-4.5331 3.7776-.7556 1.1334-1.8887 6.7996-.3777 1.5108 1.1332 8.6886.3777 1.8888 1.5111 4.1552 5.2887 12.4658 14.3547 9.0662-1.511 13.9769-6.422 1.511-.755 5.289 29.842-7.933.756 3.022-23.043 7.177-.756.378h-.755l-3.4.755-2.267.378-3.777.756-15.4882 3.777-9.0662 2.644 6.4219-3.022 1.1332-12.843 1.1332-25.3097v-1.8888l-.3776-1.5111-1.1332-1.8888-4.5331-2.6443-3.3999-1.8888-1.5109-.3777h-.7556l-3.022-2.2664-10.1994-10.955-1.1332-2.2664z"/><path d="m286.653 75.04 13.221-1.5111 7.555-1.1332v-4.9108l7.178-.3779 16.243-1.8887-4.533 10.9549-3.4 21.5321-4.533 16.6207-27.198 3.023z"/><path d="m290.807 117.349 27.198-3.023.756 17.755 11.332 7.555 1.133 15.866 1.134 4.533-6.422 3.022-1.511-.378-8.689 8.689-.755 1.888-9.444.756-.378-11.711-.377-1.133-1.511-2.644-5.667-7.177-2.266-2.267-.378-.378z"/><path d="m378.069 129.437 21.154 3.4.756 1.888.378 1.134.378.755v1.133l-.756 1.512-.377.377-3.023.756-4.533-.756-1.133-.377-1.133-.756-1.133-1.511-5.667 2.267-2.266 1.133-14.733 11.332-6.422 5.667-5.666 4.155-5.289 3.4-10.954 3.4-4.533 1.133-3.778-.378-3.022.378-1.889.755-9.444 3.4 1.134-1.889 8.688-8.688 1.511.378 6.422-3.022-1.134-4.533-1.133-15.866 1.133-4.911z"/><path d="m543.525 129.814 1.889 27.198-3.778 15.488-2.266 7.555-4.156 7.555-8.311 7.178-1.888-6.422-3.4-5.289-1.889-3.022-2.644-1.133h-2.266l-4.534-2.267-7.933-4.155-2.266-1.133-.378-.756-3.022-16.243 6.044-3.4.756-15.866z"/><path d="m546.548 121.881 7.178-6.422 15.866 9.822 4.532 30.598-28.709.755-1.889-27.198z"/><path d="m580.547 110.926 11.333.378 2.645 3.777 1.132.378 12.844 2.267 5.667-.378 1.133-.756h.755l4.534.378 1.51.378 9.067 8.31 1.133 2.267v1.511l4.155 28.331.378 3.4v.378l-1.133.756-7.555 3.022-7.555-3.4.377-1.133-1.888-1.889-18.133 2.644-13.977 2.644-1.888-6.799-10.578 1.511-.377-3.022-4.533-30.598z"/><path d="m677.252 108.66 9.444 24.177 3.022 15.487 9.822 8.689-1.133 4.533-18.888 6.8-.756-3.778-3.022-.378-4.911.756-.377-6.422-4.156.755-1.511-6.799-6.421 1.133-.756-4.155-10.577 1.889-6.8 2.644-2.266 1.133-2.645 3.022-4.155-28.331h.378l2.267-1.134 9.065-6.422.378-1.888.756-.756 9.066-6.422 1.511-.377z"/><path d="m686.697 132.458 20.776-3.022 9.444-7.177 15.488 26.065-4.155 6.8 2.266 12.465-18.132 3.022h-.378l-8.31 1.511-2.267-15.865-1.889.377-9.821-8.688z"/><path d="m662.143 77.6838 5.288-2.2666h2.267l6.799 2.2666 10.577-1.8887-3.022-16.999 5.666-.7556 12.089 31.3536 8.688 20.3989.378.378 1.133 2.644.755 1.889 4.156 7.555-9.444 7.177-20.776 3.022-9.444-24.176-2.645-12.8439-10.199-6.044z"/><path d="m662.141 77.6842 2.267 12.088 10.199 6.0442 2.645 12.8436-21.533 3.777-1.511.378-9.065 6.422-.756.756-.378 1.888-9.066 6.422-2.267 1.133-7.177-48.7298-.755-4.9108 10.199-1.5111 20.776-3.3999 2.645-.7553 3.022-.3779z"/><path d="m616.058 82.2167 9.444-1.5109 7.178 48.7302h-.378v-1.133l-1.134-2.267-9.066-8.31-1.51-.378-4.534-.378h-.755l-1.134.756-5.666.377-12.844-2.266-1.133-.378-2.644-3.777 4.533-1.889 6.422-3.4 10.577-15.1101 3.022-5.6663.378-1.1332z"/><path d="m616.054 82.2173.755 1.5111-.378 1.1332-3.021 5.6663-10.578 15.1101-6.421 3.4-4.534 1.889-11.332-.378-4.533-6.044 9.444-13.2215-.756-4.1552z"/><path d="m547.682 68.9958 6.044 46.4642-7.177 6.421-6.044-7.555-3.778-3.777-1.511-1.133-10.199-6.422-4.533-2.267-4.911-.377-.378 1.133-1.511 1.133-3.022-.756-1.133-.755-3.4-8.3105-1.511-7.5551v-.7555l.378-.3779 5.666-15.4879.756-3.3999.378-.3776 3.022-2.2665 3.777-1.1334h7.933l4.911.7555z"/><path d="m503.862 84.106-.378.3779v.7555l1.511 7.5551 3.4 8.3105 1.133 1.133 3.022.756 1.511-1.134.378-1.133 4.911.378 4.533 2.267 10.199 6.421 1.512 1.134 3.777 3.777 6.044 7.555-3.022 7.933-40.042 5.666-3.4.378-3.022-8.31-5.288-41.9313z"/><path d="m492.155 85.6172 5.288 41.9308 3.022 8.311 3.4-.378-.756 15.866-6.044 3.399-3.4-.755-9.821-4.155-1.133-.756-.756-1.133-3.4-4.533v-.756l-.755-2.266-1.134-1.889-5.288-6.044-4.533-3.022-.755-.378-10.955-4.911-6.044-1.889-9.444-4.155-6.422-3.778 13.977-27.5756 35.131-4.5331.756 4.911z"/><path d="m357.292 98.0823 46.464-6.044 1.133 3.3997 16.621-1.8888 2.645 20.3988-16.999 2.267-9.067 4.533-1.511.755-.377 3.778.755 4.155.378.378 2.267 2.644-21.155-3.4-6.422-3.777-3.022-2.267-4.155-5.666-2.267-13.599-5.666-4.5335z"/><path d="m362.582 87.1275-5.666 10.9547-1.133 1.5111 5.666 4.5327 2.267 13.6 4.155 5.666 3.022 2.266 6.422 3.778-46.464 5.288-1.133 4.911-11.333-7.555-.756-17.754 4.533-16.6215 3.4-21.532 4.533-10.955 6.044-.7553 1.134 7.5551 10.577-.7556.755 6.044 6.422-.3777.756 6.044 4.155-.3777z"/><path d="m384.871 48.9748 9.822-.7556-4.156 10.955-4.533 13.5991-.378 1.1335-1.511 1.1332-1.888.7555-13.222 6.7996-6.044 4.1552-1.511-4.5331-4.155.3779-.756-6.0442-6.421.3778-.756-6.0442-10.577.7556-1.133-7.5551-6.045.7555 5.289-12.8437z"/><path d="m422.268 46.7078 6.799 15.4878-7.932 2.2667-1.889 10.5771 2.266 18.5098-16.621 1.8888-1.133-3.3997-46.464 6.044 5.666-10.9547 6.044-4.1555 13.222-6.7995 1.889-.7556 1.511-1.1332.377-1.1332 4.534-13.5993 4.155-10.9548 19.643-1.5111z"/><path d="m448.711 44.8193 13.222-.7556.755 1.5111.755 6.4217-3.022 3.7775-7.932 8.6886-5.667 16.9989-.755 5.6664-13.977 27.5761-8.689-.378-4.91-38.9087 1.888-10.5771 7.933-2.2664-6.8-15.4881z"/><path d="m487.242 42.1745 4.911-.3776 4.533 1.8887 4.533 15.8656 3.022 5.2886.755.3777 4.911 3.0222-5.666 15.4879-12.088 1.5111-10.2 1.5109-.755-4.9108-35.132 4.5331.756-5.6663 5.667-16.999 7.932-8.6883 3.022-3.7776-.755-6.4218-.756-1.5111z"/><path d="m509.154 40.6641 44.575-3.022-2.267 4.5331v1.8888l.378 3.022 1.889 2.2666 5.666 6.044.756.7556 1.133 2.6443v1.1332l-2.644 6.7996-.756.7555-5.288 2.6443-4.534-.3778-.377-1.1333-17.377-6.4218-4.911-1.1333h-7.933l-3.777 1.1333-3.022 2.2666-.378.3777-.755 3.3999-4.911-3.0223-.756-.7553-3.022-5.2886-4.533-15.8658-4.533-1.8888z"/><path d="m564.679 36.8857 12.466-.7553 7.555 51.3745.756 4.1553-9.444 13.2218 4.533 6.044-10.955 14.732-15.866-9.821-6.044-46.4642.378 1.1332 4.533.3776 5.288-2.6441.756-.7555 2.644-6.7996v-1.1334l-1.133-2.6441-.756-.7556-5.666-6.0442-1.889-2.2664-.377-3.3999v-2.2664l2.266-4.5331z"/><path d="m580.927 35.7531 20.399-1.1332 3.022 16.2434 1.133 2.6443 1.889 2.6443 1.889 1.5109h.755l11.333-2.2664 1.511 10.1994 2.266 15.1102-9.444 1.5109-31.353 5.2887-7.556-51.3746z"/><path d="m622.854 65.5957 18.132-24.932 8.311-11.7103 2.267-1.8887 1.133-.7556 6.8-3.022 11.332.3777h1.511l6.422 5.2886 1.889 1.1333 1.888 1.5111 3.023 9.0659 1.133 6.7998 1.133 4.1552 1.134 3.3999.755 2.2664-5.666 1.1333 3.022 16.9989-10.578 1.8888-6.799-2.2664h-2.267l-5.288 2.2664-1.133-7.9327-3.023.3776-2.644.7556-20.776 3.3999-10.199 1.5108z"/><path d="m675.366 6.66632 3.778 23.04318-6.422-5.2887h-1.512l-11.332-.3776-6.799 3.022-1.134.7555-2.266 1.8888-8.311 11.3327-18.132 24.9317-1.511-10.1994.377-7.9328.378-7.9328v-7.933l-1.133-3.7775-3.022-3.7776-1.511-2.2664-.378-2.2667.756-12.46582 10.955-6.42188 4.155 3.02222 15.488 3.39966 11.71 1.13322 6.044-.37767 8.311-1.13321z"/></g></svg>