<svg fill="none" height="722" viewBox="0 0 960 722" width="960" xmlns="http://www.w3.org/2000/svg"><g fill="#3c3b6e" stroke="#fbfbfc"><path d="m710.58 713.291h-.513l-1.029 1.542-1.541 1.542h-.514l-2.056 2.055-1.028.514-1.027 1.028-3.084 1.028-.514-.514-1.028-1.028v-1.028l.514-1.028-1.028-3.597 1.542-2.57h1.028l1.028-2.055v-5.14l-.514-1.541-.514-4.112 1.542-2.055 2.57-.514 2.055-.514 1.542-.514 1.027-.514 3.598-1.542h1.542l1.028 1.028 1.027 2.57 2.57 2.569-.514 1.542-4.625 8.737-2.57 2.569z"/><path d="m636.062 1v2.56959l4.112 4.62524 1.027 5.65317-2.055 7.1948.513 6.681 6.682 5.1391-1.028 12.3341.514 10.7923 1.027 6.167 2.056 6.6809 2.056 1.5418 3.083 2.0557-13.361 4.6252.513 3.0835-2.055 5.6532-7.709 5.653-9.765 6.167-8.736 1.5418-17.474 6.1666-4.111-11.3058-4.111-10.7922-8.736-19.5289-14.39-35.4605-2.57-7.1948 16.445-4.6252 27.238-6.681z"/><path d="m595.464 105.326 17.473-6.1673 8.737-2.0556 9.764-6.167 7.709-5.6532 2.056-5.6531-.514-3.0835 13.362-4.6253 5.139 6.1671 1.542 3.5974 2.055 5.6531v1.5418l-1.027 9.2505 4.111 16.4451-4.625 13.362v12.848 5.139 5.14l3.597 2.569 9.764 29.293 2.056 3.598-6.167 2.056-66.295 25.696v-6.168l-.515-2.055-12.847-2.57-4.111 2.056-1.542 1.028-1.028 2.055-17.987-14.389 7.195-8.737-8.223-22.612 20.043-7.195-14.904-40.6z"/><path d="m182.275 404.426-7.709 1.542-39.058 7.709-6.167 1.541-6.681-38.029 52.934-9.251z"/><path d="m182.274 404.426 10.278-2.056-3.083 15.418 5.653-1.028 1.542 8.223-1.542 20.557-58.072 10.278-6.168-34.433-1.541-6.167 6.167-1.541 39.057-7.709z"/><path d="m137.049 455.818 58.073-10.278 5.653 30.321-2.056 8.222-4.111 3.598-1.028 5.653-.514 5.653v.514l3.084 1.028-30.835 5.653-17.474 4.111-.514-3.083-7.195-38.03-3.083.514-2.57-13.876z"/><path d="m196.666 424.983 20.556-4.112 1.028 1.028.514 1.028-.514 4.625v.514l-3.084.514.514.514 13.876-2.57 6.167-2.055 1.542 1.541 1.028 1.542 1.542 4.111 1.541 6.168-4.111 1.027 3.597 13.876-3.597 1.028 4.111 13.876 11.307-2.056 2.569 6.681 1.542 7.195-18.501 4.111 1.028 7.709-6.681 1.028 1.027 8.736-13.361 2.056-1.542-6.681-22.612 4.112-3.084-1.542v-.514l.514-5.653 1.028-5.653 4.111-3.598 2.056-8.222-5.653-30.322z"/><path d="m628.868 338.131 4.626-.514 15.417 4.111 5.139 3.597 1.542 3.598 10.279 8.736 1.027.514h1.542l-40.085 17.474-1.028 4.111-8.223 1.028-2.055-5.139 2.569-6.167-3.084-2.056v-.514l.515-2.056 16.445-17.987z"/><path d="m627.33 334.02 1.541 4.111 3.084 8.736-16.445 17.988-.514 2.055v.514l-7.709 4.112-12.848 4.625-13.362-3.598-10.278-.513-14.39-2.056-6.167-28.78 26.724 4.112 6.166-1.542z"/><path d="m547.672 302.671 22.098 4.625 21.585-6.681 3.083 3.597 11.306-2.055-.513-5.654 1.542-1.541 6.166-2.056 14.904 40.6-44.197 9.764-6.167 1.542-26.724-4.112-2.569-6.681 5.139-13.361z"/><path d="m330.798 392.606-.514 10.278 5.139 26.724.514 3.083 2.57 7.709.513 1.028 1.029 1.028 9.25 11.306 12.334 9.251-13.362 3.597-22.612 5.653-5.14-21.584-6.68-4.626-3.598-7.195-4.111-15.417v-.514l.514-.514 1.541-.514-4.624-22.098z"/><path d="m303.046 399.801 4.625 22.098-1.541.514-.515.514v1.028l4.112 15.417-38.544 8.223-2.056 5.139-.513 3.084-1.028 7.709 3.083 14.389-13.876 2.57-1.541-7.709-2.57-6.681-11.306 2.056-4.111-13.876 3.597-1.028-3.597-13.876 4.111-1.027-1.542-6.167-1.542-4.112-1.027-1.541-1.542-1.542 11.306-2.056-3.084-14.39 12.848-2.569 13.876-3.598 12.848-2.569 1.028 4.111z"/><path d="m309.725 438.858 3.597 7.195 6.681 4.626 5.139 21.584 1.542 6.681 1.542 7.195-8.737 1.542-4.111-3.598-12.334 2.056-4.625-1.028-1.028-.514-1.542-7.195-.514-3.597v-1.542l-25.182 5.139-3.084-14.389 1.029-7.709.513-3.084 2.056-5.139z"/><path d="m325.656 471.749 22.613-5.653 2.57 10.793 3.597 13.361v2.57l2.569 13.876 8.224-1.542 1.027 5.139-2.056 3.084-5.139.514-6.167-1.542-1.542-6.167-12.334 2.569-13.875 4.112v1.542l-13.876 4.111h-1.028l-4.111-17.987-3.084-14.904 12.334-2.055 4.112 3.597 8.736-1.542-1.541-7.195z"/><path d="m349.299 453.762 23.126-5.653.515 1.028 21.584-5.139 8.736 33.404-3.597 3.084 2.056 3.597 4.625-.514 1.542 4.626-.514 4.111 2.056 2.57-5.653 1.027-1.028-2.055-3.084 1.028h-10.792l1.541 8.736-6.68 1.542-2.056-3.084-6.681 1.542-9.25 1.542-8.223 1.542-2.569-13.876v-2.57l-3.598-13.362-2.57-10.792 13.362-3.597z"/><path d="m328.74 328.88 5.14 17.988 1.028 7.194 4.625-1.027 9.764-2.57 1.028 4.625 3.084 12.334 1.542 6.681h-2.056l-.514.514v1.028l4.111 14.39 3.084-.514 6.681 24.668 10.278-2.57 8.223 5.139 3.597 3.598.514 1.542 5.653 22.612-21.584 5.653-.515-1.028-23.126 5.653-9.25-11.306-1.028-1.028-.514-1.027-2.57-7.709-.513-3.084-5.14-26.723.514-10.279-11.306-49.85z"/><path d="m406.858 350.465 2.056 2.055 3.084 13.362 4.625-2.569 5.653 14.903 8.222 30.321-42.141 12.334-.514-1.541-3.597-3.598-8.223-5.139-10.278 2.57-6.681-24.668-3.084.514-4.111-14.39v-1.028l.514-.514h2.055l-1.541-6.681-3.084-12.334 17.473-4.111 5.139 2.055 2.056-4.625 4.112 2.57-.514-7.195 17.473 3.083z"/><path d="m431.008 409.052 3.084 10.278 13.362 47.28-29.808 7.195-13.875 3.598-8.737-33.405-5.653-22.612z"/><path d="m434.093 419.33 44.197-12.334 7.709-1.028 14.903-4.112 1.028 69.893 3.598 18.501-12.848 2.57-11.82 2.57-2.056-9.251-20.557 5.653-1.542 1.028-1.541-2.056-7.709-23.64z"/><path d="m406.856 350.465 13.362 1.542 11.821-5.14 5.653.514 2.569 1.542 7.195 4.112 3.597 2.569 4.112 3.598 2.055 4.111 4.112-.514 4.111 13.876.514 2.055 12.848-1.541 1.541 9.25 21.072-6.167-1.029 21.071-14.903 4.111-7.709 1.028-44.197 12.334-3.083-10.278-8.223-30.322-5.653-14.903-4.625 2.569-3.084-13.361z"/><path d="m491.139 262.071 13.876 43.169-2.57 5.139-4.111 2.57 1.028 6.167 10.278 1.542-6.167 19.529-4.625 11.82 6.681 26.724-3.597 2.055-21.071 6.167-1.542-9.25-12.848 1.541-.514-2.055-4.111-13.876-4.111.514-2.056-4.112-4.112-3.597-3.597-2.57-7.195-4.111-2.569-1.542-5.653-.514-11.821 5.14-3.083-25.696-3.084-.514 3.084-26.21 6.681.514 26.724 2.569z"/><path d="m433.578 176.76 34.947 11.82 23.126 72.976-40.599 40.6-26.724-2.57-9.251-33.404-4.111-13.876-8.223 2.056 1.028-3.598-1.542-9.764 9.251-3.598 15.418-16.445 5.139-1.028-2.57-5.653 5.14-1.542-.515-12.334-7.709-3.597z"/><path d="m468.015 188.581 13.875 4.625 22.099-8.223 29.293 88.394-5.139 25.182 19.529 4.625 5.653 17.988-5.139 13.361 2.569 6.681 6.167 28.78-14.389-2.57 1.027 10.279-1.542 1.541-24.667-8.222-2.57 8.736-7.709 2.056-1.028-3.597-6.68-26.724 4.625-11.82 6.167-19.529-10.279-1.542-1.027-6.167 4.111-2.57 2.569-5.139-13.875-43.169z"/><path d="m570.798 372.05-.515 6.167.515 4.625.514 2.055 7.195 14.39 1.541 3.598-2.57 10.792-2.569 8.223-14.904 4.111-20.042 17.987-10.279 9.251-4.625 5.653-11.307 8.736-3.083 1.028-9.25 2.57-1.028-69.893 1.028-21.071 3.597-2.055 1.028 3.597 7.708-2.056 2.57-8.736 24.668 8.222 1.542-1.541-1.028-10.279 14.39 2.57z"/><path d="m615.506 366.91 3.083 2.055-2.57 6.167 2.056 5.14 8.223-1.028 1.028-4.112 2.055 1.542 1.028 7.709-1.028 8.223-1.027 14.903v17.987l.513 2.056 1.029-.514v7.195l-19.53 5.653-19.529-5.653-16.959-12.848 2.57-8.223 2.57-10.792-1.542-3.597-7.195-14.39-.514-2.056-.514-4.111.514-6.167 10.278.514 13.362 3.083 12.848-4.625z"/><path d="m667.415 357.66 9.251-8.223 2.056 3.598 3.083.513-.513 52.42-51.392 21.071-1.029.514-.513-2.056v-17.987l1.027-14.904 1.028-8.223-1.028-7.708-2.055-1.542z"/><path d="m606.256 275.432 29.807-11.306 1.542 2.056 7.195 10.792 2.056 8.737 1.028.514 7.709 2.055 9.25-9.25 6.681-8.737 1.027 1.542 9.251 29.807.514 3.084.514 10.792-.514 5.653-1.542 7.195 1.028 25.696-3.083-.514-2.056-3.598-9.251 8.223h-1.541l-.515-.514-10.278-8.736-1.541-3.598-5.139-3.597-15.418-4.112-4.625.514-1.542-4.111-14.904-40.6z"/><path d="m604.203 214.79 66.295-25.696-.514 12.848-.514 9.765-6.167 15.417-2.056 5.653-1.028 5.653v1.028l.515 2.056 11.306 28.779-6.682 8.737-9.25 9.25-7.709-2.055-1.028-.514-2.055-8.737-7.195-10.792-1.542-2.056-29.807 11.306-19.015-53.961z"/><path d="m565.659 162.371 8.223 22.612-7.195 8.737 17.987 14.389 1.028-2.055 1.542-1.028 4.111-2.056 12.334 2.57.514 2.055v6.167l-16.959 6.681 19.015 53.962 6.681 17.473-6.167 2.056-1.542 1.541.514 5.654-11.306 2.055-3.084-3.597-21.585 6.681-22.098-4.625-19.529-4.626 5.139-25.182-29.293-88.394 34.433-12.334z"/><path d="m595.464 105.326-24.668 9.25 14.903 40.6-20.042 7.195-27.238 9.764-1.542-11.306-4.111-11.82-22.099-64.24-13.875-41.6274-8.737 2.0557-2.57-8.2227h3.084l45.225-8.7366 15.931-3.5975 11.307-3.5974 1.027-.5139 2.57 7.1949 14.39 35.4603 8.736 19.529 4.112 10.7923z"/><path d="m484.974 36.9743 2.569 8.2227 8.737-2.0557 13.876 41.6274 22.098 64.2393 4.111 11.821 1.542 11.306-34.433 12.334-22.098 8.223-13.876-4.626-34.946-11.82-8.222-3.083-24.155-8.223-19.529-7.195 3.598-11.82 3.083-8.223 5.653-9.764 17.473-27.238 5.14-7.1947 40.599-45.7388 2.056-1.5417 14.904-8.7366 2.569-.5139z"/><path d="m381.161 157.745 19.528 7.195 24.155 8.223 8.223 3.083-7.195 20.043 7.708 3.597.514 12.335-5.139 1.541 2.57 5.653-5.14 1.028-15.417 16.446-9.25 3.597 1.541 9.765-1.028 3.597 8.223-2.056 4.112 13.876-23.127 2.57-5.139 2.569 1.028 4.112-20.043 2.569-7.195-18.501-7.195-3.083 3.084-4.112 4.111-.514 6.167-4.111 2.056-4.625.514-1.028-.514-2.57-2.57-6.167-1.028-1.028-1.027-.514-9.765-1.027-6.681-3.084-10.792-7.709-1.542-4.625v-2.056-3.597l2.57-11.306 25.182-26.724z"/><path d="m367.284 278.516 20.043-2.57-1.027-4.111 5.139-2.57 23.126-2.569 9.25 33.404-6.68-.514-3.084 26.21 3.084.514 3.083 26.21-13.362-1.542-9.764-3.083-17.474-3.598.514 7.195-4.111-2.569-2.056 4.625-5.139-2.056-17.473 4.112-1.028-4.626-9.764 2.57-4.626 1.028-1.027-7.195-5.139-17.987 5.139-6.167 13.875-14.904 1.029-.514 4.624-1.542 3.084 1.542h1.542l3.597-1.028 6.167-4.111.514-1.028 1.028-2.056.514-2.569v-2.57l-.514-4.111-1.542-7.709z"/><path d="m320.003 342.756 11.306 49.336-27.751 7.709-19.015 4.111-1.028-4.111-12.848 2.569-13.876 3.598-7.709-38.03 6.681-2.056 19.015-5.139 3.598-.514h5.139l4.111.514 8.737-1.542h.514l16.445-9.764 2.569-2.056z"/><path d="m182.273 404.426-6.68-36.488 4.625-.514 18.501.514 11.82 3.084 5.653 3.083 1.028.514 9.765 4.111 3.083.514h2.056l16.445-10.278 7.709 38.03-12.848 2.57 3.083 14.389-11.306 2.056-6.167 2.056-13.876 2.569-.514-.514 3.084-.514v-.514l.514-4.111-.514-1.028-1.542-1.028-20.042 4.112-1.542-8.223-5.653 1.028 3.083-15.418z"/><path d="m129.338 414.705 1.542 6.167-2.57 1.542-11.82 4.111-20.5566 6.167-5.1392 9.25-5.6529 1.028-7.7088-8.222-9.2508 1.541-3.5972-.514-1.542-2.055-5.1392-26.724 25.1822-13.362 21.5845-10.278 9.251-3.598 6.68-2.055h3.084z"/><path d="m130.88 421.386 6.168 34.432-2.57.514 2.57 13.876 3.083-.514 7.195 38.03-14.904 6.681-12.848 6.681-13.361 8.737-3.084 1.028-3.084.513-6.6802-3.597-14.9038-8.737-2.5696-4.625-6.6812 1.028v-3.084l1.542-4.111 5.1392-13.362 3.0834-2.569 7.7088-6.167 3.0833-1.542 4.6254-6.167 1.542-2.57-4.1116-9.25-6.6805-11.821-1.542-2.055-1.542-1.028-4.6248-1.028-5.1392-2.056-1.0282-1.541-1.0276-3.598-2.0558-7.709 9.2508-2.055 7.7088 8.222 5.653-1.027 5.1391-9.251 20.5567-6.167 11.82-4.111z"/><path d="m78.9762 519.544 14.9038 84.282-63.2123 11.307-1.5414.513-15.9313 2.57-3.59782-20.557-3.08339-17.473-.51379-4.111 4.6254-3.084 7.7088-6.167 10.2783-9.764 9.2502-9.251 2.0558-3.083 2.0558-4.626 5.1392-6.68 11.3059-8.737 11.3066-8.223 6.6806-1.028z"/><path d="m146.815 507.724 1.028 3.083 17.473-4.111 15.418 81.713-33.405 6.167-31.863 6.167-5.14 1.028-16.4447 2.57-14.9038-84.283 14.9038 8.736 6.6807 3.598 3.084-.514 3.083-1.028 13.362-8.736 12.848-6.681z"/><path d="m196.15 500.529 22.612-4.111 1.541 6.681 13.362-2.056 11.307 74.518-52.42 9.765-11.82 2.569-15.418-81.713z"/><path d="m256.792 479.972 13.876-2.57 25.182-5.139v1.542l.514 3.597 1.541 7.195 1.028.514 4.626 1.028 3.083 14.904 4.111 17.987h1.028l13.876-4.112 8.737 43.17-74.004 14.903-15.932 3.084-11.306-74.518-1.028-8.737 6.681-1.028-1.028-7.709z"/><path d="m374.992 504.126 6.681 44.197-42.141 8.737-4.625 1.028-8.737-43.169v-1.542l13.876-4.111 12.334-2.57 1.542 6.167 6.167 1.542 5.139-.514 2.055-3.084-1.027-5.139z"/><path d="m417.137 473.805 1.028 1.028 9.764 20.557.514 1.028 1.028 6.167.514 5.139-3.083 1.028 7.194 28.779-4.625 1.028-47.281 9.764-6.68-44.197 6.68-1.541 2.056 3.083 6.681-1.542-1.542-8.736h10.792l3.084-1.028 1.028 2.056 5.653-1.028-2.056-2.57.514-4.111-1.541-4.625-4.626.513-2.056-3.597 3.598-3.084z"/><path d="m447.456 466.61 7.709 23.64 1.541 2.056 1.542-1.028 20.557-5.653 2.056 9.251 11.819-2.57 12.848-2.569 13.362 28.779-14.389 3.083-71.435 15.418-7.195-28.78 3.083-1.027-.513-5.139-1.028-6.168-.514-1.027-9.764-20.043-1.029-1.028z"/><path d="m574.909 421.899 16.959 12.848 19.529 5.654 2.055.513-7.195 25.696 10.793 2.57-31.863 32.377-35.974 34.946-13.362.514-4.626-10.792-2.055-2.056-7.195-5.139-2.055-.514-13.362-28.779-3.598-18.501 9.251-2.57 3.083-1.028 11.306-8.223 4.625-5.653 10.279-9.25 20.043-17.987z"/><path d="m548.185 536.503 35.974-34.946 16.445 5.139 26.21 8.223-2.57 7.195-4.625 10.278-2.055 6.167 11.306 5.139 12.848 5.653 5.139 7.709-4.111 3.598-2.056 4.625-3.083 8.222-31.35 8.737-1.028.514v.514l1.542 6.167 1.542 3.597-5.139.514-9.251.514-2.055-1.028-12.335-6.681-3.597-3.597-5.139-5.139-3.084-7.195z"/><path d="m681.804 405.968h.514l.514.514 1.028 2.57 4.111 22.098.514 4.112-.514 2.055-4.625 11.306-3.597 10.793-.514 2.569-11.307-4.625-5.139 1.542-1.028 12.334-17.987 2.569-8.736 1.028-18.502-4.625-10.792-2.57 7.195-25.696-2.056-.513 19.529-5.654-1.028-7.194z"/><path d="m722.917 654.191-3.083 15.417-1.028 14.904.513 1.541v1.542h.515l1.027-1.028v-1.028-.513l1.542-2.056 2.056-1.028.514-4.625v-2.056l2.57-5.653 1.541-3.083-2.57-1.028-2.055-4.112 1.028-7.708z"/><path d="m679.235 469.18 2.056 27.237 6.681 3.084 1.028 16.445 2.569 5.139 2.57 24.669-11.307 4.111v-5.139l-11.306 2.055 1.028 4.112-2.056.514-5.139 1.541-8.736-4.625-10.279 8.737-5.139-7.709-12.848-5.653-11.306-5.139 2.055-5.653 4.626-10.279 2.569-7.195-26.209-8.222-16.446-5.14 31.863-32.376 18.501 4.625 8.737-1.028 17.987-2.57 1.028-12.334 5.139-1.541 11.306 4.625z"/><path d="m723.43 649.051 16.959 2.056.514 2.056h2.056l-.515 2.055-1.027 2.056h-1.028l-1.028-1.542-1.028-1.028-1.542 1.028 1.029 4.111h1.027l1.542 1.028 1.542 1.542h-.514l-2.056-.514-2.056.514-.514 1.028-1.541-1.028-.514 1.542h-2.056l-.514 1.542v2.055l-1.028.514-1.027-.514v-1.541l.514-.514-1.029-.514-1.027.514-.514 1.027-2.569-1.027-2.056-4.112 1.027-7.708h-2.569z"/><path d="m720.349 686.567 1.541-4.111 2.056-1.028.514-4.111 2.056-.514 3.083 2.056 2.57 3.083 2.055 1.542 2.57-2.57 2.569 4.112v1.541l1.029 2.056 1.027-.514 2.57 2.57v3.597l-2.57 4.111-6.681 2.056-7.709 3.084-3.597.514v-1.542l2.056-.514v-1.542l-2.57-1.028h-1.542l-1.541-4.111 2.055-5.139-1.541-2.57z"/><path d="m700.817 588.409 4.111 8.223 7.195 9.764 6.167 7.195.514 2.056 4.111 21.07-42.141-12.334-2.57-1.027z"/><path d="m768.656 637.231-3.084 1.542-2.055.514-7.195 4.112-2.57 4.625 3.083 8.736-4.625-5.653-4.111-.514-2.056 1.542-.514 2.57 1.542 1.541h3.083l-1.027 2.57-5.653-1.542v4.112l3.083 4.111 7.195 3.084.514 3.597-2.57 1.542 2.57 10.792-1.542 1.542v2.055l-2.055 2.056.513 1.542 1.542.514h1.028l1.541 2.055h-1.027l-.514 1.542 5.139-.514 9.25-2.055 5.654-2.056v-2.056l-4.112 1.028-1.542 1.542h-2.055l-6.167 2.569-5.139.514 5.139-2.569 1.542-.514 7.195-3.598 4.111-1.027 2.569 1.027 5.14-4.111 2.055-1.542 1.542-1.028-1.028-1.027-2.056-1.542 4.626-1.542 2.569-1.542-11.819-30.321-2.056-.514-2.056-1.541-.514-1.542-2.569 1.028.513-2.056zm22.098 39.572-1.541 2.57-3.598 2.055-3.084 3.084-3.597 3.084-2.056 1.027-1.028 2.056.515.514 5.139-3.597 4.111-1.542 7.708-4.626z"/><path d="m694.652 545.754-2.055 17.987 4.625 6.167 5.653 5.139-1.542 12.848-22.612 34.946-17.473-5.653-43.17-15.417-9.25-9.251-1.542-3.597-1.542-6.167v-.514l1.028-.514 31.349-8.737 3.084-8.223 2.055-4.625 4.111-3.597 10.279-8.737 8.737 4.625 5.139-1.541 2.056-.514-1.028-4.112 11.306-2.055v5.139z"/><path d="m728.569 666.525 2.055 1.028v1.542h1.028l.514-1.028h1.028l3.083 2.055.514-.513-1.541-2.57 1.027-1.542 1.028-.514 1.028-1.542 1.542.514 1.542-.514 1.027 1.028 1.028-1.542 3.598 2.57.513-1.028 7.195 3.084.514 3.597-2.569 1.542 2.569 10.792-1.541 1.542v2.056l-2.056 2.055.514 1.542 1.542.514h1.027l1.542 2.056-2.055 1.028h-1.542l-7.195 4.625-6.681 4.625-4.625 3.084v-2.056l3.597-2.57 3.598-3.083 2.569-4.111v-3.598l-2.569-2.57-1.028.514-1.028-2.055v-1.542l-2.57-4.111-2.569 2.569-2.056-1.542-2.57-3.083-3.083-2.056-2.056.514v-2.056l2.57-5.653z"/><path d="m909.982 560.143 2.056 1.028 1.028-2.569 2.569-1.542-3.597.514zm-2.055 4.112-4.626.513-5.139 4.626-3.083.514-3.084 8.736-5.139 2.056-2.57 5.653-4.625 3.598-5.653 9.25-12.334 5.653-8.737 3.598-13.876 3.597-16.959 4.111-9.25 1.028-4.626 2.57 2.57 5.653-7.709 5.653-9.251-1.542-5.653 1.028-4.625-2.056-2.57-1.027.515 5.653 5.653-1.028.514 1.542-8.737 1.541-1.028-3.083-6.167-.514-1.028 2.569 7.195 9.251 11.82 30.321 6.167-2.569 9.251-6.167 3.597-5.653 1.542 1.027h8.223l.513-4.625 7.195-1.028 5.14-4.625 4.111-2.57h5.139l1.542-3.083 4.111-.514 1.028 2.056 3.598-1.542 2.055-2.57 2.57-1.541 1.542-3.598 4.625-.514 2.57-5.139 4.11.514 3.598-2.056 1.542 1.028-9.764 6.681.514.514 11.305-7.195 12.335-8.223 2.569-1.541 1.542-1.542-.514-.514 1.028-2.056h-1.028l-1.542 2.056-1.028-.514.515-3.597-1.029-1.028 3.084-1.028h3.598l.513 2.056-3.083 3.597.514.514 7.709-5.653 28.265-24.668 12.334-10.279 12.334-10.278 1.542-3.597-6.167-.514-5.653 4.111-.514 4.625-2.055-1.027-3.598 6.166-2.57 1.028-2.569 2.57-1.542 2.57h-1.542l-4.111-3.598-.514-2.57-3.597-1.027-2.57 4.111-5.653-1.028v5.653l-1.542.514-1.028 2.056-3.084.514-3.083-4.625-2.056 1.027 2.57 4.626-5.653 2.055-2.57 7.709-3.597 3.084-1.028 5.653-3.597 3.083-8.737-.514-5.139 1.028.514-2.57 3.083-.513 2.57-4.626.514-3.597 5.653-3.598.514-3.083 4.111 2.056-2.056-5.14 1.028-2.055 5.653-1.028v-2.056h-4.111l2.569-5.139 2.57-4.111 1.542-3.598 2.57-3.083 3.597 2.569 3.598-3.597zm13.875 1.541v4.112l2.57 1.028h2.056l2.055 4.625 1.028-1.028-.514-6.681zm-22.098 8.223-4.625 7.195 3.597 3.083h2.569l2.57-2.569 4.625 2.056-.513-4.112-2.056-3.597-4.626-1.028zm-37.002 64.24-9.251 6.681-3.597 1.542-3.084 2.569-1.542.514-1.541 1.542-3.084 2.056-9.25 8.222-9.765 5.653-3.083 2.056-3.084 1.028-1.542 2.056-4.625 2.055-2.57.514-1.541-.514-2.056 1.028.514 2.056 5.653-1.542 6.167-4.111 3.597-2.056 2.57-2.056 9.765-5.139 8.222-7.195 7.709-5.653 3.598-2.57 11.82-8.222zm-52.934 30.321-5.653 3.598-7.195 2.055-6.681 3.084 2.056 5.653 9.25-7.195 2.056-1.542 6.167-1.028 3.084-2.055-.514-1.542-1.028-.514z"/><path d="m700.819 588.409 48.823-19.015 2.055 11.306 11.306 10.278-15.417 15.932-8.737 8.736 12.335 15.932-10.793 19.529-16.959-2.056v-12.848l-4.112-21.07-.514-2.056-6.166-7.195-7.195-9.765z"/><path d="m745.014 543.698 4.111 25.182-48.822 19.015v-.514l1.542-12.848-5.654-5.139 3.598-8.737 39.572-15.417z"/><path d="m730.625 461.985 10.792 60.128 3.598 22.099-5.653 1.541-39.058 15.418-3.597 8.737-4.626-6.167 2.056-17.988-2.569-24.668-2.57-5.139-1.028-16.445-6.681-3.084-2.056-27.237 1.542-.514h1.542l18.501 4.625 5.653 1.542 22.098-1.028.514-11.82z"/><path d="m681.801 405.968 46.766-19.015-1.542 69.893 2.57 5.139-.514 11.82-22.098 1.028-5.654-1.542-18.5-4.625h-1.542l-1.542.514.514-8.223.514-2.056 3.598-11.306 4.625-11.306.514-2.056-.514-4.111-4.112-22.099-1.027-2.569-.515-.514z"/><path d="m680.774 327.852 40.6-10.278 3.083 13.362-2.569 7.194 4.625 10.793 3.084-1.028-1.028 39.058-46.766 19.015.513-52.42z"/><path d="m677.178 187.038 4.112 8.223-2.056 11.82-.514 6.167 1.028 9.251.514.514 3.598 1.541v-10.792l7.194-1.028 3.084 6.167 5.653 2.056 3.083 7.709 6.682 31.349 11.819 57.559-40.599 10.278 1.542-7.195.513-5.653-.513-10.792-.514-3.084-9.251-29.807-1.028-1.542-11.306-28.779-.514-2.056v-1.028l1.028-5.653 2.055-5.653 6.168-15.418.514-9.764v-12.848z"/></g></svg>