<svg fill="none" height="720" viewBox="0 0 962 720" width="962" xmlns="http://www.w3.org/2000/svg"><g fill="#3c3b6e" stroke="#fbfbfc"><path d="m961 194.503-3.459 42.658-2.306 28.439-46.117-3.843 1.153-9.992-10.76-1.537 1.537-9.608-16.91-1.537.769-9.992-4.996-.384 1.537-30.361 1.153-10.376z"/><path d="m883.368 239.083 16.909 1.537-1.537 9.608 10.761 1.537-.769 9.992 46.117 3.843-3.843 46.117-15.373-5.38-15.756-9.223-33.435-8.455-4.612 1.921-1.921 2.691-2.69 1.921-1.537.769h-9.224l-5.764-1.153-4.612-3.075-6.918-1.153-5.764-.384h-14.604-3.843l-4.228 2.306-12.297 3.843 2.69-24.211 3.074.384 4.228-39.968z"/><path d="m359.945 453.527 22.674 3.458-1.537 5.765-2.69 16.525-.769 6.149-1.153 8.455-1.921 10.376-3.843 23.827-5.765-.384v3.074l-.769 4.612-4.996-.769-2.69 18.447-9.992-1.537-3.843 20.368-1.537 8.839-1.537 11.529-6.149 37.278-3.843 24.212-6.918-6.149-.768-2.69-3.843-10.761-6.918-13.451-3.843-3.843 3.074-18.831 8.84-51.113 2.305-3.459 4.996-30.36-14.988-2.306-5.764-7.686-3.075-5.764-3.843-4.228-3.074-2.306-3.075-1.921 12.682-2.306 17.679-11.145 4.996-4.227 1.153-7.686 3.074-4.612 5.38-6.918 3.459-1.153 11.914 1.153z"/><path d="m259.636 490.036h.385 1.537l2.69-1.922 2.306-4.611.384-2.306.769-.769 1.922-.768 5.38-.385 6.917 1.922 9.224 6.533.384.769v1.153l3.074 1.921 3.075 2.306 3.843 4.227 3.074 5.765 5.765 7.686 14.988 2.69-4.996 30.36-2.306 3.459-8.839 51.113-3.074 18.831-9.608 3.459-24.98-4.227 1.537-8.455-9.992-1.537-13.451-2.691.385-4.996-7.686-1.537-.385-10.376 1.922-10.376-11.914-1.922.385-9.992-8.839-1.921 5.38-30.361.384-5.38-2.306-6.149-2.305-.769-2.306.385-1.538.768-1.537-.384-2.306-1.921-4.227-5.381v-.768-6.149l3.459-10.377 8.07-3.074 3.843-1.537 1.922-1.538 1.153-.768 5.764-3.075z"/><path d="m308.447 400.108 12.298.384 3.074-18.062 3.075-3.843.384-.385 1.153-.384 6.917 3.459 3.844 13.066 6.917 5.765-3.074 10.76 6.533 5.765 1.537 9.223 7.686-1.537 7.302 8.071-10.376 11.529 3.459 3.843.768 5.38-8.07-1.153-11.914-1.153-3.459 1.153-5.38 6.918-3.074 4.611-1.153 7.687-4.996 4.611-17.678 11.145 4.227-25.364-9.992-1.537z"/><path d="m263.096 410.1 3.075 1.153 3.074-.769 5.38-2.69v-.384l-.384-1.922 13.067-1.537 1.153-7.302 19.599 3.459-9.992 60.336 9.992 1.922-4.227 25.364-12.682 2.306v-1.153l-.385-.769-9.223-6.533-6.918-1.921-5.38.384-1.921.768-.769.769-.384 2.306-2.306 4.612-2.69 1.921h-1.537-.385l-13.835-11.529-2.306-5.38.769-24.596v-2.306l-4.227-10.761-3.075-1.152 3.459-9.992v-3.075l.384-1.921 3.075-2.691 12.682-3.843z"/><path d="m236.583 434.311 3.074 1.153 4.228 10.761v2.306l-.769 24.595 2.306 5.381 14.219 11.529-22.29-3.075-5.764 3.075-1.153.768-1.922 1.538-3.843 1.921-8.07 3.075-3.459-11.53-2.69-5.38-3.075-2.69-13.066-6.918-5.38-6.148 5.38-.385 3.459-1.921 4.611-3.075.769-.768v-6.534l4.227.385 4.228-6.149 6.533.768 1.537-9.992h9.992z"/><path d="m240.04 424.704-3.459 9.992-7.302 1.921h-9.992l-1.537 9.992-6.533-.769-4.228 6.149-4.227-.384v6.533l-.769.769-4.611 3.074-3.459 1.922-5.38.384v-1.537l-.769-1.153-.384-.384-5.765-1.538-3.074.769-11.53 5.38-1.537 1.538-3.459 3.843-2.69-6.918-.384-6.149-1.922-8.839-.384-.768h-.384-.769l6.918-3.459 6.917-1.922 6.918-3.458 2.306-10.377 1.921-9.992 19.984 3.459.769-4.996z"/><path d="m155.49 448.531h.769.384l.384.768 1.922 8.839.384 6.149 2.69 7.302 3.459-3.843 1.537-1.537 11.53-5.381 3.074-.768 5.765 1.537.384.384.769 1.153v1.538l5.38 6.148 13.066 6.918 3.075 2.69 2.69 5.765 3.459 11.529-3.459 10.376v6.149.769l4.227 5.38 2.306 1.922h1.537l1.153-.769 2.306-.384 2.306.768 2.306 6.149-.384 5.381-5.381 30.36 8.839 1.921-.384 9.992 11.913 1.922-1.921 10.376.384 10.376 7.686 1.538-.384 4.996 13.451 2.69 9.992 1.537-1.537 8.455 24.98 4.227-14.22 16.525-10.76-.384-16.526-4.612-23.058-2.305-12.682 4.611-29.592-7.302-5.764 1.153-3.459 3.459-1.153 1.922-1.153 4.611v.385l-.769 1.153-1.537.768-2.306-.768-6.917-7.687-2.306-3.458-.769-5.765v-14.604l.385-.384.384-.769v-.768l-2.306-10.376-1.921-5.765-1.538-2.306-3.459-3.843-3.074-2.306-2.69.769-13.835-19.216-13.067-48.038v-9.223l.385-6.918 1.153-1.921v-3.459l-.769-9.608-.384-1.537-8.071-11.145-1.537-1.922h1.537l2.69-.384 26.133-11.529 4.996-2.69 3.075-1.922z"/><path d="m145.883 359.755-4.612 14.989 1.153 19.215.385 11.529-4.228 10.761.384 15.756 6.149 11.145 4.996 4.228 4.996.768-2.69 4.996-3.074 1.922-4.996 2.69-26.133 11.529-2.69.384h-1.537l-7.302 4.228-9.9923 8.839-16.1409 7.302-3.4588-.385-.7686-3.074-6.149-9.608-1.1529-.384-3.4587-.769-3.4587-.384-.3844-.384v-.385l1.5372-8.07 3.0744-15.757 23.0585-57.646 7.3019-16.141 4.6113-11.145 3.075-8.07.384-2.69-.384-1.537-.384-.385z"/><path d="m192 347.842 7.302 7.302 2.69 6.917 2.306 2.691 4.611-1.153 1.153-.769.769.384-5.381 29.592-4.611 24.596-.769 4.996-19.984-3.459-1.921 9.992-2.306 10.376-6.918 3.459-6.917 1.921-6.918 3.844-4.996-.769-4.996-4.227-6.149-11.145-.384-15.757 4.227-10.761-.384-11.529-1.153-19.215 4.612-14.988 2.69.768 9.992 1.922 1.537-5.765 9.224 1.538 2.305-3.843h4.228l1.153-6.149 5.38.768.384-3.074z"/><path d="m240.807 222.942 1.153 22.29-.768 8.455.384 1.153 2.69 6.149 2.69 4.227 3.075 1.537h.768l9.224-1.153 9.223-1.921h.384l9.224 7.302.768 2.305-.384.769v2.69.385l8.839 6.533 5.38 1.921 8.455 1.153 4.996-.384-6.149 37.662 7.686 7.302 3.075 2.69 1.921.384.385-.384 6.533 1.153-4.228 24.98 10.761 1.921 2.306 4.996-4.612 4.612 9.992 6.149.769 3.843-6.918-3.459-1.153.385-.384.384-3.074 3.843-3.075 18.062-12.298-.384-19.599-3.459-1.153 7.302-13.067 1.922.385 1.921v.385l-5.381 2.69-3.074.768-3.459-1.921 1.153-3.459 3.459-16.909-1.153-7.302-6.533-.385.768-5.764-9.992-1.537 2.69-15.757-10.76-1.922h-.769l-9.223-1.537 6.917-38.43.385-1.538-19.984-3.458-.769-.385 6.533-35.74h-1.537l-2.306-9.224-.768-4.611.768-14.604v-.769l9.608-1.921 1.537-14.604 4.227-4.612z"/><path d="m195.075 256.761 25.364 4.996.769 4.612 2.306 9.223h1.537l-6.533 35.741.768.384 19.984 3.459-.384 1.537-6.918 38.431 9.224 1.537h.768l10.761 1.922-2.69 15.756 9.992 1.537-.769 5.765 6.533.384 1.153 7.302-3.458 16.91-.385 3.843-7.302 3.459-12.682 3.843-3.074 2.305v1.922 3.074l-38.815-6.917 4.611-24.596 5.381-29.591-.769-.385-1.153.385-4.612 1.153-2.305-2.691-2.69-6.917-7.302-7.302 7.302-40.352-13.067-2.306z"/><path d="m182.007 254.071-24.98-4.612 2.691 39.584.384.769-1.922 9.992-9.992 3.458-20.368-3.843 1.153-4.996 2.69-20.368-6.917-1.153-1.922-.768-.769-.769-1.921-3.075 1.921-5.764 1.922-3.075h.384l.769.385 1.921-2.69.385-11.914-.385-.769-1.537-.768-4.996-.769-13.451-2.69 1.538-16.909 1.153-4.997 9.992 1.922 1.921-9.992v-3.459l.769-6.917 35.74 6.917.385-3.074v-.769l-.385-.384h-.384v-2.69l1.537-1.537 1.922-1.153 11.145 2.305 13.45 21.137v.769l1.538 20.368v3.075l-.385 1.921z"/><path d="m182.009 254.071 13.067 2.306-8.839 48.807 13.066 2.306-7.302 40.352-9.223-1.537-.384 3.074-5.381-.768-1.153 6.149h-4.227l-2.306 3.843-9.223-1.538-1.537 5.765-9.992-1.921-2.69-.769-41.89-6.149-.384-.384-1.537-1.153-4.2279-.385-1.9215.385-1.1529.384-1.9215.384-8.8392-1.921-4.6116-11.145.7686-3.075 9.992 1.153 1.1528-11.529 8.4548-16.909 1.1534-6.534-1.1534-.384-1.1528-.384-1.153-.384-1.1529-.385-1.9215-6.149-5.3803-5.38.7685-7.686-7.6861-4.228.7687-3.074 8.839 1.153 4.6117 1.921 5.7651 3.075 9.607 6.917 2.69 2.691 1.538 4.227 4.227 4.227 1.153.769 1.537.769 5.765-1.153 20.368 3.843 9.992-3.459 1.921-9.992v-.769l-2.69-39.583z"/><path d="m14.067 229.091 3.0745 4.996 1.9215 1.922 3.8431 1.153 3.0744 1.152 10.7606 1.922 2.6901-.769h.7687l8.839 1.538 2.3059 1.153 15.7566 11.144 3.4587 3.075.3844 2.69-1.5372 6.918 9.2233 6.917 3.4587.769-.7685 3.074 7.6861 4.228-.7686 7.686 5.3803 5.38 1.9215 6.149 1.153.384 1.1529.384 1.1528.385 1.1532.384-1.1532 6.533-8.4546 16.91-1.153 11.529-9.9919-.769-.7687 3.075h-3.4587-.3844l-1.1528-.384-11.9136-15.757-.3843-1.153-1.5372-11.913-1.9216-3.844-3.843-6.917-6.9176-15.757-7.3018-16.141-1.5372-1.152-6.149-2.306-4.2274-2.306-1.5372-1.153-1.5372-1.537-12.6821-17.678v-3.075z"/><path d="m5.99606 145.312 8.45474 5.38 4.6117-1.152 9.2233-3.844 6.5333 13.067 4.6116 24.211 4.2274 6.149.7687.769 14.2193 5.764 8.0705-1.921 3.843-4.612.7687-6.149 11.1449 2.306 1.5372 1.922-3.0744 14.988 9.992 1.921 6.9175 1.153 13.4505 2.69-1.921 9.992-1.153 4.996-1.538 16.91 13.451 2.69 4.996.768 1.537.769.385.769-.385 11.913-1.921 2.69-.769-.384h-.384l-1.921 3.075-1.922 5.764 1.922 3.075.768.768 1.922.769 6.917 1.153-2.69 20.368-1.153 4.996-5.764 1.153-1.538-.769-1.153-.768-4.227-4.228-1.537-4.227-2.69-2.69-9.608-6.918-5.7647-3.074-4.6117-1.922-8.8391-1.153-3.4587-.768-9.2234-7.302 1.5372-6.918-.3843-2.69-3.4587-3.074-15.7567-11.145-2.3057-1.153-8.8392-1.537h-.7685l-2.6902.768-10.7605-1.921-3.0746-1.153-3.843-1.153-1.9216-1.922-2.6901-4.996 2.3058-4.996 2.6902-6.917v-7.302-.384-.385l-15.75663-32.666-2.30587-4.227z"/><path d="m13.2979 112.262 12.2979-57.262 61.4891 13.0665 34.2031 6.9175 6.149 1.1529v16.1409l3.459 13.8352v.384l-4.227 10.376-19.216-3.843-.384 6.534 1.537 3.843-7.686 39.968-11.5293-2.306-1.9215-.385-1.9216 9.992-1.9215 14.22-11.1449-2.306-.7685 6.149-3.8431 4.612-8.0705 1.921-14.6037-5.764-.7686-.769-4.2274-6.149-4.6117-24.211-6.5332-13.067-9.2233 3.843-4.6117 1.153-8.45485-5.764z"/><path d="m178.55 86.5131 1.538 20.3679 3.458 2.306 16.141-.384.769 12.298-3.075 17.294 18.447 8.839-.384 1.921-.384 1.153-1.922 6.918 6.918 6.533 4.611 1.921 1.153 4.612-7.302 1.922 1.922 4.227 6.917 12.298-.768 4.996.384.768 7.302 4.996.384.385.385.384 6.917 2.306h.769l6.149 14.219 1.153 8.839-8.455-1.921-3.459 2.306-4.227 4.611-1.538 14.604-9.607 1.921v.769l-.769 14.604-25.364-4.996-13.067-2.306 4.612-8.839.384-1.922v-3.074l-1.537-20.368v-.769l-13.451-21.137-11.145-2.306-1.921 1.153-1.537 1.537v2.691h.384l.384.384v.768l-.384 3.075-35.74-6.918-.769 6.534v3.458l-1.922 9.992-9.992-1.921 1.922-9.992-13.4509-2.69-6.9175-1.153-9.992-1.922 3.0744-14.988-1.5372-1.921 1.9216-14.22 1.9215-9.992 1.9215.385 11.5296 2.306 7.686-39.968-1.537-3.843.384-6.534 19.215 3.843 4.228-10.376-3.459-13.835v-16.1409z"/><path d="m314.21 173.366-2.305-.768-2.691-.769-25.364-4.612-3.459 19.6-.384.384-60.336-10.76-1.922-4.228 7.302-1.921-1.153-4.612-4.612-1.921-6.917-6.534 1.921-6.917.385-1.153.384-1.922-18.447-9.223 3.075-17.294-.769-12.298-16.141.385-3.458-2.306-1.538-20.3683 7.686 1.5372 21.522 4.2274 44.579 8.0704 8.455 1.5373 63.411 11.145z"/><path d="m395.681 125.328 41.121 6.534-1.921 9.607-6.534 39.968-3.074 16.525-3.459 23.443-5.764-.768-1.538 9.992-46.116-7.302 1.537-9.992 10.76 1.537 6.534-39.968 6.917-39.968z"/><path d="m314.211 173.367 9.608-60.337 26.517 4.612 7.302 1.153 19.599 3.074 18.447 3.075-1.537 9.607-6.918 39.968-6.533 39.968-10.761-1.537-20.368-3.459 2.69-14.988-9.992-1.153.385-3.843-7.302-3.074-7.686-1.537 1.153-4.228-13.835-6.533z"/><path d="m219.672 176.441 60.336 10.76.384-.384 3.459-19.599 25.364 4.611 3.075.769 2.306.768.768 1.153 13.835 6.534-1.153 4.227 7.687 1.537 7.301 3.075-.384 3.843 9.992 1.153-2.69 14.988 20.368 3.458-1.537 9.992-2.69 16.91-45.733-7.302.769-4.612-3.075-.768.769-4.996-11.913-3.075.768-6.149-66.101-11.913h-.768l-6.918-2.306-.768-.384-.385-.385-7.302-4.996-.384-.768.769-4.996z"/><path d="m241.961 201.805 66.101 11.914-.769 6.149 11.914 3.074-.769 4.996 3.075.769-.769 4.612 45.733 7.301-5.381 33.435-20.368-3.459-1.537 9.992-20.369-3.458-3.458 11.913-8.071-2.69-4.996.384-8.454-1.153-5.381-1.921-8.839-6.533v-.385-2.69l.384-.768-.768-2.306-9.224-7.302h-.384l-9.223 1.921-9.224 1.153h-.768l-3.075-1.537-2.69-4.227-2.69-6.149-.384-1.153.768-8.455-1.153-22.29 8.455 1.922-1.153-8.839z"/><path d="m306.141 286.353 8.071 2.69 3.458-11.914 20.369 3.459 1.537-9.992 20.368 3.459 34.204 5.38-2.691 3.459-1.921 1.537-2.69 4.228-.385 1.537.385.768 8.454 8.455 11.914 5.381-1.153 6.533 9.608 4.996-1.153 6.533-10.376-1.537-2.691 5.764-1.153 6.534-1.537 18.062 9.992 1.537-2.306 19.984-1.537 9.992-1.537 1.537-8.839-3.074 1.153-5.38-10.377-13.067-.768-.768-13.067-3.459 1.922-5.38-7.686-2.306-1.537 6.533-28.439-4.996-1.537 9.992-9.608-1.537-10.761-1.922 4.228-24.98-6.534-1.153-.384.385-1.921-.385-3.075-2.69-7.686-7.302z"/><path d="m325.355 361.677 9.607 1.537 1.538-9.992 28.438 4.996 1.537-6.533 7.687 2.306-1.922 5.38 13.067 3.459.768.769 10.377 13.066-1.153 5.38 8.839 3.075v2.69l.384 1.153.769 1.537.768 1.153 11.914 12.682h7.302l7.686-1.537-3.459 22.29-3.459 18.062-2.69 16.91-.769 4.227-40.736-7.302-22.674-3.458-.769-5.381-3.459-3.843 10.377-11.913-7.302-8.071-7.686 1.922-1.538-9.224-6.533-5.764 3.075-10.761-6.918-5.764-3.843-13.067-.769-3.843-9.992-6.149 3.075-4.996z"/><path d="m382.617 456.985 40.736 7.302-1.921 5.765-6.149 40.736 5.764.769-3.074 21.521-4.227 26.517-1.538 3.075-3.074 20.752 13.451 2.306 21.905 3.843-3.074 19.216-18.831-3.075-6.918-1.153-9.223-.384-27.67-3.843h-.385l-12.298-1.922-3.843-1.153-10.376-2.305-13.835-2.306 1.537-11.53 1.538-8.839 3.843-20.368 9.992 1.537 2.69-18.446 4.996.384.768-4.612v-3.074l5.765.384 3.843-23.827 1.922-10.376 1.152-8.455.769-6.149 2.69-16.525z"/><path d="m436.806 131.861 97.998 14.604-3.074 14.988-1.922 10.376-3.459 24.212-5.764 31.513-3.843 18.062-4.996-.384-10.377-1.537 1.538-10.376-9.224-1.153 1.153-10.377-61.489-9.223-1.537 9.992-10.376-1.537 3.843-23.443 3.074-16.525 6.149-40.352z"/><path d="m421.819 221.789 10.376 1.538 1.537-9.992 61.489 9.223-1.153 10.376 9.224 1.153-1.537 10.377 10.376 1.537 4.996.384-6.918 46.117-3.074-1.537-8.071.384-9.223 1.537-4.612 3.843v2.691l-2.69 11.529-.384.768-2.306 1.538-25.364 9.223-4.228-.769-34.203-4.996-9.608-4.996 1.153-6.533-11.913-5.38-8.455-8.455-.384-.769.384-1.537 2.69-4.227 1.537-1.537 2.691-3.459-34.204-5.38 5.381-33.435 2.69-16.91 46.117 7.302 1.537-9.992z"/><path d="m416.435 316.329 34.204 5.38-1.153 6.533 6.533 3.459-.769 4.228-.768 5.38 9.992 3.074v4.228l9.607 1.921-.384 3.075 9.224 1.153-4.612 33.05-1.537 3.843-2.306 1.153-.769 4.996-4.612.384 6.918 8.071-.769 5.764-5.764-.768-3.459-2.69-4.996-3.843-.769-.769-1.537-1.153-6.917-.769h-4.228l-14.219 1.922-7.686 1.537h-7.302l-11.914-12.682-.768-1.153-.769-1.537-.384-1.153v-2.69l1.537-1.537 1.537-9.992 2.306-19.984-9.992-1.538 1.537-18.062 1.153-6.918 2.69-5.764 10.377 1.537z"/><path d="m475.62 411.253 28.823 4.227-2.306 15.757-6.918 39.583-20.368-3.074-51.113-7.686 2.69-16.91 3.459-18.062 3.459-22.29 14.219-1.922h4.228l6.917.769 1.537 1.153.769.769 4.996 4.227 3.459 2.306z"/><path d="m424.122 460.06 51.113 7.686-1.537 10.376 4.612.385-2.306 10.76 15.372 2.306-1.537 6.533-1.153 6.918-4.996-.769-1.153 6.918-4.996-.769-2.69 9.992-2.69 20.368-9.992-1.537-1.153 4.996-9.608-1.537-1.153 5.38-9.608-1.921-3.074 20.368-10.761-1.537-3.074 20.752-13.451-2.305 3.075-20.753 1.153-3.075 4.227-26.517 3.074-21.521-5.764-.769 6.149-40.736 1.921-5.765z"/><path d="m531.343 548.45 3.843-2.305 1.537-.385-.384 3.075-.769 1.537-.768 1.153h-.385l2.306 8.07 4.227 7.686 4.228.385-3.459 3.074-2.69 9.608-1.922 15.372 47.27 5.765-.768 1.537-12.683 23.058-31.128-4.227-25.749-3.459-11.145-1.537-1.537-.384-15.372-2.69-43.811-6.149 2.69-19.216 8.839 1.153 3.459-10.76 4.995.384 2.691-7.686 6.533-6.149 3.843-3.074 11.145-3.844 13.451 1.922 6.149-6.149.384-3.843 2.69-3.074 10.761-2.306.768.384 2.306 1.537 1.922.385 1.537.384z"/><path d="m533.264 486.193-1.537 9.607-1.153 10.761-3.074 32.666 1.153 3.459 2.69 5.38-4.228.384-1.537-.384-1.921-.384-2.306-1.922-.769-.384-10.76 2.306-2.691 3.074-.384 3.843-6.149 6.149-13.451-1.921-10.76 3.458-3.843 3.075-6.533 6.149-2.691 7.686-4.996-.384-3.458 10.76-8.839-1.537-21.906-3.843 3.075-20.753 10.76 1.538 3.075-20.369 9.607 1.922 1.153-5.38 9.608 1.537 1.153-4.996 9.992 1.537 2.69-20.368 2.69-9.992 4.996.768 1.153-6.917 4.996.768 1.153-6.917 1.537-6.533 1.537-10.377z"/><path d="m535.955 413.174-1.921 14.988.768 5.38 5.38 11.145 6.918 26.133-2.306 16.91-11.913-1.537-39.968-5.381-1.538 10.377-15.372-2.306 2.306-10.377-4.612-.384 1.538-10.376 20.368 3.074 6.917-39.583 2.306-15.757.769-6.918z"/><path d="m509.824 292.117 8.839 3.459 9.223-3.074 2.306-1.537 23.827-.385 1.153.385 3.074 1.921 3.075 6.918 3.459 2.305 1.921 1.538 2.306 3.458v.769l-.384.769 1.921 3.458 6.149 3.843 24.98 9.608h.769l1.153-.384 1.152-1.153-3.074 20.753-1.537 10.76-1.922.769-20.368-2.306-11.145 2.69-2.69 9.992-1.537 9.992 10.376 1.537-4.227 30.361-3.075 9.991-30.744-4.227-30.745-4.227-.769 6.533-28.823-4.227.769-6.149-6.918-8.071 4.612-.384.769-4.996 2.306-1.153 1.537-3.843 4.612-33.05-9.224-.769.385-3.075-9.608-1.921v-4.227l-9.992-3.075.768-5.38.769-4.228-6.533-3.458 1.153-6.534 4.227.769 25.364-9.223 2.306-1.538.385-.384 2.69-11.529v-2.69l4.611-3.843 9.224-1.922 8.07-.384z"/><path d="m516.739 246.001 3.843-18.063 5.765-31.513 3.459-24.211 1.921-10.377 3.075-14.988 8.07 1.153 25.365 3.459 4.611.769h.385l35.356 4.611 4.227.769 19.6 2.69-.384 3.075-1.153 6.533-4.228 19.6-4.996-.769-8.07 34.588-3.075-.769-.768 1.537-4.996 24.212-3.843 28.054-18.831 4.227-1.153-.384-17.294-2.306-1.153 6.149-2.306 15.757-3.074-6.918-3.075-1.921-1.153-.385-23.827.385-2.306 1.537-9.223 3.074-8.839-3.458z"/><path d="m561.318 299.803 2.306-15.756 1.153-6.149 17.294 2.306 1.153.384 18.831-4.227 3.843-28.055 4.996-24.211.769-1.537 3.074.768 8.071-34.972 4.995.769 4.228-19.6 1.153-6.533.384-3.459 82.626 10.377-3.459 9.992-4.227 35.74-.769 11.145-9.992 3.843-1.537 10.376 5.765.769-1.922 8.455-8.455-1.153-4.227 11.529-5.38 38.815-2.69 20.753-.769 3.843-1.537 3.074-.384.385-.385.384-3.843-.769-6.917-3.843-.769-.384-3.459-.384-4.996 2.305-3.459 4.996-3.074 3.075-9.223 9.608-3.459.384h-.384l.384-4.228-.384-7.686-.385-2.305-3.074-2.306-.769-.385-9.992-1.537-2.69.384h-3.459l-7.686-.768-1.921-.384-.385-.385-1.153 1.537-1.153.385h-.768l-24.98-9.608-6.149-3.843-1.922-3.459.385-.768v-.769l-2.306-3.459-1.922-1.537z"/><path d="m605.13 323.246.384.385 1.922.384 7.686.769h3.458l2.691-.385 9.992 1.537.768.385 3.075 2.306.384 2.305.384 7.687-.384 4.227-5.765 10.761-1.921 11.913-3.459 43.427v.768l.384.385 2.69 2.69.385.384 3.843 11.914-35.741-4.228-9.223-.768-20.368-2.69 3.074-9.992 4.227-30.361-10.376-1.537 1.537-9.992 2.691-9.992 11.145-2.69 20.368 2.306 1.921-.769 1.537-10.76z"/><path d="m535.957 413.174 30.744 4.228 20.368 2.69 9.224.768 35.74 4.228v30.744l-1.537 11.914-11.913-1.537-7.686 6.149-1.922 3.074-.769 5.38-23.827-3.074-7.301 2.306-1.538 12.298-30.744-4.228 2.306-16.909-6.918-26.133-5.38-11.145-.769-5.38z"/><path d="m632.033 455.832 3.074 2.306 1.537 1.922 6.918 14.603 7.686 21.522-1.922 10.376-1.921 5.38-13.451-1.537-1.537 6.918-9.608-1.153-.768 3.843-3.075-.769-.769 3.459-3.458 2.69-13.835-1.537-3.459 13.451-3.843 30.36-21.137 4.227-10.761-1.537-16.525-2.69-4.227-.769-4.228-7.686-2.305-8.07h.384l.768-1.153.769-1.538.384-3.074-1.537.384-3.843 2.306-2.69-5.38-1.153-3.459 3.075-32.666 1.152-10.376 1.538-9.608 11.913 1.537 30.745 4.228 1.537-12.298 7.302-2.306 23.827 3.074.768-5.38 1.922-3.074 7.686-6.149 11.914 1.537z"/><path d="m691.985 537.69-.384 4.611.384 17.679 5.381 1.537 8.07.769 1.537.768-4.227 37.662h-1.922l-1.153 6.533-2.69 13.451 20.369 2.69 10.376.769 9.992.769-1.153 21.905-51.882-6.149-15.756-1.921-4.612-.769-39.968-4.996-23.827-3.074-29.592-3.844 12.683-23.058.768-1.537-47.27-5.765 1.922-15.372 2.69-9.608 3.459-3.074 16.525 2.69 10.761 1.537 21.137-4.227 4.227-31.129 3.459-13.451 13.835 1.537 3.459-2.69.768-3.459 3.075.769.768-3.843 9.608 1.153 1.537-6.918 13.451 1.538 7.302.768-1.153 9.992 20.368 2.306 3.843 5.765 5.38 5.764z"/><path d="m635.106 458.138 45.733 5.381-1.537 9.992 12.298 1.537-3.843 29.592 7.686 1.537-3.459 31.129-9.223-1.153-5.381-5.765-3.843-5.764-20.368-2.306 1.153-9.992-7.302-.769 1.922-5.38 1.921-10.376-7.686-21.522-6.918-14.603z"/><path d="m628.189 413.174 34.588 4.228 1.537-.385h3.075l2.69.385 53.034 6.149 3.075 1.537 6.149 1.153 42.274 4.611-3.075 1.538-3.843 27.285-3.459 13.451-3.074 27.286v3.075l-1.922 6.533-2.306 3.074-4.611 40.737-3.459-.385-1.922 19.216-3.458 21.521-.769 11.145-3.074-.384-2.306 19.984-9.992-.769-10.377-.769-20.368-2.69 2.69-13.451 1.153-6.533h1.922l4.227-37.662-1.537-.768-8.071-.769-5.38-1.537v-17.679l.384-4.611 3.459-31.129-7.686-1.537 3.843-29.592-12.298-1.537 1.538-9.992-45.733-5.38-3.459-2.306v-30.745z"/><path d="m761.546 297.882 4.612.385-2.306 10.376 8.839 1.153-4.612 40.736-3.843-.384-.768 19.215 10.376 1.153-1.922 20.369 6.918.768-3.843 37.662v1.537l-42.274-4.611-6.149-1.153-3.074-1.537-53.035-6.149-2.69-.385h-3.074l-1.537.385-34.588-4.228-.384-.384-2.691-2.69-.384-.384v-.769l3.459-43.427 1.921-11.913 5.765-10.761h.384l3.459-.384 9.223-9.608 3.075-3.074 3.459-5.381 4.996-2.305 3.458.384.769.384 6.918 3.843 3.843.769.384-.384.384-.385 1.538-3.074.768-3.843 13.067 4.996 17.678 2.306h1.153l7.686-.385 1.921-.384 1.538-.384 20.368-11.145 13.835-18.063 4.227-.768z"/><path d="m798.82 179.131 82.626 8.455-1.153 10.376-1.537 30.36 4.996.385-.768 9.992-65.717-6.534-19.6-.384 5.765-31.513-10.376-1.153 1.153-9.992 2.305-3.074z"/><path d="m798.823 179.131-1.922 6.918-2.306 3.074-1.152 9.992 10.376 1.153-5.765 31.513 19.6.384-4.227 39.968-3.075-.384-2.69 24.211h-6.149l-24.596-5.38-1.153-.384-1.921-2.306-9.608-3.075-.384.385-.384.768-1.153 1.538-1.153 3.074v6.918l-2.306-1.922-4.228.769-13.835 18.062-20.368 11.145-1.537.384-1.922.385-7.686.384h-.384l-17.678-2.306-13.067-4.996 2.691-20.752 5.38-38.815 4.227-11.53 8.455 1.153 1.921-8.455-5.764-.768 1.537-10.376 9.992-3.844.769-11.144 4.227-35.741 3.459-9.992z"/><path d="m860.31 295.576-.769 7.686-1.537 13.835-3.459 1.153-.769 9.224-10.376-1.153-3.459 32.282-3.458-.769-3.459 39.584-34.588-3.459-1.153 10.376-3.459-.384-6.917-.769 1.153-10.376-10.377-1.153-6.917-.769 1.922-20.368-10.377-1.153.769-19.215 3.843.384 4.612-40.736-8.839-1.153 2.305-9.992-4.611-.385v-6.917l1.153-3.075 1.153-1.537.384-.384.384-.384 9.224 3.074 1.921 1.922 1.153.384 24.596 5.38h6.149l12.297-3.843 4.228-2.306h3.843l14.603.385 5.765.384 6.918 1.153z"/><path d="m778.455 391.653 10.376 1.153-1.153 10.376 6.918.769 3.459.384 1.153-10.376 34.587 3.459 6.533.768-2.306 23.827 10.377 1.153-.769 6.918 10.761.768 1.537 1.922 1.537 2.69-.384 2.69 34.588 3.459-1.922 20.753-.384 3.458-11.529-1.921-.385 4.996-10.376-.769-2.306 4.996-8.839 2.69-20.752-1.921-16.91-4.996-2.69-3.843-4.228-7.302-1.537-10.377-2.306-10.76-17.293-4.996-19.984-2.306z"/><path d="m752.322 553.831 99.536 10.376-3.843 40.737-1.538 10.76-4.227-.384-3.843 41.505-5.765-.384-61.489-6.149-5.765-.385-9.992-.384-18.831-1.921 1.153-21.906 2.306-19.984 3.075.384.768-11.144 3.459-21.137 1.922-19.216z"/><path d="m774.225 429.315 20.753 2.306 17.294 4.996 2.306 10.761 1.537 10.376 4.227 7.302 2.69 3.843 16.526 4.996 20.752 1.921 8.839-2.69 2.306-4.996 10.376.769-1.537 15.372-14.219-1.153-1.153 12.682v4.996l.768 2.691-1.921 20.752-4.227-.384-3.844 41.121-3.458-.385-99.536-10.376 4.612-40.736 2.306-3.075 1.921-6.917v-3.075l3.075-27.286 3.458-13.45 3.843-27.286 3.075-1.537z"/><path d="m863.771 523.855 21.137 1.921 8.839 1.922-1.537 8.07 5.765.769 5.764.769-1.537 9.607 7.302.769 13.835 1.153-.769 9.992 7.302.768-6.149 78.783-3.458 25.365-81.858-7.687 3.843-41.505 4.228.385 1.537-10.761 3.843-40.737 3.459.385 3.843-41.121z"/><path d="m881.449 469.283.384-4.996 10.376.769.385-3.459 15.372 1.153 4.996 2.306-.384 3.458 24.98 2.306-1.153 11.914-2.691 30.744-3.458 39.584-.385 7.302-7.302-.769.769-9.992-13.835-1.153-7.302-.768 1.538-9.608-5.765-.769-5.765-.768 1.537-8.071-8.839-1.921-21.136-1.922 1.921-20.752-.769-2.69v-4.996l1.153-12.683 14.22 1.153z"/><path d="m945.243 382.045-.769 8.071-6.917 80.704-24.98-2.306.384-3.458-4.996-2.306-15.372-1.153 2.306-20.753 8.454.769 5.381-3.075 1.921-1.537 8.071-11.145 2.306-4.227.768-9.223v-6.918l-.384-1.921-.769-2.691-8.454-11.913 2.69-4.612 23.442 2.306.385-4.996z"/><path d="m854.163 327.09-1.153 10.376 20.753 1.921-1.153 10.377 30.744 3.074-1.153 9.223 6.533 1.538-1.921 20.368 7.302.769-2.69 4.611 8.454 11.914.769 2.69.384 1.921v6.918l-.768 9.223-2.306 4.228-8.071 11.145-1.921 1.537-5.38 3.074-8.84-.768-34.587-3.075.384-2.69-1.537-2.69-1.537-1.922-10.761-.768.769-6.918-10.377-.768 2.306-23.827-6.533-.769 3.459-39.584 3.459.769 3.458-32.282z"/><path d="m951.391 312.101-6.149 69.944-6.917-.768-.385 4.996-23.442-2.306-7.302-.769 1.921-20.368-6.533-1.537 1.153-9.224-30.745-3.074 1.153-10.376-20.752-1.922 1.153-10.376.768-9.224 3.459-1.152 1.537-13.836.769-7.686 5.764 1.153h9.608l1.537-.768 2.691-1.922 1.921-2.69 4.612-1.922 33.434 8.455 15.757 9.224z"/></g></svg>