<svg fill="none" height="121" viewBox="0 0 301 121" width="301" xmlns="http://www.w3.org/2000/svg"><path d="m11.71 43.9967h16.53c.5342.049 1.0723-.0298 1.57-.23.22-.15.33-.48.33-1v-9.56c.1037-1.4105-.1509-2.8243-.74-4.11-.3217-.4435-.7291-.818-1.198-1.1014s-.9898-.4699-1.532-.5486c-.56-.1067-.83-.3267-.81-.66 0-.31.25-.46.7-.46.6353.0136 1.2695.0603 1.9.14 1.3024.1318 2.6109.1952 3.92.19 1.4022.0315 2.805-.0252 4.2-.17.3312-.0541.665-.0909 1-.11.45 0 .67.18.67.55s-.22.48-.67.57l-1.15.25c-.3129.0909-.6018.2502-.8456.4664s-.4366.4838-.5644.7836c-.4076.7618-.6109 1.6162-.59 2.48v27.08c-.1308 1.4356.1612 2.8782.84 4.15.4107.4433.909.7966 1.4632 1.0376s1.1524.3644 1.7568.3624c.58.07.88.26.9.55 0 .44-.23.66-.79.66-.4893-.0125-.9772-.0592-1.46-.14-.9294-.1054-1.865-.1455-2.8-.12h-4.17c-.4479.0071-.8952.0372-1.34.09l-1.94.14c-.46 0-.69-.17-.67-.55s.34-.54.95-.63c1.96-.34 2.94-1.94 2.94-4.8v-11.31c0-.88-.08-1.39-.25-1.54-.5331-.2114-1.1104-.287-1.68-.22h-16.47c-.6835-.0814-1.3761.0294-2 .32-.26.21-.39.76-.39 1.64v10.23c-.12889 1.4228.19296 2.8502.92 4.08.4492.4652.9864.8365 1.5804 1.0923s1.2329.391 1.8796.3977c.69.07 1 .31 1.06.71s-.25.58-.81.58c-.4588-.0175-.9161-.0609-1.37-.13-1.1157-.1222-2.2378-.1756-3.36-.16h-4.2c-.46667 0-1.05667.03-1.77.09-1 .09-1.56.13-1.76.13-.47 0-.699999-.17-.699999-.52s.239999-.55.729999-.66l1.4-.33c.42758-.1188.81256-.3568 1.11003-.6861.29746-.3293.49514-.7365.56997-1.1739.36259-1.8096.51028-3.6557.44-5.5v-24.05c.11125-1.2477-.21391-2.4953-.92-3.53-.89294-.8613-2.06204-1.3785-3.299998-1.46-.55-.08-.820002-.28-.820002-.61s.250001-.56.730001-.54c.479999.02.919999.07 1.679999.17 1.70425.1757 3.41675.2592 5.13.25 1.24365.0032 2.4862-.0737 3.72-.23.3907-.0612.7848-.098 1.18-.11.54 0 .81.19.81.58s-.25.5-.75.63c-.9809.1471-1.8813.6274-2.55 1.36-.51192.9122-.73507 1.9583-.64 3v10c-.08491.6543.02647 1.3191.32 1.91.6534.2862 1.3741.3832 2.08.28zm43.81-12.93v11.3c-.0642.5322.0188 1.0717.24 1.56.1467.18.6267.27 1.44.27h4.31c1.5571.0285 3.1136-.0853 4.65-.34.7307-.0722 1.425-.3534 2-.81.4341-.7152.7039-1.5178.79-2.35.1-.47.34-.7.72-.68s.54.27.54.76v.61c-.16 1.81-.25 3.46-.25 5 0 1.13.06 2.26.17 3.38.04.3733.06.6433.06.81 0 .46-.18.7-.55.7-.0875.0068-.1755-.0039-.2588-.0316-.0833-.0276-.1603-.0716-.2264-.1293s-.1201-.1281-.1587-.2069-.061-.1646-.0661-.2522l-.17-.78c-.0393-.4936-.1782-.9741-.4086-1.4124-.2303-.4383-.5472-.8253-.9314-1.1376-1.0658-.5618-2.2686-.8114-3.47-.72h-6.17c-.6236-.0533-1.2509.0426-1.83.28-.1683.1276-.2995.2976-.3804.4927-.0808.195-.1083.4081-.0796.6173v11.26c0 1.59.28 2.58.85 3s2 .59 4.32.59c7.3333 0 12.0433-1.6667 14.13-5 .0647-.1224.1541-.2301.2625-.3161.1085-.0861.2336-.1487.3675-.1839.34 0 .51.22.51.73 0 1.2067-.6667 2.6467-2 4.32-.7322.9492-1.6756 1.7145-2.7553 2.2353-1.0798.5208-2.2661.7826-3.4647.7647-.54 0-1.27 0-2.18-.11-3.5667-.34-6.5167-.51-8.85-.51-2.3119-.0561-4.6248.0575-6.92.34-.4811.1004-.9692.1639-1.46.19-.6 0-.9-.2-.9-.6 0-.31.25-.53.73-.66l1.07-.31c1.34-.37 2-1.68 2-3.92v-25.5c0-2.6667-.2933-4.4667-.88-5.4-.59-.93-1.73-1.39-3.43-1.39-.54 0-.81-.17-.81-.52 0-.51.42-.77 1.26-.77.6254.0132 1.2496.06 1.87.14 3.2027.3259 6.4209.4761 9.64.45 2.28 0 4.29 0 6-.11l4-.2c1.1 0 1.77-.07 2-.11.3708-.0589.7448-.0956 1.12-.11.62 0 .93.27.93.81-.0069.2159-.037.4305-.09.64-.05.26-.13 1-.22 2.23l-.11 1.65c-.0351.6741-.1322 1.3436-.29 2-.0421.1316-.1269.2454-.2411.3233-.1141.0779-.251.1155-.3889.1067-.36 0-.54-.28-.54-.84v-.72c.0027-.5861-.1094-1.167-.33-1.71-.201-.4313-.5017-.8085-.8773-1.1006s-.8152-.4907-1.2827-.5794c-1.9789-.3568-3.9907-.4976-6-.42h-4.27c-.7731-.0894-1.555.0607-2.24.43-.2098.2749-.3621.5892-.448.9242s-.1036.6838-.052 1.0258zm35.82 26.31v1c0 2.25.21 3.57.64 4s1.84.61 4.21.61c3.0793.0608 6.149-.3575 9.1-1.24 2.58-.8333 4.223-1.93 4.93-3.29.26-.51.52-.76.78-.76s.44.19.42.56c-.198 1.484-.831 2.876-1.82 4-1.613 2-4.22 3-7.82 3-.6 0-1.29 0-2.08-.09l-3-.22c-1.77-.13-3.65-.2-5.63-.2-1.9323-.0246-3.8639.089-5.78.34-.65.09-1.18.15-1.57.17s-.7-.15-.7-.5.25-.51.76-.65c1.0565-.2281 1.9883-.8458 2.61-1.73.5287-1.2038.7553-2.5186.66-3.83v-26.31c0-2.48-1-3.93-3-4.35l-1.26-.25c-.45-.09-.68-.27-.68-.55s.32-.62 1-.62c.5882.0065 1.1756.0432 1.76.11 1.26.11 2.69.17 4.27.17s3.27 0 4.67-.14l1.2-.06c.45 0 .67.14.67.41s-.27.67-.81.79l-1 .23c-1.68.4133-2.52 2.08-2.52 5zm59.13-20.66c-1.593 2.78-2.653 4.71-3.18 5.79l-2.49 5.34-2.85 5.88c-.15.34-.93 2.09-2.36 5.26-.58 1.31-1.08 2.38-1.51 3.22l-.51 1.06c-.37.88-.76 1.32-1.19 1.32s-.87-.46-1.27-1.37c-.08-.17-.34-.68-.79-1.54l-.56-1.18-10.55-22.72-.64 13.87c-.06 1.14-.08 3.41-.08 6.83s1.15 5.11 3.47 5.46c1.14.19 1.71.46 1.71.83s-.27.63-.81.63c-.334-.001-.668-.0211-1-.06-2.08-.18-3.7-.28-4.83-.28-1.311-.0017-2.621.0851-3.92.26-.285.044-.572.0707-.86.08-.56 0-.84-.2-.84-.6 0-.31.22-.51.67-.6.587-.0954 1.147-.3151 1.642-.6445.495-.3295.913-.7609 1.228-1.2655.679-1.5363 1.02-3.2005 1-4.88l.39-8.13c.28-5.88.42-9.5967.42-11.15 0-3.3333-.437-5.7967-1.31-7.39-.449-.8085-1.08-1.5008-1.844-2.0217s-1.639-.8559-2.556-.9783c-.56-.09-.84-.32-.84-.68s.23-.61.7-.61c.16 0 .47 0 .92.06.632.0546 1.266.0746 1.9.06 1.53 0 2.51 0 2.92-.06.331-.0489.665-.0757 1-.08.8 0 1.48.58 2 1.76l.31.64 11.67 25.19 1.43 2.88c.2.49.35.73.44.73s.26-.18.42-.53l.34-.76.25-.56 13.15-28.21c.167-.3915.382-.761.64-1.1.103-.0821.222-.143.349-.179s.26-.0466.391-.031c.15 0 .56 0 1.23.11h.92c1.18 0 2.12 0 2.83-.11l.81-.06c.38 0 .56.16.56.55.006.159-.048.3145-.152.4351-.104.1205-.25.1973-.408.2149l-1.2.31c-.455.0999-.878.3138-1.227.6216-.35.3079-.616.6996-.773 1.1384-.468 1.4999-.664 3.0712-.58 4.64l.17 6.76.53 15.23.14 3.54c-.098 1.0806.181 2.1618.79 3.06.762.7513 1.764 1.2114 2.83 1.3 1 .15 1.49.39 1.49.74s-.35.55-1 .55h-.69l-2.23-.29c-.777-.083-1.558-.1231-2.34-.12-.58 0-1.49 0-2.74.13-1.94.1-3.06.15-3.36.15-.54 0-.81-.16-.81-.49s.24-.5.7-.63c.448-.0807.876-.2506 1.257-.4997.382-.2491.709-.5722.963-.9503.452-1.1225.643-2.3328.56-3.54l-.12-4.57zm29.01-10.79c1.731-.0482 3.454.2475 5.07.87l1.93.81c.159.0774.333.1184.51.12.249-.0132.486-.1121.67-.28l.39-.34c.041-.0398.089-.0703.143-.0893.053-.019.11-.0261.167-.0207.47 0 .7.44.7 1.37.075.949.199 1.8935.37 2.83l.44 2.88c.07.3801.117.7642.14 1.15 0 .58-.2.87-.59.87s-.61-.45-.92-1.35c-.729-2.0979-2.178-3.8695-4.09-5-2.05-1.3211-4.441-2.016-6.88-2-1.83-.0463-3.611.588-5 1.78-.642.547-1.155 1.2301-1.501 1.9998-.346.7696-.516 1.6066-.499 2.4502-.034 1.464.431 2.8961 1.32 4.06.659.8921 1.514 1.6209 2.5 2.13 2.156.937 4.359 1.7614 6.6 2.47 6.9 2.24 10.35 5.9467 10.35 11.12.045 1.6208-.274 3.2311-.933 4.7125-.66 1.4813-1.643 2.796-2.877 3.8475-2.728 2.2885-6.212 3.476-9.77 3.33-1.61-.0303-3.211-.2485-4.77-.65-1.337-.2645-2.621-.7476-3.8-1.43-.281-.1785-.512-.4264-.67-.72-.215-.6334-.382-1.2818-.5-1.94 0-.15-.27-1-.7-2.55-.39-1.1622-.635-2.3679-.73-3.59 0-.56.19-.83.57-.81.34 0 .65.48.91 1.38.713 2.3724 2.212 4.4318 4.25 5.84 2.019 1.5194 4.474 2.347 7 2.36 2.378.0657 4.697-.7418 6.52-2.27.835-.6572 1.509-1.4957 1.972-2.4521.462-.9564.701-2.0055.698-3.0679.011-1.0037-.205-1.9969-.631-2.9058s-1.051-1.7102-1.829-2.3442c-.84-.73-3.27-1.76-7.27-3.11s-7.08-3-8.8-4.65c-.864-.8614-1.541-1.8927-1.987-3.0286-.445-1.136-.651-2.352-.603-3.5714-.038-1.408.247-2.8061.833-4.087s1.457-2.4108 2.547-3.303c2.473-1.9801 5.586-2.9836 8.75-2.82zm27.96 31.45v1c0 2.25.22 3.57.65 4s1.83.61 4.21.61c3.079.0602 6.149-.3581 9.1-1.24 2.567-.8333 4.207-1.93 4.92-3.29.26-.51.52-.76.79-.76s.43.19.42.56c-.206 1.4834-.843 2.8739-1.83 4-1.6 2-4.207 3-7.82 3-.6 0-1.29-.03-2.07-.09l-3-.22c-1.78-.13-3.66-.2-5.64-.2-1.929-.0247-3.857.0889-5.77.34-.66.09-1.18.15-1.57.17s-.7-.15-.7-.5.25-.51.76-.65c1.054-.2336 1.984-.85 2.61-1.73.529-1.2038.755-2.5186.66-3.83v-26.31c0-2.48-1-3.93-3-4.35l-1.26-.25c-.45-.09-.67-.27-.67-.55s.32-.62.95-.62c.588.0062 1.176.0429 1.76.11 1.27.11 2.69.17 4.28.17s3.27 0 4.67-.14l1.2-.06c.44 0 .67.14.67.41s-.27.67-.81.79l-1 .25c-1.69.41-2.52 2.08-2.52 5zm33.51-26.31v11.3c-.064.5322.019 1.0717.24 1.56.16.18.64.27 1.44.27h4.32c1.554.0286 3.107-.0852 4.64-.34.73-.0744 1.424-.3554 2-.81.437-.7156.713-1.5173.81-2.35.09-.47.33-.7.71-.68s.55.27.55.76v.61c-.17 1.81-.25 3.46-.25 5-.003 1.1289.053 2.2571.17 3.38 0 .37.05.64.05.81 0 .46-.18.7-.54.7-.177.0111-.352-.0475-.486-.1634-.135-.1158-.219-.2797-.234-.4566l-.17-.78c-.039-.4936-.178-.9741-.409-1.4124-.23-.4383-.547-.8253-.931-1.1376-1.053-.5336-2.233-.7655-3.41-.67h-6.17c-.627-.0526-1.257.0433-1.84.28-.164.1216-.294.2824-.38.4676-.086.1851-.123.3888-.11.5924v11.26c0 1.59.28 2.58.85 3s2 .59 4.32.59c7.333 0 12.043-1.6667 14.13-5 .065-.1224.154-.2301.263-.3161.108-.0861.233-.1487.367-.1839.35 0 .52.22.52.73 0 1.2067-.667 2.6467-2 4.32-.731.9503-1.674 1.7166-2.754 2.2375-1.08.5208-2.267.782-3.466.7625-.54 0-1.27 0-2.18-.11-3.573-.34-6.523-.51-8.85-.51-2.312-.0558-4.625.0579-6.92.34-.481.101-.969.1645-1.46.19-.59 0-.89-.2-.89-.6s.24-.53.73-.66l1.06-.31c1.34-.37 2-1.68 2-3.92v-25.5c0-2.6667-.293-4.4667-.88-5.4-.59-.93-1.73-1.39-3.43-1.39-.54 0-.81-.17-.81-.52 0-.51.42-.77 1.26-.77.629.0132 1.256.0599 1.88.14 3.199.3258 6.414.4761 9.63.45 2.28 0 4.297-.0367 6.05-.11l4-.2c1.1 0 1.77-.07 2-.11.371-.0598.745-.0966 1.12-.11.61 0 .92.27.92.81-.008.2153-.035.4294-.08.64-.06.26-.13 1-.23 2.23l-.15 1.65c-.03.6746-.127 1.3446-.29 2-.04.1308-.123.2444-.236.3224-.112.0779-.247.1159-.384.1076-.37 0-.55-.26-.55-.84v-.72c.003-.5861-.109-1.167-.33-1.71-.2-.4301-.499-.8065-.873-1.0986-.374-.292-.811-.4913-1.277-.5814-1.979-.355-3.991-.4958-6-.42h-4.39c-.773-.0894-1.555.0607-2.24.43-.394.5682-.549 1.2687-.43 1.95zm43.84 28.13c0 2.17.18 3.5.54 4s1.37.82 3.05 1c.58.0533.87.2433.87.57 0 .44-.333.66-1 .66-.2 0-.69-.05-1.46-.14-.46-.06-1.15-.11-2-.17l-2.25-.12h-2.19c-.928-.0178-1.855.0122-2.78.09-.353.0671-.711.1106-1.07.13-.43 0-.64-.16-.64-.47s.31-.59.92-.68c1.57-.22 2.57-.64 3-1.25s.63-1.91.63-3.91v-9.53c.034-.8839-.05-1.7684-.25-2.63-.305-.8428-.711-1.6453-1.21-2.39l-7.81-12.43-1-1.54c-.563-.9015-1.352-1.6394-2.29-2.14-.891-.5291-1.904-.8153-2.94-.83-.55 0-.82-.17-.82-.51s.29-.61.87-.61c.475.0004.949.0305 1.42.09 1.265.1462 2.537.2197 3.81.22 2.73 0 4.49 0 5.25-.13s1.31-.13 1.48-.13c.54 0 .81.19.81.55s-.21.48-.64.6c-1.25.38-1.88 1-1.88 1.91.205.9733.618 1.8909 1.21 2.69l.79 1.35 5.89 9.26.37.56c.17.26.34.39.5.39.123-.0123.24-.0543.343-.1222s.188-.1598.247-.2678l.28-.42 4.11-6.15 1.37-2.18c1.3-2.0667 1.967-3.4567 2-4.17 0-1.24-1.17-2.15-3.53-2.71-.46-.11-.69-.32-.67-.64s.24-.48.65-.48c.5.0201.997.0736 1.49.16 1.307.1094 2.619.1494 3.93.12 1.91 0 3.12 0 3.65-.08.71-.08 1.2-.12 1.49-.14.5 0 .75.12.75.49s-.23.51-.7.66c-1.688.5623-3.143 1.666-4.14 3.14l-1.82 2.72-6.81 10.16-.67 1c-.631.7964-1.004 1.7661-1.07 2.78zm-279.41934-58.00004h-3.19v-.999996h7.45v.999996h-3.18999v8.51h-1.07001zm10.22004-.989998h1.07v4.229998h5.48v-4.229998h1.07v9.499998h-1.07v-4.28h-5.48v4.28h-1.07zm14.25 0h6.86v.999998h-5.75v3.21h5.18v1h-5.18v3.32h5.86v1h-6.97zm21.03 0h1.08v8.509998h5.35v1h-6.43zm12.33 0h6.87v.999998h-5.79v3.21h5.18v1h-5.18v3.32h5.86v1h-6.94zm17.44 9.659998c-.688.015-1.3708-.12156-2-.4-.5768-.24562-1.0974-.60631-1.53-1.06-.4338-.44832-.7738-.97867-1-1.56-.237-.59469-.3559-1.22985-.35-1.87-.0008-.64293.1179-1.28042.35-1.88.2319-.57842.5712-1.10773 1-1.56.5541-.597727 1.2513-1.044503 2.0259-1.29821.7746-.2537061 1.6011-.3059868 2.4014-.1519124.8004.1540744 1.5484.5094274 2.1734 1.0325624.6251.52314 1.1066 1.19683 1.3993 1.95756.2313.59632.35 1.23039.35 1.87 0 .63962-.1187 1.27369-.35 1.87-.2274.58482-.5679 1.11904-1.002 1.57206-.4342.45301-.9534.81592-1.528 1.06794-.6109.27105-1.2718.41074-1.94.41zm0-1c.5165.00641 1.0283-.09935 1.5-.31.4416-.19561.8394-.47785 1.17-.83.3318-.36162.593-.78221.77-1.24.1867-.48492.2817-1.00035.28-1.52.0016-.52288-.0934-1.04156-.28-1.53-.1815-.45782-.4459-.8782-.78-1.24-.3375-.35568-.7419-.64115-1.19-.84-.4709-.21408-.9827-.32326-1.5-.32-.5161-.00154-1.0269.10402-1.5.31-.4445.19058-.8433.47351-1.17.83-.3306.36261-.5916.78294-.77 1.24-.1859.48517-.2808 1.00044-.28 1.52-.0008.51957.0941 1.03483.28 1.52.178.45956.4428.88055.78 1.24.335.36092.7399.65009 1.19.85.4805.21814 1.0022.33068 1.53.33zm11.06-8.659998h1l6 7.609998v-7.609998h1v9.499998h-.85l-6.14-7.79v7.79h-1zm18.1703-.069999h1l4.33 9.569997h-1.15l-1.1-2.51h-5.17l-1.13 2.51h-1.1l4.32-9.569997zm2.64 6.089997-2.15-4.84-2.17 4.84zm16.5-6.019998h1.09l3.46 5.179998 3.46-5.179998h1.09v9.499998h-1.08v-7.71l-3.46 5.09h-.05l-3.46-5.09v7.68h-1.05v-9.469998zm13.06 8.069998h1.25v1.43h-1.25zm19.08-8.139997h1l4.33 9.569997h-1.15l-1.12-2.51h-5.17l-1.09 2.51h-1.1zm2.64 6.089997-2.15-4.84-2.17 4.84zm8.5-6.019998h1l6 7.609998v-7.609998h1v9.499998h-.85l-6.14-7.79v7.79h-1l-.01-9.499998zm14.66 0h3.3c.699-.008687 1.395.113408 2.05.360001.59.226769 1.13.566447 1.59.999997.432.42654.772.93701 1 1.5.251.59118.377 1.22783.37 1.87.007.64217-.119 1.27882-.37 1.87-.225.56737-.566 1.08165-1 1.51-.463.42965-1.003.76882-1.59 1-.655.25001-1.35.3755-2.05.37h-3.3v-9.479998zm3.3 8.509998c.556.00591 1.109-.09245 1.63-.29.453-.17693.865-.44603 1.209-.79028.345-.34425.614-.75617.791-1.20972.186-.47115.281-.97338.28-1.48.001-.50661-.094-1.00885-.28-1.48-.184-.44433-.452-.84857-.79-1.19-.353-.35081-.775-.6234-1.24-.8-.519-.20233-1.073-.30086-1.63-.29h-2.22v7.52zm19.24-8.509998h1.08v4.229998h5.48v-4.229998h1.07v9.499998h-1.07v-4.28h-5.48v4.28h-1.08v-9.499998zm17.77-.069999h1l4.33 9.569997h-1.15l-1.12-2.51h-5.17l-1.12 2.51h-1.08l4.31-9.569997zm2.69 6.089997-2.15-4.84-2.18 4.84zm8.45-6.019998h4.08c.534-.010502 1.065.074152 1.57.25.423.147716.809.386687 1.13.699998.237.23263.425.51178.55.82.132.32454.206.66976.22 1.02.002.35876-.062.71483-.19 1.05-.126.30278-.309.578-.54.81-.24.23448-.517.42715-.82.57-.319.15075-.655.26159-1 .33l2.92 3.89h-1.37l-2.77-3.65h-2.71v3.7h-1.07v-9.489998zm4 4.839998c.338.00707.675-.03675 1-.13.281-.08085.546-.21307.78-.39.214-.16176.388-.37042.51-.61.123-.25532.185-.5363.18-.82.012-.26461-.039-.52836-.151-.76869-.111-.24033-.279-.45008-.489-.61131-.526-.35846-1.156-.53095-1.79-.49h-2.94v3.85zm9.74-4.839998h4.09c.53-.011472 1.059.073227 1.56.25.426.147584.815.38648 1.14.699998.231.23561.415.51415.54.82.131.33431.195.69098.19 1.05.007.35918-.058.7162-.19 1.05-.122.30473-.306.58065-.54.81-.238.23662-.516.42956-.82.57-.318.15212-.654.26302-1 .33l2.92 3.89h-1.32l-2.76-3.68h-2.71v3.7h-1.08zm4 4.839998c.338.00632.675-.03749 1-.13.279-.07861.541-.21109.77-.39.214-.16176.388-.37042.51-.61.132-.25278.197-.53497.19-.82.012-.26461-.039-.52836-.151-.76869-.111-.24033-.279-.45008-.489-.61131-.53-.35712-1.163-.52937-1.8-.49h-2.93v3.85zm12.38.95-3.95-5.739996h1.31l3.19 4.739996 3.22-4.749997h1.25l-3.95 5.719997v3.78h-1.07zm18.69-5.789998h4c.489-.009688.976.064729 1.44.220002.373.133507.714.344838 1 .619996.198.19992.353.43737.458.6984s.156.54038.152.8216c.006.27894-.038.55676-.13.82-.077.22776-.192.4408-.34.63-.143.16779-.304.31876-.48.45-.174.11727-.358.21773-.55.3.273.07967.538.18689.79.32.236.12284.452.28137.64.47.185.18382.334.40094.44.64.112.27251.166.56535.16.86.006.37707-.077.75033-.24 1.09-.169.32006-.408.59719-.7.81-.331.23291-.7.40557-1.09.51-.46.12389-.934.18445-1.41.18h-4.21l.07-9.439998zm3.87 4.239998c.557.01903 1.107-.13845 1.57-.45.201-.14461.363-.33779.469-.56159.107-.22379.155-.47092.141-.71841.006-.21771-.04-.43379-.134-.63031s-.233-.36782-.406-.49969c-.46-.30879-1.008-.4565-1.56-.42h-2.88v3.28zm.38 4.29c.603.03235 1.201-.12502 1.71-.45.199-.13782.36-.32372.469-.54047.108-.21676.16-.45737.151-.69953.01-.23893-.044-.47621-.157-.68722-.112-.21101-.279-.38806-.483-.51278-.571-.32563-1.225-.47524-1.88-.43h-3v3.35zm6.82-.46h1.25v1.43h-1.25zm-291.0805 83.27984c-.65267.0047-1.29934-.1247-1.90001-.38-.56182-.2297-1.07187-.5697-1.49999-1-.4335-.4447-.77352-.9717-1-1.55-.2411-.6078-.36331-1.2561-.36001-1.91-.00326-.6506.11897-1.2957.36001-1.9.22861-.5831.56822-1.1163 1-1.57.42896-.4534.94626-.8142 1.51999-1.06.60598-.2608 1.26035-.3904 1.92001-.38.39566-.0056.79092.0279 1.18.1.34241.0714.67726.1752 1 .31.29155.1288.56958.2862.83.47.25.19.49.4.73.62l-.73.79c-.39564-.3669-.83574-.6827-1.31-.94-.52338-.2519-1.09934-.3754-1.68-.36-.50236-.0038-.99987.0984-1.46001.3-.44145.1862-.83723.466-1.15999.82-.33619.3602-.60088.781-.78001 1.24-.18491.4889-.27978 1.0073-.28 1.53-.00077.5261.09411 1.0479.28 1.54.17666.4603.44163.8815.78001 1.24.32501.354.72002.6367 1.15999.83.45791.2096.95645.3154 1.46001.31.58066.0154 1.15662-.108 1.68-.36.50749-.2672.97531-.6038 1.39-1l.7.69c-.2386.2457-.4924.4762-.76.69-.2696.2002-.55754.3743-.86001.52-.31981.1498-.65517.2638-1 .34-.39947.0683-.80531.0917-1.20999.07zm16.03-9.66h1.07v4.23h5.48v-4.23h1.07v9.5h-1.07v-4.28h-5.48v4.28h-1.07zm24.18-.07h1l4.33 9.57h-1.15l-1.11-2.51h-5.17l-1.13 2.51h-1.1zm2.65 6.09-2.11-4.84-2.17 4.84zm14.89-6.02h4.1c.534-.0105 1.0656.0742 1.57.25.4234.1477.8092.3867 1.13.7.2403.2344.4278.5174.55.83.1224.3194.1867.658.19 1-.0037.342-.068.6806-.19 1-.2336.6591-.7191 1.1985-1.35 1.5-.3198.1499-.6552.2639-1 .34l2.92 3.88h-1.36l-2.76-3.69h-2.71v3.69h-1.09zm4 4.84c.338.0082.6753-.0357 1-.13.2818-.0808.5462-.213.78-.39.2143-.1617.3888-.3704.51-.61.1238-.2553.1855-.5363.18-.82.011-.2644-.0413-.5275-.1526-.7676-.1114-.2401-.2785-.45-.4874-.6124-.5272-.3543-1.1559-.5264-1.79-.49h-2.95v3.85zm16.28-4.84h1.07v9.5h-1.07zm16.7195.99h-3.1795v-1h7.4395v1h-3.18v8.51h-1.08zm18.92-1.06h1l4.33 9.57h-1.15l-1.1-2.51h-5.17l-1.13 2.51h-1.1zm2.651 6.09-2.161-4.84-2.17 4.84zm14.909-6.02h4c.49-.0097.977.0648 1.44.22.373.1357.713.3467 1 .62.395.4076.614.9531.61 1.52.002.2786-.042.5556-.13.82-.08.2283-.198.4413-.349.63-.135.1755-.297.3276-.48.45-.173.1193-.357.2199-.55.3.275.0841.542.1911.8.32.234.1254.45.2836.64.47.182.1844.328.4015.429.64.116.2718.174.5647.17.86.004.378-.082.7514-.25 1.09-.162.3242-.402.6027-.699.81-.328.2387-.698.4119-1.09.51-.46.1252-.934.1857-1.41.18h-4.211zm3.871 4.25c.558.023 1.11-.1271 1.579-.43.2-.1457.36-.3394.464-.5631.105-.2237.152-.4703.136-.7169.008-.2179-.036-.4346-.131-.6314-.094-.1968-.234-.3679-.408-.4986-.453-.3159-1-.4676-1.55-.43h-2.89v3.29zm.379 4.28c.603.0381 1.201-.116 1.711-.44.198-.1407.359-.3285.467-.5467s.161-.4599.152-.7033c.01-.2376-.044-.4735-.154-.684-.111-.2106-.275-.3885-.476-.516-.575-.321-1.231-.4702-1.89-.43h-3v3.35zm15.901-8.53h1.08v8.51h5.34v1h-6.42zm18.75 0h6.87v1h-5.79v3.22h5.179v1h-5.179v3.31h5.86v1h-6.94zm36.379.99h-3.179v-1h7.42v1h-3.18v8.51h-1.08zm16.64-.99h4.09c.531-.0106 1.06.0741 1.56.25.427.1476.816.3865 1.141.7.233.2376.417.5199.54.83.126.3182.191.6576.19 1 0 .3424-.064.6818-.19 1-.263.6158-.749 1.109-1.361 1.38-.319.1513-.654.2654-1 .34l2.921 3.88h-1.32l-2.75-3.69h-2.72v3.69h-1.101zm4 4.84c.338.0063.675-.0375 1-.13.279-.0809.54-.2132.771-.39.214-.1617.388-.3704.509-.61.132-.2528.198-.5349.19-.82.009-.264-.044-.5264-.155-.7661-.112-.2396-.277-.4499-.484-.6139-.533-.3504-1.164-.5221-1.801-.49h-2.94v3.85zm19.96 4.81c-.545.0066-1.087-.0848-1.599-.27-.47-.164-.897-.4304-1.25-.78-.363-.3682-.64-.8122-.81-1.3-.197-.5723-.292-1.1748-.28-1.78v-5.52h1.069v5.45c-.058.8612.213 1.7124.761 2.38.581.5208 1.334.8087 2.114.8087.781 0 1.534-.2879 2.116-.8087.276-.3216.487-.6948.619-1.0981s.183-.8288.151-1.2519v-5.48h1.079v5.44c.01.6189-.088 1.2347-.289 1.82-.171.4907-.448.9379-.81 1.31-.349.3584-.772.635-1.241.81-.523.186-1.074.2774-1.63.27zm20.13-.02c-.713.0103-1.423-.1152-2.09-.37-.66-.2736-1.266-.6631-1.79-1.15l.66-.78c.446.4128.956.7505 1.51 1 .555.229 1.151.3413 1.75.33.55.0271 1.092-.1314 1.541-.45.179-.1371.324-.3143.423-.5174.099-.2032.149-.4266.147-.6526.005-.2013-.029-.4017-.1-.59-.085-.1894-.215-.3546-.38-.48-.232-.1713-.488-.3062-.761-.4-.401-.1412-.812-.2548-1.229-.34-.484-.0961-.958-.2299-1.42-.4-.362-.1303-.7-.3195-1-.56-.252-.2055-.454-.4653-.59-.76-.128-.3179-.192-.6575-.19-1 .003-.346.082-.6871.23-1 .158-.3176.383-.5972.659-.82.298-.2391.637-.4221 1-.54.4-.1351.819-.2027 1.241-.2.622-.0111 1.241.0871 1.829.29.546.2141 1.055.5109 1.511.88l-.62.83c-.4-.3359-.853-.6029-1.34-.79-.45-.1604-.923-.2416-1.401-.24-.53-.0342-1.054.1218-1.479.44-.171.1263-.309.2906-.405.4798-.095.1893-.145.3982-.146.6102-.001.2051.037.4087.111.6.09.1938.228.3621.399.49.24.173.502.3111.78.41.423.1404.854.2539 1.291.34.847.1448 1.649.4874 2.34 1 .251.2084.45.4722.582.7707.132.2984.192.6234.178.9493.004.3802-.078.7564-.241 1.1-.159.3284-.387.6183-.669.85-.293.2474-.633.4313-1 .54-.434.1146-.883.1585-1.331.13zm18.07-8.64h-3.19v-1h7.451v1h-3.19v8.51h-1.071zm-291.899648 26.1705h298.919648v11.87h-298.919648z" fill="#1e3160"/></svg>