<svg viewBox="0 0 233.85827 121.88976" xmlns="http://www.w3.org/2000/svg" xmlns:xlink="http://www.w3.org/1999/xlink"><clipPath id="a"><path d="m332.62132 275.79089h22.2307v20.16498h-22.2307z"/></clipPath><g opacity=".15"><path d="m15.88152 12.37811h167.11436v92.61149h-167.11436z" fill="#e52825"/><path d="m15.88152 19.4649h167.11436v7.12706h-167.11436z" fill="#fff"/><path d="m15.88152 33.71902h167.11436v7.12706h-167.11436z" fill="#fff"/><path d="m15.88152 47.97314h167.11436v7.12706h-167.11436z" fill="#fff"/><path d="m15.88152 12.37811h76.40111v49.80183h-76.40111z" fill="#354c9b"/><g fill="#fff"><path d="m15.88152 62.22725h167.11436v7.12706h-167.11436z"/><path d="m15.88152 76.48137h167.11436v7.12706h-167.11436z"/><path d="m15.88152 90.73548h167.11436v7.12706h-167.11436z"/><path d="m28.803 19.391.6 1.216 1.342.195-.971.946.229 1.336-1.2-.63-1.2.63.229-1.336-.97-.946 1.341-.195z"/><path d="m41.296 19.391.6 1.216 1.341.195-.971.946.23 1.336-1.2-.63-1.201.63.23-1.336-.971-.946 1.342-.195z"/><path d="m53.788 19.391.6 1.216 1.341.195-.97.946.229 1.336-1.2-.63-1.2.63.229-1.336-.971-.946 1.342-.195z"/><path d="m66.28 19.391.6 1.216 1.342.195-.971.946.229 1.336-1.2-.63-1.2.63.229-1.336-.971-.946 1.342-.195z"/><path d="m78.772 19.391.6 1.216 1.342.195-.971.946.229 1.336-1.2-.63-1.2.63.23-1.336-.971-.946 1.341-.195z"/><path d="m47.522 14.051.6 1.216 1.342.195-.971.946.229 1.336-1.2-.631-1.199.631.229-1.336-.971-.946 1.341-.195z"/><path d="m34.992 14.051.6 1.216 1.341.195-.971.946.23 1.336-1.2-.631-1.2.631.229-1.336-.971-.946 1.342-.195z"/><path d="m22.461 14.051.6 1.216 1.342.195-.971.946.229 1.336-1.2-.631-1.2.631.229-1.336-.971-.946 1.342-.195z"/><path d="m60.053 14.051.6 1.216 1.342.195-.971.946.229 1.336-1.2-.631-1.2.631.229-1.336-.97-.946 1.341-.195z"/><path d="m72.584 14.051.6 1.216 1.341.195-.97.946.229 1.336-1.2-.631-1.2.631.229-1.336-.971-.946 1.342-.195z"/><path d="m85.115 14.051.6 1.216 1.341.195-.971.946.23 1.336-1.2-.631-1.2.631.229-1.336-.971-.946 1.342-.195z"/><path d="m28.803 30.072.6 1.216 1.342.195-.971.946.229 1.336-1.2-.631-1.2.631.229-1.336-.97-.946 1.341-.195z"/><path d="m41.296 30.072.6 1.216 1.341.195-.971.946.23 1.336-1.2-.631-1.201.631.23-1.336-.971-.946 1.342-.195z"/><path d="m53.788 30.072.6 1.216 1.341.195-.97.946.229 1.336-1.2-.631-1.2.631.229-1.336-.971-.946 1.342-.195z"/><path d="m66.28 30.072.6 1.216 1.342.195-.971.946.229 1.336-1.2-.631-1.2.631.229-1.336-.971-.946 1.342-.195z"/><path d="m78.772 30.072.6 1.216 1.342.195-.971.946.229 1.336-1.2-.631-1.2.631.23-1.336-.971-.946 1.341-.195z"/><path d="m47.522 24.732.6 1.215 1.342.195-.971.947.229 1.336-1.2-.631-1.199.631.229-1.336-.971-.947 1.341-.195z"/><path d="m34.992 24.732.6 1.215 1.341.195-.971.947.23 1.336-1.2-.631-1.2.631.229-1.336-.971-.947 1.342-.195z"/><path d="m22.461 24.732.6 1.215 1.342.195-.971.947.229 1.336-1.2-.631-1.2.631.229-1.336-.971-.947 1.342-.195z"/><path d="m60.053 24.732.6 1.215 1.342.195-.971.947.229 1.336-1.2-.631-1.2.631.229-1.336-.97-.947 1.341-.195z"/><path d="m72.584 24.732.6 1.215 1.341.195-.97.947.229 1.336-1.2-.631-1.2.631.229-1.336-.971-.947 1.342-.195z"/><path d="m85.115 24.732.6 1.215 1.341.195-.971.947.23 1.336-1.2-.631-1.2.631.229-1.336-.971-.947 1.342-.195z"/><path d="m28.803 40.752.6 1.216 1.342.195-.971.946.229 1.336-1.2-.63-1.2.63.229-1.336-.97-.946 1.341-.195z"/><path d="m41.296 40.752.6 1.216 1.341.195-.971.946.23 1.336-1.2-.63-1.201.63.23-1.336-.971-.946 1.342-.195z"/><path d="m53.788 40.752.6 1.216 1.341.195-.97.946.229 1.336-1.2-.63-1.2.63.229-1.336-.971-.946 1.342-.195z"/><path d="m66.28 40.752.6 1.216 1.342.195-.971.946.229 1.336-1.2-.63-1.2.63.229-1.336-.971-.946 1.342-.195z"/><path d="m78.772 40.752.6 1.216 1.342.195-.971.946.229 1.336-1.2-.63-1.2.63.23-1.336-.971-.946 1.341-.195z"/><path d="m28.803 51.433.6 1.216 1.342.195-.971.946.229 1.336-1.2-.631-1.2.631.229-1.336-.97-.946 1.341-.195z"/><path d="m41.296 51.433.6 1.216 1.341.195-.971.946.23 1.336-1.2-.631-1.201.631.23-1.336-.971-.946 1.342-.195z"/><path d="m53.788 51.433.6 1.216 1.341.195-.97.946.229 1.336-1.2-.631-1.2.631.229-1.336-.971-.946 1.342-.195z"/><path d="m66.28 51.433.6 1.216 1.342.195-.971.946.229 1.336-1.2-.631-1.2.631.229-1.336-.971-.946 1.342-.195z"/><path d="m78.772 51.433.6 1.216 1.342.195-.971.946.229 1.336-1.2-.631-1.2.631.23-1.336-.971-.946 1.341-.195z"/><path d="m47.522 35.412.6 1.216 1.342.195-.971.946.229 1.336-1.2-.631-1.199.631.229-1.336-.971-.946 1.341-.195z"/><path d="m34.992 35.412.6 1.216 1.341.195-.971.946.23 1.336-1.2-.631-1.2.631.229-1.336-.971-.946 1.342-.195z"/><path d="m22.461 35.412.6 1.216 1.342.195-.971.946.229 1.336-1.2-.631-1.2.631.229-1.336-.971-.946 1.342-.195z"/><path d="m60.053 35.412.6 1.216 1.342.195-.971.946.229 1.336-1.2-.631-1.2.631.229-1.336-.97-.946 1.341-.195z"/><path d="m72.584 35.412.6 1.216 1.341.195-.97.946.229 1.336-1.2-.631-1.2.631.229-1.336-.971-.946 1.342-.195z"/><path d="m85.115 35.412.6 1.216 1.341.195-.971.946.23 1.336-1.2-.631-1.2.631.229-1.336-.971-.946 1.342-.195z"/><path d="m47.522 46.093.6 1.215 1.342.195-.971.947.229 1.336-1.2-.631-1.199.631.229-1.336-.971-.947 1.341-.195z"/><path d="m34.992 46.093.6 1.215 1.341.195-.971.947.23 1.336-1.2-.631-1.2.631.229-1.336-.971-.947 1.342-.195z"/><path d="m22.461 46.093.6 1.215 1.342.195-.971.947.229 1.336-1.2-.631-1.2.631.229-1.336-.971-.947 1.342-.195z"/><path d="m60.053 46.093.6 1.215 1.342.195-.971.947.229 1.336-1.2-.631-1.2.631.229-1.336-.97-.947 1.341-.195z"/><path d="m72.584 46.093.6 1.215 1.341.195-.97.947.229 1.336-1.2-.631-1.2.631.229-1.336-.971-.947 1.342-.195z"/><path d="m85.115 46.093.6 1.215 1.341.195-.971.947.23 1.336-1.2-.631-1.2.631.229-1.336-.971-.947 1.342-.195z"/><path d="m47.522 56.773.6 1.216 1.342.195-.971.946.229 1.336-1.2-.631-1.199.631.229-1.336-.971-.946 1.341-.195z"/><path d="m34.992 56.773.6 1.216 1.341.195-.971.946.23 1.336-1.2-.631-1.2.631.229-1.336-.971-.946 1.342-.195z"/><path d="m22.461 56.773.6 1.216 1.342.195-.971.946.229 1.336-1.2-.631-1.2.631.229-1.336-.971-.946 1.342-.195z"/><path d="m60.053 56.773.6 1.216 1.342.195-.971.946.229 1.336-1.2-.631-1.2.631.229-1.336-.97-.946 1.341-.195z"/><path d="m72.584 56.773.6 1.216 1.341.195-.97.946.229 1.336-1.2-.631-1.2.631.229-1.336-.971-.946 1.342-.195z"/><path d="m85.115 56.773.6 1.216 1.341.195-.971.946.23 1.336-1.2-.631-1.2.631.229-1.336-.971-.946 1.342-.195z"/></g></g><path d="m16.24526 104.9896h166.91812" fill="none" stroke="#19233e" stroke-miterlimit="10" stroke-width=".92211"/><path d="m5.9668 106.61621 2.20605-3.03906h.36426v2.99023h.67969v.43457h-.67969v1.22559h-.50391v-1.22554h-2.0664zm1.12793-.04883h.93847v-1.10644c0-.41309.01368-.79785.03467-1.043l-1.53369 2.15625c.1543.00003.37842-.00681.56055-.00681z" fill="#19233e"/><path d="m9.83789 105.9375c0-1.52734.6377-2.36035 1.562-2.36035.91748 0 1.562.833 1.562 2.36035 0 1.52637-.64453 2.36035-1.562 2.36035-.9243 0-1.562-.83398-1.562-2.36035zm2.58447 0c0-1.19824-.38525-1.91211-1.02246-1.91211-.63037 0-1.02246.71387-1.02246 1.91211 0 1.19727.38526 1.91211 1.02246 1.91211.63037 0 1.02246-.71484 1.02246-1.91211z" fill="#19233e"/><path d="m6.00879 14.0083c0-1.38721.73535-2.54248 1.96826-2.54248a1.97312 1.97312 0 0 1 .84033.1748l-.147.42042a1.57542 1.57542 0 0 0 -.6792-.1543c-.74951 0-1.331.62353-1.436 1.69531a2.16045 2.16045 0 0 1 1.1416-.35059 1.31429 1.31429 0 0 1 1.37988 1.415 1.40332 1.40332 0 0 1 -1.457 1.51954c-.87552 0-1.61087-.686-1.61087-2.1777zm2.52832.707a.914.914 0 0 0 -.91748-1.02246 1.91324 1.91324 0 0 0 -1.06445.37842c-.00684 1.00146.42041 1.67383 1.05761 1.67383.57421.00003.92432-.35739.92432-1.02976z" fill="#19233e"/><path d="m9.70459 14.50537 2.20605-3.03955h.36426v2.99072h.67969v.43408h-.67969v1.22559h-.5039v-1.22559h-2.06641zm1.12744-.04883h.939v-1.10693c0-.41309.01367-.79834.03466-1.04346l-1.53369 2.15723c.15427 0 .37839-.00684.56-.00684z" fill="#19233e"/><path d="m16.24526 104.9896v-92.11149" fill="none" stroke="#19233e" stroke-linecap="square" stroke-miterlimit="10" stroke-width=".92211"/><path d="m39.00682 61.62044-15.17438 1.53519" fill="none" stroke="#19233e" stroke-linecap="round" stroke-miterlimit="10" stroke-width="1.84422"/><path d="m54.18119 59.70145-15.17437 1.91899" fill="none" stroke="#19233e" stroke-linecap="round" stroke-miterlimit="10" stroke-width="1.84422"/><path d="m69.35557 58.16626-15.17438 1.53519" fill="none" stroke="#19233e" stroke-linecap="round" stroke-miterlimit="10" stroke-width="1.84422"/><path d="m84.52994 55.86347-15.17437 2.30279" fill="none" stroke="#19233e" stroke-linecap="round" stroke-miterlimit="10" stroke-width="1.84422"/><path d="m99.70432 55.09588-15.17438.76759" fill="none" stroke="#19233e" stroke-linecap="round" stroke-miterlimit="10" stroke-width="1.84422"/><path d="m114.87869 52.02549-15.17437 3.07039" fill="none" stroke="#19233e" stroke-linecap="round" stroke-miterlimit="10" stroke-width="1.84422"/><path d="m130.05307 49.72271-15.17438 2.30278" fill="none" stroke="#19233e" stroke-linecap="round" stroke-miterlimit="10" stroke-width="1.84422"/><path d="m145.22744 46.65232-15.17437 3.07039" fill="none" stroke="#19233e" stroke-linecap="round" stroke-miterlimit="10" stroke-width="1.84422"/><path d="m160.40182 43.96574-15.17438 2.68658" fill="none" stroke="#19233e" stroke-linecap="round" stroke-miterlimit="10" stroke-width="1.84422"/><path d="m175.57619 42.81435-15.17437 1.15139" fill="none" stroke="#19233e" stroke-linecap="round" stroke-miterlimit="10" stroke-width="1.84422"/><g fill="#19233e"><path d="m178.126 109.417c0-.51074-.37891-.71387-.82715-.71387a2.38953 2.38953 0 0 0 -1.12012.30762l-.16113-.40625a2.73215 2.73215 0 0 1 1.32324-.34961c.90332 0 1.33106.49707 1.33106 1.13477 0 1.40723-1.91895 1.3584-2.17774 3.081h2.1709v.43457h-2.80859c.2031-2.43746 2.26953-2.34664 2.26953-3.48823z"/><path d="m179.47559 110.61523c0-1.52734.63769-2.36035 1.56152-2.36035.918 0 1.5625.833 1.5625 2.36035 0 1.52637-.64453 2.36036-1.5625 2.36036-.92383 0-1.56152-.83399-1.56152-2.36036zm2.585 0c0-1.19824-.38575-1.91211-1.02344-1.91211-.62988 0-1.02246.71387-1.02246 1.91211 0 1.19727.38574 1.91211 1.02246 1.91211.63085 0 1.0234-.71484 1.0234-1.91211z"/><path d="m185.51758 109.417c0-.51074-.37891-.71387-.82715-.71387a2.38953 2.38953 0 0 0 -1.12012.30762l-.16113-.40625a2.73219 2.73219 0 0 1 1.32324-.34961c.90332 0 1.33106.49707 1.33106 1.13477 0 1.40723-1.91895 1.3584-2.17774 3.081h2.1709v.43457h-2.80859c.20312-2.43746 2.26953-2.34664 2.26953-3.48823z"/><path d="m186.86719 110.61523c0-1.52734.63769-2.36035 1.56152-2.36035.918 0 1.5625.833 1.5625 2.36035 0 1.52637-.64453 2.36036-1.5625 2.36036-.92383 0-1.56152-.83399-1.56152-2.36036zm2.585 0c0-1.19824-.38574-1.91211-1.02344-1.91211-.62988 0-1.02246.71387-1.02246 1.91211 0 1.19727.38574 1.91211 1.02246 1.91211.63082 0 1.0234-.71484 1.0234-1.91211z"/><path d="m147.77734 109.417c0-.51074-.3789-.71387-.82714-.71387a2.38946 2.38946 0 0 0 -1.12012.30762l-.16113-.40625a2.73215 2.73215 0 0 1 1.32324-.34961c.90332 0 1.33105.49707 1.33105 1.13477 0 1.40723-1.91894 1.3584-2.17773 3.081h2.1709v.43457h-2.8086c.20313-2.43746 2.26953-2.34664 2.26953-3.48823z"/><path d="m149.127 110.61523c0-1.52734.6377-2.36035 1.56153-2.36035.918 0 1.5625.833 1.5625 2.36035 0 1.52637-.64453 2.36036-1.5625 2.36036-.92388 0-1.56153-.83399-1.56153-2.36036zm2.585 0c0-1.19824-.38574-1.91211-1.02343-1.91211-.62989 0-1.02246.71387-1.02246 1.91211 0 1.19727.38574 1.91211 1.02246 1.91211.63077 0 1.02334-.71484 1.02334-1.91211z"/><path d="m154.14551 108.81543-1.085.53223-.18262-.41309 1.35254-.67969h.42676v4.65039h-.51172z"/><path d="m155.86035 111.72852a1.25263 1.25263 0 0 1 .90332-1.20411v-.01464a1.11658 1.11658 0 0 1 -.76269-1.05079 1.25585 1.25585 0 0 1 1.4209-1.2041 1.22117 1.22117 0 0 1 1.36621 1.16992 1.16441 1.16441 0 0 1 -.749 1.085v.01464a1.19427 1.19427 0 0 1 .917 1.16211c0 .74219-.60253 1.28907-1.583 1.28907-.95219-.00003-1.51274-.49027-1.51274-1.2471zm2.55664-.01368c0-.60937-.57422-.80566-1.16308-.98046a1.04852 1.04852 0 0 0 -.8545.93164.88827.88827 0 0 0 1.002.875c.51851-.00002 1.01559-.27344 1.01559-.82618zm-.168-2.25586a.85785.85785 0 0 0 -1.70214-.04882c0 .56054.48339.7705.99414.91113a.94868.94868 0 0 0 .70801-.86229z"/><path d="m117.42822 109.417c0-.51074-.37793-.71387-.82617-.71387a2.39327 2.39327 0 0 0 -1.1206.30762l-.16114-.40625a2.73271 2.73271 0 0 1 1.32373-.34961c.90332 0 1.33057.49707 1.33057 1.13477 0 1.40723-1.91895 1.3584-2.17822 3.081h2.17138v.43457h-2.80859c.20312-2.43746 2.26904-2.34664 2.26904-3.48823z"/><path d="m118.77832 110.61523c0-1.52734.6377-2.36035 1.56152-2.36035.918 0 1.5625.833 1.5625 2.36035 0 1.52637-.64453 2.36036-1.5625 2.36036-.92384 0-1.56152-.83399-1.56152-2.36036zm2.585 0c0-1.19824-.38574-1.91211-1.02344-1.91211-.62988 0-1.02246.71387-1.02246 1.91211 0 1.19727.38574 1.91211 1.02246 1.91211.63082 0 1.0234-.71484 1.0234-1.91211z"/><path d="m123.79688 108.81543-1.085.53223-.18261-.41309 1.35254-.67969h.42675v4.65039h-.51171z"/><path d="m125.51172 110.79688c0-1.38672.73535-2.542 1.96777-2.542a1.97378 1.97378 0 0 1 .84082.17481l-.14746.41992a1.57926 1.57926 0 0 0 -.67871-.15332c-.75 0-1.33105.623-1.43555 1.69433a2.16171 2.16171 0 0 1 1.14161-.3496 1.31351 1.31351 0 0 1 1.3789 1.41406 1.40338 1.40338 0 0 1 -1.45605 1.52051c-.87598 0-1.61133-.68653-1.61133-2.17871zm2.52832.708a.91337.91337 0 0 0 -.917-1.02246 1.91021 1.91021 0 0 0 -1.06446.37793c-.00781 1.001.41993 1.67383 1.05664 1.67383.57521 0 .92478-.35742.92478-1.0293z"/><path d="m87.07959 109.417c0-.51074-.37793-.71387-.82617-.71387a2.39335 2.39335 0 0 0 -1.12061.30762l-.16113-.40625a2.73268 2.73268 0 0 1 1.32373-.34961c.90332 0 1.33057.49707 1.33057 1.13477 0 1.40723-1.91895 1.3584-2.17823 3.081h2.17139v.43457h-2.80859c.20312-2.43746 2.26904-2.34664 2.26904-3.48823z"/><path d="m88.4292 110.61523c0-1.52734.63721-2.36035 1.562-2.36035.91748 0 1.562.833 1.562 2.36035 0 1.52637-.64453 2.36036-1.562 2.36036-.92479 0-1.562-.83399-1.562-2.36036zm2.58447 0c0-1.19824-.38525-1.91211-1.02246-1.91211-.63037 0-1.02246.71387-1.02246 1.91211 0 1.19727.38525 1.91211 1.02246 1.91211.63037 0 1.02246-.71484 1.02246-1.91211z"/><path d="m93.44922 108.81543-1.08545.53223-.18213-.41309 1.35156-.67969h.42725v4.65039h-.51123z"/><path d="m95.12109 111.294 2.20606-3.03907h.36426v2.99024h.67968v.43457h-.67968v1.22558h-.50391v-1.22558h-2.06641zm1.12793-.04883h.93848v-1.10645c0-.41308.01367-.79785.03467-1.043l-1.53369 2.15628c.15429 0 .37841-.00688.56052-.00688z"/><path d="m56.731 109.417c0-.51074-.37793-.71387-.82617-.71387a2.39328 2.39328 0 0 0 -1.12061.30762l-.16113-.40625a2.73264 2.73264 0 0 1 1.32373-.34961c.90332 0 1.33056.49707 1.33056 1.13477 0 1.40723-1.91894 1.3584-2.17822 3.081h2.17139v.43457h-2.8086c.20305-2.43746 2.26905-2.34664 2.26905-3.48823z"/><path d="m58.08057 110.61523c0-1.52734.6372-2.36035 1.562-2.36035.91748 0 1.562.833 1.562 2.36035 0 1.52637-.64453 2.36036-1.562 2.36036-.9248 0-1.562-.83399-1.562-2.36036zm2.58447 0c0-1.19824-.38525-1.91211-1.02246-1.91211-.63037 0-1.02246.71387-1.02246 1.91211 0 1.19727.38525 1.91211 1.02246 1.91211.63042 0 1.02242-.71484 1.02242-1.91211z"/><path d="m63.10059 108.81543-1.08545.53223-.18213-.41309 1.35156-.67969h.42725v4.65039h-.51123z"/><path d="m66.99268 109.417c0-.51074-.37793-.71387-.82618-.71387a2.39327 2.39327 0 0 0 -1.1206.30762l-.16113-.40625a2.73264 2.73264 0 0 1 1.32373-.34961c.90332 0 1.33056.49707 1.33056 1.13477 0 1.40723-1.91894 1.3584-2.17822 3.081h2.17139v.43457h-2.8086c.20313-2.43746 2.26905-2.34664 2.26905-3.48823z"/><path d="m26.38184 109.417c0-.51074-.37793-.71387-.82618-.71387a2.39327 2.39327 0 0 0 -1.1206.30762l-.16113-.40625a2.73422 2.73422 0 0 1 1.32373-.34961c.90332 0 1.33056.49707 1.33056 1.13477 0 1.40723-1.91894 1.3584-2.17822 3.081h2.17139v.43457h-2.8086c.20313-2.43746 2.26905-2.34664 2.26905-3.48823z"/><path d="m27.73145 110.61523c0-1.52734.63769-2.36035 1.562-2.36035.91748 0 1.562.833 1.562 2.36035 0 1.52637-.64453 2.36036-1.562 2.36036-.92431 0-1.562-.83399-1.562-2.36036zm2.58447 0c0-1.19824-.38526-1.91211-1.02246-1.91211-.63037 0-1.02246.71387-1.02246 1.91211 0 1.19727.38525 1.91211 1.02246 1.91211.63037 0 1.02246-.71484 1.02246-1.91211z"/><path d="m32.75146 108.81543-1.08544.53223-.18213-.41309 1.35156-.67969h.42725v4.65039h-.51124z"/><path d="m34.46533 110.61523c0-1.52734.63721-2.36035 1.562-2.36035.91748 0 1.562.833 1.562 2.36035 0 1.52637-.64454 2.36036-1.562 2.36036-.92479 0-1.562-.83399-1.562-2.36036zm2.58447 0c0-1.19824-.38525-1.91211-1.02246-1.91211-.63037 0-1.02246.71387-1.02246 1.91211 0 1.19727.38526 1.91211 1.02246 1.91211.63037 0 1.02246-.71484 1.02246-1.91211z"/><path d="m1.63867 79.56055v-.86719a1.95486 1.95486 0 0 1 .21045-1.00195 1.34722 1.34722 0 0 1 1.24658-.666 1.33571 1.33571 0 0 1 1.28174.77149 2.24554 2.24554 0 0 1 .17481.94531v.30079h1.70214v.51758zm2.47949-.86133a1.43843 1.43843 0 0 0 -.14013-.67188.91527.91527 0 0 0 -.88233-.46875.95813.95813 0 0 0 -.86865.44141 1.30164 1.30164 0 0 0 -.15381.69336v.34964h2.04492z"/><path d="m2.94141 76.19434v-.43457l.42041-.0625a1.21408 1.21408 0 0 1 -.5044-.93165.77236.77236 0 0 1 .084-.35742l.46923.18164a.59967.59967 0 0 0 -.06982.28711c0 .23828.147.47657.47607.79883h2.4375v.51856z"/><path d="m4.59473 74.21289a1.54261 1.54261 0 1 1 0-3.06055 1.54175 1.54175 0 1 1 0 3.06055zm0-2.52051c-.76368 0-1.2959.38477-1.2959.98731 0 .61621.53222 1.002 1.2959 1.002.75634 0 1.28857-.38574 1.28857-.99512s-.53223-.99419-1.28857-.99419z"/><path d="m5.645 70.53125a1.49941 1.49941 0 0 0 .24512-.82617c0-.38477-.15381-.707-.53223-.707-.72119 0-.49023 1.54785-1.58984 1.54785-.5044 0-.91065-.38574-.91065-1.1211a2.30564 2.30564 0 0 1 .1543-.81933h.4551a1.91957 1.91957 0 0 0 -.18213.79883c0 .31445.105.63672.4624.63672.73535 0 .4834-1.56153 1.604-1.56153.65821 0 .97315.5459.97315 1.22559a1.88555 1.88555 0 0 1 -.27979.99414z"/><path d="m3.06055 67.77344a3.148 3.148 0 0 1 -.20313-1.09278 1.5585 1.5585 0 0 1 1.72315-1.68066 1.62211 1.62211 0 0 1 1.74365 1.67383 1.51152 1.51152 0 0 1 -.11865.58105h1.70849v.51856zm2.82275-1.08594c0-.749-.52539-1.15527-1.31689-1.15527a1.11311 1.11311 0 0 0 -1.26758 1.16308 1.83257 1.83257 0 0 0 .084.55957h2.36033a1.21666 1.21666 0 0 0 .14014-.56738z"/><path d="m4.55957 64.44141c-1.00879 0-1.70215-.55274-1.70215-1.3584 0-.84082.65869-1.3169 1.70215-1.3169h.126v2.14989a1.10047 1.10047 0 0 0 1.20459-1.10645 1.67117 1.67117 0 0 0 -.22412-.8125l.36425-.168a2.00106 2.00106 0 0 1 .294 1.05762 1.56352 1.56352 0 0 1 -1.76472 1.55474zm-.27344-2.13672c-.5039.00781-1.0083.25293-1.0083.77832 0 .5039.45508.81933 1.0083.82617z"/><path d="m2.94141 61.02588v-.43457l.42041-.063a1.2119 1.2119 0 0 1 -.5044-.93115.77079.77079 0 0 1 .084-.35742l.46923.18213a.5996.5996 0 0 0 -.06982.2871c0 .23829.147.47608.47607.79834h2.4375v.51856z"/><path d="m1.84912 58.79932a.3467.3467 0 1 1 0-.69336.33727.33727 0 0 1 .34326.35009.33135.33135 0 0 1 -.34326.34327zm1.09229-.09082v-.51123h3.313v.51123z"/><path d="m5.5542 56.95166h-2.19238v.56006h-.42041v-.56006h-.749l-.16845-.51123h.91748v-.98779l.42041.15429v.8335h2.10836c.28711 0 .41309-.11914.41309-.34326a.97142.97142 0 0 0 -.18213-.53906l.36426-.18213a1.45441 1.45441 0 0 1 .25879.833.68633.68633 0 0 1 -.77002.74268z"/><path d="m7.38184 55.21582a1.1189 1.1189 0 0 0 .0913-.45508c0-.43457-.31543-.7915-1.19775-1.05078l-3.334 1.457v-.55371l2.68261-1.13425v-.01416l-2.68259-.88964v-.5322l3.57226 1.23974c1.21875.42725 1.40039.93165 1.40039 1.47071a1.44746 1.44746 0 0 1 -.11181.58838z"/><path d="m5.645 50.043a1.50257 1.50257 0 0 0 .24512-.82666c0-.38526-.15381-.707-.53223-.707-.72119 0-.49023 1.54736-1.58984 1.54736-.5044 0-.91065-.38476-.91065-1.12012a2.31059 2.31059 0 0 1 .1543-.81982h.4551a1.9172 1.9172 0 0 0 -.18213.79834c0 .31543.105.63769.4624.63769.73535 0 .4834-1.562 1.604-1.562.65821 0 .97315.54639.97315 1.22559a1.89033 1.89033 0 0 1 -.27979.99463z"/><path d="m4.62939 47.46a1.64943 1.64943 0 0 1 -1.772-1.646 1.754 1.754 0 0 1 .20313-.82617h.45556a1.487 1.487 0 0 0 -.22412.79834 1.16592 1.16592 0 0 0 1.30274 1.1416c.81933 0 1.28857-.42724 1.28857-1.09961a1.56749 1.56749 0 0 0 -.22412-.79833l.36426-.16114a1.90051 1.90051 0 0 1 .30078 1.02246 1.54843 1.54843 0 0 1 -1.6948 1.56885z"/><path d="m4.59473 44.48486a1.54261 1.54261 0 1 1 0-3.06054 1.54174 1.54174 0 1 1 0 3.06054zm0-2.521c-.76368 0-1.2959.38476-1.2959.9873 0 .61621.53222 1.00147 1.2959 1.00147.75634 0 1.28857-.38526 1.28857-.99463s-.53223-.99413-1.28857-.99413z"/><path d="m2.94141 40.69824v-.43457l.42041-.063a1.21189 1.21189 0 0 1 -.5044-.93115.77079.77079 0 0 1 .084-.35742l.46923.18213a.59964.59964 0 0 0 -.06982.28711c0 .23828.147.47607.47607.79834h2.4375v.51855z"/><path d="m4.55957 38.7168c-1.00879 0-1.70215-.55323-1.70215-1.3584 0-.84082.65869-1.3169 1.70215-1.3169h.126v2.14991a1.10075 1.10075 0 0 0 1.20457-1.10641 1.6712 1.6712 0 0 0 -.22412-.8125l.36425-.168a2.00108 2.00108 0 0 1 .294 1.05762 1.56325 1.56325 0 0 1 -1.7647 1.55468zm-.27344-2.13623c-.5039.00732-1.0083.25244-1.0083.77783 0 .5039.45508.81933 1.0083.82617z"/></g><g clip-path="url(#a)" fill="#e7e23e" fill-rule="evenodd"><path d="m232.796 74.504.09-.092.139-.166.025-.165.18-.363.302-.279.302-.061.068-.251.191-.276.226-.211.245-.108.215-.057.22-.039.097.097-.073.286-.181.347-.393.271-.504.206-.212.071-.073.08-.01.271-.077.178-.218.051-.17-.02-.032.005-.053.067-.081.142h-.072l-.059.013-.085.058z"/><path d="m232.796 74.504.09-.092.139-.166.025-.165.18-.363.302-.279.302-.061.068-.251.191-.276.226-.211.245-.108.215-.057.22-.039.097.097-.073.286-.181.347-.393.271-.504.206-.212.071-.073.08-.01.271-.077.178-.218.051-.17-.02-.032.005-.053.067-.081.142h-.072l-.059.013-.085.058z"/></g><g clip-path="url(#a)"><path d="m232.796 74.504.09-.092.139-.166.025-.165.18-.363.302-.279.302-.061.068-.251.191-.276.226-.211.245-.108.215-.057.22-.039.097.097-.073.286-.181.347-.393.271-.504.206-.212.071-.073.08-.01.271-.077.178-.218.051-.17-.02-.032.005-.053.067-.081.142h-.072l-.059.013-.085.058z" fill="#fff" fill-rule="evenodd"/></g></svg>