<svg viewBox="0 0 233.85827 121.88976" xmlns="http://www.w3.org/2000/svg" xmlns:xlink="http://www.w3.org/1999/xlink"><clipPath id="a"><path d="m101.63221 25.01467h.44339v.44339h-.44339z"/></clipPath><clipPath id="b"><path d="m174.51453 29.64253h24.59622v24.59622h-24.59622z"/></clipPath><clipPath id="c"><path d="m178.09053 32.97774h17.44501v15.15201h-17.44501z"/></clipPath><clipPath id="d"><path d="m174.51453 67.45962h24.59622v24.59622h-24.59622z"/></clipPath><path d="m16.24526 104.9896h166.91812" fill="none" stroke="#57afc5" stroke-miterlimit="10" stroke-width=".92211"/><path d="m7.044 107.64664a2.4963 2.4963 0 0 0 .99462.20313c.65821 0 1.20459-.28027 1.20459-.92481a.73734.73734 0 0 0 -.6582-.76367 2.77929 2.77929 0 0 0 -.5957-.04883h-.50396v-.4414h.42725c.91748 0 1.20459-.39942 1.20459-.86817a.73718.73718 0 0 0 -.84082-.77734 2.33051 2.33051 0 0 0 -1.09961.30762l-.16065-.40625a2.69763 2.69763 0 0 1 1.29541-.34961 1.18613 1.18613 0 0 1 1.34473 1.19043 1.05594 1.05594 0 0 1 -.74219 1.06445v.01465a1.01654 1.01654 0 0 1 .86817 1.07129c0 .75586-.55323 1.37988-1.751 1.37988a2.83673 2.83673 0 0 1 -1.12744-.22461z" fill="#57afc5"/><path d="m10.69092 105.93766c0-1.52734.6372-2.36035 1.562-2.36035.91748 0 1.562.833 1.562 2.36035 0 1.52637-.64453 2.36035-1.562 2.36035-.9248-.00001-1.562-.83401-1.562-2.36035zm2.58447 0c0-1.19824-.38525-1.91211-1.02246-1.91211-.63037 0-1.02246.71387-1.02246 1.91211 0 1.19726.38525 1.91211 1.02246 1.91211.63037 0 1.02246-.71485 1.02246-1.91211z" fill="#57afc5"/><path d="m9.0332 11.93473h-2.0942l-.11914-.43359h2.89254v.21679a10.42153 10.42153 0 0 0 -1.93994 4.39844h-.53955a10.46692 10.46692 0 0 1 1.80029-4.18164z" fill="#57afc5"/><path d="m10.26367 13.82633c0-1.52734.6377-2.36035 1.562-2.36035.91748 0 1.562.833 1.562 2.36035 0 1.52637-.64454 2.36035-1.562 2.36035-.9243 0-1.562-.83398-1.562-2.36035zm2.58447 0c0-1.19824-.38525-1.91211-1.02246-1.91211-.63037 0-1.02246.71387-1.02246 1.91211 0 1.19727.38526 1.91211 1.02246 1.91211.63037 0 1.02246-.71484 1.02246-1.91211z" fill="#57afc5"/><path d="m16.24526 104.9896v-92.11149" fill="none" stroke="#57afc5" stroke-linecap="square" stroke-miterlimit="10" stroke-width=".92211"/><path d="m41.28298 72.29002-16.69182.25331" fill="none" stroke="#57afc5" stroke-linecap="round" stroke-miterlimit="10" stroke-width="1.84422"/><path d="m57.97479 72.26699-16.69181.02303" fill="none" stroke="#57afc5" stroke-linecap="round" stroke-miterlimit="10" stroke-width="1.84422"/><path d="m74.6666 71.62221-16.69181.64478" fill="none" stroke="#57afc5" stroke-linecap="round" stroke-miterlimit="10" stroke-width="1.84422"/><path d="m91.35841 80.05042-16.69181-8.42821" fill="none" stroke="#57afc5" stroke-linecap="round" stroke-miterlimit="10" stroke-width="1.84422"/><path d="m108.05023 81.06364-16.69182-1.01322" fill="none" stroke="#57afc5" stroke-linecap="round" stroke-miterlimit="10" stroke-width="1.84422"/><path d="m124.74204 80.09647-16.69181.96717" fill="none" stroke="#57afc5" stroke-linecap="round" stroke-miterlimit="10" stroke-width="1.84422"/><path d="m141.43385 79.93528-16.69181.16119" fill="none" stroke="#57afc5" stroke-linecap="round" stroke-miterlimit="10" stroke-width="1.84422"/><path d="m158.12566 78.09305-16.69181 1.84223" fill="none" stroke="#57afc5" stroke-linecap="round" stroke-miterlimit="10" stroke-width="1.84422"/><path d="m174.81748 79.47472-16.69182-1.38167" fill="none" stroke="#57afc5" stroke-linecap="round" stroke-miterlimit="10" stroke-width="1.84422"/><path d="m41.28298 55.87115-16.69182-1.24351" fill="none" stroke="#57afc5" stroke-linecap="round" stroke-miterlimit="10" stroke-width="1.84422"/><path d="m57.97479 54.69673-16.69181 1.17442" fill="none" stroke="#57afc5" stroke-linecap="round" stroke-miterlimit="10" stroke-width="1.84422"/><path d="m74.6666 51.54191-16.69181 3.15482" fill="none" stroke="#57afc5" stroke-linecap="round" stroke-miterlimit="10" stroke-width="1.84422"/><path d="m91.35841 52.99266-16.69181-1.45075" fill="none" stroke="#57afc5" stroke-linecap="round" stroke-miterlimit="10" stroke-width="1.84422"/><path d="m108.05023 47.18964-16.69182 5.80302" fill="none" stroke="#57afc5" stroke-linecap="round" stroke-miterlimit="10" stroke-width="1.84422"/><path d="m124.74204 45.27833-16.69181 1.91131" fill="none" stroke="#57afc5" stroke-linecap="round" stroke-miterlimit="10" stroke-width="1.84422"/><path d="m141.43385 42.23865-16.69181 3.03968" fill="none" stroke="#57afc5" stroke-linecap="round" stroke-miterlimit="10" stroke-width="1.84422"/><path d="m158.12566 41.89323-16.69181.34542" fill="none" stroke="#57afc5" stroke-linecap="round" stroke-miterlimit="10" stroke-width="1.84422"/><path d="m174.81748 41.89323h-16.69182" fill="none" stroke="#57afc5" stroke-linecap="round" stroke-miterlimit="10" stroke-width="1.84422"/><g fill="#57afc5"><path d="m171.97559 109.41715c0-.51074-.37891-.71387-.82715-.71387a2.38953 2.38953 0 0 0 -1.12012.30762l-.16113-.40625a2.73215 2.73215 0 0 1 1.32324-.34961c.90332 0 1.33105.49707 1.33105 1.13477 0 1.40722-1.91894 1.3584-2.17773 3.08105h2.1709v.43457h-2.8086c.20313-2.4375 2.26954-2.34668 2.26954-3.48828z"/><path d="m173.3252 110.61539c0-1.52734.63769-2.36035 1.56152-2.36035.918 0 1.5625.833 1.5625 2.36035 0 1.52637-.64453 2.36036-1.5625 2.36036-.92383 0-1.56152-.83399-1.56152-2.36036zm2.585 0c0-1.19824-.38575-1.91211-1.02344-1.91211-.62988 0-1.02246.71387-1.02246 1.91211 0 1.19727.38574 1.91211 1.02246 1.91211.63082 0 1.0234-.71484 1.0234-1.91211z"/><path d="m179.36719 109.41715c0-.51074-.37891-.71387-.82715-.71387a2.38953 2.38953 0 0 0 -1.12012.30762l-.16113-.40625a2.73215 2.73215 0 0 1 1.32324-.34961c.90332 0 1.33106.49707 1.33106 1.13477 0 1.40722-1.919 1.3584-2.17774 3.08105h2.1709v.43457h-2.80859c.20312-2.4375 2.26953-2.34668 2.26953-3.48828z"/><path d="m180.7168 110.61539c0-1.52734.63769-2.36035 1.56152-2.36035.918 0 1.5625.833 1.5625 2.36035 0 1.52637-.64453 2.36036-1.5625 2.36036-.92383 0-1.56152-.83399-1.56152-2.36036zm2.585 0c0-1.19824-.38574-1.91211-1.02344-1.91211-.62988 0-1.02246.71387-1.02246 1.91211 0 1.19727.38574 1.91211 1.02246 1.91211.63082 0 1.0234-.71484 1.0234-1.91211z"/><path d="m17.81738 109.41715c0-.51074-.37793-.71387-.82617-.71387a2.39327 2.39327 0 0 0 -1.1206.30762l-.16114-.40625a2.73429 2.73429 0 0 1 1.32373-.34961c.90332 0 1.33057.49707 1.33057 1.13477 0 1.40722-1.91895 1.3584-2.17822 3.08105h2.17138v.43457h-2.80859c.20312-2.4375 2.26904-2.34668 2.26904-3.48828z"/><path d="m19.167 110.61539c0-1.52734.6377-2.36035 1.562-2.36035.91748 0 1.562.833 1.562 2.36035 0 1.52637-.64454 2.36036-1.562 2.36036-.92431 0-1.562-.83399-1.562-2.36036zm2.58447 0c0-1.19824-.38525-1.91211-1.02246-1.91211-.63037 0-1.02246.71387-1.02246 1.91211 0 1.19727.38526 1.91211 1.02246 1.91211.63037 0 1.02245-.71484 1.02245-1.91211z"/><path d="m24.187 108.81559-1.08545.53223-.18213-.41309 1.35158-.67973h.42724v4.65039h-.51124z"/><path d="m25.90088 110.61539c0-1.52734.63721-2.36035 1.562-2.36035.91748 0 1.562.833 1.562 2.36035 0 1.52637-.64453 2.36036-1.562 2.36036-.92479 0-1.562-.83399-1.562-2.36036zm2.58447 0c0-1.19824-.38525-1.91211-1.02246-1.91211-.63037 0-1.02246.71387-1.02246 1.91211 0 1.19727.38525 1.91211 1.02246 1.91211.63037 0 1.02246-.71484 1.02246-1.91211z"/><path d="m1.36133 79.56071v-.86719a1.95486 1.95486 0 0 1 .21045-1.002 1.34722 1.34722 0 0 1 1.24658-.666 1.33574 1.33574 0 0 1 1.28174.77148 2.24564 2.24564 0 0 1 .1748.94532v.30078h1.70215v.51758zm2.47949-.86133a1.43829 1.43829 0 0 0 -.14014-.67188.91524.91524 0 0 0 -.88232-.46875.95812.95812 0 0 0 -.86865.44141 1.30164 1.30164 0 0 0 -.15381.69336v.34961h2.04492z"/><path d="m2.66406 76.1945v-.43458l.42041-.0625a1.21406 1.21406 0 0 1 -.50439-.93164.77236.77236 0 0 1 .084-.35742l.46922.18164a.59967.59967 0 0 0 -.06982.28711c0 .23828.147.47656.47607.79883h2.4375v.51856z"/><path d="m4.31738 74.21305a1.54261 1.54261 0 1 1 0-3.06055 1.54175 1.54175 0 1 1 0 3.06055zm0-2.52051c-.76367 0-1.2959.38477-1.2959.98731 0 .61621.53223 1.00195 1.2959 1.00195.75635 0 1.28858-.38574 1.28858-.99512s-.53223-.99414-1.28858-.99414z"/><path d="m5.36768 70.53141a1.49941 1.49941 0 0 0 .24511-.82617c0-.38477-.15381-.707-.53222-.707-.72119 0-.49024 1.54785-1.58985 1.54785-.50439 0-.91064-.38574-.91064-1.1211a2.30555 2.30555 0 0 1 .1543-.81933h.45507a1.91973 1.91973 0 0 0 -.18213.79883c0 .31445.105.63671.46241.63671.73535 0 .48339-1.56152 1.604-1.56152.6582 0 .97315.5459.97315 1.22559a1.88564 1.88564 0 0 1 -.27979.99414z"/><path d="m2.7832 67.7736a3.14823 3.14823 0 0 1 -.20312-1.09278 1.5585 1.5585 0 0 1 1.72314-1.68066 1.62212 1.62212 0 0 1 1.74366 1.67384 1.51133 1.51133 0 0 1 -.11866.581h1.7085v.51856zm2.8228-1.08594c0-.749-.52539-1.15527-1.3169-1.15527a1.11311 1.11311 0 0 0 -1.26758 1.16308 1.83262 1.83262 0 0 0 .084.55957h2.3603a1.21666 1.21666 0 0 0 .14018-.56738z"/><path d="m4.28223 64.44157c-1.00879 0-1.70215-.55274-1.70215-1.3584 0-.84082.65869-1.31739 1.70215-1.31739h.126v2.15039a1.10046 1.10046 0 0 0 1.20459-1.10644 1.67106 1.67106 0 0 0 -.22412-.8125l.36426-.168a2.00115 2.00115 0 0 1 .29395 1.05762 1.56352 1.56352 0 0 1 -1.76468 1.55472zm-.27344-2.13672c-.50391.00781-1.0083.25293-1.0083.77832 0 .5039.45508.81933 1.0083.82617z"/><path d="m2.66406 61.02555v-.43355l.42041-.06348a1.21114 1.21114 0 0 1 -.50439-.93066.76933.76933 0 0 1 .084-.35743l.46924.18164a.59967.59967 0 0 0 -.06982.28711c0 .23828.147.47657.47607.79883h2.4375v.51758z"/><path d="m1.57178 58.799a.3467.3467 0 1 1 0-.69336.338.338 0 0 1 .34326.35058.331.331 0 0 1 -.34326.34278zm1.09228-.08985v-.51172h3.313v.51172z"/><path d="m5.27686 56.95133h-2.19239v.56055h-.42041v-.56055h-.74906l-.16846-.51074h.91748v-.98731l.42041.1543v.833h2.1084c.28711 0 .41309-.11914.41309-.34277a.97012.97012 0 0 0 -.18213-.53907l.36426-.18261a1.45441 1.45441 0 0 1 .25879.833.686.686 0 0 1 -.76998.7422z"/><path d="m7.10449 55.216a1.1189 1.1189 0 0 0 .09131-.45508c0-.43457-.31543-.792-1.19775-1.05078l-3.334 1.457v-.55371l2.68262-1.13477v-.01366l-2.68262-.88965v-.53222l3.57227 1.24023c1.21875.42676 1.40039.93164 1.40039 1.47071a1.4482 1.4482 0 0 1 -.11182.58789z"/><path d="m5.36768 50.04313a1.50211 1.50211 0 0 0 .24511-.82617c0-.38575-.15381-.707-.53222-.707-.72119 0-.49024 1.54688-1.58985 1.54688-.50439 0-.91064-.38477-.91064-1.12012a2.30555 2.30555 0 0 1 .1543-.81933h.45507a1.915 1.915 0 0 0 -.18213.79785c0 .31543.105.63769.46241.63769.73535 0 .48339-1.5625 1.604-1.5625.6582 0 .97315.54688.97315 1.22657a1.89137 1.89137 0 0 1 -.27979.99414z"/><path d="m4.35205 47.46012a1.64933 1.64933 0 0 1 -1.772-1.64551 1.751 1.751 0 0 1 .20312-.82617h.45557a1.484 1.484 0 0 0 -.22412.79785 1.16565 1.16565 0 0 0 1.30273 1.1416c.81934 0 1.28858-.42773 1.28858-1.09961a1.571 1.571 0 0 0 -.22412-.79882l.36425-.16016a1.89686 1.89686 0 0 1 .30079 1.02148 1.54881 1.54881 0 0 1 -1.6948 1.56934z"/><path d="m4.31738 44.48453a1.54261 1.54261 0 1 1 0-3.06054 1.54175 1.54175 0 1 1 0 3.06054zm0-2.5205c-.76367 0-1.2959.38476-1.2959.9873 0 .61621.53223 1.002 1.2959 1.002.75635 0 1.28858-.38574 1.28858-.99511s-.53223-.99422-1.28858-.99422z"/><path d="m2.66406 40.6984v-.43457l.42041-.0625a1.21406 1.21406 0 0 1 -.50439-.93164.77233.77233 0 0 1 .084-.35742l.46924.18164a.59964.59964 0 0 0 -.06982.28711c0 .23828.147.47656.47607.79883h2.4375v.51855z"/><path d="m4.28223 38.717c-1.00879 0-1.70215-.55274-1.70215-1.3584 0-.84082.65869-1.31739 1.70215-1.31739h.126v2.1504a1.10047 1.10047 0 0 0 1.20459-1.10645 1.67106 1.67106 0 0 0 -.22412-.8125l.36426-.168a2.00115 2.00115 0 0 1 .29395 1.05762 1.56352 1.56352 0 0 1 -1.76468 1.55472zm-.27344-2.13672c-.50391.00781-1.0083.25293-1.0083.77832 0 .5039.45508.81933 1.0083.82617z"/></g><g clip-path="url(#a)"><g clip-path="url(#a)"><path d="m102.07561 25.23637a.2217.2217 0 1 1 -.22169-.2217.2217.2217 0 0 1 .22169.2217" fill="#a8bf5b"/><path d="m101.9873 25.18922h-.2668c-.00887 0-.01307-.009-.00642-.01381l.13335-.09709h.01283l.13334.09709c.00664.0048.0024.01381-.0063.01381z" fill="none" stroke="#fff" stroke-miterlimit="10" stroke-width=".01498"/><path d="m101.75212 25.18922h.20559a.00928.00928 0 0 1 .00928.00928v.1653a.01119.01119 0 0 1 -.01119.01119h-.20572a.00928.00928 0 0 1 -.00928-.00928v-.16518a.01132.01132 0 0 1 .01132-.01131z" fill="none" stroke="#fff" stroke-miterlimit="10" stroke-width=".01498"/><g fill="#fff"><path d="m101.82708 25.30516h.05359v.07407h-.05359z"/><path d="m101.88886 25.22012h.04615v.03789h-.04615z"/><path d="m101.77273 25.22012h.04615v.03789h-.04615z"/><path d="m101.967 25.156-.043-.031v-.032h.043z"/></g></g></g><g clip-path="url(#b)"><g clip-path="url(#b)"><path d="m199.11054 41.94055a12.298 12.298 0 1 1 -12.298-12.298 12.298 12.298 0 0 1 12.298 12.298" fill="#57afc5"/></g><g clip-path="url(#c)" fill="#fff"><path d="m186.81243 33.90914 6.95 4.792h-13.9zm5.305 11.663h-2.022v-6.03h2.022zm-2.862 0h-2.021v-6.03h2.021zm-2.863 0h-2.021v-6.03h2.021zm-2.862 0h-2.022v-6.03h2.022zm-5.019-6.03h2.156v6.03h-1.049a.4205.4205 0 0 0 0 .841h14.389a.4205.4205 0 1 0 0-.841h-1.048v-6.03h2.155a.41983.41983 0 0 0 .238-.766l-8.301-5.725a.4237.4237 0 0 0 -.477 0l-8.302 5.725a.41983.41983 0 0 0 .239.766"/><path d="m195.114 47.28915h-16.603a.4205.4205 0 0 0 0 .841h16.603a.4205.4205 0 0 0 0-.841"/></g></g><g clip-path="url(#d)"><g clip-path="url(#d)"><path d="m199.111 79.75744a12.29851 12.29851 0 1 1 -12.298-12.298 12.29885 12.29885 0 0 1 12.298 12.298" fill="#57afc5"/><g fill="#fff"><path d="m189.82564 78.62374v2.971h-1.282a.20835.20835 0 0 0 -.052.011.301.301 0 0 0 -.099.02.33521.33521 0 0 0 -.075.039.51915.51915 0 0 0 -.062.042.4537.4537 0 0 0 -.07.082c-.01.018-.024.032-.033.052a.49665.49665 0 0 0 -.032.099c-.004.02-.015.034-.017.053l-.535 5.349h-1.502l-.535-5.349a.32887.32887 0 0 0 -.015-.048.457.457 0 0 0 -.036-.108.185.185 0 0 0 -.025-.037.3575.3575 0 0 0 -.083-.098.23638.23638 0 0 0 -.038-.024.47719.47719 0 0 0 -.098-.056.62187.62187 0 0 0 -.088-.016.2438.2438 0 0 0 -.055-.011h-1.282v-2.971c0-.007-.004-.012-.004-.019 0-.006.004-.012.004-.017a3.007 3.007 0 1 1 6.014 0c0 .005.004.011.004.017 0 .007-.004.012-.004.019m-4.29-5.786a1.283 1.283 0 1 1 1.282 1.284 1.28311 1.28311 0 0 1 -1.282-1.284m5.172 9.198v-3.412l-.002-.019.002-.017a3.89349 3.89349 0 0 0 -3.002-3.779 2.165 2.165 0 1 0 -1.776 0 3.89438 3.89438 0 0 0 -3.003 3.779c0 .005.004.011.004.017 0 .007-.004.012-.004.019v3.412a.44214.44214 0 0 0 .443.441h1.325l.534 5.35a.44072.44072 0 0 0 .439.398h2.3a.44072.44072 0 0 0 .439-.398l.534-5.35h1.325a.44129.44129 0 0 0 .442-.441"/><path d="m190.99544 73.98993a1.2835 1.2835 0 1 1 1.282 1.282 1.28353 1.28353 0 0 1 -1.282-1.282m4.599 5.746c0-1.963-.958-3.371-2.445-3.767a2.1638 2.1638 0 1 0 -1.277.146.46774.46774 0 0 0 -.034.173.44023.44023 0 0 0 .439.442c1.796 0 2.435 1.552 2.435 3.006l.002.02-.002.017v1.822h-.709c-.019 0-.035.009-.053.01a.33814.33814 0 0 0 -.07.016.403.403 0 0 0 -.096.039c-.019.011-.034.023-.051.035a.7878.7878 0 0 0 -.072.069.49684.49684 0 0 0 -.039.062 9.01467 9.01467 0 0 0 -.053.129l-.794 4.239h-1.005l-.499-2.242a.441.441 0 0 0 -.861.191l.576 2.587a.44075.44075 0 0 0 .43.347h1.724a.44246.44246 0 0 0 .433-.361l.794-4.238h.785a.44214.44214 0 0 0 .442-.442v-2.263c0-.006-.004-.012-.004-.017 0-.006.004-.012.004-.02"/><path d="m180.07533 73.98883a1.283 1.283 0 1 1 1.283 1.283 1.28546 1.28546 0 0 1 -1.283-1.283m2.815 9.628a.4366.4366 0 0 0 -.526.334l-.498 2.242h-1.004l-.795-4.237c-.004-.016-.012-.027-.017-.042a.44868.44868 0 0 0 -.076-.146.32432.32432 0 0 0 -.075-.073.27894.27894 0 0 0 -.05-.036.55158.55158 0 0 0 -.093-.039.335.335 0 0 0 -.072-.016.488.488 0 0 0 -.051-.008h-.71v-1.824l-.002-.016.002-.02c0-1.452.641-3.005 2.434-3.005a.44279.44279 0 0 0 .441-.443.44893.44893 0 0 0 -.036-.175 2.16089 2.16089 0 1 0 -1.275-.142c-1.488.392-2.446 1.801-2.446 3.765 0 .008.004.013.004.02 0 .006-.004.011-.004.016v2.265a.44236.44236 0 0 0 .442.44h.784l.795 4.239a.43965.43965 0 0 0 .433.36h1.724a.44263.44263 0 0 0 .431-.346l.574-2.587a.4412.4412 0 0 0 -.334-.526"/></g></g></g><g fill="#1b1b1b" opacity=".1"><path d="m163.55968 22.16361a4.19882 4.19882 0 0 0 -.98747-1.40249.86018.86018 0 0 1 -.16856-.07248 2.28139 2.28139 0 0 0 -.30473-1.126l-.21371-.7194h-.00009l.00007-.00006c-.02409-.61563-.37841-.77089-.92239-.66159h-.00006l-.23712-.06046c-.49081-.16687-.73175.21555-1.03136.46916-.43586.16306-.66894-.28221-1.04666-.37685l-.5046 1.82616c-.3501.48369.06881.94635.03888 1.4213-.57012.707.24713 1.61235-.3314 2.31812-.21668.49645-.26924 1.074-.71874 1.45543l-.46522.02464a.254.254 0 0 0 -.20307-.0078c-.48523.36094-.11331 1.01541-.48468 1.41538-1.19-.50318-2.11464.66378-3.2507.53362-.00987-.00114-.05121.27162-.07786.41651l-.21577.20882-.21242-.05177a1.32156 1.32156 0 0 0 -2.03414.285l-.00047.00044c-.29866.02678-.65156-.14544-.85449.23281q-.16322.10265-.32627.20536l-.00036.00006c-.21469-.06934-.35321-.00772-.39091.22725a.9721.9721 0 0 0 -.48136.71574 3.97906 3.97906 0 0 1 -.87971 1.28643c-.43871.31917-.19527.54561.20744.66635v-.00028l.00008.00026c.345.38815-.25625.8137.04756 1.2035-.41147.218-.84121.41539-1.01532.90088a12.03833 12.03833 0 0 1 -2.09791.72917c-.33071-.47533-.79089-.20425-1.20328-.20863-1.36166.34756-1.389.37987-1.01286 1.198.43867 1.06736-.36507 1.64459-.91587 2.32162-.18469.00716-.40525-.02208-.445.22723-.02838.17768.10621.27606.27545.269.30212-.01259.60334-.047.90492-.07233l.47123-.12439.01456.40558q-.5931.14415-1.18625.28829c-.58169.08413-1.26149-.67353-1.75076.204-.4448-.14774-.47052.24244-.61552.47956a1.32493 1.32493 0 0 0 -.79709.44171c-.30537.05124-.61888.09223-.63559.506h-.0001l-.229.24567a2.704 2.704 0 0 1 -1.41627.487c-.40845.06073-.65494.54971-1.13228.42827a.931.931 0 0 0 -.72758-.228c-.4191-.3709-1.00457-.18766-1.45976-.43831l-.00851-.27688q.49966-1.4813.99937-2.96254c.37172-.14455.789-.25349.63382-.81022a11.96455 11.96455 0 0 0 -.30077-1.46338c-.20359-.61334-.54352-1.12371-1.33781-.93371a.71792.71792 0 0 0 -.47084.711c-.39817-.00139-.70887.38407-1.13551.25679a1.38672 1.38672 0 0 1 -.26559-1.15593c.53454-.20186.38251-.82946.71658-1.1556.73938-.51561.40311-1.03939.0119-1.56363.01317-.73052-.16224-1.34311-.97413-1.55768l-.66979-.11093a1.24828 1.24828 0 0 0 -.75334-.34365c-1.08072-.41957-.76276.38685-.78476.89537l-.20378.24747c-.57987.26738-.15209.78912-.29429 1.16693l-.0003.00021-.02661.00652-.00051.00006c-.11775.44635-.68337.0984-.84269.471a.63656.63656 0 0 0 -.74436.47967c-.33705.53614-.12549 1.14905-.24025 1.7163a.62057.62057 0 0 0 .05316.1855c-.32266.48657-.06908.95695.04031 1.43136.23306.51857.18016 1.20771.868 1.45492-.07186.22321-.30486.40922-.15766.683l-.23045 1.89528-.48157.8905-.49.47967a.83755.83755 0 0 0 -.5115.44115l-.68573.08435-.4976-.22336a4.50011 4.50011 0 0 1 -.91079-1.94213l-.0327-.46411a.509.509 0 0 0 .00271-.23266l-.24342-.68638a.97868.97868 0 0 0 -.18018-1.01011 1.81483 1.81483 0 0 1 .2412-1.12236l-.04433-.23938a3.22593 3.22593 0 0 0 .02-1.39862l-.00614-.00387a.71361.71361 0 0 1 .12976.04739c.26113-.12032.25076-.315.14624-.53548-.31391-.63724.66973-1.00466.3759-1.68733-.56882.25363-.7279.967-1.36865 1.06838-.21617-.36113.0202-.70787-.02953-1.04569l-.02284.00056.00082-.00165.022.001c.27061-.25984.56943-.5065.44431-.95118a3.91934 3.91934 0 0 1 -.50348-1.61077l.50147-.02873c.19746.34662-.242 1.20118.73721.92433l.26927-.69825a.91141.91141 0 0 0 .26409-.69255 1.30129 1.30129 0 0 1 .20078-.089c.41572-.1508.9032-.0601 1.27248-.37308l.00124-.23813a11.16388 11.16388 0 0 1 3.227-.53056l.71311.06521a.59034.59034 0 0 0 .71382-.01789.986.986 0 0 1 .22-.02473c-.01338-.28444-.19969-.40911-.44376-.48048-.42728-.884-1.27525-.27393-1.87955-.52924-.15733-.5334-.38627-.89727-.974-.41115a3.391 3.391 0 0 0 -2.37618.9979c-.50917-.484-1.31843.17557-1.78891-.47509a1.291 1.291 0 0 0 -1.98921-.27175.08779.08779 0 0 0 -.14235-.045.30127.30127 0 0 1 -.17322-.14294l.17322.14294a1.32387 1.32387 0 0 1 .02139-.78272c.0731-.17418.412-.33974.17959-.51973a.49671.49671 0 0 0 -.68734.18644c-.109.14819-.21955.29524-.32942.44278h.00005-.00005c-.4409-.07531-.60535.4083-.97291.48125l.26028.19382a.97022.97022 0 0 0 -1.11252.50429c-.20441.22323-.44965.443-.06.716q-.14745.1377-.29485.27541h-.00009q-.08736-.02141-.1728-.04946a.5764.5764 0 0 0 -.682-.4911v.00006l-.00011-.0001c-.31214-.49416-.82624-.00422-1.19052-.24435a4.423 4.423 0 0 0 .03661-.61817 1.12844 1.12844 0 0 0 -1.00121.42018l-.26817-.00791v.00026h-.00005c-.55674.06814-.93314-.03636-.6964-.72763.11854-.32653.64077-.2673.659-.68974.178-.31947.70538-.2381.77816-.67827a2.857 2.857 0 0 0 .99307-.96582h.0001c.2185.06.42027.08562.45789-.22409l.1007-.00936.09827.02387.09486-.05741.11069.0061c.16328-.259.62472.12407.69976-.325-.51594-.64414-1.206-.39381-1.85364-.36066h-.00005c-.41159-.33318-.69826-.08661-.97415.20989l-.63733-.01445a2.12538 2.12538 0 0 0 -1.70411-.44763c-.50992-1.03776-1.5235-1.29543-2.17461-.55284l-.55868.04685c-.07675-.32143-.29566-.29382-.53436-.21767a.77146.77146 0 0 0 -.96366-.47646c-.77459-.34-.30129-1.18939-.7661-1.835-.12324.98343-.75566.91941-1.42429.95622-.85737.04719-1.74941-.29425-2.57461.18373h.00007-.00009l-.03522.70278-.47044-.23141-.01242-.23272c.024-.47666-.3208-.44663-.62886-.44772-1.041-.00365-2.082-.00006-3.123.00077l-1.41591-.01772q-1.74086-.01917-3.48171-.03839l-.54467-.20185-.94547.03593c-.9378-.22635-1.92926.02939-2.85364-.31759l.02554.08081c-.00784.00731-.01361.015-.02108.02234l-.00446-.10315-.22539-.19684-1.24329.03082a1.2566 1.2566 0 0 1 .2639.04286c-.08492-.01718-.17315-.03121-.26392-.04283l-.89091.00042-1.11058-.07051a23.73376 23.73376 0 0 0 -4.3079-.49681 1.7523 1.7523 0 0 0 -.98022-.13624l-1.117-.07141a8.18091 8.18091 0 0 0 -2.43106-.41886l-.44211-.03521a8.62526 8.62526 0 0 0 -2.17041-.40851l-1.64833-.2387-.668-.07124a.05888.05888 0 0 1 -.01913.02257c.00681-.00731.01205-.01539.01911-.02257a.90756.90756 0 0 0 -.75138-.17587l-1.42356-.23428-.88154-.07853a1.08848 1.08848 0 0 0 -.77717-.17276l-.66857-.04585a8.3817 8.3817 0 0 0 -2.16329-.45218l-.56885-.19418-.625-.00447a.83513.83513 0 0 0 -.69675-.03482c-.238-.1624-.47674-.25167-.71857-.00669l-.44143-.322v.00007l-.00005-.00011q-2.85623-.756-5.71245-1.512c-.21819-.14388-.29607.08868-.43351.16153-.64732-.91748-1.74278-.60816-2.6004-.94992a1.0672 1.0672 0 0 0 -.968-.19878l.43139.96347v.00006c-.32864.63344-.51983 1.25009.214 1.75387-.895.37373-1.01923 1.53031-1.924 1.89413q.104-1.02373.20816-2.04742h-.00011c.04948-.37815-.26469-.37263-.48649-.50981-.60139-.372-1.38167-.38283-1.87677-.97413-.18614-.22232-.469-.56023-.75914-.38751-.34685.20649-.11894.61584-.06413.94123.14937.57009-.19406 1.18984.17524 1.7377-.48044.52526-.15844.89755.23928 1.25539-.74678.22678-.082.91788-.4207 1.27882h.00008-.00008c-.103.20359-.80759.35152-.05091.63686.20213.07622.46137.16022.38131.48324l-.12769.23637c-.38072.00114-.71009-.205-.87939.49823a28.27524 28.27524 0 0 1 -1.31034 3.39311 5.26417 5.26417 0 0 0 -.66238 2.0834c-.12181.03435-.24456.068-.18371.24135l-.01878.24075c-.62.50746-1.37537.93089-1.19874 1.93247-.63343.44413-.87046 2.31577-.33873 2.78259.06019.05284.22614-.01479.343-.02656l.258.28453c-1.12266-.02788-.93849.67179-.76131 1.36756a1.71624 1.71624 0 0 0 -.49466 1.13514c-1.53276 1.13433-1.33057 2.48513-.48854 3.91575l-.17706.68512a2.65662 2.65662 0 0 0 -.19267 2.11178c.08272.28367.14742.57871.45477.72055l.37468.50271a9.769 9.769 0 0 0 -.03268 1.23919c.02319.25615.12245.58967.53635.37559.658.00252.34731.727.70852.95064l.09132.238-.53157.257a.40365.40365 0 0 0 -.22043.00436.3593.3593 0 0 0 -.07517-.08239.18348.18348 0 0 0 -.10225-.01936 1.49861 1.49861 0 0 0 .1522 1.51232c.05991.09836.10447.22329.26251.1516v-.00006.00006l.528.55393c-.16727.28908.07584.65654-.22833.94188-.48658.4564-.38236.87192.18862 1.1874l.50973 1.41768v.00008a2.23107 2.23107 0 0 0 .87158 1.23621c-.19484.58451.17609 1.07786.26065 1.61735-.55059.79654-.5389 1.36047.6027 1.457.76959.49314 1.76112.65988 2.2667 1.54127.027.41906.34343.33826.60584.35072l.77832.43945c-.14591.75294.566.83687.92983 1.19234l.54625.69315a4.03866 4.03866 0 0 1 .70361 2.54415c-.04506.329.02868.56311.49082.595 1.32585.09152 2.64662.25667 3.96936.39291l.69435.07432.72893.44207c-.0613.35819.16364.45775.45189.50009.84412.52164 1.67227 1.072 2.53887 1.55308.4506.25012.83262.744 1.45806.558a.5298.5298 0 0 0 .48683.53867 2.24046 2.24046 0 0 0 .98813.58305l2.27532 1.28269c.18793.30625.48315.20876.75473.20031.59017.38987 1.32812.09277 1.93268.41581l.24033-.001q.70931.11743 1.41866.23481c.43086.16468.49812-.08065.47827-.42412l-.00024-.0003.00026.00026c.37477-.23187.16205-.63947.28327-.94716l.18334.22716c.21649.433-.45514 1.17828.47787 1.3594.67189.02492 1.63527.51524 1.41406-.88569a.09968.09968 0 0 0 .0436-.15142.23518.23518 0 0 0 .19527-.08032q.94977.09917 1.89956.19831l1.11859.07269c.76927.27169 1.40446-.768 2.20145-.22506l-.0202-.08879c.02419.0075.04871.01293.07312.01891l-.05292.06988-.25313.19042c-.27087.06106-.62754-.172-.80655.15981-.12606.23374.1328.28581.29823.35078l.00005-.0001v.00019l.26229.2119a9.51228 9.51228 0 0 0 1.65041 1.9421 1.39971 1.39971 0 0 0 .70654.70762l.95814.89042c.27137.46317.19427 1.09735.70765 1.4417l.03116-.04364.01782.016-.049.02768a.85027.85027 0 0 0 .04251 1.11642 8.59215 8.59215 0 0 0 2.50766 1.9639c.35585.28048.71272.643 1.05694-.01313l.38888-.272c.219-.12825.14841-.37937.23829-.5629.094-.27245-.05348-.6338.29917-.81007.45454.21641.80857-.54048 1.253-.15738.70653.60911 1.513.33923 2.2939.32674q.70535.85013 1.41072 1.70027c.64747.36267.34657 1.27074.953 1.657a6.20118 6.20118 0 0 0 2.1404 3.068.19747.19747 0 0 0 .12114.28211c.14135.29511-.05944.70174.30163.92523a3.42 3.42 0 0 0 2.60838 3.18083c.24216.083.68108-.15312.75565.3314.1553.22969.38646.122.59165.13263a.55247.55247 0 0 0 .15865-.06269c.119.10569.32555.05029.4259.19035.21707.04583.54368.20329.63132.11728.303-.29742-.04377-.55693-.16351-.82648a3.24756 3.24756 0 0 0 -.31486-1.41841h-.00007.00005c.1491-.70023-.19536-1.42243.09428-2.11638.39706-1.80639 2.0888-2.52929 3.15775-3.77338a3.00843 3.00843 0 0 0 3.447-2.20576c.13763-.6103.14829-1.012.9988-.55565a1.19954 1.19954 0 0 0 1.8632-.6605l.24.03854c.09173.44092.4612.1674.6858.2666a2.00071 2.00071 0 0 1 1.4497-.00284 1.1209 1.1209 0 0 1 .209.04159c.2699.355.64882.07537.96421.1656.40751.05027.91856.34064.9761-.42091l.919-.06132c.69161.23021 1.16806.87863 1.92146.98881.12045.68743.58244.81448 1.0766.49167.5594-.36545 1.44885.02862 1.77262-.80736.61249.25535.88755-.005.93569-.61219.341-.12482.5599-.32753.46547-.73l-.5754.37056a.97485.97485 0 0 0 -.07986-.12809c-.55379-.7051-1.35715-.51588-2.08869-.583-.02821.05812-.06373.11066-.097.16495-.00605-.02429-.00863-.046-.016-.07133-.15592-.46964.3868-.56457.48236-.89933l.68749-.08126c.21124-.1687.69228.70788.71656-.185l.02652-.298.42.14506c.01932.17125-.01588.38394.26875.35342.43453.21105.767-.272 1.185-.17418l.303-.22741c.37728-.04811.81054.14273 1.105-.25888.13538-.30282-.08988-.68594.212-.95169q.03056.11007.06434.21919v-.00006.00008c-.03818.22821-.13671.49579.05506.66276.172.14975.354.0348.439-.18032.155-.141.31413-.27767.46233-.42511.09358.234.30881.414.38221.657.11914.11106-.02817.42978.2881.38306a.51253.51253 0 0 0 .48392-.6381l.22785-.45455.09325.01614.09464-.00134c.12712 1.14159.8908-.0799 1.21564.32745a.5463.5463 0 0 0 -.02646-.06567.412.412 0 0 1 .0265.06571c.56795.47847 1.09022-.33042 1.65086-.05861.52616.705 1.37113.47065 2.05913.69875.25076.55929.45824 1.17462 1.28283.99136.25412.06077.47961.065.53349-.27l-.01192-.0152.04332.00374a.12245.12245 0 0 0 .08451.00023.16316.16316 0 0 0 .27246-.08882 1.83987 1.83987 0 0 1 2.72076-.44131.89163.89163 0 0 0 .3341.068l.07085.42713c.15476.46953.57675.69.91854.98514.17819.41292.66094.19965.91954.44722l.55974.451a2.7366 2.7366 0 0 1 .21071 2.139l-.00022.48356c-.00111.32777.29491.18042.43966.275a.66645.66645 0 0 1 .66507.5241.88316.88316 0 0 0 -.19931.09076c-.35314.46793-.09886.869.14 1.27179.24714.41884.17293 1.21407 1.04936.89592l.44661.31634c.0448.26065-.10841.5867.24608.745v-.00007.00009c.14432.44409.8958.449.78141 1.08021-.04531.82677.7593.461 1.08248.77072l-.00509.00118q.40941.44208.81881.88419a.95446.95446 0 0 0 1.44077.35105c.517-.34064.46588-.80582.21149-1.28927l.23024-.38212c.60655-.3664-.01686-.86479.13733-1.27972a2.89627 2.89627 0 0 0 -.37052-1.99576c.00357-.51041-.61659-.25781-.74389-.60813a.32236.32236 0 0 0 -.04677-.47723 1.371 1.371 0 0 0 -.64427-1.02009c.12465-.40844-.14662-.54713-.45159-.66289a.12694.12694 0 0 0 -.02406-.20021 2.097 2.097 0 0 0 -.01233-1.19614 1.517 1.517 0 0 0 -.961-1.14615.11322.11322 0 0 0 -.16038-.06056c-.08264-.30667-.14178-.63236-.547-.67941q-.4544-.743-.9088-1.48595l-.03238-.90618-.12946-.05891a.97652.97652 0 0 0 -.3649-.86072c-.37361-.13515-.13732-.47224-.23171-.69982l-.02366-.55643a.11136.11136 0 0 1 .01772-.133c.05345-.40866.34869-.81479.01278-1.22749a.36555.36555 0 0 0 -.03317-.226l.08186-.72842-.09415.02522c.73263-.54221.56583-1.21127.26783-1.89894h.00005l.04317-.001q.031.05846.06617.11587c.18055.18536.36343.344.60023.07413q.16065-.3334.32128-.66676c.24816-.22321.585-.37537.61769-.77106.64194-.7069 1.63121-1.07314 2.00433-2.04366l.53629-.30334a.64413.64413 0 0 0 .02323-.99869.31868.31868 0 0 0 .26822-.23663.69833.69833 0 0 1 .456-.65025c.22431-.05731.3825-.16835.35136-.43334-.01018-.0138-.024-.02349-.03486-.03646l.20912-.213-.00695.02361c.3991-.13163.88108.18378 1.22831-.22773.35171-.41906.28191-.97037.454-1.4459.66782-.47407 1.418-.8875 1.38267-1.879l.04179-.45706c.27425-.13607 1.04729.213.568-.65793a.81871.81871 0 0 1 .347-1.0184c.18307.43885.59692.32347.93526.38937l.10086-.62688c.11074-.13848.504-.303.1795-.44355-.43784-.18967-.98777-.52094-1.4142.049-.21111-.1649-.43126-.31657-.65363-.46473q.20371-.27385.40734-.54779l1.36476-.57861-.43252-.16706a1.15249 1.15249 0 0 0 -.01022-.21917l-.22288-.46145.05181-.07007.08712.00065c.03727-.81422-.34662-.79676-.89552-.45352l-.40608-.05743c-.68042-.247-.39916-.81212-.42233-1.27655.82257-.383.23361-1.00594.11175-1.3906-.21762-.68655-.92983-.71517-1.5775-.66492a.63064.63064 0 0 0 -.00225-.21855l-.25229-.58891c.70029-.13987 1.10774-.39574.82108-1.25873a3.59417 3.59417 0 0 1 -.03446-1.83806l.17783-.17653.4244-.331a.80795.80795 0 0 1 .491.48334c-.40653 1.2116.20677 2.63377 1.20115 2.78553.07481.30994-.10933.77155.4628.79023.12237-.27207.67822-.2364.50829-.71594.3799-.27025.39557-.519-.04368-.741a.81829.81829 0 0 0 .001-.2297c.34444-.37331.23379-.60627-.22571-.73163-.33773-.38648-.48546-.923-.95312-1.20691l.006-.4076-.00308-.52236c.31143.1599.53161.52037.95489.43451.29849.1898.57485.64329.93669.07863.30556-.182.34983-.54926.58383-.80863a2.05707 2.05707 0 0 0 -.61753-2.98689l.28818-.70412a.36.36 0 0 0 .21763-.04445l.23169.10676c.37073.50619.66456.29812.93782-.101.0368-.32988.46138-.0996.53779-.37227l.47418-.29312-.0857-.47086-.93129.44463c-.37054.149-.644.82227-1.15477.21378v.00007-.00011l-.28038-.37656.0209-.25495.48256-.31358.232.02711v-.00009.00009l.47935-.24069v.00008l.24105-.24409a.69.69 0 0 0 .72259-.42527c.85841-.37274 2.01091-.27511 2.354-1.472.27451-.02545.3006.50573.62264.30373.18638-.1169.05117-.345.02992-.52445a.67459.67459 0 0 0 .0332-.70426l.26794-.00981c.489.18048 1.10328.39279 1.35292-.14047a.81915.81915 0 0 0 -1.02243-.90221c-.32779.07333-.26455-.39877-.39358-.61354.19484-.46253.134-.81148-.4185-.942l-.21949-.22829c.11741-.41042.66515-.65626.45575-1.1917l.01394-.50778c.67975.19978.47595-.29171.48341-.61788.439-.21822.28487-.59539.252-.9401.30958-.042.31676-.51137.67832-.48a.41162.41162 0 0 0 .39729-.1743c.00921-.01112.01986-.02069.0292-.03166.37086-.10528.52174-.58481.93308-.62138l.01083-.26807c.03713-.03332.07513-.0657.11157-.09973.17467-.23071.21265-.53454.40662-.754l.94425-.9662c.34613.256.497-.087.71231-.23218a2.11077 2.11077 0 0 0 1.1793-1.87648 2.62123 2.62123 0 0 1 -1.41313-1.19627zm-114.61155-6.22661.00349-.16319.0001-.0001a1.56492 1.56492 0 0 1 .14623.21087 1.107 1.107 0 0 1 -.14982-.04758zm-4.72337 28.80864a.24278.24278 0 0 0 .00247-.0503l.00913.00924.00058.00669.00337.0001c-.00621.01097-.00976.02311-.01555.03427zm74.38584-16.46095-.00009-.00231.00214.00169zm23.15529 53.794-.00023-.00054h.00051zm9.95529-26.53735.00035.00071-.0163.033zm-2.60566-12.06189.00434-.0025.00193.00331zm5.89146-8.10825h.00007z"/><path d="m61.69262 95.74738a7.62331 7.62331 0 0 1 -1.11487-.49607 4.5919 4.5919 0 0 0 -1.45076-2.0826c-.56459-.85692-1.14766-.30593-1.57619.08152-.44759.40469.2081.48313.37167.70955.30492 1.16269 1.35649 1.81211 1.92189 2.79578.40872.17586.57866.62373 1.04482.792.63376.22881 1.25729.2017 1.49525-.33775a.99448.99448 0 0 0 -.69181-1.46243z"/><path d="m80.12565 93.01415c.2875.28866.43376.69074.93483.47029.15151-.06664.30528-.16739.18328-.3311-.28261-.37924-.66443-.27634-1.11811-.13919z"/><path d="m76.65041 91.22869c-.0891.01325-.23892.154-.22882.21357.07861.46341.44572.44556.935.44143-.10959-.43638-.26769-.72025-.70618-.655z"/><path d="m73.2937 89.85675c-.19664.02973-.41.09706-.43077.3058-.02293.23015.19717.29664.3881.314a.35382.35382 0 0 0 .39713-.32666c.04551-.27074-.14572-.30272-.35446-.29314z"/><path d="m78.96813 92.26605c-.21759.03935-.38086.07273-.38238.26583-.00179.22705.19476.179.32867.19086.137.01212.34381.05418.30329-.176-.0202-.11483-.17845-.20533-.24958-.28069z"/><path d="m56.4779 92.63062.00013.00105-.00045-.00032c-.06036-.25809-.11959-.51691-.40991-.62382v-.00006c-1.00853-.06568-1.04546-.69576-1.04792-1.53366a56.67533 56.67533 0 0 0 -.11535-8.23581c-.01374-.44209.21053-.93538-.27461-1.276l-.36389-.33244c-.42677-.49216-1.05935.06829-1.51124-.29548a1.63932 1.63932 0 0 0 -1.17716-.45028q-.60092-.10253-1.20181-.2051a.27373.27373 0 0 0 -.05258-.196v-.00005c.001-.29784-.22545-.35734-.44466-.42445-.45641-.15542-.86408-.56146-1.40665-.27349h-.00009c-1.41131-.31746-2.249.5734-3.08616 1.4652-.02828.005-.057.00945-.08575.01388-.43308.03552-.94943-.39869-1.26612.16542-.18474.3291.19176.51858.39513.72638l.04093.62294c.16691.63546.936 1.29067-.06126 1.88914-.00292.02-.00685.03506-.01.05386-.92561-.74649-.93951-.74712-1.602-.67857q-.01948.09545-.0311.19219c-.34925.5607-.85606 1.12345.0217 1.66823.273.00751.11666.51175.48.41474l.46214.1198c.23007-.01306.48955.07286.667-.11768.013.005.02648.00807.03944.0132a.53971.53971 0 0 1 .43466.5339l.0747.24016-.49842.50444c-.26166-.02725-.53-.07775-.70352.202l.00008.11213q-.06574.00615-.13241.00981a.43953.43953 0 0 0 -.42658.19827.4666.4666 0 0 0 -.65474-.14144c-.21632.39258-.67338.43716-.99421.68185-.23085.17608-.49737.35015-.24812.63667.37359.42946.04159.93271.21961 1.3692a1.3771 1.3771 0 0 0 1.0342.92664c.16928.21825.45374.356.4742.67826-.64872 1.0847.359.61633.7132.76067a.35625.35625 0 0 0 .06393.21364c.16129.62157.69512.41454 1.09982.4945l.00008-.00011v.00015a.1981.1981 0 0 1 -.01274.21838.54581.54581 0 0 0 -.06822.29462c.01055.06985.01994.13989.02941.20991l-.184.45561a.62112.62112 0 0 0 -.45688.17325l-.45.35848a1.83234 1.83234 0 0 0 -1.23776.78252c-.505.27234-1.164-.14889-1.6167.35891a.05675.05675 0 0 0 -.03922.026c-.45111.30313-1.05525-.0264-1.66423.37941a2.8878 2.8878 0 0 0 1.70493-.18059 2.68534 2.68534 0 0 0 1.65609-.33589l1.41428-.3949a.42626.42626 0 0 0 .09537-.14911 1.044 1.044 0 0 0 1.08275-.349 1.05547 1.05547 0 0 1 .02807-.18456v-.00011h.00006c.56893-.35807 1.11713-.75669 1.71324-1.06166.49325-.25232.50682-.62789.45469-1.07019l.27074-.22855q.78947-.6045 1.579-1.209c.22565-.10645.53388-.15231.56825-.399a.78921.78921 0 0 0 .188-.00458l-.00041.16527c-.01182.00652-.02323.011-.03514.018-.18176.1199-.34879.25817-.51961.39143-.36725.14945-.10857.30713-.00608.46273-.40642.03093-.52555.24035-.38169.6137.18884.49.4446.20451.6883.05959.54978-.04715 1.12826-.05463 1.14957-.832.65483-.60811 1.24561-.18739 1.84375.11482.86194.86812 2.213.51464 3.12723 1.25212.2299.066.50669-.0504.69465.17862.22.17435.31994.59028.79049.37939-.22692-.3178-.32093-.72509-.82043-.61718zm-1.86-10.78495-.0291-.00985.02943-.01461z"/><path d="m83.5408 95.98871a1.14469 1.14469 0 0 0 -.98582-1.07036c-.472-.30338-.86306-.45719-.715.38646-.189.12063-.42575.21746-.2567.51613.08618.45734.14767.9212.26583 1.37013.10678.4057.32221.3907.547.066l1.19653-.69424c.21648-.00539.51789.07483.49645-.276-.0195-.31896-.34071-.23883-.54829-.29812z"/><path d="m121.85316 78.15879a.70178.70178 0 0 0 .66133.417c-.15231-.22279-.30473-.47353-.66133-.417z"/></g></svg>