<svg viewBox="0 0 233.85827 121.88976" xmlns="http://www.w3.org/2000/svg" xmlns:xlink="http://www.w3.org/1999/xlink"><clipPath id="a"><path d="m149.69865 34.54751h24.59622v24.59634h-24.59622z"/></clipPath><clipPath id="b"><path d="m66.35007 65.8182h24.59621v24.59621h-24.59621z"/></clipPath><clipPath id="c"><path d="m108.09802 45.41052h24.59621v24.59621h-24.59621z"/></clipPath><clipPath id="d"><path d="m24.6021 45.85866h24.59622v24.59621h-24.59622z"/></clipPath><path d="m22.06673 43.53877h30.04526v59.50402h-30.04526z" fill="#a8bf5b"/><path d="m63.79626 64.54019h30.04526v38.5026h-30.04526z" fill="#a8bf5b"/><path d="m105.52579 44.73622h30.04526v58.30657h-30.04526z" fill="#a8bf5b"/><path d="m147.25532 34.23551h30.04526v68.80728h-30.04526z" fill="#a8bf5b"/><path d="m16.22459 103.04279h166.91813" fill="none" stroke="#a8bf5b" stroke-miterlimit="10" stroke-width=".92211"/><path d="m10.12451 103.99065c0-1.52734.63721-2.36035 1.562-2.36035.91748 0 1.562.833 1.562 2.36035 0 1.52637-.64454 2.36035-1.562 2.36035-.92479 0-1.562-.834-1.562-2.36035zm2.58447 0c0-1.19824-.38525-1.91211-1.02246-1.91211-.63037 0-1.02246.71387-1.02246 1.91211 0 1.19726.38526 1.91211 1.02246 1.91211.63037 0 1.02248-.71485 1.02248-1.91211z" fill="#a8bf5b"/><path d="m8.41016 10.07952-1.08545.53222-.18213-.41308 1.35156-.67966h.42725v4.65039h-.51123z" fill="#a8bf5b"/><path d="m10.12451 11.87932c0-1.52734.63721-2.36035 1.562-2.36035.91748 0 1.562.833 1.562 2.36035 0 1.52637-.64454 2.36035-1.562 2.36035-.92479 0-1.562-.83398-1.562-2.36035zm2.58447 0c0-1.19824-.38525-1.91211-1.02246-1.91211-.63037 0-1.02246.71387-1.02246 1.91211 0 1.19727.38526 1.91211 1.02246 1.91211.63037 0 1.02248-.71484 1.02248-1.91211z" fill="#a8bf5b"/><g fill="none"><path d="m16.22459 103.04279v-92.11149" stroke="#a8bf5b" stroke-linecap="square" stroke-miterlimit="10" stroke-width=".92211"/><path d="m149.85645 110.34319h.49707l2.14355 2.80078c.29395.39258.51074.70117.665.93945h.01367c-.00683-.25293-.01367-.45605-.01367-.8125v-2.92773h.51855v4.61523h-.43457l-2.22754-2.91406c-.28027-.36328-.49023-.6582-.65136-.88867h-.01367c.01367.23047.02148.42676.02148.791v3.01172h-.51855z"/><path d="m156.5918 114.58733a1.43278 1.43278 0 0 1 -.99512.44141.98151.98151 0 0 1 -1.0498-1.02247.93133.93133 0 0 1 .55957-.89648 2.0104 2.0104 0 0 1 .82714-.16113l.62989-.02149v-.21a.65592.65592 0 0 0 -.71387-.72851 1.66866 1.66866 0 0 0 -.91113.27343l-.19629-.36425a2.16529 2.16529 0 0 1 1.16308-.33594 1.04176 1.04176 0 0 1 1.17676 1.12695v1.1416a5.58029 5.58029 0 0 0 .0625 1.12793h-.45508zm-.60938-1.24707a1.40181 1.40181 0 0 0 -.624.126.56539.56539 0 0 0 -.28711.51171.581.581 0 0 0 .61719.61621 1.25793 1.25793 0 0 0 .875-.43457v-.83984z"/><path d="m158.22168 114.25823v-2.19239h-.56055v-.41992h.56055v-.75l.51074-.168v.918h.98731l-.15332.41992h-.834v2.1084c0 .28711.11914.41309.34375.41309a.96813.96813 0 0 0 .53906-.18262l.18165.36426a1.45119 1.45119 0 0 1 -.833.25977.68635.68635 0 0 1 -.74219-.77051z"/><path d="m160.38379 114.66448a.33317.33317 0 1 1 .666 0 .3334.3334 0 1 1 -.666 0z"/><path d="m163.66016 110.34319h2.22656l-.16113.43359h-1.54786v1.60449h1.52051v.42676h-1.52051v1.71582h1.751v.43457h-2.26855z"/><path d="m166.78906 111.64592h.43457l.0625.42676a1.80614 1.80614 0 0 1 1.16309-.51074c.51855 0 .98047.3291.98047 1.16211v2.23437h-.51169v-2.05957c0-.49707-.126-.875-.59473-.875a1.607 1.607 0 0 0 -1.01562.49707v2.4375h-.51856z"/><path d="m169.91113 111.64592h.53907l.96679 2.64746h.01367l.93848-2.64746h.53223l-1.26758 3.334h-.44141z"/><path d="m173.18652 114.66448a.33318.33318 0 1 1 .666 0 .33341.33341 0 1 1 -.666 0z"/><path d="m105.43213 110.34319h2.22705l-.16113.43359h-1.54785v1.60449h1.52v.42676h-1.52v1.71582h1.751v.43457h-2.269z"/><path d="m108.38574 113.34026a1.6895 1.6895 0 0 1 1.709-1.77832 2.12686 2.12686 0 0 1 .56006.06933v-1.63183h.51123v4.80469a2.36572 2.36572 0 0 1 -1.0503.22461 1.60155 1.60155 0 0 1 -1.72999-1.68848zm2.26905 1.15625v-2.40918a1.434 1.434 0 0 0 -.5254-.085 1.20946 1.20946 0 0 0 -1.21142 1.32422 1.14831 1.14831 0 0 0 1.21875 1.26074 1.526 1.526 0 0 0 .51807-.09078z"/><path d="m112.19336 114.41252a1.90824 1.90824 0 0 1 -.084-.60253v-2.16407h.51855v2.03808a1.547 1.547 0 0 0 .05615.51758.51327.51327 0 0 0 .5459.37207 1.25731 1.25731 0 0 0 .93164-.46973v-2.458h.51123v2.19141a5.29469 5.29469 0 0 0 .07031 1.12109h-.4624l-.09814-.38476a1.66713 1.66713 0 0 1 -1.09961.45508.899.899 0 0 1 -.88963-.61622z"/><path d="m115.46973 113.33342a1.64874 1.64874 0 0 1 1.646-1.77148 1.7483 1.7483 0 0 1 .82617.20312v.45508a1.49143 1.49143 0 0 0 -.79834-.22461 1.16618 1.16618 0 0 0 -1.1416 1.30274c0 .81933.42725 1.28906 1.09961 1.28906a1.56268 1.56268 0 0 0 .79834-.22461l.16065.36426a1.89753 1.89753 0 0 1 -1.022.30176 1.54884 1.54884 0 0 1 -1.56883-1.69532z"/><path d="m120.47461 114.58733a1.42859 1.42859 0 0 1 -.99414.44141.98178.98178 0 0 1 -1.05078-1.02247.93209.93209 0 0 1 .56054-.89648 2.009 2.009 0 0 1 .82618-.16113l.63086-.02149v-.21a.65662.65662 0 0 0 -.71485-.72851 1.66511 1.66511 0 0 0 -.91015.27343l-.19629-.36425a2.16527 2.16527 0 0 1 1.16308-.33594 1.04217 1.04217 0 0 1 1.17676 1.12695v1.1416a5.58029 5.58029 0 0 0 .0625 1.12793h-.45508zm-.6084-1.24707a1.3986 1.3986 0 0 0 -.624.126.56539.56539 0 0 0 -.28711.51171.58073.58073 0 0 0 .61621.61621 1.26041 1.26041 0 0 0 .876-.43457v-.83984z"/><path d="m122.10645 114.25823v-2.19239h-.56055v-.41992h.56055v-.75l.51074-.168v.918h.9873l-.15332.41992h-.834v2.1084c0 .28711.11914.41309.34375.41309a.96818.96818 0 0 0 .53906-.18262l.18164.36426a1.45116 1.45116 0 0 1 -.833.25977.68635.68635 0 0 1 -.74217-.77051z"/><path d="m124.26172 110.55315a.3467.3467 0 1 1 .34277.34277.33028.33028 0 0 1 -.34277-.34277zm.09082 1.09277h.51172v3.3125h-.51172z"/><path d="m125.67578 113.29827a1.54186 1.54186 0 1 1 1.52637 1.73047 1.57864 1.57864 0 0 1 -1.52637-1.73047zm2.52149 0c0-.7627-.38575-1.2959-.98731-1.2959-.61719 0-1.00195.5332-1.00195 1.2959 0 .75683.38476 1.28906.99414 1.28906s.99512-.53223.99512-1.28906z"/><path d="m129.46191 111.64592h.43457l.0625.42676a1.80616 1.80616 0 0 1 1.16309-.51074c.51855 0 .98047.3291.98047 1.16211v2.23437h-.51172v-2.05957c0-.49707-.126-.875-.59473-.875a1.607 1.607 0 0 0 -1.01562.49707v2.4375h-.51856z"/><path d="m72.4873 110.34319h.51807v2.03125h2.53516v-2.03125h.51855v4.61523h-.51855v-2.14355h-2.53516v2.14355h-.51807z"/><path d="m76.939 113.26311c0-1.00781.55323-1.70117 1.3584-1.70117.84082 0 1.3169.6582 1.3169 1.70117v.127h-2.1499a1.10058 1.10058 0 0 0 1.10644 1.2041 1.67085 1.67085 0 0 0 .8125-.22363l.168.36328a1.99734 1.99734 0 0 1 -1.05762.29493 1.56384 1.56384 0 0 1 -1.55472-1.76568zm2.13624-.27246c-.00733-.50488-.25245-1.00879-.77784-1.00879-.5039 0-.81933.45508-.82617 1.00879z"/><path d="m82.21094 114.58733a1.42859 1.42859 0 0 1 -.99414.44141.98178.98178 0 0 1 -1.05078-1.02247.93138.93138 0 0 1 .56054-.89648 2.00728 2.00728 0 0 1 .82617-.16113l.63038-.02149v-.21a.65627.65627 0 0 0 -.71436-.72851 1.66688 1.66688 0 0 0 -.91064.27343l-.19581-.36425a2.16259 2.16259 0 0 1 1.1626-.33594 1.0416 1.0416 0 0 1 1.17627 1.12695v1.1416a5.54762 5.54762 0 0 0 .06348 1.12793h-.45557zm-.60889-1.24707a1.39621 1.39621 0 0 0 -.62353.126.56445.56445 0 0 0 -.28711.51171.58073.58073 0 0 0 .61621.61621 1.25811 1.25811 0 0 0 .87549-.43457v-.83984z"/><path d="m83.60986 109.99944h.51123v4.19531c0 .27344.084.35059.25928.35059a.67631.67631 0 0 0 .20264-.04883l.1123.40625a1.14892 1.14892 0 0 1 -.4624.09765.57088.57088 0 0 1 -.62305-.64453z"/><path d="m85.53516 114.25823v-2.19239h-.56006v-.41992h.56006v-.75l.51123-.168v.918h.98779l-.1543.41992h-.83349v2.1084c0 .28711.11914.41309.34326.41309a.96414.96414 0 0 0 .53906-.18262l.18213.36426a1.45161 1.45161 0 0 1 -.8335.25977.68657.68657 0 0 1 -.74218-.77051z"/><path d="m87.73291 109.99944h.51123v2.0664a1.80157 1.80157 0 0 1 1.14844-.5039c.51855 0 .98047.3291.98047 1.16211v2.23437h-.51123v-2.05957c0-.49707-.126-.875-.59522-.875a1.64058 1.64058 0 0 0 -1.02246.49707v2.4375h-.51123z"/><path d="m26.58545 110.34319h.51807v4.18066h1.71582v.43457h-2.23389z"/><path d="m29.42041 110.55315a.3467.3467 0 1 1 .34326.34277.33068.33068 0 0 1 -.34326-.34277zm.09082 1.09277h.51123v3.3125h-.51123z"/><path d="m30.62354 111.64592h.53955l.9663 2.64746h.01416l.93848-2.64746h.53223l-1.26758 3.334h-.44141z"/><path d="m33.90039 114.66448a.3327.3327 0 1 1 .665 0 .33294.33294 0 1 1 -.665 0z"/><path d="m40.23682 114.70647a2.71 2.71 0 0 1 -1.28858.32227 2.12451 2.12451 0 0 1 -2.19922-2.31836 2.27529 2.27529 0 0 1 2.29-2.40235 2.45022 2.45022 0 0 1 1.1416.24512v.49023a2.25207 2.25207 0 0 0 -1.13476-.28711 1.75183 1.75183 0 0 0 -1.751 1.91211 1.70988 1.70988 0 0 0 1.70215 1.91211 2.28842 2.28842 0 0 0 1.09961-.28711z"/><path d="m40.7041 113.29827a1.54186 1.54186 0 1 1 1.52686 1.73047 1.57885 1.57885 0 0 1 -1.52686-1.73047zm2.52149 0c0-.7627-.38526-1.2959-.9878-1.2959-.61621 0-1.00146.5332-1.00146 1.2959 0 .75683.38525 1.28906.99463 1.28906s.99463-.53223.99463-1.28906z"/><path d="m44.49072 111.64592h.43457l.063.42676a1.806 1.806 0 0 1 1.1626-.51074c.51807 0 .98047.3291.98047 1.16211v2.23437h-.51123v-2.05957c0-.49707-.126-.875-.59522-.875a1.607 1.607 0 0 0 -1.01562.49707v2.4375h-.51856z"/><path d="m47.99805 114.66448a.3327.3327 0 1 1 .665 0 .33294.33294 0 1 1 -.665 0z"/></g><path d="m2.14307 84.63811.53222 1.08594-.41308.18164-.67921-1.35156v-.42774h4.6504v.51172z" fill="#a8bf5b"/><path d="m3.94336 82.92327c-1.52686 0-2.36035-.63672-2.36035-1.56153 0-.917.83349-1.56152 2.36035-1.56152s2.35986.64453 2.35986 1.56152c0 .92481-.83301 1.56153-2.35986 1.56153zm0-2.584c-1.19775 0-1.91211.38477-1.91211 1.02246 0 .62989.71436 1.02246 1.91211 1.02246 1.19726 0 1.91162-.38476 1.91162-1.02246.00002-.62987-.71436-1.02245-1.91162-1.02245z" fill="#a8bf5b"/><path d="m7.36084 77.96819a1.11894 1.11894 0 0 0 .09131-.45508c0-.43457-.31543-.791-1.19776-1.05078l-3.334 1.457v-.55371l2.68261-1.13376v-.01465l-2.68262-.88965v-.53222l3.57227 1.23925c1.21875.42774 1.40039.93165 1.40039 1.47071a1.4465 1.4465 0 0 1 -.11182.58886z" fill="#a8bf5b"/><path d="m4.53857 74.50334c-1.00878 0-1.70214-.55371-1.70214-1.35937 0-.83984.65869-1.31641 1.70214-1.31641h.126v2.15044a1.1012 1.1012 0 0 0 1.20459-1.10742 1.67411 1.67411 0 0 0 -.22416-.81258l.36426-.168a2.00458 2.00458 0 0 1 .29394 1.0586 1.56351 1.56351 0 0 1 -1.76463 1.55474zm-.27343-2.13671c-.50391.00781-1.0083.25195-1.0083.77734 0 .50391.45507.82031 1.0083.82617z" fill="#a8bf5b"/><path d="m5.8623 69.23088a1.42816 1.42816 0 0 1 .44092.99414.98126.98126 0 0 1 -1.02246 1.05079.93207.93207 0 0 1 -.89648-.56055 2.02144 2.02144 0 0 1 -.16114-.82617l-.021-.62989h-.21a.6557.6557 0 0 0 -.72852.71387 1.67533 1.67533 0 0 0 .27344.91113l-.36426.19532a2.163 2.163 0 0 1 -.33642-1.16211 1.04224 1.04224 0 0 1 1.12793-1.17676h1.14169a5.54144 5.54144 0 0 0 1.12744-.06348v.45508zm-1.24658.6084a1.38553 1.38553 0 0 0 .126.624.56359.56359 0 0 0 .51123.2871.58073.58073 0 0 0 .61621-.61621 1.25559 1.25559 0 0 0 -.43408-.875h-.84035z" fill="#a8bf5b"/><path d="m2.92041 67.86077v-.43555l.42041-.0625a1.2127 1.2127 0 0 1 -.50439-.93164.77233.77233 0 0 1 .084-.35742l.46924.18261a.59967.59967 0 0 0 -.06983.28711c0 .23828.147.47559.47608.79786h2.43748v.51953z" fill="#a8bf5b"/><path d="m5.624 64.143a1.503 1.503 0 0 0 .24512-.82715c0-.38476-.15381-.707-.53223-.707-.72119 0-.49023 1.54785-1.58984 1.54785-.50439 0-.91064-.38476-.91064-1.12011a2.31587 2.31587 0 0 1 .15429-.82031h.4551a1.91968 1.91968 0 0 0 -.18213.79882c0 .31543.105.6377.4624.6377.73536 0 .4834-1.56152 1.604-1.56152.6582 0 .97314.54589.97314 1.2246a1.88949 1.88949 0 0 1 -.27978.99512z" fill="#a8bf5b"/><path d="m4.6084 61.56a1.64952 1.64952 0 0 1 -1.772-1.64649 1.75709 1.75709 0 0 1 .20312-.82617h.45557a1.49 1.49 0 0 0 -.22412.79883 1.16619 1.16619 0 0 0 1.30273 1.1416c.81934 0 1.28857-.42676 1.28857-1.09961a1.56407 1.56407 0 0 0 -.22412-.79785l.36426-.16211a1.90408 1.90408 0 0 1 .30078 1.02344 1.54806 1.54806 0 0 1 -1.69479 1.56836z" fill="#a8bf5b"/><path d="m4.57373 58.58538a1.54261 1.54261 0 1 1 0-3.06055 1.54175 1.54175 0 1 1 0 3.06055zm0-2.52149c-.76367 0-1.2959.38477-1.2959.98731 0 .61621.53223 1.001 1.2959 1.001.75635 0 1.28857-.38476 1.28857-.99414s-.53222-.99417-1.28857-.99417z" fill="#a8bf5b"/><path d="m2.92041 54.79827v-.43457l.42041-.06348a1.20977 1.20977 0 0 1 -.50439-.93066.76933.76933 0 0 1 .084-.35743l.46924.18262a.59967.59967 0 0 0 -.06983.28711c0 .23828.147.47559.47608.79785h2.43748v.51856z" fill="#a8bf5b"/><path d="m4.53857 52.8178c-1.00878 0-1.70214-.55371-1.70214-1.35938 0-.83984.65869-1.3164 1.70214-1.3164h.126v2.15039a1.10121 1.10121 0 0 0 1.20457-1.10741 1.67408 1.67408 0 0 0 -.22412-.8125l.36426-.168a2.00458 2.00458 0 0 1 .29394 1.05859 1.56352 1.56352 0 0 1 -1.76465 1.55471zm-.27343-2.13672c-.50391.00781-1.0083.252-1.0083.77734 0 .50391.45507.82032 1.0083.82617z" fill="#a8bf5b"/><path d="m4.6084 47.99358a1.64933 1.64933 0 0 1 -1.772-1.64551 1.754 1.754 0 0 1 .20312-.82617h.45557a1.48654 1.48654 0 0 0 -.22412.79785 1.16635 1.16635 0 0 0 1.30273 1.14258c.81934 0 1.28857-.42774 1.28857-1.09961a1.568 1.568 0 0 0 -.22412-.79883l.36426-.16113a1.90051 1.90051 0 0 1 .30078 1.02246 1.54806 1.54806 0 0 1 -1.69479 1.56836z" fill="#a8bf5b"/><path d="m1.2749 44.81584v-.51074h2.06592a1.80436 1.80436 0 0 1 -.50439-1.14844c0-.51855.3291-.98046 1.16259-.98046h2.23438v.51074h-2.05908c-.49707 0-.87549.127-.87549.5957a1.64422 1.64422 0 0 0 .49707 1.02246h2.4375v.51074z" fill="#a8bf5b"/><path d="m5.8623 39.41838a1.42816 1.42816 0 0 1 .44092.99414.98126.98126 0 0 1 -1.02246 1.05079.93207.93207 0 0 1 -.89648-.56055 2.02144 2.02144 0 0 1 -.16114-.82617l-.021-.62989h-.21a.6557.6557 0 0 0 -.72852.71387 1.67533 1.67533 0 0 0 .27344.91113l-.36426.19532a2.163 2.163 0 0 1 -.33642-1.16211 1.04224 1.04224 0 0 1 1.12793-1.17676h1.14169a5.54144 5.54144 0 0 0 1.12744-.06348v.45508zm-1.24658.6084a1.38553 1.38553 0 0 0 .126.624.56359.56359 0 0 0 .51123.2871.58073.58073 0 0 0 .61621-.61621 1.25559 1.25559 0 0 0 -.43408-.875h-.84035z" fill="#a8bf5b"/><path d="m2.92041 38.04729v-.43457l.42725-.0625a1.8085 1.8085 0 0 1 -.51123-1.16309c0-.51855.3291-.98047 1.16259-.98047h2.23438v.51075h-2.05908c-.49707 0-.87549.127-.87549.5957a1.61175 1.61175 0 0 0 .49707 1.01563h2.4375v.51855z" fill="#a8bf5b"/><path d="m6.94092 34.81975a.95414.95414 0 0 1 -.85449-.61523.47255.47255 0 0 1 -.41358.23828.89356.89356 0 0 1 -.65088-.35156 1.162 1.162 0 0 1 -1.00197.51176 1.16333 1.16333 0 0 1 -1.17625-1.2188 1.46607 1.46607 0 0 1 .126-.623c.01367-.03516.01367-.04883-.00733-.07032a.91945.91945 0 0 1 -.273-.67968 1.14157 1.14157 0 0 1 .021-.20313l.40625.127a.85662.85662 0 0 0 -.021.18945.59522.59522 0 0 0 .09082.32226 1.1366 1.1366 0 0 1 .8545-.3789 1.17784 1.17784 0 0 1 1.19775 1.28125 1.374 1.374 0 0 1 -.06982.43457.55894.55894 0 0 0 .37793.1748c.65869 0 .07714-2.18457 1.31005-2.18457.62305 0 1.03614.60938 1.03614 1.59668.00003.87492-.35004 1.44914-.95212 1.44914zm-2.90674-2.22656a.72843.72843 0 0 0 -.76318.75.71057.71057 0 0 0 .75634.748.72177.72177 0 0 0 .78418-.748.7136.7136 0 0 0 -.77734-.75zm2.87842-.30078c-.60205 0-.49707.9873-.6792 1.5957.1123.169.30127.45605.62353.45605.39893 0 .63037-.42089.63037-1.01562 0-.7002-.2593-1.03613-.5747-1.03613z" fill="#a8bf5b"/><path d="m4.53857 31.36272c-1.00878 0-1.70214-.55371-1.70214-1.35938 0-.83984.65869-1.3164 1.70214-1.3164h.126v2.15039a1.10121 1.10121 0 0 0 1.20459-1.10742 1.67411 1.67411 0 0 0 -.22412-.8125l.36426-.168a2.00458 2.00458 0 0 1 .29392 1.05859 1.56352 1.56352 0 0 1 -1.76465 1.55472zm-.27343-2.13672c-.50391.00781-1.0083.252-1.0083.77734 0 .50391.45507.82032 1.0083.82618z" fill="#a8bf5b"/><g clip-path="url(#a)"><g clip-path="url(#a)"><path d="m174.29506 46.84519a12.298 12.298 0 1 1 -12.298-12.29807 12.29824 12.29824 0 0 1 12.298 12.29807" fill="#a8bf5b"/><path d="m165.50336 47.74019c-1.841 1.552-4.527 1.96-7.979 1.225a20.91124 20.91124 0 0 1 2.113-2.249l.012.003h4.815a.455.455 0 0 0 0-.91h-3.801c.412-.345.854-.694 1.331-1.052a.43335.43335 0 0 0 .155-.116 42.64021 42.64021 0 0 1 4.94-3.126.45535.45535 0 1 0 -.437-.799 45.21035 45.21035 0 0 0 -4.381 2.716v-1.501a.4545.4545 0 1 0 -.909 0v2.159a26.57562 26.57562 0 0 0 -4.118 3.776c.111-1.753.632-4.791 2.808-6.632 1.895-1.603 4.684-1.995 8.289-1.17.019 1.198-.123 5.382-2.838 7.676m3.387-8.478c-4.063-1-7.236-.571-9.425 1.277-3.149 2.666-3.193 7.354-3.153 8.50305a9.24165 9.24165 0 0 0 -1.927 4.065.45171.45171 0 0 0 .403.497.39345.39345 0 0 0 .048.002.45163.45163 0 0 0 .45-.409 8.55659 8.55659 0 0 1 1.633-3.433 16.28532 16.28532 0 0 0 3.689.473 8.217 8.217 0 0 0 5.484-1.807c3.532-2.986 3.16-8.528 3.143-8.761a.4525.4525 0 0 0 -.345-.407" fill="#fff"/></g></g><g clip-path="url(#b)"><g clip-path="url(#b)"><path d="m90.94637 78.11671a12.298 12.298 0 1 1 -12.298-12.299 12.298 12.298 0 0 1 12.298 12.299" fill="#a8bf5b"/><g fill="#fff"><path d="m70.98537 79.14311a.46557.46557 0 0 0 .326-.135.4587.4587 0 0 0 0-.65 4.07753 4.07753 0 1 1 5.766-5.767.05669.05669 0 0 0 .013.01l.006.011 1.331 1.174a.32914.32914 0 0 0 .081.047.52869.52869 0 0 0 .05.032.4728.4728 0 0 0 .173.035.46356.46356 0 0 0 .172-.035.37985.37985 0 0 0 .052-.032.32914.32914 0 0 0 .081-.047l1.329-1.174.008-.011a.03775.03775 0 0 0 .012-.01 4.07788 4.07788 0 0 1 5.767 5.767.46.46 0 0 0 .324.785.46211.46211 0 0 0 .326-.135 4.99578 4.99578 0 0 0 -7.038-7.092c-.002.004-.006.004-.009.007l-1.024.906-1.025-.906-.008-.007a4.99578 4.99578 0 0 0 -7.038 7.092.46327.46327 0 0 0 .325.135"/><path d="m87.80527 80.49071h-6.655a.5803.5803 0 0 0 -.06.013.55818.55818 0 0 0 -.099.019.58377.58377 0 0 0 -.085.048.46741.46741 0 0 0 -.057.033l-1.288 1.11-1.602-4.973-.007-.009a.431.431 0 0 0 -.051-.091.5536.5536 0 0 0 -.038-.063.32993.32993 0 0 0 -.064-.049.33452.33452 0 0 0 -.082-.057l-.01-.008a.34092.34092 0 0 0 -.075-.018.60359.60359 0 0 0 -.084-.02.46431.46431 0 0 0 -.118.013c-.019.004-.035.003-.051.006l-.008.005a.53837.53837 0 0 0 -.105.058c-.016.012-.036.019-.051.032a.45073.45073 0 0 0 -.049.064.46594.46594 0 0 0 -.059.081l-.006.012-1.694 3.794h-5.751a.4605.4605 0 0 0 0 .921h6.05a.45528.45528 0 0 0 .419-.274l1.326-2.97 1.447 4.488h.001a.47338.47338 0 0 0 .088.16.24348.24348 0 0 0 .061.044.33324.33324 0 0 0 .051.04.46939.46939 0 0 0 .238.077.46092.46092 0 0 0 .14-.023l.007-.004a.47969.47969 0 0 0 .144-.082c.002-.001.006-.001.008-.005l1.687-1.451h6.482a.4605.4605 0 0 0 0-.921"/><path d="m81.82377 82.84131-2.652 3.082a.60326.60326 0 0 1 -.869.014l-2.667-3.096a.45914.45914 0 1 0 -.696.599l2.674 3.108a1.50594 1.50594 0 0 0 2.244-.013l2.665-3.095a.46027.46027 0 0 0 -.699-.599"/></g></g></g><g clip-path="url(#c)"><g clip-path="url(#c)"><path d="m132.69432 57.70863a12.298 12.298 0 1 1 -12.298-12.298 12.298 12.298 0 0 1 12.298 12.298" fill="#a8bf5b"/><path d="m128.81142 61.42493a.21913.21913 0 0 1 .163-.201.47459.47459 0 0 0 .063.014.503.503 0 0 0 .065-.014.22037.22037 0 0 1 .163.201c0 .252-.454.252-.454 0m-8.821-2.181-8.135-4.52 8.135-4.519 8.135 4.519zm4.583 4a10.18191 10.18191 0 0 1 -9.167 0v-5.532l4.369 2.425a.44264.44264 0 0 0 .431 0l4.367-2.425zm4.908-2.838v-5.644c0-.007-.004-.015-.004-.022 0-.005.004-.01.004-.016a.48878.48878 0 0 0 -.029-.111.17154.17154 0 0 1 -.008-.028.42308.42308 0 0 0 -.192-.249l-9.046-5.028a.45149.45149 0 0 0 -.431 0l-9.047 5.028a.44414.44414 0 0 0 0 .776l3.792 2.106v6.256a.40387.40387 0 0 0 .008.04.44492.44492 0 0 0 .2.369 11.03249 11.03249 0 0 0 10.525 0 .443.443 0 0 0 .198-.369.23469.23469 0 0 0 .009-.04v-6.254l3.135-1.743v4.929a1.113 1.113 0 1 0 .886 0" fill="#fff"/></g></g><g clip-path="url(#d)"><g clip-path="url(#d)"><path d="m49.19861 58.15687a12.29851 12.29851 0 1 1 -12.298-12.298 12.298 12.298 0 0 1 12.298 12.298" fill="#a8bf5b"/><path d="m44.29961 55.54157h-14.8c-.492 0-.725-.5-.356-.766l7.397-5.386a.62291.62291 0 0 1 .712 0l7.397 5.386c.368.266.135.766-.35.766z" fill="none" stroke="#fff" stroke-miterlimit="10" stroke-width=".831"/><path d="m43.17371 56.05627v9.276a.57964.57964 0 0 1 -.628.515h-11.29901a.57716.57716 0 0 1 -.621-.515v-9.276a.57785.57785 0 0 1 .621-.515h11.299a.58033.58033 0 0 1 .62801.515z" fill="none" stroke="#fff" stroke-miterlimit="10" stroke-width=".831"/><g fill="#fff"><path d="m35.41211 61.97287h2.973v4.109h-2.973z"/><path d="m38.83911 57.25587h2.56v2.102h-2.56z"/><path d="m32.3971 57.25587h2.56v2.102h-2.56z"/><path d="m43.174 53.702-2.392-1.741v-1.737h2.392z"/></g></g></g></svg>