<svg fill="none" height="570" viewBox="0 0 910 570" width="910" xmlns="http://www.w3.org/2000/svg"><path d="m210.96 484.888 1.801-3.412 2.18-.285.285.759-1.991 2.938zm9.669-3.507 5.782 2.464 1.991-.284 1.516-3.697-.568-3.223-3.982-.474-3.791 1.707zm29.101 9.479 3.507 5.213 2.275-.284 1.043-.474 1.422 1.232 3.507-.189.948-1.422-2.749-1.706-1.801-3.508-1.991-3.412-5.498 2.749zm19.148 8.436 1.232-1.801 4.455.948.569-.474 5.782.664-.284 1.232-2.465 1.422-4.171-.284zm5.024 4.93 1.801 3.696 2.938-1.042.285-1.517-1.517-1.991-3.507-.284zm6.635-1.138 2.18-2.749 4.455 2.275 4.171 1.043 4.171 2.654v1.801l-3.412 1.706-4.645.948-2.275-1.422zm15.735 14.788 1.517-1.233 3.223 1.517 7.204 3.412 3.223 1.991 1.517 2.275 1.801 4.171 3.791 2.464-.284 1.233-3.697 3.033-3.981 1.422-1.422-.664-2.938 1.707-2.275 3.033-2.181 2.749-1.706-.19-3.412-2.464-.285-4.266.569-2.275-1.517-5.403-1.99-1.706-.19-2.465 2.18-.948 1.991-2.938.474-.948-1.517-1.706z" fill="#9190ad" stroke="#fbfbfc"/><path d="m149.866 426.705-.284 80.952 1.516.948 2.939.189 1.327-1.042h2.465l.189 2.749 6.541 6.446.474 2.464 3.223-1.801.569-.189.284-2.939 1.327-1.517 1.043-.189 1.801-1.422 2.938 1.99.569 2.749 1.801 1.043 1.043 2.275 3.697 1.706 3.223 5.688 2.654 3.697 2.18 2.654 1.327 3.507 4.74 1.706 4.929 1.991.948 4.171.474 2.938-.948 3.223-1.707 2.181-1.516-.759-1.327-2.938-2.654-1.422-1.707-1.043-.758.758 1.327 2.655.19 3.507-1.043.474-1.801-1.801-1.991-1.232.474 1.516 1.233 1.706-.759.759-1.232-.948-1.991-3.223-.948-2.18-.948.948-1.232-1.422 1.706-1.801-1.327-1.422v-4.74h-.758l-.758 3.223-1.043.474-.948-3.507-.569-3.507-.758-.474.284 5.403v1.042l-1.327-1.232-3.412-5.687-1.991-.474-.569-3.508-1.516-2.748-1.517-1.043v-2.18l1.991-1.233-.474-.284-2.465.663-3.223-2.275-2.464-2.749-4.645-2.464-3.792-2.465 1.232-3.033v-1.801l-1.706 1.517-2.749 1.042-3.507-1.042-5.403-2.275h-5.214l-.568.474-6.162-3.697-1.991-.285-2.654-5.498-3.412.285-3.413 1.422.474 4.265 1.043-2.749.948.285-1.327 4.171 3.033-2.655.569 1.517-3.697 4.171-1.232-.284-.474-1.802-1.233-.758-1.232 1.043-2.654-1.706-2.939 1.99-1.706 1.991-3.223 1.99-4.455-.189-.474-1.991 3.507-.663v-1.233l-2.18-.663.948-2.275 2.18-3.697v-1.706l.19-.759 4.171-2.18.948 1.233h2.654l-1.232-2.465-3.508-.284-4.739 2.654-2.275 3.223-1.7066 2.464-1.0427 2.18-3.9813 1.422-2.9385 2.465-.2844 1.517 2.1802.947.7583 1.991-2.6541 3.033-6.1615 3.982-7.3937 3.981-1.9907 1.043-5.0239 1.042-5.024 2.181 1.7063 1.232-1.3271 1.422-.474 1.042-2.6541-.947-3.0334.189-.7583 2.18h-.9479l.2844-2.275-3.4125 1.233-2.749.947-3.2229-1.232-2.749 1.801h-3.0333l-1.9906 1.233-1.5167.758-1.9906-.285-2.4646-1.042-2.1802.663-.9479.948-1.5167-1.042v-1.802l2.9386-1.232 5.9718.664 4.1709-1.517 1.9906-1.991 2.7489-.663 1.7063-.758 2.6542.189 1.5166 1.232.9479-.284 2.1802-2.654 2.9386-.948 3.2229-.664 1.2323-.284.6635.474h.7584l1.2323-3.507 3.7916-1.422 1.8011-3.507 2.1802-4.266 1.5166-1.422.2844-2.464-1.5166 1.232-3.223.663-.6635-2.275-1.2323-.284-.9479.948-.1896 2.749-1.3271-.19-1.3271-5.498-1.2323 1.233-1.0427-.474-.2843-1.801-3.7917.189-1.9906 1.043-2.4646-.284 1.4219-1.422.4739-2.465-.6635-1.801 1.4219-.948 1.2322-.189-.6635-1.707v-4.171l-.9479-.947-.7583 1.421h-5.7823l-1.4219-1.232-.6636-3.697-1.9906-3.412v-.948l1.9906-.759.1896-2.18 1.0427-1.042-.7583-.474-1.2323.474-1.0427-2.655.9479-4.739 4.2656-3.033 2.4646-1.517 1.8011-3.507 2.6541-1.233 2.4646 1.043.2844 2.275 2.275-.284 3.0333-2.275 1.5167.568.9479.569h1.5167l2.1802-1.232.7583-4.171.9479-3.223.948-.948-1.0428-1.801-2.4645.758-3.0334.759-1.801-.474-3.4125-1.706-4.7396-.19-3.4125-3.507.474-3.697.6635-2.275-1.9906-1.706-1.8011-3.508.474-.758 6.4458-.474h1.9907l.9479.948h.6635l-.1896-1.517 3.6969-.569 2.4646.285 1.3271 1.043-1.3271 1.99-.474 1.422 2.6542 1.517 4.7396 1.706 1.7062-.948-2.1802-4.171-.9479-3.033.9479-.758-3.2229-1.801-.474-1.043.474-1.517-.7583-3.697-2.749-4.455-2.275-3.981 2.749-1.801h3.0333l1.7063.569 3.9812-.19 3.5073-3.413 1.0427-2.938 3.5073-2.275 1.5167.948 2.6541-.569 3.5073-1.991 1.0427-.189.9479.758 4.2655-.189 2.654-2.939h1.043l3.413 2.275 1.801 1.991-.474 1.042.663 1.043 1.517-1.517 3.697.285.284 3.507 1.801 1.422 6.73.569 5.972 3.981 1.327-.948 4.929 2.465 1.991-.569 1.801-.758 4.645 1.801zm-109.105 27.395 1.9906 5.024-.1896.948-2.749-.285-1.7062-3.791-1.7062-1.422h-2.275l-.1896-2.465 1.7062-2.275 1.0427 2.275 1.4219 1.422zm-2.4646 31.755 3.5073.758 3.5073.948.7583.948-1.5167 3.507-2.9385-.189-3.2229-3.413zm-19.6219-13.366 1.0427 2.465 1.0427 1.517-1.0427.758-1.9906-2.939v-1.801zm-13.08124 69.293 3.22292-2.18 3.22292-.948 2.4646.284.4739 1.517 1.8011.474 1.801-1.801-.2844-1.517 2.6542-.663 2.749 2.464-1.0427 1.706-4.1709 1.043-2.6541-.474-3.5073-1.042-4.17086 1.327-1.51667.284-1.04271-.474zm46.44794-4.266 1.5166 1.801 1.9907-1.516-1.4219-1.233zm2.7489 2.844 1.0427-2.18 1.9907.284-.7584 1.801h-2.275zm22.3709-1.801 1.327 1.706.948-1.042-.7584-1.801zm8.3416-11.849 1.0427 5.498 2.749.758 4.7396-2.749 4.1708-2.464-1.5167-2.18.474-2.275-1.9906 1.232-2.749-.758 1.5167-1.043 1.801.758 3.6969-1.706.474-1.422-2.275-.758.7583-1.801-2.6542 1.801-4.4552 3.412-4.55 2.749zm40.0964-18.769 2.275-1.421-.947-1.707-1.707.948z" fill="#9190ad" stroke="#fbfbfc"/><path d="m720.227 416.229 2.18 6.92 3.508 9.195 5.024 8.91 3.507 5.972 4.55 5.214 3.791 3.507 1.517 2.749-1.043 1.232-.758 1.233 2.749 7.014 2.749 2.749 2.465 5.024 3.412 5.498 4.266 7.773 1.232 7.204.474 11.375.664 1.706-.285 3.223-2.275 1.233.285 1.801-.664 1.801.284 2.275.474 1.801-2.654 3.033-2.938 1.422-3.697.19-1.422 1.516-2.275.948-1.232-.474-1.043-.948-.285-2.749-.758-3.223-3.223-4.929-3.412-2.18-3.697-.284-.758 1.232-2.939-4.171-.664-3.412-2.464-3.792-1.706-1.043-1.517 1.991-1.706-.285-1.991-4.739-2.749-3.697-2.749-5.024-2.464-2.939-3.413-3.507 1.991-2.275 3.033-5.213-.19-1.517-4.265-.948-1.517.569.285.569 2.464.947-1.422 4.266-.758.474-1.706-3.792-1.233-4.644-.284-2.655 1.422-4.455v-9.005l-2.939-3.507-1.232-2.939-4.929-1.232-1.801-.569-1.517-2.464-3.223-1.517-1.042-3.223-2.655-.948-2.275-3.507-3.981-1.422-2.749-1.422h-2.085l-3.792.758-.19 1.801.759.948-.474 1.043-2.939-.19-3.507 3.413-3.412 1.801h-3.697l-3.034 1.232-.284-2.654-1.517-1.801-2.749-1.043-1.516-1.422-7.679-3.696-7.204-1.707-4.171.569-5.687.474-5.688 1.991-3.317.568-.19-7.583-2.464-1.801-1.707-1.706.285-2.939 9.669-1.232 24.171-2.749 6.446-.569 5.119.285 2.465 3.697 1.421 1.421 7.679.474 10.237-.568 20.38-1.233 5.214-.663 4.834.189.379 2.749 2.086.759.189-4.361-1.422-3.981 1.233-1.327 5.213.474zm11.944 125.505 2.275-.664 1.232-.19 1.422-2.18 2.18-1.516 1.233.473 1.611.285.379.948-3.318 1.137-3.981 1.422-2.18 1.138zm12.797-4.74 1.137.948 2.654-1.991 5.024-3.981 3.508-3.697 2.369-6.256.948-1.612.19-3.223-.664.474-.948 2.655-1.421 4.36-3.034 4.929-4.171 3.981-3.222 1.801z" fill="#9190ad" stroke="#fbfbfc"/><path d="m834.926 134.982.853-1.042 1.043-3.129-2.37-.853-.474-2.938-3.697-1.043-.284-2.654-6.92-22.181-4.36-13.7451h-.854l-.663 1.5167-.664-.474-.948-.9479-1.421 1.801v4.7396l.284 5.4031 1.801 2.6546v3.791l-3.507 4.835-2.465 1.042v1.043l1.043 1.706v8.152l-.758 8.721-.19 4.645.948 1.232-.19 4.266-.474 1.706.948.664 15.925-4.171 2.086-.569 1.706-2.654z" fill="#9190ad" stroke="#fbfbfc"/><path d="m661.552 167.97-3.034-7.773-2.18-8.626-2.275-3.034-2.465-1.706-1.516 1.043-3.697 1.706-1.801 4.74-2.654 3.507-1.043.569-1.422-.569-2.275-1.991.474-4.739 3.223-1.233.758-3.223.664-2.464 2.275-1.517-.285-9.479-1.516-2.18-1.233-.759-.758-1.99.758-.758 1.517.284.19-1.517-2.465-2.085-1.232-2.465h-2.465l-4.265-1.327-5.214-3.223h-2.654l-.664.664-.948-.474-2.938-2.18-2.749 1.706-2.749 2.18.284 3.413.948.284 1.991.474.474.758-2.465.759-2.464.284-1.422 1.706-.285 1.991.285 1.516.284 5.214-3.412 1.991-.664-.19v-3.981l1.232-2.275.664-2.275-.758-.759-1.801.759-.948 3.981-2.655 1.043-1.706 1.801-.189.948.663.758-.663 2.465-2.181.474v1.042l.759 2.275-1.043 5.783-1.517 3.791.664 4.455.474 1.043-.758 2.275-.285.759-.284 2.654 3.412 5.687 2.749 6.162 1.422 4.644-.758 4.456-.948 5.687-2.275 4.929-.284 2.654-3.129 2.939 4.171-.19 20.286-2.18 6.919-.948.095 1.612 6.446-1.138 9.764-1.422 3.602-.474.095-.568.189-1.327 1.991-3.508 1.896-1.611-.19-4.835 1.517-1.516 1.042-.285.19-3.412 1.422-2.844.948.569.189.569.759.189 1.801-.948z" fill="#9190ad"/><path d="m551.308 77.8229 1.707-1.9906 2.085-.7583 5.119-3.6969 2.18-.5688.474.474-4.834 4.8344-3.128 1.801-1.991.8531zm81.711 30.4281.663 2.37 3.034.189 1.232-1.137-.379-1.517-1.517-1.801-2.085.19-1.517.189-.284 1.043zm-95.076-2.844.663-.568 2.655-.759 3.412-2.18v-.948l.664-.663 5.687-.9484 2.275-1.801 4.171-1.9906.189-1.2323 1.802-2.749 1.706-.7583 1.232-1.7063 2.18-2.1802 4.171-2.275 4.455-.4739 1.043 1.0427-.284.9479-3.508.9479-1.422 2.9386-2.18.7583-.474 2.275-2.275 3.0333-.284 2.4646.758.474.948-1.0427 3.413-2.749 1.232 1.2323h2.18l3.034.9479 1.421 1.0427 1.422 2.9385 2.654 2.654 3.697-.189 1.422-.948 1.517 1.232 1.516.474 1.233-.758h1.042l1.517-.948 3.792-3.4128 3.223-1.0427 6.256-.2844 4.266-1.801 2.464-1.2323 1.422.1896v5.4036l.474.284 2.749.758 7.583-1.9904 1.043-1.0427 1.422.4739v6.5402l3.033 2.939 1.232.664 1.233.947-1.233.285-.758-.285-3.507-.473-1.991.663-2.18-.19-3.033 1.328h-1.707l-5.498-1.233-4.929.19-1.801 2.464-6.635.664-2.275.758-1.043 2.939-1.232 1.043-.474-.19-1.422-1.517-4.266 2.275h-.663l-1.043-1.516-.758.189-1.801 4.171-.948 3.792-3.033 6.635-1.138-.948-1.327-.948-1.801-9.763-3.318-1.327-1.896-2.181-11.469-2.559-2.749-.948-7.773-2.085-7.489-1.043z" fill="#9190ad"/><path d="m661.552 167.97-3.034-7.773-2.18-8.626-2.275-3.034-2.465-1.706-1.516 1.043-3.697 1.706-1.801 4.74-2.654 3.507-1.043.569-1.422-.569-2.275-1.991.474-4.739 3.223-1.233.758-3.223.664-2.464 2.275-1.517-.285-9.479-1.516-2.18-1.233-.759-.758-1.99.758-.758 1.517.284.19-1.517-2.465-2.085-1.232-2.465h-2.465l-4.265-1.327-5.214-3.223h-2.654l-.664.664-.948-.474-2.938-2.18-2.749 1.706-2.749 2.18.284 3.413.948.284 1.991.474.474.758-2.465.759-2.464.284-1.422 1.706-.285 1.991.285 1.516.284 5.214-3.412 1.991-.664-.19v-3.981l1.232-2.275.664-2.275-.758-.759-1.801.759-.948 3.981-2.655 1.043-1.706 1.801-.189.948.663.758-.663 2.465-2.181.474v1.042l.759 2.275-1.043 5.783-1.517 3.791.664 4.455.474 1.043-.758 2.275-.285.759-.284 2.654 3.412 5.687 2.749 6.162 1.422 4.644-.758 4.456-.948 5.687-2.275 4.929-.284 2.654-3.129 2.939 4.171-.19 20.286-2.18 6.919-.948.095 1.612 6.446-1.138 9.764-1.422 3.602-.474.095-.568.189-1.327 1.991-3.508 1.896-1.611-.19-4.835 1.517-1.516 1.042-.285.19-3.412 1.422-2.844.948.569.189.569.759.189 1.801-.948z" stroke="#fbfbfc"/><path d="m551.308 77.8229 1.707-1.9906 2.085-.7583 5.119-3.6969 2.18-.5688.474.474-4.834 4.8344-3.128 1.801-1.991.8531zm81.711 30.4281.663 2.37 3.034.189 1.232-1.137-.379-1.517-1.517-1.801-2.085.19-1.517.189-.284 1.043zm-95.076-2.844.663-.568 2.655-.759 3.412-2.18v-.948l.664-.663 5.687-.9484 2.275-1.801 4.171-1.9906.189-1.2323 1.802-2.749 1.706-.7583 1.232-1.7063 2.18-2.1802 4.171-2.275 4.455-.4739 1.043 1.0427-.284.9479-3.508.9479-1.422 2.9386-2.18.7583-.474 2.275-2.275 3.0333-.284 2.4646.758.474.948-1.0427 3.413-2.749 1.232 1.2323h2.18l3.034.9479 1.421 1.0427 1.422 2.9385 2.654 2.654 3.697-.189 1.422-.948 1.517 1.232 1.516.474 1.233-.758h1.042l1.517-.948 3.792-3.4128 3.223-1.0427 6.256-.2844 4.266-1.801 2.464-1.2323 1.422.1896v5.4036l.474.284 2.749.758 7.583-1.9904 1.043-1.0427 1.422.4739v6.5402l3.033 2.939 1.232.664 1.233.947-1.233.285-.758-.285-3.507-.473-1.991.663-2.18-.19-3.033 1.328h-1.707l-5.498-1.233-4.929.19-1.801 2.464-6.635.664-2.275.758-1.043 2.939-1.232 1.043-.474-.19-1.422-1.517-4.266 2.275h-.663l-1.043-1.516-.758.189-1.801 4.171-.948 3.792-3.033 6.635-1.138-.948-1.327-.948-1.801-9.763-3.318-1.327-1.896-2.181-11.469-2.559-2.749-.948-7.773-2.085-7.489-1.043z" stroke="#fbfbfc"/><path d="m800.516 146.074.285-5.119-2.749-10.238-.664-.284-2.749-1.232.759-2.749-.759-1.991-2.559-4.36.948-3.697-.759-4.929-2.275-6.162-.758-4.645 25.025-6.3506.284 5.2136 1.801 2.559v3.792l-3.507 4.834-2.464 1.043v1.043l1.232 1.422-.284 7.678-.569 8.815-.19 5.309.948 1.232-.189 4.36-.474 1.612.948.663-7.015 1.422z" fill="#9190ad" stroke="#fbfbfc"/><path d="m874.738 74.6952 1.801 1.9906 2.18 3.5073v1.801l-1.99 4.4552-1.802.5688-3.223 2.9385-4.55 5.2136h-1.232l-.948-1.9906-1.706.1895-.948 1.3271-2.275 1.3271-.948 1.3271 1.517 1.3271-.474.6635-.474 2.654-1.801-.189v-1.327l-.284-1.2328-1.422.2844-1.707-3.0333-1.99 1.2323 1.232 1.327.284 1.0424-.758 1.233.284 2.938.19 1.517-1.517 2.464-2.749.474-.284 2.749-5.024 2.939-1.232.474-1.517-1.327-2.938 3.412.947 3.034-1.421 1.232-.19 4.171-1.043 5.972-2.37-1.138-.473-2.938-3.508-1.233-.284-2.654-6.92-22.181-4.455-13.8397 1.327-.0948 1.422.3791v-2.4645l1.232-4.2657 2.465-4.4552 1.422-3.7917-1.802-2.2749v-5.6876l.759-.9479.758-2.6541-.189-1.4219-.19-4.55 1.706-4.55 2.749-8.4365 1.991-3.9812h1.232l1.232.1896v1.0427l1.233 2.1802 2.654.6635.758-.7583v-.9479l3.792-2.749 1.706-1.7062 1.422.1895 5.688 2.275 1.801.948 8.531 28.3427h5.687l.759 1.801.189 4.55 2.749 2.1802h.759l.189-.4739-.474-1.0427zm-19.812 28.6268 1.422-1.422 1.327 1.043.569 2.275-1.611.853zm6.351-5.5924 1.707 1.801 1.232-.1896.19-1.8958.853-.7584-.759-1.7062-1.896.6635z" fill="#9190ad" stroke="#fbfbfc"/><path d="m828.575 169.582-3.508-14.219 5.972-1.801 2.086 1.801 3.128 4.076 2.559 4.171-2.844 1.517-1.232-.19-1.043 1.706-2.275 1.802z" fill="#9190ad" stroke="#fbfbfc"/><path d="m787.151 178.966-1.043-.947-2.464-.19-2.181-1.801-1.516-5.782-3.318.094-2.275-2.559-18.39 4.171-40.76 8.247-7.109 1.137-.664-6.161 1.327-1.043 1.232-1.043.948-1.516 1.707-1.043 1.801-1.706.474-1.517 1.99-2.654 1.043-.948-.19-.948-1.232-2.938-1.706-.19-1.801-5.782 2.749-1.707 4.17-1.327 3.792-1.232 3.034-.474 5.971-.19 1.801 1.233 1.517.189 1.991-1.232 2.464-1.043 4.929-.474 1.991-1.706 1.706-3.033 1.517-1.801h1.991l1.801-1.043.189-2.18-1.422-1.991-.284-1.327 1.043-1.991v-1.327h-1.707l-1.706-.758-.758-1.043-.19-2.464 5.498-5.214.664-.758 1.422-2.749 2.749-4.266 2.654-3.507 1.99-2.275 2.275-1.706 2.939-1.138 5.213-1.232 3.034.19 4.265-1.328 7.205-1.99.474 4.739 2.275 6.162.758 4.929-.948 3.697 2.465 4.266.758 1.99-.758 2.749 2.749 1.232.663.285 2.939 10.427-.474 4.834-.474 10.238.758 5.213.758 3.413 1.422 6.92v7.678l-1.042 2.18 1.706 1.896.758 1.611-1.801 1.706.284 1.233 1.233-.285 1.422-1.232 2.18-2.464 1.043-.569 1.516.569 2.18.189 7.489-3.697 2.749-2.654 1.232-1.327 3.981 1.517-3.222 3.412-3.697 2.086-6.731 5.024-2.464.947-5.498 1.802-3.792 1.042-1.137-.474-.19-3.507.474-2.654-.189-1.991-2.655-1.611-4.265-.948-3.697-1.043z" fill="#9190ad" stroke="#fbfbfc"/><path d="m782.126 212.997 1.233-.285 2.18-1.137 1.137-2.37 1.517-2.18 3.034-2.939v-.758l-5.688-3.792-.948-2.464-2.654-.285-.19-1.042-.758-2.655 2.18-1.042.19-2.275-1.233-1.233.19-1.516 1.801-2.939v-2.938l2.559-2.465-.853-.663-2.369-.19-2.181-1.801-1.422-5.782-3.317.094-2.37-2.559-17.157 3.981-40.761 8.247-8.436 1.327-.569-6.161-5.119 4.834-1.232.474-3.981 2.844 2.748 18.105 2.37 9.195 3.413 18.295 3.128-.569 11.28-1.422 35.926-7.299 14.124-2.654 7.868-1.517.284-.189 1.991-1.517z" fill="#9190ad" stroke="#fbfbfc"/><path d="m786.487 178.682-2.18 2.559v2.939l-1.801 2.938-.19 1.517 1.233 1.232-.19 2.275-2.18 1.043.758 2.654.19 1.043 2.654.284.948 2.465 3.412 2.275 2.275 1.517v.758l-2.843 2.559-1.517 2.181-1.422 2.654-2.18 1.232-.474 1.422-.19 1.137-.568 2.465 1.042 2.085 3.034 2.749 4.55 2.181 3.791.568.19 1.327-.758.948.284 2.655h.758l1.991-2.275.758-4.645 2.654-3.792 2.939-6.161 1.043-5.214-.664-1.043-.19-8.91-1.516-3.223-1.043.758-2.654.285-.474-.474 1.043-.948 1.99-1.801.095-1.043-.379-3.223.569-2.654-.095-1.896-2.654-1.706-4.835-1.138-3.886-1.327z" fill="#9190ad" stroke="#fbfbfc"/><path d="m782.6 216.409.379-1.991.38-1.611-1.517.379-1.517.474-2.085 1.706 1.611 4.74 2.181 5.403 1.99 9.195 1.517 5.972 4.739-.19 5.783-1.137-2.181-7.015-.947.474-3.413-2.275-1.706-4.455-1.801-3.413-3.034-2.749-.853-1.99z" fill="#9190ad" stroke="#fbfbfc"/><path d="m796.061 239.254-5.688 1.137-4.834.095-1.706-6.54-1.801-8.721-2.465-5.877-1.232-4.171-7.109 1.517-14.124 2.654-35.547 7.204 1.042 4.739.948 5.404.285-.285 1.99-2.275 2.18-2.464 2.275-.569 1.422-1.327 1.707-2.465 1.232.569 2.749-.284 2.464-1.991 1.896-1.327 1.707-.474 1.516 1.043 2.749 1.327 1.801 1.706 1.138 1.422 3.886 1.611v2.749l5.214 1.233 1.042.474 1.328-1.896 2.748 1.896-1.232 2.369-.758 3.792-1.706 2.465v1.99l.663 1.706 4.835 1.328 4.076-.095 2.938.948 1.991.284.948-1.991-1.422-1.99v-1.706l-2.275-1.991-1.991-5.214 1.232-5.024-.189-1.99-1.232-1.233 1.421-2.18.474-1.99 1.801-1.233 1.802-1.516.473.948-1.421 1.516-1.233 3.508.285 1.042 1.706.285.474 5.213-1.991.948.285 3.413.474-.19 1.042-1.801 1.517 1.706-1.517 1.233-.284 3.222 2.464 3.223 3.697.474 1.517-.758 3.033 3.981 1.327.474 6.351-2.654 1.896-3.792zm-15.167 8.531 1.043 2.37.19 1.706 1.042 1.801.853-1.137-.663-2.939-.664-2.18z" fill="#9190ad" stroke="#fbfbfc"/><path d="m788.288 252.24-.095-1.896 6.161-2.369-.758 3.033-2.749 3.602-.379 4.36.474 3.223-1.706 4.74-2.086 1.801-1.422-4.36.474-5.214 1.517-3.981zm3.223 26.826-55.169 11.944-35.452 5.024-6.351-.379-2.465 1.801-6.92.189-7.962.948-10.332 1.517 9.953-5.308v-1.991l1.422-1.991 9.953-10.901 3.791 4.266 3.602.948 2.37-1.043 2.086-1.232 2.369 1.232 3.697-1.327 1.801-4.36 2.465.474 2.749-1.991 1.706.474 2.654-3.507.285-1.991-.948-1.232.948-1.801 5.024-11.66.568-5.403 1.138-.474 2.085 2.275 3.697-.284 1.801-7.204 2.654-.569.948-2.559 2.465-2.275 2.654-5.404.095-4.834 9.289 3.602.759-4.834 3.507 1.516.095 2.749 5.498 1.233 1.99 1.137 1.612 1.991-.664 3.412-1.896 2.465.095 1.991.569 1.801 4.74 1.232h4.265l2.939.948 1.801.284.663 2.939 3.034.379.853 1.137-.379 4.456 1.327 1.042-.474 1.801 1.137.759-.189 1.327-2.56-.095.095 1.517 2.18 1.422.095 1.327 1.706 1.706.474 2.37-2.37 1.327 1.517 1.422 5.498-1.612z" fill="#9190ad" stroke="#fbfbfc"/><path d="m721.554 226.552 1.043 4.645 1.043 5.687 1.99-2.464 2.18-2.939 2.37-.569 1.422-1.327 1.706-2.464 1.422.568 2.749-.284 2.465-1.991 1.896-1.327 1.706-.474 1.232.948 3.413 1.706 1.801 1.707 1.327 1.232-.759 5.308-5.497-2.369-3.982-1.517-.094 4.929-2.655 5.214-2.369 2.275-1.138 2.654-2.465.474-.853 3.412-.948 3.792-3.791.284-2.18-2.275-1.043.569-.569 5.214-1.232 3.317-4.74 10.427.853 1.138-.189 1.801-2.654 3.697-1.707-.474-2.843 2.085-2.37-.569-1.896 4.361-3.697 1.327-2.37-1.138-2.18 1.328-2.275.947-3.507-.853-1.043-1.137-2.085-2.844-2.939-1.896-1.611-3.412-4.076-3.318-.664-2.18-2.465-1.422-.758-1.517-.189-4.929 2.085-.095 1.801-.758.19-2.654 1.516-1.422.19-4.74.948-3.696 1.232-.569 1.232 1.042.474 1.707 1.707-.948.473-1.517-1.042-1.706v-2.275l.948-1.232 2.18-3.223 1.232-1.327 1.991.474 2.18-1.517 2.939-3.223 2.18-3.697.284-5.403.474-4.74v-4.455l-1.043-2.938.948-1.327 1.233-1.233 3.317 18.769 4.361-.758z" fill="#9190ad" stroke="#fbfbfc"/><path d="m697.004 183.232-5.782 3.886-3.697 2.18-3.223 3.508-3.792 3.697-3.033.758-2.749.474-5.213 2.465-1.991.189-3.223-2.938-4.929.568-2.465-1.327-2.275-1.327-4.645.664-9.668 1.516-10.617 2.086 1.232 13.839 1.707 12.987 2.464 22.181.569 4.55 3.886-.095 2.275-.758 3.223 1.422 1.991 4.171h4.834l1.801 1.99 1.707-.094 2.369-1.233 2.37.379 5.119.474 1.611-1.99 2.181-1.233 1.99-.663.664 2.654 1.706.948 3.318 2.18 2.085-.095 1.232-.473.19-2.655 1.517-1.422.094-4.55.948-3.886 1.233-.569 1.232 1.043.474 1.611 1.611-.948.38-1.421-1.043-1.801.095-2.181.758-1.042 2.085-3.128.948-1.422 1.991.474 2.18-1.517 2.939-3.223 2.654-3.886.284-4.835.474-4.739-.189-5.024-.948-2.749.284-1.138 1.706-1.706-2.18-8.626z" fill="#9190ad" stroke="#fbfbfc"/><path d="m587.33 284.375.095-2.749.474-4.266 2.18-2.749 1.706-3.697 2.465-3.981-.474-5.498-1.707-2.654-.284-3.034.758-5.213-.474-6.635-1.232-15.167-1.232-14.598-.948-11.091 2.939.853 1.421.948 1.043-.284 1.991-1.801 2.654-1.517 4.834-.189 20.854-2.181 5.309-.473 1.422 15.166 3.981 34.884.569 5.497-.379 2.181 1.137 1.706.095 1.327-2.37 1.517-3.318 1.422-3.033.473-.569 4.645-4.36 3.128-2.654 3.792.284 2.275-.569 1.422h-3.128l-1.517-1.517-2.369 1.233-2.56 1.421.19 2.844-1.138.285-.474-.948-2.085-1.422-3.033 1.232-1.422 2.844-1.327-.759-1.422-1.516-4.266.474-5.308.948z" fill="#9190ad" stroke="#fbfbfc"/><path d="m587.235 284.659v-3.034l.569-4.36 2.18-2.749 1.801-3.887 2.086-3.791-.38-4.929-1.895-3.318-.095-3.223.663-5.024-.758-6.825-1.043-14.977-1.232-14.219-.853-10.996-.284-.853-.759-2.464-1.232-3.508-1.517-1.706-1.422-2.465-.189-5.213-43.415 2.465.19 2.275 2.18.663.853 1.043.474 1.706 3.697 3.223.664 2.18-.664 3.223-1.706 3.507-.664 2.37-2.18 1.706-1.706.664-5.024 1.327-.664 1.706-.663 1.991.663 1.327 1.706 1.517-.189 3.886-1.706 1.517-.664 1.516v2.56l-1.706.474-1.517 1.042-.189 1.328.189 1.99-1.611 1.233-.948 2.654.474 3.507 2.18 6.92 6.92 7.109 5.213 3.507-.189 4.076.853 1.328 6.067.474 2.559 1.327-.664 3.507-2.18 5.593-.663 3.033 2.18 3.697 6.066 5.024 4.361.663 1.991 4.74 1.99 3.033-.853 2.844 1.517 3.886 1.706 1.991 1.327-.853.853-1.991 2.086-1.706 1.99-.569 2.465 1.138 3.412 1.327 1.138-.284.189-2.181-1.232-2.275.284-2.275 1.707-1.327 2.843-.758 1.233-.474-.569-1.327-.758-2.275 1.327-.948z" fill="#9190ad" stroke="#fbfbfc"/><path d="m828.574 169.582-3.507-14.124-4.455.853-20.096 4.455.948 3.034 1.422 6.92.189 8.531-1.137 2.085 1.801 1.801 4.076-3.697 3.412-3.033 1.801-1.991.759.569 2.654-1.327 4.929-1.043z" fill="#9190ad" stroke="#fbfbfc"/><path d="m583.064 187.118-.094-3.033-1.138-4.266-.664-5.782-1.042-2.275.948-2.939.758-2.749 1.422-2.464-.664-3.223-.663-3.413.474-1.706 1.801-2.275.189-2.654-.758-1.232.664-2.465-.474-3.981 2.654-5.403 2.749-6.446.189-2.18-.284-.948-.758.474-3.982 5.972-2.654 3.791-1.801 1.706-.758 2.181-1.896.758-1.043 1.801-1.422-.284-.189-1.707 1.232-2.275 1.991-4.455 1.706-1.516.948-2.275-2.465-1.801-1.896-9.859-3.317-1.232-1.896-2.18-11.47-2.56-2.749-.948-7.773-2.085-7.488-1.138-3.602-4.834-.759.569-1.137-.19-.664-1.042-1.232.284-1.043.19-1.706.947-.948-.663.664-1.801 1.801-2.939 1.042-1.0424-1.801-1.3271-1.99.7584-2.749 1.8011-7.015 3.033-2.749.664-2.749-.474-.948-.853-1.99 2.654-.19 2.559v8.058l-1.043 1.516-5.024 3.697-2.18 5.593.474.189 2.37 1.991.664 3.033-1.707 3.034v3.697l.474 6.256 2.844 2.844h3.223l1.706 3.033 3.223.474 3.697 5.403 6.73 3.886 1.991 2.56.853 7.014.663 3.129 2.181 1.516.189 1.327-1.99 3.223.189 3.033 2.37 3.697 2.37 1.043 2.844.474 1.232 1.327z" fill="#9190ad" stroke="#fbfbfc"/><path d="m791.511 278.971 1.99 4.645 3.413 6.162 2.275 2.275.664 2.18-2.275.189.758.569-.284 3.981-2.465 1.233-.664 1.99-1.232 2.749-3.507 1.517-2.275-.284-1.422-.19-1.517-1.232.285 1.232v.948h1.801l.758 1.232-1.801 5.972h3.981l.664 1.517 2.18-2.18 1.232-.474-1.801 3.412-2.938 4.645h-1.233l-1.042-.474-2.654.569-4.93 2.275-6.161 5.024-3.223 4.455-1.801 6.161-.474 2.275-4.455.474-5.214 1.233-9.479-7.773-11.944-7.204-2.749-.759-11.943 1.422-4.076.758-1.517-3.033-2.844-1.991-15.641.474-6.919.759-8.532 4.265-5.782 2.465-20.096 2.465.474-3.792 1.707-1.422 2.654-.569.663-3.507 3.981-2.654 3.697-1.422 3.982-3.413 4.17-1.99.664-2.939 3.697-3.697.663-.189.759 1.042 1.801.285 2.18-3.413 1.991-.568 2.18.284 1.516-3.412 2.749-2.465.474-1.991.19-3.412h4.076l6.825-.853 14.977-2.086 14.314-1.99 20.475-4.456 18.958-4.076 10.617-2.275zm3.981 31.471 2.465-2.37 3.033-2.464 1.422-.569.19-1.896-.664-5.782-1.422-2.18-.663-1.801.663-.19 2.654 5.214.379 4.265-.189 3.223-3.223 1.422-2.654 2.275-1.043 1.138z" fill="#9190ad" stroke="#fbfbfc"/><path d="m763.832 237.737-1.706-1.706-1.138-.664 1.328-1.896 2.749 1.801z" fill="#9190ad"/><path d="m763.832 237.737-1.706-1.706-1.138-.664 1.328-1.896 2.749 1.801zm101.569 53.888-.759-.853-1.327-1.327-.569-.664-1.421-1.516-.569-.664-2.37-2.37-.379-.474-9.29-9.289-1.042-1.138-.948-1.043-.285-.379-3.697-3.697-.758-.663-5.498 5.498h-.095l-3.412 3.412-1.612 1.801-.663.569-2.749 2.844.379.474.19.853.568.853 1.233 1.422.474 1.422.379.379 1.327 1.232.664.379 1.421.569.759.095.474.095.948.095.568.284.474 1.896.19.569.948 1.99h.569l.189.19.569.948v.474l.379.568.474-.094.095-.38-.19-.473.19-.095.379.284.474.664.284.758v.569l-.095.379.19.569 1.138 2.654-.19 1.99-1.517.38h-.474l-.094.379v.853l.284.379.19-.095h.284l.379.379.19.854-.19 1.706.095.474.095.948.379.189-.569 3.318.095 2.18 6.73-7.014.19-.095h.094l.095-.095.285-.19.284-.284.569-.663 1.422-1.422.947-.853 4.645-4.645.664-.569 3.128-3.128 1.327-1.422 2.559-2.559z" fill="#9190ad"/><g stroke="#fbfbfc"><path d="m763.832 237.737-1.706-1.706-1.138-.664 1.328-1.896 2.749 1.801z"/><path d="m763.832 237.737-1.706-1.706-1.138-.664 1.328-1.896 2.749 1.801zm101.569 53.888-.759-.853-1.327-1.327-.569-.664-1.421-1.516-.569-.664-2.37-2.37-.379-.474-9.29-9.289-1.042-1.138-.948-1.043-.285-.379-3.697-3.697-.758-.663-5.498 5.498h-.095l-3.412 3.412-1.612 1.801-.663.569-2.749 2.844.379.474.19.853.568.853 1.233 1.422.474 1.422.379.379 1.327 1.232.664.379 1.421.569.759.095.474.095.948.095.568.284.474 1.896.19.569.948 1.99h.569l.189.19.569.948v.474l.379.568.474-.094.095-.38-.19-.473.19-.095.379.284.474.664.284.758v.569l-.095.379.19.569 1.138 2.654-.19 1.99-1.517.38h-.474l-.094.379v.853l.284.379.19-.095h.284l.379.379.19.854-.19 1.706.095.474.095.948.379.189-.569 3.318.095 2.18 6.73-7.014.19-.095h.094l.095-.095.285-.19.284-.284.569-.663 1.422-1.422.947-.853 4.645-4.645.664-.569 3.128-3.128 1.327-1.422 2.559-2.559z"/><path d="m852.747 164.178 2.085-.663.474-1.612.948.095.948 2.18-1.232.474-3.697.095zm-8.911.854 2.18-2.465h1.517l1.706 1.422-2.275.948-2.085.948zm-32.892-20.855 16.778-4.36 2.18-.569 1.801-2.654 3.507-1.612 2.749 4.171-2.275 4.93-.284 1.327 1.801 2.464 1.043-.758h1.706l2.18 2.464 3.697 5.688 3.412.474 2.181-.948 1.706-1.706-.759-2.654-1.99-1.517-1.422.758-.948-1.232.474-.474 1.991-.19 1.706.759 1.801 2.275.948 2.749.284 2.275-3.981 1.327-3.697 1.801-3.697 4.265-1.801 1.328v-.948l2.275-1.327.474-1.707-.758-2.938-2.749 1.327-.758 1.327.474 2.18-1.991.948-2.654-4.266-3.223-4.17-1.991-1.707-6.161 1.801-5.024 1.327-19.622 4.361-.664-4.55.664-10.048 4.076-.853z" fill="#9190ad"/><path d="m660.414 301.627-49.197 4.739-14.977 1.707-4.36.474h-3.697l-.19 3.886-7.773.284-6.635.569-7.678-.095-1.327 6.731-1.517 5.213-1.138 3.128-1.706 5.783-2.654 2.275 1.232 3.791 2.939.474-1.706 1.138-.19 2.464 96.687-9.289.38-3.792 1.706-1.422 2.654-.758.664-3.507 3.886-2.56 3.792-1.422 3.886-3.412 4.171-1.896.474-2.939 3.886-3.791.474-.095.759 1.043 1.801.379 2.18-3.413 1.991-.568 2.18.284 1.516-3.318 2.844-2.464.379-1.801.285-3.508-2.086-.189-2.464 1.896h-6.636l-17.441 2.275z" fill="#9190ad"/><path d="m562.874 325.134-3.792.664-4.834-.569.379-1.516 2.844-2.465.853-3.507-1.706-2.844-74.317 2.37 1.517 6.54v7.773l1.327 10.427.189 35.832 2.18 1.801 2.844-1.327 2.56 1.042.663 6.257 52.704-1.043 1.138-1.991-.285-3.318-1.706-2.843 1.517-1.422-1.517-2.37.664-2.37 1.327-5.308 2.37-1.991-.664-2.18 3.507-5.119 2.56-1.327-.095-1.422-.284-1.706 2.749-5.308 2.274-1.232.38-3.223 1.706-1.138-2.939-.474-1.232-3.792 2.654-2.275.474-1.895 1.232-3.792z" fill="#9190ad"/><path d="m529.317 235.177-2.369-2.938-1.043-2.181-61.046 2.275-2.18.095 1.232 2.37-.189 2.18 2.369 3.697 2.939 3.887 2.939 2.559 2.085.189 1.422.854v2.843l-1.706 1.517-.474 2.18 1.99 3.223 2.37 2.844 2.37 1.706 1.327 11.091.284 34.22.19 4.455.474 5.119 21.233-.854 21.992-.663 19.716-.758 11.091-.19 2.085 3.223-.663 3.128-2.939 2.275-.568 1.706 5.118.474 3.697-.663 1.612-5.214.663-5.593 1.991-2.464 2.464-1.422v-2.844l.948-1.801-1.611-2.37-1.233.948-1.895-2.085-1.233-4.55.759-2.37-1.801-3.223-1.707-4.36-4.55-.759-6.635-5.308-1.611-3.886.758-3.034 1.991-5.782.473-2.749-1.895-.948-6.541-.758-.948-1.612-.095-3.981-5.213-3.223-6.636-7.394-2.18-6.919-.189-3.982.568-2.18z" fill="#9190ad"/><path d="m637.285 336.984v2.086l.19 1.99.663 3.223 3.223 7.489 2.275 9.384 1.422 5.782 1.517 4.645 1.422 6.636 1.99 5.971 2.465 3.223.474 3.223 1.801.759.19 1.99-1.707 4.645-.474 3.033-.189 1.801 1.516 4.171.285 5.024-.759 2.275.664.759 1.422.758.189 3.033 2.086 3.223 2.085 2.086 7.489.189 10.237-.569 20.381-1.232 5.213-.663h4.36l.19 2.748 2.465.759.284-4.171-1.517-4.266 1.043-1.516 5.498.758 4.74.284-.759-5.971 2.18-9.48 1.422-3.981-.474-2.464 3.128-5.878-.473-1.327-1.801.664-2.465-1.232-.664-1.991-1.232-3.413-2.18-1.99-2.465-.569-1.516-4.645-2.749-5.972-3.982-1.801-1.99-1.801-1.233-2.464-1.99-1.801-2.18-1.233-2.181-2.749-2.938-2.18-4.266-1.706-.474-1.422-2.275-2.749-.474-1.422-3.223-4.739-3.317.094-3.602-2.275-1.327-1.232-.285-1.706.853-1.801 2.086-1.043-.569-1.99z" fill="#9190ad"/><path d="m725.062 386.939-1.707.948-2.464-1.232-.664-1.991-1.232-3.412-2.18-1.991-2.465-.569-1.517-4.644-2.654-5.688-3.981-1.801-1.991-1.801-1.232-2.465-1.991-1.801-2.18-1.232-2.18-2.749-2.938-2.18-4.266-1.706-.474-1.422-2.275-2.749-.474-1.422-3.223-4.929-3.223.189-3.791-2.275-1.233-1.232-.284-1.706.758-1.801 2.18-.948-.474-2.18 5.498-2.181 8.626-4.36 7.394-.758 15.262-.38 2.464 1.802 1.612 3.222 4.076-.568 11.943-1.422 2.749.758 11.944 7.204 9.858 7.678-5.118 5.214-2.465 5.782-.474 5.972-1.517.759-1.042 2.654-2.275.568-1.991 3.413-2.654 2.654-2.18 3.223-1.517.758-3.412 3.128-2.749.19.948 3.033-4.74 5.214z" fill="#9190ad"/><path d="m688.188 279.919-2.18 2.275-3.412 3.792-4.645 5.213-1.138 1.612-.094 1.99-4.171 2.086-5.403 3.223-6.825 1.706-49.197 4.645-14.883 1.611-4.36.474h-3.697l-.19 3.982-7.772.094-6.636.569-7.583-.095 1.137-1.232 2.37-1.422.19-3.033.853-1.706-1.517-2.37.758-1.801 2.181-1.707 1.99-.568 2.654 1.232 3.413 1.232 1.043-.284.189-2.18-1.232-2.275.284-2.181 1.801-1.421 2.465-.569 1.517-.569-.759-1.706-.663-1.801 1.422-.948 1.137-3.507 2.844-1.422 5.024-.948 4.265-.474 1.328 1.516 1.421.854 1.517-2.939 3.033-1.232 2.086 1.422.379.948 1.138-.285-.19-2.844 2.938-1.706 2.086-1.043 1.422 1.612h3.128l.569-1.517-.379-2.18 2.464-3.792 4.55-3.223.664-4.55 2.749-.473 3.602-1.517 2.275-1.612-.19-1.516-1.043-1.422.569-2.844 3.981-.095 2.181-.758 3.128 1.327 1.896 4.171h4.834l1.896 2.085 1.516-.094 2.465-1.233 4.929.569 2.465.19 1.611-1.991 2.465-1.327 1.801-.664.663 2.654 1.896 1.043 2.465 1.991.095 5.403.758 1.517 2.464 1.516.759 2.18 3.981 3.223 1.706 3.413z" fill="#9190ad"/><path d="m598.42 436.42-1.422-13.555-2.654-17.821.19-13.365.758-29.386-.19-15.735.19-6.067 42.182-3.412-.189 2.085.189 1.991.664 3.222 3.223 7.489 2.275 9.384 1.421 5.783 1.517 4.645 1.422 6.635 1.991 5.972 2.464 3.223.474 3.223 1.801.758.19 1.991-1.706 4.644-.474 3.034-.19 1.801 1.517 4.171.284 5.024-.758 2.275.663.758 1.422.758.284 2.749-5.308-.379-6.446.569-24.172 2.749-9.858 1.327-.189 2.749 1.706 1.706 2.464 1.801.569 7.489-5.213 2.464-2.844-.284 2.654-1.801v-.948l-2.938-5.688-2.181-.568-1.422 4.17-1.232 2.655-.663-.19z" fill="#9190ad"/><path d="m576.333 435.282-3.128-3.033.948-5.213-.663-.854-8.816.948-23.698.474-.663-2.275.853-8.057 3.128-5.688 4.74-8.246-.569-2.275 1.232-.664.474-1.896-2.18-1.99-.095-1.801-1.706-4.171-.19-5.972-52.609.853v9.1l.663 8.91.664 3.697 2.37 3.887.853 4.739 4.076 5.214.189 3.033.664.664-.664 8.057-2.843 4.74 1.516 1.99-.663 2.37-.664 6.92-1.327 3.033.095 3.413 4.455-1.422 11.47.189 9.763 3.413 6.162 1.043 3.507-1.422 3.034 1.042 3.033.948.758-1.99-3.033-1.043-2.465.474-2.654-1.517.759-1.422 2.938-.948 1.706 1.422 1.707-.948 3.033.569 1.422 2.275.284 2.18 4.266.285 1.706 1.706-.758 1.517-1.233.758 1.517 1.517 7.963 3.412 3.412-1.232.948-2.275 2.465-.569 1.706-1.422 1.232.948.758 2.749-2.18.758.664.569 3.223-1.232 2.18-3.223.758-.474-1.99-.284.758-1.517-.19-1.422 1.991-.474 1.043-1.232.663.758.664 2.939 3.981.569 3.792 1.801.948 1.421h2.749l1.042.948 2.18-2.938v-1.422h-1.232l-3.223-2.654-5.498-.759-3.033-2.18 1.043-2.654 2.18.284.189-.568-1.706-.948v-.474h3.034l1.706-2.939-1.232-1.801-.285-2.654-1.422.19-1.801 1.99-.663 2.465-2.939-.569-.948-1.706 1.706-1.801 1.802-3.318-1.043-2.275z" fill="#9190ad"/><path d="m598.705 435.377-.19 1.232h-4.929l-1.422-.758-1.99-.284-6.446 1.801-1.706-.759-2.465 3.982-1.043.758-1.042-2.37-1.043-3.697-3.223-3.033 1.043-5.214-.664-.853-1.706.19-7.489.853-23.224.379-.758-2.085.853-7.963 2.939-5.403 4.929-8.626-.474-2.275 1.137-.663.38-1.801-2.181-1.991-.094-1.991-1.707-3.886-.095-5.688 1.233-2.369-.19-3.223-1.706-2.939 1.422-1.422-1.517-2.37.474-1.516 1.517-6.162 2.37-1.896-.569-2.275 3.507-5.023 2.654-1.328-.189-1.611-.285-1.611 2.749-5.309 2.181-1.137.189-.853 35.357-3.697.19 5.972.19 15.735-.759 29.385-.189 13.366 2.654 17.821z" fill="#9190ad"/><path d="m539.554 189.203.285 2.654 2.085.569.948 1.138.474 1.801 3.602 3.223.664 2.275-.664 3.222-1.516 3.034-.759 2.559-2.085 1.517-1.612.569-5.308 1.801-1.327 3.697.664 1.327 1.706 1.611-.285 3.792-1.706 1.422-.758 1.516.095 2.654-1.801.474-1.517 1.043-.285 1.327.285 1.991-1.422 1.043-2.37-2.939-1.232-2.275-62.278 2.37-.853.189-1.896-4.265-.19-6.256-1.516-3.887-.664-5.024-2.18-3.507-.853-4.55-2.56-7.11-1.042-5.118-1.327-2.086-1.517-2.559 1.896-4.55 1.327-5.403-2.56-1.991-.474-2.559.854-3.37h1.611l78.298-1.232.758 3.981 2.086 1.517.284 2.327-1.896 3.223.19 3.033 2.37 2.602 2.369 1.232 2.939.474z" fill="#9190ad"/><path d="m450.45 122.091-.474-8.058-1.611-6.919-1.706-12.7973-.474-9.2896-1.707-3.2229-1.516-4.7396v-9.7635l.663-3.6969-1.706-5.2136h28.532l.285-7.7729.569-.1896 2.18.474 1.801.7583.758 5.2136 1.422 5.7823 1.517 1.5166h4.644l.285 1.3271 5.972.2844v1.9906h4.55l.284-1.2323 1.043-1.0427 2.18-.6635 1.232.9479h2.749l3.697 2.4646 5.024 2.275 2.275.4739.474-.9479 1.422-.4739.474 2.7489 2.465 1.2323.474-.474 1.232.1896v1.9907l2.464.9479h2.939l1.517-.7584 3.033-3.0333 2.464-.474.759 1.7063.474 1.2323h.948l.948-.7583 8.436-.2844 1.706 2.9385h.664l.663-1.0427 4.171-.3792-.568 2.1803-3.697 1.7062-8.721 3.8865-4.55 1.8958-2.939 2.4646-2.275 3.4125-2.18 3.6969-1.706.7583-4.266 4.7396-1.232.19-4.076 2.654-2.37 3.033-.19 3.033.095 7.584-1.327 1.611-4.834 3.602-2.086 5.688 2.749 2.085.664 3.034-1.801 3.033.189 3.602.38 6.351 2.843 2.844h3.128l1.802 2.938 3.222.474 3.697 5.403 6.73 3.887 1.991 2.749.664 6.066-76.971 1.043-.285-33.84-.474-2.844-3.886-3.223-1.043-1.706v-1.422l1.991-1.517 1.327-1.327-.19-3.033z" fill="#9190ad"/><path d="m360.493 304.091-15.83-1.232-.853 10.427 19.432 1.138 30.428 1.232-2.18 23.129-.474 16.873.189 1.517 4.077 3.507 1.99 1.043.664-.19.663-1.99 1.327 1.706h1.991v-1.327l2.559 1.327-.474 3.697 3.887.189 2.37 1.043 3.886.664 2.37 1.706 2.18-1.991 3.223.664 2.37 3.223h.853v2.18l2.18.663 2.18-2.18 1.707.664h2.369l.853 2.37 5.972 1.99 1.327-.663 1.707-3.887h1.042l1.043 1.991 3.887.663 3.507 1.327 2.844.854 1.706-.854.663-2.369h4.076l1.991.853 2.559-1.991h1.043l.664 1.517h3.886l1.517-1.991 1.706.474 1.991 2.37 3.033 1.706 3.033.853 1.801 1.043-.379-35.263-1.327-10.427-.189-8.436-1.328-6.162-.758-6.825-.095-3.602-11.469.285-43.984-.474-42.656-1.991z" fill="#9190ad"/><path d="m342.672 313.381 21.518 1.042 29.48 1.043-2.18 22.276-.284 17.157.095 1.991 4.076 3.602 1.895 1.422 1.138-.569.379-1.706 1.043 1.706h1.99v-1.422l1.612.948 1.043.379-.38 3.792 3.887.095 2.749 1.137 3.792.474 2.275 1.991 1.99-1.991 3.507.569 2.086 3.033 1.043.285-.19 1.896 2.085.758 2.181-1.896 1.99.569h2.086l.853 2.275 5.972 1.99 1.516-.758 1.422-3.981h.285l.853.095 1.137 1.99 3.697.664 3.128 1.042 3.223 1.138 1.706-.948.664-2.37h4.266l1.706.853 2.654-1.99h1.043l.853 1.516h3.791l1.422-1.895 1.801.379 1.896 2.275 3.318 1.896 2.749.758 1.422.758 2.37 1.896 2.843-1.232 2.56 1.043.568 5.782v9.195l.664 9.005.663 3.412 2.56 4.171.853 4.74 3.981 5.213.19 2.939.758.758-.663 7.963-2.749 4.739 1.422 1.991-.569 2.18-.664 7.015-1.422 3.128.285 3.317-5.403 1.517-9.385 4.266-.948 1.801-2.464 1.801-1.991 1.422-1.232.758-5.119 5.593-2.654 1.99-5.024 3.034-5.403 2.275-5.972 3.223-1.706 1.422-5.498 3.412-3.223.664-3.697 5.213-3.792.285-.948 1.801 2.181 1.801-1.422 5.213-1.233 4.266-1.042 3.697-.759 4.265.759 2.275 1.706 6.636.948 5.782 1.706 2.654-.948 1.327-2.938 1.801-5.403-3.697-5.214-1.042-1.232.474-3.034-.664-3.981-2.938-4.929-1.043-7.204-3.223-1.991-3.697-1.232-6.161-3.033-1.801-.569-2.181.569-.663.284-3.223-1.232-.664-.569-.948 1.232-4.17-1.516-2.181-3.034-1.232-3.223-4.171-3.412-6.256-3.981-2.465.189-1.801-5.024-11.659-.758-3.981-1.706-1.801-.19-1.422-5.687-5.024-2.465-2.939v-1.042l-2.465-1.991-6.445-1.043-7.015-.568-2.939-2.181-4.265 1.707-3.413 1.421-2.18 3.034-.948 3.507-4.171 5.782-2.275 2.275-2.464-.948-1.707-1.042-1.801-.569-3.696-2.18v-.569l-1.707-1.801-4.929-1.991-7.014-7.393-2.181-4.456v-7.678l-3.033-6.161-.474-2.654-1.517-.948-1.042-1.991-4.74-1.991-1.232-1.516-6.73-7.489-1.233-3.033-4.455-2.18-1.422-4.171-2.464-2.749-1.801-.474-.569-4.455 7.583.663 27.49 2.56 27.489 1.516 2.086-18.484 3.697-52.704 1.516-17.821h1.327l-.948.664zm94.982 217.641-.569-6.73-2.654-6.825-.569-6.635 1.422-7.773 3.128-6.541 3.318-5.119 2.938-3.412.569.189-4.55 6.257-4.171 6.161-1.896 6.256-.284 4.93.853 5.782 2.465 6.825.474 4.929.189 1.422z" fill="#9190ad"/><path d="m273.096 401.916-.759-4.55 8.152.474 28.627 2.843 25.878 1.612 2.086-17.726 3.697-52.989 1.611-18.389 1.517.094.758-10.616-98.583-10.048-16.589 114.129 14.693 1.896 1.232-9.479z" fill="#9190ad"/><path d="m481.447 307.504-11.944.189-43.699-.474-42.277-1.99-23.319-1.233 3.697-61.235 20.949.663 38.201.759 41.993.948h4.834l2.086 2.085h1.896l1.516.948-.095 2.844-1.706 1.611-.284 2.086 1.706 3.223 2.844 3.033 2.18 1.517 1.232 10.616z" fill="#9190ad"/><path d="m460.783 228.163 3.033 6.635-.095 2.181 3.318 5.213 2.559 2.939h-4.739l-41.235-.853-38.675-.854-21.043-.758 1.042-20.19-30.617-2.749 4.076-41.709 14.692.948 19.053 1.043 16.873 1.043 22.561 1.042 10.237-.474 1.991 2.181 4.55 2.843 1.043.853 4.076-1.327 3.696-.474 2.56-.189 1.706 1.327 3.887 1.517 2.843 1.516.474 1.517.853 1.991h1.707l.758.094.853 4.456 2.749 8.057.569 3.602 2.37 3.602.568 4.834 1.517 3.982z" fill="#9190ad"/><path d="m451.683 193.375v-.569l-2.749-4.645 1.801-4.455 1.422-5.593-2.654-1.99-.379-2.56.758-2.464h3.033l-.095-4.74-.284-28.627-.569-3.602-3.886-3.128-.948-1.612-.095-1.516 1.896-1.422 1.422-1.612.189-2.559-55.263-1.517-51.946-3.223-5.024 60.383 13.84.853 18.958 1.137 16.778.853 22.561 1.233 11.375-.379 1.895 2.085 4.93 3.033.758.664 4.266-1.327 6.161-.569 1.611 1.232 3.982 1.517 2.843 1.517.38 1.422.948 2.085z" fill="#9190ad"/><path d="m450.545 122.186-.569-7.962-1.611-6.446-1.801-12.3231-.474-10.4271-1.612-2.9385-1.706-4.9292v-9.8583l.569-3.6021-1.706-5.2135-27.111-.5688-17.631-.6635-25.12-1.2323-21.802-1.9907-6.635 63.7001 52.04 3.128z" fill="#9190ad"/><path d="m341.63 135.836-101.143-12.797-13.365 83.891 107.399 12.891z" fill="#9190ad"/><path d="m349.971 54.0309-29.101-2.6541-27.774-3.4125-27.774-3.7917-30.618-5.024-17.441-3.2229-30.997-6.5406-4.266 20.1906 3.223 7.1094-1.327 4.3604 1.706 4.3604 3.034 1.3271 4.36 10.2375 2.559 3.0334.474 1.0427 3.223 1.0427.474 1.9906-6.73 16.6831v2.37l2.37 3.033h.853l4.55-2.843.663-1.043 1.517.663-.189 5.024 2.559 11.944 2.844 2.37.853.664 1.706 2.18-.474 3.223.664 3.223 1.042.853 2.181-2.181h2.559l3.033 1.517 2.37-.853h3.887l3.507 1.517 2.559-.474.474-2.844 2.844-.664 1.327 1.328.474 3.033 1.327.758 1.801-10.427 101.238 12.702 8.436-81.8051z" fill="#9190ad"/><path d="m360.209 304.281 4.645-81.805-107.494-12.039-11.564 83.322z" fill="#9190ad"/><path d="m141.145 165.885 7.963-32.039 1.327-3.982 2.37-5.592-1.233-2.181-2.369.095-.759-.948.474-1.042.285-2.939 4.265-5.214 1.706-.473 1.043-1.043.569-3.034.853-.663 3.697-5.498 3.697-4.076.189-3.6021-3.223-2.4646-1.421-4.1708 12.891-60.0032 12.797 2.3698-4.265 20.1906 3.412 7.1094-1.517 4.4552 1.896 4.3604 2.939 1.2323 3.602 9.1 3.318 4.1709.473 1.0427 3.129 1.0427.379 1.9906-6.636 16.4941-.189 2.464 2.464 3.128.853-.094 4.645-2.844.664-1.043 1.517.664-.285 5.024 2.559 11.943 3.697 3.034 1.612 2.085-.664 3.887 1.043 2.654 1.043 1.042 2.369-2.275 2.749.095 2.749 1.233 2.655-.664 3.602-.19 3.791 1.517 2.56-.284.474-2.844 2.749-.758 1.232 1.422.379 2.748 1.327 1.138-7.962 50.808-44.552-8.626z" fill="#9190ad"/><path d="m245.985 293.948-79.436-11.28 19.527-106.641 44.552 8.531-1.611 9.859-2.18 12.512 7.394.853 15.545 1.707 7.773.853z" fill="#9190ad"/><path d="m137.353 362.673-2.464 2.085-.285 1.422.474.948 17.916 10.142 11.47 7.205 13.934 8.152 15.925 9.479 11.659 2.275 23.604 2.559 16.399-112.897-79.341-11.28-2.939 15.546h-1.516l-1.612 2.465-2.37-.095-1.232-2.56-2.559-.284-.853-1.043h-.948l-.853.569-1.801.948-.095 6.635-.19 1.612-.569 11.944-1.421 2.085-.569 3.128 2.559 4.645 1.232 5.498.759.948.948.569-.095 2.18-1.517 1.327-3.223 1.611-1.801 1.801-1.422 3.508-.568 4.644-2.749 2.56-1.991.663.095.759-.474 1.611.474.758 3.507.569-.569 2.56-1.421 2.085z" fill="#9190ad"/><path d="m186.172 175.933-22.371 122.091-1.706.379-1.517 2.275h-2.275l-1.422-2.559-2.464-.379-.759-1.043h-.948l-2.654 1.517-.284 6.446-.379 5.498-.38 8.152-1.327 1.99-2.275-1.042-65.5007-98.868 18.0104-64.079z" fill="#9190ad"/><path d="m141.146 165.885 8.247-32.514 1.042-3.981 2.275-5.309-.568-1.137-2.37-.095-1.233-1.611.474-1.422.474-3.033 4.266-5.214 1.706-1.043 1.043-1.042 1.422-3.413 3.886-5.403 3.413-3.697.189-3.2229-3.128-2.3698-1.706-4.3604-12.039-3.4125-14.313-3.3177-14.598.0948-.474-1.3271-5.213 1.9906-4.266-.5687-2.275-1.5167-1.232.6636-4.456-.1896-1.611-1.3271-5.024-1.9906-.7584.0948-4.076-1.3271-1.801 1.7062-5.8771-.2843-5.5927-3.8865.6635-.7583.1896-7.3938-2.1802-3.6969-3.8865-.5687-.6635-2.275-2.1802-.474-5.4979 1.9906-2.1803 6.1615-3.1281 9.4792-3.0333 6.1614-4.7396 13.3657-6.1615 12.7023-7.6781 11.944-1.801 2.748-.7584 8.153.3792 11.469 63.7 14.883z" fill="#9190ad"/><path d="m96.7826 7.20349 4.1704 1.42188 9.195 2.65413 8.152 1.8011 19.053 5.4031 21.803 5.4031 14.408 3.0334-12.892 60.2875-11.754-3.3177-14.693-3.4125h-14.408l-.474-1.2323-5.308 2.0854-4.361-.6635-2.085-1.5167-1.422.474-4.455-.0948-1.612-1.2323-5.0236-1.9907-.6636.1896-4.1708-1.6114-1.801 1.7062-5.9719-.2844-5.5927-3.8864.7583-.8531.0948-7.299-2.1802-3.6021-3.8865-.5687-.6635-2.3698-2.1802-.474-3.4125 1.1375-2.1802-3.0333.2844-2.749 2.6541-.2844 1.5167-3.7916-2.3698-1.1375.1896-3.5073 4.1708-.6636-2.6542-2.6541-1.327-6.7302.6635-2.749v-7.4885l-1.7062-3.0334 2.1802-8.9104 1.9906.474 2.275 2.7489 2.6542 2.4646 3.0333 1.801 4.2656 1.9907 2.9386.5687 2.7489 1.4219 3.2229.9479 2.1802-.1896v-2.275l1.2323-1.0427 1.9907-1.2323.2843 1.0427.2844 1.7063-2.1802.4739-.2844 1.9907 1.7063 1.4218 1.0427 2.275.6635 1.8011 1.3271-.1896.1896-1.2323-.9479-1.2323-.474-3.0333.7584-1.7063-.6636-1.4218v-2.1802l1.7063-3.4125-1.0427-2.4646-2.275-4.64482.2843-.75834zm-9.0052 5.68751 1.8959-.1896.4739 1.3271 1.4219-1.5167h2.275l.7583 1.4219-1.4218 1.6115.6635.7583-.6635 1.8958-1.3271.3792-.8532-.1896 1.3271-2.4646-1.6114-.5687-.2844 1.4219-.6636.5687-1.4218-2.0854z" fill="#9190ad"/><path d="m137.164 362.293 3.697-.474 1.421-1.896.474-2.749-3.412-.569-.474-.663.474-1.896-.19-.569 1.801-.569 2.844-2.654.569-4.739 1.327-3.223 1.801-2.086 3.318-1.516 1.516-1.517.095-1.991-.948-.568-.948-1.043-1.137-5.593-2.56-4.55.569-3.317-2.275-.948-65.406-98.773 17.9156-64.08-63.6052-14.882-1.4219 4.455-.1896 7.015-4.9292 11.185-2.9385 2.465-.2844 1.043-1.7062.758-1.4219 3.981-.7583 3.034 2.6541 3.981 1.5167 3.981 1.0427 3.413-.2844 6.161-1.7062 2.939-.5688 5.497-.9479 3.508 1.7063 3.697 2.6541 4.265 2.1802 4.645 1.2323 3.792-.2843 3.033-.2844.474v1.991l5.4031 5.972-.4739 2.275-.6636 2.18-.6635 1.801.1896 7.773 1.9906 3.507 1.801 2.465 2.6542.474.9479 2.654-1.0427 3.412-1.9906 1.517h-1.0427l-.7584 3.697.474 2.749 3.0333 4.171 1.5167 5.024 1.4219 4.455 1.2323 2.938 3.2229 5.498 1.4219 2.465.4739 2.749 1.5167.948v2.275l-.7584 1.801-1.7062 6.73-.474 1.801 2.275 2.654 3.9813.474 4.2656 1.706 3.6969 1.991h2.749l2.7489 2.938 2.4646 4.645 1.0427 2.18 3.6969 1.991 4.55.758 1.3271 1.991.6635 3.033-1.3271.569.2844.948 3.0333.758 2.6542.19 3.0333-1.611 3.6969 3.981.7583 2.18 2.4646 3.981.2844 3.034v8.91l.474 1.706 9.4794 1.422 18.674 2.654zm-83.5117-41.424 1.2322 1.422-.1895 1.232-3.0334-.095-.5687-1.137-.6636-1.422zm1.801 0 1.1375-.569 3.4125 1.991 2.9385 1.137-.8531.569-4.2656-.19-1.5167-1.516zm19.6219 18.769 1.7062 2.18.7584.948 1.4218.568.5688-1.421-.9479-1.707-2.5594-1.895-1.0427.189zm-1.4219 8.152 1.7063 2.938 1.1375 1.801-1.3271.19-1.2323-1.043-.6636-1.801v-1.991z" fill="#9190ad"/></g><path d="m751.129 486.945-.568 1.327-.474 1.801-.474.948-.759.284-.853-.19-.568-.284-.854-.474-.853-1.043-1.042-.758-1.043-.284-.948-.759-.284-.663.284-.759 1.896-2.085 1.043-1.612 1.137-.853.853-.094 1.043.853.948.758.379.664.474.853.569 1.137zm-541.26-287.504.568-1.611-.284-2.18-.569-.38-.474.19v.853l-.189 1.138.379.948zm3.507-2.18.19.758-.285.569-1.611.569-.759.379-1.895 2.085-1.328.38-1.137.663-.569-.095-.189-1.232-.38-1.327.095-1.232-.189-1.517-.285.095-.284.379-.379.758-.569.759-.474-.285-.474-1.801-.663-1.232-.474-.948-.19-.853-.095-1.138-.095-1.327-.189-1.137-.379-.853-.379-.664-.38-.853-.474-1.137-.189-1.043.095-1.327.189-.948.19-.569.095-.379-.095-.095v-.379l.284-.284h.474l.948-.38 1.043-.284.758-.095.474.095.379.19.285.474v.758l-.569.758-.19.569.285.948.474.758.853.853.758.19.379.284.095.853.095 1.517.189 1.327.19.664.19.095h.284l.284-.095.19-.19.189-.284.095-1.612.095-1.327v-1.042l.284-.285.285-.189.569.379.473.758.664.474 1.138.095h1.232l.379.189v.19l-.379.853-.664.095-.948-.284-.948-.19-.474.19-.284.284-.379.663.19.38.473 1.042.759 1.327.284.664.759 1.611zm549.129-57.064.379.379-.853.664-2.37.568-2.275-.853-.095-.284.474-.284 3.033-.285zm-681.7425 73.748-.8532 1.327h-1.0427l-.5687-.664v-1.99l-.2844-.664.474-1.042 1.5166-1.328 1.3271-.189.3792-.095.4739.095v.948zm711.5065-99.816v2.086l1.517 3.507.758 1.896-.095.474-1.137-2.085-1.138-2.749-.379-.474-.284-1.043-.569-2.275.853-2.086-.948-2.18-.569-.758-1.706-4.076-.19-2.939-.663-3.3174.095-1.801.284-.2844.569 1.4219.474.8531h.189l.19-.7583.284-1.7063.569-1.2323.569-.2844.379.6636-.095.7583-.663.6636-.19.6635.474.7583.19.948.663 3.4128.379 2.559v.474l-.379.569.285.663.379.19.284 1.043v.189h-.19l-.094.853.189 1.612-.095 1.896zm-671.125 231.387-.284 1.043-1.802 1.421-1.516-.474-1.422-3.602-1.896-3.128.474-1.327.853-.284 1.043.284.758 1.612 3.223 3.317zm624.867-189.679-.19 2.654-.853 2.181-.19-.19.19-1.611v-1.233l.569-.095.189-1.706zm3.697 4.171-.664-.758-.758-2.749-1.138-2.749-.948-2.939.285.095 1.896 3.602.663 3.034.569 1.895zm4.929-2.748-.095.284-1.137-1.043-1.422-.948-2.37-3.223-.379-3.128.095-.379 1.421 3.697.948 1.706 1.233 1.422zm-192.617 279.255-.664 1.612-1.327.379-.663-.284-.095-.759.284-1.042 1.138-1.422 1.042.474zm-309.779-304.565-.569.284h-.569l-.284-.474-.379-.474-.095-.569-.758-.284.189-.663-.474-.569-.948.095-.663.379-.285-.664.474-.474h1.233l.474-.474.758-1.042.853-.095.664.569-.19 2.085.664 1.232zm-41.613-82.9426.094-1.8959-.189-.4739.189-.5688.948-.2844.853 1.7063-.094 1.801-.379 3.0334-.38.5687-.663.8532-.759-.2844h-.473l-.095-.5688.663-.7583-.095-.6636-.568-.3791-.759-.3792v-.4739l1.043-.474zm-44.838 250.4396-.474-.38-.568-1.801-.759-1.99-1.422-1.706-.663-1.138-.474-.853-.853-.095-1.706 2.465-1.801.284-1.233-.758-.284-1.043-.758-.663-.569.094-.759.095-.758-.663-2.275-.38-1.611 1.422-.474.095-.379-.189-.474-1.233.094-.948 2.844-.189 2.56-.379 1.421-.664.854-2.275 1.042-2.654.474-.569h.474l-.284 1.517-.853 2.18-.759 2.559.759 2.181.853 1.516 1.232-.379 1.422-1.422 1.422-1.706.569.19.947 1.516.759 1.422 1.043 1.612.947 2.085.664 2.18zm576.429-146.548-.569 1.043-.284 1.801-.19-.285-.095-.663.19-1.138.379-1.137v-1.233l.474.285zm11.754-1.232-1.043-1.233-.568-1.232.095-.569 1.611 2.749.095.285zm2.938-.949-1.611-1.042-1.232-1.043-.19-1.043 1.138 1.327 1.422.948zm-529.126 26.732-.664 1.707-.474 1.232-.379.284-.379-.284-.095-1.138v-1.137l.379-1.517.379-1.422.854-.284.379.095.284.948-.095 1.042zm-13.935 37.158-1.422.474-.569 1.232-.474.474-.379.095v-.379l.284-.758v-.759l-.189-.569 1.232-1.327.19-1.516-.095-1.233 1.327.474.284.664.285 1.137.379 1.043.19.379-.19.379zm271.578-128.6324-.189.8531-.569 1.1375-.664.474-.663.1895-.474-.1895-.474-.6636-.853-.6635-.569.4739-.095.948-.094.2843-.095-.3791-.285-.948-.284-.8531.19-.8531.284.0948 1.232-.474 1.706-.3791 1.138-.948.189.2844-.189 1.0427-.095.7584.379-.0948zm-393.1952 66.5444-.7583 1.232-.9479 1.707-.474.758h-.7583l-.2844-.474.1896-1.422.5687-2.464.6636-1.517.5687-.285.6636-.284.3791.474.3792.569.0948.569zm1.4213 45.405-.0948.379-.3791.284-.5688-.284-.5687-1.233-.8532-2.369-.3791-2.181.3791-.473.8532-.664 1.1375-.19.4739.759-.2843 2.085-.0948 2.275.1895.948zm-18.8633 57.159v.095l-.1896.379-.7583.379h-.8532l.474-.568.9479-.19zm421.1592-149.486.19.758.189.664-.379.568-.853.379h-.948l-.853-.474-.758-.853-.285-1.137.474-1.138 1.138-.758.947-.379.569.095.285.284.189.853.095.664zm329.211 12.133.569.379.758.285.19.379-.095.663-.663.285-1.707-.948-1.232-.379v-.664l-.095-.474.19-.379.095-.379-.095-.285h.379l.758.285.569.569zm-701.363 13.745-.569-.095-.853.474-.853.189-.569-.568-.284-.948-.19-1.138v-.853l.379-.379 2.086.189 1.706.854.189 1.327v1.042l-.284.285h-.284l-.095-.19zm379.357-71.9466-1.138-.2844-.758-.5687-.285-.5688.19-.0947 1.043.3791 1.611.5688 1.043.0948.569-.474.568-.5687.095-.2844-1.611-.474-1.707-.3791-.189-.2844v-.1896l-.758-.1896-1.043.0948-.379.2844.094.2844-.189.2843-.664-.0948-.474-.4739-1.137-.474-.853.0948-.569-.2844.19-.4739-.095-.3792-.379-.4739-.095-.5688.758-.1896-.189-.6635-.759-.7584-1.137-.5687-1.138-.2844-.474-.0948.474-.1896h1.233l.758-.1895-.095-.474-.095-.3792-.284-.2843.758-.2844 1.138-.3792.474.9479.474 1.2323.474.474.379.2844v.4739l.095.474-.474.5687-.474.6636.094.2843.19.0948.379-.0948.664-.6635.663-.5687-.189.4739-.19.6636.474.1895 1.422-.3791.474-.0948.379.0948.758-.0948 1.327-.2844.285.3792-1.043.6635-.189.2844v.1896l.094.1896.759.1895 1.042.2844h.664l.379-.1896.19.1896.568.474.285.6635v.474l.189.1896-.379.3791.474.2844 1.043.1896.284.3791.379.2844.19.7584-.095.6635-.189.0948-.948-.9479-1.043-.474-2.275-.0948zm-184.655 11.4693-.474.6635-.284.0948.379-1.0427.095-.9479-.285-1.1375-.379-1.3271-.095-.5688-.284-.6635-.284-.7583-.379-.6636-.474-.0948-.474.3792-.569.6635-.569.8532-.189.6635-.569-.0948-1.232.1896-1.138.1896-.663.0948-.38.3791-.284.948-.284.3791-.474-.9479-.569.0948-.664.3792-.379-.0948-.095-.474-2.085-.5687-1.706-.1896h-.379l-.759.5687-.663.2844-1.138.0948-1.422-.1896-1.706 1.1375-1.991 1.8011-1.137 1.5166-.095-.3792.379-1.327v-.7584l-.094-.7583-.19-.3792-.474-.2843-.853-.2844-1.706-.2844-.285-.3792.379-.2843 1.707.1896 1.137.4739.379.2844.474 1.1375.569.2844 1.043-.7584 1.042-.8531.474-.6635v-.474l-.284-.3792 1.422.3792 2.085.474.474-.2844.664-.6636.663-.1895.569.1895h.853l1.517.1896 1.801.3792.853-.0948v-.474l.095-.3791.758-.1896h1.517l.474-.3792.474-.2844.853-.2843.853-.3792.474-.9479v-.5688l-.19-.4739.759-.474 1.611-.7583.379.1896.474.1896.474.6635-.095.7583-.474.3792.095 1.0427.664.9479.379.474-.19.4739.095.474.095.6635v1.0428l.095 1.327zm56.591 4.8342-1.233-.5688h-1.327l-1.137.3792h-.285l.19-.5688.853-.6635.948-.5688-.095-1.0427-.284-1.1375-1.232-.1896-1.801-.5687-.759-.7583-.284-2.0855.474-.7583.095-.7583-.474-.948-1.327-1.1374-1.896-.8532-2.181-.2843-1.801.4739-.758.6636-1.422.6635-1.706.0948-.853-.2844-.379-.9479-.379-.5688-1.138.6636-1.327.8531-.19-.1896.19-1.0427.569-.4739.853-.7584 1.327-.1896.569 1.0428.568.5687.38.2844 1.327-.0948 2.085-1.2323 1.327-.474 1.232-.0948 1.612.2844 1.611.6636 1.612.9479.948 1.1375.379 1.801-.379 1.1375v1.4219l.568.474.948.2843.664.1896.379-.2844-.19-2.4645.569-.2844.853-.1896.569-.2844h.19l-.095.3792-.284.4739-.095.2844-.095.1896.095 1.2323.284 1.3271.095.5687.758.474.19.3792-.664 1.0427.664 1.1375.853.4739 1.043.474 1.801.5687h2.369l1.328-.1895.284-.0948.189-.1896 1.896-.0948 2.56-.3792 1.042-.2844.474.2844.285.5688-.569.4739-.948.2844-1.137.6636-1.043.4739-2.654-.2844-1.233.2844-1.327.1896-1.611.2844h-.474l-.474-.474-1.043-.9479-.853-.5688zm-191.29-36.6842-1.327.1895-1.612.3792-.568.5688-.285.9479-.379.8531-.474.1896h-.569l-.284-.1896.284-.4739 1.138-2.2751.853-1.0427.758-.2843.569-.2844v-.474l-.19-.3791-.379-.2844-.474-.2844-.853.2844-.569-.2844.759-.5688.474-.2843.853.1896.853.5687.569 1.1375.663 1.2323zm-52.799-4.7395-.474-.1895-.758-.7584-.569-.7583-.19-1.1375-1.232-1.9906-1.896-3.0334-.663-2.275v-.4739l.853 1.801 1.99 3.6021 1.517 2.5594.853 1.801zm343.999 34.1251 1.422.5687 1.232.6636.095.7583-.19.5687-1.516.3792-2.939.0948-1.895-.3792-.285-.7583.19-.9479.948-.9479 1.327-.6636 1.042.0948zm-.663-1.9903.569-.474 1.895-.7583 1.991-.3792h1.137l.664.474.095.7583-.569.7584-.853.4739-1.232.3792-1.991.0948-1.517-.1896-.379-.4739zm-103.797 386.371v.095l-.285.189-.758.095-1.232.379-1.043-.095-.948-.189-.663-.569-.759-.19h-.758l-.285-.189.285-.379.284-.759-.095-.284-.284-.19h-.379l-.095-.379v-.379l.095-.284.569-.19 1.137.948.569.569.663.474.569.568.664.474.663-.379.569-.379.19.284.379-.473.474-1.043.189.095-.284.853v.758z" fill="#fbfbfc"/><path d="m762.978 235.463 54.363 39.291m59.15 11.091c1.207 7.09-.007 14.38-3.446 20.696-3.438 6.317-8.902 11.293-15.512 14.127-6.61 2.835-13.982 3.363-20.928 1.499-6.947-1.863-13.064-6.009-17.368-11.771-3.016-4.1-5.059-8.833-5.972-13.84-1.414-8.383.557-16.985 5.48-23.917 4.923-6.931 12.396-11.626 20.777-13.052 4.643-.792 9.405-.533 13.934.759l.474.094c5.775 1.674 10.959 4.947 14.951 9.443s6.63 10.029 7.61 15.962z" stroke="#d1d0dc"/><path d="m200.01 463.959v52.135l34.125 42.656m-34.125-94.791-63.51-64.459h-136.5m200.01 64.459h81.521l50.24 51.187v43.604" stroke="#d1d0dc"/><g fill="#1b1b32"><path d="m112.069 51.7637h1.272l2.064-6.036 2.064 6.036h1.284l2.916-8.46h-1.548l-2.004 6.228-2.064-6.252h-1.248l-2.064 6.252-2.004-6.228h-1.596zm9.317-.06h1.512l.864-2.028h3.972l.852 2.028h1.56l-3.696-8.46h-1.368zm2.916-3.336 1.44-3.36 1.452 3.36z"/><path d="m91.2491 118.562c2.58 0 4.404-1.98 4.404-4.344v-.024c0-2.364-1.8-4.32-4.38-4.32s-4.404 1.98-4.404 4.344v.024c0 2.364 1.8 4.32 4.38 4.32zm.024-1.368c-1.668 0-2.856-1.344-2.856-2.976v-.024c0-1.632 1.164-2.964 2.832-2.964s2.856 1.356 2.856 2.988v.024c0 1.632-1.164 2.952-2.832 2.952zm6.1633 1.224h1.476v-2.928h1.8476l2.064 2.928h1.752l-2.268-3.18c1.164-.336 1.992-1.164 1.992-2.544v-.024c0-.732-.252-1.356-.696-1.812-.54-.528-1.368-.84-2.424-.84h-3.7436zm1.476-4.236v-2.82h2.1476c1.092 0 1.74.492 1.74 1.392v.024c0 .852-.672 1.404-1.728 1.404z"/><path d="m257.991 87.9431h1.452v-6l2.628 3.936h.048l2.652-3.9601v6.0241h1.476v-8.4001h-1.572l-2.556 3.9721-2.556-3.9721h-1.572zm12.482 0h1.488v-7.032h2.664v-1.3681h-6.816v1.3681h2.664z"/><path d="m185.211 148.728h1.476v-8.4h-1.476zm3.724 0h3.132c2.64 0 4.464-1.836 4.464-4.2v-.024c0-2.364-1.824-4.176-4.464-4.176h-3.132zm3.132-7.056c1.764 0 2.916 1.212 2.916 2.856v.024c0 1.644-1.152 2.832-2.916 2.832h-1.656v-5.712z"/><path d="m125.1 222.557h1.452v-5.976l4.632 5.976h1.236v-8.4h-1.452v5.808l-4.5-5.808h-1.368zm12.252.06h1.308l3.48-8.46h-1.596l-2.52 6.456-2.532-6.456h-1.632z"/><path d="m70.8109 265.802c1.572 0 2.532-.576 3.408-1.488l-.948-.96c-.72.672-1.38 1.08-2.412 1.08-1.608 0-2.772-1.332-2.772-2.976v-.024c0-1.644 1.176-2.964 2.772-2.964.96 0 1.68.42 2.352 1.044l.948-1.092c-.804-.768-1.74-1.308-3.288-1.308-2.544 0-4.332 1.956-4.332 4.344v.024c0 2.412 1.824 4.32 4.272 4.32zm4.2394-.144h1.512l.864-2.028h3.972l.852 2.028h1.56l-3.696-8.46h-1.368zm2.916-3.336 1.44-3.36 1.452 3.36z"/><path d="m209.128 245.192c2.196 0 3.612-1.26 3.612-3.768v-4.764h-1.476v4.836c0 1.548-.804 2.328-2.112 2.328-1.32 0-2.124-.828-2.124-2.388v-4.776h-1.476v4.836c0 2.436 1.392 3.696 3.576 3.696zm7.702-.132h1.488v-7.032h2.664v-1.368h-6.816v1.368h2.664z"/><path d="m185.463 343.624h1.512l.864-2.028h3.972l.852 2.028h1.56l-3.696-8.46h-1.368zm2.916-3.336 1.44-3.36 1.452 3.36zm6.985 3.336h6.888v-1.308h-4.968l4.968-6v-1.092h-6.732v1.308h4.8l-4.956 6z"/><path d="m280.908 352.032h1.452v-5.976l4.632 5.976h1.236v-8.4h-1.452v5.808l-4.5-5.808h-1.368zm9.481 0h1.452v-6l2.628 3.936h.048l2.652-3.96v6.024h1.476v-8.4h-1.572l-2.556 3.972-2.556-3.972h-1.572z"/><path d="m302.971 262.229c1.572 0 2.532-.576 3.408-1.488l-.948-.96c-.72.672-1.38 1.08-2.412 1.08-1.608 0-2.772-1.332-2.772-2.976v-.024c0-1.644 1.176-2.964 2.772-2.964.96 0 1.68.42 2.352 1.044l.948-1.092c-.804-.768-1.74-1.308-3.288-1.308-2.544 0-4.332 1.956-4.332 4.344v.024c0 2.412 1.824 4.32 4.272 4.32zm8.733 0c2.58 0 4.404-1.98 4.404-4.344v-.024c0-2.364-1.8-4.32-4.38-4.32s-4.404 1.98-4.404 4.344v.024c0 2.364 1.8 4.32 4.38 4.32zm.024-1.368c-1.668 0-2.856-1.344-2.856-2.976v-.024c0-1.632 1.164-2.964 2.832-2.964s2.856 1.356 2.856 2.988v.024c0 1.632-1.164 2.952-2.832 2.952z"/><path d="m391.848 215.011h1.452v-5.976l4.632 5.976h1.236v-8.4h-1.452v5.808l-4.5-5.808h-1.368zm9.48 0h6.288v-1.32h-4.812v-2.256h4.212v-1.32h-4.212v-2.184h4.752v-1.32h-6.228z"/><path d="m389.115 153.98c1.764 0 3-.936 3-2.508v-.024c0-1.392-.912-2.028-2.688-2.46-1.62-.384-2.004-.672-2.004-1.32v-.024c0-.552.504-.996 1.368-.996.768 0 1.524.3 2.28.864l.792-1.116c-.852-.684-1.824-1.056-3.048-1.056-1.668 0-2.868.996-2.868 2.436v.024c0 1.548 1.008 2.076 2.796 2.508 1.56.36 1.896.684 1.896 1.284v.024c0 .624-.576 1.056-1.488 1.056-1.032 0-1.848-.396-2.652-1.092l-.888 1.056c1.008.9 2.22 1.344 3.504 1.344zm4.736-.12h3.132c2.64 0 4.464-1.836 4.464-4.2v-.024c0-2.364-1.824-4.176-4.464-4.176h-3.132zm3.132-7.056c1.764 0 2.916 1.212 2.916 2.856v.024c0 1.644-1.152 2.832-2.916 2.832h-1.656v-5.712z"/><path d="m412.52 278.265h1.476v-2.436l1.308-1.344 2.868 3.78h1.8l-3.66-4.788 3.504-3.612h-1.824l-3.996 4.224v-4.224h-1.476zm11.53.12c1.764 0 3-.936 3-2.508v-.024c0-1.392-.912-2.028-2.688-2.46-1.62-.384-2.004-.672-2.004-1.32v-.024c0-.552.504-.996 1.368-.996.768 0 1.524.3 2.28.864l.792-1.116c-.852-.684-1.824-1.056-3.048-1.056-1.668 0-2.868.996-2.868 2.436v.024c0 1.548 1.008 2.076 2.796 2.508 1.56.36 1.896.684 1.896 1.284v.024c0 .624-.576 1.056-1.488 1.056-1.032 0-1.848-.396-2.652-1.092l-.888 1.056c1.008.9 2.22 1.344 3.504 1.344z"/><path d="m435.017 341.664c2.58 0 4.404-1.98 4.404-4.344v-.024c0-2.364-1.8-4.32-4.38-4.32s-4.404 1.98-4.404 4.344v.024c0 2.364 1.8 4.32 4.38 4.32zm.024-1.368c-1.668 0-2.856-1.344-2.856-2.976v-.024c0-1.632 1.164-2.964 2.832-2.964s2.856 1.356 2.856 2.988v.024c0 1.632-1.164 2.952-2.832 2.952zm6.163 1.224h1.476v-2.436l1.308-1.344 2.868 3.78h1.8l-3.66-4.788 3.504-3.612h-1.824l-3.996 4.224v-4.224h-1.476z"/><path d="m404.032 424.529h1.488v-7.032h2.664v-1.368h-6.816v1.368h2.664zm11.13-8.4-2.1 3.048-2.088-3.048h-1.74l2.916 4.128-3.036 4.272h1.692l2.208-3.204 2.22 3.204h1.74l-3.048-4.296 2.928-4.104z"/><path d="m515.607 425.999h5.892v-1.344h-4.416v-7.056h-1.476zm6.709 0h1.512l.864-2.028h3.972l.852 2.028h1.56l-3.696-8.46h-1.368zm2.916-3.336 1.44-3.36 1.452 3.36z"/><path d="m511.886 352.241h1.512l.864-2.028h3.972l.852 2.028h1.56l-3.696-8.46h-1.368zm2.916-3.336 1.44-3.36 1.452 3.36zm7.284 3.336h1.476v-2.928h1.848l2.064 2.928h1.752l-2.268-3.18c1.164-.336 1.992-1.164 1.992-2.544v-.024c0-.732-.252-1.356-.696-1.812-.54-.528-1.368-.84-2.424-.84h-3.744zm1.476-4.236v-2.82h2.148c1.092 0 1.74.492 1.74 1.392v.024c0 .852-.672 1.404-1.728 1.404z"/><path d="m506.067 279.526h1.452v-6l2.628 3.936h.048l2.652-3.96v6.024h1.476v-8.4h-1.572l-2.556 3.972-2.556-3.972h-1.572zm14.426.144c2.58 0 4.404-1.98 4.404-4.344v-.024c0-2.364-1.8-4.32-4.38-4.32s-4.404 1.98-4.404 4.344v.024c0 2.364 1.8 4.32 4.38 4.32zm.024-1.368c-1.668 0-2.856-1.344-2.856-2.976v-.024c0-1.632 1.164-2.964 2.832-2.964s2.856 1.356 2.856 2.988v.024c0 1.632-1.164 2.952-2.832 2.952z"/><path d="m562.106 392.167h1.452v-6l2.628 3.936h.048l2.652-3.96v6.024h1.476v-8.4h-1.572l-2.556 3.972-2.556-3.972h-1.572zm13.358.12c1.764 0 3-.936 3-2.508v-.024c0-1.392-.912-2.028-2.688-2.46-1.62-.384-2.004-.672-2.004-1.32v-.024c0-.552.504-.996 1.368-.996.768 0 1.524.3 2.28.864l.792-1.116c-.852-.684-1.824-1.056-3.048-1.056-1.668 0-2.868.996-2.868 2.436v.024c0 1.548 1.008 2.076 2.796 2.508 1.56.36 1.896.684 1.896 1.284v.024c0 .624-.576 1.056-1.488 1.056-1.032 0-1.848-.396-2.652-1.092l-.888 1.056c1.008.9 2.22 1.344 3.504 1.344z"/><path d="m613.91 325.286h1.488v-7.032h2.664v-1.368h-6.816v1.368h2.664zm5.717 0h1.452v-5.976l4.632 5.976h1.236v-8.4h-1.452v5.808l-4.5-5.808h-1.368z"/><path d="m614.826 384.176h1.512l.864-2.028h3.972l.852 2.028h1.56l-3.696-8.46h-1.368zm2.916-3.336 1.44-3.36 1.452 3.36zm7.284 3.336h5.892v-1.344h-4.416v-7.056h-1.476z"/><path d="m675.788 382.851c1.488 0 2.676-.6 3.504-1.308v-3.528h-3.576v1.284h2.148v1.572c-.516.384-1.236.636-2.028.636-1.716 0-2.856-1.272-2.856-3v-.024c0-1.608 1.176-2.964 2.724-2.964 1.068 0 1.704.348 2.352.9l.936-1.116c-.864-.732-1.764-1.14-3.228-1.14-2.532 0-4.332 1.992-4.332 4.344v.024c0 2.448 1.728 4.32 4.356 4.32zm4.707-.144h1.512l.864-2.028h3.972l.852 2.028h1.56l-3.696-8.46h-1.368zm2.916-3.336 1.44-3.36 1.452 3.36z"/><path d="m717.536 351.934c1.764 0 3-.936 3-2.508v-.024c0-1.392-.912-2.028-2.688-2.46-1.62-.384-2.004-.672-2.004-1.32v-.024c0-.552.504-.996 1.368-.996.768 0 1.524.3 2.28.864l.792-1.116c-.852-.684-1.824-1.056-3.048-1.056-1.668 0-2.868.996-2.868 2.436v.024c0 1.548 1.008 2.076 2.796 2.508 1.56.36 1.896.684 1.896 1.284v.024c0 .624-.576 1.056-1.488 1.056-1.032 0-1.848-.396-2.652-1.092l-.888 1.056c1.008.9 2.22 1.344 3.504 1.344zm8.636.024c1.572 0 2.532-.576 3.408-1.488l-.948-.96c-.72.672-1.38 1.08-2.412 1.08-1.608 0-2.772-1.332-2.772-2.976v-.024c0-1.644 1.176-2.964 2.772-2.964.96 0 1.68.42 2.352 1.044l.948-1.092c-.804-.768-1.74-1.308-3.288-1.308-2.544 0-4.332 1.956-4.332 4.344v.024c0 2.412 1.824 4.32 4.272 4.32z"/><path d="m736.58 312.305h1.452v-5.976l4.632 5.976h1.236v-8.4h-1.452v5.808l-4.5-5.808h-1.368zm13.381.144c1.572 0 2.532-.576 3.408-1.488l-.948-.96c-.72.672-1.38 1.08-2.412 1.08-1.608 0-2.772-1.332-2.772-2.976v-.024c0-1.644 1.176-2.964 2.772-2.964.96 0 1.68.42 2.352 1.044l.948-1.092c-.804-.768-1.74-1.308-3.288-1.308-2.544 0-4.332 1.956-4.332 4.344v.024c0 2.412 1.824 4.32 4.272 4.32z"/><path d="m745.157 270.552h1.308l3.48-8.46h-1.596l-2.52 6.456-2.532-6.456h-1.632zm4.313-.06h1.512l.864-2.028h3.972l.852 2.028h1.56l-3.696-8.46h-1.368zm2.916-3.336 1.44-3.36 1.452 3.36z"/><path d="m697.681 257.102h1.272l2.064-6.036 2.064 6.036h1.284l2.916-8.46h-1.548l-2.004 6.228-2.064-6.252h-1.248l-2.064 6.252-2.004-6.228h-1.596zm13.769 0h1.308l3.48-8.46h-1.596l-2.52 6.456-2.532-6.456h-1.632z"/><path d="m637.353 286.246h1.476v-2.436l1.308-1.344 2.868 3.78h1.8l-3.66-4.788 3.504-3.612h-1.824l-3.996 4.224v-4.224h-1.476zm10.781 0h1.488v-3.348l3.336-5.052h-1.692l-2.376 3.708-2.34-3.708h-1.752l3.336 5.088z"/><path d="m660.637 228.815c2.58 0 4.404-1.98 4.404-4.344v-.024c0-2.364-1.8-4.32-4.38-4.32s-4.404 1.98-4.404 4.344v.024c0 2.364 1.8 4.32 4.38 4.32zm.024-1.368c-1.668 0-2.856-1.344-2.856-2.976v-.024c0-1.632 1.164-2.964 2.832-2.964s2.856 1.356 2.856 2.988v.024c0 1.632-1.164 2.952-2.832 2.952zm6.163 1.224h1.476v-3.54h4.008v3.54h1.476v-8.4h-1.476v3.492h-4.008v-3.492h-1.476z"/><path d="m735.216 201.352h1.476v-2.7h1.668c1.848 0 3.36-.984 3.36-2.868v-.024c0-1.692-1.224-2.808-3.192-2.808h-3.312zm1.476-4.032v-3.024h1.716c1.104 0 1.812.516 1.812 1.5v.024c0 .876-.696 1.5-1.812 1.5zm4.976 4.032h1.512l.864-2.028h3.972l.852 2.028h1.56l-3.696-8.46h-1.368zm2.916-3.336 1.44-3.36 1.452 3.36z"/><path d="m798.656 111.255h1.308l3.48-8.46h-1.596l-2.52 6.456-2.532-6.456h-1.632zm8.292-.06h1.488v-7.032h2.664v-1.368h-6.816v1.368h2.664z"/><path d="m836.608 83.459h1.452v-6l2.628 3.936h.048l2.652-3.96v6.024h1.476v-8.4h-1.572l-2.556 3.972-2.556-3.972h-1.572zm10.418 0h6.288v-1.32h-4.812v-2.256h4.212v-1.32h-4.212v-2.184h4.752v-1.32h-6.228z"/><path d="m813.475 130.741h1.452v-5.976l4.632 5.976h1.236v-8.4h-1.452v5.808l-4.5-5.808h-1.368zm9.48 0h1.476v-3.54h4.008v3.54h1.476v-8.4h-1.476v3.492h-4.008v-3.492h-1.476z"/><path d="m813.599 151.756h1.452v-6l2.628 3.936h.048l2.652-3.96v6.024h1.476v-8.4h-1.572l-2.556 3.972-2.556-3.972h-1.572zm9.698 0h1.512l.864-2.028h3.972l.852 2.028h1.56l-3.696-8.46h-1.368zm2.916-3.336 1.44-3.36 1.452 3.36z"/><path d="m826.14 164.998h1.476v-2.928h1.848l2.064 2.928h1.752l-2.268-3.18c1.164-.336 1.992-1.164 1.992-2.544v-.024c0-.732-.252-1.356-.696-1.812-.54-.528-1.368-.84-2.424-.84h-3.744zm1.476-4.236v-2.82h2.148c1.092 0 1.74.492 1.74 1.392v.024c0 .852-.672 1.404-1.728 1.404zm7.28 4.236h1.476v-8.4h-1.476z"/><path d="m811.154 168.925c1.572 0 2.532-.576 3.408-1.488l-.948-.96c-.72.672-1.38 1.08-2.412 1.08-1.608 0-2.772-1.332-2.772-2.976v-.024c0-1.644 1.176-2.964 2.772-2.964.96 0 1.68.42 2.352 1.044l.948-1.092c-.804-.768-1.74-1.308-3.288-1.308-2.544 0-4.332 1.956-4.332 4.344v.024c0 2.412 1.824 4.32 4.272 4.32zm7.023-.144h1.488v-7.032h2.664v-1.368h-6.816v1.368h2.664z"/><path d="m787.978 216.272h1.452v-5.976l4.632 5.976h1.236v-8.4h-1.452v5.808l-4.5-5.808h-1.368zm11.341.12c.84 0 1.548-.252 2.04-.744s.792-1.236.792-2.232v-5.544h-1.524v5.496c0 1.128-.54 1.656-1.332 1.656-.708 0-1.2-.36-1.692-.996l-.972 1.008c.552.756 1.392 1.356 2.688 1.356z"/><path d="m753.629 228.671h1.452v-6l2.628 3.936h.048l2.652-3.96v6.024h1.476v-8.4h-1.572l-2.556 3.972-2.556-3.972h-1.572zm10.418 0h3.132c2.64 0 4.464-1.836 4.464-4.2v-.024c0-2.364-1.824-4.176-4.464-4.176h-3.132zm3.132-7.056c1.764 0 2.916 1.212 2.916 2.856v.024c0 1.644-1.152 2.832-2.916 2.832h-1.656v-5.712z"/><path d="m782.559 238.548h3.132c2.64 0 4.464-1.836 4.464-4.2v-.024c0-2.364-1.824-4.176-4.464-4.176h-3.132zm3.132-7.056c1.764 0 2.916 1.212 2.916 2.856v.024c0 1.644-1.152 2.832-2.916 2.832h-1.656v-5.712zm6.255 7.056h6.288v-1.32h-4.812v-2.256h4.212v-1.32h-4.212v-2.184h4.752v-1.32h-6.228z"/><path d="m839.874 290.995h3.132c2.64 0 4.464-1.836 4.464-4.2v-.024c0-2.364-1.824-4.176-4.464-4.176h-3.132zm3.132-7.056c1.764 0 2.916 1.212 2.916 2.856v.024c0 1.644-1.152 2.832-2.916 2.832h-1.656v-5.712zm10.155 7.2c1.572 0 2.532-.576 3.408-1.488l-.948-.96c-.72.672-1.38 1.08-2.412 1.08-1.608 0-2.772-1.332-2.772-2.976v-.024c0-1.644 1.176-2.964 2.772-2.964.96 0 1.68.42 2.352 1.044l.948-1.092c-.804-.768-1.74-1.308-3.288-1.308-2.544 0-4.332 1.956-4.332 4.344v.024c0 2.412 1.824 4.32 4.272 4.32z"/><path d="m770.58 150.913h1.452v-5.976l4.632 5.976h1.236v-8.4h-1.452v5.808l-4.5-5.808h-1.368zm11.953 0h1.488v-3.348l3.336-5.052h-1.692l-2.376 3.708-2.34-3.708h-1.752l3.336 5.088z"/><path d="m606.716 239.183h1.476v-8.4h-1.476zm3.725 0h1.452v-5.976l4.632 5.976h1.236v-8.4h-1.452v5.808l-4.5-5.808h-1.368z"/><path d="m558.165 242.539h1.476v-8.4h-1.476zm3.725 0h5.892v-1.344h-4.416v-7.056h-1.476z"/><path d="m490.683 203.029h1.476v-8.4h-1.476zm3.004 0h1.512l.864-2.028h3.972l.852 2.028h1.56l-3.696-8.46h-1.368zm2.916-3.336 1.44-3.36 1.452 3.36z"/><path d="m470.046 124.854h1.452v-6l2.628 3.936h.048l2.652-3.96v6.024h1.476v-8.4h-1.572l-2.556 3.972-2.556-3.972h-1.572zm10.418 0h1.452v-5.976l4.632 5.976h1.236v-8.4h-1.452v5.808l-4.5-5.808h-1.368z"/><path d="m389.261 92.4929h1.452v-5.976l4.632 5.976h1.236v-8.4h-1.452v5.808l-4.5-5.808h-1.368zm9.481 0h3.132c2.64 0 4.464-1.836 4.464-4.2v-.024c0-2.364-1.824-4.176-4.464-4.176h-3.132zm3.132-7.056c1.764 0 2.916 1.212 2.916 2.856v.024c0 1.644-1.152 2.832-2.916 2.832h-1.656v-5.712z"/><path d="m543.232 151.608h1.272l2.064-6.036 2.064 6.036h1.284l2.916-8.46h-1.548l-2.004 6.228-2.064-6.252h-1.248l-2.064 6.252-2.004-6.228h-1.596zm11.199-.06h1.476v-8.4h-1.476z"/><path d="m622.474 175.885h1.452v-6l2.628 3.936h.048l2.652-3.96v6.024h1.476v-8.4h-1.572l-2.556 3.972-2.556-3.972h-1.572zm10.502 0h1.476v-8.4h-1.476z"/><path d="m717.091 467.185h1.476v-3.42h4.236v-1.344h-4.236v-2.292h4.776v-1.344h-6.252zm7.875 0h5.892v-1.344h-4.416v-7.056h-1.476z"/><path d="m299.142 534.142h1.476v-3.54h4.008v3.54h1.476v-8.4h-1.476v3.492h-4.008v-3.492h-1.476zm9.201 0h1.476v-8.4h-1.476z"/><path d="m102.89 466.115h1.512l.864-2.028h3.972l.852 2.028h1.56l-3.696-8.46h-1.368zm2.916-3.336 1.44-3.36 1.452 3.36zm7.285 3.336h1.476v-2.436l1.308-1.344 2.868 3.78h1.8l-3.66-4.788 3.504-3.612h-1.824l-3.996 4.224v-4.224h-1.476z"/><path d="m278.352 175.221h1.272l2.064-6.036 2.064 6.036h1.284l2.916-8.46h-1.548l-2.004 6.228-2.064-6.252h-1.248l-2.064 6.252-2.004-6.228h-1.596zm13.352-.06h1.488v-3.348l3.336-5.052h-1.692l-2.376 3.708-2.34-3.708h-1.752l3.336 5.088z"/></g></svg>