<svg fill="none" height="722" viewBox="0 0 1152 722" width="1152" xmlns="http://www.w3.org/2000/svg"><path d="m266.916 613.5 2.278-4.316 2.758-.361.361.96-2.519 3.717zm12.233-4.437 7.316 3.118 2.519-.359 1.918-4.678-.719-4.078-5.038-.6-4.796 2.16zm36.82 11.993 4.437 6.596 2.879-.359 1.319-.6 1.799 1.559 4.438-.239 1.199-1.799-3.478-2.159-2.279-4.438-2.519-4.317-6.956 3.478zm24.227 10.674 1.559-2.279 5.636 1.2.72-.6 7.316.84-.36 1.559-3.118 1.799-5.278-.359zm6.356 6.238 2.279 4.676 3.717-1.318.361-1.92-1.919-2.519-4.438-.359zm8.395-1.44 2.758-3.478 5.637 2.878 5.277 1.32 5.278 3.358v2.278l-4.317 2.159-5.877 1.199-2.879-1.799zm19.909 18.71 1.919-1.56 4.078 1.92 9.115 4.317 4.078 2.519 1.919 2.878 2.279 5.277 4.796 3.118-.359 1.56-4.678 3.838-5.037 1.799-1.799-.84-3.717 2.159-2.878 3.838-2.76 3.478-2.158-.24-4.317-3.118-.361-5.398.72-2.878-1.919-6.836-2.518-2.159-.241-3.118 2.759-1.2 2.519-3.717.599-1.2-1.919-2.158z" fill="#e27d1b" stroke="#3c3b6e"/><path d="m189.617 539.885-.36 102.424 1.919 1.199 3.718.24 1.679-1.319h3.119l.239 3.478 8.276 8.156.6 3.118 4.078-2.279.72-.239.359-3.719 1.679-1.919 1.319-.239 2.279-1.799 3.717 2.517.72 3.479 2.279 1.319 1.32 2.879 4.677 2.158 4.078 7.197 3.358 4.677 2.758 3.358 1.679 4.438 5.998 2.158 6.236 2.519 1.199 5.277.6 3.718-1.199 4.078-2.16 2.759-1.918-.96-1.679-3.717-3.358-1.8-2.16-1.319-.959.959 1.679 3.359.24 4.437-1.319.6-2.279-2.279-2.519-1.559.6 1.919 1.56 2.158-.961.96-1.558-1.199-2.519-4.078-1.2-2.758-1.199 1.199-1.559-1.799 2.158-2.279-1.679-1.799v-5.997h-.959l-.959 4.078-1.319.6-1.2-4.438-.72-4.437-.959-.6.36 6.837v1.318l-1.679-1.559-4.317-7.195-2.52-.6-.719-4.438-1.919-3.477-1.919-1.32v-2.758l2.519-1.56-.6-.36-3.118.839-4.078-2.878-3.118-3.478-5.877-3.118-4.798-3.119 1.559-3.837v-2.279l-2.158 1.919-3.478 1.319-4.438-1.319-6.836-2.878h-6.597l-.718.6-7.797-4.678-2.519-.36-3.358-6.957-4.317.361-4.318 1.799.6 5.396 1.319-3.478 1.2.361-1.679 5.277 3.837-3.359.72 1.919-4.678 5.278-1.558-.36-.6-2.28-1.56-.959-1.559 1.32-3.358-2.159-3.718 2.518-2.159 2.519-4.078 2.518-5.636-.239-.6-2.519 4.437-.839v-1.56l-2.758-.839 1.199-2.878 2.759-4.678v-2.158l.24-.961 5.277-2.758 1.2 1.56h3.358l-1.559-3.119-4.439-.359-5.996 3.358-2.878 4.078-2.159 3.117-1.32 2.759-5.037 1.799-3.718 3.119-.36 1.919 2.759 1.198.959 2.519-3.358 3.838-7.796 5.038-9.3543 5.037-2.5188 1.319-6.3564 1.319-6.3566 2.759 2.1589 1.559-1.6791 1.799-.5997 1.319-3.3581-1.199-3.838.24-.9594 2.758h-1.1993l.3598-2.879-4.3176 1.56-3.4782 1.199-4.0777-1.559-3.4782 2.279h-3.8378l-2.5186 1.56-1.919.959-2.5186-.361-3.1183-1.318-2.7585.839-1.1993 1.199-1.919-1.318v-2.28l3.718-1.559 7.5558.84 5.2772-1.919 2.5186-2.519 3.478-.839 2.1589-.959 3.3582.239 1.9188 1.559 1.1994-.36 2.7584-3.358 3.7181-1.199 4.0777-.84 1.5592-.36.8395.6h.9595l1.5592-4.437 4.7973-1.799 2.2788-4.438 2.7585-5.397 1.9189-1.799.3598-3.118-1.9189 1.559-4.0778.839-.8395-2.879-1.5592-.359-1.1993 1.2-.2399 3.478-1.6791-.241-1.6791-6.956-1.5592 1.56-1.3192-.6-.3597-2.278-4.7975.239-2.5185 1.319-3.1184-.359 1.7991-1.799.5996-3.119-.8395-2.279 1.799-1.199 1.5591-.239-.8395-2.16v-5.277l-1.1993-1.198-.9595 1.797h-7.316l-1.799-1.558-.8396-4.678-2.5186-4.317v-1.199l2.5186-.961.2399-2.758 1.3192-1.318-.9594-.6-1.5592.6-1.3192-3.36 1.1993-5.995 5.397-3.838 3.1183-1.919 2.2788-4.438 3.3581-1.56 3.1183 1.32.3599 2.878 2.8784-.359 3.8379-2.878 1.9189.718 1.1994.72h1.919l2.7584-1.558.9595-5.278 1.1993-4.078 1.1994-1.199-1.3194-2.279-3.1181.959-3.838.961-2.2787-.6-4.3177-2.159-5.9967-.24-4.3176-4.437.5997-4.678.8395-2.878-2.5186-2.159-2.2788-4.438.5997-.959 8.1555-.6h2.5187l1.1993 1.199h.8395l-.2399-1.919 4.6775-.72 3.1183.361 1.6791 1.319-1.6791 2.518-.5997 1.799 3.3582 1.92 5.9967 2.158 2.1583-1.199-2.758-5.278-1.1993-3.837 1.1993-.959-4.0778-2.279-.5997-1.319.5997-1.92-.9594-4.677-3.4781-5.637-2.8785-5.037 3.4782-2.279h3.8378l2.1589.72 5.0369-.24 4.438-4.318 1.319-3.718 4.438-2.878 1.919 1.199 3.358-.72 4.437-2.519 1.32-.239 1.199.959 5.397-.239 3.358-3.718h1.319l4.319 2.878 2.278 2.519-.599 1.318.839 1.32 1.919-1.919 4.678.36.359 4.438 2.279 1.799 8.515.72 7.556 5.037 1.679-1.2 6.236 3.119 2.519-.72 2.279-.959 5.877 2.279zm-138.0444 34.661 2.5186 6.357-.2399 1.199-3.4782-.36-2.1587-4.797-2.1588-1.799h-2.8784l-.2399-3.119 2.1588-2.878 1.3192 2.878 1.7991 1.8zm-3.1183 40.178 4.4376.959 4.4375 1.2.9595 1.199-1.919 4.437-3.7179-.239-4.0778-4.318zm-24.8265-16.911 1.3193 3.119 1.3193 1.919-1.3193.959-2.5186-3.718v-2.279zm-16.5509 87.672 4.0778-2.758 4.0777-1.199 3.1184.359.5996 1.919 2.2788.6 2.2787-2.279-.3598-1.919 3.3582-.839 3.4781 3.118-1.3193 2.158-5.2772 1.32-3.358-.6-4.4376-1.318-5.2772 1.679-1.91892.359zm58.7679-5.397 1.9188 2.279 2.5188-1.919-1.7991-1.56zm3.478 3.598 1.3193-2.758 2.5187.359-.9596 2.279h-2.8784zm28.3046-2.279 1.679 2.159 1.1996-1.318-.9597-2.279zm10.5546-14.991 1.319 6.956 3.478.959 5.997-3.478 5.277-3.118-1.919-2.758.599-2.878-2.518 1.558-3.478-.959 1.919-1.319 2.278.959 4.678-2.159.6-1.799-2.879-.959.96-2.279-3.359 2.279-5.636 4.317-5.757 3.478zm50.731-23.748 2.879-1.798-1.199-2.159-2.159 1.199z" fill="#e27d1b" stroke="#3c3b6e"/><path d="m911.261 526.63 2.759 8.756 4.438 11.634 6.357 11.273 4.437 7.556 5.757 6.597 4.796 4.437 1.92 3.478-1.32 1.559-.959 1.56 3.478 8.875 3.478 3.478 3.119 6.356 4.317 6.957 5.398 9.834 1.558 9.115.6 14.392.84 2.159-.36 4.078-2.879 1.56.361 2.278-.84 2.279.359 2.879.6 2.278-3.358 3.838-3.717 1.799-4.678.24-1.799 1.919-2.879 1.199-1.558-.6-1.32-1.199-.361-3.478-.959-4.078-4.078-6.237-4.317-2.758-4.677-.359-.959 1.559-3.719-5.278-.84-4.317-3.117-4.798-2.159-1.319-1.919 2.519-2.159-.361-2.519-5.996-3.478-4.677-3.478-6.357-3.118-3.718-4.318-4.438 2.519-2.878 3.838-6.596-.241-1.919-5.396-1.2-1.919.72.36.72 3.118 1.198-1.8 5.398-.959.6-2.158-4.798-1.56-5.876-.359-3.359 1.799-5.637v-11.393l-3.719-4.437-1.559-3.719-6.236-1.559-2.279-.72-1.919-3.117-4.078-1.92-1.318-4.077-3.36-1.2-2.878-4.437-5.037-1.799-3.478-1.799h-2.638l-4.798.959-.24 2.278.96 1.2-.6 1.319-3.718-.24-4.437 4.318-4.317 2.279h-4.678l-3.839 1.559-.359-3.358-1.919-2.279-3.479-1.32-1.918-1.799-9.716-4.676-9.114-2.16-5.278.72-7.195.6-7.197 2.519-4.197.719-.24-9.595-3.118-2.278-2.159-2.159.36-3.719 12.234-1.558 30.582-3.478 8.156-.72 6.477.36 3.118 4.678 1.798 1.798 9.716.599 12.952-.718 25.786-1.56 6.597-.839 6.116.239.48 3.478 2.639.96.239-5.517-1.799-5.037 1.56-1.679 6.596.6zm15.113 158.795 2.878-.84 1.559-.241 1.799-2.758 2.758-1.918 1.56.598 2.039.361.479 1.199-4.198 1.439-5.037 1.799-2.758 1.44zm16.191-5.998 1.438 1.2 3.358-2.519 6.357-5.037 4.438-4.678 2.998-7.915 1.199-2.04.241-4.078-.841.6-1.199 3.359-1.798 5.517-3.839 6.236-5.277 5.037-4.077 2.279z" fill="#e27d1b" stroke="#3c3b6e"/><path d="m1056.38 170.785 1.08-1.319 1.32-3.959-3-1.079-.6-3.717-4.67-1.32-.36-3.358-8.76-28.064-5.52-17.391h-1.08l-.83 1.919-.84-.6-1.2-1.199-1.8 2.279v5.997l.36 6.836 2.28 3.358v4.797l-4.44 6.117-3.12 1.319v1.319l1.32 2.159v10.314l-.96 11.034-.24 5.877 1.2 1.559-.24 5.398-.6 2.158 1.2.84 20.15-5.277 2.64-.72 2.16-3.358z" fill="#219456" stroke="#3c3b6e"/><path d="m837.023 212.523-3.838-9.835-2.759-10.914-2.878-3.838-3.119-2.159-1.918 1.32-4.678 2.158-2.278 5.997-3.358 4.438-1.32.72-1.799-.72-2.878-2.519.599-5.996 4.078-1.56.959-4.078.84-3.118 2.879-1.919-.361-11.994-1.918-2.758-1.56-.96-.959-2.518.959-.959 1.919.359.241-1.919-3.119-2.638-1.559-3.119h-3.119l-5.396-1.679-6.597-4.078h-3.358l-.84.84-1.199-.599-3.718-2.759-3.478 2.159-3.478 2.758.359 4.318 1.2.36 2.519.6.6.959-3.119.96-3.118.359-1.799 2.159-.36 2.519.36 1.918.359 6.597-4.317 2.519-.84-.24v-5.037l1.559-2.879.84-2.878-.959-.96-2.279.96-1.199 5.037-3.359 1.319-2.159 2.279-.239 1.2.839.959-.839 3.118-2.759.6v1.319l.96 2.878-1.32 7.317-1.919 4.796.84 5.637.6 1.32-.959 2.878-.361.96-.359 3.358 4.317 7.196 3.478 7.796 1.799 5.876-.959 5.638-1.199 7.195-2.879 6.237-.359 3.358-3.959 3.718 5.277-.24 25.667-2.758 8.754-1.2.12 2.04 8.156-1.44 12.354-1.799 4.557-.6.121-.719.239-1.679 2.519-4.438 2.399-2.038-.241-6.118 1.92-1.918 1.318-.361.24-4.317 1.8-3.598 1.199.72.239.72.96.239 2.279-1.199z" fill="#9190ad"/><path d="m697.538 98.465 2.16-2.5186 2.638-.9594 6.477-4.6775 2.758-.7197.6.5998-6.117 6.1167-3.957 2.2787-2.519 1.0793zm103.384 38.499.839 2.999 3.839.239 1.559-1.439-.48-1.919-1.919-2.279-2.638.24-1.92.24-.359 1.319zm-120.294-3.598.839-.719 3.359-.96 4.317-2.759v-1.199l.84-.839 7.196-1.2 2.878-2.279 5.278-2.518.239-1.559 2.28-3.478 2.158-.96 1.559-2.159 2.758-2.758 5.277-2.879 5.637-.599 1.32 1.319-.36 1.199-4.438 1.2-1.799 3.718-2.758.959-.6 2.879-2.879 3.837-.359 3.119.959.599 1.2-1.319 4.318-3.478 1.559 1.559h2.758l3.839 1.199 1.798 1.32 1.799 3.718 3.358 3.358 4.677-.24 1.799-1.199 1.92 1.559 1.918.6 1.56-.96h1.318l1.92-1.199 4.798-4.318 4.077-1.319 7.916-.36 5.397-2.279 3.118-1.559 1.799.24v6.837l.6.359 3.478.959 9.594-2.518 1.32-1.319 1.799.599v8.275l3.837 3.719 1.559.84 1.56 1.198-1.56.361-.959-.361-4.437-.598-2.519.838-2.758-.24-3.838 1.68h-2.16l-6.956-1.56-6.236.241-2.279 3.117-8.395.84-2.878.959-1.32 3.719-1.559 1.319-.599-.24-1.8-1.919-5.397 2.878h-.839l-1.32-1.918-.959.239-2.278 5.278-1.2 4.797-3.837 8.395-1.44-1.199-1.679-1.2-2.279-12.352-4.198-1.679-2.399-2.76-14.511-3.238-3.478-1.199-9.835-2.638-9.475-1.32z" fill="#9190ad"/><path d="m837.023 212.523-3.838-9.835-2.759-10.914-2.878-3.838-3.119-2.159-1.918 1.32-4.678 2.158-2.278 5.997-3.358 4.438-1.32.72-1.799-.72-2.878-2.519.599-5.996 4.078-1.56.959-4.078.84-3.118 2.879-1.919-.361-11.994-1.918-2.758-1.56-.96-.959-2.518.959-.959 1.919.359.241-1.919-3.119-2.638-1.559-3.119h-3.119l-5.396-1.679-6.597-4.078h-3.358l-.84.84-1.199-.599-3.718-2.759-3.478 2.159-3.478 2.758.359 4.318 1.2.36 2.519.6.6.959-3.119.96-3.118.359-1.799 2.159-.36 2.519.36 1.918.359 6.597-4.317 2.519-.84-.24v-5.037l1.559-2.879.84-2.878-.959-.96-2.279.96-1.199 5.037-3.359 1.319-2.159 2.279-.239 1.2.839.959-.839 3.118-2.759.6v1.319l.96 2.878-1.32 7.317-1.919 4.796.84 5.637.6 1.32-.959 2.878-.361.96-.359 3.358 4.317 7.196 3.478 7.796 1.799 5.876-.959 5.638-1.199 7.195-2.879 6.237-.359 3.358-3.959 3.718 5.277-.24 25.667-2.758 8.754-1.2.12 2.04 8.156-1.44 12.354-1.799 4.557-.6.121-.719.239-1.679 2.519-4.438 2.399-2.038-.241-6.118 1.92-1.918 1.318-.361.24-4.317 1.8-3.598 1.199.72.239.72.96.239 2.279-1.199z" fill="#ffed4a" stroke="#3c3b6e"/><path d="m697.538 98.465 2.16-2.5186 2.638-.9594 6.477-4.6775 2.758-.7197.6.5998-6.117 6.1167-3.957 2.2787-2.519 1.0793zm103.384 38.499.839 2.999 3.839.239 1.559-1.439-.48-1.919-1.919-2.279-2.638.24-1.92.24-.359 1.319zm-120.294-3.598.839-.719 3.359-.96 4.317-2.759v-1.199l.84-.839 7.196-1.2 2.878-2.279 5.278-2.518.239-1.559 2.28-3.478 2.158-.96 1.559-2.159 2.758-2.758 5.277-2.879 5.637-.599 1.32 1.319-.36 1.199-4.438 1.2-1.799 3.718-2.758.959-.6 2.879-2.879 3.837-.359 3.119.959.599 1.2-1.319 4.318-3.478 1.559 1.559h2.758l3.839 1.199 1.798 1.32 1.799 3.718 3.358 3.358 4.677-.24 1.799-1.199 1.92 1.559 1.918.6 1.56-.96h1.318l1.92-1.199 4.798-4.318 4.077-1.319 7.916-.36 5.397-2.279 3.118-1.559 1.799.24v6.837l.6.359 3.478.959 9.594-2.518 1.32-1.319 1.799.599v8.275l3.837 3.719 1.559.84 1.56 1.198-1.56.361-.959-.361-4.437-.598-2.519.838-2.758-.24-3.838 1.68h-2.16l-6.956-1.56-6.236.241-2.279 3.117-8.395.84-2.878.959-1.32 3.719-1.559 1.319-.599-.24-1.8-1.919-5.397 2.878h-.839l-1.32-1.918-.959.239-2.278 5.278-1.2 4.797-3.837 8.395-1.44-1.199-1.679-1.2-2.279-12.352-4.198-1.679-2.399-2.76-14.511-3.238-3.478-1.199-9.835-2.638-9.475-1.32z" fill="#ffed4a" stroke="#3c3b6e"/><path d="m1012.85 184.819.36-6.477-3.48-12.953-.84-.36-3.48-1.559.96-3.478-.96-2.519-3.24-5.516 1.2-4.678-.96-6.236-2.877-7.797-.959-5.877 31.666-8.035.36 6.597 2.27 3.237v4.798l-4.43 6.116-3.12 1.32v1.32l1.56 1.799-.36 9.714-.72 11.154-.24 6.717 1.2 1.558-.24 5.517-.6 2.039 1.2.839-8.88 1.8z" fill="#219456" stroke="#3c3b6e"/><path d="m1106.76 94.5076 2.27 2.5186 2.76 4.4378v2.278l-2.52 5.637-2.28.72-4.07 3.718-5.76 6.596h-1.56l-1.2-2.518-2.16.24-1.2 1.679-2.88 1.679-1.19 1.679 1.91 1.679-.59.84-.6 3.357-2.28-.239v-1.679l-.36-1.559-1.8.359-2.16-3.837-2.52 1.559 1.56 1.679.36 1.319-.96 1.56.36 3.717.24 1.919-1.92 3.118-3.48.6-.36 3.478-6.35 3.718-1.56.6-1.92-1.679-3.72 4.317 1.2 3.839-1.8 1.559-.24 5.277-1.32 7.556-3-1.44-.6-3.717-4.43-1.56-.36-3.358-8.76-28.065-5.64-17.51 1.68-.12 1.8.48v-3.119l1.56-5.397 3.12-5.6367 1.8-4.7974-2.28-2.8783v-7.1962l.96-1.1993.96-3.3581-.24-1.799-.24-5.7569 2.16-5.7568 3.48-10.6743 2.51-5.0371h1.56l1.56.2399v1.3192l1.56 2.7585 3.36.8395.96-.9594v-1.1994l4.8-3.4781 2.16-2.1588 1.79.2398 7.2 2.8784 2.28 1.1995 10.79 35.8603h7.2l.96 2.2787.24 5.7569 3.48 2.7585h.96l.24-.5996-.6-1.3193zm-25.07 36.2194 1.8-1.799 1.68 1.32.72 2.878-2.04 1.08zm8.03-7.075 2.16 2.278 1.56-.239.24-2.399 1.08-.96-.96-2.158-2.4.839z" fill="#88c444" stroke="#3c3b6e"/><path d="m1048.35 214.562-4.44-17.99 7.56-2.279 2.63 2.279 3.96 5.157 3.24 5.277-3.6 1.92-1.56-.241-1.32 2.159-2.87 2.28z" fill="#88c444" stroke="#3c3b6e"/><path d="m995.936 226.436-1.319-1.199-3.118-.24-2.759-2.279-1.919-7.315-4.198.119-2.878-3.238-23.268 5.277-51.571 10.435-8.995 1.438-.84-7.795 1.679-1.32 1.559-1.319 1.199-1.918 2.16-1.32 2.279-2.159.6-1.919 2.517-3.358 1.32-1.199-.24-1.2-1.559-3.717-2.159-.24-2.278-7.316 3.478-2.16 5.276-1.679 4.798-1.559 3.838-.599 7.555-.241 2.279 1.56 1.919.239 2.519-1.558 3.118-1.32 6.236-.6 2.519-2.158 2.159-3.838 1.919-2.278h2.519l2.279-1.32.239-2.758-1.799-2.519-.359-1.679 1.319-2.519v-1.679h-2.159l-2.159-.959-.959-1.32-.24-3.118 6.956-6.597.84-.959 1.799-3.478 3.478-5.397 3.358-4.438 2.518-2.878 2.879-2.158 3.718-1.44 6.596-1.559 3.839.24 5.396-1.68 9.116-2.518.6 5.996 2.875 7.797.96 6.236-1.2 4.678 3.12 5.397.96 2.518-.96 3.478 3.48 1.559.84.36 3.72 13.193-.6 6.116-.6 12.954.96 6.596.96 4.318 1.79 8.755v9.715l-1.31 2.758 2.15 2.399.96 2.038-2.27 2.159.35 1.56 1.56-.361 1.8-1.559 2.76-3.117 1.32-.72 1.92.72 2.76.239 9.47-4.678 3.48-3.358 1.56-1.679 5.04 1.92-4.08 4.317-4.68 2.639-8.51 6.357-3.12 1.198-6.96 2.28-4.79 1.318-1.44-.599-.24-4.438.6-3.358-.24-2.519-3.36-2.038-5.4-1.199-4.68-1.32z" fill="#88c444" stroke="#3c3b6e"/><path d="m989.579 269.493 1.56-.36 2.758-1.439 1.439-2.999 1.919-2.758 3.835-3.718v-.96l-7.193-4.797-1.199-3.118-3.358-.36-.241-1.319-.959-3.359 2.759-1.318.24-2.879-1.56-1.56.24-1.918 2.279-3.719v-3.717l3.238-3.119-1.079-.839-2.998-.24-2.759-2.279-1.799-7.315-4.197.119-2.999-3.238-21.708 5.037-51.572 10.434-10.674 1.679-.72-7.795-6.476 6.116-1.559.6-5.037 3.598 3.477 22.908 2.998 11.633 4.319 23.148 3.957-.72 14.272-1.799 45.455-9.235 17.871-3.358 9.954-1.919.36-.239 2.519-1.92z" fill="#ffed4a" stroke="#3c3b6e"/><path d="m995.097 226.076-2.759 3.238v3.718l-2.278 3.718-.241 1.919 1.56 1.559-.24 2.878-2.758 1.32.959 3.358.24 1.32 3.358.359 1.199 3.119 4.317 2.878 2.876 1.92v.959l-3.594 3.237-1.92 2.76-1.799 3.358-2.758 1.559-.6 1.799-.24 1.438-.719 3.119 1.319 2.638 3.838 3.478 5.753 2.76 4.8.718.24 1.679-.96 1.2.36 3.359h.96l2.52-2.878.96-5.877 3.36-4.798 3.72-7.795 1.31-6.597-.84-1.32-.24-11.273-1.91-4.078-1.32.959-3.36.36-.6-.599 1.32-1.2 2.52-2.278.12-1.32-.48-4.078.72-3.358-.12-2.399-3.36-2.158-6.12-1.44-4.915-1.679z" fill="#88c444" stroke="#3c3b6e"/><path d="m990.178 273.81.48-2.519.481-2.039-1.92.48-1.919.6-2.638 2.158 2.038 5.997 2.76 6.837 2.517 11.633 1.92 7.556 5.996-.24 7.317-1.439-2.76-8.875-1.2.6-4.316-2.879-2.159-5.637-2.278-4.318-3.839-3.478-1.079-2.518z" fill="#88c444" stroke="#3c3b6e"/><path d="m1007.21 302.715-7.2 1.438-6.113.12-2.158-8.274-2.279-11.034-3.119-7.436-1.559-5.278-8.994 1.92-17.871 3.358-44.975 9.115 1.318 5.996 1.2 6.837.36-.361 2.518-2.878 2.758-3.118 2.879-.72 1.799-1.679 2.16-3.118 1.559.72 3.478-.36 3.117-2.519 2.399-1.679 2.16-.6 1.918 1.32 3.478 1.679 2.279 2.159 1.44 1.799 4.916 2.038v3.478l6.597 1.56 1.319.6 1.68-2.399 3.477 2.399-1.559 2.997-.959 4.798-2.158 3.119v2.518l.838 2.158 6.118 1.681 5.157-.121 3.717 1.2 2.519.359 1.2-2.519-1.799-2.518v-2.158l-2.879-2.519-2.519-6.597 1.559-6.357-.239-2.518-1.559-1.56 1.798-2.758.6-2.518 2.278-1.56 2.28-1.918.599 1.199-1.798 1.918-1.56 4.439.36 1.318 2.159.361.6 6.596-2.519 1.199.36 4.318.6-.24 1.318-2.279 1.92 2.159-1.92 1.56-.359 4.076 3.117 4.078 4.678.6 1.919-.959 3.838 5.037 1.679.6 8.035-3.358 2.4-4.798zm-19.19 10.793 1.32 2.999.24 2.159 1.319 2.278 1.079-1.438-.839-3.719-.84-2.758z" fill="#88c444" stroke="#3c3b6e"/><path d="m997.375 319.145-.12-2.399 7.795-2.997-.96 3.837-3.48 4.557-.48 5.517.6 4.078-2.155 5.997-2.64 2.279-1.799-5.517.6-6.597 1.919-5.037zm4.075 33.941-69.799 15.112-44.855 6.357-8.036-.48-3.119 2.279-8.755.239-10.074 1.2-13.072 1.919 12.592-6.716v-2.519l1.8-2.519 12.593-13.793 4.796 5.398 4.558 1.199 2.998-1.319 2.639-1.559 2.998 1.559 4.677-1.679 2.279-5.517 3.119.6 3.478-2.519 2.159.6 3.358-4.438.36-2.519-1.199-1.558 1.199-2.279 6.357-14.753.718-6.836 1.44-.6 2.638 2.879 4.678-.36 2.278-9.114 3.358-.72 1.2-3.238 3.119-2.878 3.358-6.838.12-6.116 11.753 4.557.96-6.116 4.437 1.918.12 3.478 6.957 1.561 2.518 1.438 2.039 2.519-.84 4.317-2.399 3.119.12 2.519.72 2.279 5.997 1.559h5.397l3.718 1.199 2.279.359.839 3.719 3.839.479 1.079 1.439-.48 5.638 1.679 1.318-.599 2.279 1.438.96-.239 1.679-3.239-.12.12 1.919 2.758 1.8.121 1.679 2.158 2.158.6 2.999-2.999 1.679 1.92 1.799 6.956-2.04z" fill="#88c444" stroke="#3c3b6e"/><path d="m912.941 286.643 1.319 5.877 1.32 7.196 2.518-3.118 2.758-3.718 2.999-.72 1.799-1.679 2.158-3.118 1.799.719 3.479-.359 3.118-2.52 2.399-1.679 2.159-.599 1.559 1.199 4.318 2.159 2.279 2.159 1.678 1.559-.96 6.716-6.955-2.997-5.038-1.92-.119 6.237-3.359 6.597-2.998 2.878-1.439 3.358-3.119.6-1.079 4.317-1.2 4.798-4.796.359-2.759-2.878-1.319.719-.72 6.597-1.559 4.197-5.997 13.193 1.079 1.44-.239 2.278-3.358 4.678-2.16-.6-3.597 2.638-2.999-.72-2.398 5.518-4.678 1.679-2.999-1.44-2.758 1.681-2.878 1.198-4.438-1.08-1.319-1.438-2.638-3.598-3.719-2.399-2.038-4.317-5.157-4.198-.84-2.759-3.119-1.799-.959-1.919-.239-6.237 2.638-.12 2.278-.959.241-3.358 1.918-1.799.24-5.997 1.2-4.677 1.559-.719 1.558 1.318.6 2.16 2.16-1.2.598-1.919-1.318-2.159v-2.878l1.199-1.559 2.759-4.078 1.558-1.679 2.519.6 2.759-1.919 3.718-4.078 2.758-4.678.36-6.836.599-5.997v-5.637l-1.319-3.717 1.199-1.679 1.56-1.56 4.197 23.747 5.518-.959z" fill="#c71a1a" stroke="#3c3b6e"/><path d="m881.879 231.833-7.316 4.916-4.678 2.759-4.078 4.438-4.797 4.678-3.838.959-3.478.6-6.596 3.118-2.519.24-4.078-3.718-6.236.719-3.119-1.679-2.878-1.679-5.877.84-12.233 1.918-13.433 2.639 1.559 17.51 2.16 16.432 3.117 28.064.72 5.757 4.917-.12 2.879-.959 4.077 1.799 2.519 5.277h6.117l2.278 2.518 2.16-.119 2.997-1.56 2.999.48 6.477.599 2.038-2.517 2.76-1.561 2.517-.838.841 3.358 2.158 1.199 4.198 2.758 2.638-.12 1.559-.598.24-3.36 1.92-1.799.119-5.757 1.199-4.916 1.56-.72 1.559 1.319.6 2.039 2.038-1.2.481-1.798-1.32-2.278.12-2.76.959-1.318 2.638-3.958 1.2-1.799 2.519.6 2.758-1.92 3.719-4.078 3.358-4.916.359-6.118.6-5.996-.239-6.356-1.2-3.479.359-1.439 2.159-2.159-2.758-10.914z" fill="#e27d1b" stroke="#3c3b6e"/><path d="m743.115 359.803.12-3.478.599-5.398 2.759-3.478 2.158-4.677 3.119-5.037-.6-6.956-2.16-3.358-.359-3.839.959-6.596-.6-8.395-1.558-19.19-1.559-18.47-1.2-14.033 3.719 1.08 1.798 1.199 1.32-.359 2.519-2.279 3.358-1.919 6.116-.239 26.385-2.76 6.717-.598 1.799 19.188 5.037 44.137.72 6.955-.479 2.76 1.438 2.158.12 1.679-2.998 1.919-4.198 1.8-3.838.598-.72 5.877-5.516 3.958-3.358 4.798.359 2.878-.72 1.799h-3.957l-1.92-1.919-2.997 1.56-3.239 1.798.24 3.598-1.439.361-.6-1.2-2.638-1.799-3.838 1.559-1.799 3.598-1.679-.96-1.799-1.918-5.397.6-6.716 1.199z" fill="#e27d1b" stroke="#3c3b6e"/><path d="m742.994 360.162v-3.838l.72-5.517 2.758-3.478 2.279-4.918 2.639-4.796-.48-6.237-2.398-4.198-.12-4.078.839-6.356-.959-8.636-1.32-18.949-1.559-17.991-1.079-13.912-.359-1.079-.961-3.118-1.559-4.438-1.919-2.159-1.799-3.119-.239-6.595-54.931 3.118.241 2.879 2.758.839 1.079 1.319.6 2.159 4.677 4.078.841 2.758-.841 4.078-2.158 4.437-.84 2.999-2.758 2.158-2.159.84-6.357 1.679-.84 2.159-.838 2.519.838 1.679 2.159 1.919-.239 4.917-2.159 1.919-.84 1.918v3.239l-2.158.6-1.92 1.318-.239 1.681.239 2.518-2.038 1.56-1.199 3.358.599 4.437 2.758 8.755 8.756 8.995 6.596 4.437-.24 5.157 1.08 1.68 7.676.6 3.238 1.679-.84 4.437-2.759 7.077-.839 3.837 2.759 4.678 7.675 6.356 5.517.839 2.52 5.998 2.517 3.837-1.079 3.598 1.919 4.917 2.159 2.519 1.679-1.079 1.079-2.519 2.639-2.159 2.518-.72 3.119 1.44 4.317 1.679 1.44-.359.239-2.76-1.559-2.878.36-2.878 2.159-1.679 3.598-.959 1.56-.6-.72-1.679-.959-2.879 1.679-1.199z" fill="#ffed4a" stroke="#3c3b6e"/><path d="m1048.35 214.562-4.44-17.87-5.64 1.079-25.42 5.637 1.2 3.839 1.79 8.755.24 10.794-1.43 2.638 2.27 2.279 5.16-4.678 4.32-3.837 2.28-2.519.96.72 3.36-1.679 6.23-1.32z" fill="#219456" stroke="#3c3b6e"/><path d="m737.717 236.75-.119-3.838-1.44-5.397-.84-7.316-1.318-2.879 1.199-3.718.959-3.478 1.8-3.118-.841-4.078-.838-4.318.599-2.158 2.279-2.879.239-3.358-.959-1.559.84-3.118-.6-5.037 3.358-6.836 3.479-8.156.239-2.758-.36-1.2-.959.6-5.038 7.556-3.358 4.796-2.279 2.159-.959 2.759-2.399.959-1.319 2.279-1.799-.359-.24-2.16 1.559-2.878 2.519-5.637 2.159-1.918 1.199-2.879-3.119-2.278-2.398-12.474-4.197-1.559-2.399-2.758-14.512-3.239-3.479-1.2-9.834-2.638-9.474-1.44-4.558-6.116-.96.72-1.439-.24-.84-1.319-1.559.36-1.319.24-2.159 1.198-1.199-.839.84-2.278 2.279-3.719 1.318-1.319-2.279-1.679-2.518.96-3.478 2.279-8.875 3.837-3.479.84-3.478-.6-1.199-1.079-2.518 3.358-.24 3.238v10.195l-1.32 1.918-6.357 4.678-2.758 7.076.6.24 2.999 2.519.84 3.837-2.16 3.839v4.678l.6 7.915 3.598 3.598h4.078l2.158 3.838 4.078.599 4.678 6.837 8.515 4.916 2.519 3.239 1.079 8.875.839 3.959 2.76 1.918.239 1.679-2.518 4.078.239 3.837 2.999 4.678 2.998 1.319 3.599.6 1.558 1.679z" fill="#88c444" stroke="#3c3b6e"/><path d="m1001.45 352.966 2.52 5.877 4.32 7.796 2.88 2.879.84 2.758-2.88.239.96.72-.36 5.037-3.12 1.56-.84 2.518-1.56 3.478-4.436 1.919-2.879-.359-1.799-.24-1.919-1.559.36 1.559v1.199h2.279l.959 1.559-2.279 7.556h5.037l.837 1.919 2.76-2.758 1.56-.6-2.28 4.317-3.716 5.877h-1.56l-1.318-.599-3.358.72-6.238 2.878-7.795 6.357-4.078 5.636-2.278 7.795-.6 2.879-5.637.6-6.597 1.56-11.993-9.835-15.112-9.115-3.478-.96-15.111 1.799-5.157.959-1.919-3.838-3.599-2.519-19.789.6-8.754.96-10.795 5.397-7.316 3.119-25.426 3.118.599-4.797 2.16-1.8 3.358-.72.839-4.437 5.037-3.358 4.677-1.799 5.039-4.318 5.276-2.518.84-3.719 4.677-4.677.839-.239.961 1.318 2.278.361 2.758-4.319 2.52-.718 2.758.359 1.918-4.317 3.478-3.119.6-2.519.24-4.317h5.157l8.636-1.079 18.949-2.639 18.111-2.518 25.906-5.638 23.986-5.157 13.433-2.879zm5.04 39.818 3.12-2.998 3.84-3.118 1.8-.72.24-2.399-.84-7.315-1.8-2.759-.84-2.278.84-.241 3.35 6.597.48 5.397-.24 4.077-4.07 1.8-3.36 2.878-1.32 1.44z" fill="#ffed4a" stroke="#3c3b6e"/><path d="m966.432 300.795-2.158-2.159-1.44-.84 1.68-2.399 3.478 2.279z" fill="#9190ad"/><path d="m966.432 300.795-2.158-2.159-1.44-.84 1.68-2.399 3.478 2.279zm128.508 68.181-.96-1.079-1.68-1.679-.72-.84-1.8-1.918-.72-.84-2.99-2.999-.48-.6-11.76-11.752-1.32-1.44-1.2-1.32-.36-.479-4.67-4.678-.96-.839-6.96 6.956h-.12l-4.32 4.317-2.04 2.279-.83.72-3.48 3.598.48.6.24 1.079.72 1.08 1.56 1.799.6 1.799.48.479 1.67 1.559.84.48 1.8.72.96.12.6.12 1.2.12.72.36.6 2.399.24.719 1.2 2.518h.72l.24.241.72 1.199v.6l.48.719.6-.119.12-.481-.24-.599.24-.12.48.359.6.841.36.959v.72l-.12.479.24.72 1.44 3.358-.24 2.518-1.92.481h-.6l-.12.479v1.079l.36.48.24-.12h.36l.48.479.24 1.081-.24 2.158.12.6.12 1.199.48.24-.72 4.198.12 2.758 8.51-8.875.24-.12h.12l.12-.12.36-.24.36-.36.72-.839 1.8-1.799 1.2-1.079 5.88-5.877.84-.72 3.95-3.958 1.68-1.799 3.24-3.238z" fill="#9190ad"/><g stroke="#3c3b6e"><path d="m966.432 300.795-2.158-2.159-1.44-.84 1.68-2.399 3.478 2.279z" fill="#219456"/><path d="m966.432 300.795-2.158-2.159-1.44-.84 1.68-2.399 3.478 2.279zm128.508 68.181-.96-1.079-1.68-1.679-.72-.84-1.8-1.918-.72-.84-2.99-2.999-.48-.6-11.76-11.752-1.32-1.44-1.2-1.32-.36-.479-4.67-4.678-.96-.839-6.96 6.956h-.12l-4.32 4.317-2.04 2.279-.83.72-3.48 3.598.48.6.24 1.079.72 1.08 1.56 1.799.6 1.799.48.479 1.67 1.559.84.48 1.8.72.96.12.6.12 1.2.12.72.36.6 2.399.24.719 1.2 2.518h.72l.24.241.72 1.199v.6l.48.719.6-.119.12-.481-.24-.599.24-.12.48.359.6.841.36.959v.72l-.12.479.24.72 1.44 3.358-.24 2.518-1.92.481h-.6l-.12.479v1.079l.36.48.24-.12h.36l.48.479.24 1.081-.24 2.158.12.6.12 1.199.48.24-.72 4.198.12 2.758 8.51-8.875.24-.12h.12l.12-.12.36-.24.36-.36.72-.839 1.8-1.799 1.2-1.079 5.88-5.877.84-.72 3.95-3.958 1.68-1.799 3.24-3.238z" fill="#219456"/><path d="m1078.93 207.725 2.64-.839.6-2.04 1.2.12 1.2 2.759-1.56.599-4.68.121zm-11.27 1.08 2.75-3.119h1.92l2.16 1.8-2.88 1.199-2.63 1.199zm-41.62-26.386 21.23-5.517 2.76-.72 2.28-3.358 4.43-2.039 3.48 5.277-2.88 6.238-.36 1.679 2.28 3.117 1.32-.959h2.16l2.76 3.118 4.68 7.196 4.31.6 2.76-1.199 2.16-2.159-.96-3.358-2.52-1.919-1.8.959-1.2-1.559.6-.6 2.52-.24 2.16.96 2.28 2.879 1.2 3.478.36 2.878-5.04 1.679-4.68 2.279-4.67 5.396-2.28 1.68v-1.199l2.88-1.679.6-2.16-.96-3.717-3.48 1.679-.96 1.679.6 2.758-2.52 1.2-3.36-5.398-4.08-5.276-2.51-2.16-7.8 2.279-6.36 1.679-24.82 5.518-.84-5.757.84-12.713 5.15-1.08z" fill="#219456"/><path d="m835.584 381.631-62.246 5.996-18.95 2.16-5.516.6h-4.678l-.24 4.916-9.835.36-8.395.72-9.715-.121-1.678 8.517-1.92 6.595-1.44 3.958-2.158 7.317-3.358 2.878 1.559 4.797 3.718.6-2.158 1.44-.241 3.117 122.333-11.753.48-4.798 2.159-1.799 3.358-.959.84-4.437 4.917-3.239 4.797-1.799 4.917-4.317 5.278-2.399.599-3.719 4.917-4.796.6-.12.96 1.319 2.279.48 2.758-4.318 2.519-.719 2.758.359 1.918-4.198 3.599-3.117.479-2.279.361-4.439-2.639-.239-3.118 2.399h-8.396l-22.067 2.879z" fill="#c71a1a"/><path d="m712.172 411.373-4.798.84-6.116-.72.479-1.918 3.599-3.119 1.079-4.437-2.159-3.598-94.028 2.998 1.919 8.275v9.835l1.679 13.192.239 45.336 2.758 2.279 3.599-1.679 3.239 1.319.838 7.916 66.684-1.319 1.44-2.52-.361-4.198-2.158-3.597 1.919-1.799-1.919-2.998.84-2.999 1.679-6.716 2.998-2.519-.84-2.758 4.437-6.477 3.239-1.679-.12-1.799-.359-2.159 3.478-6.716 2.877-1.558.481-4.078 2.158-1.44-3.718-.6-1.559-4.798 3.358-2.878.6-2.398 1.559-4.798z" fill="#c71a1a"/><path d="m669.714 297.556-2.997-3.717-1.32-2.76-77.238 2.879-2.758.12 1.559 2.998-.239 2.759 2.997 4.677 3.718 4.918 3.719 3.238 2.638.239 1.799 1.081v3.597l-2.158 1.919-.6 2.758 2.518 4.078 2.998 3.598 2.999 2.159 1.679 14.033.359 43.296.241 5.637.599 6.477 26.865-1.081 27.826-.839 24.945-.959 14.033-.24 2.638 4.078-.839 3.957-3.718 2.879-.719 2.158 6.475.6 4.678-.839 2.04-6.597.838-7.076 2.52-3.118 3.117-1.799v-3.598l1.2-2.279-2.039-2.999-1.56 1.2-2.397-2.638-1.56-5.757.96-2.999-2.279-4.077-2.16-5.517-5.756-.96-8.395-6.716-2.039-4.917.959-3.839 2.52-7.315.598-3.478-2.398-1.2-8.276-.959-1.199-2.04-.12-5.036-6.596-4.078-8.396-9.356-2.758-8.754-.239-5.038z" fill="#e27d1b"/><path d="m806.32 426.367v2.639l.24 2.518.839 4.078 4.078 9.475 2.878 11.873 1.8 7.316 1.919 5.877 1.799 8.396 2.518 7.555 3.119 4.077.6 4.078 2.278.961.241 2.517-2.16 5.878-.6 3.837-.239 2.279 1.918 5.277.361 6.357-.961 2.878.84.96 1.8.959.239 3.838 2.639 4.078 2.638 2.639 9.475.239 12.953-.72 25.787-1.559 6.595-.838h5.517l.24 3.476 3.119.961.359-5.277-1.919-5.398 1.32-1.918 6.956.959 5.997.359-.96-7.554 2.758-11.995 1.799-5.037-.599-3.117 3.957-7.438-.598-1.679-2.279.841-3.119-1.559-.84-2.519-1.559-4.319-2.758-2.517-3.119-.72-1.918-5.877-3.478-7.556-5.038-2.279-2.518-2.279-1.56-3.117-2.518-2.279-2.758-1.56-2.76-3.478-3.717-2.758-5.397-2.159-.6-1.799-2.878-3.478-.6-1.799-4.078-5.996-4.197.118-4.557-2.878-1.679-1.559-.361-2.158 1.079-2.279 2.64-1.32-.72-2.517z" fill="#e27d1b"/><path d="m917.379 489.572-2.16 1.199-3.117-1.559-.84-2.519-1.559-4.317-2.758-2.519-3.119-.72-1.919-5.876-3.358-7.196-5.037-2.279-2.519-2.279-1.559-3.119-2.519-2.278-2.758-1.559-2.759-3.478-3.717-2.758-5.398-2.159-.599-1.799-2.879-3.478-.599-1.799-4.078-6.237-4.078.239-4.797-2.878-1.56-1.559-.359-2.158.959-2.279 2.758-1.2-.599-2.758 6.956-2.759 10.914-5.517 9.355-.959 19.31-.481 3.118 2.28 2.039 4.077 5.157-.719 15.111-1.799 3.478.959 15.112 9.115 12.473 9.715-6.475 6.597-3.119 7.315-.6 7.556-1.919.961-1.319 3.357-2.878.719-2.519 4.318-3.358 3.358-2.758 4.078-1.92.959-4.317 3.958-3.478.24 1.2 3.838-5.998 6.597z" fill="#c71a1a"/><path d="m870.724 354.165-2.758 2.879-4.317 4.798-5.877 6.595-1.44 2.04-.119 2.518-5.277 2.639-6.836 4.078-8.636 2.158-62.246 5.877-18.83 2.039-5.517.599h-4.677l-.241 5.039-9.833.119-8.396.719-9.595-.12 1.439-1.558 2.999-1.8.24-3.837 1.079-2.159-1.919-2.998.959-2.279 2.759-2.16 2.518-.718 3.358 1.558 4.318 1.559 1.32-.359.239-2.758-1.559-2.879.36-2.759 2.278-1.798 3.119-.72 1.92-.72-.961-2.159-.838-2.278 1.799-1.2 1.438-4.437 3.599-1.799 6.356-1.2 5.396-.599 1.681 1.918 1.798 1.08 1.919-3.718 3.837-1.559 2.64 1.799.479 1.2 1.44-.361-.24-3.598 3.717-2.159 2.639-1.319 1.799 2.039h3.958l.72-1.919-.48-2.758 3.118-4.798 5.757-4.078.84-5.757 3.478-.598 4.558-1.92 2.878-2.039-.24-1.918-1.32-1.8.72-3.598 5.037-.12 2.759-.959 3.958 1.679 2.399 5.277h6.116l2.399 2.638 1.918-.119 3.119-1.56 6.236.72 3.119.24 2.038-2.519 3.119-1.679 2.279-.84.839 3.358 2.399 1.32 3.118 2.519.121 6.836.959 1.919 3.117 1.919.961 2.758 5.036 4.078 2.159 4.318z" fill="#c71a1a"/><path d="m757.146 552.177-1.799-17.15-3.358-22.548.24-16.91.959-37.181-.24-19.908.24-7.676 53.371-4.317-.24 2.638.24 2.519.84 4.076 4.078 9.476 2.878 11.873 1.798 7.317 1.919 5.877 1.799 8.395 2.52 7.556 3.117 4.077.6 4.078 2.279.959.24 2.519-2.158 5.876-.6 3.839-.241 2.279 1.92 5.277.359 6.357-.959 2.878.839.959 1.799.959.359 3.478-6.716-.479-8.155.72-30.584 3.478-12.472 1.679-.24 3.478 2.159 2.158 3.118 2.279.719 9.476-6.595 3.117-3.599-.359 3.358-2.279v-1.199l-3.717-7.197-2.759-.719-1.8 5.276-1.558 3.36-.839-.241z" fill="#c71a1a"/><path d="m729.201 550.737-3.958-3.837 1.199-6.596-.838-1.08-11.155 1.199-29.983.6-.839-2.879 1.079-10.194 3.958-7.196 5.997-10.433-.72-2.879 1.559-.84.599-2.399-2.758-2.518-.12-2.278-2.158-5.278-.241-7.556-66.563 1.079v11.514l.839 11.273.84 4.678 2.999 4.918 1.079 5.996 5.157 6.597.239 3.838.84.84-.84 10.194-3.597 5.997 1.918 2.518-.839 2.998-.84 8.756-1.679 3.837.12 4.319 5.637-1.8 14.512.24 12.353 4.318 7.796 1.319 4.438-1.799 3.838 1.319 3.838 1.199.959-2.518-3.838-1.319-3.118.599-3.358-1.919.96-1.799 3.717-1.2 2.159 1.8 2.159-1.2 3.838.72 1.799 2.878.359 2.759 5.398.36 2.158 2.159-.959 1.919-1.56.959 1.92 1.92 10.075 4.317 4.317-1.559 1.199-2.879 3.119-.72 2.159-1.799 1.558 1.2.959 3.478-2.758.959.84.72 4.078-1.559 2.758-4.078.959-.6-2.517-.359.959-1.919-.241-1.799 2.519-.6 1.32-1.559.839.959.84 3.719 5.037.72 4.798 2.278 1.199 1.798h3.478l1.319 1.2 2.758-3.718v-1.799h-1.559l-4.078-3.358-6.956-.96-3.837-2.758 1.319-3.358 2.758.359.24-.719-2.159-1.199v-.6h3.839l2.158-3.718-1.558-2.279-.361-3.358-1.799.24-2.279 2.518-.839 3.119-3.718-.72-1.2-2.158 2.159-2.279 2.28-4.198-1.32-2.878z" fill="#c71a1a"/><path d="m757.507 550.858-.241 1.558h-6.236l-1.799-.959-2.518-.359-8.156 2.279-2.158-.961-3.119 5.038-1.32.96-1.318-2.999-1.32-4.678-4.078-3.837 1.32-6.597-.84-1.079-2.159.24-9.475 1.079-29.384.48-.959-2.638 1.079-10.075 3.719-6.836 6.236-10.914-.6-2.879 1.439-.839.481-2.278-2.76-2.52-.119-2.519-2.16-4.916-.12-7.197 1.56-2.997-.24-4.078-2.159-3.719 1.8-1.799-1.92-2.999.6-1.918 1.919-7.796 2.999-2.399-.72-2.879 4.437-6.355 3.358-1.68-.239-2.038-.361-2.039 3.479-6.717 2.759-1.438.239-1.08 44.735-4.677.241 7.556.24 19.908-.96 37.179-.239 16.912 3.358 22.548z" fill="#c71a1a"/><path d="m682.667 239.388.36 3.358 2.638.719 1.2 1.44.599 2.279 4.558 4.078.84 2.878-.84 4.077-1.918 3.839-.961 3.237-2.638 1.92-2.039.72-6.716 2.278-1.679 4.678.84 1.679 2.158 2.038-.36 4.798-2.159 1.799-.959 1.918.12 3.358-2.278.6-1.92 1.32-.36 1.679.36 2.519-1.799 1.319-2.998-3.718-1.559-2.879-78.797 2.999-1.079.239-2.399-5.396-.24-7.915-1.919-4.918-.84-6.357-2.758-4.437-1.079-5.757-3.239-8.996-1.318-6.475-1.679-2.64-1.92-3.237 2.399-5.757 1.679-6.836-3.239-2.519-.6-3.238 1.081-4.264h2.038l99.066-1.559.959 5.037 2.639 1.919.36 2.945-2.399 4.077.24 3.838 2.999 3.292 2.997 1.559 3.719.6z" fill="#88c444"/><path d="m569.928 154.475-.599-10.196-2.039-8.754-2.158-16.192-.6-11.753-2.16-4.078-1.918-5.9967v-12.3532l.839-4.6774-2.158-6.5965h36.1l.36-9.8346.72-.2399 2.758.5997 2.279.9595.959 6.5964 1.799 7.316 1.92 1.9189h5.875l.361 1.6791 7.556.3598v2.5186h5.757l.359-1.5591 1.32-1.3193 2.758-.8395 1.559 1.1993h3.478l4.678 3.1184 6.356 2.8784 2.879.5996.599-1.1993 1.799-.5996.6 3.478 3.119 1.5591.6-.5997 1.558.2399v2.5187l3.118 1.1993h3.719l1.919-.9595 3.837-3.8379 3.118-.5997.96 2.1589.6 1.5591h1.2l1.199-.9594 10.673-.3598 2.159 3.7179h.84l.839-1.3193 5.277-.4798-.718 2.7586-4.678 2.159-11.034 4.917-5.757 2.399-3.719 3.118-2.878 4.318-2.758 4.677-2.159.96-5.397 5.996-1.559.241-5.157 3.358-2.999 3.837-.24 3.838.12 9.595-1.679 2.039-6.116 4.557-2.639 7.197 3.478 2.638.84 3.838-2.279 3.838.239 4.557.481 8.036 3.597 3.598h3.958l2.28 3.718 4.076.599 4.678 6.836 8.515 4.918 2.519 3.478.84 7.675-97.387 1.32-.36-42.816-.6-3.598-4.917-4.078-1.319-2.158v-1.8l2.519-1.919 1.679-1.679z" fill="#219456"/><path d="m456.111 384.748-20.029-1.558-1.079 13.192 24.586 1.44 38.499 1.559-2.759 29.264-.599 21.348.239 1.92 5.158 4.437 2.518 1.319.84-.24.839-2.518 1.679 2.159h2.519v-1.679l3.238 1.679-.6 4.677 4.918.239 2.999 1.32 4.916.84 2.999 2.159 2.758-2.519 4.078.84 2.999 4.078h1.079v2.758l2.758.839 2.759-2.759 2.159.841h2.998l1.079 2.998 7.556 2.518 1.679-.839 2.16-4.918h1.318l1.32 2.519 4.918.839 4.437 1.679 3.598 1.081 2.159-1.081.839-2.997h5.157l2.519 1.079 3.238-2.519h1.319l.84 1.919h4.917l1.919-2.519 2.159.6 2.519 2.998 3.838 2.159 3.837 1.079 2.279 1.32-.48-44.616-1.679-13.193-.239-10.674-1.68-7.796-.959-8.635-.12-4.558-14.511.361-55.651-.6-53.97-2.519z" fill="#c71a1a"/><path d="m433.563 396.503 27.225 1.319 37.3 1.319-2.759 28.185-.359 21.707.12 2.52 5.158 4.557 2.397 1.799 1.44-.72.479-2.158 1.32 2.158h2.518v-1.799l2.04 1.2 1.319.479-.481 4.798 4.918.12 3.479 1.439 4.797.599 2.879 2.519 2.518-2.519 4.437.72 2.639 3.838 1.32.36-.241 2.399 2.638.959 2.76-2.399 2.518.72h2.639l1.079 2.879 7.556 2.518 1.918-.96 1.8-5.036h.36l1.079.12 1.439 2.518 4.678.84 3.957 1.318 4.078 1.44 2.159-1.2.84-2.998h5.397l2.159 1.079 3.358-2.518h1.319l1.08 1.918h4.796l1.799-2.397 2.279.479 2.399 2.879 4.198 2.399 3.478.959 1.799.959 2.999 2.399 3.597-1.559 3.239 1.319.719 7.316v11.634l.84 11.394.839 4.317 3.239 5.277 1.079 5.997 5.037 6.596.24 3.718.959.959-.839 10.075-3.478 5.996 1.799 2.52-.719 2.758-.841 8.875-1.799 3.958.361 4.197-6.836 1.919-11.875 5.398-1.199 2.279-3.118 2.278-2.519 1.799-1.558.959-6.477 7.077-3.358 2.518-6.357 3.839-6.836 2.878-7.556 4.078-2.158 1.799-6.957 4.317-4.078.84-4.677 6.596-4.798.36-1.199 2.279 2.759 2.279-1.799 6.595-1.56 5.398-1.318 4.678-.961 5.396.961 2.878 2.158 8.396 1.199 7.316 2.159 3.358-1.199 1.679-3.718 2.279-6.836-4.678-6.597-1.318-1.559.599-3.838-.84-5.037-3.717-6.237-1.32-9.114-4.077-2.52-4.678-1.558-7.795-3.838-2.279-.72-2.759.72-.839.36-4.078-1.559-.84-.72-1.2 1.559-5.276-1.919-2.759-3.838-1.559-4.078-5.277-4.317-7.916-5.037-3.119.239-2.278-6.356-14.752-.96-5.037-2.158-2.278-.24-1.799-7.196-6.357-3.119-3.719v-1.318l-3.118-2.519-8.155-1.32-8.876-.718-3.718-2.76-5.396 2.16-4.319 1.798-2.758 3.839-1.199 4.437-5.278 7.315-2.878 2.879-3.118-1.2-2.159-1.318-2.279-.72-4.676-2.758v-.72l-2.16-2.279-6.237-2.519-8.874-9.354-2.76-5.638v-9.714l-3.837-7.795-.6-3.358-1.919-1.2-1.318-2.519-5.998-2.519-1.559-1.918-8.515-9.475-1.56-3.838-5.636-2.758-1.799-5.278-3.118-3.478-2.279-.599-.72-5.637 9.595.839 34.781 3.239 34.78 1.918 2.64-23.387 4.677-66.683 1.918-22.548h1.679zm120.175 275.369-.72-8.516-3.358-8.635-.72-8.395 1.799-9.834 3.958-8.276 4.198-6.477 3.718-4.317.719.239-5.756 7.917-5.278 7.795-2.399 7.915-.359 6.238 1.079 7.315 3.119 8.636.6 6.236.239 1.799z" fill="#e27d1b"/><path d="m345.532 508.521-.96-5.757 10.314.6 36.22 3.597 32.742 2.039 2.64-22.427 4.677-67.044 2.039-23.267 1.919.119.959-13.432-124.731-12.713-20.989 144.401 18.59 2.399 1.559-11.993z" fill="#c71a1a"/><path d="m609.147 389.067-15.112.239-55.29-.6-53.49-2.518-29.505-1.56 4.678-77.477 26.506.839 48.333.96 53.131 1.2h6.116l2.64 2.638h2.399l1.918 1.199-.12 3.599-2.159 2.038-.359 2.639 2.158 4.078 3.599 3.838 2.758 1.919 1.559 13.432z" fill="#ffed4a"/><path d="m583.002 288.681 3.837 8.395-.12 2.76 4.198 6.595 3.238 3.719h-5.996l-52.172-1.079-48.933-1.081-26.625-.959 1.318-25.545-38.737-3.478 5.157-52.772 18.589 1.199 24.106 1.32 21.349 1.32 28.545 1.318 12.952-.6 2.519 2.76 5.757 3.597 1.32 1.079 5.157-1.679 4.676-.6 3.239-.239 2.159 1.679 4.918 1.92 3.597 1.918.599 1.919 1.08 2.519h2.159l.959.119 1.08 5.638 3.478 10.194.72 4.557 2.998 4.558.719 6.116 1.919 5.038z" fill="#88c444"/><path d="m571.488 244.666v-.72l-3.478-5.877 2.279-5.637 1.799-7.076-3.358-2.518-.479-3.239.959-3.117h3.837l-.12-5.998-.359-36.22-.72-4.557-4.917-3.958-1.2-2.039-.12-1.918 2.399-1.8 1.799-2.039.239-3.238-69.921-1.919-65.724-4.078-6.356 76.399 17.511 1.079 23.986 1.439 21.228 1.079 28.545 1.56 14.392-.48 2.398 2.638 6.238 3.838.959.84 5.397-1.679 7.795-.72 2.039 1.559 5.038 1.919 3.597 1.92.481 1.799 1.199 2.638z" fill="#ffed4a"/><path d="m570.048 154.595-.72-10.074-2.038-8.156-2.279-15.592-.599-13.192-2.04-3.718-2.158-6.2369v-12.4731l.72-4.5576-2.159-6.5963-34.302-.7197-22.307-.8395-31.783-1.5591-27.585-2.5187-8.395 80.5959 65.843 3.958z" fill="#219456"/><path d="m432.245 171.865-127.971-16.191-16.909 106.142 135.885 16.311z" fill="#ffed4a"/><path d="m442.798 68.3623-36.82-3.358-35.141-4.3177-35.141-4.7974-38.739-6.3566-22.067-4.0777-39.219-8.2755-5.397 25.546 4.078 8.9951-1.679 5.517 2.158 5.517 3.839 1.6791 5.517 12.9529 3.237 3.8375.6 1.32 4.078 1.319.6 2.519-8.515 21.108v2.998l2.998 3.838h1.079l5.757-3.597.839-1.32 1.919.839-.239 6.357 3.238 15.112 3.598 2.998 1.08.84 2.158 2.759-.6 4.077.841 4.078 1.318 1.08 2.759-2.76h3.238l3.838 1.919 2.998-1.079h4.918l4.438 1.92 3.237-.6.6-3.598 3.598-.841 1.679 1.681.6 3.837 1.679.959 2.279-13.193 128.09 16.072z" fill="#e27d1b"/><path d="m455.752 384.989 5.877-103.503-136.006-15.232-14.632 105.422z" fill="#219456"/><path d="m178.583 209.885 10.075-40.537 1.679-5.038 2.998-7.075-1.56-2.76-2.997.12-.96-1.199.599-1.319.361-3.718 5.396-6.597 2.159-.598 1.319-1.32.72-3.839 1.079-.839 4.678-6.956 4.678-5.157.239-4.558-4.078-3.118-1.798-5.277 16.31-75.9186 16.192 2.9984-5.397 25.546 4.317 8.9951-1.919 5.6369 2.399 5.5169 3.718 1.5592 4.558 11.5137 4.198 5.2774.598 1.319 3.959 1.319.48 2.519-8.396 20.869-.24 3.117 3.118 3.958 1.079-.119 5.877-3.598.84-1.32 1.92.84-.361 6.357 3.238 15.111 4.678 3.838 2.039 2.638-.84 4.918 1.32 3.358 1.319 1.319 2.998-2.879 3.478.121 3.478 1.56 3.359-.84 4.558-.241 4.796 1.919 3.239-.359.6-3.598 3.478-.959 1.559 1.799.479 3.477 1.679 1.44-10.074 64.284-56.369-10.914z" fill="#ffed4a"/><path d="m311.231 371.916-100.506-14.272 24.706-134.927 56.369 10.794-2.038 12.474-2.758 15.831 9.355 1.079 19.668 2.16 9.835 1.079z" fill="#219456"/><path d="m173.785 458.869-3.118 2.638-.36 1.799.599 1.2 22.668 12.832 14.513 9.116 17.63 10.314 20.149 11.993 14.751 2.879 29.865 3.238 20.748-142.842-100.385-14.272-3.719 19.669h-1.918l-2.039 3.119-2.999-.12-1.559-3.239-3.238-.36-1.079-1.319h-1.199l-1.079.72-2.279 1.199-.12 8.395-.241 2.04-.72 15.112-1.798 2.638-.72 3.957 3.238 5.877 1.559 6.957.96 1.199 1.2.72-.12 2.758-1.92 1.679-4.078 2.039-2.278 2.278-1.8 4.439-.718 5.875-3.478 3.24-2.519.838.12.961-.6 2.038.6.959 4.437.72-.72 3.239-1.798 2.638z" fill="#e27d1b"/><path d="m235.553 222.598-28.305 154.474-2.159.48-1.919 2.878h-2.878l-1.8-3.237-3.117-.48-.96-1.32h-1.2l-3.358 1.92-.359 8.156-.48 6.956-.481 10.314-1.679 2.518-2.878-1.318-82.874-125.092 22.787-81.076z" fill="#c71a1a"/><path d="m178.584 209.885 10.434-41.138 1.319-5.037 2.878-6.717-.718-1.439-2.999-.12-1.56-2.038.6-1.8.599-3.837 5.398-6.597 2.158-1.32 1.32-1.318 1.799-4.318 4.917-6.836 4.318-4.678.239-4.078-3.957-2.998-2.159-5.517-15.232-4.318-18.11-4.197-18.47.119-.599-1.679-6.596 2.519-5.397-.72-2.879-1.9186-1.559.8396-5.638-.24-2.038-1.6789-6.356-2.5186-.96.1199-5.157-1.6791-2.279 2.1588-7.436-.3597-7.0759-4.9174.8394-.9594.2399-9.355-2.7584-4.6775-4.9174-.7195-.8395-2.8784-2.7585-.5997-6.9562 2.5185-2.7586 7.7958-3.9578 11.9935-3.8378 7.7957-5.9968 16.911-7.7957 16.071-9.7147 15.112-2.2787 3.477-.9596 10.316.4798 14.511 80.5955 18.83z" fill="#ffed4a"/><path d="m122.453 9.11426 5.277 1.79904 11.634 3.3581 10.314 2.2788 24.107 6.8363 27.586 6.8362 18.229 3.838-16.311 76.2783-14.872-4.198-18.59-4.317h-18.23l-.599-1.56-6.716 2.639-5.518-.84-2.638-1.919-1.799.6-5.637-.12-2.039-1.5589-6.356-2.5187-.84.2399-5.277-2.0388-2.279 2.1587-7.556-.3598-7.0759-4.9172.9595-1.0794.1199-9.235-2.7585-4.5575-4.9173-.7196-.8395-2.9984-2.7585-.5997-4.3176 1.4392-2.7585-3.8378.3598-3.4782 3.3581-.3598 1.919-4.7973-2.9984-1.4392.2399-4.4376 5.2771-.8396-3.3582-3.3581-1.679-8.5153.8395-3.4782v-9.4747l-2.1588-3.838 2.7585-11.2738 2.5186.5997 2.8784 3.478 3.3582 3.1183 3.8379 2.2787 5.3968 2.5188 3.718.7195 3.478 1.799 4.078 1.1994 2.759-.2399v-2.8784l1.559-1.3193 2.518-1.5592.36 1.3193.36 2.1589-2.759.5996-.359 2.5187 2.158 1.7989 1.32 2.8784.839 2.2789 1.679-.2399.24-1.5592-1.199-1.5591-.6-3.8379.96-2.1589-.84-1.7989v-2.7585l2.159-4.3176-1.319-3.1183-2.879-5.8769.36-.95944zm-11.393 7.19604 2.398-.2399.6 1.6791 1.799-1.9189h2.878l.96 1.799-1.799 2.0389.839.9595-.839 2.3986-1.679.4798-1.08-.2399 1.679-3.1183-2.038-.7196-.36 1.7991-.84.7195-1.799-2.6385z" fill="#219456"/><path d="m173.546 458.388 4.677-.599 1.798-2.399.6-3.478-4.317-.72-.6-.839.6-2.399-.24-.72 2.278-.72 3.599-3.358.72-5.996 1.679-4.078 2.278-2.639 4.198-1.918 1.919-1.92.12-2.519-1.2-.718-1.199-1.32-1.439-7.076-3.239-5.757.72-4.197-2.878-1.2-82.755-124.971 22.668-81.077-80.4761-18.829-1.799 5.636-.2399 8.876-6.2366 14.152-3.718 3.119-.3598 1.319-2.1587.959-1.7991 5.037-.9594 3.839 3.3581 5.037 1.9189 5.037 1.3193 4.318-.3598 7.795-2.1588 3.719-.7196 6.955-1.1994 4.438 2.1589 4.678 3.3581 5.396 2.7585 5.877 1.5591 4.798-.3597 3.837-.3598.6v2.519l6.8362 7.556-.5996 2.879-.8396 2.758-.8395 2.279.2399 9.834 2.5186 4.438 2.2787 3.118 3.3582.6 1.1993 3.358-1.3192 4.317-2.5186 1.919h-1.3193l-.9596 4.678.5998 3.478 3.8378 5.278 1.919 6.356 1.7991 5.637 1.5591 3.717 4.0778 6.956 1.799 3.119.5996 3.478 1.919 1.2v2.878l-.9596 2.279-2.1587 8.515-.5997 2.279 2.8784 3.358 5.0373.599 5.397 2.159 4.6775 2.519h3.4781l3.4781 3.717 3.1183 5.877 1.3192 2.758 4.6775 2.52 5.7569.959 1.6788 2.519.84 3.837-1.679.72.359 1.2 3.838.959 3.359.24 3.837-2.038 4.678 5.037.959 2.758 3.119 5.037.359 3.839v11.273l.6 2.158 11.994 1.8 23.627 3.357zm-105.6626-52.411 1.559 1.799-.2398 1.559-3.8379-.12-.7196-1.439-.8396-1.799zm2.2787 0 1.4392-.72 4.3176 2.519 3.7179 1.439-1.0793.72-5.397-.241-1.919-1.918zm24.8264 23.747 2.1588 2.758.9595 1.2 1.799.719.7192-1.798-1.1989-2.16-3.2382-2.398-1.3193.239zm-1.799 10.315 2.1589 3.717 1.4392 2.278-1.6791.241-1.5592-1.32-.8396-2.278v-2.52z" fill="#ffed4a"/></g><path d="m965.352 297.918 68.778 49.712zm143.618 63.745c1.53 8.971-.01 18.194-4.36 26.185-4.35 7.993-11.26 14.289-19.62 17.875-8.37 3.586-17.69 4.255-26.48 1.896-8.79-2.357-16.53-7.603-21.98-14.893-3.81-5.188-6.4-11.176-7.55-17.511-1.79-10.606.7-21.49 6.93-30.261 6.23-8.769 15.68-14.709 26.29-16.514 5.87-1.002 11.9-.674 17.63.961l.6.119c7.3 2.118 13.86 6.259 18.91 11.947 5.06 5.689 8.39 12.689 9.63 20.196z" stroke="#66668e"/><path d="m253.061 587.02v65.964l43.176 53.97m-43.176-119.934-80.355-81.556h-172.706m253.061 81.556h103.144l63.566 64.764v55.17" stroke="#66668e"/></svg>