<svg fill="none" height="239" viewBox="0 0 380 239" width="380" xmlns="http://www.w3.org/2000/svg"><path d="m88.0933 202.481.752-1.425.9104-.119.119.317-.8314 1.227zm4.0376-1.465 2.4144 1.029.8314-.119.6331-1.543-.2372-1.346-1.6628-.198-1.5831.713zm12.1521 3.958 1.464 2.177.95-.118.436-.198.594.514 1.464-.079.396-.594-1.148-.712-.752-1.465-.831-1.425-2.296 1.148zm7.996 3.523.514-.752 1.861.396.237-.198 2.415.277-.119.515-1.029.594-1.742-.119zm2.098 2.059.752 1.543 1.227-.435.119-.633-.634-.832-1.464-.118zm2.77-.475.911-1.148 1.86.95 1.742.435 1.742 1.108v.753l-1.425.712-1.94.396-.95-.594zm6.571 6.175.634-.515 1.345.633 3.009 1.425 1.346.832.633.95.752 1.741 1.583 1.029-.118.515-1.544 1.267-1.663.593-.593-.277-1.227.713-.95 1.267-.911 1.147-.712-.079-1.425-1.029-.119-1.781.237-.95-.633-2.256-.831-.713-.079-1.029.91-.396.831-1.227.198-.396-.633-.712z" fill="#e27d1b" stroke="#fbfbfc"/><path d="m62.5815 178.184-.1186 33.805.633.395 1.2273.079.5541-.435h1.0294l.0789 1.148 2.7314 2.692.1979 1.029 1.3459-.752.2376-.079.1186-1.227.5541-.634.4356-.079.752-.594 1.2269.831.2376 1.148.7521.436.4355.95 1.5438.712 1.3459 2.375 1.1082 1.544.9104 1.108.5541 1.465 1.9793.712 2.0583.832.3959 1.741.1979 1.227-.3959 1.346-.7128.911-.633-.317-.5542-1.227-1.1082-.594-.7129-.435-.3165.316.5542 1.109.0793 1.464-.4355.198-.7521-.752-.8314-.514.1979.633.5149.712-.317.317-.5144-.396-.8314-1.345-.3959-.911-.3958.396-.5145-.594.7124-.752-.5542-.594v-1.979h-.3165l-.3165 1.346-.4355.198-.3959-1.465-.2376-1.464-.3165-.198.1186 2.256v.435l-.5542-.514-1.4248-2.375-.8314-.198-.2376-1.465-.633-1.147-.6335-.436v-.91l.8314-.515-.1979-.119-1.0294.277-1.3458-.95-1.029-1.148-1.9396-1.029-1.5835-1.029.5144-1.266v-.753l-.7123.634-1.148.435-1.4644-.435-2.2562-.95h-2.1773l-.2372.198-2.5731-1.544-.8315-.119-1.1082-2.296-1.4248.119-1.4252.594.1979 1.781.4356-1.148.3958.119-.5541 1.742 1.2665-1.109.2376.634-1.5438 1.741-.5144-.118-.198-.753-.5149-.316-.5144.435-1.1083-.712-1.2273.831-.7123.831-1.3459.831-1.8603-.079-.198-.831 1.4645-.277v-.515l-.9103-.277.3958-.95.9104-1.543v-.713l.0793-.317 1.7417-.91.3959.515h1.1083l-.5145-1.03-1.4649-.118-1.9789 1.108-.95 1.346-.7127 1.029-.4354.91-1.6625.594-1.227 1.029-.1188.634.9104.395.3167.832-1.1083 1.266-2.573 1.663-3.0875 1.662-.8312.436-2.0979.435-2.098.911.7125.514-.5541.594-.198.435-1.1083-.395-1.2667.079-.3166.91h-.3958l.1187-.95-1.425.515-1.1479.395-1.3458-.514-1.148.752h-1.2666l-.8313.515-.6333.316-.8312-.119-1.0292-.435-.9104.277-.3959.396-.6333-.435v-.753l1.2271-.514 2.4937.277 1.7417-.633.8312-.832 1.1479-.277.7126-.316 1.1083.079.6333.514.3958-.118.9105-1.109 1.2271-.395 1.3458-.278.5146-.118.277.198h.3167l.5146-1.465 1.5833-.594.7521-1.464.9105-1.782.6333-.593.1187-1.029-.6333.514-1.3459.277-.277-.95-.5146-.119-.3958.396-.0792 1.148-.5542-.079-.5542-2.296-.5145.515-.4355-.198-.1187-.752-1.5833.079-.8313.435-1.0291-.118.5937-.594.1979-1.029-.2771-.752.5938-.396.5146-.079-.2771-.713v-1.742l-.3958-.395-.3167.593h-2.4146l-.5937-.514-.2771-1.544-.8313-1.425v-.396l.8313-.317.0791-.91.4354-.435-.3166-.198-.5146.198-.4354-1.109.3958-1.979 1.7813-1.266 1.0291-.634.7521-1.464 1.1083-.515 1.0292.435.1188.95.95-.118 1.2666-.95.6334.237.3958.238h.6334l.9104-.515.3166-1.742.3958-1.345.3959-.396-.4354-.752-1.0292.316-1.2667.317-.752-.198-1.425-.712-1.9792-.08-1.425-1.464.1979-1.544.2771-.95-.8313-.712-.7521-1.465.198-.317 2.6916-.198h.8313l.3958.396h.2771l-.0792-.633 1.5438-.238 1.0292.119.5541.436-.5541.831-.198.594 1.1084.633 1.9792.712.7124-.395-.9104-1.742-.3958-1.267.3958-.316-1.3458-.752-.1979-.436.1979-.633-.3167-1.544-1.1479-1.86-.95-1.663 1.1479-.752h1.2667l.7125.238 1.6625-.08 1.4646-1.425.4354-1.227 1.4646-.95.6333.396 1.1083-.237 1.4646-.832.4354-.079.3959.317 1.7812-.079 1.1082-1.227h.4356l1.4252.95.752.831-.1979.435.2769.436.6334-.634 1.5438.119.1186 1.465.7521.593 2.8103.238 2.4938 1.662.5542-.395 2.0582 1.029.8314-.238.7521-.316 1.9397.752zm-45.5604 11.44.8313 2.098-.0792.396-1.1479-.119-.7125-1.583-.7125-.594h-.95l-.0792-1.029.7125-.95.4354.95.5938.593zm-1.0291 13.26 1.4645.317 1.4646.396.3167.396-.6334 1.464-1.227-.079-1.3459-1.425zm-8.19381-5.581.43541 1.029.43542.634-.43542.316-.83124-1.227v-.752zm-5.4625 28.936 1.34584-.911 1.34583-.396 1.02918.119.19789.633.75211.198.75206-.752-.11876-.633 1.10835-.277 1.14793 1.029-.43541.712-1.74169.436-1.10831-.198-1.46459-.435-1.74167.554-.63334.118zm19.39581-1.782.6333.752.8313-.633-.5937-.515zm1.1479 1.188.4354-.911.8313.119-.3167.752h-.95zm9.3417-.752.5542.712.3958-.435-.3167-.752zm3.4833-4.948.4354 2.296 1.148.316 1.9791-1.148 1.7417-1.029-.6333-.91.1979-.95-.8312.514-1.148-.316.6334-.436.752.317 1.5438-.713.1979-.593-.95-.317.3167-.752-1.1084.752-1.8604 1.425-1.9 1.148zm16.7436-7.838.95-.593-.3955-.713-.7128.396z" fill="#e27d1b" stroke="#fbfbfc"/><path d="m300.754 173.81.911 2.89 1.464 3.839 2.098 3.721 1.465 2.494 1.9 2.177 1.583 1.465.633 1.147-.435.515-.317.515 1.148 2.929 1.148 1.148 1.03 2.098 1.424 2.295 1.782 3.246.514 3.009.198 4.75.277.712-.119 1.346-.95.515.119.752-.277.752.119.95.198.752-1.109 1.266-1.226.594-1.544.08-.594.633-.95.396-.515-.198-.435-.396-.119-1.148-.317-1.346-1.345-2.058-1.425-.911-1.544-.118-.317.514-1.227-1.742-.277-1.424-1.029-1.584-.712-.435-.634.831-.712-.119-.832-1.979-1.148-1.544-1.148-2.098-1.029-1.227-1.425-1.464.832-.95 1.266-2.177-.079-.634-1.781-.396-.634.238.119.238 1.029.395-.594 1.782-.316.197-.712-1.583-.515-1.939-.119-1.109.594-1.86v-3.761l-1.227-1.464-.515-1.227-2.058-.515-.752-.237-.634-1.029-1.346-.634-.435-1.346-1.108-.396-.95-1.464-1.663-.594-1.148-.594h-.87l-1.584.317-.079.752.317.396-.198.435-1.227-.079-1.465 1.425-1.425.752h-1.543l-1.267.515-.119-1.108-.633-.753-1.148-.435-.633-.594-3.207-1.543-3.008-.713-1.742.238-2.375.197-2.375.832-1.385.237-.08-3.166-1.028-.753-.713-.712.119-1.227 4.037-.515 10.094-1.148 2.691-.237 2.138.119 1.029 1.544.594.593 3.206.198 4.275-.237 8.511-.515 2.177-.277 2.018.079.159 1.148.871.317.079-1.821-.594-1.663.515-.554 2.177.198zm4.988 52.409.95-.278.514-.079.594-.91.91-.633.515.197.673.119.158.396-1.385.475-1.663.594-.91.475zm5.344-1.98.474.396 1.109-.831 2.098-1.663 1.465-1.543.989-2.613.396-.673.079-1.346-.277.198-.396 1.109-.594 1.82-1.266 2.059-1.742 1.662-1.346.752z" fill="#e27d1b" stroke="#fbfbfc"/><path d="m348.651 56.3661.356-.4352.435-1.3066-.989-.3562-.198-1.2268-1.544-.4356-.119-1.1082-2.889-9.2624-1.821-5.7397h-.357l-.276.6333-.278-.1979-.396-.3959-.593.7521v1.9792l.119 2.2562.752 1.1085v1.5831l-1.465 2.019-1.029.4351v.4356l.435.7124v3.4041l-.316 3.6417-.079 1.9397.395.5145-.079 1.7814-.198.7124.396.2772 6.65-1.7417.871-.2376.712-1.1083z" fill="#219456" stroke="#fbfbfc"/><path d="m276.252 70.1414-1.267-3.2458-.91-3.6021-.95-1.2669-1.029-.7124-.633.4355-1.544.7124-.752 1.9793-1.108 1.4645-.436.2376-.594-.2376-.95-.8314.198-1.9789 1.346-.5149.317-1.3459.277-1.0289.95-.6335-.119-3.9582-.633-.9104-.515-.3169-.317-.831.317-.3165.633.1186.08-.6335-1.03-.8707-.514-1.0293h-1.029l-1.781-.5541-2.178-1.3459h-1.108l-.277.2773-.396-.198-1.227-.9103-1.148.7124-1.148.9103.119 1.4252.396.1186.831.198.198.3165-1.029.3169-1.029.1186-.594.7124-.119.8314.119.6331.119 2.1773-1.425.8314-.278-.0794v-1.6624l.515-.95.277-.95-.316-.3169-.752.3169-.396 1.6624-1.109.4356-.712.752-.079.3959.277.3165-.277 1.0294-.911.1979v.4351l.317.95-.436 2.4149-.633 1.5831.277 1.8603.198.4355-.316.95-.119.317-.119 1.1082 1.425 2.3748 1.148 2.5732.594 1.9392-.317 1.8608-.396 2.3748-.95 2.0582-.118 1.1083-1.307 1.2273 1.742-.0794 8.471-.9103 2.889-.3959.04.6732 2.691-.4752 4.078-.5938 1.504-.198.039-.2372.079-.5541.832-1.4649.792-.6727-.08-2.019.634-.6331.435-.119.079-1.4248.594-1.1876.396.2376.079.2376.317.079.752-.3959z" fill="#9190ad"/><path d="m230.216 32.4975.713-.8312.871-.3167 2.138-1.5437.91-.2375.198.1979-2.019 2.0188-1.306.752-.831.3563zm34.122 12.7063.276.9897 1.267.0789.515-.4748-.158-.6335-.634-.7521-.871.0794-.633.0789-.119.4355zm-39.703-1.1876.277-.2372 1.109-.317 1.425-.9103v-.3959l.277-.2768 2.375-.396.95-.7521 1.742-.8313.079-.5145.752-1.148.712-.3166.515-.7125.91-.9105 1.742-.95 1.86-.1979.436.4355-.119.3958-1.465.3958-.593 1.2271-.911.3167-.198.95-.95 1.2666-.118 1.0292.316.1979.396-.4354 1.425-1.1479.515.5146h.91l1.267.3958.593.4354.594 1.2271 1.108 1.1082 1.544-.0789.594-.3958.634.5144.633.1979.515-.3165h.435l.633-.3958 1.584-1.4252 1.345-.4354 2.613-.1187 1.781-.7521 1.029-.5146.594.0792v2.2564l.198.1186 1.148.3165 3.166-.8311.436-.4354.594.1979v2.731l1.266 1.2273.515.2773.515.3954-.515.1191-.317-.1191-1.464-.1975-.832.2769-.91-.0794-1.267.5546h-.712l-2.296-.5149-2.059.0794-.752 1.0289-2.77.2772-.95.3166-.436 1.2273-.514.4355-.198-.0793-.594-.6335-1.781.95h-.277l-.436-.6331-.316.0789-.752 1.7418-.396 1.5835-1.267 2.7706-.475-.3959-.554-.3958-.752-4.0769-1.386-.5541-.791-.9108-4.79-1.0686-1.148-.3958-3.246-.8707-3.127-.4355z" fill="#9190ad"/><path d="m276.252 70.1414-1.267-3.2458-.91-3.6021-.95-1.2669-1.029-.7124-.633.4355-1.544.7124-.752 1.9793-1.108 1.4645-.436.2376-.594-.2376-.95-.8314.198-1.9789 1.346-.5149.317-1.3459.277-1.0289.95-.6335-.119-3.9582-.633-.9104-.515-.3169-.317-.831.317-.3165.633.1186.08-.6335-1.03-.8707-.514-1.0293h-1.029l-1.781-.5541-2.178-1.3459h-1.108l-.277.2773-.396-.198-1.227-.9103-1.148.7124-1.148.9103.119 1.4252.396.1186.831.198.198.3165-1.029.3169-1.029.1186-.594.7124-.119.8314.119.6331.119 2.1773-1.425.8314-.278-.0794v-1.6624l.515-.95.277-.95-.316-.3169-.752.3169-.396 1.6624-1.109.4356-.712.752-.079.3959.277.3165-.277 1.0294-.911.1979v.4351l.317.95-.436 2.4149-.633 1.5831.277 1.8603.198.4355-.316.95-.119.317-.119 1.1082 1.425 2.3748 1.148 2.5732.594 1.9392-.317 1.8608-.396 2.3748-.95 2.0582-.118 1.1083-1.307 1.2273 1.742-.0794 8.471-.9103 2.889-.3959.04.6732 2.691-.4752 4.078-.5938 1.504-.198.039-.2372.079-.5541.832-1.4649.792-.6727-.08-2.019.634-.6331.435-.119.079-1.4248.594-1.1876.396.2376.079.2376.317.079.752-.3959z" fill="#ffed4a" stroke="#fbfbfc"/><path d="m230.216 32.4975.713-.8312.871-.3167 2.138-1.5437.91-.2375.198.1979-2.019 2.0188-1.306.752-.831.3563zm34.122 12.7063.276.9897 1.267.0789.515-.4748-.158-.6335-.634-.7521-.871.0794-.633.0789-.119.4355zm-39.703-1.1876.277-.2372 1.109-.317 1.425-.9103v-.3959l.277-.2768 2.375-.396.95-.7521 1.742-.8313.079-.5145.752-1.148.712-.3166.515-.7125.91-.9105 1.742-.95 1.86-.1979.436.4355-.119.3958-1.465.3958-.593 1.2271-.911.3167-.198.95-.95 1.2666-.118 1.0292.316.1979.396-.4354 1.425-1.1479.515.5146h.91l1.267.3958.593.4354.594 1.2271 1.108 1.1082 1.544-.0789.594-.3958.634.5144.633.1979.515-.3165h.435l.633-.3958 1.584-1.4252 1.345-.4354 2.613-.1187 1.781-.7521 1.029-.5146.594.0792v2.2564l.198.1186 1.148.3165 3.166-.8311.436-.4354.594.1979v2.731l1.266 1.2273.515.2773.515.3954-.515.1191-.317-.1191-1.464-.1975-.832.2769-.91-.0794-1.267.5546h-.712l-2.296-.5149-2.059.0794-.752 1.0289-2.77.2772-.95.3166-.436 1.2273-.514.4355-.198-.0793-.594-.6335-1.781.95h-.277l-.436-.6331-.316.0789-.752 1.7418-.396 1.5835-1.267 2.7706-.475-.3959-.554-.3958-.752-4.0769-1.386-.5541-.791-.9108-4.79-1.0686-1.148-.3958-3.246-.8707-3.127-.4355z" fill="#ffed4a" stroke="#fbfbfc"/><path d="m334.281 60.9979.119-2.1376-1.148-4.2752-.277-.1186-1.148-.5145.317-1.1479-.317-.8314-1.068-1.8207.396-1.5438-.317-2.0582-.95-2.5732-.317-1.9396 10.45-2.6519.119 2.1771.752 1.0686v1.5834l-1.465 2.0186-1.029.4356v.4355l.515.5938-.119 3.2062-.237 3.681-.08 2.2169.396.5145-.079 1.8207-.198.6731.396.2769-2.929.5938z" fill="#219456" stroke="#fbfbfc"/><path d="m365.275 31.1915.752.8312.911 1.4646v.7521l-.831 1.8604-.753.2375-1.346 1.2271-1.9 2.1771h-.514l-.396-.8313-.713.0792-.395.5541-.95.5542-.396.5542.633.5541-.198.2771-.198 1.1083-.752-.0789v-.5542l-.118-.5148-.594.1188-.713-1.2667-.831.5146.515.5542.118.4352-.316.5149.118 1.2269.08.6335-.634 1.0289-1.148.1979-.118 1.1479-2.098 1.2273-.515.198-.633-.5542-1.227 1.4248.395 1.267-.593.5144-.079 1.7418-.436 2.4938-.99-.4753-.197-1.2268-1.465-.5149-.119-1.1083-2.889-9.2623-1.861-5.7793.554-.0395.594.1583v-1.0292l.515-1.7813 1.029-1.8604.594-1.5833-.753-.95v-2.375l.317-.3958.317-1.1083-.079-.5938-.079-1.9.712-1.9 1.148-3.5229.831-1.6625h.515l.514.0792v.4354l.515.9104 1.108.277.317-.3166v-.3958l1.583-1.148.713-.7124.594.0791 2.375.95.752.3959 3.562 11.8354h2.375l.317.752.079 1.9 1.148.9104h.317l.079-.1978-.198-.4355zm-8.273 11.954.594-.5938.554.4355.238.95-.673.3562zm2.652-2.3353.713.7521.514-.0792.08-.7916.356-.3167-.317-.7125-.792.2771z" fill="#88c444" stroke="#fbfbfc"/><path d="m345.999 70.8144-1.465-5.9376 2.493-.752.872.752 1.306 1.7021 1.068 1.7417-1.187.6335-.515-.0793-.435.7124-.95.7524z" fill="#88c444" stroke="#fbfbfc"/><path d="m328.7 74.7331-.435-.3954-1.029-.0794-.911-.7521-.633-2.4144-1.385.0392-.951-1.0686-7.679 1.7418-17.021 3.4438-2.968.4748-.277-2.5727.554-.4356.514-.4355.396-.6331.713-.4355.752-.7124.198-.6335.831-1.1083.435-.3958-.079-.3959-.514-1.2268-.713-.0794-.752-2.4144 1.148-.7129 1.741-.5541 1.584-.5145 1.267-.1979 2.493-.0793.752.5148.634.079.831-.5145 1.029-.4355 2.058-.198.832-.7124.712-1.2665.634-.752h.831l.752-.4356.079-.9103-.594-.8314-.118-.5542.435-.8314v-.5541h-.713l-.712-.3165-.317-.4356-.079-1.0289 2.296-2.1773.277-.3165.594-1.1479 1.148-1.7814 1.108-1.4645.831-.95.95-.7124 1.228-.4752 2.176-.5145 1.267.0794 1.781-.5546 3.009-.831.198 1.979.95 2.5731.316 2.0583-.395 1.5438 1.029 1.7814.316.831-.316 1.1479 1.148.5145.277.119 1.227 4.3541-.198 2.0186-.198 4.2752.317 2.1769.316 1.4252.594 2.8897v3.2062l-.435.9103.712.7917.317.6727-.752.7124.118.5149.515-.119.594-.5145.91-1.0289.436-.2376.633.2376.91.0789 3.127-1.5438 1.148-1.1082.515-.5542 1.662.6335-1.345 1.4248-1.544.8711-2.811 2.0979-1.029.3955-2.296.7525-1.583.4351-.475-.198-.079-1.4644.198-1.1083-.079-.8314-1.109-.6727-1.781-.3959-1.544-.4355z" fill="#88c444" stroke="#fbfbfc"/><path d="m326.602 88.9439.515-.119.91-.4748.475-.9897.634-.9103 1.267-1.2273v-.3165l-2.376-1.5835-.395-1.0289-1.109-.119-.079-.4351-.317-1.1087.911-.4351.079-.95-.515-.5149.08-.6331.752-1.2272v-1.2269l1.068-1.0293-.356-.2769-.989-.0793-.911-.7521-.594-2.4145-1.385.0393-.99-1.0686-7.164 1.6624-17.021 3.4438-3.523.5541-.237-2.5727-2.138 2.0186-.515.1979-1.662 1.1876 1.148 7.5604.989 3.8396 1.425 7.6397 1.307-.2376 4.71-.5938 15.002-3.0479 5.898-1.1083 3.286-.6335.118-.0789.832-.6335z" fill="#ffed4a" stroke="#fbfbfc"/><path d="m328.423 74.6145-.91 1.0686v1.2273l-.752 1.2268-.079.6335.514.5145-.079.95-.91.4355.316 1.1083.08.4355 1.108.1186.396 1.0293 1.425.95.95.6335v.3165l-1.188 1.0686-.633.9108-.594 1.1082-.91.5145-.198.5938-.08.4748-.237 1.0293.435.8707 1.267 1.1479 1.9.9108 1.583.2372.08.5541-.317.3958.119 1.1087h.316l.832-.95.316-1.9396 1.109-1.5835 1.227-2.5727.435-2.1773-.277-.4355-.079-3.7207-.633-1.3459-.436.3166-1.108.119-.198-.198.436-.3958.83-.7521.04-.4355-.158-1.3459.238-1.1083-.04-.7917-1.108-.7124-2.019-.4752-1.623-.5541z" fill="#88c444" stroke="#fbfbfc"/><path d="m326.8 90.3686.158-.8314.159-.6727-.633.1583-.634.1979-.871.7124.673 1.9793.911 2.2562.831 3.8397.633 2.4937 1.979-.079 2.415-.475-.911-2.9294-.395.198-1.425-.95-.713-1.8604-.752-1.4252-1.267-1.1479-.356-.831z" fill="#88c444" stroke="#fbfbfc"/><path d="m332.421 99.9084-2.375.4746-2.019.04-.712-2.7312-.752-3.6417-1.029-2.4541-.515-1.7418-2.968.6335-5.898 1.1083-14.844 3.0082.435 1.979.396 2.2566.119-.119.831-.95.91-1.029.95-.2376.594-.5541.713-1.0293.514.2376 1.148-.1186 1.029-.8314.792-.5542.713-.1979.633.4355 1.148.5542.752.7124.475.5938 1.623.6727v1.1479l2.177.5149.435.1979.555-.7917 1.147.7917-.514.9893-.317 1.5831-.712 1.03v.831l.277.712 2.019.555 1.702-.04 1.227.396.831.118.396-.831-.594-.831v-.712l-.95-.832-.831-2.177.514-2.098-.079-.831-.514-.5148.593-.9104.198-.831.752-.5148.753-.6331.197.3959-.593.633-.515 1.4649.119.4351.712.119.198 2.1769-.831.3959.119 1.4252.198-.0794.435-.752.633.7124-.633.5152-.119 1.345 1.029 1.346 1.544.198.633-.317 1.267 1.663.554.198 2.652-1.109.792-1.583zm-6.333 3.5626.435.989.08.713.435.752.356-.475-.277-1.227-.277-.91z" fill="#88c444" stroke="#fbfbfc"/><path d="m329.175 105.331-.039-.792 2.572-.989-.316 1.267-1.148 1.504-.158 1.82.198 1.346-.713 1.98-.871.752-.594-1.821.198-2.177.634-1.663zm1.346 11.202-23.037 4.988-14.804 2.098-2.652-.159-1.03.752-2.89.079-3.324.396-4.315.634 4.156-2.217v-.831l.594-.832 4.156-4.552 1.583 1.782 1.505.396.989-.436.871-.514.99.514 1.543-.554.752-1.821 1.03.198 1.148-.831.712.198 1.108-1.465.119-.831-.395-.515.395-.752 2.098-4.869.238-2.256.475-.198.87.95 1.544-.118.752-3.009 1.109-.237.395-1.069 1.03-.95 1.108-2.2565.04-2.0186 3.879 1.5041.317-2.0186 1.464.6331.04 1.1479 2.296.5149.831.4748.673.8314-.278 1.4245-.791 1.03.039.831.238.752 1.979.515h1.781l1.228.395.752.119.276 1.227 1.267.159.357.474-.159 1.861.555.435-.198.752.474.317-.079.554-1.069-.039.04.633.91.594.04.554.712.712.198.99-.989.554.633.594 2.296-.673z" fill="#88c444" stroke="#fbfbfc"/><path d="m301.308 94.6041.436 1.9397.436 2.3748.831-1.029.91-1.2272.99-.2376.593-.5542.713-1.0289.594.2372 1.147-.1186 1.03-.8314.792-.5541.712-.198.514.3959 1.426.7124.752.7128.554.5145-.317 2.2165-2.296-.9893-1.662-.6334-.04 2.0582-1.108 2.1776-.99.95-.475 1.108-1.029.198-.356 1.425-.396 1.583-1.583.119-.911-.95-.435.237-.238 2.178-.514 1.385-1.979 4.354.356.475-.079.752-1.109 1.544-.712-.198-1.188.871-.989-.238-.792 1.821-1.544.554-.989-.475-.911.555-.95.395-1.464-.356-.436-.475-.87-1.188-1.228-.791-.672-1.425-1.702-1.386-.278-.91-1.029-.594-.317-.633-.079-2.058.871-.04.752-.317.08-1.108.633-.594.079-1.979.396-1.543.514-.238.515.435.198.713.712-.396.198-.633-.435-.713v-.95l.396-.514.91-1.346.515-.5543.831.1979.91-.6334 1.228-1.3459.91-1.5438.118-2.2562.198-1.9793v-1.8604l-.435-1.2268.396-.5542.515-.5148 1.385 7.8376 1.821-.3166z" fill="#c71a1a" stroke="#fbfbfc"/><path d="m291.057 76.5144-2.415 1.6227-1.544.9104-1.346 1.4648-1.583 1.5438-1.267.3166-1.148.1979-2.176 1.0293-.832.079-1.346-1.2269-2.058.2372-1.029-.5541-.95-.5542-1.94.2773-4.037.6331-4.434.871.515 5.779.713 5.4231 1.029 9.2626.237 1.9 1.623-.04.95-.316 1.346.593.831 1.742h2.019l.752.831.713-.039.989-.515.99.158 2.137.198.673-.831.911-.515.831-.277.277 1.109.712.396 1.386.91.871-.04.514-.197.079-1.109.634-.594.039-1.9.396-1.622.515-.238.514.435.198.673.673-.396.159-.593-.436-.752.04-.911.316-.435.871-1.306.396-.594.831.1979.91-.6334 1.228-1.3459 1.108-1.6227.119-2.019.198-1.979-.079-2.0979-.396-1.1479.118-.4752.713-.7124-.911-3.6021z" fill="#e27d1b" stroke="#fbfbfc"/><path d="m245.259 118.75.039-1.148.198-1.781.911-1.148.712-1.544 1.029-1.662-.197-2.296-.713-1.109-.119-1.267.317-2.176-.198-2.771-.515-6.3336-.514-6.0958-.396-4.6314 1.227.3561.594.3959.435-.1186.832-.752 1.108-.6335 2.018-.0789 8.709-.9108 2.217-.1975.593 6.3331 1.663 14.567.237 2.295-.158.911.475.713.04.554-.99.633-1.386.594-1.266.197-.238 1.94-1.82 1.306-1.109 1.584.119.95-.238.594h-1.306l-.633-.634-.99.515-1.069.593.08 1.188-.475.119-.198-.396-.871-.594-1.267.515-.593 1.187-.555-.317-.593-.633-1.782.198-2.216.396z" fill="#e27d1b" stroke="#fbfbfc"/><path d="m245.219 118.869v-1.267l.238-1.821.91-1.148.752-1.623.871-1.583-.159-2.058-.791-1.386-.04-1.346.277-2.098-.316-2.85-.436-6.2539-.514-5.9376-.356-4.5917-.119-.3562-.317-1.0289-.514-1.4649-.634-.7124-.594-1.0293-.079-2.1769-18.129 1.0293.079.9501.911.2768.356.4355.198.7124 1.544 1.3459.277.9103-.277 1.3459-.713 1.4645-.277.9896-.91.7124-.713.2773-2.098.5541-.277.7124-.277.8314.277.5542.712.6335-.078 1.6227-.713.6334-.277.6331v1.069l-.713.1979-.633.4352-.079.5545.079.831-.673.5149-.396 1.1082.198 1.4643.911 2.89 2.889 2.968 2.177 1.465-.079 1.702.356.555 2.534.197 1.069.555-.278 1.464-.91 2.336-.277 1.266.91 1.544 2.533 2.098 1.822.277.831 1.979.831 1.267-.356 1.187.633 1.623.713.831.554-.356.356-.831.871-.713.831-.237 1.029.475 1.425.554.475-.119.079-.91-.514-.95.118-.95.713-.554 1.187-.317.515-.198-.237-.554-.317-.95.554-.396z" fill="#ffed4a" stroke="#fbfbfc"/><path d="m345.998 70.8144-1.464-5.8979-1.861.3562-8.392 1.8603.396 1.267.594 2.8897.079 3.5623-.475.8707.752.7521 1.702-1.5438 1.425-1.2666.752-.8314.317.2376 1.108-.5541 2.059-.4355z" fill="#219456" stroke="#fbfbfc"/><path d="m243.477 78.1372-.039-1.2665-.475-1.7814-.277-2.4145-.436-.95.396-1.2273.317-1.1479.594-1.0289-.278-1.3459-.276-1.4252.197-.7124.753-.95.078-1.1083-.316-.5144.277-1.0294-.198-1.6624 1.109-2.2562 1.147-2.6917.079-.9103-.118-.3959-.317.1979-1.663 2.4938-1.108 1.5831-.752.7124-.316.9107-.792.3166-.436.752-.593-.1186-.079-.7128.514-.95.831-1.8603.713-.6331.396-.95-1.03-.752-.791-4.117-1.385-.5144-.792-.9104-4.79-1.069-1.148-.3958-3.246-.8707-3.127-.4752-1.504-2.0186-.317.2376-.474-.0793-.278-.4352-.514.1186-.436.0794-.712.3954-.396-.2768.277-.7521.752-1.2273.436-.4353-.753-.5541-.831.3167-1.147.7521-2.93 1.2665-1.148.2773-1.148-.198-.396-.3562-.831 1.1083-.079 1.0686v3.3649l-.435.633-2.098 1.5438-.911 2.3356.198.0789.99.8314.277 1.2665-.713 1.267v1.5438l.198 2.6124 1.188 1.1876h1.346l.712 1.2665 1.346.1979 1.544 2.2562 2.81 1.6227.832 1.0691.356 2.9289.277 1.3066.91.6331.079.5541-.831 1.3459.079 1.2665.99 1.5438.99.4355 1.187.198.515.5541z" fill="#88c444" stroke="#fbfbfc"/><path d="m330.521 116.493.831 1.94 1.425 2.573.95.95.278.911-.95.078.316.238-.119 1.662-1.029.515-.277.831-.515 1.148-1.464.634-.95-.119-.594-.079-.633-.515.119.515v.396h.752l.316.514-.752 2.494h1.663l.277.633.91-.91.515-.198-.752 1.425-1.227 1.94h-.515l-.435-.198-1.109.237-2.058.95-2.573 2.098-1.346 1.861-.752 2.572-.198.95-1.86.198-2.177.515-3.959-3.246-4.987-3.008-1.148-.317-4.987.594-1.702.316-.634-1.266-1.188-.832-6.531.198-2.889.317-3.563 1.781-2.414 1.03-8.392 1.029.198-1.583.713-.594 1.108-.238.277-1.464 1.662-1.109 1.544-.593 1.663-1.426 1.741-.831.277-1.227 1.544-1.544.277-.079.317.435.752.119.91-1.425.832-.237.91.119.633-1.425 1.148-1.029.198-.832.079-1.425h1.702l2.85-.356 6.255-.871 5.977-.831 8.55-1.861 7.916-1.702 4.434-.95zm1.662 13.142 1.03-.99 1.266-1.028.594-.238.079-.792-.277-2.414-.594-.911-.276-.752.276-.079 1.109 2.177.158 1.781-.079 1.346-1.346.594-1.108.95-.436.475z" fill="#ffed4a" stroke="#fbfbfc"/><path d="m318.963 99.2748-.713-.7124-.475-.2773.555-.7917 1.148.7521z" fill="#9190ad"/><path d="m318.963 99.2748-.713-.7124-.475-.2773.555-.7917 1.148.7521zm42.413 22.5022-.317-.356-.554-.554-.238-.277-.593-.633-.237-.277-.99-.99-.158-.198-3.88-3.879-.435-.475-.396-.436-.119-.158-1.544-1.544-.316-.277-2.296 2.296h-.04l-1.424 1.425-.674.752-.276.238-1.148 1.187.158.198.079.356.237.357.515.593.198.594.159.159.554.514.277.158.593.238.317.039.198.04.396.04.237.118.198.792.08.238.395.831h.238l.079.079.238.396v.198l.158.237.198-.039.039-.159-.079-.197.079-.04.159.119.198.277.118.316v.238l-.039.158.079.238.475 1.108-.079.831-.634.159h-.198l-.039.158v.356l.119.158.079-.039h.119l.158.158.079.357-.079.712.04.198.039.396.158.079-.237 1.385.04.911 2.81-2.929.079-.04h.039l.04-.04.119-.079.119-.119.237-.276.594-.594.396-.356 1.939-1.94.278-.238 1.306-1.306.554-.594 1.068-1.068z" fill="#9190ad"/><g stroke="#fbfbfc"><path d="m318.963 99.2748-.713-.7124-.475-.2773.555-.7917 1.148.7521z" fill="#219456"/><path d="m318.963 99.2748-.713-.7124-.475-.2773.555-.7917 1.148.7521zm42.413 22.5022-.317-.356-.554-.554-.238-.277-.593-.633-.237-.277-.99-.99-.158-.198-3.88-3.879-.435-.475-.396-.436-.119-.158-1.544-1.544-.316-.277-2.296 2.296h-.04l-1.424 1.425-.674.752-.276.238-1.148 1.187.158.198.079.356.237.357.515.593.198.594.159.159.554.514.277.158.593.238.317.039.198.04.396.04.237.118.198.792.08.238.395.831h.238l.079.079.238.396v.198l.158.237.198-.039.039-.159-.079-.197.079-.04.159.119.198.277.118.316v.238l-.039.158.079.238.475 1.108-.079.831-.634.159h-.198l-.039.158v.356l.119.158.079-.039h.119l.158.158.079.357-.079.712.04.198.039.396.158.079-.237 1.385.04.911 2.81-2.929.079-.04h.039l.04-.04.119-.079.119-.119.237-.276.594-.594.396-.356 1.939-1.94.278-.238 1.306-1.306.554-.594 1.068-1.068z" fill="#219456"/><path d="m356.092 68.5577.871-.2769.198-.6731.396.0397.396.9103-.515.1979-1.544.0397zm-3.721.3566.91-1.0293h.634l.712.5938-.95.3958-.87.3959zm-13.735-8.7087 7.006-1.8206.911-.2376.752-1.1083 1.464-.6731 1.148 1.7417-.95 2.0587-.119.5541.752 1.0289.436-.3165h.712l.911 1.0289 1.544 2.3752 1.424.198.911-.3959.712-.7124-.316-1.1082-.831-.6335-.594.3165-.396-.5145.198-.1979.831-.0793.713.3169.752.95.396 1.1479.118.9501-1.662.5541-1.544.752-1.544 1.781-.752.5546v-.3959l.95-.5541.198-.7128-.317-1.2269-1.147.5541-.317.5542.198.9103-.831.3959-1.109-1.7814-1.346-1.7414-.831-.7128-2.573.7521-2.098.5541-8.193 1.8211-.278-1.9.278-4.1959 1.702-.3562z" fill="#219456"/><path d="m275.777 125.954-20.544 1.979-6.254.713-1.82.198h-1.544l-.079 1.623-3.246.118-2.771.238-3.206-.04-.554 2.811-.634 2.177-.475 1.306-.712 2.415-1.109.95.515 1.583 1.227.198-.712.475-.08 1.029 40.375-3.879.159-1.584.712-.593 1.108-.317.278-1.464 1.622-1.069 1.584-.594 1.623-1.425 1.741-.792.198-1.227 1.623-1.583.198-.04.317.436.752.158.91-1.425.832-.237.91.118.633-1.385 1.188-1.029.158-.752.119-1.465-.871-.079-1.029.792h-2.771l-7.283.95z" fill="#c71a1a"/><path d="m235.046 135.77-1.583.277-2.019-.237.158-.633 1.188-1.03.356-1.464-.712-1.188-31.034.99.634 2.731v3.246l.554 4.354.079 14.963.91.752 1.188-.554 1.069.435.277 2.613 22.008-.436.475-.831-.119-1.386-.712-1.187.633-.594-.633-.989.277-.99.554-2.217.99-.831-.277-.91 1.464-2.138 1.069-.554-.04-.594-.118-.712 1.148-2.217.949-.514.159-1.346.712-.475-1.227-.198-.514-1.584 1.108-.95.198-.791.514-1.584z" fill="#c71a1a"/><path d="m221.033 98.2057-.989-1.2268-.435-.9108-25.492.95-.91.0397.514.9897-.079.9103.989 1.5442 1.228 1.623 1.227 1.068.871.079.593.357v1.187l-.712.634-.198.91.831 1.346.99 1.187.989.713.554 4.631.119 14.29.079 1.86.198 2.138 8.867-.357 9.183-.277 8.233-.316 4.632-.08.871 1.346-.277 1.306-1.228.95-.237.713 2.137.198 1.544-.277.673-2.177.277-2.336.832-1.029 1.029-.594v-1.187l.395-.752-.672-.99-.515.396-.792-.871-.514-1.9.317-.989-.753-1.346-.712-1.821-1.9-.317-2.771-2.216-.673-1.623.317-1.267.831-2.415.198-1.147-.792-.396-2.731-.317-.396-.673-.04-1.662-2.176-1.346-2.772-3.088-.91-2.889-.079-1.663z" fill="#e27d1b"/><path d="m266.119 140.719v.871l.079.831.277 1.346 1.346 3.127.95 3.918.594 2.415.633 1.94.594 2.771.831 2.493 1.03 1.346.198 1.346.752.317.079.831-.713 1.939-.198 1.267-.079.752.633 1.742.119 2.098-.317.95.278.317.593.316.079 1.267.871 1.346.871.871 3.127.079 4.275-.238 8.511-.515 2.177-.276h1.82l.08 1.147 1.029.317.119-1.742-.634-1.781.436-.633 2.296.316 1.979.119-.317-2.493.91-3.959.594-1.662-.198-1.029 1.306-2.455-.197-.554-.752.277-1.029-.514-.278-.832-.514-1.425-.911-.831-1.029-.237-.633-1.94-1.148-2.494-1.663-.752-.831-.752-.515-1.029-.831-.752-.91-.515-.911-1.148-1.226-.91-1.782-.713-.198-.593-.95-1.148-.198-.594-1.346-1.979-1.385.039-1.504-.95-.554-.514-.119-.713.356-.752.871-.435-.237-.831z" fill="#e27d1b"/><path d="m302.773 161.579-.712.396-1.029-.515-.278-.831-.514-1.425-.91-.831-1.03-.238-.633-1.939-1.109-2.375-1.662-.752-.831-.752-.515-1.03-.831-.752-.911-.514-.91-1.148-1.227-.911-1.781-.712-.198-.594-.95-1.148-.198-.594-1.346-2.058-1.346.079-1.583-.95-.515-.514-.118-.713.316-.752.911-.396-.198-.91 2.296-.911 3.602-1.82 3.087-.317 6.373-.159 1.029.753.673 1.345 1.702-.237 4.988-.594 1.148.317 4.987 3.008 4.117 3.206-2.137 2.178-1.03 2.414-.198 2.494-.633.317-.435 1.108-.95.237-.832 1.425-1.108 1.109-.91 1.346-.634.316-1.425 1.306-1.148.08.396 1.266-1.979 2.177z" fill="#c71a1a"/><path d="m287.375 116.889-.91.95-1.425 1.584-1.94 2.177-.475.673-.039.831-1.742.871-2.256 1.346-2.85.712-20.544 1.94-6.215.672-1.82.198h-1.544l-.079 1.663-3.246.039-2.771.238-3.166-.04.474-.514.99-.594.079-1.266.357-.713-.634-.989.317-.752.91-.713.831-.237 1.109.514 1.425.514.435-.118.079-.91-.514-.95.118-.911.752-.594 1.03-.237.633-.238-.317-.712-.277-.752.594-.396.475-1.465 1.188-.593 2.098-.396 1.781-.198.554.633.594.356.633-1.227 1.267-.514.871.594.158.395.475-.119-.079-1.187 1.227-.713.871-.435.593.673h1.307l.237-.633-.158-.911 1.029-1.583 1.9-1.346.277-1.9 1.148-.198 1.504-.633.95-.673-.079-.633-.436-.594.238-1.188 1.662-.039.911-.317 1.306.554.792 1.742h2.019l.791.871.633-.04 1.03-.515 2.058.238 1.029.079.673-.831 1.029-.554.752-.277.277 1.108.792.435 1.029.832.04 2.256.317.633 1.029.634.317.91 1.662 1.346.712 1.425z" fill="#c71a1a"/><path d="m249.89 182.241-.594-5.66-1.108-7.442.079-5.581.317-12.271-.08-6.57.08-2.534 17.614-1.425-.079.871.079.831.277 1.346 1.346 3.127.95 3.919.594 2.415.633 1.939.594 2.771.831 2.494 1.029 1.346.198 1.345.752.317.08.831-.713 1.94-.198 1.267-.079.752.633 1.741.119 2.098-.317.95.277.317.594.316.119 1.148-2.217-.158-2.692.238-10.093 1.148-4.117.554-.079 1.148.713.712 1.028.752.238 3.127-2.177 1.029-1.187-.118 1.108-.752v-.396l-1.227-2.375-.911-.238-.594 1.742-.514 1.108-.277-.079z" fill="#c71a1a"/><path d="m240.667 181.766-1.307-1.266.396-2.177-.277-.357-3.681.396-9.896.198-.277-.95.357-3.364 1.306-2.376 1.979-3.443-.238-.95.515-.277.198-.792-.91-.831-.04-.752-.713-1.742-.079-2.494-21.969.357v3.8l.277 3.72.278 1.544.989 1.623.357 1.979 1.702 2.177.078 1.267.278.277-.278 3.365-1.187 1.979.633.831-.276.99-.278 2.889-.554 1.267.04 1.425 1.86-.594 4.79.079 4.077 1.425 2.573.436 1.464-.594 1.267.435 1.267.396.316-.831-1.266-.435-1.03.197-1.108-.633.317-.594 1.227-.396.712.594.713-.396 1.267.238.593.95.119.91 1.781.119.713.713-.317.633-.515.317.634.633 3.325 1.425 1.425-.515.396-.95 1.029-.237.713-.594.514.396.317 1.148-.911.316.277.238 1.346-.515.911-1.345.316-.198-.831-.119.317-.633-.08-.594.832-.198.435-.515.277.317.277 1.227 1.663.238 1.583.752.396.593h1.148l.435.396.911-1.227v-.594h-.515l-1.346-1.108-2.296-.317-1.266-.91.435-1.108.911.118.079-.237-.713-.396v-.198h1.267l.713-1.227-.515-.752-.119-1.108-.594.079-.752.831-.277 1.029-1.227-.237-.396-.713.713-.752.752-1.385-.435-.95z" fill="#c71a1a"/><path d="m250.009 181.806-.079.514h-2.059l-.594-.316-.831-.119-2.691.752-.713-.317-1.029 1.663-.436.317-.435-.99-.435-1.544-1.346-1.266.435-2.178-.277-.356-.712.08-3.127.356-9.698.158-.317-.871.356-3.325 1.228-2.256 2.058-3.602-.198-.95.475-.277.158-.752-.91-.831-.04-.832-.713-1.623-.039-2.375.515-.989-.08-1.346-.712-1.227.594-.594-.634-.99.198-.633.634-2.573.989-.792-.237-.95 1.464-2.097 1.108-.555-.078-.672-.119-.673 1.147-2.217.911-.475.079-.356 14.765-1.544.079 2.494.079 6.571-.317 12.27-.079 5.582 1.109 7.441z" fill="#c71a1a"/><path d="m225.308 79.0078.119 1.1083.871.2376.396.4752.198.7521 1.504 1.3458.277.95-.277 1.3455-.633 1.2669-.317 1.0686-.871.6335-.673.2376-2.216.7521-.554 1.5438.277.5541.712.6727-.119 1.5835-.712.5938-.317.633.04 1.1083-.752.1979-.634.4356-.119.5541.119.8314-.593.4356-.99-1.2273-.515-.95-26.006.9897-.356.0789-.792-1.781-.079-2.6124-.633-1.6231-.277-2.098-.911-1.4644-.356-1.9-1.069-2.9691-.435-2.1371-.554-.8711-.634-1.0686.792-1.9.554-2.2562-1.069-.8314-.198-1.0686.357-1.4073h.673l32.696-.5144.316 1.6624.871.6334.119.9718-.792 1.3458.079 1.2666.99 1.0865.989.5145 1.227.1979z" fill="#88c444"/><path d="m188.1 50.983-.198-3.3649-.673-2.8892-.712-5.3439-.198-3.8792-.713-1.3458-.633-1.9792v-4.0771l.277-1.5437-.712-2.1771h11.914l.119-3.2459.238-.0791.91.1979.752.3166.317 2.1772.594 2.4145.633.6333h1.939l.119.5542 2.494.1188v.8312h1.9l.119-.5146.435-.4354.911-.277.514.3958h1.148l1.544 1.0292 2.098.95.95.1978.198-.3958.593-.1979.198 1.1479 1.03.5146.198-.1979.514.0791v.8313l1.029.3959h1.227l.634-.3167 1.266-1.2667 1.029-.1979.317.7125.198.5146h.396l.396-.3167 3.523-.1187.712 1.227h.277l.277-.4354 1.742-.1583-.237.9104-1.544.7125-3.642 1.6229-1.9.7917-1.227 1.0292-.95 1.425-.911 1.5437-.712.3167-1.781 1.9792-.515.0793-1.702 1.1083-.99 1.2665-.079 1.2665.04 3.167-.554.6727-2.019 1.5041-.871 2.3752 1.148.8707.277 1.2669-.752 1.2666.079 1.5041.159 2.6521 1.187 1.1876h1.306l.753 1.2268 1.345.1979 1.544 2.2562 2.81 1.6232.832 1.1479.277 2.5331-32.142.4355-.119-14.131-.198-1.1876-1.623-1.3458-.435-.7124v-.5938l.831-.6335.554-.5541z" fill="#219456"/><path d="m150.536 126.983-6.611-.514-.356 4.354 8.114.475 12.707.514-.911 9.659-.198 7.045.079.634 1.703 1.464.831.436.277-.079.277-.831.554.712h.831v-.554l1.069.554-.198 1.544 1.623.079.99.435 1.623.278.989.712.911-.832 1.345.278.99 1.346h.356v.91l.911.277.91-.91.713.277h.989l.356.989 2.494.831.554-.276.713-1.624h.435l.436.832 1.623.277 1.464.554 1.188.356.712-.356.277-.989h1.702l.832.356 1.068-.832h.436l.277.634h1.623l.633-.832.713.198.831.99 1.267.712 1.266.357.752.435-.158-14.725-.554-4.354-.079-3.523-.555-2.573-.316-2.85-.04-1.504-4.789.119-18.367-.198-17.812-.831z" fill="#c71a1a"/><path d="m143.094 130.862 8.985.436 12.311.435-.911 9.302-.118 7.165.039.831 1.702 1.504.792.594.475-.238.158-.712.436.712h.831v-.593l.673.395.435.159-.158 1.583 1.623.04 1.148.475 1.583.198.95.831.831-.831 1.465.237.871 1.267.435.119-.079.791.871.317.91-.792.831.238h.872l.356.95 2.494.831.633-.317.593-1.662h.119l.357.04.474.831 1.544.277 1.306.435 1.346.475.713-.396.277-.989h1.781l.713.356 1.108-.831h.436l.356.633h1.583l.594-.791.752.158.791.95 1.386.792 1.148.316.594.317.989.791 1.188-.514 1.069.435.237 2.415v3.84l.277 3.76.277 1.425 1.069 1.741.356 1.98 1.662 2.177.08 1.227.316.316-.277 3.326-1.147 1.979.593.831-.237.91-.278 2.93-.593 1.306.119 1.385-2.257.633-3.919 1.782-.395.752-1.029.752-.832.594-.514.316-2.138 2.336-1.108.831-2.098 1.267-2.256.95-2.494 1.346-.712.593-2.296 1.425-1.346.278-1.544 2.176-1.583.119-.396.752.91.753-.593 2.176-.515 1.782-.435 1.544-.317 1.781.317.95.712 2.771.396 2.414.712 1.108-.396.554-1.226.753-2.257-1.544-2.177-.435-.514.198-1.267-.278-1.663-1.227-2.058-.435-3.008-1.346-.832-1.544-.514-2.572-1.267-.753-.237-.91.237-.277.119-1.346-.514-.277-.238-.396.514-1.741-.633-.911-1.267-.515-1.345-1.741-1.425-2.613-1.663-1.029.079-.752-2.098-4.869-.316-1.662-.713-.752-.079-.594-2.375-2.098-1.029-1.227v-.435l-1.029-.832-2.692-.435-2.929-.238-1.227-.91-1.781.713-1.426.593-.91 1.267-.396 1.464-1.741 2.415-.95.95-1.029-.396-.713-.435-.752-.238-1.544-.91v-.238l-.712-.752-2.059-.831-2.929-3.087-.91-1.861v-3.206l-1.267-2.573-.198-1.108-.633-.396-.435-.832-1.98-.831-.514-.633-2.811-3.127-.514-1.267-1.861-.91-.594-1.742-1.029-1.148-.752-.198-.237-1.86 3.166.277 11.48 1.069 11.479.633.871-7.719 1.543-22.008.634-7.442h.554zm39.663 90.883-.238-2.81-1.108-2.85-.238-2.77.594-3.246 1.306-2.732 1.386-2.137 1.227-1.425.237.079-1.9 2.613-1.742 2.572-.791 2.613-.119 2.058.356 2.415 1.03 2.85.198 2.058.078.594z" fill="#e27d1b"/><path d="m114.04 167.833-.317-1.9 3.404.198 11.954 1.187 10.807.673.871-7.402 1.543-22.127.673-7.679.634.039.316-4.433-41.166-4.196-6.9276 47.659 6.1356.791.514-3.958z" fill="#c71a1a"/><path d="m201.044 128.408-4.988.079-18.248-.198-17.654-.831-9.737-.515 1.543-25.57 8.748.276 15.952.317 17.536.396h2.019l.871.871h.791l.633.396-.039 1.187-.713.673-.118.871.712 1.346 1.188 1.267.91.633.515 4.433z" fill="#ffed4a"/><path d="m192.415 95.2768 1.266 2.7707-.039.9107 1.385 2.1768 1.069 1.227h-1.979l-17.219-.356-16.15-.356-8.787-.317.435-8.431-12.785-1.1479 1.702-17.4169 6.135.3958 7.956.4356 7.046.4355 9.421.4351 4.275-.1979.831.9107 1.9 1.1872.436.3562 1.702-.5541 1.543-.1979 1.069-.079.713.5542 1.623.6334 1.187.6331.198.6335.356.8314h.713l.316.0392.357 1.8608 1.148 3.3644.237 1.5042.99 1.5041.237 2.0186.633 1.6628z" fill="#88c444"/><path d="m188.615 80.75v-.2377l-1.148-1.9396.752-1.8604.594-2.3355-1.108-.831-.159-1.069.317-1.0289h1.266l-.039-1.9794-.119-11.9541-.237-1.5041-1.623-1.3062-.396-.6732-.04-.633.792-.5938.594-.6732.079-1.0686-23.077-.6334-21.692-1.3459-2.098 25.2149 5.78.3562 7.916.4748 7.006.3562 9.421.5149 4.75-.1583.792.8706 2.058 1.2666.317.2772 1.781-.5541 2.573-.2376.673.5145 1.663.6334 1.187.6335.158.5938.396.8707z" fill="#ffed4a"/><path d="m188.14 51.0226-.238-3.3248-.673-2.6917-.752-5.1459-.198-4.3542-.673-1.227-.712-2.0584v-4.1166l.237-1.5042-.712-2.1771-11.321-.2375-7.362-.2771-10.49-.5146-9.104-.8312-2.771 26.6 21.731 1.3062z" fill="#219456"/><path d="m142.659 56.7227-42.236-5.3438-5.5807 35.0314 44.8477 5.3831z" fill="#ffed4a"/><path d="m146.142 22.5624-12.152-1.1083-11.598-1.425-11.598-1.5833-12.7857-2.098-7.2831-1.3458-12.9438-2.7312-1.7814 8.4312 1.3459 2.9688-.5542 1.8208.7124 1.8208 1.267.5542 1.8206 4.275 1.0686 1.2667.198.4354 1.3458.4354.198.8312-2.8104 6.9666v.9897l.9897 1.2665h.3562l1.9-1.1872.2769-.4355.6334.2768-.0789 2.098 1.0686 4.9876 1.1876.9896.3562.2773.7124.9104-.1979 1.3458.2772 1.3459.4352.3562.9107-.9108h1.0686l1.2665.6335.9897-.3562h1.6231l1.4645.6335 1.0686-.1979.1979-1.1877 1.1876-.2772.5542.5545.1979 1.2665.5541.3166.7523-4.3542 42.275 5.3042z" fill="#e27d1b"/><path d="m150.417 127.062 1.94-34.16-44.888-5.0272-4.829 34.7942z" fill="#219456"/><path d="m58.9397 69.2708 3.3252-13.3789.5541-1.6628.9897-2.3352-.5149-.9107-.9892.0397-.317-.3959.198-.4351.119-1.2273 1.781-2.1773.7124-.1975.4355-.4355.2376-1.267.3562-.2768 1.5438-2.2959 1.5438-1.7021.0789-1.5041-1.3458-1.0292-.5934-1.7417 5.383-25.0563 5.3438.9896-1.781 8.4313 1.4248 2.9687-.6334 1.8604.7917 1.8209 1.2273.5146 1.5041 3.8 1.3855 1.7417.1976.4354 1.3066.4354.1582.8312-2.771 6.8877-.079 1.0289 1.029 1.3062.3562-.0393 1.9396-1.1876.2773-.4355.6335.2773-.119 2.0979 1.0686 4.9872 1.5438 1.2669.6731.8707-.2773 1.6231.4356 1.1083.4355.4351.9893-.95 1.1479.0397 1.1479.5149 1.1087-.2773 1.5041-.0793 1.5831.6334 1.069-.1186.1979-1.1876 1.148-.3165.5144.5938.1583 1.1475.5541.4752-3.3248 21.2166-18.6041-3.6021z" fill="#ffed4a"/><path d="m102.719 122.748-33.171-4.711 8.1541-44.5311 18.6041 3.5624-.6727 4.1169-.9103 5.2248 3.0876.3562 6.4912.7128 3.246.3562z" fill="#219456"/><path d="m57.3562 151.446-1.0289.871-.119.593.1979.396 7.4814 4.235 4.7897 3.009 5.8186 3.404 6.65 3.958 4.8686.95 9.8566 1.069 6.8479-47.144-33.1314-4.71-1.2273 6.492h-.633l-.6732 1.029-.9896-.04-.5145-1.069-1.0686-.118-.3562-.436h-.3959l-.3562.238-.752.396-.0397 2.77-.0793.673-.2377 4.988-.5933.871-.2376 1.306 1.0686 1.94.5144 2.295.317.396.3958.238-.0396.91-.6335.554-1.3459.673-.752.752-.5938 1.465-.2372 1.939-1.148 1.069-.8314.277.0397.317-.1979.673.1979.316 1.4645.238-.2377 1.069-.5933.871z" fill="#e27d1b"/><path d="m77.7422 73.4665-9.3418 50.9835-.7124.158-.6334.95h-.95l-.5938-1.069-1.029-.158-.3169-.436h-.3959l-1.1082.634-.1186 2.692-.1583 2.295-.1587 3.405-.5541.831-.95-.436-27.352-41.285 7.5209-26.7583z" fill="#c71a1a"/><path d="m58.9401 69.2706 3.4439-13.5772.4351-1.6624.95-2.217-.2372-.4748-.9897-.0396-.5149-.6728.198-.5938.1979-1.2665 1.7814-2.1773.7124-.4355.4355-.4351.5938-1.4252 1.6228-2.2562 1.4252-1.5438.0789-1.3459-1.3062-.9895-.7124-1.8209-5.0273-1.425-5.9768-1.3854-6.0959.0396-.1979-.5542-2.1769.8313-1.7814-.2375-.95-.6334-.5144.2772-1.8608-.0792-.6727-.5542-2.098-.8312-.3166.0396-1.7021-.5542-.7521.7125-2.4542-.1188-2.3354-1.6229.2771-.3166.0792-3.0876-.9104-1.5437-1.623-.2375-.277-.95-.9105-.1979-2.2958.8312-.9104 2.5729-1.3063 3.9584-1.2666 2.5729-1.9792 5.5812-2.5729 5.3043-3.2063 4.9876-.752 1.1475-.3167 3.4046.1583 4.7892 26.6 6.2149z" fill="#ffed4a"/><path d="m40.4147 3.00806 1.7415.59375 3.8397 1.10832 3.4041.7521 7.9562 2.25624 9.1045 2.25624 6.0166 1.26669-5.3835 25.175-4.9083-1.3854-6.1355-1.425h-6.0165l-.198-.5146-2.2165.8708-1.8211-.277-.8706-.6334-.5938.198-1.8604-.0396-.6731-.5146-2.0978-.8313-.2771.0792-1.7416-.6729-.7521.7125-2.4938-.1188-2.3354-1.6229.3167-.3562.0396-3.048-.9105-1.5041-1.6229-.2375-.2771-.9896-.9104-.1979-1.425.475-.9104-1.2667.1188-1.1479 1.1083-.1188.6333-1.5833-.9896-.475.0792-1.4646 1.7417-.2771-1.1084-1.1083-.5541-2.8104.2771-1.1479v-3.1271l-.7125-1.2667.9104-3.72083.8312.19794.95 1.14789 1.1084 1.02917 1.2666.75207 1.7813.83128 1.2271.23748 1.1479.59376 1.3458.39584.9104-.07919v-.95l.5146-.43541.8313-.51459.1187.43542.1188.71252-.9104.19789-.1188.83126.7125.5937.4354.95.2771.7521.5542-.0791.0791-.5146-.3958-.5146-.1979-1.2667.3167-.71247-.2771-.59372v-.91041l.7125-1.42501-.4354-1.02917-.95-1.93959.1187-.31667zm-3.7604 2.375.7917-.07917.1979.55417.5937-.63335h.95l.3167.59376-.5937.67294.277.31665-.277.79165-.5542.15835-.3563-.07917.5542-1.02918-.6729-.23747-.1188.59376-.2771.23747-.5937-.87082z" fill="#219456"/><path d="m57.2774 151.287 1.5438-.198.5934-.791.1979-1.148-1.4248-.238-.1979-.277.1979-.792-.0793-.237.7521-.238 1.1876-1.108.2376-1.979.5541-1.346.7521-.871 1.3855-.633.6331-.633.0396-.832-.3958-.237-.3959-.436-.4748-2.335-1.069-1.9.2376-1.385-.95-.396-27.3124-41.246 7.4812-26.7587-26.5604-6.2144-.5937 1.8603-.0792 2.9293-2.0584 4.6707-1.227 1.0293-.1188.4356-.71247.3165-.59376 1.6624-.31665 1.2669 1.10831 1.6624.63337 1.6624.4354 1.4252-.1188 2.5728-.71245 1.2272-.23752 2.2955-.39583 1.4649.71252 1.5438 1.10828 1.781.9104 1.9396.5146 1.5835-.1187 1.2665-.1188.198v.8314l2.2563 2.4938-.1979.95-.2771.9103-.2771.7521.0792 3.2457.8312 1.465.7521 1.029 1.1083.198.3959 1.108-.4354 1.425-.8313.633h-.4354l-.3167 1.544.1979 1.148 1.2667 1.742.6333 2.098.5938 1.86.5146 1.227 1.3458 2.296.5938 1.029.1979 1.148.6333.396v.95l-.3167.752-.7125 2.81-.1979.752.95 1.109 1.6625.198 1.7813.712 1.5437.831h1.148l1.1479 1.227 1.0291 1.94.4354.91 1.5438.832 1.9.316.5542.832.277 1.266-.5541.238.1187.396 1.2667.316 1.1083.08 1.2667-.673 1.5437 1.662.3167.911 1.0292 1.662.1187 1.267v3.721l.198.712 3.9584.594 7.7979 1.108zm-34.873-17.298.5145.594-.0791.515-1.2667-.04-.2375-.475-.2771-.594zm.752 0 .475-.237 1.425.831 1.2271.475-.3562.237-1.7813-.079-.6333-.633zm8.1938 7.838.7125.91.3167.396.5937.237.2375-.593-.3958-.713-1.0688-.791-.4354.079zm-.5938 3.404.7126 1.227.475.752-.5542.079-.5146-.435-.2771-.752v-.832z" fill="#ffed4a"/></g><path d="m318.606 98.3252 22.701 16.4068zm47.401 21.0388c.504 2.96-.003 6.005-1.439 8.642-1.435 2.638-3.717 4.716-6.477 5.899-2.761 1.184-5.839 1.405-8.739.626-2.901-.778-5.456-2.509-7.253-4.915-1.259-1.712-2.113-3.689-2.494-5.779-.59-3.501.233-7.093 2.288-9.988 2.056-2.894 5.177-4.855 8.677-5.45 1.938-.331 3.927-.223 5.818.317l.198.039c2.412.699 4.576 2.066 6.243 3.943 1.667 1.878 2.769 4.188 3.178 6.666z" stroke="#d1d0dc"/><path d="m83.5207 193.741v21.771l14.25 17.812m-14.25-39.583-26.5207-26.917h-57m83.5207 26.917h34.0413l20.98 21.375v18.208" stroke="#d1d0dc"/></svg>