<svg fill="none" viewBox="0 0 300 83" xmlns="http://www.w3.org/2000/svg" xmlns:xlink="http://www.w3.org/1999/xlink"><mask id="a" height="23" maskUnits="userSpaceOnUse" width="32" x="0" y="0"><path d="m0 .602783v21.655017h31.3128v-21.655017z" fill="#fff"/></mask><mask id="b" height="22" maskUnits="userSpaceOnUse" width="30" x="211" y="0"><path d="m240.181 0h-28.208v21.8601h28.208z" fill="#fff"/></mask><mask id="c" height="22" maskUnits="userSpaceOnUse" width="23" x="277" y="0"><path d="m299.089 21.8601v-21.257317h-21.146v21.257317z" fill="#fff"/></mask><g clip-rule="evenodd" fill-rule="evenodd"><path d="m3.81738 82.2853h92.17022v-7.6803h-92.16884z" fill="#d9a345"/><path d="m103.669 82.2853h92.17v-7.6803h-92.17z" fill="#669b41"/><path d="m202.561 82.2853h92.169v-7.6803h-92.17z" fill="#005b94"/></g><g mask="url(#a)"><path clip-rule="evenodd" d="m2.55604 3.35095c-.31652-1.05551-.65642-1.72294-1.02385-2.00642-.38945-.16514-.756885-.24771-1.107803-.24771-.277981.01927-.42660532-.06743-.4458714-.251835.01926608-.162385.2201834-.242202.6068804-.242202 1.655504.019266 2.724774.045413 3.211924.082569.1445 0 .49542-.01789 1.05413-.055046.52982-.01789 1.2-.027523 2.01055-.027523.3867 0 .57798.079817.57798.240826-.01376.185781-.18165.272481-.49679.253211-.23532 0-.46376.03716-.68945.11009-.22293.11009-.32889.31376-.30963.61927 0 .07293.03028.18578.09633.34128.01376.16789.0523.3633.10459.59175.10871.44862.24771 1.00045.4211 1.65 1.16009 4.13532 2.33945 8.12749 3.53667 11.97939h.0798l5.3574-14.66288c.1706-.39358.3-.66881.3894-.824313.1101-.127982.2078-.19266.2973-.19266.1555 0 .2945.104587.4183.317893.1074.22018.2381.55183.3922 1.00046l5.7482 14.1537h.0826c1.1949-4.2115 2.4184-8.41477 3.6701-12.60967.1088-.33853.1927-.64954.2574-.9344.0179-.27661.0275-.50918.0275-.70184.0012-.11525-.021-.22954-.0653-.33597-.0442-.10644-.1095-.2028-.192-.28329-.1789-.14587-.5409-.21881-1.0789-.21881-.3165 0-.4734-.08532-.4734-.253211 0-.161009.216-.240826.6468-.240826 1.5688.019266 2.5238.045413 2.8761.082569.1431 0 .4459-.01789.9041-.055046.4418-.01789.9028-.027523 1.39-.027523.3055 0 .4665.070184.4844.213303 0 .187154-.1239.280734-.3771.280734-.3165 0-.6372.04541-.9716.13761-.3165.1101-.5724.42936-.7706.96056-.2798.6655-.5409 1.3387-.783 2.0188-1.9039 5.55331-3.7435 11.12841-5.5184 16.72431-.1376.4679-.2573.7995-.3647 1.0005-.1059.2133-.2546.3165-.4458.3165-.1239 0-.2409-.1032-.3496-.3165-.1376-.2161-.3-.5725-.4981-1.0707l-5.7523-14.09172h-.051c-1.4587 4.09262-3.2545 8.75232-5.3862 13.98162-.16491.3937-.35001.7786-.55458 1.1532-.13211.2299-.28074.3441-.4445.3441-.2422 0-.45275-.3399-.6344-1.0266z" fill="#54565a" fill-rule="evenodd"/></g><path clip-rule="evenodd" d="m45.3162 13.1436c.1279 0 .1734-.055.1376-.1651l-2.4991-6.94542c-.0179-.14587-.0619-.22844-.1362-.2477-.0702.01926-.1267.10183-.1611.2477l-2.5362 6.91922c-.0468.128-.0096.1927.1087.1927h5.0849zm-5.6395 1.3968c-.1321 0-.2202.073-.256.223l-1.4821 4.0321c-.2779.7527-.4183 1.3266-.4183 1.7202 0 .2366.0812.4348.2422.5917.1693.1816.461.2766.8628.2766h.417c.2917 0 .4239.0729.406.2257 0 .1775-.1514.2656-.4583.2656-.9991-.0372-1.9803-.0606-2.9381-.0798-.5146.0192-1.5963.0426-3.2518.0798-.3523 0-.5257-.0881-.5257-.2656 0-.1514.1101-.2285.3372-.2285.2876 0 .5683-.0178.8477-.055.6303-.0922 1.1188-.3605 1.4725-.8078.194-.2298.3578-.4982.4857-.7968.1321-.2752.2615-.5821.3895-.9206l6.933-17.65874c.2973-.767892.5532-1.14220392.7707-1.124314.2215 0 .4568.295872.699.890367 2.2637 5.773347 4.5435 11.540387 6.8395 17.300887.5422 1.2165 1.0115 2.0257 1.4174 2.4179.4046.3757.7459.589 1.0239.6441.4238.0729.8105.1128 1.1601.1128.2339 0 .3523.0729.3523.2257 0 .1073-.0744.1679-.2161.1858-.1885.055-.5422.0825-1.0528.0825-1.1256 0-2.8637-.0206-5.2211-.055-.5298 0-.805-.0729-.8229-.2133 0-.1514.1266-.2381.3771-.256.2628-.0729.3468-.2862.2573-.6468l-2.2128-5.9724c-.0523-.1294-.1487-.1941-.2808-.1941zm24.2037-.8367c-.0179 1.8027.0096 3.1899.0798 4.1601.0688 1.0156.2381 1.6458.494 1.8936.2133.1857.5601.3316 1.039.4403.472.1211 1.2248.1789 2.2638.1789.7293 0 1.3651-.0495 1.9087-.1527.5229-.0702.9495-.2863 1.2771-.6441.3839-.4844.6192-1.0486.7059-1.6885 0-.256.1046-.3936.3083-.4128.1403 0 .2133.1568.2133.4678 0 .2092-.0358.6826-.1101 1.4147-.0881.7321-.1817 1.339-.2918 1.8234-.0523.3028-.1706.5009-.3578.5918-.2215.1101-.6756.1651-1.3582.1651-2.6425-.0375-5.2848-.0916-7.9266-.1624-.9152.0152-2.0574.0427-3.4321.0798-.3633 0-.5464-.0853-.5464-.2683-.0178-.15.1253-.2257.4239-.2257.4238 0 .75-.0372.9812-.1101.1327-.034.2547-.101.3546-.1949.0998-.0938.1743-.2114.2165-.3418.1286-.3243.2043-.6672.2243-1.0156.0894-1.2936.1321-3.2904.1321-5.9959v-4.95271c0-3.68395-.0151-5.67248-.0468-5.9656-.0137-.49541-.1004-.86285-.2518-1.10092-.1596-.2656-.4638-.43624-.9179-.50917-.297-.06069-.5997-.08838-.9028-.08257-.3096.01926-.4651-.06606-.4651-.253213 0-.158257.2009-.240826.5973-.240826 1.5233.019266 2.7701.046789 3.7334.082569 1.0363-.01789 2.2707-.045413 3.6936-.082569.384 0 .5725.082569.5725.240826 0 .187153-.161.272473-.4817.253213-.344 0-.7018.02752-1.0637.08257-.3468.05504-.5973.20642-.7459.45413-.1624.25733-.2505.64128-.2683 1.15596-.0152.37569-.0248.94954-.0248 1.71743-.0179.77064-.0275 2.1867-.0275 4.24817zm18.8587-11.53488-4.0638.11009c-.761.01789-1.3431.07294-1.7422.16514-.3991.12661-.7046.34404-.9055.64266-.2504.43349-.3991.76239-.4541.99083-.0372.22018-.1376.33027-.3083.33027-.1761 0-.2559-.14724-.238-.44036 0-.13762.0371-.35918.1073-.67019.055-.31651.1101-.66468.1651-1.03761.1707-.82019.2739-1.326608.3097-1.517892.0743-.357798.1775-.536697.3206-.536697.1156 0 .2615.050917.439.151376.1583.092202.4018.155504.7307.19266.8601.090826 1.7684.137615 2.7248.137615h10.7835c1.628-.055046 2.5018-.147248 2.6174-.275229.1404 0 .2133.195413.2133.588987-.0179 1.00459-.0454 2.08624-.0784 3.24496-.0193.30275-.1046.45137-.256.45137-.1954.02065-.2958-.16789-.2958-.56146l-.0248-.31652c0-.39358-.234-.74725-.7032-1.05963-.4789-.30138-1.317-.47202-2.5115-.50918l-3.4294-.08256v11.53765c-.0178 2.7055.0248 4.7188.1308 6.0385.0468.3936.1376.7197.2807.9771.1252.2834.3867.4623.7872.5367.4617.0711.9282.1065 1.3954.1059.2917 0 .439.0771.439.2285-.0248.1775-.1982.2683-.5188.2683-1.95-.0358-3.3771-.0633-4.2799-.0826-.9041.0193-2.0463.0468-3.4266.0826-.366 0-.5463-.0908-.5463-.2683-.0179-.1487.128-.2257.439-.2257.4142 0 .7431-.0358.9812-.1101.1337-.0384.257-.1066.3604-.1996.1035-.093.1845-.2083.2368-.3371.1074-.256.1679-.5945.1858-1.0142.0881-1.2909.1349-3.2849.1349-5.9863v-11.55135zm28.5299 18.68808c.507 0 1.104-.1005 1.796-.3028.706-.2091 1.408-.6151 2.099-1.2096.689-.6248 1.262-1.5426 1.713-2.7633.452-1.2014.685-2.806.705-4.8151-.035-3.18994-.796-5.68764-2.286-7.4904-1.506-1.79862-3.402-2.70825-5.688-2.72614-.762 0-1.533.11834-2.312.35779-.796.26422-1.524.73624-2.179 1.41744-.655.63027-1.184 1.52201-1.583 2.66559-.413 1.14633-.625 2.60367-.625 4.37342 0 2.9972.743 5.4743 2.235 7.4257 1.453 2.0091 3.496 3.0316 6.125 3.0688zm-1.142 1.4009c-3.865-.0743-6.671-1.2908-8.422-3.6537-1.7187-2.2885-2.5719-4.7463-2.5499-7.3761-.022-2.56927.8409-5.01193 2.5779-7.33074 1.728-2.38761 4.611-3.619264 8.653-3.689447 7.189.151376 10.858 3.660547 11.009 10.515187-.019 3.2889-1.028 6.0055-3.03 8.155-1.993 2.1991-4.74 3.3248-8.238 3.3798zm22.332-4.2c.033 1.061.134 1.8303.293 2.3051.159.4513.377.7197.651.8119.489.1459.961.2105 1.422.1926.309 0 .465.0757.465.2244-.023.1775-.237.2683-.636.2683-1.126-.0213-2.251-.0488-3.377-.0826-.399.0193-1.377.0468-2.938.0826-.396.0193-.597-.0688-.597-.2683 0-.1487.146-.2257.439-.2257.402 0 .806-.0454 1.225-.1376.346-.0909.582-.4019.707-.9358.116-.5216.165-1.3762.146-2.5555l.241-16.66654c-.018-.612388.1-.930278.359-.945416.158 0 .314.075688.464.231193.161.165137.338.381193.532.646793 1.001 1.14357 3.811 4.15458 8.433 9.02477 1.036 1.0706 2.22 2.3174 3.548 3.7362.803.9046 1.618 1.7982 2.445 2.6808h.131l-.266-12.65095c0-.84495-.067-1.45459-.2-1.83027-.159-.35643-.402-.59175-.73-.70184-.473-.12649-.961-.18214-1.45-.16514-.302 0-.441-.08394-.423-.251831 0-.107339.069-.178899.209-.213303.144-.01789.309-.027523.496-.027523 1.523.01789 2.62.045413 3.293.082569.158 0 .473-.019266.943-.055046.477-.01789 1.051-.027523 1.714-.027523.397-.01789.607.060551.622.240826 0 .167891-.158.253211-.477.253211-.241 0-.519.02752-.83.08257-.175.03416-.338.11477-.471.23339-.134.11863-.233.27091-.287.44092-.153.35642-.238.9289-.256 1.71606l-.293 17.76738c0 .578-.119.8643-.358.8643-.142 0-.285-.0771-.427-.2326-.173-.1152-.337-.2446-.49-.3867-2.689-2.7408-5.363-5.4968-8.021-8.2679-3.392-3.62613-5.55-5.99036-6.482-7.08714h-.082zm43.386-4.3513c-.018 2.7592.023 4.7573.133 5.9959.036.4211.127.7623.278 1.0183.122.2835.382.4638.782.5367.447.0702.899.1073 1.35.1073.308 0 .464.0757.464.2285 0 .1761-.197.2656-.595.2656-1.369-.0244-2.738-.051-4.107-.0798-.979.0178-2.12.0454-3.435.0798-.379 0-.566-.0895-.566-.2656-.018-.1528.112-.2257.394-.2257.421 0 .744-.0372.974-.1101.132-.0344.253-.1016.353-.1954.099-.0939.172-.2113.214-.3413.111-.256.187-.5945.224-1.0183.088-1.2386.13-3.2367.13-5.9959v-4.95002c0-3.68394-.014-5.67523-.046-5.96835-.014-.49403-.099-.86009-.25-1.10091-.158-.2656-.461-.43349-.913-.50642-.348-.06251-.702-.09108-1.056-.08533-.306 0-.46-.07293-.46-.225684 0-.176147.206-.265596.621-.265596 1.607.019266 2.91.046789 3.906.082568 2.586 0 4.972-.008256 7.161-.027523.484-.017889.853-.055045 1.111-.110091.13-.080516.274-.136489.424-.165138.134.019266.197.101835.197.247707-.015.143119-.091.564217-.227 1.256417-.033.72936-.078 1.48624-.133 2.27202 0 .2656-.089.39633-.266.39633-.168 0-.262-.15137-.279-.45137v-.48165c-.019-.20523-.073-.40558-.161-.59175-.069-.20092-.261-.39633-.569-.58761-.294-.14725-.699-.22982-1.22-.24771l-4.194-.08257c-.161 0-.239.12798-.239.38532v7.04312c-.018.1734.041.26147.184.26147l3.464-.02752c.461 0 .867-.00826 1.218-.02752.512 0 .906-.17065 1.178-.50918.106-.19266.22-.28899.344-.28899.106 0 .158.08807.158.26147 0 .07431-.018.26972-.052.58899-.018.12798-.045.29312-.081.49542-.014.2092-.041.4293-.079.6578-.068.8601-.103 1.5427-.103 2.0463 0 .128-.009.2436-.027.3441-.018.1279-.104.1926-.251.1926-.14-.0179-.212-.1514-.212-.3991 0-.2201-.052-.5091-.158-.8669-.055-.2106-.19-.4143-.409-.6152-.116-.1242-.256-.2227-.413-.289-.184-.0601-.375-.0971-.568-.1101-.432-.055-1.115-.0825-2.05-.0825h-1.959c-.123 0-.184.0825-.184.2463zm22.936-.5794c.124 0 .17-.055.134-.1651l-2.444-6.9468c-.018-.14587-.061-.22844-.134-.24771-.069.01927-.121.10184-.157.24771l-2.484 6.9193c-.045.1293-.008.1926.106.1926zm-5.519 1.3968c-.131 0-.217.073-.248.223l-1.455 4.0321c-.272.7527-.408 1.3266-.408 1.7201-.004.1096.016.2188.056.3206.041.1018.102.1941.18.2712.165.1816.45.2738.844.2738h.409c.284 0 .415.0757.397.2285 0 .1775-.148.2656-.448.2656-.977-.0372-1.935-.0606-2.877-.0798-.503.0192-1.563.0426-3.183.0798-.344 0-.514-.0881-.514-.2656 0-.1514.11-.2285.33-.2285.282 0 .557-.0178.83-.055.618-.0922 1.095-.3606 1.441-.8078.194-.2298.351-.4982.476-.7968.129-.2752.257-.5821.381-.9206l6.784-17.65737c.292-.769271.544-1.1449588.756-1.1256927.217 0 .447.2958717.684.8903667 1.692 4.413306 3.922 10.179396 6.695 17.300896.53 1.2165.991 2.0257 1.387 2.4179.396.3757.729.589 1.002.644.415.073.794.1101 1.135.1101.23 0 .346.0757.346.2285 0 .1073-.073.1679-.212.1858-.185.055-.527.0825-1.03.0825-1.102 0-2.804-.0206-5.111-.055-.519 0-.787-.073-.802-.2133 0-.1514.121-.2381.366-.256.257-.0729.339-.2862.252-.6468l-2.166-5.9724c-.051-.1294-.145-.1941-.275-.1941z" fill="#54565a" fill-rule="evenodd"/><g mask="url(#b)"><path clip-rule="evenodd" d="m217.053.729358c.086-.48578.234-.729358.449-.729358.126.00274019.246.0517487.337.137615.108.127981.245.371559.413.729358l7.453 15.857327 7.431-16.049988c.179-.448624.38-.674312.6-.674312.258 0 .427.288991.493.866973l2.484 17.382127c.165 1.7023.614 2.6504 1.329 2.8431.785.2009 1.353.2917 1.699.2752.275 0 .422.0661.44.1996 0 .0894-.061.1596-.187.2105-.152.0551-.324.0826-.523.0826-1.85-.0248-3.699-.0785-5.547-.161-.561-.0523-.826-.1555-.786-.3055 0-.128.096-.2285.289-.3028.102-.0358.164-.1513.202-.344.019-.183 0-.4693-.055-.867l-1.642-12.36879h-.107l-5.96 12.74449c-.527 1.1051-.863 1.6321-1.016 1.5771-.104 0-.23-.1308-.373-.3964-.208-.3247-.4-.6595-.575-1.0032-.382-.7871-.936-1.9211-1.671-3.4004-.509-.9837-1.001-1.9761-1.476-2.9766-.578-1.3349-1.528-3.4156-2.845-6.24224h-.107l-1.428 11.19224c-.049.4665-.076.9082-.076 1.3293.018.5064.293.8023.821.8945.493.0908.876.1376 1.151.1376.248 0 .382.0661.4.1996-.018.1954-.234.2931-.653.2931l-2.863-.0826c-.722.0193-1.618.0468-2.689.0826-.309 0-.47-.0963-.492-.2931 0-.1335.147-.2009.428-.2009.187.0178.459-.0083.825-.0826.365-.1101.633-.3895.814-.8395.165-.4101.269-.8711.307-1.383z" fill="#54565a" fill-rule="evenodd"/></g><path clip-rule="evenodd" d="m248.328 8.74398c0-3.67982-.015-5.6656-.046-5.95872-.033-.94266-.344-1.46972-.932-1.57981-.325-.07184-.658-.10738-.991-.10597-.282.01789-.426-.07706-.426-.284859 0-.138991.217-.213303.655-.213303 1.303.022019 2.49.049542 3.547.082569.924-.01789 2.037-.045413 3.335-.082569.366 0 .556.074312.575.213303 0 .207799-.147.299999-.44.280739-.243 0-.518.02752-.821.08256-.348.05505-.595.20643-.75.45413-.161.25734-.25.64129-.268 1.15597-.019.37568-.025.94954-.025 1.72018-.024 1.41591-.034 2.83204-.03 4.24816v4.95004c-.015 2.8156.018 4.8743.11 6.1761.052.3743.146.6702.293.8945.135.2642.405.4225.805.4775.453.073.917.1101 1.39.1101.295 0 .442.073.442.2257-.015.1789-.19.2684-.52.2684-1.949-.0372-3.365-.0606-4.254-.0799-.918.0193-2.064.0427-3.44.0799-.368 0-.548-.0881-.548-.2656-.019-.1514.118-.2257.424-.2257.426 0 .753-.0399.985-.1129.493-.1101.761-.5766.798-1.3995.09-1.2798.132-3.3275.132-6.1362zm19.659 4.95962c-.018 1.8028.009 3.1899.08 4.1601.073 1.0156.238 1.6459.495 1.8936.215.1858.563.3316 1.043.4403.478.1212 1.233.1789 2.272.1789.735 0 1.374-.0495 1.916-.1527.525-.0702.953-.2862 1.28-.644.385-.4844.624-1.0487.71-1.6886 0-.2559.104-.3936.309-.4128.141 0 .218.1569.218.4679 0 .2091-.042.6825-.11 1.4147-.093.7321-.188 1.3389-.298 1.8233-.052.3028-.17.501-.355.5918-.225.1101-.681.1651-1.366.1651-3.523-.055-6.175-.1101-7.954-.1624-.92.0152-2.066.0427-3.445.0799-.362 0-.548-.0854-.548-.2684-.019-.15.124-.2257.426-.2257.425 0 .755-.0371.984-.1101.133-.0343.255-.1014.356-.1951.1-.0938.175-.2112.219-.3416.117-.2559.187-.5945.223-1.0156.089-1.2935.132-3.2903.132-5.9958v-4.95279c0-3.68394-.015-5.67247-.045-5.96559-.017-.49542-.102-.86285-.255-1.10092-.158-.2656-.465-.43624-.918-.50918-.299-.06061-.603-.0883-.908-.08256-.311.01926-.468-.06606-.468-.253216 0-.158257.206-.240826.6-.240826 1.529.019266 2.782.046789 3.75.082569 1.039-.01789 2.275-.045413 3.706-.082569.382 0 .572.082569.572.240826 0 .187156-.155.272476-.48.253216-.348 0-.703.02752-1.068.08256-.351.05505-.598.20643-.751.45413-.163.25734-.252.64129-.264 1.15597-.018.37568-.031.94954-.031 1.71743-.023 1.41593-.032 2.83205-.027 4.24816z" fill="#54565a" fill-rule="evenodd"/><g mask="url(#c)"><path clip-rule="evenodd" d="m286.821 14.5858c0-.7307-.051-1.3142-.158-1.7477-.104-.4207-.261-.8263-.468-1.2069-.037-.1555-.255-.5793-.655-1.266-.473-.81835-.959-1.62945-1.456-2.43306-.873-1.48769-1.772-2.96038-2.695-4.41743-.715-1.05138-1.348-1.74083-1.896-2.06009-.351-.20495-.744-.32731-1.149-.3578-.252.01927-.383-.06606-.401-.251835.018-.162385.188-.242202.523-.242202.939.019266 2.085.046789 3.441.082569.3 0 .718-.01789 1.253-.055046.508-.01789 1.06-.027523 1.667-.027523.27 0 .4.079817.4.242202 0 .133486-.201.233945-.601.306885-.252.07431-.373.24082-.373.50917 0 .22018.106.5367.321.94954.134.22844.425.73762.88 1.52477.435.78991.918 1.68303 1.438 2.68349l2.321 4.22066c.101-.2106.349-.6826.75-1.41745.382-.6867.807-1.48624 1.281-2.39174.707-1.30417 1.4-2.61571 2.079-3.93441.248-.62202.374-1.1133.374-1.46972-.002-.15734-.039-.31224-.107-.45413-.07-.11009-.223-.19266-.462-.24771-.315-.03578-.481-.130731-.498-.279355 0-.162385.155-.242202.47-.242202.859.016506 1.718.044031 2.576.082569 1.012-.01789 1.985-.045413 2.921-.082569.308 0 .473.070184.495.214679-.022.185778-.195.279358-.523.279358-.33 0-.728.11009-1.201.33028-.482.22844-.973.6922-1.481 1.38715-.56.78991-1.473 2.25963-2.732 4.41743-.529.91271-1.045 1.83346-1.547 2.76193-.481.84499-.789 1.43669-.93 1.77519-.092.2477-.162.4789-.217.7019-.061.2463-.11.4816-.143.7018-.042.4748-.055.9468-.055 1.4133v2.3119c-.02.5588.005 1.4945.078 2.8032.019.4239.12.7624.307 1.0184.143.2835.416.4638.816.5367.456.0702.915.1073 1.371.1073.293 0 .433.0757.433.2285-.021.1761-.22.2683-.583.2683l-4.176-.0825c-.963.0178-2.101.0454-3.412.0825-.401 0-.603-.0922-.603-.2683 0-.15.147-.2257.443-.2257.383 0 .702-.0372.96-.1101.27-.0729.478-.2532.631-.5367.122-.256.199-.5945.217-1.0156.048-1.3073.076-2.2417.076-2.7991z" fill="#54565a" fill-rule="evenodd"/></g><path clip-rule="evenodd" d="m7.23697 45.8257c-.01101 1.8357.01927 3.1651.08945 3.9894.02477.2794.08532.5051.18578.6771.0867.1885.26147.3069.52707.3564.30275.0482.6055.0688.90825.0688.20642 0 .31101.0523.31101.1541 0 .1184-.13348.1762-.39908.1762-1.26055-.0207-2.18119-.0399-2.75918-.0523l-2.30917.0523c-.25459 0-.37982-.0578-.37982-.1762-.01238-.1018.07294-.15.26285-.15.28486 0 .50229-.0247.65504-.0729.08886-.0224.17058-.0669.2375-.1295.06691-.0626.11683-.1411.14507-.2283.07569-.1706.12386-.3963.15-.6757.0578-.8243.08808-2.1537.08808-3.9908v-3.2931c0-2.451-.01239-3.7707-.03028-3.9675-.01376-.3316-.06881-.5724-.16789-.7321-.10734-.1761-.31239-.289-.61239-.3413-.23471-.0381-.47232-.0556-.71009-.0523-.20642 0-.31101-.0509-.31101-.1513 0-.1198.13762-.1776.41835-.1776.87404.0079 1.74796.0262 2.62156.0551 1.73945 0 3.34266-.0055 4.81373-.0179.3248-.0138.5753-.0372.7459-.0729.0875-.0538.184-.0911.2849-.1101.088.0124.1348.0674.1348.1651-.0137.0963-.0646.3743-.1527.8353-.0248.4844-.0551.9881-.0922 1.5097 0 .1761-.0578.2642-.1775.2642-.1129 0-.1776-.1005-.19-.3014v-.3165c-.0114-.1365-.0473-.2698-.1059-.3936-.0468-.1348-.1748-.2656-.3826-.3936-.1968-.0977-.472-.1527-.8202-.1651l-2.81694-.055c-.10734 0-.16239.0853-.16239.2559v4.6886c-.01101.1156.03165.1734.12661.1734l2.32569-.0179c.30963 0 .58213-.0069.81743-.0193.3454 0 .6096-.1129.7927-.3385.0701-.128.1472-.1927.2325-.1927.0688 0 .1032.0592.1032.1748-.0099.2428-.0393.4844-.088.7224-.0097.1377-.0276.2835-.0523.4363-.042.4525-.0654.9066-.0702 1.361.0008.0765-.0051.153-.0179.2284-.0138.0854-.0688.128-.1693.128-.0935-.0124-.1403-.1004-.1403-.2656 0-.1459-.0358-.3358-.1074-.5766-.051-.1596-.1464-.3014-.2752-.4087-.078-.0831-.1728-.1488-.278-.1927-.1226-.0399-.2497-.0644-.3784-.0729-.45873-.0442-.91954-.0625-1.3803-.055h-1.31422c-.08257 0-.12661.055-.12661.1651zm31.49033 4.7573c.3358 0 .7377-.0674 1.1987-.2009.4706-.1404.9385-.4087 1.4009-.8051.4624-.4156.8436-1.0279 1.1436-1.8399.3027-.7981.4596-1.866.472-3.2023-.0248-2.122-.5326-3.7844-1.5275-4.9857-1.0046-1.1959-2.2707-1.7987-3.7955-1.8111-.5091 0-1.0238.0785-1.544.2381-.5546.1907-1.0544.5138-1.456.9413-.4376.4211-.7885 1.0128-1.0555 1.7752-.2779.7624-.4156 1.7326-.4156 2.9092 0 1.9954.4955 3.6413 1.489 4.9404.9702 1.3362 2.334 2.016 4.0899 2.0408zm-.761.9303c-2.5816-.0482-4.4573-.8601-5.6215-2.4303-1.1505-1.522-1.7202-3.1569-1.7064-4.9046-.0138-1.7105.5614-3.3358 1.7201-4.8757 1.156-1.5922 3.0812-2.4096 5.7785-2.4591 4.7986.1045 7.2481 2.4371 7.3486 6.9963-.011 2.1881-.6839 3.9949-2.0202 5.4261-1.3307 1.4601-3.1651 2.2101-5.4991 2.2473zm27.289-8.9808c0-2.4509-.0124-3.7747-.033-3.9701-.0096-.3303-.0674-.5739-.1679-.7322-.1073-.1775-.3096-.2889-.6124-.3385-.2339-.0408-.4712-.0592-.7087-.055-.2092.0124-.3124-.0413-.3124-.1679 0-.106.1349-.1583.4005-.1583 1.0885.0124 1.9734.0303 2.6518.0523.6454-.0096 1.3913-.0275 2.2363-.0523.2655 0 .399.0523.399.1583 0 .1252-.0963.1803-.2931.1679-.1706 0-.344.0179-.5229.055-.2326.0372-.3977.1376-.4982.3028-.1073.1706-.1651.4266-.1775.7679-.0124.2504-.0179.6316-.0179 1.1422-.0138.5133-.0193 1.4559-.0193 2.8279v2.6257c0 1.3239.1349 2.3271.4019 3.011.2408.7129.5835 1.2441 1.0211 1.5922.2174.1652.428.2959.6302.3922.2065.117.4033.1982.5863.2478.1968.0481.3826.0798.5601.0908.1844.0247.3495.0371.4981.0371.4074 0 .8354-.0798 1.2881-.238.45-.1514.8532-.4088 1.2138-.7679.4995-.5243.8119-1.1932.933-2.0037.0963-.7982.1376-1.6803.1252-2.645v-2.3422c0-2.4509-.011-3.7747-.0357-3.9701-.0097-.3303-.0689-.5739-.1693-.7322-.106-.1775-.3083-.2889-.611-.3385-.2171-.0384-.4373-.0569-.6578-.055-.2078.0124-.3124-.0413-.3124-.1679 0-.106.1294-.1583.3826-.1583.6989-.0002 1.3978.0172 2.0958.0523.128 0 .4184-.0096.867-.0344.4266-.0124.8257-.0179 1.2-.0179.2546 0 .3798.0523.3798.1583 0 .1252-.1073.1803-.3275.1679-.1651 0-.3427.0179-.5257.055-.2298.0372-.3949.1376-.4899.3028-.1128.1706-.1748.4266-.1871.7679-.0111.2504-.0179.6316-.0179 1.1408-.0124.9421-.0174 1.8844-.0152 2.8266v2.0009c.0124 1.0486-.0798 2.0711-.2752 3.0716-.2087.9807-.7136 1.8737-1.4463 2.5582-.6468.5491-1.2881.9124-1.9266 1.0886-.6331.1775-1.2523.2656-1.8537.2656-.4996.0123-1.1229-.0523-1.8757-.1927-.7486-.1459-1.4725-.5119-2.1647-1.094-.4624-.4156-.8449-1.0156-1.1436-1.8-.3165-.7707-.472-1.8262-.472-3.1597zm34.0431 6.1858c.0234.7074.0881 1.2179.1955 1.5344.1073.2987.2504.4789.4334.5395.3277.0977.6427.1403.9527.128.203 0 .308.0495.308.15-.018.1183-.16.1761-.425.1761-1.159-.0206-1.9118-.0385-2.2545-.0509-.653.0232-1.3062.0401-1.9596.0509-.267.0138-.4018-.0454-.4018-.1761 0-.1005.0977-.15.2945-.15.2683 0 .5408-.0303.8188-.0909.2339-.0605.3894-.2683.472-.622.0757-.3482.1101-.9151.0963-1.7023l.1597-11.0848c-.0124-.4088.0688-.6193.2422-.6331.1032 0 .2078.0523.3082.1569.1074.1101.2243.2532.3551.4294.6674.7624 2.5461 2.7633 5.6311 6.0055.691.7101 1.479 1.5399 2.367 2.4853.868.9605 1.413 1.555 1.634 1.7807h.088l-.179-8.4165c0-.5615-.044-.9633-.132-1.2179-.043-.1081-.109-.2057-.193-.2862s-.185-.142-.295-.1803c-.316-.0829-.642-.1186-.968-.106-.203 0-.298-.0578-.285-.1706 0-.0702.049-.117.143-.1404.096-.0137.202-.0192.327-.0192 1.019.0137 1.749.0316 2.199.055.108 0 .318-.0124.631-.0358.32-.0137.7-.0192 1.143-.0192.267-.011.408.0413.42.1596 0 .1128-.107.1706-.322.1706-.161 0-.344.0179-.553.051-.117.0222-.226.0756-.316.1545-.089.079-.155.1806-.192.2941-.1.2381-.158.6193-.168 1.1436l-.195 11.8211c0 .3812-.083.5738-.242.5738-.095 0-.19-.0523-.281-.1555-.116-.0761-.227-.1607-.33-.2532-1.795-1.8251-3.58-3.6591-5.356-5.5018-2.264-2.4152-3.7037-3.9867-4.3257-4.7188h-.055zm35.0766-4.1243c0 2.0739.011 3.333.036 3.7844.009.2381.034.5009.07.7872.014.2986.052.5091.124.6316.124.1762.378.3413.764.4941.378.1706.92.2559 1.623.2559 1.784.0248 3.179-.4238 4.184-1.3445.567-.5367.967-1.211 1.2-2.0229.226-.8619.335-1.75.326-2.6408-.011-1.2014-.201-2.1867-.568-2.9615-.152-.3593-.34-.7023-.56-1.0239-.205-.2752-.413-.5064-.62-.6963-.847-.7982-1.738-1.317-2.673-1.5523-.936-.2257-1.762-.3316-2.487-.3192-.193 0-.413.0055-.655.0178-.183.0191-.362.0588-.535.1184-.152.0619-.223.1871-.211.3757-.012.8202-.018 2.067-.018 3.739zm-2.271-2.0615c0-2.4522-.011-3.7761-.03-3.9715-.012-.3289-.069-.5725-.168-.7308-.107-.1775-.312-.2903-.615-.3385-.234-.0409-.471-.0594-.709-.055-.207.0124-.309-.0468-.309-.1679 0-.1074.132-.1624.399-.1624 1.101.0138 1.972.0316 2.617.055l2.795-.055c1.26-.0195 2.518.0693 3.763.2656 1.329.2202 2.507.8422 3.532 1.8633.468.4761.881 1.1078 1.235 1.8908.337.7872.512 1.7422.523 2.8707-.011 1.1669-.207 2.1949-.592 3.077-.392.878-.853 1.5881-1.386 2.1372-.197.2133-.468.4459-.817.6949-.403.2825-.831.5267-1.279.7294-.976.4954-2.306.7569-3.991.7872-.7-.0135-1.399-.0534-2.096-.1198-.589-.0634-1.182-.0988-1.775-.1059-.609.0124-1.375.0275-2.288.0523-.245 0-.365-.062-.365-.1776-.012-.1004.08-.1513.282-.1513.284 0 .501-.0248.654-.0744.088-.0228.17-.0675.237-.13s.117-.1408.145-.2277c.077-.1693.126-.395.152-.6757.056-.8574.088-2.1895.088-3.9867v-3.2932zm38.314 2.9078c.082 0 .113-.0371.088-.1101l-1.642-4.6238c-.01-.095-.04-.15-.089-.161-.046.011-.083.066-.104.161l-1.67 4.6046c-.031.0853-.006.1293.074.1293zm-3.708.9289c-.088 0-.145.0496-.17.1473l-.977 2.6835c-.182.4995-.276.8807-.276 1.1436 0 .1582.055.2889.164.3935.11.1225.299.1831.564.1831h.276c.191 0 .279.0523.267.1513 0 .117-.101.1789-.3.1789-.645-.0241-1.29-.0424-1.935-.055-.337.011-1.05.0303-2.139.055-.23 0-.345-.0619-.345-.1789 0-.1032.073-.1513.223-.1513.19 0 .375-.0124.557-.0372.416-.0605.736-.2408.969-.5394.133-.1576.241-.3355.318-.5271.089-.183.175-.3881.257-.6138l4.561-11.7468c.195-.5091.363-.7596.503-.7472.152 0 .303.1982.463.5917 1.489 3.8405 2.989 7.6767 4.5 11.5088.353.8119.663 1.3486.929 1.6073.265.2504.492.3936.675.4307.278.0482.533.073.761.073.157 0 .234.0523.234.1513 0 .0716-.049.1101-.144.1239-.123.0358-.355.055-.691.055-.74 0-1.885-.0137-3.435-.0371-.349 0-.53-.0468-.542-.1431 0-.0977.082-.1569.252-.1679.17-.0496.225-.1927.168-.4308l-1.456-3.9729c-.013-.0391-.038-.073-.072-.0964s-.074-.035-.115-.033zm29.586-8.2197-2.712.073c-.39.0002-.78.0371-1.163.11-.246.0684-.46.2203-.606.4294-.165.2862-.265.5037-.302.6564-.024.1459-.091.2202-.205.2202-.119 0-.171-.0991-.159-.2904 0-.0922.025-.2422.071-.4486.037-.2105.072-.4431.11-.6894.115-.5464.183-.8849.207-1.0101.05-.2367.12-.3564.215-.3564.076 0 .174.033.293.1004.152.0739.317.1174.486.128.575.0619 1.181.0922 1.821.0922h7.197c1.087-.0372 1.672-.0977 1.748-.183.096 0 .144.1307.144.3894-.012.6688-.03 1.3885-.055 2.1606-.012.2009-.067.3013-.168.3013-.132.0124-.199-.1128-.199-.3756l-.014-.2106c0-.2615-.16-.4954-.472-.7046-.321-.2009-.878-.3137-1.676-.3385l-2.292-.0551v7.6776c-.011 1.7986.02 3.1376.09 4.0156.03.2614.092.4789.186.6495.082.1899.261.3083.527.3578.298.0454.611.0688.933.0688.195 0 .293.0523.293.1528-.018.1197-.135.1775-.348.1775-1.301-.022-2.252-.0399-2.857-.0523l-2.289.0523c-.243 0-.363-.0578-.363-.1775-.012-.1005.085-.1487.29-.1487.222.007.443-.0175.658-.0729.089-.0256.171-.0711.24-.1331.069-.0619.123-.1388.158-.2247.073-.1706.113-.3963.124-.6771.059-.8559.089-2.1867.089-3.9825zm57.369 12.4335c.333 0 .738-.0674 1.199-.2009.472-.1404.94-.4087 1.401-.8051.462-.4156.844-1.0279 1.144-1.8399.303-.7981.459-1.866.471-3.2023-.025-2.122-.532-3.7844-1.527-4.9857-1.005-1.1959-2.271-1.7987-3.794-1.8111-.511 0-1.026.0785-1.546.2381-.555.1907-1.054.5138-1.456.9413-.436.4211-.791 1.0128-1.054 1.7752-.279.7624-.417 1.7326-.417 2.9092 0 1.9954.495 3.6413 1.49 4.9404.967 1.3362 2.333 2.016 4.089 2.0408zm-.761.9303c-2.582-.0482-4.456-.8601-5.622-2.4303-1.15-1.522-1.716-3.1569-1.706-4.9046-.01-1.7105.563-3.3358 1.722-4.8757 1.156-1.5922 3.079-2.4096 5.777-2.4591 4.798.1045 7.249 2.4371 7.348 6.9963-.011 2.1881-.688 3.9949-2.02 5.4261-1.335 1.4601-3.165 2.2101-5.499 2.2473zm29.159-2.795c.028.7074.09 1.2179.197 1.5344.11.2987.25.4789.433.5395.328.0977.643.1403.955.128.201 0 .306.0495.306.15-.018.1183-.16.1761-.425.1761-1.156-.0206-1.912-.0385-2.254-.0509-.266.0124-.921.0303-1.957.0509-.267.0138-.401-.0454-.401-.1761 0-.1005.094-.15.289-.15.27 0 .542-.0303.82-.0909.234-.0605.39-.2683.472-.622.079-.3482.111-.9151.101-1.7023l.155-11.0848c-.012-.4088.071-.6193.243-.6331.107 0 .21.0523.308.1569.107.1101.224.2532.355.4294.667.7624 2.546 2.7633 5.631 6.0055.694.7101 1.479 1.5399 2.367 2.4853.871.9605 1.413 1.555 1.636 1.7807h.086l-.178-8.4165c0-.5615-.041-.9633-.135-1.2179-.043-.1083-.109-.2061-.193-.2866-.084-.0806-.185-.1419-.295-.1799-.314-.0831-.639-.1189-.964-.106-.206 0-.3-.0578-.289-.1706 0-.0702.054-.117.145-.1404.096-.0137.206-.0192.327-.0192 1.019.0137 1.754.0316 2.2.055.107 0 .32-.0124.63-.0358.325-.0137.703-.0192 1.143-.0192.266-.011.408.0413.42.1596 0 .1128-.104.1706-.322.1706-.158 0-.344.0179-.55.051-.118.0216-.227.0748-.316.1539-.09.079-.156.1809-.192.2947-.103.2381-.163.6193-.171 1.1436l-.192 11.8211c0 .3812-.086.5738-.245.5738-.095 0-.19-.0523-.278-.1555-.118-.076-.229-.1607-.333-.2532-1.795-1.8251-3.58-3.6591-5.356-5.5018-2.264-2.4152-3.705-3.9867-4.326-4.7188h-.051zm-58.935-6.2215c0-2.4427-.009-3.7597-.03-3.9551-.025-.6248-.23-.9729-.621-1.0459-.214-.0495-.434-.074-.655-.0729-.19.0124-.285-.0495-.285-.1858 0-.0963.148-.1445.435-.1445.785.0096 1.57.0289 2.355.0578.615-.011 1.353-.0302 2.215-.0578.241 0 .369.0496.379.1445 0 .1376-.098.1982-.293.1858-.182.0022-.364.0207-.542.0551-.233.0357-.398.1376-.499.2986-.107.1706-.165.4266-.177.7679-.012.2504-.018.6289-.018 1.1422-.014.5105-.019 1.4504-.019 2.8197v3.2849c-.014 1.866.014 3.2325.074 4.0954.033.2504.101.4486.196.5945.088.1775.265.2835.532.3206.303.0454.608.0688.922.0688.197 0 .295.0537.295.1514-.013.1183-.128.1789-.346.1789-1.296-.0234-2.232-.0413-2.826-.055l-2.282.055c-.241 0-.363-.0606-.363-.1762-.013-.1004.082-.15.28-.15.285 0 .503-.0275.655-.0729.331-.0729.505-.3853.53-.9303.058-.8504.088-2.2073.088-4.0734z" fill="#54565a" fill-rule="evenodd"/></svg>