<svg fill="none" height="129" viewBox="0 0 201 129" width="201" xmlns="http://www.w3.org/2000/svg"><g fill="#d24508"><path d="m37.6409 100.673h6.2676l10.8734 27.698h-6.1503l-2.3811-6.35h-11.2292l-2.4202 6.35h-5.7515zm3.0536 5.556h-.0782l-4.0076 11.429h8.0935z"/><path d="m57.4414 107.935h4.9617v2.858h.0782c1.6656-2.502 4.0858-3.335 6.0681-3.335 2.8581 0 4.8835 1.072 6.033 3.613 1.2277-2.463 3.8864-3.613 6.3887-3.613 5.0399 0 6.467 3.453 6.467 8.016v12.894h-5.3175v-12.179c0-1.904 0-4.602-3.0536-4.602-3.5345 0-3.9685 4.203-3.9685 6.862v9.919h-5.3175v-12.179c0-1.904 0-4.602-3.0536-4.602-3.5306 0-3.9685 4.203-3.9685 6.862v9.919h-5.3175z"/><path d="m108.823 127.218c-1.943 1.072-4.164 1.627-7.022 1.627-6.7446 0-10.674-3.887-10.674-10.592 0-5.912 3.1357-10.795 9.481-10.795 7.582 0 9.724 5.2 9.724 12.339h-14.1261c.2385 3.296 2.5414 5.161 5.8331 5.161 2.577 0 4.802-.954 6.784-2.064zm-3.57-11.069c-.16-2.58-1.349-4.801-4.328-4.801-2.9753 0-4.4806 2.065-4.7191 4.801z"/><path d="m114.258 107.935h4.719v4.641h.082c.239-1.904 2.42-5.118 5.595-5.118.516 0 1.072 0 1.627.161v5.356c-.477-.278-1.431-.438-2.381-.438-4.325 0-4.325 5.396-4.325 8.332v7.499h-5.317z"/><path d="m129.332 99.1261h5.317v5.0789h-5.317zm0 8.8089h5.317v20.433h-5.317z"/><path d="m153.141 112.34c-.955-.438-1.987-.755-3.613-.755-3.292 0-5.396 2.62-5.396 6.467 0 3.769 1.787 6.666 5.517 6.666 1.505 0 3.175-.555 4.086-.95l.238 4.403c-1.548.477-3.135.676-5.317.676-6.706 0-10.076-4.563-10.076-10.795 0-5.912 3.488-10.592 9.876-10.592 2.147 0 3.691.239 5.162.673z"/><path d="m158.059 109.007c2.064-.954 4.84-1.549 7.1-1.549 6.232 0 8.809 2.581 8.809 8.61v2.619c0 2.065.039 3.613.082 5.119.039 1.548.117 2.975.235 4.562h-4.68c-.2-1.071-.2-2.42-.239-3.053h-.078c-1.232 2.264-3.89 3.53-6.311 3.53-3.608 0-7.139-2.181-7.139-6.072 0-3.053 1.466-4.84 3.491-5.829 2.022-.993 4.641-1.193 6.862-1.193h2.937c0-3.292-1.467-4.402-4.602-4.402-2.264 0-4.524.872-6.307 2.22zm6.228 15.952c1.627 0 2.897-.716 3.73-1.826.876-1.153 1.111-2.62 1.111-4.207h-2.299c-2.382 0-5.916.399-5.916 3.531 0 1.747 1.47 2.502 3.374 2.502z"/><path d="m90.7561 52.3155 11.1199-31.154 12.12 31.154zm23.7529-52.134486h-20.5038l-32.8509 84.770286h17.9386l7.374-20.304h32.1711l7.182 20.304h22.497z"/><path d="m59.5605 70.855c-3.3273.8524-7.3584 1.2629-12.0737 1.2629-6.9518 0-12.4452-2.3498-16.4724-7.0691-4.0272-4.7114-6.0408-11.9603-6.0408-21.7585v-1.2003c0-9.1609 2.1661-16.3473 6.4865-21.5357 4.3009-5.1923 10.3104-7.7924 17.9738-7.7924 4.1171 0 7.726.3245 10.7952.9462 3.0537.6217 5.4778 1.3372 7.2802 2.1504v-12.95345c-1.9705-.87973-4.7153-1.58742-8.2772-2.115253-3.5384-.520016-7.9879-.78979671-13.2858-.78979671-12.3318 0-22.5796 3.75348971-30.7513 11.24479971-8.16385 7.4836-12.25359 17.4303-12.25359 29.8169v3.3234c0 13.2662 4.01936 23.3303 12.06979 30.2 7.9293 6.7563 18.1498 10.1813 30.6458 10.2791v.0273h13.8644l6.0995-15.7685c-1.6735.5591-3.691 1.1377-6.0604 1.732z"/><path d="m200.688 12.8492v-12.730578h-59.297v63.043078l8.668 21.7312h13.207v-36.6162h29.059v-12.7423h-29.059v-22.6852z"/></g><path d="m200.092 92.3976-199.4045.0001" stroke="#d24508" stroke-width=".5"/></svg>