<svg fill="none" height="105" viewBox="0 0 312 105" width="312" xmlns="http://www.w3.org/2000/svg"><path d="m0 104.982h104.982v-104.98200343h-104.982z" fill="#f18b08"/><path d="m39.5868 47.04-5.0311-16.4862h-3.4921l-5.0312 16.5-4.807-16.5h-3.6453l6.7257 21.929h3.4304l5.0425-16.541 5.0541 16.541h3.4166l6.7349-21.929h-3.6453z" fill="#fff"/><path d="m68.7771 57.8584h-4.8596l-9.6987 8.6033v-13.6276h-.0046v-10.6432l10.1972 10.291h4.8414l-12.0611-11.9101 11.5854-10.0189h-4.8596l-9.7033 8.601v-26.1049h-3.3412v39.7851 4.6698 34.4909h3.3458v-22.4984l10.1926 10.0577h4.8414l-12.0611-11.6837z" fill="#fff"/><path d="m87.4058 60.8942v-3.037h-14.9449v21.698h3.3412v-9.6278h10.4648v-3.037h-10.4648v-5.9962z" fill="#fff"/><g fill="#76777b"><path d="m140.774 39.8439h-3.906l-2.518-11.0503c-.597-2.6711-.991-4.9991-1.155-6.337h-.199c-.165 1.1183-.666 3.9472-1.162 6.2066l-2.449 11.1807h-3.936l-5.392-21.9976h3.439l2.518 11.2972c.693 3.1833.986 5.5731 1.226 6.9407h.201c.256-1.5574.695-4.1393 1.256-6.6503l2.641-11.5876h3.677l2.614 11.6539c.563 2.4447 1.093 5.5343 1.187 6.4902h.206c.194-1.2395.83-4.807 1.315-7.0321l2.419-11.112h3.309z"/><path d="m146.975 40.1695c-1.19 0-2.061-.9491-2.061-2.0948 0-1.1503.871-2.0971 2.061-2.0971 1.191 0 2.071.9468 2.071 2.0971 0 1.1457-.88 2.0948-2.071 2.0948z"/><path d="m167 39.8312-8.144-11.7203 7.977-10.2201h4.004l-8.336 10.1881 8.633 11.7523zm-11.52-21.9404h3.248v21.9404h-3.248z"/><path d="m175.392 40.1695c-1.19 0-2.054-.9491-2.054-2.0948 0-1.1503.864-2.0971 2.054-2.0971 1.196 0 2.071.9468 2.071 2.0971 0 1.1457-.875 2.0948-2.071 2.0948z"/><path d="m134.05 70.8026-8.148-11.7158 7.986-10.2224h4.009l-8.345 10.1858 8.638 11.7524zm-11.519-21.9382h3.243v21.9382h-3.243z"/><path d="m141.162 70.8026v-21.9382h12.411l-.425 2.5156h-8.773v6.6846h7.346v2.5796h-7.314v7.5147h9.532v2.6437z"/><path d="m168.96 70.8026h-11.384v-21.9382h3.243v19.3906h8.672z"/><path d="m184.52 70.8026h-11.391v-21.9382h3.245v19.3906h8.67z"/><path d="m195.269 50.873c-4.034 0-5.662 2.8975-5.662 8.5301 0 5.6029 1.363 9.4243 5.829 9.4243 3.545 0 5.567-2.4492 5.567-8.569 0-5.9504-1.434-9.3854-5.734-9.3854zm.167 20.2779c-6.284 0-9.399-4.8116-9.399-11.4002 0-7.2242 3.641-11.2652 9.232-11.2652 6.719 0 9.367 5.3811 9.367 11.4894 0 6.7188-3.407 11.176-9.2 11.176z"/><path d="m217.968 71.1171c-3.041 0-5.459-.9857-7.213-2.9593-1.818-2.0376-2.646-4.6172-2.646-8.2145 0-4.3908 1.32-7.4141 3.938-9.486 1.654-1.3058 3.472-1.8798 5.722-1.8798 2.488 0 4.672.702 6.458 2.1931l-1.52 1.9164c-1.688-1.18-3.12-1.658-4.871-1.658-2.187 0-3.906.8256-4.899 2.8014-1.059 2.1063-1.262 3.6636-1.262 6.2684 0 3.0301.564 5.285 1.628 6.6343.997 1.2326 2.945 1.9644 4.901 1.9644 1.29 0 2.454-.3156 3.375-.8324v-6.2341h-4.203l-.533-2.5133h7.881v10.2522c-1.855 1.116-4.334 1.7472-6.756 1.7472z"/><path d="m238.225 71.1171c-3.044 0-5.468-.9857-7.217-2.9593-1.818-2.0376-2.649-4.6172-2.649-8.2145 0-4.3908 1.324-7.4141 3.945-9.486 1.651-1.3058 3.467-1.8798 5.722-1.8798 2.486 0 4.668.702 6.458 2.1931l-1.527 1.9164c-1.686-1.18-3.115-1.658-4.862-1.658-2.184 0-3.913.8256-4.899 2.8014-1.061 2.1063-1.265 3.6636-1.265 6.2684 0 3.0301.563 5.285 1.622 6.6343 1.002 1.2326 2.95 1.9644 4.903 1.9644 1.292 0 2.454-.3156 3.375-.8324v-6.2341h-4.205l-.519-2.5133h7.871v10.2522c-1.857 1.116-4.331 1.7472-6.753 1.7472z"/><path d="m134.018 82.0984h-8.244v6.6595h6.755v2.4812h-6.755v10.2819h-3.202v-21.9359h11.881z"/><path d="m146.322 81.5926c-4.034 0-5.657 2.8952-5.657 8.537 0 5.5983 1.358 9.4197 5.824 9.4197 3.54 0 5.562-2.4493 5.562-8.5599 0-5.9619-1.422-9.3968-5.729-9.3968zm.167 20.2804c-6.293 0-9.401-4.805-9.401-11.4027 0-7.222 3.647-11.2652 9.234-11.2652 6.719 0 9.372 5.3788 9.372 11.4893 0 6.7258-3.407 11.1786-9.205 11.1786z"/><path d="m174.158 99.2907c-1.16 1.3743-3.051 2.5843-6.554 2.5843-3.447 0-5.727-1.05-6.891-3.0623-.592-1.0131-.725-1.6214-.725-3.9083v-15.3176h3.207v14.1673c0 1.5894.164 3.5378.832 4.2673.629.6998 1.786 1.2395 3.613 1.2395 1.722 0 2.975-.5054 3.698-1.4316.565-.6975.833-1.8775.833-3.6316v-14.6109h3.178v15.0615c0 2.7671-.167 3.4326-1.191 4.6424z"/><path d="m192.687 101.522-5.996-11.6538c-1.157-2.2595-2.351-4.743-2.776-6.0145l-.197.0343c.164 1.8707.233 4.0706.261 6.1083l.137 11.5257h-3.216v-21.9334h3.71l6.357 12.0954c.956 1.8181 2.086 4.6469 2.251 5.2575l.194-.0708c-.062-.6312-.329-4.1004-.329-6.5245l-.069-10.7576h3.085v21.9334z"/><path d="m212.274 83.9774c-1.263-1.5254-2.587-1.9393-4.803-1.9393h-2.582v16.9664h2.52c2.61 0 4.298-.6632 5.324-2.4492.833-1.4636 1.228-3.4395 1.228-5.6029 0-3.0576-.331-5.3193-1.687-6.975zm2.746 14.5812c-1.589 1.9114-3.709 2.9634-7.679 2.9634h-5.695v-21.9355h5.297c3.94 0 6.458.8576 8.539 3.6248 1.352 1.8158 2.019 4.3336 2.019 7.3615 0 3.5629-.96 6.1723-2.481 7.9858z"/><path d="m228.586 82.6062h-.201c-.328 1.2418-2.74 9.1087-3.14 10.1584h6.426c-.407-1.02-2.781-8.8755-3.085-10.1584zm5.79 18.9128-2.015-6.2046h-7.912l-1.985 6.2046h-3.312l7.481-21.9681h3.972l7.346 21.9681z"/><path d="m252.948 82.1309h-5.933v19.3901h-3.146v-19.3901h-5.926v-2.5453h15.329z"/><path d="m257.283 79.5861h3.236v21.9359h-3.236z"/><path d="m274.198 81.5896c-4.039 0-5.663 2.8975-5.663 8.5416 0 5.5937 1.366 9.4174 5.823 9.4174 3.547 0 5.564-2.4539 5.564-8.5667 0-5.9574-1.427-9.3923-5.724-9.3923zm.16 20.2824c-6.282 0-9.397-4.8024-9.397-11.4001 0-7.2266 3.645-11.2721 9.237-11.2721 6.721 0 9.36 5.3834 9.36 11.4939 0 6.7212-3.408 11.1783-9.2 11.1783z"/><path d="m299.411 101.522-5.983-11.6538c-1.164-2.2617-2.355-4.743-2.783-6.0214l-.201.0412c.171 1.8707.235 4.0706.263 6.1083l.135 11.5257h-3.211v-21.9357h3.707l6.355 12.0977c.956 1.8158 2.081 4.6469 2.25 5.2575l.204-.0731c-.066-.6312-.332-4.1004-.332-6.5222l-.07-10.7599h3.08v21.9357z"/><path d="m308.369 82.2588h.302c.35 0 .633-.1166.633-.4025 0-.2493-.183-.4185-.585-.4185-.167 0-.281.0183-.35.0343zm-.016 1.5391h-.636v-2.7443c.25-.0343.599-.0846 1.055-.0846.516 0 .752.0846.935.2195.167.1167.283.3156.283.5855 0 .3339-.249.5511-.567.654v.032c.268.0824.4.2996.485.6678.082.4185.149.5672.199.6701h-.668c-.084-.1029-.135-.3339-.217-.6701-.05-.2836-.217-.4185-.569-.4185h-.3zm-1.69-1.4225c0 1.2212.919 2.1931 2.141 2.1931 1.186.0161 2.09-.9719 2.09-2.1748 0-1.2212-.904-2.2091-2.122-2.2091-1.19 0-2.109.9879-2.109 2.1908zm4.935 0c0 1.5391-1.239 2.7603-2.81 2.7603-1.574 0-2.827-1.2212-2.827-2.7603s1.253-2.7442 2.843-2.7442c1.555 0 2.794 1.2051 2.794 2.7442z"/></g></svg>